<svg id="button_Button1-6_hover" data-name="button/Button1-6/hover" xmlns="http://www.w3.org/2000/svg" width="150" height="100" viewBox="0 0 150 100">
  <path id="路径_442" data-name="路径 442" d="M1551.423-26.719c-6.806.983-1.906-.616-.405-.738.537-.043,1.35-.258,2.342-.394a15.441,15.441,0,0,0,.693-4.149c0-.063,0-.119,0-.181-1.908.166-4.608.428-8.145.862-10.265,1.261-2.477-.418.813-1.041a23.914,23.914,0,0,1,4.181-.408c.271-.06.562-.112.875-.149.059-.007.121-.011.184-.013l2.086-.054c0-.438-.016-.867-.042-1.281-.624,0-1-.005-1-.005s.024-.2.972-.45a20.417,20.417,0,0,0-.38-2.662c-3.971.357-9.5.853-10.77,1.175-.236.06,7.992.944,7.7.935-2.978-.093-23.16.853-16.285-1.057a2.6,2.6,0,0,1,.482-.081c1.62-.129,10.432-.821,18.814-1.242-1.653-7.158-2.543-11.228-5.92-16.307-4.054.834-16.534,3.007-16.534,3.007s-7.91-.758-3.527-1.79c5.2-1.225,12.2-2.791,19.171-2.876a78.389,78.389,0,0,0-6.369-7.637l-11.972,1.6a3.327,3.327,0,0,1-.617-.01c3.5.392,13.035-1.636,12.589-1.59-.206-.488-1.153-1.012-1.344-1.534-2.451.21-10.807,1.163-15.126,1.722-11.2,1.45-4.91-1.58-.211-1.723.036,0,.07,0,.107,0,.511.025,9.609-.037,15.23,0-1.434-2.2-1.614-3.642-2.945-5.1a3.73,3.73,0,0,1-1.037.383c-5.614,1.528-26.737,1.448-18.817.581,3.236-.354,18.467-1.647,19.812-1.165-.251-1.191-2.278-3.734-3.242-4.616-29.2-26.713-104.747-19.187-108.438,23.263C1421.773-21.9,1459.481-11,1491.819-8.569s55.411-2.552,61.223-18.347C1552.528-26.863,1552-26.8,1551.423-26.719Z" transform="translate(-1417.217 103.297)" fill="#dcdcc3"/>
  <path id="路径_443" data-name="路径 443" d="M1584.206-10.324c-9.016,1.283-1.293-.975.694-1.135,1.221-2.624,2.745-6.035,2.746-6.116-2.009.172-.414-.7,0-.751.078-.008-5.115,0-5.032,0l5.032-1.035c-.006-.573.716-4.265.482-5.345a32.468,32.468,0,0,0-8.4,1.759c-.313.078,7.136.77,6.747.759-3.944-.121-34.982,5.435-25.877,2.941.184-.049,12.98-3.683,13.213-3.7,2.145-.169,3.221-1.655,14.321-2.2-1.1-9.056-4.287-14.065-7.668-21.579-5.368,1.088-11.1,2.017-11.1,2.017s1.861-1.907,11.1-2.017c-1.809-3.769-3.877-5.743-5.912-10.264l-13.954.847a4.613,4.613,0,0,1-.817-.015c-1.3-.143,8.229-.9,14.03-1.482-.272-.636-1.352-2.051-1.605-2.731-3.245.274-28.974,4.992-34.693,5.723-14.829,1.891,10.625-5.4,16.849-5.585.048,0,.094,0,.142,0,.678.032,10.257-.187,17.7-.139-1.667-1.845-5.022-5.228-5.874-5.889a7.419,7.419,0,0,1-1.334.348c-7.436,1.993-31.009,1.414-20.519.283,4.287-.462,20.071-1.26,21.853-.631-5.2-3.36-15.629-16.264-46.349-17.59s-71.847,16.587-74.722,45.581S1460.337-1.216,1509.646,4.2,1578.541-.189,1584.206-10.324Z" transform="translate(-1441.964 88.924)" fill="#ffffe2"/>
  <rect id="矩形_379" data-name="矩形 379" width="150" height="100" fill="none"/>
  <rect id="矩形_417" data-name="矩形 417" width="150" height="100" fill="none"/>
  <g id="组_734" data-name="组 734" transform="translate(-252.873 -75.358)">
    <path id="联合_18" data-name="联合 18" d="M87.5,31.726c-.131-.08-.1-.087-.095-.09s0-.008-.144-.129c.093.093.085.095.02.056a.738.738,0,0,1-.129-.106.516.516,0,0,1-.129-.22.723.723,0,0,1,.058-.451c.024-.069.034-.106.018-.085.2-.316.436-1.177.473-1,.138-.41.067-.354.025-.237a9.76,9.76,0,0,0,.325-1.274c.1-.253.473-2.178.656-2.642-.1.248-.011-.059.038-.342l-.1.248c.054-.215.106-.431.163-.645a.705.705,0,0,1,.045-.167c.031-.109.016.032.1-.242a6.151,6.151,0,0,0,.163-.709l-.027.065.088-.3c.028-.09,0,.03-.029.15-.037.168-.068.336.071-.072a2.451,2.451,0,0,1,.163-.621c-.12.357-.076.321-.022.193l.168-.5-.105.149q.36-1.075.788-2.172.212-.548.439-1.1l.23-.553a4.694,4.694,0,0,0,.209-.554,3.14,3.14,0,0,0,.176-.515c.08-.261.2-.5.189-.417l-.03.055c-.135.377.058-.1.232-.375-.095.141-.027,0,.013-.076.015-.034.024-.052,0-.034a.48.48,0,0,0-.054.069,1.859,1.859,0,0,0-.122.2c.021-.049.05-.1.075-.145s.064-.1.074-.124l.052-.079a.372.372,0,0,0,.047-.064c-.048.008-.09.014-.129.017l-.055,0H91.4s-.04,0-.061,0c-.189-.012-.419-.034-.667-.064-.5-.058-1.066-.145-1.541-.215a.452.452,0,0,0,.094.007,10.917,10.917,0,0,1-1.278-.262c-.384-.1-.684-.2-.78-.227l-.067-.038a1.938,1.938,0,0,1-.753-.287.425.425,0,0,1-.115-.383,1.738,1.738,0,0,1,.179-.512c0,.011-.047.1.021-.019a.824.824,0,0,1,.232-.3.893.893,0,0,1,.654-.155l-.025,0a8,8,0,0,1,.924.142,6.209,6.209,0,0,0,.81.176c.426.08.89.116,1.028.139h.215l.108,0c.053.011.011-.032,0-.058L90.3,14.7l-.082-.15c-.054-.1-.1-.185-.132-.253a.458.458,0,0,0-.027-.066,7.311,7.311,0,0,1-.5-1.341c-.075-.248-.051-.139-.028-.027-.064-.248-.151-.592-.214-.9s-.109-.577-.115-.671c-.027-.241-.019-.23-.01-.219s.011.011.011-.025c-.029-.278-.037-.252-.046-.252s-.007-.005-.014-.057a2.3,2.3,0,0,1-.021-.348.708.708,0,0,0,.017.193,1.2,1.2,0,0,1,0-.261.578.578,0,0,1,.123-.293.964.964,0,0,1,.49-.264.937.937,0,0,0-.188.051A.664.664,0,0,1,90,9.756a.478.478,0,0,1,.2.108.764.764,0,0,1,.127.164,2.52,2.52,0,0,1,.137.3.506.506,0,0,0,.079.147l0-.052c.345.826.166.342.509,1.182l-.007-.009a6.466,6.466,0,0,0,.327.734l-.049-.127c.194.451.209.492.4.954.025.053.124.273.142.341.04.008.459,1.065.541,1.272-.155-.363-.1-.184-.069-.075a1.432,1.432,0,0,0,.163.256.585.585,0,0,0,.28.186.284.284,0,0,1,.14-.052c.043-.009.1-.019.183-.041.038-.012.094-.025.158-.04s.136-.031.218-.043c-.1.021-.257.06-.191.056s.217-.038.267-.051c.066,0-.141.04-.067.046a5.959,5.959,0,0,1,1.383-.09c-.2.016-.027.026.044.044a1.216,1.216,0,0,1,.379-.01c.191.009.358.017.233-.022a4.733,4.733,0,0,0,.979-.091,1.389,1.389,0,0,1,.581,0,1.111,1.111,0,0,1,.515.269c.6.572.223,1.464-.112,1.464-.07.018-.2.051-.321.073s-.258.059-.363.077l.023-.034c-.576.155-.449.1-1.132.278.28-.087.158-.08-.136-.062q-.232.071-.469.135l-.1-.035a3.377,3.377,0,0,1-.634.062,2.289,2.289,0,0,1-.51.058h-.252a.721.721,0,0,0-.076,0c-.049,0-.08.024-.081.044-.028,0-.046.03-.057.062a1.893,1.893,0,0,0-.038.19.81.81,0,0,1-.116.341c-.014.072-.038.163-.067.26.064-.089.11-.113.025.068l-.016.044-.069.064c-.066.188-.136.374-.182.5.025-.054.055-.114.091-.177-.037.075-.071.144-.1.211l-.024.064a.307.307,0,0,1,.012-.039l-.037.082-.029.076a.348.348,0,0,0-.021.095.736.736,0,0,0-.054.147l-.008.038,0,.018s0,.008,0,.007l.008-.006c.021-.016.043-.035.067-.049a.6.6,0,0,1,.088-.05.353.353,0,0,1,.044-.017l.021-.006.011,0,.032,0a1.062,1.062,0,0,1,.5.088,2.845,2.845,0,0,1,.39.208l.17.1c.059.038.118.076.174.116a1.31,1.31,0,0,0-.28-.152c.131.071.28.156.414.235s.265.167.383.255c.241.169.451.331.62.451l0-.049a4.5,4.5,0,0,1,.905.867l.049-.011a5.6,5.6,0,0,1,.609,1.007,2.574,2.574,0,0,1,.258.969,2.046,2.046,0,0,1,.089.481c.007.11.015.226.022.334s.009.205.016.284l-.031.082c0,.411.011.664.016.91-.089.829-.088,1.6-.161,2.314l-.01.006-.047.728c-.011-.193.006.145-.022.362,0,.116-.015.267-.031.423-.007.074-.02.163-.034.25a1.483,1.483,0,0,1-.069.242,1.442,1.442,0,0,1-.248.48c.2-.341.118-.225.02-.11-.052.061-.108.122-.13.116a1.411,1.411,0,0,1-.227.24c-.052.027-.029,0,0-.023s.068-.063-.044.01a1.659,1.659,0,0,1-.465.244c-.194.071-.39.114-.49.143a.939.939,0,0,0,.206-.008c.025-.008.023-.007.007,0l.021,0-.026,0-.083.029c-.2.028-.267.025-.279.031s.029.011.037.019c-.233-.012-.4-.037-.563-.059-.079-.014-.154-.03-.228-.049-.057-.018-.114-.037-.172-.06.106.051-.115,0-.346-.073-.26-.082-.525-.215-.409-.125-.139-.092-.187-.12-.224-.14a.509.509,0,0,1-.141-.1,3.033,3.033,0,0,0,1.2.411c-.115-.034-.226-.078-.336-.121a3.8,3.8,0,0,1,.5.106,1.846,1.846,0,0,0,.493.066,1.44,1.44,0,0,1-.465-.055l.081.057a2.164,2.164,0,0,0,.7.014,2.261,2.261,0,0,0,.564-.171c-.166.046-.067.01.036-.041s.209-.121.092-.081a1.922,1.922,0,0,1-.245.1c-.036.006-.037,0-.021-.008a2.763,2.763,0,0,1-.291.072,3.544,3.544,0,0,1-2.407-.6.817.817,0,0,1-.248-.147c-.129-.1-.228-.23-.182-.135a1.045,1.045,0,0,1-.1-.2,3.739,3.739,0,0,1-.158-.376c-.048-.15-.044-.054,0,.1a2.49,2.49,0,0,0,.158.391c-.1-.155-.143-.24-.168-.283s-.031-.044-.038-.048a.671.671,0,0,1,.007-.373c.028-.052.046-.024.083.114a.8.8,0,0,1,.038-.477c-.019.038-.021.041-.016.015a.655.655,0,0,1,.111-.209l.02,0-.018.026a1,1,0,0,1,.106-.124c.386-.381.832-.131,1.226.036.194.083.33.293.513.414.426.28.708.21.668-.355-.081-1.175.37-2.284.276-3.495a4.373,4.373,0,0,0-2.219-3.783,1.667,1.667,0,0,1-.854-.673l-.007.028.041.062s0,.005.008.012.018.034-.05-.071l-.038.142-.027.07.064-.213-.011-.016-.256.818c.066-.187.129-.368.072-.165l.079-.269c-.019.091-.254.845-.289,1l-.27.845c.005-.01,0,.005,0,.019s-.005.047.021-.038c-.062.21-.116.394-.025.121-.322,1.009-.641,2.035-.948,3.06l-.461,1.532c-.075.253-.161.508-.23.756a7.458,7.458,0,0,0-.152.761c-.015.139.007.061.023.009a2.3,2.3,0,0,0-.049.576c-.042.185-.085.371-.141.554-.023.156-.005.127.01.1.007-.014.015-.028.017-.022a3.417,3.417,0,0,1-.252.777,2.866,2.866,0,0,1-.2.355,1.892,1.892,0,0,1-.263.307,1.475,1.475,0,0,1-.686.375,1.1,1.1,0,0,1-.252.029A1.182,1.182,0,0,1,87.5,31.726Zm5.25-2.087.028.028-.025-.028h0Zm-.147-.192a.716.716,0,0,0,.075.1.851.851,0,0,1-.05-.07,1.871,1.871,0,0,1-.2-.45A1.285,1.285,0,0,0,92.606,29.446Zm4.241-.155c.018.053.039.107.093-.12.128-.885-.016-.738.094-1.811,0-.033,0-.02.009-.008s.036.052.058-.337a6.082,6.082,0,0,0-.033-1.08c-.038.737-.108,1.47-.176,2.2.009-.066.018-.119.025-.154a4.641,4.641,0,0,0-.045.629l.057-.386c-.028.315-.093.56-.119,1.028,0-.008.008-.012.012-.012S96.84,29.267,96.848,29.291Zm.142-.1V29.2l.023-.17S97.007,29.074,96.99,29.186ZM88.72,24.7c-.006.066-.014.132.036-.1Zm8.3-1.135c0-.042.01-.1.025-.081a1.972,1.972,0,0,0-.113-.373C96.966,23.256,97,23.407,97.018,23.564ZM95.505,20.73a5.149,5.149,0,0,1,.391.391c.032,0,.064,0,.095.006l-.044.053a4.768,4.768,0,0,1,.342.447.146.146,0,0,0-.017-.059c-.02-.042-.059-.118-.112-.207s-.124-.185-.192-.28l-.2-.247-.11-.121a.162.162,0,0,0-.074-.02A.105.105,0,0,0,95.505,20.73Zm-3.265-.4.011.016.008-.027-.01-.016Zm.236-.805A.816.816,0,0,1,93.2,19.3a.938.938,0,0,1,.1.007,3.564,3.564,0,0,1,.539.148,2.883,2.883,0,0,0-.486-.212.877.877,0,0,0-.131-.064.617.617,0,0,0-.537.167,1.735,1.735,0,0,0-.141.118L92.5,19.5s0-.012-.005-.018,0-.015,0-.023C92.487,19.48,92.48,19.5,92.477,19.526Zm1.875-2.455c.1-.007.041-.007.034-.016A.116.116,0,0,1,94.351,17.07Zm1.235-.245c.027.024.047.046.017.068l.371-.133ZM92.772,15.2a.754.754,0,0,0-.112-.053.446.446,0,0,1-.1-.046c.094.044.157.044.093.014a.555.555,0,0,1-.227-.185,1.49,1.49,0,0,1-.141-.276c.019.053.036.131.07.216a.755.755,0,0,0,.1.144.613.613,0,0,0,.11.088.55.55,0,0,1-.057-.033A.577.577,0,0,0,92.772,15.2ZM12.416,30.6c-.065-.008-.083-.014-.081-.017-.053-.014.017-.02-.112-.066-.1-.034-.159-.049-.2-.063a.84.84,0,0,1-.141-.042l.028.025a.959.959,0,0,1-.136-.088c-.046-.04.041.026.109.047s.1.032-.045-.078a.308.308,0,0,1-.12-.057.355.355,0,0,1-.133-.158c.057.083.091.111.1.111s0-.022-.014-.055a.811.811,0,0,1-.129-.231.63.63,0,0,0-.012.1,1.067,1.067,0,0,1-.095-.573,1.056,1.056,0,0,1,.189-.552.809.809,0,0,1,.508-.316,1.3,1.3,0,0,1,.575.039c-.014.034.484.143.412.172l-.025-.011c-.171-.04.039.053.181.078-.142-.049.271.01-.08-.079.093.015.185.027.277.039a1.435,1.435,0,0,1,.477.044,2.566,2.566,0,0,0,.673.032.1.1,0,0,0-.04.011c.185-.018.392-.042.562-.075a1.806,1.806,0,0,0,.343-.088l.036,0a1.5,1.5,0,0,1,.338-.122,1.662,1.662,0,0,1,.408-.024c-.006,0-.051.006.011.01a2.2,2.2,0,0,1,.453.014l-.011,0a1.032,1.032,0,0,0,.391-.023c0,.009.045,0,.094-.032a.313.313,0,0,0,.12-.194c.042-.178.02-.389.041-.451-.012-.081-.023-.383-.037-.517a.094.094,0,0,0,0-.032c-.028-.157-.022-.458-.039-.633-.015-.114-.018-.064-.021-.014,0-.228-.085-.62-.088-.7-.012-.106-.005-.1,0-.1s.01,0,.011-.012c-.017-.113-.027-.112-.034-.11s-.015,0-.028-.174c.007.038.018.108.017.081-.014-.125.012-.357-.017-.481l0,.084a4.355,4.355,0,0,0-.083-.578l-.015.024c-.042-.4-.036-.165-.084-.566l0,0a1.158,1.158,0,0,0-.077-.349l.007.06c-.041-.215-.045-.234-.087-.452a.79.79,0,0,1-.034-.161,3.433,3.433,0,0,1-.139-.6c.042.171.039.087.043.035a.654.654,0,0,1-.076-.31c-.05-.011-.1-.029-.17-.306.016.042.036.108.039.078a.319.319,0,0,0-.03-.113c0-.014.01,0,.018.013s.018.028.024.011a4.722,4.722,0,0,1-.155-.583c.038.08.029.005.038-.029-.06-.006-.05-.375-.1-.255-.1-.528-.442-1.3-.453-1.521.005-.062-.081-.194-.111-.285l.033,0c-.131-.24-.083-.191-.22-.483.07.118.071.06.066-.074l-.114-.2.039-.052a.869.869,0,0,1-.057-.28.239.239,0,0,1-.036-.069c-.014-.04-.029-.087-.046-.133a.4.4,0,0,0-.11-.173c.017-.107-.146-.177-.139-.268a.744.744,0,0,1-.093-.072c.007.054-.007.088-.053.014l-.014-.015.005-.055a1.6,1.6,0,0,1-.167-.185c.015.025.029.057.043.089-.02-.034-.037-.07-.054-.1l-.02-.028.014.015a.923.923,0,0,0-.112-.175c-.062-.169-.125-.336-.193-.518a.876.876,0,0,1-.051-.318.542.542,0,0,1,.129-.333.312.312,0,0,0-.075.18.62.62,0,0,1,.135-.251.85.85,0,0,1,.191-.159,1.428,1.428,0,0,1,.376-.161l-.023-.036a.945.945,0,0,1,.662.085l.03-.036a3,3,0,0,1,.475.315.8.8,0,0,1,.284.387c.073.031.2.316.266.443l-.014.048c.071.176.126.278.175.377a2.443,2.443,0,0,0,.163.509,4.341,4.341,0,0,1,.19.47l-.008.006c.04.1.081.207.118.31-.051-.075.038.057.056.155a1.4,1.4,0,0,1,.087.388l.048.2c-.076-.218-.04.028-.072.049l.06.121c0,.025-.011.012-.02,0s-.02-.032-.011.021a3.2,3.2,0,0,0,.159.4.269.269,0,0,0,0-.087c-.005-.01,0-.01,0,0v0a.259.259,0,0,0,.022.031c.034.16.032.1.046.088,0,.18.05.269.044.4.009-.049.04.05.072.15s.068.208.079.143c0,.145.027.088.02.185a3.462,3.462,0,0,0-.225-.492c0,.052.01.1.018.156-.089-.076-.083-.336-.126-.419a.514.514,0,0,1,.046.2l.03-.051a2.414,2.414,0,0,0-.186-.52c.011.077-.008.029-.032-.019s-.044-.088-.047-.034l.036.112c0,.016-.005.018-.011.012a8.827,8.827,0,0,0,.4,1.2c.045.015.167.248.161.167a.785.785,0,0,0,.09.262c.071.12-.024-.172-.038-.227.079.14.089.141.1.14.01.146-.034.259-.1.141.025.068.047.137.068.207-.006-.044.017.011.038.089l-.011.009a.22.22,0,0,1-.012-.039c.107.409.138.851.206,1.261a16.1,16.1,0,0,1,.556,4.257c0,.148,0,.275,0,.39.006-.086.011-.165.012-.073v-.125c.005.042-.006.393,0,.465,0,.131,0,.263.005.394,0-.005,0,0,0,.007s.005.02,0-.019c.007.1.013.183.008.055a3.029,3.029,0,0,1-.021.715,1.378,1.378,0,0,1-.283.662,1.543,1.543,0,0,1-.585.425,2.924,2.924,0,0,1-.683.2c-.062.015-.025.016,0,.015a.834.834,0,0,0-.253.065c-.085.005-.17.006-.254.005-.1.026-.019.026-.026.034-.472.082-.938.079-1.321.134-.123-.01.028-.042-.135-.039.212.04-.409.051-.343.079-.168-.044-.567.012-.5-.077-.193,0-.159.043-.1.049a3.474,3.474,0,0,0-.589.038,3.621,3.621,0,0,0-.387,0,3.325,3.325,0,0,1-.841-.039c.095.038.053.036-.027.034-.036,0-.079,0-.122,0,.04.02.079.034.12.052A2.511,2.511,0,0,1,12.416,30.6Zm-.051-.025c.032,0,.065-.007-.046-.019Zm4.27-8.081.075.273c0-.027,0-.068,0-.115,0-.02-.008-.04-.012-.06l-.024-.066.016.03-.027-.137c-.007,0-.011.018-.008.058l.019.049c-.017-.029-.03-.049-.037-.049S16.635,22.482,16.636,22.494Zm1.485-1.286a1.89,1.89,0,0,1,.079.18.731.731,0,0,0-.11-.248Zm-.055-.117h0l-.012-.021Zm-2.36-2.03c-.015-.054-.029-.108-.043-.162-.023.016-.046.029-.066.019C15.632,18.966,15.67,19.012,15.705,19.06ZM17.464,19c.029.015.062.03.063-.073-.057-.4-.162-.3-.3-.76-.008-.012,0-.01,0-.007s.049.012-.023-.154a1.532,1.532,0,0,0-.27-.408c.039.1.077.2.118.305.081.206.15.417.214.629a.611.611,0,0,1-.012-.077,1.012,1.012,0,0,0,.093.266l-.028-.173a4.474,4.474,0,0,0,.1.452.013.013,0,0,1,.012-.009A.068.068,0,0,1,17.464,19Zm.114-.082,0,.005c-.008-.044-.012-.077-.012-.077S17.572,18.866,17.578,18.918Zm-2.111-.536a.048.048,0,0,1-.016-.013C15.459,18.412,15.459,18.386,15.467,18.382Zm-.907-1.819c-.006.021-.013.044-.018.066a.859.859,0,0,0,.222.34c-.007-.018-.014-.035-.019-.053a3.07,3.07,0,0,1-.083-.31.975.975,0,0,1-.134-.3A.8.8,0,0,0,14.56,16.563Zm1.935.073c0-.021,0-.049.014-.05a.579.579,0,0,0-.131-.117C16.42,16.523,16.458,16.579,16.5,16.636Zm-.877-.763a1.436,1.436,0,0,1,.225.112.056.056,0,0,0-.012-.031.819.819,0,0,0-.21-.167.894.894,0,0,0-.218-.09.12.12,0,0,0-.058.115.822.822,0,0,1,.24.049c.017-.018.034-.036.052-.053ZM58.384,30.46a.738.738,0,0,1-.262-.481,1.846,1.846,0,0,1,0-.491c.015-.149.025-.3.034-.445.033-.589.032-1.154.033-1.67.017-.153.027-.146.036-.139s.02.017.036-.213c-.046.292-.042-.024-.015-.367.025-.321.083-.664.047-.558a8.342,8.342,0,0,1,.262-.863c.123-.3.239-.5.24-.4.222-.466.141-.4.072-.273a3.755,3.755,0,0,0,.279-.756,2.585,2.585,0,0,0,.035-.723c.009-.082.018-.3.047-.579s.073-.63.131-.981c.121-.7.263-1.42.336-1.677-.106.35-.016-.032.007-.377l-.087.3c.04-.257.076-.514.1-.771.006-.079.01-.129.012-.16s0-.042.006-.041c.007-.128.027.026.048-.294a.451.451,0,0,0-.066-.245.47.47,0,0,0-.11-.122c-.076-.062-.144-.093-.274-.184l.064.06a1.158,1.158,0,0,1-.3-.3c-.036-.06-.021-.04.019.016a.94.94,0,0,0,.206.2c.072.051.124.081.118.068a.413.413,0,0,0-.061-.06,1.363,1.363,0,0,1-.181-.189.484.484,0,0,1-.071-.077,1.881,1.881,0,0,1-.125-.178.974.974,0,0,1-.163-.491.918.918,0,0,0,.067.276.423.423,0,0,0,.05.092c.016.018,0-.041-.023-.126a.9.9,0,0,1-.054-.348.57.57,0,0,1,.141-.343.576.576,0,0,0-.171.2.66.66,0,0,1,.256-.353,1.366,1.366,0,0,1,.347-.172,1.394,1.394,0,0,0,.142-.059.328.328,0,0,0,.095-.062.1.1,0,0,0,.031-.073A.163.163,0,0,0,59.72,16c0-.019-.011-.042-.019-.066a1.844,1.844,0,0,1-.122-.351.555.555,0,0,1,.089-.44A.315.315,0,0,0,59.731,15c-.4.65-.8,1.307-1.19,1.982a4.291,4.291,0,0,0-.322.5c-.176.289-.354.579-.332.486l.043-.06c.238-.405-.105.1-.3.425.094-.14.05-.049.005.041-.061.124-.123.249.179-.228l-.38.65a7.973,7.973,0,0,1-.673,1.114L55.74,21.452a.6.6,0,0,0,.055-.1c-.273.427-.592.895-.839,1.293s-.425.724-.477.831l-.057.072a3.361,3.361,0,0,1-.508.8,1.848,1.848,0,0,1-.337.294,1.665,1.665,0,0,1-.568.243c.031-.008.066-.018-.059,0a.693.693,0,0,1-.445-.066,1.039,1.039,0,0,1-.269-.2.69.69,0,0,1-.2-.433l.007.031a.67.67,0,0,1,.19-.54q.177-.211.34-.432a5.511,5.511,0,0,0,.556-.809c.269-.439.543-.926.646-1.058.1-.193.511-.89.714-1.189a.594.594,0,0,0,.051-.067c.225-.361.693-1.01.943-1.408.161-.261.084-.153.006-.045.345-.5.866-1.43.985-1.617.148-.245.148-.23.148-.214s0,.017.025-.018a6.819,6.819,0,0,1,.374-.678,2,2,0,0,0-.106.192c.175-.29.535-.78.694-1.077l-.12.188c.3-.537.742-1.257.755-1.362l-.044.042c.26-.464.314-.563.367-.665s.1-.208.393-.664l0,.014c.244-.4.417-.595.525-.8l-.1.129c.088-.121.148-.21.194-.288a1.426,1.426,0,0,0,.1-.224,1.7,1.7,0,0,0,.084-.588c0-.068-.029-.349-.032-.431a5.4,5.4,0,0,1-.115-.726c-.011-.094-.016-.193-.018-.287V9.461a.121.121,0,0,0-.019-.07.14.14,0,0,0-.12-.049.641.641,0,0,0-.126.012.505.505,0,0,1,.189-.012c.027.005.034.009.032,0a.178.178,0,0,0-.123-.04c-.12.025-.241.067-.366.091s-.27.051-.46.077c-.045.057-.11.12-.851.275.113-.031.293-.071.217-.066a2.391,2.391,0,0,0-.305.066c-.076.005.161-.051.075-.051-.5.147-.861.179-1.594.34.169-.043.114-.04.033-.036-.032,0-.067,0-.1,0a1.043,1.043,0,0,1-.52,0c-.214-.038-.376-.074-.243-.014a2.226,2.226,0,0,0-.868-.041.416.416,0,0,1-.333-.083.733.733,0,0,1-.2-.233.83.83,0,0,1-.1-.282.812.812,0,0,1,.006-.3.6.6,0,0,1,.141-.276.79.79,0,0,1,.232-.172,2.815,2.815,0,0,1,.456-.19,4.182,4.182,0,0,1,.815-.157c.227-.027.407-.048.52-.054a7.9,7.9,0,0,0,.8-.146l-.029.036c.688-.172.538-.113,1.35-.307-.334.093-.189.085.158.058l.556-.154.117.031c.224-.06.512-.05.618-.2a.64.64,0,0,0,.029-.146,1.475,1.475,0,0,0,0-.171c0-.069,0-.141,0-.213,0-.291,0-.586-.011-.666.075-.253,0-.685.075-.87-.007-.084-.011-.193-.014-.312-.034.122-.07.166-.047-.064V5.024l.043-.1c0-.235,0-.475.006-.633-.006.072-.016.153-.028.239.01-.1.019-.193.029-.284l0-.084c0,.015,0,.032,0,.051a3.73,3.73,0,0,0,.017-.5,11.555,11.555,0,0,0,.033-1.328,2.73,2.73,0,0,0-.133-.632,1.58,1.58,0,0,1-.053-.769.958.958,0,0,0,.01.437A1.454,1.454,0,0,1,59.5,1.1a1.242,1.242,0,0,1,.023-.165l.016-.073a.144.144,0,0,0,.005-.034,1.918,1.918,0,0,0-.018-.246.855.855,0,0,1,0-.189.456.456,0,0,1,.062-.18.465.465,0,0,1,.3-.19A1.291,1.291,0,0,1,60.046,0c.042,0,.081,0,.123,0a1.065,1.065,0,0,1,.478.082c-.008-.018-.015-.039-.024-.057a.734.734,0,0,1,.235.162.962.962,0,0,1,.147.2,1.773,1.773,0,0,1,.149.38,6.172,6.172,0,0,1,.165.675l.049.016c.058.33.14.849.181,1.335a5.5,5.5,0,0,1,.017,1.139,3.759,3.759,0,0,1,.034.554c0,.25.016.522.025.72l-.032.1c-.016.493-.011.779.005,1.065a3.172,3.172,0,0,0-.006.349,1.028,1.028,0,0,0,.042.287.124.124,0,0,0,.116.086.575.575,0,0,0,.123-.01,1.173,1.173,0,0,0,.149-.032c.205-.056.414-.134.619-.21a6.321,6.321,0,0,1,.634-.2l.011.007c.282-.083.567-.154.85-.221-.218.075.164-.055.421-.1.067-.018.144-.036.227-.055s.166-.037.276-.056a1.359,1.359,0,0,1,.635.042.927.927,0,0,1,.552.422.742.742,0,0,0-.22-.233c-.029-.014-.005.01.032.055a.669.669,0,0,1,.161.3,1.173,1.173,0,0,1,.133.382c-.008.089-.012.016-.025-.031s-.016-.079-.011.073a.582.582,0,0,1-.049.3.722.722,0,0,1-.27.3,3.474,3.474,0,0,1-.558.251,1.24,1.24,0,0,0,.231-.043c.03-.012.028-.011.01,0l.025-.007-.031.009c-.029.014-.075.033-.094.044-.435.11-.27.078-.252.091-.473.069-.731.168-1.085.208.155-.012-.14.063-.431.139s-.564.147-.409.139c-.374.043-.248.061-.49.078.511-.118,1-.3,1.4-.425l-.408.074a11.433,11.433,0,0,1,1.138-.3,3.462,3.462,0,0,1-.532.128l.114.016c.289-.066.544-.137.778-.209a1.742,1.742,0,0,0,.635-.31c-.089.063-.111.066-.092.051a1.106,1.106,0,0,0,.122-.109c.1-.109.14-.263.062-.135a.656.656,0,0,1-.227.218c-.042.016-.045.014-.028,0a2.155,2.155,0,0,1-.462.172c-.582.161-1.165.322-1.749.479l-.11.052L63.5,8.435q-.449.12-.9.236c-.165.075-.686.23-.505.21-.132.027-.175.028-.252.042-.038.008-.085.016-.153.035a.364.364,0,0,0-.221.139c-.028.065-.02.084-.01.064a.243.243,0,0,1,.084-.1,1.606,1.606,0,0,1,.418-.111,1.651,1.651,0,0,0-.327.114c-.034.022-.03.028-.031.036a.169.169,0,0,0-.112.08c-.029.045-.049.1-.065.123s-.032.034-.043.007a.323.323,0,0,1,0-.159.811.811,0,0,0-.023.237c0,.108,0,.216,0,.325.006-.077.014.075.016.276l-.014.015c.019,1.74,0,3.48.021,5.22.007.661.309,1.311.07,1.988-.053.151.124.219.236.292a4.162,4.162,0,0,0,1.582.8,1.694,1.694,0,0,1,1.011.633.672.672,0,0,1,.08.877.62.62,0,0,1-.847.279,7.641,7.641,0,0,1-2.047-.766l-.012-.009-.006.023.013.008.006-.022-.005.022.089.064.015.01c.019.015.034.03-.105-.071l-.046.191-.028.084c.016-.059.05-.189.074-.276l-.013-.009c-.094.321-.171.643-.239.964.053-.215.1-.4.054-.168.024-.108.046-.218.073-.326-.01.054-.068.31-.12.576s-.1.546-.106.641c-.059.346-.11.693-.16,1.041,0-.012,0,0,0,.021s0,.056.016-.048c-.031.258-.056.484-.008.147-.088.625-.151,1.252-.266,1.886-.141.631-.42,1.213-.6,1.815a5.327,5.327,0,0,0-.174,1.858,13.386,13.386,0,0,1,.032,1.888c-.02.175.008.077.023.01a2.139,2.139,0,0,1-.122.438.623.623,0,0,1-.163.261,1.108,1.108,0,0,1-.7.209c-.288.027-.063.034-.081.047h-.05A.757.757,0,0,1,58.384,30.46Zm1.359-11.588c0,.077.009.154.016-.121C59.754,18.791,59.75,18.831,59.743,18.872Zm-.992-9.449.368-.083a1.653,1.653,0,0,1,.364-.062,1.153,1.153,0,0,0-.293.013l-.161.031-.178.046.084-.027-.367.072c0,.007.042.006.149-.009l.134-.035C58.732,9.407,58.661,9.435,58.751,9.423ZM61.394,9.1l.012-.024A.2.2,0,0,0,61.394,9.1Zm.384-.23a.549.549,0,0,0-.358.184.394.394,0,0,1,.192-.124c.1-.033.194-.054.278-.081l.094-.029Zm-4.026-.865.469-.079c-.031-.022-.054-.044-.016-.067Zm1.784-.451a.02.02,0,0,1,.011,0,.279.279,0,0,1,.007-.032C59.519,7.568,59.526,7.563,59.537,7.558Zm3.214-.537a10.484,10.484,0,0,1,1.259-.342c-.085.015-.153.027-.2.032.2-.033.56-.12.73-.17l-.458.074c.184-.04.351-.063.54-.094.095-.015.194-.031.3-.053a2.555,2.555,0,0,1,.371-.059c-.049-.015.03-.036.068-.057s.036-.051-.2-.054a1.9,1.9,0,0,0-.2.026l-.157.029c-.1.019-.179.038-.253.055-.148.036-.259.071-.377.109-.235.079-.5.153-1.122.327-.039.017-.019,0-.007-.009s.016-.047-.4.1a3.1,3.1,0,0,1-.984.3.272.272,0,0,1-.185-.1C61.637,7.386,61.974,7.295,62.751,7.021Zm2.225-.751c-.017.005.036-.011.206-.023l.016,0C65.08,6.251,64.993,6.268,64.977,6.27ZM61.338,4.346c.008-.049.021-.112.035-.091-.012-.145-.034-.311-.059-.46Q61.326,4.07,61.338,4.346Zm-1.559-2.21a1.087,1.087,0,0,1-.011.144c.014.089.012.178.019.277s.013.191.022.282c.012.132.028.255.045.373.012-.258.023-.516.039-.773a1.229,1.229,0,0,0,0-.158,1.932,1.932,0,0,0-.119-.355c-.068-.15-.124-.278-.165-.367C59.664,1.761,59.737,1.947,59.779,2.136ZM60.811.5a1.462,1.462,0,0,1,.1.271c.034.118.063.236.092.354l.084.063-.063.028c.05.219.09.439.124.66a.175.175,0,0,0,.01-.073,5.355,5.355,0,0,0-.071-.674C61.07.989,61.041.86,61.022.758a1.9,1.9,0,0,0-.051-.194.15.15,0,0,0-.116-.078A.09.09,0,0,0,60.811.5ZM15.177,30.58l.014,0Zm91.043-.342c-.049-.022-.1-.047-.145-.07.03.02.075.045.036.033l.042.018c-.016,0-.13-.06-.156-.068-.042-.023-.085-.045-.126-.07,0,0,0,0,0,0s-.008,0,0,.007c-.032-.016-.06-.031-.02-.006l-.451-.263a3.858,3.858,0,0,1-.435-.282c-.02-.011-.015,0-.01.012-.025-.034-.042-.034-.059-.034a.06.06,0,0,1-.029-.005c-.019-.026-.037-.052-.055-.079-.037-.012-.02.013-.027.018-.152-.087-.264-.219-.4-.278-.025-.04.034-.026-.01-.065.017.047-.027.021-.07,0s-.069-.041-.069-.022c-.016-.077-.16-.129-.087-.182-.052-.047-.07,0-.058.014a.434.434,0,0,0-.187-.106c-.021-.046-.314-.192-.332-.294.013.068-.018.019-.068.01l.011.059-.085-.064c-.02-.008-.024-.014-.022-.017-.014-.012.018-.018-.015-.053a.116.116,0,0,0-.089-.03h-.031l.006.012-.044-.025c-.01-.008,0-.005.021,0s.078.01.023-.045c-.008.009-.1.016-.106-.028.049.036.059.007.047-.016l-.069-.051-.006.06c-.2-.145-.387-.327-.59-.5.025-.026-.14-.127-.089-.15l.005.01c.053.038.011-.042-.031-.073.012.02,0,.018-.02.016s-.046-.005.008.051l-.092-.055c-.051.015-.1-.042-.147-.107a.794.794,0,0,0-.167-.184c.01.006.015,0,.017,0a2.133,2.133,0,0,1-.241-.25l0-.02a.494.494,0,0,1-.184-.212s.015.012.006-.009a.3.3,0,0,1-.092-.146l.005,0a.708.708,0,0,1-.04-.157c.018,0,0-.068,0-.143s.016-.157.046-.171a.5.5,0,0,1,.019-.09l.041-.1s.005,0,.01-.008c.008-.066.1-.146.145-.194.028-.035.009-.027-.01-.018.068-.054.184-.174.223-.178.062-.028.029.006.05.008.092-.035-.031-.04.106-.058-.015.006-.043.014-.031.015a.251.251,0,0,1,.1.012.26.26,0,0,0,.091.014l-.032-.01a.242.242,0,0,1,.131.017c.044.015.079.031.09.013l0-.02c.14.065.069.005.2.085l0,0c.062.026.079.067.124.056l-.017-.016a1.226,1.226,0,0,1,.143.094c.01,0,.046.019.051.032.022-.025.166.09.2.113-.057-.032-.04,0-.033.02a.1.1,0,0,1,.1.056c.033-.034.071-.069.161-.017-.018,0-.041-.012-.038,0s.03.018.039.019-.03,0-.03.022c.087,0,.1.063.2.1-.037,0-.02.018-.021.04.019-.02.039,0,.055.026s.037.055.044.009c.138.148.416.284.447.373,0,.032.071.031.1.05l-.021.022c.111.011.073.027.2.046-.06,0-.053.027-.032.079l.1-.008-.015.048a.137.137,0,0,1,.086.055.157.157,0,0,1,.109.015.151.151,0,0,0,.079.019c-.011.075.087.039.071.106a.138.138,0,0,1,.048,0c0-.034.018-.065.036-.035l.007,0-.013.04a.385.385,0,0,1,.08.037.125.125,0,0,1-.015-.035.419.419,0,0,1,.02.038l.01.007-.008,0a.071.071,0,0,0,.056.039c.055.115.256.073.306.215-.01-.018-.029-.036-.044-.028.087.056.135.165.207.178l.02-.035a.694.694,0,0,1,.175.092l.029-.034c.062.065.259.12.247.228.039-.016.093.083.14.1l-.01.035a.306.306,0,0,0,.123.08c.063.139.2.158.292.235l-.005.008.107.055c-.042,0,.031,0,.054.027a.2.2,0,0,1,.1.1l.057.049c-.078-.036-.023.04-.041.072l.055.007c0,.026-.041,0-.018.031.036.005.11.066.154.057a.068.068,0,0,0-.009-.038s0,0,0,0l0,0,0,0a.064.064,0,0,0,.018,0c.041.045.033.02.041.006.019.082.065.084.073.154,0-.034.026-.012.057.016s.075.073.077.032c.008.081.027.033.023.091a.307.307,0,0,0-.2-.11l.025.06c-.064.023-.086-.1-.124-.1a.076.076,0,0,1,.052.055l.015-.043a.3.3,0,0,0-.183-.094c.016.022,0,.018-.02.015s-.045-.008-.038.019l.036.021c0,.008,0,.012-.008.013l.16.121h0l.069.053a.938.938,0,0,1,.127.119c.015-.008.038,0,.06.012s.051.025.053,0c.01.042-.012.039.038.1.044.034,0-.076,0-.1.047.045.053.042.064.037-.012.073-.062.136-.1.1.014.024.027.049.038.074,0-.019.014-.005.026.023l-.011.007a.02.02,0,0,1,0-.007.856.856,0,0,1-.053.794.6.6,0,0,1-.522.332A.96.96,0,0,1,106.22,30.238Zm1.034-1.049a.106.106,0,0,0-.05-.077C107.222,29.137,107.238,29.162,107.254,29.189Zm-.064-.1h0l-.005,0Zm-.114-.3Zm-.487-.219c.009-.034.079-.034.06-.105a.119.119,0,0,0-.124-.067.2.2,0,0,1-.153-.056c-.019,0,.062-.021-.023-.063a.314.314,0,0,0-.2-.017l.3.224a.1.1,0,0,1-.024-.036.13.13,0,0,0,.089.051l-.037-.055C106.513,28.476,106.518,28.536,106.589,28.569Zm-3.16-.075c.015,0,.029,0-.009-.018Zm3.253-.07h0l-.017-.024Zm-.906-.44.062.046a.063.063,0,0,1,.012-.04.147.147,0,0,0-.05-.007Zm-.286-.209.074.054a.041.041,0,0,0,.006-.024.815.815,0,0,0-.077-.179.306.306,0,0,0-.085.088l.072.053.051-.049Zm-.551-.4.11.081a1.3,1.3,0,0,0,.161-.042l-.087-.022v-.035a.19.19,0,0,0-.051-.007A.476.476,0,0,0,104.938,27.371Zm-.432-.417.012-.008-.008,0S104.508,26.948,104.506,26.954Zm.014-.007Zm-.278-.076.054.038a.168.168,0,0,1,.04-.058Zm-1.1-.787.018.012.027.006-.016,0,.041.029c0-.006,0-.014,0-.027l-.021,0c.023,0,.038-.007.032-.019l-.1-.043A.4.4,0,0,1,103.137,26.084Zm1.1,3a.024.024,0,0,1,0,.007A.035.035,0,0,1,104.242,29.079Zm-67.219-.8a.847.847,0,0,1-.3-.147,1.117,1.117,0,0,1-.244-.267,1.774,1.774,0,0,1-.278-.619,1.2,1.2,0,0,1-.021-.44c-.02.1-.025.1-.03.036,0-.083,0-.141,0-.2-.021.049-.038.087-.053.116a1.015,1.015,0,0,1,.021-.152l0-.008h-.008l-.016,0-.032.007c-.045.014-.06.016-.059.012-.021,0-.019,0-.021-.008s-.015-.014-.09,0a2,2,0,0,0-.5.193l.05-.01-.214.073c-.07.022.025-.017.111-.057.111-.051.209-.1-.088-.019a1.414,1.414,0,0,1-.44.188c.266-.088.223-.1.121-.083l-.374.124.141.008a7.9,7.9,0,0,1-1.7.413,3.545,3.545,0,0,1-1.8-.242c.015-.014-.187-.1-.361-.211s-.323-.236-.263-.222l.034.032c.246.17-.053-.076-.231-.236.075.077.02.041-.033.005-.073-.049-.146-.1.118.145a2.227,2.227,0,0,1-.361-.328.7.7,0,0,1-.207-.273,1.291,1.291,0,0,1-.118-.525,1.777,1.777,0,0,1,.1-.608c.064-.2.159-.375.228-.539a.255.255,0,0,0-.022.067c.252-.585.622-1.286.674-1.424l.038-.045c.207-.5.234-.563.516-1.148,0,.008-.03.078.016-.014.028-.073.057-.146.1-.251.045-.131.127-.174-.073-.146l.018-.006c-.228.02-.453.067-.682.108,0-.022-.292.049-.622.069a1.9,1.9,0,0,1-.48-.033,1.084,1.084,0,0,1-.184-.053.5.5,0,0,1-.112-.051c-.033-.011-.087-.03-.154-.055s-.141-.066-.22-.1-.154-.089-.224-.134-.13-.092-.175-.128a.251.251,0,0,0-.036-.04,1.616,1.616,0,0,1-.36-.393,2.226,2.226,0,0,1-.241-.5c-.037-.091-.046-.118-.047-.11a.214.214,0,0,0,.011.061,3.038,3.038,0,0,1-.115-.662,2.554,2.554,0,0,1,.025-.518c.034-.181.04-.171.046-.161s.007.011.016-.015c.1-.407-.064.057.1-.483-.019.063-.045.181-.032.136.028-.1.089-.242.145-.381a3.707,3.707,0,0,0,.153-.375l-.056.129c.114-.375.394-.833.388-.9l-.033.024c.158-.3.19-.36.223-.424a4.062,4.062,0,0,1,.24-.422v.009a4.443,4.443,0,0,0,.3-.523l-.058.084c.192-.314.212-.34.419-.652a2.222,2.222,0,0,1,.152-.231,8.494,8.494,0,0,1,.574-.861c-.164.246-.072.14-.012.079a1.844,1.844,0,0,1,.3-.447c-.019-.055-.031-.123.228-.519-.034.066-.095.164-.06.13a.931.931,0,0,0,.1-.166c.018-.017.007.007,0,.032s-.019.048,0,.031c.138-.294.3-.464.538-.865-.066.133.011.031.054,0-.031-.062.382-.511.222-.4.26-.375.555-.871.8-1.313s.453-.83.559-.975c.062-.067.145-.337.3-.457v.038a.623.623,0,0,1,.24-.163.712.712,0,0,1,.176-.04,1.406,1.406,0,0,1,.189,0,1.223,1.223,0,0,1,.334.047c-.133-.031-.167-.016-.145,0a1.7,1.7,0,0,1,.206.125.607.607,0,0,1,.3.307c-.008.031-.016.06-.026.088a1.278,1.278,0,0,1,.048.492.573.573,0,0,1,.02.128,1.712,1.712,0,0,1-.014.27c-.025.193-.081.382-.084.437-.116.136-.158.423-.272.5-.016.053-.042.117-.072.187.063-.055.107-.064.023.058l-.016.031-.066.036c-.065.134-.137.267-.184.353.025-.037.057-.078.092-.12l-.105.144-.026.045A.311.311,0,0,1,34,11.937a1.273,1.273,0,0,0-.149.271c-.3.424-.473,1.052-.823,1.509a.757.757,0,0,0,.113-.211c-.225.42-.5.807-.62,1.086h.045c-.151.315-.267.559-.4.805l.032.035a10.665,10.665,0,0,1-.749,1.339c-.014.105-.267.5-.361.709l-.057.037a5.761,5.761,0,0,0-.287.6,4.763,4.763,0,0,0-.4.782,1.515,1.515,0,0,0-.1.347.142.142,0,0,0,.015.074.115.115,0,0,0,.057.044l0,.009a.34.34,0,0,0,.034.007c.014,0,.021,0,.044.005.038,0,.075.008.117.008.081,0,.168,0,.255,0-.079.018-.033.007.053,0a1.452,1.452,0,0,1,.22-.012,4.076,4.076,0,0,1,.658.025c.113,0,.223,0,.331-.01-.364.04.029.048.054.076.07-.015.137-.037.2-.058.087,0-.128.049.027.032.033-.013.082-.029.139-.046a1.711,1.711,0,0,0,.178-.075.723.723,0,0,0,.257-.191c-.023,0-.06.031-.115.051-.012.01-.012.009,0,0l-.012.005.015-.007a.263.263,0,0,0,.036-.039c.1-.068.124-.093.124-.1s-.006,0-.013,0a.033.033,0,0,1-.015,0,1.814,1.814,0,0,0,.429-.451c-.064.063.014-.07.086-.225.081-.17.16-.364.092-.284.139-.194.064-.146.164-.267-.142.3-.218.613-.326.848.051-.068.1-.139.145-.211a.8.8,0,0,1-.162.331c-.076.107-.167.194-.212.256a1.792,1.792,0,0,1,.113-.142.8.8,0,0,1,.085-.1l-.072.03a1.907,1.907,0,0,1-.637.582c.11-.043.051,0-.023.034s-.158.075-.068.064a1.332,1.332,0,0,0,.18-.075c.025-.007.029,0,.02.007a1.448,1.448,0,0,0,.576-.485c.033-.046.064-.094.094-.143l.006-.01a4.471,4.471,0,0,0,.284-.578l-.071.147.013-.1.059-.045c.069-.163.135-.327.2-.489a.524.524,0,0,1,.057-.211c.049-.115.124-.212.059-.164a.665.665,0,0,1,.139-.108A1.247,1.247,0,0,1,34.4,17.1c.114-.039.04-.042-.077-.008a.909.909,0,0,0-.3.166,1.158,1.158,0,0,1,.205-.176c.034-.023.034-.03.036-.037a.453.453,0,0,1,.3.014c.043.029.019.05-.1.087a.933.933,0,0,1,.4,0c-.106-.026,0-.024.141.015l.006.018-.011,0c.534.159.49.488.382,1.026A19.721,19.721,0,0,1,33.06,23.5c-.338.634-.259,1.393-.913,1.991l.037-.007.02-.018.008-.007c.01-.008.022-.017-.021.025l.077-.014h.056l-.137.018-.018.016c.2-.02.387-.049.573-.083-.129.018-.231.031-.093,0-.062.013-.124.022-.187.033a6.985,6.985,0,0,0,.74-.168c.214-.052.427-.111.638-.172-.008,0,0-.005.01-.011s.031-.019-.033,0c.156-.051.291-.1.084-.038.378-.115.755-.245,1.138-.365.192-.06.384-.118.58-.17.094-.021.151-.064.162-.138a.43.43,0,0,0-.064-.247,2.427,2.427,0,0,1-.215-.578,1,1,0,0,1-.014-.324.59.59,0,0,1,.146-.308.726.726,0,0,1,.277-.183,1.062,1.062,0,0,1,.922.068c.1.054.05.01.015-.019.128.091.184.137.234.166a.591.591,0,0,1,.148.11,1.383,1.383,0,0,1,.2.41c.055.111.055.085.055.058s0-.026,0-.023a1.493,1.493,0,0,1,.05.156l.034.145c.023.1.043.194.063.289.039.192.073.382.1.567.063.37.116.723.184,1.039.005.1-.006.094-.016.091s-.021-.006,0,.137c0-.2.043.027.081.248.032.183.062.365.07.315-.017.284.123.94.016.838.026.156.029.24.038.255s.029-.023.033-.078a.684.684,0,0,1-.252.525,1.205,1.205,0,0,1-.457.242,1.679,1.679,0,0,1-.179.013A.96.96,0,0,1,37.022,28.279ZM35.987,26.6h.041c.016-.009.035-.02.028-.02A.4.4,0,0,0,35.987,26.6Zm-3.841-1.1-.018.017.035,0,.018-.017Zm-1.872-6.918c-.386.82-.347,1.025.363,1.037a.567.567,0,0,1-.114-.016,1.966,1.966,0,0,0,.47-.012l-.291-.018c.114,0,.218.006.335.014a4.208,4.208,0,0,0,.438.014c-.058-.033.194-.072-.068-.121a1.881,1.881,0,0,0-.63.018,1.552,1.552,0,0,1-.265.031.935.935,0,0,1-.183-.01.29.29,0,0,1-.185-.09c-.014-.011-.008-.01,0-.009s.015,0,.019,0-.027-.033-.021-.179a2.035,2.035,0,0,1,.073-.341c.031-.107.058-.2.078-.286.012-.05.021-.092.028-.13Zm1.143.849.009,0-.127-.011ZM34,17.483l.013-.016s0-.007,0-.007S34.006,17.475,34,17.483Zm.127-.163a.52.52,0,0,0-.067.086.761.761,0,0,1,.4-.259A.571.571,0,0,0,34.128,17.32Zm.82-.162-.039-.008Zm-3.839-.275c.023-.023.055-.051.061-.033a2.677,2.677,0,0,0,.1-.271Zm.726-1.382a.088.088,0,0,0,.038-.029c.095-.106.43-.6.454-.634a.118.118,0,0,0-.068-.123l-.2.364.035.076-.063-.025Zm-1.26-1.889-.256.4c.03-.035.076-.084.128-.14.02-.028.038-.055.059-.083l.058-.1-.023.051.135-.193c-.007,0-.027.012-.07.065l-.042.076c.024-.053.039-.092.03-.092S30.584,13.6,30.575,13.611Zm2.668-.692c-.054.2-.1.378-.12.482l.155-.351.07-.07a3.194,3.194,0,0,0,.2-.616Zm1.431-3.052a.083.083,0,0,1,.012.027.166.166,0,0,0,0-.044S34.678,9.864,34.674,9.867Zm-.663-.894.051.007a.729.729,0,0,1,.231.076c0-.032,0-.061.029-.064a.756.756,0,0,0-.2-.025C34.085,8.967,34.049,8.969,34.011,8.973ZM44.493,27.224c-.015.034-.175.033-.3.018s-.228-.035-.147.012a6.6,6.6,0,0,1-1.42-.371,3.6,3.6,0,0,1-.936-.507c-.065-.066-.286-.164-.409-.25l.034-.013c-.37-.2-.276-.173-.694-.436.18.1.124.034-.014-.118l-.3-.168-.018-.079a2.322,2.322,0,0,1-.332-.287,1.561,1.561,0,0,1-.291-.2l-.189-.148c-.059-.046-.113-.1-.136-.112a2.215,2.215,0,0,1-.131-.327.351.351,0,0,1,.057-.315.623.623,0,0,1,.1-.2c-.036.019-.071.04-.077.031s.018-.049.065-.091l.02-.025.07-.019a1.405,1.405,0,0,1,.3-.289c-.045.025-.094.054-.144.086a1.07,1.07,0,0,1,.171-.1.4.4,0,0,1,.054-.031l-.033.02a.917.917,0,0,1,.381-.1.776.776,0,0,1,.243.081l.179.111c.109.064.229.122.352.185a2.016,2.016,0,0,1,.634.45.415.415,0,0,0-.124-.1,1.735,1.735,0,0,1,.257.248c.038.043.075.1.105.135s.056.076.085.111a1.2,1.2,0,0,0,.367.308l.007-.043a4.994,4.994,0,0,0,.715.323l.029-.038c.167.073.448.15.719.234l.1.032.081.028.056.021a.32.32,0,0,0,.067,0c-.016,0,.031-.083.069-.211s.089-.3.113-.4l.048-.045c.088-.272.127-.441.166-.606a6.675,6.675,0,0,0,.408-1.52l.01,0c.022-.163.038-.325.046-.487.016.129-.007-.1.006-.24,0-.077-.007-.177,0-.28s0-.206.005-.307a3.29,3.29,0,0,1-.005-.342c.019.379.042-.028.082-.046-.006-.072-.012-.144-.014-.216.011-.038.016-.014.019.01s.006.059.018-.027c-.012-.145.072-.559.08-.694a.634.634,0,0,0-.058.126c0,.018,0,.017,0,.005l-.005.014.006-.018a.562.562,0,0,0,0-.06c.08-.256.041-.165.023-.16a4.329,4.329,0,0,1,.3-.6c-.062.077,0-.073.062-.215.065-.16.119-.34.063-.263.1-.186.046-.134.117-.255-.081.287-.143.564-.224.8.042-.072.083-.142.122-.211a4.028,4.028,0,0,1-.244.606,1.05,1.05,0,0,1,.111-.262l-.062.042a2.5,2.5,0,0,0-.2.857c.029-.12.023-.036.019.047s0,.152.025.074c.006-.06.015-.121.024-.181.01-.024.015-.023.018-.008a4.991,4.991,0,0,1,.335-1.04,4.1,4.1,0,0,0,.256-.836.7.7,0,0,1,0-.2c0-.111.007-.214-.019-.15a1.22,1.22,0,0,0,.07-.414c0-.206-.063.245-.09.325.015-.241,0-.242-.006-.25.066-.194.149-.341.155-.124.008-.115.016-.232.022-.347-.01.076-.012-.019-.007-.147l.013-.008c0,.012,0,.026,0,.039.021-.438.031-.878.072-1.311a9.22,9.22,0,0,1,.78-3.737c.266-.481.075-.538-.347-.533-.771.01-1.543,0-2.59,0-.2-.017-.4-.023-.612-.022.137,0,.266.009.121.011l.159,0c-.137,0-.587,0-.688.012-.2.008-.409.02-.614.036.02,0-.081.013.018,0-.152.014-.284.027-.085.012-.732.06-1.471.159-2.212.227a16.776,16.776,0,0,1-2.208.055c-.1,0-.042.01,0,.015a1.692,1.692,0,0,0-.4.017.627.627,0,0,1-.393-.175c-.09-.077-.079-.055-.067-.034s.013.021.008.02a.8.8,0,0,1-.173-.254.616.616,0,0,1-.057-.311.987.987,0,0,1,.26-.516,2.412,2.412,0,0,1,.353-.392.727.727,0,0,1,.242-.134.557.557,0,0,1,.283-.01c.109.044.085.055.079.059s0,.018.107.071c-.135-.1.023-.016.2.041a1.686,1.686,0,0,0,.246.06c.046,0,.072,0,.06,0a1.472,1.472,0,0,0,.477.059c.176,0,.312-.013.263.039.3-.033.238-.073.153-.067a7.811,7.811,0,0,0,.9-.185c.049,0,.174-.021.342-.034s.367-.022.575-.034a6.783,6.783,0,0,1,.992-.006c-.2-.036.026-.025.227-.055l-.186-.034.46-.018c.094-.008.12-.008.12,0,.078,0-.018.025.18.027a2.249,2.249,0,0,0,.5-.066l-.049,0,.212-.013c.081,0-.069.015-.163.033s-.124.034.122.033a1.215,1.215,0,0,1,.443-.057c-.261.009-.227.038-.131.046l.365-.013-.122-.048a15.559,15.559,0,0,1,1.609.039l.82.057a3.29,3.29,0,0,1,.844.142c-.007.008.039.027.108.057s.156.072.243.112c.171.087.319.193.263.186l-.035-.027c-.244-.134.059.062.227.208-.083-.083.005-.026.058.012.028.018.047.029.034.01a.861.861,0,0,0-.175-.162,1.387,1.387,0,0,1,.342.31.586.586,0,0,1,.091.1.975.975,0,0,1,.085.174,1.254,1.254,0,0,1,.05.5,3.9,3.9,0,0,1-.329,1.054.222.222,0,0,0,.019-.063c-.111.273-.241.574-.338.83a5.066,5.066,0,0,0-.178.528L47.837,14c-.056.246-.08.384-.111.533s-.063.311-.11.607c0-.008,0-.077-.012.016-.006.145-.021.289-.045.7l0-.017c-.011.214-.01.427,0,.641a4.94,4.94,0,0,0,.008.578,2.6,2.6,0,0,1-.1.721c-.011.128-.12.588-.16.793a.2.2,0,0,0-.016.047c-.015.123-.053.3-.082.474s-.051.363-.064.5c-.015.178,0,.1.016.025-.055.351-.1.975-.124,1.1-.025.166-.031.157-.038.147s-.007-.01-.014.015c-.053.383.054-.057-.044.452.007-.06.023-.17.013-.128-.032.2-.15.534-.175.729l.033-.126c-.046.358-.206.829-.18.893l.025-.029c-.152.6-.044.26-.2.87l0-.009a3.243,3.243,0,0,0-.119.545l.027-.09c-.079.332-.089.36-.179.7a1.909,1.909,0,0,1-.066.249,1.54,1.54,0,0,1-.113.419c-.074.209-.167.426-.2.5.1-.258.034-.142-.008-.075a1.655,1.655,0,0,1-.17.466.161.161,0,0,1,.026.122.946.946,0,0,1-.178.422c.042-.067.094-.177.062-.138a.559.559,0,0,0-.057.09l-.055.083c-.02.016-.006-.008.007-.033s.025-.049,0-.032a1.129,1.129,0,0,1-.892.51C44.675,27.231,44.546,27.237,44.493,27.224Zm1.057-1c.007,0,.023-.022.049-.075l.021-.079c-.012.073-.016.119.009.072l.144-.416c-.02.038-.051.092-.087.153l-.035.087c-.011.036-.021.073-.031.1l.009-.049C45.6,26.091,45.576,26.158,45.55,26.226Zm-4.664-.537c-.07-.056-.139-.112-.207-.17-.006.031-.013.057-.042.056C40.72,25.615,40.8,25.652,40.886,25.69Zm3.332-.232a.4.4,0,0,1-.044.07.647.647,0,0,0,.161-.289c-.018.024-.046.053-.054.037A1.122,1.122,0,0,1,44.219,25.458Zm-1.463-.28c.12.05.243.1.366.139a.092.092,0,0,0-.032-.033c-.054-.038-.206-.116-.341-.2s-.254-.16-.27-.17a.12.12,0,0,0-.117.071,3.781,3.781,0,0,0,.343.168l.07-.044Zm-2.771-.147a.074.074,0,0,1-.027-.006C40.006,25.067,39.982,25.04,39.984,25.031Zm.92-1.244c.183.056.349.11.447.146-.105-.066-.212-.124-.32-.178l-.062-.071a3.283,3.283,0,0,0-.559-.2C40.571,23.59,40.739,23.686,40.9,23.786Zm3.967-.878a4.758,4.758,0,0,0-.087.743,9.026,9.026,0,0,0,.328-1.495.975.975,0,0,1-.025.105,1.594,1.594,0,0,0,.026-.435c-.011.089-.024.178-.042.266a2.928,2.928,0,0,0,.047-.711c-.011.02-.025,0-.041-.018s-.055-.064-.075.088a2.837,2.837,0,0,0,0,.565,1.946,1.946,0,0,1-.048.666c0,.022,0,.013-.01,0s-.006-.01-.011-.01S44.906,22.716,44.872,22.908Zm.073-1.374c0-.016,0-.044.007-.09l0-.008C44.949,21.48,44.947,21.515,44.946,21.534Zm.874-3.428c0-.013,0-.027.006-.04l0,0C45.823,18.079,45.821,18.092,45.82,18.106Zm.018-.124c.019-.137.032-.274.044-.412A3.25,3.25,0,0,0,45.837,17.983Zm-3.679-7.926Zm.645-.091L42.73,9.96C42.685,9.972,42.639,9.984,42.8,9.966ZM38.056,26.487a.115.115,0,0,1,0,.024C38.055,26.5,38.055,26.495,38.056,26.487ZM7.572,26.224a.682.682,0,0,1-.308-.166.537.537,0,0,1-.152-.325,1.5,1.5,0,0,1,.015-.34,1.4,1.4,0,0,1,.083-.329.847.847,0,0,1,.468-.494c.055-.03.018-.026-.008-.023.171-.034.15-.071.243-.1a1.583,1.583,0,0,1,.244.029c.093-.02.019-.033.026-.043a1.575,1.575,0,0,1,.662.078A1.075,1.075,0,0,1,9,24.579c.049.026.1.057.124.071a.316.316,0,0,0,.2.025c.09.007-.018.056.107.036-.09-.011,0-.03.084-.078a.446.446,0,0,0,.1-.071c.01-.012.012-.02,0-.021a.074.074,0,0,0,.058-.041.138.138,0,0,0,0-.1c-.025-.08-.062-.162,0-.154-.076-.159-.1-.12-.088-.063-.049-.108-.068-.189-.1-.271a1.7,1.7,0,0,0-.109-.229,8.435,8.435,0,0,1-.321-1.055c-.006.125-.028-.007-.086-.109l-.006.115-.084-.253c-.021-.05-.025-.065-.021-.066-.012-.043.027,0,0-.11a.751.751,0,0,0-.136-.259l0,.028-.044-.115c-.011-.035.01.007.036.049.036.061.077.122.033-.048a.415.415,0,0,1-.118-.231c.047.144.068.116.062.059l-.066-.2-.027.084a1.36,1.36,0,0,0-.164-.376.281.281,0,0,0-.283-.123,1.22,1.22,0,0,0-.4.152l-.426.232c0-.016-.094.029-.187.074s-.211.1-.2.064l.024-.007c.14-.078-.059-.014-.173.048.054-.019.029,0,0,.028s-.073.065.1-.015c-.074.044-.148.089-.222.13-.093.143-.637.265-1.007.385.027-.01.032-.015.035-.019a3.953,3.953,0,0,1-.846.149l-.032-.012a.821.821,0,0,0-.278.105.6.6,0,0,0-.228.23s.014-.039-.013,0a.573.573,0,0,0-.023.129.561.561,0,0,0,.06.233l-.007-.008a1.18,1.18,0,0,1,.058.383,2.485,2.485,0,0,0-.042.338,1.868,1.868,0,0,1-.094.411,2.749,2.749,0,0,0-.024.458s0,.008,0,.028c.015.069.027.166.053.263.012.049.033.1.049.142a.663.663,0,0,1,.041.144c.013.113.016.065.022.013a.833.833,0,0,1-.093.395.674.674,0,0,1-.188.232c-.091.062-.09.052-.09.042s0-.011-.015,0c-.106.058-.1.059-.094.068s0,.029-.175.045c.04-.006.11-.023.082-.02a.51.51,0,0,1-.239-.021c-.083-.022-.157-.059-.214-.074.023.011.047.025.071.034a.683.683,0,0,1-.3-.165c-.079-.071-.124-.139-.151-.139v.027a1.163,1.163,0,0,1-.134-.237.335.335,0,0,1-.028-.077.577.577,0,0,1-.019-.2l0,0a.564.564,0,0,1,.03-.2.285.285,0,0,0,.016-.131l-.019.051a3.25,3.25,0,0,0,.08-.4.583.583,0,0,1,.012-.145A.81.81,0,0,1,2.915,24c0-.124,0-.258-.005-.3.016.156.025.082.037.036a.566.566,0,0,1-.036-.284c-.049-.014-.1-.034-.139-.285.014.038.025.1.032.072a.253.253,0,0,0-.019-.1c0-.013.009,0,.016.012s.015.027.023.011a2.764,2.764,0,0,1-.1-.545c.026.078.027.008.042-.022-.064-.013.018-.352-.051-.25a1.87,1.87,0,0,1,.152-.88.824.824,0,0,1,.292-.3.629.629,0,0,1,.24-.1,1.652,1.652,0,0,0,.263-.1l0,.032c.213-.121.172-.073.421-.212-.1.07-.047.072.072.062l.162-.122.051.033a.8.8,0,0,1,.237-.088c.055-.076.335-.177.37-.224a.208.208,0,0,0,.152-.033c.049-.025.1-.049.137-.031a.7.7,0,0,1,.089-.061c-.049-.012-.076-.038,0-.053l.016-.008.046.024c.07-.039.142-.074.191-.095a.486.486,0,0,1-.081.012l.1-.018.026-.01-.015.008a.4.4,0,0,0,.154-.064c.279-.049.531-.322.846-.365a.23.23,0,0,0-.117.053,5.909,5.909,0,0,0,.626-.248l-.026-.032a4.145,4.145,0,0,1,.433-.22l-.01-.045c.1-.034.267-.123.441-.182a.7.7,0,0,1,.435-.045,1.1,1.1,0,0,1,.51.031l.029.041a3.143,3.143,0,0,1,.392.169,4.525,4.525,0,0,1,.677.75l-.006.007c.064.081.119.164.178.247-.065-.054.047.041.083.124a1.074,1.074,0,0,1,.158.333l.08.176c-.11-.185-.035.033-.063.059l.074.1c0,.024-.01.013-.02,0s-.024-.025-.008.022c.051.066.138.291.2.348a.21.21,0,0,0,0-.081c-.006-.009-.005-.008,0,0v-.008l0,.01a.171.171,0,0,0,.024.026c.045.145.039.088.052.077.007.172.066.252.056.384.01-.063.04.035.071.132s.063.193.076.134c-.012.137.023.084,0,.175a1.837,1.837,0,0,0-.206-.457l.014.144c-.087-.067-.079-.307-.129-.378a.384.384,0,0,1,.051.179l.031-.049a1.515,1.515,0,0,0-.217-.459c.019.068-.006.028-.033-.012s-.053-.074-.05-.024l.045.1c0,.015,0,.017-.011.012.142.353.263.714.38,1.078.046.013.133.237.143.163a.478.478,0,0,0,.05.241c.059.106,0-.153,0-.2.058.13.068.127.081.127-.014.127-.067.237-.128.126.021.064.042.128.064.191-.008-.044.018,0,.042.075l-.012.01a.107.107,0,0,1-.01-.02,9.572,9.572,0,0,0,.455,1.141A1.4,1.4,0,0,1,10.2,26.21c-.329,0-.659,0-.988,0v0H9.193s0,0,0,0v.012h.02l-.02,0,0,.011H9.189v-.01l-.051.006-.031-.006c.017,0,.053,0,.082,0l0-.013v0l-.325,0c.076.008.144.015.063.02l.113,0c-.038.009-.356,0-.42.018l-.357,0c.012.006-.046.018.011.016-.088.005-.164.012-.05.013-.085,0-.174.008-.265.008A1.454,1.454,0,0,1,7.572,26.224ZM2.939,23.505c.014.084.027.168.038.252,0-.024.011-.061.019-.1,0-.018,0-.037,0-.055l-.016-.062.013.029c0-.042-.007-.084-.011-.126-.007,0-.012.015-.014.051l.012.046c-.012-.028-.024-.047-.031-.047S2.94,23.5,2.939,23.505Zm8.054-.661a.68.68,0,0,0-.073-.229C10.944,22.692,10.969,22.768,10.993,22.844Zm-.09-.277h0l-.007-.016Zm-2.026-.231c.019.021.036.043-.005-.042ZM4.006,20.969l.156-.049c-.017-.023-.031-.044-.023-.065C4.1,20.894,4.05,20.931,4.006,20.969Zm6.2-.258c0-.016.022-.012.04-.009s.066.013.049-.081c-.132-.349-.211-.225-.438-.6-.01-.008-.006-.008,0-.007s.056,0-.055-.131a.876.876,0,0,0-.366-.26,3.33,3.33,0,0,1,.533.708.379.379,0,0,1-.023-.061.891.891,0,0,0,.14.213l-.06-.147C10.1,20.443,10.109,20.552,10.21,20.712ZM4.6,20.682a.043.043,0,0,1,.008-.018C4.569,20.679,4.592,20.675,4.6,20.682Zm5.749-.08,0,0c-.016-.039-.027-.067-.027-.067ZM6,20.225l.312-.131a2.711,2.711,0,0,0,.187-.218l-.175.111-.058-.006A1.085,1.085,0,0,0,6,20.225Zm1.314-.693a.146.146,0,0,0,.01.126l.2-.089,0-.073.032.06.208-.09a.047.047,0,0,0-.03-.01h0A3.61,3.61,0,0,0,7.315,19.532ZM8.4,19.277a1.392,1.392,0,0,1,.181-.013c-.017-.01-.038-.024-.032-.037A.459.459,0,0,0,8.4,19.277Zm69.473,6.466-.03-.034a.884.884,0,0,1-.324-.282c-.071-.093-.144-.2-.268-.39.006,0,.038.046,0-.016a3.606,3.606,0,0,1-.3-.442l.01.009-.258-.416c.009,0-.016-.051-.06-.121a1.275,1.275,0,0,0-.123-.176,1.009,1.009,0,0,1-.027.1L76.481,24l-.016.038c-.01.025-.024.049-.036.072a.413.413,0,0,1-.149.167.564.564,0,0,1-.257.148,1.951,1.951,0,0,1-.334.049s-.011,0-.037,0c-.186.034-.541.033-.749.051-.135.016-.075.018-.016.021-.269,0-.736.082-.835.083-.2.015-.075-.011-.129-.017-.291.028.052.039-.34.053.045-.006.129-.015.1-.015a2.419,2.419,0,0,1-.248-.006,1.81,1.81,0,0,0-.321,0l.1,0c-.271.037-.647,0-.689.042l.027.017c-.471.006-.2.022-.676.027l.006,0a1.757,1.757,0,0,0-.422.034h.072c-.258.014-.282.014-.545.021a1.013,1.013,0,0,1-.194.008,4.158,4.158,0,0,1-.73.027c.21-.008.111-.021.052-.035a.919.919,0,0,1-.377.01.128.128,0,0,1-.076.068,2.079,2.079,0,0,1-.281.068c.044-.017.115-.032.084-.037a.372.372,0,0,0-.127.029c-.036,0,.072-.032.031-.042a1.067,1.067,0,0,1-.325.078,2.486,2.486,0,0,1-.436,0c.121,0,.019-.02-.018-.048-.019.027-.149-.008-.242-.077s-.149-.136-.119-.057a1.072,1.072,0,0,1-.276-.531,3.748,3.748,0,0,1-.089-.571,2.4,2.4,0,0,1,.036-.812,3.537,3.537,0,0,0,.041-.366l.027.021A1.636,1.636,0,0,1,68,22.223l.073-.333c-.02.163.015.1.1-.031.013-.087.031-.178.047-.262l.064-.024a1.366,1.366,0,0,1,.138-.3c-.005-.114.165-.468.163-.54.109-.074.11-.282.2-.33a1.16,1.16,0,0,1,.035-.135c-.05.037-.089.041-.033-.045L68.8,20.2l.054-.024c.033-.1.071-.2.1-.261a.886.886,0,0,1-.06.088l.068-.106.016-.034a.145.145,0,0,1-.008.021.633.633,0,0,0,.087-.2c.2-.307.23-.773.452-1.111a.4.4,0,0,0-.058.156,7.106,7.106,0,0,0,.323-.811h-.042c.059-.237.107-.418.164-.6l-.04-.023c.051-.133.095-.351.146-.553a1.385,1.385,0,0,1,.161-.464c-.019-.075.095-.379.109-.54l.042-.034a2.247,2.247,0,0,0,.062-.457,1.7,1.7,0,0,0,.065-.6.909.909,0,0,1,.224-.685l.01,0a.886.886,0,0,1,.421-.261c-.068.037-.026.012.049-.012a.512.512,0,0,1,.184-.03.689.689,0,0,1,.292.026.778.778,0,0,1,.278.153.96.96,0,0,1,.22.22c-.237-.246-.012.047-.041.081a1.01,1.01,0,0,1,.112.147c.005.033-.008.017-.021,0s-.029-.04-.005.029a.838.838,0,0,1,.093.279,1.6,1.6,0,0,0,.052.258.373.373,0,0,0,.018-.1c0-.014,0-.013,0,0v0a.461.461,0,0,0,.016.044c0,.2.012.128.028.12a3.644,3.644,0,0,1-.083.506c.031-.064.023.055.008.183s-.045.293,0,.225c-.08.16-.023.115-.088.214a2.032,2.032,0,0,0,.034-.667c-.015.062-.031.123-.048.184-.045-.122.047-.4.028-.521a.633.633,0,0,1-.016.237l.046-.046a1.824,1.824,0,0,0-.07-.668c.005.095-.01.038-.028-.022s-.051-.12-.051-.053a1.121,1.121,0,0,1,.031.137c0,.019-.008.02-.014.011a4.638,4.638,0,0,1-.089,1.482c.033.04-.03.356.022.275a.845.845,0,0,0-.106.3c-.016.157.093-.173.125-.231-.032.183-.022.185-.012.194-.089.135-.2.224-.181.062l-.067.256c.022-.057.013.015-.011.11l-.016,0a.167.167,0,0,1,.007-.033,23.2,23.2,0,0,1-.992,3.1,14.778,14.778,0,0,0-1.2,3.07h.021l.008-.037s0,0,0-.007.007-.02-.007.045l.073-.005.039.006c-.023,0-.074,0-.112,0l0,.015c.146.005.292.007.437.006-.1-.007-.2-.012-.089-.019h-.148c.049,0,.463-.009.547-.026l.465-.016c-.015,0,.06-.02-.014-.015.114-.011.214-.022.063-.016.556-.029,1.117-.093,1.675-.162a13.563,13.563,0,0,1,1.671-.134c.075-.006.032-.016,0-.024.2.028.194-.027.306-.033l.3.051c.122-.015.028-.031.037-.042.142,0,.283.008.421.016s.283.031.4.044c.066.012.14.028.207.038l.025,0h.008c.006,0,.012,0,.005-.005l-.026-.045c-.018-.03-.036-.059-.054-.086s.01-.029.024-.027.021,0-.005-.06c.005.045-.008.04-.023.022a.247.247,0,0,1-.029-.043l-.051-.094c-.064-.122-.132-.248-.13-.207a1.293,1.293,0,0,0-.151-.344c-.065-.115-.122-.2-.059-.2-.137-.175-.151-.113-.113-.06a2.931,2.931,0,0,1-.237-.3.952.952,0,0,1-.155-.347A.614.614,0,0,1,75,20.831a1.093,1.093,0,0,1,.335-.348.869.869,0,0,1,.487-.15.725.725,0,0,1,.308.061c-.128-.067.045-.023.2.024a.988.988,0,0,0-.134-.093,1.212,1.212,0,0,1,.36.171c.069.044.086.062.083.064.05.046-.024.006.089.134.089.1.126.169.156.2s.059.064.1.116l-.012-.035.083.141c.023.043-.013-.008-.053-.059-.057-.073-.12-.146-.019.061a.694.694,0,0,1,.192.282c-.089-.177-.106-.14-.081-.07l.126.248.005-.107c.363.711.66,1.482,1.1,2.2-.042.013.316.5.236.466l-.015-.029c-.12-.169,0,.074.106.205-.038-.064,0-.034.029,0s.093.083-.048-.121c.07.085.141.169.215.25a.676.676,0,0,1,.166.148c.033.036.068.077.106.122a.9.9,0,0,1,.12.176.621.621,0,0,1,.031.474.541.541,0,0,1-.318.33.116.116,0,0,0,.044-.028,1.624,1.624,0,0,1-.684.176h-.023A1.018,1.018,0,0,1,77.869,25.743ZM69.8,24.77l.335-.017c-.032,0-.08-.014-.134-.025h-.07l-.083.009.038-.01-.165,0c0,.008.019.014.065.02l.062-.008C69.8,24.75,69.765,24.763,69.8,24.77Zm-.213-1.536,0,.014h.024s0,0,0-.015ZM68.164,22.1c.021-.063.045-.126.071-.189-.03,0-.057,0-.066-.023C68.164,21.959,68.165,22.029,68.164,22.1Zm.253-.8a.015.015,0,0,1,.008,0,.058.058,0,0,1,0-.021C68.4,21.306,68.41,21.3,68.417,21.3Zm8.227-.7L76.6,20.55a.212.212,0,0,0-.035-.013C76.56,20.536,76.576,20.55,76.644,20.6Zm-.5-.191Zm-6.727-1.335-.052.051a1.8,1.8,0,0,0-.061.459c.059-.135.115-.272.172-.408.009-.149.014-.284.009-.362Zm.725-1.824c-.059.084-.24.462-.256.487a.127.127,0,0,0,.1.088c.031-.092.061-.183.09-.276l-.054-.054.066.015c.031-.094.06-.189.087-.284A.07.07,0,0,0,70.14,17.245Zm1.74-.548a1.165,1.165,0,0,0,.079-.3Zm-1.5-.3c.019-.079.036-.159.051-.239-.014.019-.035.043-.046.031A1.487,1.487,0,0,0,70.384,16.4Zm1.59-.066,0,0,0-.02Zm-1.411-2a.764.764,0,0,0-.012.29,2.084,2.084,0,0,0,.042.208c.009.036.018.066.027.092.005-.085.007-.17.005-.256a.68.68,0,0,1,.44-.721l-.084.023a2.275,2.275,0,0,1,.323-.1.926.926,0,0,0-.214.016.65.65,0,0,1,.251-.019,1.285,1.285,0,0,1,.3.061c-.015-.022.026-.028.051-.038s.037-.035-.061-.094a.6.6,0,0,0-.506,0,1.354,1.354,0,0,0-.19.109.928.928,0,0,0-.257.249c-.011.028-.005-.008-.016-.013h0C70.652,14.143,70.609,14.174,70.564,14.329Zm1.1-.579h.008l-.109-.04ZM9.607,24.54h0Zm96.626-1.754a.187.187,0,0,1-.091-.01l0,0a.173.173,0,0,1-.045-.007c-.025-.007-.043-.014-.064.007l.018.007a1.219,1.219,0,0,1-.136-.021c-.009,0-.042,0-.049-.006-.01.034-.157-.012-.186-.021.054.005.033-.014.021-.031a.07.07,0,0,1-.1-.009.1.1,0,0,1-.126.073c.015,0,.037,0,.031-.015s-.028-.006-.036,0,.023-.013.019-.031c-.071.03-.1-.02-.187-.028.031-.007.012-.023.009-.043-.012.025-.033.008-.051-.008s-.038-.038-.036.006c-.141-.092-.391-.153-.425-.231,0-.029-.064-.012-.09-.024l.018-.025a.215.215,0,0,1-.087,0,.343.343,0,0,0-.088,0c.053-.014.046-.036.025-.08l-.088.025.013-.048a.093.093,0,0,1-.075-.038.129.129,0,0,1-.1,0c-.028-.007-.052-.013-.065-.005.011-.073-.076-.025-.06-.09a.125.125,0,0,1-.042,0c-.005.032-.019.063-.033.037l-.006,0,.012-.039a.275.275,0,0,1-.069-.026.087.087,0,0,1,.012.031l-.016-.034-.007-.005h.006a.049.049,0,0,0-.047-.031c-.042-.1-.222-.043-.256-.172.007.016.023.031.037.022-.074-.045-.1-.144-.168-.15l-.021.034a.457.457,0,0,1-.146-.074l-.029.034c-.049-.057-.217-.1-.193-.2-.037.017-.071-.072-.111-.089l.014-.034a.214.214,0,0,0-.1-.068c-.036-.122-.166-.144-.218-.194l.006-.008-.083-.032c.015,0,.012,0,0,0s-.037,0-.046-.011a.129.129,0,0,1-.085-.074l-.05-.036c.068.02.02-.041.035-.074l-.049,0c0-.023.036-.01.016-.032a.173.173,0,0,1-.058-.017.135.135,0,0,0-.08-.014.061.061,0,0,0,.008.036s0,0,0,0v0l0,0a.1.1,0,0,0-.018,0c-.038-.039-.031-.016-.037,0-.017-.077-.06-.077-.062-.144,0,.037-.028.01-.055-.017s-.055-.053-.06-.018c0-.072-.02-.027-.011-.079.033.061.111.073.163.087l-.017-.056c.059-.024.068.086.1.088-.023,0-.046-.035-.043-.048l-.016.042a.2.2,0,0,0,.161.067c-.014-.018,0-.018.015-.018s.041,0,.036-.023l-.032-.014a.011.011,0,0,1,.007-.013c-.046-.031-.092-.062-.135-.1l0,0-.014-.012a1.2,1.2,0,0,1-.142-.132c-.015.01-.037,0-.058,0s-.045-.015-.049,0c-.007-.035.016-.038-.029-.085-.042-.024-.007.065-.008.09-.04-.036-.047-.031-.057-.026.013-.064.068-.127.1-.1-.012-.019-.024-.04-.034-.06,0,.018-.012.008-.024-.015l.011-.007s0,0,0,.005a.873.873,0,0,1-.061-.171c-.159-.65.012-.931.7-.928a.6.6,0,0,1,.116-.012c-.026,0-.053-.007-.024-.011l-.038,0a.717.717,0,0,1,.141-.006.562.562,0,0,1,.114.033s.018,0,0-.008a.147.147,0,0,0,.033.01,1.311,1.311,0,0,1,.338.235c.1.1.211.18.314.268.016.008.012,0,.01-.012.018.029.032.028.047.027a.037.037,0,0,1,.024,0l.041.066c.032.007.019-.015.024-.02a1.777,1.777,0,0,0,.332.183c.023.031-.027.032.011.059-.016-.04.023-.027.06-.014s.06.021.058,0c.018.067.145.078.087.146.049.029.06-.014.049-.028a.3.3,0,0,0,.167.049c.022.034.28.1.305.193-.01-.041,0-.034.024-.027a.1.1,0,0,0,.034.005l-.014-.054.077.042c.018,0,.021.008.019.011.013.008-.013.021.016.047.052.03.065.01.1.005l-.006-.01.038.016c.026.015-.113-.011-.037.053.007-.01.084-.032.093.008-.043-.027-.051,0-.041.023l.06.036.005-.058a4.259,4.259,0,0,1,.505.387c-.024.028.116.1.068.129l0-.009c-.043-.03-.014.042.023.064-.024-.041.093.014.015-.063l.077.039c.093-.035.155.166.26.239-.008,0-.013,0-.015,0,.091.069.157.2.183.212l-.005.018a.472.472,0,0,1,.16.154h0s-.009,0,0,.01a.283.283,0,0,1,.1.088h0a1.057,1.057,0,0,1,.08.1c-.016.011.02.051.051.1s.053.119.036.141a.363.363,0,0,1,.022.166s0,0-.007.01c.014.059-.053.142-.084.185s0,.025.012.015c-.052.049-.109.169-.139.182s-.031.016-.034.008,0-.008-.01-.007c-.063.051.038.03-.065.076.01-.009.029-.024.02-.021a.175.175,0,0,1-.085.011.152.152,0,0,0-.075.008h.028a.192.192,0,0,1-.115.016c-.034,0-.062-.006-.064.013l.007.018A.251.251,0,0,0,106.233,22.787Zm-.6-.113h.087a.255.255,0,0,1-.026-.031l-.018,0-.023.005.012-.008-.039-.01a.021.021,0,0,0,.01.023l.017,0C105.633,22.656,105.621,22.666,105.63,22.674Zm-1.036-.4.077-.037-.045-.024A.234.234,0,0,1,104.593,22.275Zm-.149-.066-.011.009C104.445,22.224,104.44,22.216,104.444,22.208Zm-.6-.341.075.012,0,.033a.294.294,0,0,0,.162-.036l-.091-.064A1.491,1.491,0,0,0,103.846,21.867Zm-.278-.342a.634.634,0,0,0,.049.162.376.376,0,0,0,.082-.087l-.058-.044-.047.048.04-.055-.059-.045A.049.049,0,0,0,103.568,21.526Zm-.225-.155a.14.14,0,0,0,.064,0l-.047-.038A.072.072,0,0,1,103.343,21.371Zm-.4-.241a.265.265,0,0,0,.175.006l-.1-.084a1.493,1.493,0,0,0-.127-.093.04.04,0,0,1,.011.021.085.085,0,0,0-.076-.034l.031.045c-.035-.021-.038-.077-.1-.095-.008.033-.068.046-.053.109a.08.08,0,0,0,.1.04.124.124,0,0,1,.124.031h0C102.944,21.075,102.877,21.1,102.941,21.13Zm-.269-.082c.015.019.021.031,0,0Zm-.42-.558.008.005-.006-.006Zm-.011-.016a.745.745,0,0,1-.044-.064A.078.078,0,0,0,102.242,20.474ZM105,20.4Zm.138,0-.008-.014C105.121,20.393,105.109,20.4,105.142,20.4ZM75.634,22.381c0,.006,0,.011,0,.016A.067.067,0,0,1,75.634,22.381Zm21.6-.957c-.1-.067-.063-.033-.025.008a.734.734,0,0,1-.229-.351.527.527,0,0,1,.005-.315c.04-.1.045-.1.05-.087s.007.009.016,0c.054-.109.045-.1.037-.109s-.006-.023.1-.141c-.019.028-.061.087-.042.066.077-.094.25-.219.313-.318l-.055.055c.123-.174.338-.377.328-.427l-.027.005c.235-.284.083-.132.313-.425v.006c.089-.135.155-.2.171-.283l-.034.045.227-.359a.655.655,0,0,1,.077-.131,3.489,3.489,0,0,1,.271-.5c-.075.144-.024.085.011.052a.6.6,0,0,1,.134-.263c-.032-.039-.062-.087.055-.319-.012.039-.038.1-.018.079a.285.285,0,0,0,.046-.1c.01-.009.007.006.006.021s0,.03.012.021a3.319,3.319,0,0,1,.236-.508c-.023.079.018.022.046,0-.045-.046.2-.29.089-.239.265-.428.548-1.148.678-1.3.044-.038.067-.181.1-.261l.023.023c.051-.246.06-.182.127-.468-.015.124.02.086.1-.012l.022-.207.059-.015a.857.857,0,0,1,.1-.239c-.016-.094.111-.373.1-.433.1-.053.08-.224.165-.257a.7.7,0,0,1,.021-.108c-.045.027-.081.027-.036-.04l.006-.017.049-.013c.02-.073.04-.146.054-.194a.36.36,0,0,1-.042.066c.016-.028.032-.054.046-.08l.008-.025a.061.061,0,0,1,0,.016.326.326,0,0,0,.041-.155c.124-.252.008-.612.134-.916a.241.241,0,0,0-.014.132,2.988,2.988,0,0,1,.074-.381,1.211,1.211,0,0,0,.055-.3l-.041,0a1.445,1.445,0,0,1,.093-.548l-.036-.03a.83.83,0,0,1,.2-.264.765.765,0,0,1,.347-.166.926.926,0,0,1,.3-.016.393.393,0,0,1,.2.068.439.439,0,0,1,.245.073,1.472,1.472,0,0,1,.263.2l0,.055a2.672,2.672,0,0,1,.236.369c.019.094.041.182.062.265a1.368,1.368,0,0,1,.046.291,2.745,2.745,0,0,1-.026.481h-.01a.986.986,0,0,0,.017.25c-.035-.054.023.043.033.1a2.315,2.315,0,0,0,.131.209.84.84,0,0,0,.123.1c-.159-.085-.017.047-.021.082a.908.908,0,0,0,.108.026c.015.017,0,.016-.014.016s-.028,0,.009.021c.037.007.107.03.179.046a.492.492,0,0,0,.183.009.227.227,0,0,0-.064-.038c-.01,0-.009,0,0,0l-.007,0,.008,0a.144.144,0,0,0,.032-.007c.135.034.087.01.084-.006.141.075.238.053.355.112-.044-.028.044-.02.141-.01s.232.031.177-.008c.129.071.093.018.17.075a1.454,1.454,0,0,0-.521-.013l.14.043a.419.419,0,0,1-.245-.013.621.621,0,0,0-.156-.027.464.464,0,0,1,.184.031l-.032-.046c-.2-.038-.353-.027-.493-.047.059.028.022.023-.023.018s-.1-.01-.059.022l.1.027c.012.008.011.013,0,.016a9.537,9.537,0,0,0,1,.124l.153.028c.033-.033.279,0,.215-.04a.58.58,0,0,0,.242.077c.125.007-.136-.074-.184-.1.146.019.148.009.155,0,.109.074.176.168.049.158l.2.048c-.041-.016.015-.012.088.008l0,.014-.022,0c1.212.309,2.379.788,3.619,1,.405.071.888.311.822.934a.873.873,0,0,1-.025.344.062.062,0,0,0,0-.008c.023-.067.031-.121.022-.044a.892.892,0,0,0,.014-.116.6.6,0,0,1-.037.2.563.563,0,0,1-.122.2.621.621,0,0,1-.333.157c.012,0-.047.015.012,0-.045.009-.086.015-.1.017a1.688,1.688,0,0,1-.28,0l-.329-.026a5.19,5.19,0,0,1-.658-.1,3.592,3.592,0,0,1-.629-.213c-.2-.081-.4-.153-.607-.224-.056-.016-.027,0-.007.013-.142-.068-.147-.034-.231-.053l-.211-.1c-.094-.014-.027.016-.035.021-.425-.1-.831-.23-1.183-.273-.106-.04.036-.034-.11-.071.1.049-.028.029-.152.008-.1-.016-.2-.032-.171-.012-.139-.082-.511-.112-.431-.185-.174-.043-.152.007-.1.025a3.117,3.117,0,0,0-.539-.09,6.381,6.381,0,0,1-1.074-.324c.081.066-.04.007-.152,0l.09.071a.878.878,0,0,0-.217-.054c-.032.006-.037.007-.038,0a.014.014,0,0,1-.015-.009c0-.007-.011-.014-.05,0a.143.143,0,0,0-.063.094c0,.032,0,.053,0,.1l.013-.02a.938.938,0,0,0-.025.1c-.01.032-.006-.012,0-.057,0-.062,0-.124-.054.021a.444.444,0,0,1-.01.259c.029-.155,0-.137-.025-.085a1.468,1.468,0,0,1-.054.23c.028-.025.051-.046.075-.071-.007.024-.01.043-.02.071a.481.481,0,0,1-.028.07l-.05.107-.105.213c-.073.141-.145.284-.219.427l-.458.872c-.013-.012-.064.081-.116.173s-.115.205-.125.165l.016-.02c.071-.147-.057.023-.115.143.033-.049.025-.013.018.022s-.022.1.075-.073l-.105.24c.007.169-.355.6-.542.949a.087.087,0,0,0,.013-.038c-.168.311-.444.654-.481.726l-.031.017a3.112,3.112,0,0,1-.4.573c0-.005.024-.04-.014,0a1.828,1.828,0,0,1-.259.331l0-.01c-.087.095-.176.189-.271.276-.012-.015-.128.1-.269.217a1.314,1.314,0,0,1-.365.235,2.864,2.864,0,0,1-.424.235s-.009,0-.029.007a.786.786,0,0,1-.285.09.52.52,0,0,1-.066,0A.458.458,0,0,1,97.235,21.423Zm1.633-3.414c-.036.079-.075.157-.113.237.017-.02.043-.047.073-.078l.029-.048.023-.061-.006.032.063-.113c-.006,0-.019.005-.042.035l-.015.046c.005-.034.007-.059,0-.059S98.874,18,98.869,18.009Zm1.5-2.92.068-.151c-.028,0-.054-.007-.064-.027C100.369,14.971,100.366,15.029,100.365,15.089Zm1.969-.2.027.007c.008-.009.018-.015.01-.015A.169.169,0,0,0,102.334,14.891Zm-1.78-.443a.01.01,0,0,1,.007,0,.052.052,0,0,1-.007-.018C100.543,14.455,100.547,14.451,100.554,14.449Zm4.7-.721a.737.737,0,0,0-.24-.052C105.1,13.693,105.176,13.71,105.255,13.728Zm-.289-.062,0,0h-.015Zm-.822-.168Zm.129-.069Zm-1.2-.3c.007-.041.116.02.07-.1-.065-.132-.081-.179-.123-.247a.526.526,0,0,1-.037-.375c0-.014,0-.008.008,0s.037.025.046-.137a.812.812,0,0,0-.074-.386.392.392,0,0,0-.047-.063,4.007,4.007,0,0,1-.023.9.224.224,0,0,1,.01-.06.415.415,0,0,0,.047.248.7.7,0,0,1-.008-.154A.511.511,0,0,0,103.07,13.127Zm-1.918-.457-.036.047a1.388,1.388,0,0,0,.065.36c.021-.113.041-.226.056-.342a2.485,2.485,0,0,0-.093-.278Zm2.03.327,0,0a.3.3,0,0,1-.019-.036C103.172,12.969,103.176,12.981,103.183,13Zm-1.657-1.83a.512.512,0,0,0-.156.2,1.738,1.738,0,0,0-.078.193.142.142,0,0,0,.112.059,2.119,2.119,0,0,1,.042-.224c-.019-.015-.039-.03-.058-.046l.066.015a.571.571,0,0,1,.1-.206h-.006A.064.064,0,0,0,101.526,11.166Zm.656-.167a.809.809,0,0,1,.18.05c-.012-.016-.029-.039-.017-.049a.336.336,0,0,0-.08-.009A.481.481,0,0,0,102.182,11Zm2.212,9.034v.005A.021.021,0,0,1,104.394,20.034Zm-59.138-.381c0,.014-.007.027-.009.038A.221.221,0,0,1,45.255,19.653ZM33.11,19.039l-.01.015Zm29-1.876c-.071-.04-.088-.055-.085-.059-.054-.043.025-.007-.1-.124a2.488,2.488,0,0,1-.2-.195l-.031-.034c0,.01,0,.019,0,.034a1.613,1.613,0,0,1-.023.215c.009-.064,0-.01-.022.069a.97.97,0,0,1-.037.121l-.019.052c-.006.019,0,.009-.006.015a.668.668,0,0,1,.018-.067c.007-.03.018-.057.024-.09a1.735,1.735,0,0,0,.032-.193c.015-.077.023-.135.027-.165l-.027-.032c0,.012,0,.022,0,.031,0-.012,0-.024,0-.036s-.02-.028-.031-.045c0,.05,0,.1,0,.15,0-.051,0-.1,0-.152-.005-.008-.011-.016-.016-.027a.342.342,0,0,0,.014.047.782.782,0,0,1-.068-.2c-.011-.079.015.062.064.142l.006.009c0-.046,0-.093-.009-.138a.494.494,0,0,1-.045-.146.468.468,0,0,1,.028-.252.333.333,0,0,0-.014.185c.009.012.017-.018.031-.06a1.251,1.251,0,0,1,.089-.308l-.087.081A7.572,7.572,0,0,1,63.1,13.794c.008.015.105-.088.2-.192s.222-.231.213-.18l-.027.022c-.147.165.072-.02.192-.155-.06.053-.034.012-.009-.029.035-.056.07-.112-.115.077l.227-.271A10.492,10.492,0,0,1,64.8,12c-.025.029-.029.039-.03.044.317-.354.756-.75.825-.837l.041-.019a8.716,8.716,0,0,1,.639-.687c0,.007-.038.049.017,0a5.14,5.14,0,0,1,.378-.42l-.007.013.355-.377c.027.03.591-.663.727-.75.061-.082.314-.364.424-.492,0,0,.011-.007.031-.026.118-.162.391-.421.534-.588.092-.111.045-.07,0-.027.2-.2.5-.6.574-.678.088-.1.089-.092.091-.082s0,.011.018,0c.2-.238-.067.011.217-.292-.029.038-.087.107-.062.082.106-.118.333-.3.426-.425l-.075.073c.085-.116.211-.237.3-.343a.586.586,0,0,0,.139-.234l-.029.014c.136-.215.163-.258.191-.3a1.053,1.053,0,0,1,.064-.089.809.809,0,0,1,.2-.18l0,.007a.627.627,0,0,1,.258-.107,1.324,1.324,0,0,0,.187-.042l-.08,0a.907.907,0,0,1,.176,0,.945.945,0,0,1,.126.012,1.09,1.09,0,0,1,.295.085.486.486,0,0,1,.191.122c.008,0,.047.024.095.081a.584.584,0,0,1,.106.252.969.969,0,0,1-.057.463c.033-.114.031-.146.024-.141s-.024.047-.041.076a.853.853,0,0,1-.127.386c.028.041.078.1-.095.435.023-.055.059-.138.034-.11a.715.715,0,0,0-.07.138c-.014.014-.007-.007,0-.027s.01-.041-.007-.027a.97.97,0,0,1-.181.313,3.241,3.241,0,0,1-.315.325c.081-.088,0-.03-.047-.017.01.033-.108.1-.182.144s-.1.069-.053.072a.113.113,0,0,0-.054.118A.184.184,0,0,0,71,7.986a.694.694,0,0,0,.094.075c.153.1.343.2.5.3a5.267,5.267,0,0,1,.7.472,2.075,2.075,0,0,0,.328.192l-.029.017c.309.135.228.124.586.289-.156-.057-.108-.007.012.106l.259.092.018.069a1.568,1.568,0,0,1,.3.187c.119.013.468.239.543.247.066.12.28.152.323.25a1.455,1.455,0,0,1,.136.054c-.033-.055-.034-.094.05-.027l.023.012.019.058c.1.047.2.1.263.133a.906.906,0,0,1-.087-.072l.1.082.034.02-.021-.01a.782.782,0,0,0,.2.114,10.176,10.176,0,0,1,1.108.67.418.418,0,0,0-.153-.1c.305.191.564.442.766.549l.01-.041a5.5,5.5,0,0,1,.563.382l.037-.029c.237.2.795.567.876.763a4.183,4.183,0,0,1,.45.4l.01.055a4.406,4.406,0,0,0,.375.339c.036.047.072.092.11.134a1.55,1.55,0,0,0,.111.116.736.736,0,0,1,.24.369.7.7,0,0,1-.066.431.817.817,0,0,1-.244.31l-.01,0a1.173,1.173,0,0,1-.443.215c.054-.028.034-.018-.017,0a.73.73,0,0,1-.217.043,1,1,0,0,1-.571-.1,1.678,1.678,0,0,1-.266-.129c.3.133,0-.049.006-.09a1.775,1.775,0,0,1-.163-.075c-.022-.025,0-.018.018-.011s.043.017-.011-.027c-.111-.05-.361-.284-.455-.337a.4.4,0,0,0,.059.095c.012.009.011.009,0,0l.007.01-.009-.011a.44.44,0,0,0-.044-.024c-.142-.159-.1-.088-.1-.075-.111-.188-.222-.253-.308-.395.025.053-.062-.023-.156-.105s-.228-.188-.191-.116c-.1-.148-.09-.074-.15-.176a6.432,6.432,0,0,0,.557.385l-.124-.15c.136.035.309.3.4.37a.875.875,0,0,1-.175-.184l.006.066a3.476,3.476,0,0,0,.267.258,2.707,2.707,0,0,0,.258.2c-.067-.07-.015-.034.041,0s.11.067.07.01c-.038-.03-.077-.06-.114-.092-.011-.017-.008-.021,0-.017-.069-.063-.134-.128-.2-.193a7.308,7.308,0,0,0-.991-.849.443.443,0,0,1-.146-.054c-.084-.04-.163-.08-.128-.033a.845.845,0,0,0-.267-.209c-.152-.07.144.147.19.2-.169-.1-.177-.086-.188-.08-.106-.13-.163-.268-.006-.194l-.236-.149c.049.038-.02.005-.108-.047v-.016a.2.2,0,0,1,.026.014c-.488-.3-.989-.583-1.475-.891-1.465-.925-2.908-1.885-4.4-2.858-.095.128-.193.254-.292.38.07-.077.132-.145.067-.054l.092-.127c-.021.049-.3.392-.345.47-.107.125-.213.252-.326.373,0,0,0,0,0,.012s-.011.025.022-.012c-.079.094-.147.177-.037.06-.4.44-.808.876-1.217,1.312s-.818.868-1.234,1.272c-.051.059-.011.036.015.019-.171.132-.127.161-.2.25l-.25.194c-.051.071-.03.064-.011.057s.016-.007.017,0c-.392.441-.8.848-1.1,1.231-.054.046-.061.037-.066.029s-.01-.02-.084.059c.117-.086.013.042-.093.171-.089.108-.179.216-.139.2-.181.116-.46.531-.476.408-.155.185-.092.181-.042.132a3.128,3.128,0,0,0-.408.6,4.558,4.558,0,0,0-.374.616.891.891,0,0,1-.382.377.555.555,0,0,1-.336.049c.062.019.055.023.008.025a.885.885,0,0,1-.249-.036.693.693,0,0,0,.164.086A.959.959,0,0,1,62.106,17.163Zm-.049-.049c.038.012.075.029-.046-.044Zm-.4-.438s0,0,0,0a.054.054,0,0,0,0-.026C61.657,16.658,61.657,16.667,61.657,16.675Zm-.037-.046a.218.218,0,0,0,.032.042c0-.015,0-.029,0-.043s-.019-.068-.031-.126a.045.045,0,0,1-.007-.01Q61.618,16.56,61.62,16.629Zm16.9-1.43c.113.025.172.038.008,0Zm.024-.049a.722.722,0,0,0,.514-.033c.057-.026.117-.055.2-.1a1.064,1.064,0,0,0,.3-.219c.016-.026,0,.008.014.015s.058-.01.137-.177a.55.55,0,0,0,.039-.323.35.35,0,0,0-.141-.21.515.515,0,0,0-.091-.05.387.387,0,0,1,.116.493.711.711,0,0,1-.5.424.777.777,0,0,1,.085-.016l-.344.091a1.4,1.4,0,0,0,.223-.017,1.528,1.528,0,0,1-.587-.011C78.555,15.062,78.342,15.06,78.546,15.15Zm-2.2-1.783.023.013-.021-.014Zm-.055-.04c-.092-.062-.184-.124-.277-.183A1.4,1.4,0,0,0,76.287,13.327Zm2.259-.168c-.011-.023-.024-.057-.008-.06a1.216,1.216,0,0,0-.191-.114C78.414,13.042,78.48,13.1,78.546,13.159Zm-1.145-.94c.084.064.166.13.248.195,0-.008,0-.021-.012-.039a5.248,5.248,0,0,0-.4-.429.126.126,0,0,0-.118.064c.083.061.167.12.248.182l.072-.032Zm-1.551-1.063c.153.037.293.07.375.085-.086-.043-.173-.084-.26-.125l-.046-.061a1.687,1.687,0,0,0-.477-.14C75.579,10.993,75.715,11.073,75.849,11.156ZM73.773,9.789Zm-.027,0a.062.062,0,0,1,.023,0,.108.108,0,0,0-.027-.015S73.747,9.782,73.746,9.788Zm-.614-.3c0-.029.011-.055.036-.059l-.222-.063ZM71.87,6.539c.006,0,.019-.009.045-.056l.015-.064c-.007.059-.008.1.013.06.037-.114.074-.225.1-.343a1.345,1.345,0,0,1-.067.127c-.008.023-.016.046-.024.068l-.021.088.005-.043C71.914,6.431,71.892,6.485,71.87,6.539ZM0,15.687c-.057-.572.7-.624.968-.615a6.482,6.482,0,0,0,1.4-.151,4.871,4.871,0,0,1,1.8-.1,3.054,3.054,0,0,0,.866.118H5.011c-.167-.006-.3-.021-.146-.014a2.006,2.006,0,0,1-.26-.025,2.59,2.59,0,0,0,.509.022.893.893,0,0,0,.175-.018,1.47,1.47,0,0,0,.16-.03,1.346,1.346,0,0,0,.212-.071,1.7,1.7,0,0,0,.511-.318h0a2.063,2.063,0,0,0,.215-.216c-.007.007,0,0,.01-.016s.028-.039-.031.03c.126-.15.222-.3.131-.173a6.728,6.728,0,0,0,.689-1.393c.217-.51.457-1.011.708-1.506s.513-.982.775-1.465c.129-.241.269-.482.39-.72a5.3,5.3,0,0,0,.282-.754c.037-.14.007-.062-.013-.01a3.2,3.2,0,0,0,.138-.581c.06-.185.121-.371.191-.554.044-.156.026-.127.01-.1s-.016.028-.016.022c.02-.067.043-.133.067-.2A.38.38,0,0,0,9.755,6.7c0-.033-.025-.054-.067-.063a.623.623,0,0,0-.172-.011c-.256.024-.529.059-.784.086-.515.058-1,.113-1.445.182-.127.007-.128,0-.124-.01s.02-.021-.187,0c.489,0-.952.132-.788.148a5.314,5.314,0,0,0-.607.042c-.337.036-.637.072-.547.008-.445.058-.362.091-.234.08a10.086,10.086,0,0,0-1.337.257c-.071.009-.25.044-.487.1-.118.026-.25.06-.39.094s-.292.07-.42.121-.27.125-.414.188a1.552,1.552,0,0,1-.442.121A.717.717,0,0,1,.907,8,.427.427,0,0,1,.72,7.822c.031.06.058.087.06.1S.759,7.912.724,7.873a.7.7,0,0,1-.161-.446.7.7,0,0,0,.029.343.667.667,0,0,1-.056-.44.683.683,0,0,1,.241-.366.9.9,0,0,1,.134-.1c.024-.014.033-.017.034-.016.041-.023.048-.022.057-.022s.035,0,.2-.083c.416-.224.429-.25.656-.382l-.069.025c.1-.047.2-.091.293-.136s-.08.046-.2.116-.186.115.17-.031a2.115,2.115,0,0,1,.611-.28c-.371.133-.312.147-.174.1.172-.063.347-.123.522-.176-.064,0-.127,0-.191.005a9.127,9.127,0,0,1,1.163-.3c.4-.07.79-.131,1.193-.194.8-.125,1.616-.243,2.445-.348,0,.01.067.007.174,0a2.994,2.994,0,0,1,.4-.016c.284.012.542.028.466.049l-.063-.007c-.183-.008-.179,0-.089.016a2.469,2.469,0,0,0,.538.007c-.146.008-.057-.012.029-.031s.194-.045-.1-.025a2.569,2.569,0,0,0,.476-.106c.076-.048.22-.093.245-.209a.778.778,0,0,0,0-.273,2.677,2.677,0,0,1-.014-.385c.011-.266.058-.543.085-.812a2.386,2.386,0,0,0-.02-.736.323.323,0,0,0,.018.059,1.589,1.589,0,0,0-.243-.6l-.1-.14a.441.441,0,0,1-.066-.188,1.3,1.3,0,0,1,.01-.338c.014-.1.032-.2.047-.288A1.088,1.088,0,0,1,9.477.88.694.694,0,0,1,9.668.615.679.679,0,0,1,9.747.58a.919.919,0,0,1,.464-.127.549.549,0,0,1,.364.111A.823.823,0,0,1,10.8.9c.057.138.119.3.189.516-.006-.01-.043-.108,0,.028a4.8,4.8,0,0,1,.27,1.02l-.008-.024a6.482,6.482,0,0,1,.1.964c-.019,0,0,.414-.04.861a.846.846,0,0,0,.034.318.3.3,0,0,0,.182.2.844.844,0,0,0,.4,0,5.122,5.122,0,0,1,.537-.154c.235-.054.488-.092.643-.115a.449.449,0,0,0,.075,0c.367-.068,1.066-.086,1.47-.137.265-.037.149-.031.033-.024a5.046,5.046,0,0,0,.927-.167c.154-.039.293-.094.406-.133s.2-.081.242-.1c.22-.1.213-.093.206-.081s-.008.013.028,0c.128-.066.2-.093.227-.105s.023-.015.021-.019,0-.01.061-.025a1.407,1.407,0,0,1,.369-.031c-.044,0-.1,0-.15.008s-.085.009-.049.008a2.4,2.4,0,0,1,.569.045c.1.017.2.034.3.045s.184.013.26.029a1.09,1.09,0,0,0-.2-.031.72.72,0,0,1,.426.119.622.622,0,0,1,.244.363.809.809,0,0,1,.012.346c-.018.092-.051.15-.054.175l.043-.04a.526.526,0,0,1-.219.22.791.791,0,0,1-.18.072l-.192.045-.651.15.01-.006a5.8,5.8,0,0,0-.8.236l.137-.034c-.489.14-.533.155-1.039.274a2.7,2.7,0,0,1-.377.079,2.708,2.708,0,0,1-.637.108l-.249.014c-.079.005-.155.007-.224.015-.14.012-.253.031-.309.04.2-.036.25-.044.238-.049a.87.87,0,0,0-.148,0,6.17,6.17,0,0,1-.718.163c-.037.054-.081.125-.731.286.1-.03.257-.073.189-.067a2.181,2.181,0,0,0-.268.067c-.067,0,.141-.05.064-.05a2.764,2.764,0,0,1-.634.133c-.055.007-.114.008-.174.013l-.046,0-.021,0a.114.114,0,0,0-.033.014.4.4,0,0,0-.108.274c.012-.165-.026-.025-.048.041.014.01.014.076.015.107s-.008.105.036.138a.149.149,0,0,0,.114-.022c.025-.012.021-.019-.009-.027l.033-.011a.223.223,0,0,1,.038-.01.228.228,0,0,1,.063-.006.209.209,0,0,1,.046.005l.033.007.067.013a1.93,1.93,0,0,1,.264.084,2.5,2.5,0,0,1,.5.273c.313.221.592.465.874.68.554.437,1.028.823,1.2,1,.088.1.384.3.553.441l-.042,0c.5.364.379.3.955.746-.248-.177-.164-.081.036.148q.2.148.4.3l.035.1a4.151,4.151,0,0,1,.458.471,2.867,2.867,0,0,1,.386.36l.245.267a1.3,1.3,0,0,0,.153.148.866.866,0,0,0,.256.283,1.48,1.48,0,0,1,.256.224c.064.029.142.074.231.113-.073-.075-.087-.121.068-.019l.038.02.057.07a3.582,3.582,0,0,0,.491.161c-.055-.018-.118-.046-.181-.074.077.027.146.062.217.083l.067.016-.041-.008a1.282,1.282,0,0,0,.4.067,2.042,2.042,0,0,0,.535.027c.189-.01.364-.056.6-.077a3.028,3.028,0,0,1,1.248.2,1.455,1.455,0,0,0-.322-.074,7.231,7.231,0,0,0,.906.194c.073.009.128.007.209.011a.541.541,0,0,1,.276.088.855.855,0,0,1,.287.344.5.5,0,0,0,.021-.051.747.747,0,0,1,.074.469c-.01.047-.016.07-.024.1l-.024.083c-.017.055-.037.11-.058.164a1.035,1.035,0,0,1-.483.554l-.007.053a1.2,1.2,0,0,1-.313.088c-.123.014-.207.014-.314.019-.2.008-.427.01-.642,0a3.7,3.7,0,0,1-1-.131,2.443,2.443,0,0,1-.488-.058c-.215-.037-.466-.095-.612-.11L19.51,14.8a3.768,3.768,0,0,0-.893-.033,15.619,15.619,0,0,0-2.354.246l-.007-.008-.751.1c.194-.049-.145.035-.372.05a8.88,8.88,0,0,1-.907.083l-.475.057c.524-.088-.044-.041-.079-.072l-.3.072c-.051,0-.028-.01,0-.019s.1-.027-.035-.012a9.853,9.853,0,0,0-.972.224,1.358,1.358,0,0,0,.194-.014c.025-.007.023-.006.007,0l.021,0-.025,0c-.025.008-.063.021-.079.029-.375.066-.237.053-.22.065-.423.031-.656.1-.976.1.332.006-1.017.156-.737.172a1.784,1.784,0,0,0-.245.009.682.682,0,0,1-.188.007,9.807,9.807,0,0,0,1.257-.247l-.361.029c.222-.094.8-.116,1.01-.178a2.457,2.457,0,0,1-.471.077l.1.026a12.339,12.339,0,0,0,1.258-.282c-.188.023-.045-.009.078-.041.1-.026.19-.052.077-.048l-.267.052c-.034,0-.038,0-.026-.009-.141.026-.284.052-.426.082-.274.058-.549.11-.824.16l.014,0-.024,0c-.539.1-1.082.182-1.625.258-.043.046-.682.145-.5.15a3.581,3.581,0,0,0-.63.054c-.3.058.377,0,.506-.006-.361.058-.36.067-.37.079-.3-.011-.537-.057-.23-.116l-.506.065c.11-.009-.027.017-.215.043L7.926,16l.049-.008c-.909.123-1.82.259-2.735.326-1.28.094-2.566.119-3.849.173-.055,0-.111,0-.166,0s-.11,0-.165,0H1A.934.934,0,0,1,0,15.687Zm8.716.21a4.553,4.553,0,0,0,.632-.081C9.14,15.844,8.93,15.872,8.719,15.9Zm.746-.1s0,0,0,0l.052-.009Zm5.138-.629-.012,0,.177-.011Zm-.1-.16c.084.023-.259.1.111.108.925-.048.748-.158,1.859-.27.04-.01.013,0,0,.013s.006.034.361-.021a10.03,10.03,0,0,0,1.089-.248c-.449.047-.893.118-1.333.171-.317.038-.633.072-.951.106.075,0,.133-.007.172-.007a5.016,5.016,0,0,0-.648.082l.4-.021C15.241,14.962,14.978,14.942,14.5,15.013Zm-9.606-.09Zm17.629-.071a.154.154,0,0,0,.063.015.678.678,0,0,0,.249-.036.751.751,0,0,0,.313-.2,1.5,1.5,0,0,0,.264-.448.119.119,0,0,0-.085-.137.194.194,0,0,1-.005.025,1.5,1.5,0,0,1-.226.492.746.746,0,0,1,.006.1l-.06-.038A.731.731,0,0,1,22.522,14.851Zm-2.081-.077a3.2,3.2,0,0,0,.408.011q-.243-.027-.483-.062C20.407,14.74,20.46,14.764,20.44,14.774ZM8.287,14.207a.4.4,0,0,0-.064.1c.028-.04.032-.016.043-.01s.025,0,.062-.063l0,.037s-.005.013,0,.014l.031-.006a.259.259,0,0,1,.153-.04l.157.006a.96.96,0,0,0,.179-.011.036.036,0,0,0-.021.01c.2-.034.448-.01.493-.027l.019.014a1.553,1.553,0,0,1,.39-.055s-.025.009.007.008a1.012,1.012,0,0,1,.234-.045l-.005,0,.215-.029c0,.02.1,0,.2-.021a.647.647,0,0,1,.232-.025c.041-.017.2-.045.267-.062,0,0,.005,0,.017,0a2.047,2.047,0,0,1,.33-.053c.059-.016.032-.018,0-.02a2.789,2.789,0,0,0,.365-.084c.087-.016.035.011.06.017.127-.03-.029-.038.146-.054-.02.006-.057.015-.041.015a.478.478,0,0,1,.109,0,.384.384,0,0,0,.148,0h-.045c.117-.038.291-.009.3-.051l-.015-.016c.21-.016.086-.025.3-.044l0,0c.09-.022.144-.005.183-.049l-.032,0c.112-.026.123-.025.238-.047a.207.207,0,0,1,.084-.019c0-.033.264-.071.315-.079-.09.024-.044.029-.015.039a.187.187,0,0,1,.162-.044c0-.048.009-.1.155-.135-.022.012-.057.024-.04.031s.049-.012.059-.017-.029.024-.01.038c.091-.067.17-.039.311-.086-.044.025,0,.027.018.042,0-.03.05-.027.092-.025s.08.006.046-.028c.289-.009.719-.126.837-.089.033.019.107-.031.155-.04l0,.031c.131-.075.105-.036.261-.116-.063.046-.032.059.04.077l.1-.08.028.045a.278.278,0,0,1,.147-.023.222.222,0,0,1,.112-.061c.054-.018.12-.034.112-.048.017.033.037.025.05.019s.022-.012.056.016a.064.064,0,0,1,.013-.025c-.04-.025-.069-.055-.041-.044h0l.049.034a.073.073,0,0,1,.036-.018.342.342,0,0,1-.045-.015l.049.014h.007s0,0,0,0c.025.007.049.009.042,0a.37.37,0,0,0,.054.008c.014,0,.028,0,.011-.011a.735.735,0,0,0-.083-.056c-.059-.037-.09-.048-.062-.085,0,.011,0,.022.024.024a.282.282,0,0,1-.044-.081.257.257,0,0,0-.1-.105l-.025.032a1.745,1.745,0,0,1-.214-.18l-.036.028c-.079-.1-.318-.242-.312-.361-.047,0-.119-.129-.179-.17l.01-.038a.568.568,0,0,0-.159-.135c-.092-.182-.269-.252-.39-.367l.005-.008-.141-.1c.052.008-.038-.007-.071-.048a.406.406,0,0,1-.145-.146l-.08-.073c.1.063.023-.04.041-.072l-.071-.024c0-.015.007-.014.016-.013s.02,0,0-.018c-.047-.016-.152-.106-.207-.106a.105.105,0,0,0,.018.047c.007,0,.006,0,0,0l0,0,0,0a.075.075,0,0,0-.024,0c-.059-.062-.045-.031-.053-.017-.037-.1-.1-.113-.118-.2.006.04-.037,0-.081-.035s-.09-.077-.087-.033c-.023-.088-.037-.035-.044-.1a.7.7,0,0,0,.256.143l-.042-.078c.08-.013.126.135.176.151a.14.14,0,0,1-.075-.078l-.012.048a.6.6,0,0,0,.249.156c-.025-.031,0-.021.024-.012s.057.019.046-.012l-.051-.035c0-.009,0-.012.006-.014q-.257-.214-.516-.423c-.016.009-.047,0-.077-.009s-.073-.024-.066,0c-.032-.046,0-.052-.1-.111-.069-.025.038.089.05.12-.073-.041-.081-.032-.09-.024-.02-.083-.007-.181.063-.154l-.094-.076c.016.022-.011.011-.046-.016l.007-.014a.043.043,0,0,1,.011.007c-.761-.611-1.525-1.21-2.251-1.855l0,.027s0,0,0,0l0,.011-.012.014c0-.006.006-.017.01-.028l-.014-.013c-.023.06-.047.118-.071.178.025-.043.05-.091.038-.04l.019-.063c0,.023-.065.2-.066.237-.025.065-.054.128-.084.191,0,0,0,0,.006.007s0,.014.012-.006c-.018.049-.031.092,0,.031-.1.228-.2.461-.287.7a5.492,5.492,0,0,1-.3.684c-.011.031.008.02.021.011-.068.068-.019.087-.035.134l-.1.1c-.006.038.008.035.019.032s.01,0,.012,0c-.092.234-.245.43-.3.628-.022.022-.031.017-.04.011s-.017-.013-.041.027c.054-.04.03.026,0,.091s-.045.11-.023.1c-.091.053-.141.263-.207.189-.05.088,0,.094.019.071a.891.891,0,0,0-.114.289c-.049.047-.216.487-.33.552.071-.039.016.019.005.089l.066-.036-.073.136c-.011.03-.017.037-.02.036s-.01.008-.015.007-.02,0-.044.031a.277.277,0,0,0-.038.17l.013-.012-.029.066c-.011.02,0-.011,0-.042s.005-.083-.05,0c.009.007.014.122-.035.15.042-.077.011-.081-.015-.057l-.059.109.066-.013c-.165.312-.364.623-.529.962-.015-.011-.049.055-.063.085s-.041.077-.071.075l.011-.012c.006-.016,0-.024,0-.024S8.3,14.2,8.287,14.207Zm5.035-.6a.608.608,0,0,1,.062.013l.032-.006.034-.017-.015.013.07-.013c0-.007-.008-.013-.03-.014l-.025.014c.021-.02.034-.035.015-.038Zm2-.3.093-.013a.12.12,0,0,1-.01-.068Zm.365-.134a.038.038,0,0,1,.007-.014C15.669,13.156,15.683,13.159,15.685,13.167Zm.586-.193-.033.007c.032.021.083.048.146.084l.1.058c.016.009.045.024.052.03l.008.008h.015c-.039-.047-.08-.091-.12-.137a1.349,1.349,0,0,0-.274-.113Zm4.182.094c-.131.033-.257.062-.375.088a4.23,4.23,0,0,0,.565-.04,2.022,2.022,0,0,1,.314-.018,3.925,3.925,0,0,1,.6-.035h.08a3.677,3.677,0,0,0-.543-.053l-.137-.034A2.264,2.264,0,0,0,20.453,13.067ZM9.145,12.691l.019-.018c0-.009,0-.018,0-.018S9.153,12.665,9.145,12.691Zm6.664-.321a1.73,1.73,0,0,0,.1.242.216.216,0,0,0,.1-.065c-.029-.031-.059-.063-.089-.094l-.059.036.047-.049-.094-.094A.041.041,0,0,0,15.809,12.37Zm-.358-.327a.3.3,0,0,0,.092.034L15.464,12C15.464,12.015,15.463,12.036,15.451,12.042ZM14.4,11.226c.126.176.184.05.366.226.024.008-.076.005.036.081a.536.536,0,0,0,.255.085q-.191-.173-.384-.341a.125.125,0,0,1,.02.033.264.264,0,0,0-.12-.088l.055.076c-.056-.048-.071-.12-.166-.179C14.451,11.157,14.363,11.139,14.4,11.226Zm-.035.037h0C14.385,11.3,14.4,11.315,14.361,11.263Zm2.671-.042a.136.136,0,0,1,.033.016c-.028-.03-.038-.04-.041-.04S17.033,11.215,17.032,11.222Zm-.951-.834c0-.036.007-.066.044-.055-.115-.076-.231-.149-.346-.223C15.881,10.2,15.982,10.294,16.081,10.388Zm-2.5-.017.009.005-.007-.006Zm-.024-.022-.1-.084A.228.228,0,0,0,13.555,10.349Zm-2.51-2.036a.107.107,0,0,1,.013.013.16.16,0,0,0,.007-.023l-.011-.01ZM.9,6.9c-.03.024-.058.052-.052.051A.469.469,0,0,0,.884,6.92L1,6.846C.965,6.863.934,6.875.9,6.9ZM13.335,6.02a6.543,6.543,0,0,1,.638-.144c-.062,0-.15.009-.253.017-.056.01-.111.022-.166.034s-.094.026-.135.039l.066-.024c-.1.023-.208.047-.312.072,0,.006.04,0,.131-.012l.115-.036C13.318,6,13.256,6.033,13.335,6.02Zm91.479,9.449.011.007Zm-40.195-.407-.015.009Zm7.6-.026v0Zm0,0a.008.008,0,0,1,0,0A.008.008,0,0,0,72.216,15.032ZM6.181,14.471l-.01.01h0ZM6.26,14.4l-.079.076Zm3.572-3.033-.007,0ZM93.1,10.648a.705.705,0,0,1-.3-.232,1.5,1.5,0,0,1-.167-.289,2.016,2.016,0,0,0-.138-.243c-.036-.11.055,0-.011-.134.024.11-.043,0-.109-.107-.055-.091-.109-.183-.107-.143-.025-.163-.228-.5-.113-.475-.063-.173-.093-.129-.083-.075-.073-.206-.114-.377-.166-.554,0-.03,0-.113-.009-.211a.364.364,0,0,0-.1-.232.244.244,0,0,0-.228-.045c-.077.016-.16.047-.212.052.121-.007-.011.029-.114.1l.12-.007c-.087.037-.172.076-.26.109-.051.025-.067.03-.068.026-.02.007-.022,0-.028,0s-.021-.01-.088.01a.906.906,0,0,0-.27.15l.03,0-.12.049c-.04.014.015-.015.062-.045s.106-.074-.059-.024a.456.456,0,0,1-.243.125c.15-.05.122-.072.062-.064l-.21.07.087.027c-.606.2-1.251.343-1.893.545,0-.018-.1.012-.2.042s-.231.068-.209.034l.026,0c.155-.059-.058-.023-.184.028.058-.013.029.008,0,.028s-.083.057.106,0l-.242.107a1.117,1.117,0,0,1-.416.187,3.69,3.69,0,0,0-.6.241.1.1,0,0,0,.032-.024,2.426,2.426,0,0,1-.51.217,1.153,1.153,0,0,1-.331.038H85.81l-.032-.02a1.1,1.1,0,0,1-.191-.03l-.139-.027a1.3,1.3,0,0,1-.368-.122c.006,0,.047.018-.005-.014a.435.435,0,0,1-.14-.088.5.5,0,0,1-.136-.265l.007.01a.453.453,0,0,1,.082-.409c.007.007.038-.027.091-.068a1.652,1.652,0,0,1,.211-.133,3.5,3.5,0,0,1,.382-.208c.059-.05.308-.195.418-.258,0,0,.009,0,.029-.01a3.914,3.914,0,0,1,.539-.262c.1-.05.051-.037.005-.023.2-.077.535-.258.611-.281.1-.039.092-.029.091-.02s0,.009.013.007c.217-.089-.051-.026.248-.123-.033.015-.1.042-.07.035.113-.042.334-.059.443-.109l-.077.017c.2-.088.5-.123.524-.17l-.025-.011c.365-.092.149-.058.519-.15l0,0c.157-.053.251-.052.319-.109l-.056.012c.2-.063.214-.065.416-.123a.652.652,0,0,1,.148-.046.806.806,0,0,1,.24-.094,2.506,2.506,0,0,0,.288-.106c-.141.07-.068.052-.019.049a.8.8,0,0,1,.241-.154.134.134,0,0,1,0-.09c.014-.038.051-.087.091-.172,0,.03-.028.073-.01.062s.031-.06.035-.074.008.005.008.017,0,.024.012.018c.014-.073.02-.128.029-.2a.982.982,0,0,0,0-.115.718.718,0,0,0-.04-.145c.039.066.028,0,.036-.028-.021,0-.04-.059-.057-.118-.022-.08-.04-.16-.059-.093a2.272,2.272,0,0,0-.283-.482c-.015-.031-.053-.047-.111-.08a.337.337,0,0,1-.174-.17,3.242,3.242,0,0,1-.217-.51c0-.06-.1-.178-.125-.273l.032,0a.664.664,0,0,1-.088-.237.7.7,0,0,1-.012-.112.794.794,0,0,1,.012-.207c-.009.08.006.1.02.091a.157.157,0,0,0,.028-.042l.052-.075a.7.7,0,0,1,.081-.229h.066a.576.576,0,0,1,.233-.171.168.168,0,0,1,.061-.055.742.742,0,0,1,.069-.041c.029-.011.059-.021.091-.03a.856.856,0,0,1,.316-.007.857.857,0,0,0,.175.123c.059.038.109.08.111.129a.583.583,0,0,1,.1.075c-.009-.056.005-.092.054-.011l.013.016-.008.055a1.567,1.567,0,0,1,.146.183.769.769,0,0,1-.032-.083c.016.034.028.066.041.1l.016.025a.069.069,0,0,1-.012-.014.438.438,0,0,0,.094.146c.1.265.44.474.55.781-.02-.044-.056-.1-.078-.107a4.146,4.146,0,0,0,.392.57l.024-.034c.065.07.123.129.179.178l.079.078.075.066.035-.029a.509.509,0,0,0,.279.144,1.564,1.564,0,0,0,.161.012.5.5,0,0,1,.134.028.409.409,0,0,1,.169-.045,1.486,1.486,0,0,0,.231-.057l.041.023a1.734,1.734,0,0,0,.348-.127,5.2,5.2,0,0,0,.918-.306l.006.008.28-.118c-.065.053.049-.038.139-.06a1.32,1.32,0,0,1,.352-.11l.185-.064c-.127.059-.08.058-.023.057.033,0,.068,0,.077.01l.109-.068c.021,0,.014.008,0,.018s-.034.025.019.012c.072-.046.309-.124.373-.181a.272.272,0,0,0-.084,0c-.01.005-.01,0,0,0h-.009l.01,0a.2.2,0,0,0,.029-.024c.154-.039.094-.035.084-.049a.979.979,0,0,0,.192-.02.655.655,0,0,1,.215-.016c-.058-.013.038-.038.15-.051s.265-.006.2-.041c.155.062.111.01.2.073a.852.852,0,0,0-.572.074c.053,0,.105,0,.158,0-.089.071-.334.056-.414.1a.428.428,0,0,1,.19-.042l-.047-.033a1.58,1.58,0,0,0-.492.2c.076-.017.021.011-.025.038s-.067.044-.019.044l.1-.042c.017,0,.018.005.01.013.165-.056.329-.108.5-.154h-.006l.01,0,.037-.012a1.057,1.057,0,0,1,.621-.005.194.194,0,0,1,.127.015c.07.023.131.062.107.019.066.087.034.064.16.234.039.054.036.012.008-.051a.864.864,0,0,0-.1-.168c.132.118.13.122.145.118.034.157-.018.267-.092.161a.962.962,0,0,1,.063.154c0,.014.006.026.01.04,0-.044.02.008.037.085l-.015.008a.033.033,0,0,1,0-.01c.089.514-.344.76-.7.9-.614.241-1.317.258-1.929.5s-1.243.417-1.865.63l.011.019.028-.008s.042-.009-.026.011l.026.048.007.031c-.007-.017-.022-.051-.035-.079l-.015,0c.044.1.087.207.131.312-.024-.076-.046-.143-.008-.068l-.049-.107c.023.032.152.338.191.395l.139.345c0-.005,0,0,.01,0s.016.014,0-.02c.038.084.072.156.031.043.166.412.343.827.528,1.235a1.945,1.945,0,0,1,.214.662.493.493,0,0,1-.124.367.654.654,0,0,1-.325.174c-.056.021-.02.022,0,.024-.163.015-.143.063-.23.093a1.786,1.786,0,0,1-.255,0c-.1.023-.021.033-.027.044a.96.96,0,0,1-.1.006A.746.746,0,0,1,93.1,10.648Zm-2.09-2.476.045-.008c.012-.011.024-.021.018-.021A.293.293,0,0,0,91.011,8.172Zm2.231-1,.01.022s0,0,.014-.007l-.009-.019Zm-2.858-.505a1.217,1.217,0,0,1-.218.141c.026,0,.063-.013.105-.023l.044-.023a.571.571,0,0,0,.057-.046l-.025.029a1.019,1.019,0,0,0,.114-.076c0-.006-.021,0-.054.013l-.035.034c.022-.031.036-.052.023-.052Zm2.641-.924c.061-.008.126-.021.2-.038-.019-.007-.045-.018-.041-.032A.9.9,0,0,0,93.025,5.74Zm-.825-.3a1.427,1.427,0,0,0,.181.153.039.039,0,0,0-.008-.031c-.02-.036-.08-.121-.132-.2l-.1-.167a.149.149,0,0,0-.118.046c.053.064.1.121.154.172l.068-.027Zm2.358-.3a1.406,1.406,0,0,0-.39.249c.227-.08.482-.17.776-.268l.089-.031a.3.3,0,0,1-.055.007.772.772,0,0,0,.245-.1l-.161.034a2.764,2.764,0,0,0,.416-.121c-.042-.018.077-.108-.078-.1-.37.078-.259.181-.693.315-.015.009-.006,0-.005-.012s0-.015-.018-.015A.405.405,0,0,0,94.557,5.146Zm3.09-.318a.373.373,0,0,0-.11-.16.25.25,0,0,0-.04-.028A.683.683,0,0,1,97.647,4.828Zm-2.26-.059,0,0C95.319,4.783,95.281,4.791,95.387,4.769Zm2.066-.162h0l-.008,0Zm-.835-.122Zm-5.477-.454.2.291a2.915,2.915,0,0,0,.259.147l-.15-.156-.007-.06a1.217,1.217,0,0,0-.3-.224Zm5.587.342Zm-7.113-.58a.565.565,0,0,1,.043-.154c-.028,0-.054,0-.064-.025A.55.55,0,0,0,89.616,3.793Zm.355-.583a.056.056,0,0,1,.006-.02C89.941,3.212,89.965,3.2,89.971,3.21ZM38.427,10.273a.1.1,0,0,1,.023.01ZM102.4,9.751a1.1,1.1,0,0,1-.171.045l-.023-.055a.317.317,0,0,1-.214-.093.268.268,0,0,1-.17-.134c-.058-.092-.073-.187-.094-.21.055-.086-.028-.206.038-.255a.485.485,0,0,1-.021-.084c-.031.031-.065.041-.048-.019V8.932l.041-.024a1.478,1.478,0,0,1-.011-.163.339.339,0,0,1-.021.061l.021-.073V8.712a.044.044,0,0,1,0,.013.244.244,0,0,0,0-.129c.066-.211-.084-.48.012-.719-.011.036-.015.087,0,.1,0-.2.074-.4.054-.53l-.04.005a1.728,1.728,0,0,1,.023-.393l-.043-.014a1.617,1.617,0,0,0,.032-.164,1.168,1.168,0,0,0,.01-.137c0-.028,0-.03,0-.041a.338.338,0,0,1,.023-.046c-.019.009-.025,0-.039-.012a.094.094,0,0,0-.029-.014.245.245,0,0,0-.068-.007l-.019-.036a.912.912,0,0,0-.269,0,2.333,2.333,0,0,0-.71.006l0-.009-.227.029c.034-.018.014-.008-.023,0a.27.27,0,0,1-.091.012.708.708,0,0,1-.28-.014c-.048,0-.1,0-.153-.006.175-.015-.011-.045-.019-.083-.033.008-.067.014-.1.02-.038-.022.068-.02-.006-.037a.574.574,0,0,1-.175-.017c-.072-.014-.146-.045-.188-.054a.2.2,0,0,0,.059.063c.011,0,.01,0,0,0l.007.006-.009-.006A.239.239,0,0,0,99.42,6.5c-.138-.1-.093-.06-.1-.042a.986.986,0,0,1-.125-.222.293.293,0,0,1-.019-.167c-.016.041-.034-.044-.034-.131s.02-.2-.018-.153c.066-.109.019-.082.076-.146a.616.616,0,0,0,.028.444.6.6,0,0,1,.015-.127.4.4,0,0,1,.043.168.262.262,0,0,0,.072.163.22.22,0,0,1-.075-.15c-.01.014-.019.029-.028.045a.351.351,0,0,0,.172.2.5.5,0,0,0,.2.052c-.053-.024-.017-.02.021-.02s.078-.005.044-.03a.639.639,0,0,1-.082-.014c-.009-.008-.007-.013,0-.016-.191-.062-.319-.2-.3-.516a.716.716,0,0,1,.049-.226c-.012-.015-.006-.057.008-.1s.05-.1.012-.084a.262.262,0,0,1,.073-.038c.023-.009.048-.031.122-.066.046-.027.015-.028-.04-.017a.638.638,0,0,0-.144.063c.1-.1.11-.094.106-.11a.194.194,0,0,1,.147.038c.022.023.015.044-.025.067a.514.514,0,0,1,.15-.021c-.031-.006.01-.016.068-.011l0,.013a.073.073,0,0,1-.018,0,.8.8,0,0,1,.225.053,1.49,1.49,0,0,0,.881,0,2.02,2.02,0,0,1,.617-.059c.3.032.573-.159.509-.6a8.8,8.8,0,0,1-.011-1.212c.014-.085.041-.176.065-.267-.02.058-.038.113-.025.049l-.021.085c0-.03.072-.265.071-.315a.538.538,0,0,0-.008-.267s0,0-.005,0-.007-.013,0,.014c-.012-.038-.022-.072-.025-.079a.976.976,0,0,1-.014-.461.459.459,0,0,1,.126-.228.4.4,0,0,1,.242-.1,1.862,1.862,0,0,1,.507.046.782.782,0,0,1,.44.263c.032.036.021.01.012-.008a.62.62,0,0,0,.068.1.163.163,0,0,1,.049.064.633.633,0,0,1,.016.194c.012.051.018.039.024.028s0-.011.007-.009a1.184,1.184,0,0,1,0,.261,1.028,1.028,0,0,0,.007.217,1.744,1.744,0,0,0,.114.412c0,.09-.045-.011-.023.1.007-.082.036,0,.058.09s.028.189.043.154c-.021.063-.031.174-.051.253s-.034.131-.075.1c-.012.13.034.107.044.072-.009.138.028.262.11.276a.11.11,0,0,0,.084.039.562.562,0,0,0,.207-.019,4.163,4.163,0,0,1,.4-.127c-.1,0,0-.03.08-.085-.032,0-.065,0-.1,0,.066-.029.134-.057.2-.082.041-.02.053-.022.054-.018s.018,0,.023,0,.018.012.068,0a.6.6,0,0,0,.211-.108h-.023l.1-.029c.032-.008-.016.014-.055.036s-.075.052.051.031a.263.263,0,0,1,.193-.08c-.12.021-.1.048-.052.051s.11-.018.166-.028l-.064-.043a6,6,0,0,1,1.063-.051c.139,0,.278,0,.417,0,0,.019.091.019.179.033s.167.041.139.059l-.018-.009c-.126-.02.029.042.124.07-.041-.021-.012-.021.016-.021s.08,0-.065-.054a.934.934,0,0,1,.2.058c.071-.014.213.069.308.232a.582.582,0,0,1,.079.277.89.89,0,0,1-.034.269.067.067,0,0,0,0-.034.571.571,0,0,1-.263.357,1.288,1.288,0,0,1-.25.1l-.028-.01a.792.792,0,0,1-.252.05.907.907,0,0,1-.287-.045h.007c.008,0,.019,0-.012-.011s-.068-.01-.113-.018-.1-.031-.191-.041l.007,0c-.046-.005-.092-.014-.139-.017H106.1c0-.022-.121-.009-.251.018a1.858,1.858,0,0,1-.314.064c-.051.026-.249.1-.335.135,0,0-.007,0-.023,0a2.778,2.778,0,0,1-.42.147c-.076.031-.04.027,0,.022-.156.036-.427.144-.491.138-.12.015-.046-.012-.08-.018-.179.017.033.044-.211.036.029,0,.081-.007.061-.009a.537.537,0,0,1-.172-.037c-.031-.009-.063-.019-.089-.025a.078.078,0,0,0-.058,0,.119.119,0,0,1,.044,0c-.061,0-.105.056-.116.135s-.013.137.008.148l.017-.016a3.737,3.737,0,0,1,.015.4l0,0c.006.124-.021.191.014.252l.005-.043c0,.154,0,.168-.009.324a.337.337,0,0,1,0,.116,1.48,1.48,0,0,1-.018.434c.006-.125-.015-.067-.032-.034a.327.327,0,0,1-.014.224c.044.02.093.048.072.248,0-.032,0-.081-.014-.063a.175.175,0,0,0-.006.083c-.006.009-.01,0-.013-.014s-.008-.023-.018-.014c.029.142-.029.232-.044.429-.005-.064-.024-.013-.045.005.055.027-.1.253-.01.2-.03.092-.057.2-.084.305s-.049.218-.088.332a.792.792,0,0,1-.158.286.4.4,0,0,1-.178.124c-.049.007-.144.09-.219.107l0-.031a.54.54,0,0,1-.178.065l-.21.04C102.53,9.8,102.487,9.786,102.4,9.751Zm.018-.007c.042-.02.084-.042.124-.065-.04,0-.08,0-.122,0A.1.1,0,0,1,102.413,9.744Zm-.407-.1a.04.04,0,0,1-.018,0C102.017,9.67,102,9.652,102.006,9.645Zm-.176-1.468-.029.039a.713.713,0,0,0,.116.267c0-.087,0-.175.006-.262-.046-.084-.091-.161-.122-.2Zm1.724-.445c.007,0,.015-.008.024-.036l0-.037c.011.034.021.055.031.033l0-.2c-.007.019-.019.047-.034.078,0,.012,0,.023,0,.035l.006.054-.008-.026C103.561,7.666,103.557,7.7,103.553,7.732Zm-1.546-.716a1.584,1.584,0,0,0-.149.308.169.169,0,0,0,.116.046c.006-.057.013-.114.022-.17l-.064-.032.067.007c.009-.058.02-.115.032-.172A.041.041,0,0,0,102.007,7.016Zm-1.85-.42c.056.007.085.013,0,0Zm-.024-.172c.025.032-.081.076.031.12a.41.41,0,0,0,.291-.038.636.636,0,0,1,.274-.048c.014-.005,0,.007,0,.018s.015.027.11.014a.866.866,0,0,0,.33-.116c-.23,0-.46.014-.69.022a.21.21,0,0,1,.051.01.473.473,0,0,0-.2.019l.123.018a.585.585,0,0,1-.125-.012.762.762,0,0,0-.126-.012A.522.522,0,0,0,100.132,6.423Zm1.769.042a.582.582,0,0,1,.117.05.256.256,0,0,0-.117-.094C101.909,6.435,101.914,6.457,101.9,6.465Zm-2.479-.95.006-.007v0A.082.082,0,0,0,99.422,5.516Zm.053-.069a.122.122,0,0,0-.016.027.381.381,0,0,1,.149-.094A.229.229,0,0,0,99.475,5.447Zm5.25-1.138c-.016.018-.033.034.034,0ZM92.269,9.5l0,.011S92.27,9.5,92.269,9.5ZM6.189,7.034h0Zm5.254-.282a.021.021,0,0,0,0,.006A.022.022,0,0,1,11.443,6.751ZM8.968,5.142c-.049.006-.1.01-.147.011Zm94.815-1.268a.026.026,0,0,1,0,.008ZM9.737,2.591c0,.01.005.02.007.031C9.742,2.612,9.739,2.6,9.737,2.591Z" transform="translate(272.873 109.358)" fill="#2a4c24" stroke="rgba(42,76,36,0.98)" stroke-linejoin="round" stroke-miterlimit="10" stroke-width="0.5"/>
  </g>
</svg>
