<svg id="button_Button1-3_hover" data-name="button/Button1-3/hover" xmlns="http://www.w3.org/2000/svg" width="96" height="72" viewBox="0 0 96 72">
  <g id="组_31" data-name="组 31" transform="translate(0 0)">
    <path id="路径_55" data-name="路径 55" d="M1045.212,591.492c-3.725,1.883-4.364,1.121-4.494.658-.1.007-.346,1.2-.467,1.181-.581-.07.337-1.228.78-1.271a19.8,19.8,0,0,0,1.725-2.5c.331-.115,1.466.557,2.634.624a32.43,32.43,0,0,0-3.273-5.765c-.115-.163-.226-.943-.343-1.105-2.71.155-2.774,1.976-5.373.986-2.136-.813,2.5-1.663,4.217-2.274-4.109-5.248-8.843-10.121-14.054-13.4.149.678-.771,1.094-1.538,1.319-.052.074.062,1.04-.1,1.117a7.878,7.878,0,0,1-3.624-.416c-1.933-1.5-8.02,3.7-8.37,2.414-.653-2.4,5.25-4.252,8.852-4.087-.06-.071-.714,1.329-.767,1.251-.437-.643,2.133-1.362,3.648-1.2a43.73,43.73,0,0,0-5.572-2.612c-1.314-.157-1.235.46-2.554.474-.819.008-.105-.453.833-.943a42.555,42.555,0,0,0-5.47-1.861,20.541,20.541,0,0,1-6.8-.109c-2.332-.569-.61-1.777,1.737-1.978a49.594,49.594,0,0,0-17.118.156,45.636,45.636,0,0,0-16.363,6.25c1.173,3.055-.095,2.512-1.373,3.487-.687.524-2.765-.744-4.058-.684-5.227,4.44-8.93,11.346-12.1,18.536-2.872,6.513-4.356,13.972-4.848,22.769-.414,7.41,3.455,12.23,10.729,15.445,4.923,2.174,10.984,4.873,17.775,5.311,5.769.373,12.013-1,18.24-1.781a105.892,105.892,0,0,0,18.007-3.591c-.349-.2-.907.01-1-.19-.221-.48,1.182-.783,1.639-.531a68.465,68.465,0,0,0,18.85-9.295c-.242-.207-.045-.148-.247-.539-.271-.527,1.392-1.934,3.133-2.272,4.012-3.445,7.074-6.542,8.378-10.914-.017.011.211.185.193.2-1.16.782-1.8.258-2.105-.112-.138-.165.005.3.224.254.588-.115,1.023-1.32,1.536-1.258a17.606,17.606,0,0,0-.876-11.687C1045.23,591.636,1045.435,591.379,1045.212,591.492Z" transform="translate(-950.953 -561.328)" fill="#fdfee2"/>
    <g id="组_730" data-name="组 730" transform="translate(-252.631 -159.033)">
      <path id="联合_17" data-name="联合 17" d="M11.609,20.57c.113.028.216.052.093.033l.17.031c-.057-.005-.532-.1-.632-.107l-.534-.107c.016.008-.074,0,.012.015-.133-.023-.248-.043-.076-.006-.638-.128-1.286-.262-1.92-.443-.318-.09-.628-.2-.936-.3l-.917-.309c-.083-.023-.038,0-.008.016a1.086,1.086,0,0,0-.344-.082l-.322-.124c-.138-.023-.035.015-.047.02-.316-.075-.628-.145-.927-.2s-.59-.076-.858-.11c-.166-.046.046-.026-.174-.073.146.051-.017.028-.191-.009s-.336-.083-.285-.055c-.1-.052-.283-.114-.427-.177s-.258-.129-.2-.138c-.238-.122-.213-.073-.146-.032-.14-.073-.262-.146-.375-.219a1.533,1.533,0,0,1-.32-.252,1.185,1.185,0,0,1-.156-.283.928.928,0,0,1-.025-.55,1.026,1.026,0,0,1,.292-.484l.091-.078.075-.06c.047-.036.088-.063.115-.084-.077.052-.08.043-.045.011a2.059,2.059,0,0,0,.147-.173c-.04.034-.086.062-.128.093a1.469,1.469,0,0,0,.129-.142,1.271,1.271,0,0,0,.113-.153c.039-.066.051-.084.053-.083.03-.057.008.023.089-.121.023-.061.039-.107.051-.146s.012-.069.015-.1a.893.893,0,0,0,0-.16l-.009.037c0-.028.006-.056.007-.084l0-.084c0-.062.013.047.017.123,0,.038,0,.068.009.062a.107.107,0,0,0,.011-.039.408.408,0,0,0,.01-.113c-.007,0-.011-.067-.036-.139s-.047-.156-.052-.213a1.054,1.054,0,0,0,.052.154c.006.009.014-.019.007-.059s-.025-.1-.044-.145-.039-.094-.061-.14c0,.036,0,.073.006.107a1.754,1.754,0,0,0-.371-.538l-.255-.246c-.045-.04-.085-.088-.127-.133a1.4,1.4,0,0,1-.121-.141,1.463,1.463,0,0,1-.325-.688A1.341,1.341,0,0,1,1.92,12.4a2.469,2.469,0,0,0,.174-.292c.087-.142.174-.272.166-.225l-.023.03c-.127.208.068-.042.158-.217-.045.073-.027.025-.01-.024.024-.067.047-.133-.092.116a2.694,2.694,0,0,0,.156-.347.981.981,0,0,1,.081-.25c.022-.052.047-.11.068-.17a.494.494,0,0,0,.034-.181c0-.112-.131-.2-.281-.241-.074-.024-.149-.035-.233-.057a1.336,1.336,0,0,1-.227-.081.231.231,0,0,0,.057.019,2.176,2.176,0,0,1-.658-.472c-.176-.169-.314-.3-.363-.336L.9,9.637C.812,9.568.738,9.528.675,9.474a1.743,1.743,0,0,1-.151-.151A1.393,1.393,0,0,0,.369,9.17.6.6,0,0,0,.252,9.1.521.521,0,0,1,.1,8.989c.007,0,.055.05-.006-.018A.318.318,0,0,1,0,8.75a.808.808,0,0,1,.123-.4l-.006.016a.259.259,0,0,1,.118-.111A.284.284,0,0,1,.4,8.241a1.048,1.048,0,0,1,.277.1c-.008.012.215.115.448.248a4.643,4.643,0,0,1,.541.344c.1.054.453.273.617.357a.21.21,0,0,0,.036.025L2.7,9.5a3.055,3.055,0,0,0,.411.163c.153.045.089.018.024-.008a1.436,1.436,0,0,1,.515.269,1.1,1.1,0,0,1,.261.345c.064.138.056.134.047.13s-.01-.005,0,.017c.064.16.064.145.07.143s.006,0,.018.033a.516.516,0,0,1,.023.073.594.594,0,0,1,.018.117c-.007-.059-.027-.128-.021-.093a.5.5,0,0,1-.051.35c-.058.115-.138.207-.179.284l.067-.093c-.04.069-.089.141-.127.215a.7.7,0,0,0-.046.113c-.012.037-.016.077-.028.118-.054.153-.137.246-.137.277l.028-.018a2.406,2.406,0,0,0-.22.322l-.052.1a1.409,1.409,0,0,0-.1.253v-.007a.563.563,0,0,0,.047.458l-.026-.075a.963.963,0,0,0,.142.263,1.67,1.67,0,0,0,.208.229c.028.021.141.113.172.142a.333.333,0,0,1,.1.066l.1.083a.945.945,0,0,1,.1.114.691.691,0,0,1,.083.128.929.929,0,0,1,.065.127c.031.083.062.148.069.183-.093-.234-.062-.117-.044-.049a1.014,1.014,0,0,1,.116.433c.018.012.038.027.059.089a.971.971,0,0,1,.031.136c.006.061.013.14.014.241,0-.063-.013-.162-.018-.121s0,.135,0,.167-.007,0-.01-.023-.007-.044-.014-.021c.006.068.008.132.008.2s-.011.125-.019.191c-.02.132-.051.277-.1.471.018-.126-.014-.022-.039.017a.585.585,0,0,1-.083.249c-.052.1-.093.181-.037.124-.02.044-.05.086-.075.132a.969.969,0,0,1-.088.134c-.065.094-.134.171-.195.256a1.23,1.23,0,0,0-.081.129.54.54,0,0,0-.027.062.16.16,0,0,0-.009.047.1.1,0,0,0,.04.08.445.445,0,0,0,.113.057,4.5,4.5,0,0,0,.534.131c.157.033.28.061.35.083a3.049,3.049,0,0,0,.414.057l-.022.019c.367.019.282.03.715.059-.181,0-.109.022.064.073l.3,0,.05.045a2.138,2.138,0,0,1,.38.074,5.489,5.489,0,0,1,.656.1c.114.083.347.093.425.17.044.008.1.023.159.041-.052-.044-.066-.076.044-.022l.027.009.039.046c.115.042.237.09.307.12-.032-.016-.067-.038-.107-.062l.128.071.039.017L8.3,18.354a.937.937,0,0,0,.232.095c.373.2.9.227,1.333.4a.723.723,0,0,0-.19-.045c.377.09.748.216.994.249l-.011-.032c.283.051.5.1.729.158l.021-.028c.082.026.188.053.3.087a1.851,1.851,0,0,0,.326.073,2.533,2.533,0,0,0,.324.013,1.258,1.258,0,0,1,.2.008,1.774,1.774,0,0,1,.266-.059,3.22,3.22,0,0,0,.35-.086l.053.011a5.352,5.352,0,0,0,.526-.16,12.192,12.192,0,0,0,1.354-.4l.006.006.423-.148c-.105.055.08-.04.21-.074a3.812,3.812,0,0,1,.52-.152l.273-.084c-.194.071-.122.06-.041.05a.265.265,0,0,1,.1,0l.168-.075c.031,0,.017.005,0,.015s-.049.025.025.006c.112-.05.457-.157.557-.216a.623.623,0,0,0-.116.017c-.014.006-.013.006,0,0l-.013,0,.015,0a.437.437,0,0,0,.045-.025c.219-.061.136-.047.124-.056.246-.035.375-.1.56-.116-.078,0,.051-.036.19-.078l.214-.066c.058-.015.083-.026.033-.028.112,0,.149,0,.176,0a.286.286,0,0,1,.114.015.917.917,0,0,0-.429.072l-.334.135.211-.04a4.231,4.231,0,0,1-.58.178,1.222,1.222,0,0,1,.272-.076l-.062-.015a5.328,5.328,0,0,0-.721.258c.108-.027.031,0-.038.033s-.111.051-.042.042l.152-.053c.022,0,.023,0,.014.007l.737-.231-.022.006.057-.017.44-.138a1,1,0,0,1,.466-.028.414.414,0,0,1,.178.013c.1.021.188.061.138.02a.661.661,0,0,1,.112.083c.017.014.039.028.069.055a.615.615,0,0,1,.119.126c.055.086.041.024-.015-.062a.812.812,0,0,0-.2-.188,1.051,1.051,0,0,1,.182.116c.027.021.031.02.037.019a.312.312,0,0,1,.055.244c-.007.02-.017.024-.029.012a.6.6,0,0,1-.041-.067.414.414,0,0,1,.014.289c.009-.025.011-.027.009-.011a.456.456,0,0,1-.048.137l-.014,0c0-.006.006-.013.009-.02a.889.889,0,0,1-.1.159A1.1,1.1,0,0,1,18.7,19a37.359,37.359,0,0,0-4.083,1.227,9.715,9.715,0,0,1-2.487.449C11.959,20.64,11.785,20.6,11.609,20.57Zm.906-1.051c.094-.012.188-.029.28-.049-.026,0-.061-.007-.052-.019C12.671,19.471,12.59,19.5,12.515,19.519ZM11.2,19.307c.112.029.223.059.335.092a.079.079,0,0,0-.031-.024c-.1-.058-.564-.222-.6-.231a.087.087,0,0,0-.081.071q.165.039.329.081l.053-.038Zm3.6-.5a4.1,4.1,0,0,0-.6.263q.638-.193,1.275-.392c-.033.008-.06.014-.079.017a2.357,2.357,0,0,0,.366-.125l-.233.057c.185-.059.342-.074.611-.172-.053-.008.136-.1-.082-.067-.536.128-.412.194-1.046.382-.021.009-.009,0,0-.007s.005-.011-.009-.011A.87.87,0,0,0,14.8,18.8Zm-5.614.011c.169.012.32.016.406.013-.1-.017-.2-.037-.307-.057l-.069-.041a4.571,4.571,0,0,0-.523-.073Q8.942,18.745,9.19,18.816Zm6.868-.469.007,0C15.959,18.371,15.9,18.383,16.059,18.347Zm3.13-.463a.574.574,0,0,1,.192.172.475.475,0,0,0-.194-.179.625.625,0,0,0-.073-.031C19.14,17.858,19.165,17.87,19.189,17.884Zm-1.357,0ZM6.585,17.877a.068.068,0,0,1,.021-.006l-.029,0C6.569,17.867,6.584,17.873,6.585,17.877Zm12.463-.061h0l-.025-.008ZM5.6,17.758l.238.04c-.011-.022-.017-.042.006-.051ZM2.9,15.99c-.016.035-.025.073.034-.049A.367.367,0,0,1,2.9,15.99Zm1.4-1.262c.006,0,.007-.02,0-.078-.006-.019-.013-.044-.02-.069.022.061.04.1.035.051a2.053,2.053,0,0,0-.117-.376.881.881,0,0,1,.032.154c.008.029.017.057.025.087s.018.058.025.085c-.006-.014-.011-.028-.016-.043C4.274,14.6,4.286,14.664,4.294,14.728Zm64.221,5.329a.37.37,0,0,1-.092-.033c-.017-.009-.022-.013-.021-.014-.036-.021-.028-.025-.033-.035s-.029-.028-.083-.11a.442.442,0,0,1-.045-.088.366.366,0,0,1-.025-.07.926.926,0,0,1-.026-.1.523.523,0,0,1-.016-.08.431.431,0,0,1-.006-.1l-.009.044a.749.749,0,0,1,.037-.193c.025-.068-.016.054-.016.141,0,.043,0,.075.008.069s.009-.053.041-.159a.438.438,0,0,1,.032-.151.486.486,0,0,1,.136-.195.365.365,0,0,0-.1.145c0,.012.021-.008.049-.038a.911.911,0,0,1,.219-.214.862.862,0,0,0-.1.033.922.922,0,0,1,.3-.175c.059-.02.1-.032.153-.047l.147-.042.595-.18c.4-.124.806-.255,1.222-.377a1.31,1.31,0,0,0,.286-.064c.141-.035.274-.065.241-.037l-.033,0c-.2.058.066.011.234-.03-.075.012-.033-.005.009-.022.059-.024.119-.047-.131.006.109-.03.218-.063.329-.088a1.737,1.737,0,0,1,.582-.113c.134-.014.28-.016.423-.022h.121a1.589,1.589,0,0,0,.281-.015.274.274,0,0,0-.044.012.372.372,0,0,0,.142-.044.139.139,0,0,0,.067-.105,1.071,1.071,0,0,0-.049-.317,1.591,1.591,0,0,1-.032-.283.8.8,0,0,1,.016-.165l.022-.039c.027-.1.059-.166.075-.229a1.238,1.238,0,0,0,.035-.172,3.072,3.072,0,0,0,.02-.471c0,.006.006.059.006-.014-.011-.111-.022-.223-.04-.54l0,.013-.035-.5a3.255,3.255,0,0,0-.016-.445.37.37,0,0,0-.035-.154c-.022-.04-.064-.043-.11-.034-.091.02-.171.054-.209.056a3.87,3.87,0,0,1-.613.137.144.144,0,0,0-.038,0,7.235,7.235,0,0,1-.762.08c-.137.015-.078.016-.017.016-.274.011-.754.065-.855.062-.2.005-.075-.011-.131-.017-.3.008.051.034-.351.022.047,0,.133,0,.1-.006-.153,0-.426-.051-.578-.064l.1.018a1.138,1.138,0,0,1-.432-.105c-.126-.06-.2-.136-.232-.141l.012.028a.609.609,0,0,1-.152-.205.736.736,0,0,1-.037-.1.51.51,0,0,1-.02-.107.483.483,0,0,1,.052-.257v.008a.358.358,0,0,1,.209-.172c.068-.023.123-.035.175-.054l-.05,0a2.2,2.2,0,0,1,.537,0,3.11,3.11,0,0,0,.522-.036l.407-.033c-.209.026-.109.026-.048.031a1.353,1.353,0,0,1,.38-.051c.02-.039.05-.077.386-.129-.051.013-.132.028-.1.03a.65.65,0,0,0,.138-.024c.034,0-.073.024-.033.031.222-.068.392-.061.717-.133-.1.03-.012.021.028.028.018-.046.453-.049.318-.081.081-.012.165-.028.253-.045l.131-.03a.176.176,0,0,0,.073-.031.075.075,0,0,0,.016-.074c0-.02-.017-.085-.022-.13-.013-.1-.021-.194-.026-.288-.009-.186-.009-.357-.009-.5,0-.07,0-.129,0-.191a.5.5,0,0,1,.031-.14,1.684,1.684,0,0,1,.07-.173.424.424,0,0,1,.158-.172l-.005.028a.473.473,0,0,1,.189-.088.666.666,0,0,1,.123-.014.9.9,0,0,1,.137,0,.7.7,0,0,1,.242.068c-.091-.037-.119-.03-.1-.016a1.276,1.276,0,0,1,.132.112.55.55,0,0,1,.2.22.483.483,0,0,1-.017.065,1.162,1.162,0,0,1,.054.345,1.488,1.488,0,0,1,.063.26.707.707,0,0,0,.085.257.17.17,0,0,0,.064.141c.03.025.058.026.085.049a.843.843,0,0,0,.1-.036c-.05-.01-.071-.029.013-.042l.02-.008a.471.471,0,0,0,.049.014,2.8,2.8,0,0,1,.268-.112l-.113.024c.046-.013.09-.023.135-.031l.041-.012-.024.009a2.4,2.4,0,0,1,.261-.039c.028,0,.059.01.088.015l.012,0h.027a.7.7,0,0,0,.129-.025c.093-.025.19-.061.287-.1a2.9,2.9,0,0,1,.6-.179.526.526,0,0,0-.164.052c.328-.1.664-.16.886-.222l-.021-.026a1.054,1.054,0,0,1,.151-.025.369.369,0,0,1,.193.033,1.5,1.5,0,0,1,.394.191l.035-.014a.482.482,0,0,1,.155.4.766.766,0,0,1-.137.393.835.835,0,0,1-.285.251.877.877,0,0,1-.136.059l-.059.016-.061.012a.185.185,0,0,1-.06,0l-.028.006h-.012l-.006,0-.012,0-.027.006-.141.027a2.826,2.826,0,0,0-.307.073l-.047-.014a3.992,3.992,0,0,0-.459.139,12.113,12.113,0,0,0-1.19.336l-.006-.006-.339.1c.034-.028-.029.017-.047.021v.006a.174.174,0,0,1,.011.03.051.051,0,0,1,0,.015l.005.035a2.266,2.266,0,0,1,.017.251c.008.085.016.169.022.254-.039-.28-.031.023-.057.04l.03.16c0,.029-.01.011-.015-.006s-.011-.044-.011.023c.021.107.024.426.045.526a.484.484,0,0,0,.02-.1c0-.014,0-.013,0,0v0c0,.013.006.035.009.044-.01.2,0,.129.013.121a3.58,3.58,0,0,1-.1.5c.028-.062.011.058-.013.184s-.054.281-.018.216c-.062.155-.02.109-.064.208a6.3,6.3,0,0,0,.066-.654c-.016.062-.033.123-.052.183-.017-.123.071-.407.063-.526a.835.835,0,0,1-.027.241l.037-.044a2.513,2.513,0,0,0-.009-.675c0,.093-.011.03-.02-.033s-.018-.116-.029-.053l.008.141c0,.022-.008.02-.012.005,0,.043,0,.086,0,.13a4.7,4.7,0,0,1-.1,1l.025-.111.008.074-.033.041a3.348,3.348,0,0,0-.045.377.608.608,0,0,1,.021.152c.008.086.015.165.028.113a.936.936,0,0,0-.009.323c.015.076.017.028.018-.045s.01-.178.015-.211c.01.188.021.183.028.189a.878.878,0,0,1-.043.174c-.015.028-.035.019-.054-.062a.637.637,0,0,0,.083.268c-.018-.032-.016-.04-.008-.026a.459.459,0,0,0,.079.092v.011a.677.677,0,0,0,.485.083,23.526,23.526,0,0,1,4.143.179c.419.079.7.273.667.661-.03.412-.473.381-.77.39l-.607-.017c.09.007.393.017.227.018l.15,0c-.025,0-.145,0-.268,0s-.247,0-.291,0l-.475-.013c.015,0-.064,0,.013.005-.118,0-.22,0-.066,0-.568-.014-1.143-.023-1.716-.028s-1.145,0-1.7-.02c-.076,0-.033.007,0,.011a1.307,1.307,0,0,0-.309.009l-.3-.028c-.123.007-.027.016-.036.021a4.518,4.518,0,0,0-1.543.244c-.065.012-.067.005-.065,0s.006-.016-.1.01c.132-.016,0,.027-.151.07s-.289.077-.238.078a3.622,3.622,0,0,0-.393.057c-.135.026-.238.049-.207.006-.223.059-.174.082-.109.067a4.244,4.244,0,0,0-.658.248c-.073.017-.359.132-.672.222a3.271,3.271,0,0,1-.461.1,1.973,1.973,0,0,1-.313.011c.164.013-.005.024-.171.053.052.008.1.012.152.016a1.84,1.84,0,0,1-.211.016A.772.772,0,0,1,68.515,20.057Zm-.071-.037a.1.1,0,0,0,.043.006.588.588,0,0,1-.1-.049A.456.456,0,0,0,68.443,20.02Zm6.094-2.92c0,.054.005.1.009.149,0-.119,0-.247-.011-.326C74.536,16.978,74.537,17.036,74.538,17.1Zm0-.24h0c0-.013,0-.026,0-.039C74.538,16.835,74.537,16.848,74.537,16.86Zm.13-2.617c.021.024.045.048.049-.074-.007-.078-.007-.094-.011-.12a.374.374,0,0,0-.015-.066c.038-.018.068-.038.138-.07a3.178,3.178,0,0,1,.409-.131c.018-.008.008,0,0,.008s0,.027.184-.033a2.848,2.848,0,0,0,.529-.237c-.424.125-.847.25-1.136.321.035-.006.063-.011.081-.012a2.6,2.6,0,0,0-.311.08c.069-.007.134-.015.2-.025-.061.017-.126.02-.191.032.008.078.018.174.045.316,0-.006.005-.008.008-.008S74.658,14.234,74.667,14.243Zm.082-.146c0,.014,0,.037,0,.072l0,.007c0-.039-.006-.075-.007-.083Zm0-.006h0Zm-3.61-.729q-.168.027-.337.051c.033,0,.081,0,.137,0l.071-.008.083-.017-.04.013.169-.019c0-.005-.02-.008-.068-.007l-.061.014c.054-.017.086-.031.047-.031Zm6.192-.116h0v0h0v0h0Zm.049-.1a.416.416,0,0,1-.062.005c-.037.006-.084.015-.137.027.023,0,.054.008.046.019.026-.006.054-.015.081-.024s.06-.007.086-.025l.033-.02Zm-1.839-.518a4.384,4.384,0,0,0,.44-.115c.128-.074.241-.146.3-.19l-.254.1h-.071A4.324,4.324,0,0,0,75.541,12.628Zm-.094-.068v0c0-.008,0-.017.005-.026C75.45,12.542,75.448,12.553,75.447,12.561Zm2.265-.282a.315.315,0,0,1,.2.213.071.071,0,0,0,.006-.035.23.23,0,0,0-.051-.117.511.511,0,0,0-.14-.118c-.052-.032-.1-.059-.143-.081a.81.81,0,0,1-.077-.048l-.021-.011a.072.072,0,0,0-.084.068.126.126,0,0,1,.049.012,2.377,2.377,0,0,0,.225.1c.018-.01.036-.021.054-.03ZM74.283,12a.068.068,0,0,1,.012.018c0-.023,0-.03-.005-.03S74.287,11.994,74.283,12ZM74,11.414c0-.024,0-.046.029-.045a.542.542,0,0,0-.219-.043A.519.519,0,0,1,74,11.414Zm-2.252,7.874h0ZM52.111,19.23a1.078,1.078,0,0,1-.253-.067.549.549,0,0,1-.124-.071.332.332,0,0,1-.1-.125.465.465,0,0,1-.011-.29,2.05,2.05,0,0,1,.083-.25,8.126,8.126,0,0,1,.446-.878,1.1,1.1,0,0,0-.053.107,7.538,7.538,0,0,0,.376-.744c.055-.127.086-.26.141-.392s.1-.248.028-.323c-.054-.083-.169-.018-.271.024a.621.621,0,0,1-.162.041l-.141.023c-.177.028-.306.048-.368.06l-.1,0c-.455.084-.707.14-.978.211-.068.018-.136.037-.209.058a1.433,1.433,0,0,1-.248.059.914.914,0,0,1-.31-.015.7.7,0,0,1-.341-.181c.012.009.113.1-.019-.03a.561.561,0,0,1-.116-.184A.406.406,0,0,1,49.376,16a.554.554,0,0,1,.232-.279,1.949,1.949,0,0,1,.444-.21l-.028.013a7.13,7.13,0,0,1,1.146-.313,2.351,2.351,0,0,0,.315-.051c.192-.036.452-.084.722-.141s.546-.128.776-.2a.641.641,0,0,0,.275-.121.722.722,0,0,0,.107-.163,5.827,5.827,0,0,1,.34-.595,3.219,3.219,0,0,0,.2-.382,1.771,1.771,0,0,0,.107-.336.427.427,0,0,0,.019-.086c0-.026.006-.061.007-.083v-.023s0-.009,0-.011h-.093l-.112-.005c-.152-.008-.316-.023-.48-.018a1.294,1.294,0,0,0-.468.1,2.361,2.361,0,0,1-.416.135c-.164.035-.214.031-.2.035a.827.827,0,0,0,.16-.012,1.1,1.1,0,0,1-.573-.041,1.078,1.078,0,0,1-.49-.4l-.082-.126a.5.5,0,0,0-.075-.1.249.249,0,0,0-.088-.059.214.214,0,0,0-.04-.011h-.017c-.007,0-.008.005-.008.013l0,.02-.018.09a.679.679,0,0,1-.049.131.586.586,0,0,1-.154.2c-.037.026-.049.032-.05.031s.031-.033-.029,0a.878.878,0,0,1-.29.112c-.037.009-.03.011-.03.014s-.008.008-.078.015a3.958,3.958,0,0,1-.436,0h.15c.076,0,.132,0,.084,0-.358-.017-1.006-.035-1.367-.016h.239a9.633,9.633,0,0,1-1.044-.006c-.322-.021-.571-.064-.626-.057l.06.023c-.283-.044-.451-.1-.562-.113a.531.531,0,0,0-.223.008.243.243,0,0,0-.161.125.422.422,0,0,0-.041.2,2.309,2.309,0,0,0,.046.345l-.005-.014a3.267,3.267,0,0,1,.05.336.367.367,0,0,1,0,.082.105.105,0,0,1-.039.071.2.2,0,0,0-.04.1,1.521,1.521,0,0,0,0,.408c0-.057,0-.115,0-.172,0,.308.02.479.03.649s.026.343.051.659c.009.074.039.38.039.469a1.613,1.613,0,0,1,.029.246,2.723,2.723,0,0,1,.008.549.618.618,0,0,1-.126.308.607.607,0,0,1-.258.179.925.925,0,0,1-.415.056.63.63,0,0,0,.17,0,.548.548,0,0,0,.1-.02c.047-.012.06-.017.052-.018s-.037,0-.074.009a.978.978,0,0,1-.116.009.482.482,0,0,1-.423-.125.832.832,0,0,1-.207-.48.387.387,0,0,1-.079-.189A3.818,3.818,0,0,1,45.157,16c.007.126.017.324.021.243s-.007-.273-.011-.336c0-.04.007,0,.012.046s.01.088.016.042c-.021-.273-.032-.508-.035-.776s0-.568-.018-.96c.018.249.02.034.03-.056a3.569,3.569,0,0,1-.04-.522c-.013-.224-.026-.4-.039-.252-.03-.389-.083-.828-.118-1.285,0-.057-.008-.115-.01-.174,0-.03,0-.059,0-.089v-.042a.144.144,0,0,0,0-.028c-.009-.045-.026-.106-.04-.16l-.026-.1c-.016-.063-.031-.126-.046-.188l-.022-.093-.011-.046L44.81,11.2c0-.008,0-.02-.006-.007-.026.121-.056.234-.089.342-.027.092-.1.306-.156.454a5.726,5.726,0,0,1-.306.683c-.081.141-.26.543-.381.78l0-.042c-.15.345-.2.48-.254.633a5.306,5.306,0,0,0-.2.756c.068-.366.023-.219-.1.135a3.941,3.941,0,0,1-.194.594l-.087.091a3.581,3.581,0,0,1-.19.35,3.348,3.348,0,0,1-.234.346.737.737,0,0,1-.14.173.654.654,0,0,1-.2.129.625.625,0,0,1-.266.047.948.948,0,0,1-.259-.048.536.536,0,0,1-.225-.141.46.46,0,0,1-.1-.2.879.879,0,0,1-.019-.128c.027-.164.072-.339.117-.514a1.471,1.471,0,0,1,.163-.419,3.35,3.35,0,0,1,.118-.317c-.076.112-.119.147,0-.077l.025-.053.074-.085c.108-.23.225-.458.3-.607-.037.066-.083.141-.131.219.054-.093.1-.179.153-.262l.042-.079L42.235,14a3.445,3.445,0,0,0,.229-.47l.068-.138.035-.074.008-.019s.008-.021,0-.009l-.018.037-.009.019-.005.009,0,0v0h0v-.02c.006-.023.006-.019.008-.027l0-.012.009-.023.017-.043c.092-.225.177-.45.259-.686.158-.448.31-.914.5-1.342a2.366,2.366,0,0,0-.118.325c.138-.381.3-.76.455-1.092a7.493,7.493,0,0,0,.315-.89l-.04.025a3.794,3.794,0,0,1,.33-.776,2.7,2.7,0,0,0,.338-.568l-.03-.023a.847.847,0,0,0,0-.235l-.016-.167c0-.043-.006-.087-.009-.133,0-.015-.007-.034-.026-.03l-.012,0h-.006l-.023,0-.148.01-.569.035c-.177.013-.339.028-.474.045s-.248.035-.335.039a1.079,1.079,0,0,1-.247.047.828.828,0,0,1-.456-.082.777.777,0,0,1-.211-.159,1.274,1.274,0,0,1-.151-.189.5.5,0,0,1-.085-.279.552.552,0,0,1,.061-.239c.027-.032.054-.061.081-.089a1.122,1.122,0,0,1,1.171-.466,1.068,1.068,0,0,0,.672-.036,2.551,2.551,0,0,1,.761-.177.714.714,0,0,1,.114.006.04.04,0,0,0,.051-.039.465.465,0,0,0,0-.073l-.005-.178c0-.239,0-.472,0-.7l.007-.008c0-.31.006-.619,0-.925.02.241-.011-.182-.013-.456-.016-.291-.044-.759-.089-1.1a1.163,1.163,0,0,1,.065-.666c-.167.739.016-.058.095-.06a1.214,1.214,0,0,1,.233-.339c.057-.046.029-.012,0,.022s-.076.084.047-.028a1.179,1.179,0,0,1,.094-.082.436.436,0,0,1,.172-.083.386.386,0,0,1,.226.024.737.737,0,0,1,.181.11l.279.236a.435.435,0,0,1,.11.165.538.538,0,0,1,.027.147.376.376,0,0,0,0-.127.432.432,0,0,0-.1-.193c-.031-.03-.03-.027-.008-.01l-.025-.025.03.03c.016.017.036.038.053.061s.032.046.04.061a.466.466,0,0,1,.035.215.892.892,0,0,1-.016.119c-.011.055-.016.076-.016.083s.017-.031.025-.039c-.021.069-.04.124-.049.167a.288.288,0,0,0-.007.056c0,.017,0,.054,0,.08.007.111.015.212.021.31a4.32,4.32,0,0,1,0,.5c.014-.128.024.146.025.44,0,.334-.007.693.02.52-.045.4-.007.273-.043.527a14.042,14.042,0,0,0-.042-1.572c0,.149-.007.3-.013.445a5.963,5.963,0,0,1-.03-.64c0-.213-.017-.43-.032-.563.011.083.025.2.029.3a2.143,2.143,0,0,1,.005.23l.025-.116c-.006-.158-.021-.312-.037-.452a3.893,3.893,0,0,1,.056-.39.387.387,0,0,0-.057-.227.6.6,0,0,0-.146-.144,2.692,2.692,0,0,0-.281-.218c.092.067.1.086.082.072a.98.98,0,0,0-.147-.088.318.318,0,0,0-.2-.026c-.02.006-.03.012-.024.013h.013a.509.509,0,0,1,.051,0,.5.5,0,0,1,.3.142c.032.033.032.037.013.025.064.056.124.116.185.165.261.209.037.461.064.69.024.2.039.4.05.6,0-.011,0-.022,0-.033,0,.02,0,.04,0,.061.036.664.015,1.33.011,2a3.132,3.132,0,0,1,.03.358c.007.1.012.2.021.254s.017.067.018.01a.485.485,0,0,0,.02.138.148.148,0,0,0,.046.072.2.2,0,0,0,.137.034,2.568,2.568,0,0,0,.322-.049c.185-.039.071-.029-.109-.007a1,1,0,0,1-.27.015.109.109,0,0,1-.094-.079c.032.063.076.063.128.064a.554.554,0,0,0,.116-.017c.056-.014.059-.018.065-.024.376-.023.662,0,.258.078l.647-.107c-.155.021.016-.016.254-.053l.018.009-.041.006a.612.612,0,0,1,.77.492c.116.487-.324.519-.575.56a6.256,6.256,0,0,1-1.531.287c-.36-.03-.374.252-.338.466.247,1.491-.074,2.364.28,3.807,0-.028-.005-.053-.006-.073s0-.029,0-.062c.006.061.01.109.013.153s.026.11.042.167a.546.546,0,0,0,.035.1s.008,0,.009.007l-.009-.006h0c.009.017.015.015.018,0l0,0,0,0a.633.633,0,0,0,0-.126l.012.022a.083.083,0,0,1,0-.012l-.01-.04c0,.01,0,.02,0,.03a1.825,1.825,0,0,1-.113-.64c-.022-.118-.034-.171-.024-.143a.67.67,0,0,1-.024-.191c.012.108.029.214.047.32,0-.035-.005-.073-.007-.111,0-.016-.005-.032-.008-.048-.008-.134-.013-.215-.005-.174-.025-.417.09.395.126.85a.719.719,0,0,0,.06.153A.5.5,0,0,1,46.3,11.5l0,.011c.015.06.027.114.039.153.15.208.46.236,1.157.276,1.009.057,2.024.025,3.036.049.187,0,.353.1.516.387l.02,0-.022-.041a.233.233,0,0,1-.02-.034l.018.028c.007.011.016.027.027.048h0l-.025-.147-.011-.095.037.242.012,0q-.075-.527-.164-1.022c.04.247.076.484.026.223l.061.352c-.013-.069-.061-.335-.113-.62s-.12-.581-.147-.681q-.12-.55-.271-1.093c0,.013-.005,0-.012-.02s-.023-.055.008.054c-.073-.25-.145-.467-.07-.209q-.134-.453-.3-.9a.924.924,0,0,1-.04-.523,2.335,2.335,0,0,1,.188-.483,1.648,1.648,0,0,1,.286-.436,1.571,1.571,0,0,1,.419-.312c.309-.162.643-.246.95-.383a16.8,16.8,0,0,1,3.857-1.24c.095-.013.115-.009.1-.015a.224.224,0,0,0-.065,0,1.169,1.169,0,0,1,.141,0l.069.005.059.011c.074.013.127.02.172.032s.085.017.129.028.092.03.157.057a2.362,2.362,0,0,1,.588.445c.148.135.126.1.1.067-.012-.016-.023-.033-.016-.03a2.162,2.162,0,0,1,.556.88,2.026,2.026,0,0,1,.08.506l.028.484c.031.637.041,1.243.041,1.795-.012.163-.02.156-.026.148s-.015-.018-.027.229c.033-.313.031.024.009.39a4.859,4.859,0,0,0-.036.6c-.047.228-.1.614-.166.925-.036.165-.065.306-.1.4s-.06.125-.058.07a.663.663,0,0,1-.168.267c-.053.048-.087.066-.1.078s.05,0,.122-.056a.512.512,0,0,1-.239.118.723.723,0,0,1-.247,0,1.648,1.648,0,0,1-.217-.053.674.674,0,0,0-.189-.027,1.605,1.605,0,0,0-.712.253c-.03.011-.074.032-.136.053a1.049,1.049,0,0,1-.1.035.547.547,0,0,1-.061.016l-.04.008c-.027.005-.071,0-.08.039-.009.017,0,.034.006.052a.317.317,0,0,1,.017.058.879.879,0,0,1-.018.456,2.036,2.036,0,0,1-.2.432l-.115.2c-.018.033-.037.067-.053.1l-.02.041c-.006.01-.009.021-.015.032a.669.669,0,0,0-.042.13l-.008.033c0,.005.008,0,.016,0l.012,0,.065-.011.134-.021.2-.028c.228-.032.418-.05.54-.055-.334.012.07-.029.432-.08-.113,0-.227,0-.341.005q.422-.049.847-.075l.175-.011a.156.156,0,0,1,.045,0,.174.174,0,0,1,.084.007,1.465,1.465,0,0,0,.248.008c.578-.008.606-.017.925-.023l-.088-.008.392.015c.285.012-1.018-.013-.084.043a.653.653,0,0,1,.1-.006,1.205,1.205,0,0,1,.238.021.953.953,0,0,1,.275.1.509.509,0,0,1,.2.194.582.582,0,0,0-.24-.2.472.472,0,0,0-.1-.041c-.025,0,.032.027.113.076a.513.513,0,0,1,.253.285.81.81,0,0,1,.022.369A.851.851,0,0,0,59.4,14.7a.711.711,0,0,1-.062.419.575.575,0,0,1-.347.265,1.754,1.754,0,0,1-.383.08.709.709,0,0,1-.106,0l-.092-.008c-.059,0-.119-.011-.179-.013a7.767,7.767,0,0,0-1.455.094c-.491.068-.987.156-1.495.2-.253.027-.518.012-.749.055a.7.7,0,0,0-.54.4.476.476,0,0,0-.085.184c-.042.121-.078.293-.132.461-.016.042-.031.083-.048.123s-.038.08-.057.112l-.1.176c-.054.1-.084.147-.072.1l.039-.068c.231-.445-.1.111-.265.487.082-.16.042-.061,0,.039-.054.138-.109.275.153-.267-.112.243-.218.49-.333.733a2.964,2.964,0,0,1-.235.5,1.1,1.1,0,0,1-.267.331.636.636,0,0,1-.4.142A.571.571,0,0,1,52.111,19.23Zm-6.75-2.108a.654.654,0,0,0,.234.343.545.545,0,0,0,.4.067.562.562,0,0,1-.3-.038.431.431,0,0,1-.186-.136.653.653,0,0,1-.09-.134.64.64,0,0,0,.046.071,1.1,1.1,0,0,1-.126-.369c-.006,0,0,.048.022.16a1.013,1.013,0,0,0,.057.138c-.044-.081-.069-.145-.073-.145S45.355,17.091,45.361,17.121Zm-2.73-.854a.279.279,0,0,1-.021.043.344.344,0,0,0,.043-.061S42.636,16.266,42.631,16.268Zm.7-1.4c.031-.168.055-.335.085-.5-.051.176-.086.328-.136.493a.078.078,0,0,1,.037-.02C43.324,14.836,43.329,14.844,43.329,14.866Zm13.75-.748h-.134C56.863,14.13,56.779,14.14,57.079,14.118ZM42.683,13.37Zm0,0h0Zm0,0h0Zm0,0h0Zm-.027,0h0a.592.592,0,0,0,.032-.05c.016-.04.043-.1.085-.2.088-.208.17-.417.251-.628.088-.331.157-.629.2-.8l-.2.618-.076.145c-.068.2-.131.4-.189.581-.029.093-.057.183-.083.271a.293.293,0,0,0-.014.064Zm.07-.11,0-.005.018-.03,0,0c0-.01.005-.015,0-.015A.492.492,0,0,0,42.722,13.255Zm8.361-.869.012.02h0c0-.007,0-.014,0-.021l-.012,0Zm0,.019h0l-.006-.011Zm-.016,0,.015,0,0-.014-.005-.008-.02,0Zm1.456-.448.037.015.02,0,.021-.009-.009.009.043,0c0-.006,0-.011-.017-.013l-.017.008c.014-.013.022-.023.012-.027Zm-.214-.05,0,.02,0,.013s0,.006,0,.006h.008c.008,0,.033-.011.039-.006.008-.014.027-.019.064-.023s.094-.008.11-.009c-.056.011-.028.019-.012.027a.1.1,0,0,1,.1-.018c0-.035.011-.073.1-.086-.013.007-.036.012-.026.018s.03,0,.037-.008-.02.015-.008.027c.059-.041.106-.013.194-.033-.028.014,0,.02.008.032,0-.021.031-.016.056-.009s.05.013.031-.016a1.531,1.531,0,0,0,.272,0,.655.655,0,0,1,.235.006c.02.016.065-.017.095-.021l0,.023c.08-.048.064-.021.156-.074-.037.032-.018.042.025.059l.061-.056.017.033a.129.129,0,0,1,.078-.016h.009c.021-.044.123-.058.134-.085.02.021.039.013.056.006s.034-.015.05.006a.158.158,0,0,1,.031-.026c-.02-.018-.03-.041,0-.037l.006,0,.018.026a.378.378,0,0,1,.068-.03.105.105,0,0,1-.03-.007l.035.006.009,0-.005,0a.067.067,0,0,0,.054-.017.219.219,0,0,0,.142-.052.217.217,0,0,1,.173-.048c-.018,0-.041,0-.044.014.089-.029.189-.009.24-.046l-.011-.028a.663.663,0,0,1,.167-.059l0-.033c.08-.006.242-.089.3-.028.009-.017.045-.017.083-.017a.252.252,0,0,0,.071-.006l.015.024a.347.347,0,0,0,.129-.023c.124.039.229-.021.334-.022l0,.007c.035-.008.065-.015.094-.024-.013.014,0,.005.011,0a.056.056,0,0,1,.031-.011.136.136,0,0,1,.09-.01.17.17,0,0,0,.033-.014c-.027.032.02.029.039.047a.176.176,0,0,0,.008-.033c.017,0,0,.027.02.018s.041-.072.026-.1a.075.075,0,0,0-.026.009s0,0,0,0h0l0,0a.046.046,0,0,0-.005-.011c.023-.032.007-.024,0-.028.052-.024.044-.059.087-.085-.021.008-.011-.023,0-.054s.017-.064-.009-.053c.049-.032.009-.027.048-.047a.366.366,0,0,0,0,.172l.036-.039c.035.043-.046.1-.044.127a.071.071,0,0,1,.03-.055h-.035a.416.416,0,0,0-.041.154c.02-.015.013,0,.01.02s0,.029.015.025.012-.022.018-.032.008,0,.01,0a.781.781,0,0,0,.09-.226c.005-.018.008-.036.012-.054l-.012.028-.017-.024L56.535,11c.008-.033.016-.066.022-.1-.027-.015-.023-.1-.05-.08.017-.029.033-.015.032-.081-.012-.044-.04.046-.055.06,0-.05-.012-.051-.02-.054.043-.034.109-.057.121-.011,0-.024.007-.048.009-.073-.007.016-.012,0-.009-.029H56.6a.02.02,0,0,1,0,.008c.057-.537-.006-1.094.055-1.744l-.005,0a.039.039,0,0,0,.005-.009c0-.01,0-.02,0-.03a.776.776,0,0,1-.064.1c.02-.019.037-.036.025-.01a.3.3,0,0,0,.018-.037,1.267,1.267,0,0,1-.075.133.856.856,0,0,1-.092.091c.006,0,0,.02.011.006-.022.023-.041.044-.007.018a3.857,3.857,0,0,1-.372.28,1.8,1.8,0,0,1-.4.216c-.018.011,0,.014.007.016-.061,0-.043.035-.069.051-.03,0-.059,0-.089,0-.026.024,0,.025,0,.033-.138.072-.292.085-.4.15-.042,0,0-.036-.054-.025.078.02-.121.064-.09.083a.182.182,0,0,0-.09,0c-.046.008-.087.016-.085-.027-.06.013-.041.043-.022.044a.5.5,0,0,0-.178.069.947.947,0,0,0-.146.033.5.5,0,0,1-.243.024c.046.024,0,.019-.04.041l.044.024-.094.015c-.019.007-.024.006-.025,0-.016,0,0-.019-.041-.019a.16.16,0,0,0-.1.049l.011,0-.043.01c-.016,0,.012-.011.03-.024S54,10.2,53.951,10.2c0,.009-.055.06-.086.042.054-.007.043-.027.022-.033l-.075.009.031.035c-.217.028-.444.024-.675.039,0-.012-.034-.012-.069-.012s-.087,0-.077-.021l.009,0c.056-.007-.018-.029-.064-.022.049.009-.084.04.033.041l-.09.02c-.029.04-.113.029-.206.018a.781.781,0,0,0-.173-.008c.009,0,.012,0,.013-.006a.934.934,0,0,1-.2-.01.7.7,0,0,0-.1-.011l-.011-.012a.677.677,0,0,1-.241-.008s.016,0,0-.007a.33.33,0,0,0-.037.006.061.061,0,0,1-.018,0h-.012c-.005,0-.011,0-.008,0l0,0a.345.345,0,0,1,.007.035l0,.017.008.031c-.028.006.068.217.049.262.014.024.039.117.054.158,0,0,0,0,0,.011a1,1,0,0,1,.046.2c.013.035.014.018.015,0a1.688,1.688,0,0,0,.068.217c.008.033,0,.033,0,.033a.006.006,0,0,0-.008.005c.011.035.018.033.023.032s.011,0,.019.054c-.005-.011-.012-.033-.012-.024.008.04-.016.12,0,.157v-.028c.03.069.01.178.041.182l.012-.01c.015.128.02.051.035.18h0c.016.051.006.094.035.1v-.014Zm1.438-.011.059-.006a.109.109,0,0,1-.007-.051Zm.22-.092a.034.034,0,0,1,0-.01C53.962,11.794,53.97,11.8,53.971,11.8Zm.518-.054.022-.007c.03-.009.061-.017.091-.026.026-.046.05-.091.063-.12l-.064.044-.023-.015A.29.29,0,0,0,54.489,11.748Zm.492-.134.076-.016v-.054l.013.051.079-.017a.029.029,0,0,0-.012-.015.691.691,0,0,0-.161-.04A.2.2,0,0,0,54.981,11.614ZM46.3,11.549c.009.03.007.014,0-.025C46.3,11.533,46.3,11.541,46.3,11.549Zm9.067-.012.07-.011c-.007-.006-.019-.018-.018-.029A.177.177,0,0,0,55.372,11.537Zm.549-.149a.286.286,0,0,0-.147.1c.084-.009.169-.018.253-.024l.06-.006a.061.061,0,0,1-.021-.006.119.119,0,0,0,.087-.021c-.019,0-.038-.005-.056-.008a.152.152,0,0,1,.047,0,.148.148,0,0,0,.1-.01c-.016-.02.013-.062-.037-.081-.112-.016-.078.078-.232.082-.007,0,0,0,0-.013s0-.014-.022-.014A.147.147,0,0,0,55.921,11.388Zm.275-.095v0h-.019Zm.372-.44v-.006h0Zm0-.026c0-.026.008-.053.012-.08A.121.121,0,0,0,56.572,10.828Zm-2.46-.641.017,0c0-.006.009-.011.005-.011A.082.082,0,0,0,54.111,10.187Zm-2-.877a.153.153,0,0,0-.037.053.209.209,0,0,1,.042-.012l.083-.014a.976.976,0,0,0,.078-.107l-.071.037-.022-.017A.233.233,0,0,0,52.109,9.31Zm-.275,0a.179.179,0,0,1,.03-.012c-.007-.024,0-.048.011-.035h0l.005.03.038-.012a.036.036,0,0,1-.014-.013.075.075,0,0,0,.016.013h0l0,0c.009,0,.018.005.036-.015a1.24,1.24,0,0,0,.133-.038c.075-.026.151-.082.235-.053-.018,0-.042,0-.046.011.092-.02.192.005.246-.031l-.01-.028a.865.865,0,0,1,.17-.058l0-.033c.082-.005.238-.1.3-.042.013-.03.111-.018.154-.038l.018.022a.352.352,0,0,0,.128-.04c.132.021.23-.057.335-.079l0,.007.1-.043c-.022.028.017-.02.051-.022a.23.23,0,0,1,.132-.021l.069-.015c-.071.034.014.031.025.056l.038-.031c.021.008-.022.027.011.025.026-.021.112-.041.132-.073a.066.066,0,0,0-.032-.011s0,0,0,0h0a.045.045,0,0,0,.009-.013c.056-.007.033-.013.028-.023a.192.192,0,0,0,.079.009.124.124,0,0,1,.07.011c-.047-.031.148-.029.1-.065.028.014.036.012.042.011s.009,0,.027.009a.38.38,0,0,0-.171.081l.057.011c-.014.031-.054.029-.089.027a.1.1,0,0,0-.057.006.081.081,0,0,1,.07-.008L54.3,8.751a.337.337,0,0,0-.175.074c.051,0-.053.036-.011.052l.037-.015a.007.007,0,0,1,.005.01c.137-.036.276-.07.414-.1,0-.031.088-.063.057-.08.036,0,.027.023.094,0,.04-.027-.061-.021-.081-.028.05-.023.048-.03.047-.04.051.028.1.081.055.109l.013,0,.062-.016c-.017,0,0-.012.025-.019l.005.01-.008,0c.555-.155,1.113-.584,1.759-.086l0-.023.005-.011a.3.3,0,0,0,0,.033l.011.008c0-.006,0-.012,0-.018l-.006,0v0s0,0,.007,0c0-.034.006-.066.008-.1-.007.023-.012.04-.013.013V8.56c0-.014,0-.132,0-.157l.01-.132s0,0-.006,0-.006-.007-.007.006c0-.033,0-.061-.008-.018a2.674,2.674,0,0,0-.018-.476c-.019-.158-.05-.314-.056-.471-.006-.021-.013-.008-.018,0,.016-.06-.021-.053-.03-.083l.024-.088c-.011-.022-.018-.016-.024-.011s-.006.005-.008.005a1.7,1.7,0,0,1-.027-.233.651.651,0,0,0-.034-.2c.006-.039.037,0,.03-.048-.015.039-.025,0-.043-.03s-.031-.059-.039-.047a.121.121,0,0,0-.025-.089c-.018-.027-.031-.05,0-.069-.044-.042-.055-.007-.048.008a.181.181,0,0,0-.155-.05.345.345,0,0,0-.169-.014.576.576,0,0,1-.205,0c.04.024-.008.017-.047.039l.044.025-.1.014c-.019.006-.025.006-.025,0-.017,0,0-.019-.042-.02a.165.165,0,0,0-.1.049l.011,0-.045.01c-.017,0,.013-.011.031-.024s.025-.025-.029-.024c0,.009-.057.06-.091.042.056-.007.046-.028.023-.033l-.078.011.032.035c-.222.034-.463.034-.693.086,0-.013-.038-.006-.075,0s-.085.016-.079-.006h.01c.056-.019-.025-.025-.07-.006.022,0,.012.009,0,.019s-.028.029.041.013l-.086.041c-.03.074-.242.063-.37.13.008-.005.01-.009.011-.011-.114.056-.273.087-.3.106l-.016-.007a.891.891,0,0,1-.228.108s.013-.011-.006,0a.492.492,0,0,1-.134.072l0,0-.127.057c-.006-.014-.064.018-.125.049a.337.337,0,0,1-.138.052,1.72,1.72,0,0,1-.155.083s0,0-.012,0a.938.938,0,0,1-.2.079c-.035.018-.017.017,0,.016a2.213,2.213,0,0,0-.222.1c-.054.019-.024-.005-.041-.007-.078.031.023.026-.088.05.012-.006.034-.015.025-.014a.322.322,0,0,1-.075,0,.235.235,0,0,0-.092.009h.029c-.075.033-.189.008-.2.039l.009.012c-.135.008-.055.017-.191.026l0,0c-.057.015-.093,0-.115.034l.021,0c-.069.02-.077.019-.144.041a.127.127,0,0,1-.047.021c0,.012-.032.031-.056.054a.1.1,0,0,0-.041.061c.008-.043-.007-.028-.022-.021a.1.1,0,0,1-.011.1c.036.011.065.024.074.1-.007-.012-.012-.032-.018-.024s0,.027.007.033-.007,0-.012,0-.009-.009-.015,0a.167.167,0,0,1,.026.079.257.257,0,0,0,.022.1c-.018-.023-.02,0-.03.014.018,0,.021.02.022.044s0,.061.023.033c.026.173.181.422.165.509-.01.024.035.064.046.1l-.023,0c.066.079.036.064.1.168-.035-.043-.043-.02-.057.029a.6.6,0,0,1,.056.073l-.035.017a.142.142,0,0,1,.012.038l0,.039a.142.142,0,0,1,.049.026c.017.011.037.019.049.012C51.775,9.3,51.834,9.259,51.834,9.306Zm.766-.043.081-.017V9.2l.012.048.083-.018a.035.035,0,0,0-.012-.013.846.846,0,0,0-.166-.038A.183.183,0,0,0,52.6,9.262ZM44.778,7.931a1.8,1.8,0,0,1-.013.288.847.847,0,0,1-.189.351,2.975,2.975,0,0,0-.347.5c-.026.09-.012.142.025.155a2.76,2.76,0,0,1,.317-.548l.039-.053c0-.033.007-.067.008-.1l.05.015a.829.829,0,0,0,.118-.686A.273.273,0,0,0,44.778,7.931ZM51.687,9.21c0-.01,0,0-.011,0h.011Zm1.326-.041.068-.016c-.008-.006-.02-.015-.018-.025A.183.183,0,0,0,53.014,9.169Zm.549-.222a.315.315,0,0,0-.135.117l.321-.085a.077.077,0,0,1-.026,0,.151.151,0,0,0,.089-.034h-.061a.181.181,0,0,1,.056,0,.2.2,0,0,0,.1-.016c-.017-.02.024-.064-.036-.082-.14,0-.092.087-.251.119-.005,0,0,0,0-.011s0-.012-.016-.012A.1.1,0,0,0,53.562,8.948Zm-1.963.1a.118.118,0,0,1,.05-.008c-.019-.017-.04-.032-.059-.047C51.594,9.008,51.6,9.027,51.6,9.045ZM53.861,8.8l0,0C53.836,8.8,53.821,8.8,53.861,8.8Zm.458-.023Zm.3-.023.009,0s0,0,0,0Zm.029-.007.085-.02h-.015A.124.124,0,0,0,54.646,8.751Zm-.3-.04Zm-3.07-.848c.006,0,.011,0,.016-.015a.127.127,0,0,1,0-.018c.007.017.016.028.022.018,0-.03,0-.063.007-.092a.282.282,0,0,0-.027.03c0,.007,0,.013,0,.02l0,.024-.006-.012C51.284,7.832,51.281,7.847,51.279,7.863Zm-8.674-.2a1.751,1.751,0,0,0,.492-.1,1.613,1.613,0,0,1-.587.062C42.56,7.644,42.627,7.658,42.6,7.666Zm13-1.237.016,0c.006-.006.011-.011.006-.011A.076.076,0,0,0,55.607,6.429ZM44.131,6.3c-.081.035-.15.066-.208.093a1.555,1.555,0,0,1,.812-.13c.191.037.143-.149.141-.267-.011-.538.012-1.076.02-1.614,0,.091-.009.163-.012.21a6.68,6.68,0,0,0-.008-.8c0,.165-.007.33-.013.5a8.373,8.373,0,0,0-.036-1.312c0,.038-.019,0-.034-.033-.025-.059-.052-.118-.042.161.031.561.036.793.059,1.054a11.26,11.26,0,0,1,.015,1.24c0,.041,0,.026-.006.011-.011-.032-.03-.064-.023.434,0,.056.005.112.007.167a.748.748,0,0,1,.008.117.094.094,0,0,1-.018.055.07.07,0,0,1-.05.021c-.036,0-.073,0-.109-.007h-.016A1.31,1.31,0,0,0,44.131,6.3Zm2.275-.277c.094-.014.188-.03.282-.046-.1.012-.21.028-.312.042a.54.54,0,0,1-.159,0,.192.192,0,0,1-.118-.076.362.362,0,0,1-.048-.117C46.087,6.018,46.2,6.056,46.405,6.027Zm-.369-.378h0c0-.019,0-.039,0-.058C46.036,5.61,46.036,5.629,46.036,5.649ZM44.718,3.24c0-.032,0-.079-.007-.145l0-.015C44.713,3.146,44.716,3.2,44.718,3.24ZM3.713,18.76l.015.008Zm55.176-.24L58.8,18.5c.02.006.037.012.016.011l.029,0a.327.327,0,0,1-.052-.007.359.359,0,0,0-.055-.006l-.09-.019s-.013,0,0,.006c-.023,0-.042-.006-.013,0-.108-.022-.218-.042-.328-.057a2.685,2.685,0,0,1-.326-.059c-.015,0-.008.006,0,.011a.036.036,0,0,0-.044,0,.036.036,0,0,1-.018.005.515.515,0,0,1-.052-.035c-.025,0-.009.015-.012.02-.113-.012-.21-.066-.3-.068-.024-.02.016-.027-.02-.041.021.027-.013.022-.046.018s-.05-.008-.046,0c-.026-.047-.126-.043-.09-.1-.041-.018-.045.016-.035.025a.262.262,0,0,0-.138-.027c-.022-.023-.234-.069-.256-.139.011.033,0,.027-.017.021a.09.09,0,0,0-.027,0l.013.04-.063-.032c-.015,0-.017-.006-.016-.009s.011-.015-.013-.035c-.042-.022-.052-.007-.083,0l0,.008-.031-.012c-.021-.012.089.011.027-.04,0,.008-.064.023-.073-.007.035.02.04,0,.031-.017l-.048-.028v.044c-.141-.078-.268-.191-.408-.287.017-.021-.095-.074-.061-.1l0,.006c.036.021.007-.032-.022-.047.022.03-.072-.008-.007.048l-.062-.026c-.035.017-.068-.015-.1-.056a.712.712,0,0,0-.118-.117c.007,0,.01,0,.012,0a.623.623,0,0,1-.143-.181l.006-.014a.282.282,0,0,1-.089-.158s.008.01.006-.005a.2.2,0,0,1-.043-.1l0,0c-.007-.033-.015-.065-.019-.1.025,0-.033-.169,0-.2a.611.611,0,0,1-.011-.123s0,0,0-.007a.424.424,0,0,1,.019-.151c0-.029-.005-.018-.013-.007a1.041,1.041,0,0,0,.03-.1.2.2,0,0,1,.034-.075c.019-.024.022-.019.026-.014a.007.007,0,0,0,.009,0c.045-.05-.033-.018.047-.068-.008.007-.023.021-.016.018.031-.024.1-.01.129-.024h-.022a.138.138,0,0,1,.094-.007c.027,0,.048.009.052,0l0-.014a.17.17,0,0,0,.066.011.17.17,0,0,1,.068.011l0,0c.042,0,.06.025.085,0l-.014-.005a.673.673,0,0,1,.109.019c.007,0,.033,0,.039.007.009-.025.127.02.148.033-.043-.011-.027.006-.02.02a.058.058,0,0,1,.075.022c.02-.029.043-.06.113-.028-.013,0-.031-.006-.028,0s.022.011.028.011-.021,0-.02.018c.062-.005.076.041.141.074-.026-.005-.015.013-.017.028.016-.014.027,0,.036.022s.019.042.03.01c.04.057.1.128.138.182s.078.094.08.124.04.025.056.037l-.017.014c.072.007.045.02.124.028-.04.006-.038.021-.027.056l.066-.012L57.2,16.8a.078.078,0,0,1,.055.031.1.1,0,0,1,.07,0c.02,0,.04.009.05,0-.005.053.056.013.049.062a.1.1,0,0,1,.031-.006c0-.024.008-.048.02-.031h0l-.005.03a.184.184,0,0,1,.052.01.073.073,0,0,1-.012-.021l.016.023.006,0h0a.036.036,0,0,0,.039.015c.022.033.06.032.1.032s.089,0,.116.044c-.008-.01-.023-.018-.031-.008.063.016.11.078.157.068l.006-.029a.416.416,0,0,1,.125.016l.012-.031c.05.028.184.013.2.089.021-.021.074.033.108.035v.027a.2.2,0,0,0,.093.025c.073.085.136.054.2.073v.007l.073,0c-.012.009-.007.005,0,0a.045.045,0,0,1,.033,0,.12.12,0,0,1,.09.029l.05.013c-.06,0,0,.034-.006.061l.037-.013c.009.016-.026.015,0,.026a.138.138,0,0,1,.051,0,.14.14,0,0,0,.068,0,.053.053,0,0,0-.016-.025s0,0,0,0l0,0,0,0a.045.045,0,0,0,.013-.006c.041.024.03.008.032,0,.034.059.073.054.085.115-.006-.036.016-.019.039,0s.043.032.044.005c.006.051.016.015.017.054-.033-.037-.084-.034-.128-.042a.35.35,0,0,1,.02.04c-.022.013-.04-.007-.057-.027s-.026-.032-.039-.031a.049.049,0,0,1,.043.031l.006-.033a.162.162,0,0,0-.143-.027c.031.021-.047.008-.029.04l.028,0a.009.009,0,0,1,0,.01.59.59,0,0,1,.12.052l0,0,.008.005.021.011.113.073c.009-.009.027-.008.042-.007s.034,0,.033-.012c.013.023,0,.03.042.054.035.008-.012-.049-.017-.066.037.016.041.011.047.005.006.049-.013.105-.048.1l.042.035c-.006-.011.007-.007.022.006l-.005.008-.005,0a.424.424,0,0,1,.137.443.413.413,0,0,1-.461.355A1.581,1.581,0,0,1,58.889,18.52Zm-2.072-.461c.009,0,.018-.007-.007-.011Zm2.5-.376a.063.063,0,0,0-.047-.035Zm-.059-.043h0l0,0Zm-.461-.213c0-.025.037-.05.006-.089a.071.071,0,0,0-.094,0,.1.1,0,0,1-.1.014c-.011.005.03-.033-.027-.034a.255.255,0,0,0-.124.044l.008,0a1.152,1.152,0,0,0,.211.054.042.042,0,0,1-.014-.011.073.073,0,0,0,.066,0l-.037-.023C58.73,17.393,58.75,17.43,58.8,17.426Zm.013-.126h0L58.8,17.29Zm-.63-.033.045.015a.045.045,0,0,1,0-.03A.108.108,0,0,0,58.183,17.268Zm-.218-.067.056.017a.033.033,0,0,0,0-.016.543.543,0,0,0-.081-.1.251.251,0,0,0-.036.081l.055.017.021-.046Zm-.414-.141.081.031a.73.73,0,0,0,.094-.066l-.057.005-.005-.024A.266.266,0,0,0,57.552,17.06Zm-.306-.223.009-.007-.005,0S57.248,16.833,57.246,16.837Zm.009-.006Zm-.18-.038.033.026a.153.153,0,0,1,.03-.041C57.118,16.784,57.1,16.788,57.075,16.793Zm-.617-.565.03.015c0-.005,0-.011,0-.02H56.47c.015-.006.026-.012.02-.019l-.068-.013.017.026.013.006h.018Zm.977,2.059,0,0ZM26.678,17.6a.205.205,0,0,1-.121-.076c-.016-.023-.01-.035.01-.03a.81.81,0,0,0,.107.021c-.1-.013-.188-.092-.256-.272.015.058-.03-.039-.067-.179l.007-.014a.138.138,0,0,1,.006.016c-.306-1.117-.335-2.282-.645-3.395a32.1,32.1,0,0,1-.632-6.115c-.026-.311-.252-.592-.124-.831A1.325,1.325,0,0,1,25.152,6a.52.52,0,0,0-.037.057c-.071.125-.1.233-.054.082a1.216,1.216,0,0,0-.07.227,1.112,1.112,0,0,1,.153-.39,1.326,1.326,0,0,1,.32-.338,2.058,2.058,0,0,1,.694-.287c-.009,0,0,0,.012-.009s.036-.015-.026,0c.126-.032.238-.056.2-.051a25.747,25.747,0,0,1,2.561-.3c.448-.039.895-.078,1.335-.129s.878-.119,1.315-.169c.117-.018.049-.018,0-.018a2.4,2.4,0,0,0,.482-.078c.158-.006.317-.01.475-.011.191-.028.04-.027.054-.036a8.025,8.025,0,0,1,1.32-.016c.107.006.209.017.315.03a.784.784,0,0,1,.315.114,1.194,1.194,0,0,1,.409.451c.045.114.03.1.022.1s-.009.005.04.153c-.056-.208.047,0,.1.249s.049.485.061.4c-.034.31.014,1.076-.056.946,0,.364.035.3.039.2,0,.422.009.763.041,1.107-.005.116.012.6.042,1.1s.081,1.011.077,1.2c.005-.259.02.018.065.26l.005-.225.065.552a.639.639,0,0,1,.017.143c.011.093-.021-.02,0,.218a3.422,3.422,0,0,0,.127.589l-.006-.057.05.249c.014.076-.011-.021-.036-.119-.036-.138-.076-.277-.02.078a2.865,2.865,0,0,1,.14.515c-.069-.3-.08-.262-.065-.147l.1.43.005-.152c.147.621.253,1.262.35,1.912q.071.487.143.983c.013.081.023.169.039.241s.039.1.1.119a.667.667,0,0,0,.111.013.626.626,0,0,1,.142.023.484.484,0,0,1,.242.163c-.009,0,.032.054.066.144a.8.8,0,0,1,.044.335.518.518,0,0,1-.109.3c-.054.063-.094.079-.074.052a.352.352,0,0,0,.042-.037.355.355,0,0,0,.054-.08c.008-.019.012-.028.011-.03s-.018.025-.05.065a.45.45,0,0,1-.151.122.749.749,0,0,1-.208.068c.14-.025.019.016-.059.032-.038.007-.065.014-.036.015a.536.536,0,0,0,.088-.005.7.7,0,0,0,.2-.054,1.147,1.147,0,0,1-.545.08,3.588,3.588,0,0,1-.922-.075c-.414-.067-.887-.161-1.286-.2a.421.421,0,0,0,.079,0,9.505,9.505,0,0,0-1.081-.065c-.164,0-.313.011-.431.017s-.205.007-.247.011l-.064-.01c-.612.038-.685.03-1.412.051.009,0,.093-.009-.022-.006-.174.019-.35.026-.844.081l.02-.006a6.487,6.487,0,0,0-.765.137.7.7,0,0,0-.2.044,1.31,1.31,0,0,1-.487.078.587.587,0,0,1-.272-.088.546.546,0,0,1-.182-.2.53.53,0,0,1-.067-.35.506.506,0,0,1,.046-.184.636.636,0,0,1,.171-.221.732.732,0,0,1,.262-.145c.093-.026.17-.041.233-.058a.371.371,0,0,0,.059-.011,8.452,8.452,0,0,1,1.172-.265c.217-.028.123-.023.027-.018a3.088,3.088,0,0,1,.783.011,1.241,1.241,0,0,0,.541,0c.193-.046.184-.039.176-.032s-.008.008.022,0c.222-.068.2-.071.2-.077s0-.007.046-.02a2.125,2.125,0,0,1,.283-.067.82.82,0,0,0-.155.04,1.414,1.414,0,0,1,.463-.036c.086.008.17.029.244.043a1.629,1.629,0,0,0,.2.026c-.051-.007-.1-.015-.154-.024.214.023.47.04.682.053a2.869,2.869,0,0,0,.414.014l-.04-.016c.188.016.3.033.379.044l.157.026c.041.006.081.015.158.035.039.009.083.023.143.034a.645.645,0,0,0,.22.014l-.008,0a.219.219,0,0,0,.161-.1.44.44,0,0,0,.05-.157.7.7,0,0,0-.018-.266c0,.037,0,.074.005.112-.04-.4-.052-.443-.111-.856-.01-.048-.046-.247-.05-.306-.023-.015-.182-.955-.218-1.139.066.326.048.169.041.074a3.144,3.144,0,0,1-.121-.59c-.041-.032-.089-.078-.193-.6.021.081.049.208.046.154a1.634,1.634,0,0,0-.045-.216c0-.027.007,0,.016.028s.02.056.021.025c-.1-.35-.119-.614-.216-1.131.037.163.022.02.026-.041-.056-.033-.059-.719-.091-.513-.045-.516-.075-1.169-.09-1.742s-.029-1.066-.02-1.265a4.634,4.634,0,0,0-.048-.568l.024.022-.071-.448c-.008-.053-.016-.109-.031-.187a2.416,2.416,0,0,0-.071-.306c.039.1.049.138.056.11a.5.5,0,0,0-.031-.21.145.145,0,0,0-.122-.065.746.746,0,0,0-.176.02l-.08-.028a4.8,4.8,0,0,1-.527.054c-.158.054-.781.112-.881.144a1.161,1.161,0,0,0-.323.013.943.943,0,0,1-.293.012c-.058.013-.134.026-.216.039.088.014.123.035-.041.04l-.037,0-.073-.022c-.165.023-.332.043-.444.054.05,0,.109,0,.17,0l-.2,0-.059.005.036,0a2.3,2.3,0,0,0-.349.034,4.526,4.526,0,0,0-.455.033c-.155.019-.326.041-.493.053a6.869,6.869,0,0,1-.987,0,1.427,1.427,0,0,0,.264-.006,7.333,7.333,0,0,0-.757.03,2.156,2.156,0,0,0-.323.058,1.1,1.1,0,0,0-.137.042l-.062.023c-.026.009-.059.018-.087.026l.04.021a.73.73,0,0,1-.353-.015c-.093-.022-.171-.045-.235-.056a.2.2,0,0,0-.125.008.178.178,0,0,0-.071.093l.025.025a.473.473,0,0,0-.023.3c.021.14.076.306.1.506a.953.953,0,0,1,.006.156c0,.044,0,.086-.007.128,0,.077-.013.149-.015.217a2.547,2.547,0,0,1-.032.314c.022.108.021.621.063.878l-.017.068c.031.336.07.543.1.744.02.346.064.678.1,1q.026.243.042.481c.005.155.011.306.017.456l-.007.006a4.286,4.286,0,0,0,.093.584c-.05-.148.033.112.076.284.029.09.066.206.106.327s.089.254.116.371.074.26.1.391c-.121-.431-.023.039-.047.068.025.081.047.163.069.244,0,.046-.007.019-.017-.008s-.02-.066-.005.036c.046.164.11.656.156.8a1.284,1.284,0,0,0,0-.159c0-.021,0-.02,0-.006v-.017l0,.021c.006.02.015.053.019.066.035.307.031.193.041.181.011.336.055.538.036.792.012-.121.026.092.041.3s.03.419.045.309a1.074,1.074,0,0,0,0,.208.5.5,0,0,1-.006.149,2.806,2.806,0,0,0-.021-.283c-.01-.09-.02-.179-.03-.266-.021-.174-.046-.34-.067-.488v.294c-.052-.174-.039-.595-.073-.791a1.912,1.912,0,0,1,.03.347l.025-.077a5.318,5.318,0,0,0-.078-.565c-.031-.169-.063-.324-.092-.47.015.145-.006.048-.027-.049s-.042-.178-.04-.08l.036.218c0,.031,0,.033-.008.018.03.208.057.417.088.624.057.379.079.764.108,1.148l-.008-.181.03.111-.022.074c.009.112.017.223.028.335a.886.886,0,0,1-.012.257.481.481,0,0,1-.05.239c-.056.129-.15.228-.08.173a.722.722,0,0,1-.152.118c-.025.015-.052.035-.1.063a.67.67,0,0,1-.214.094c-.07.014-.088.011-.065.018a.342.342,0,0,0,.15-.016,1.174,1.174,0,0,0,.319-.177,1.587,1.587,0,0,1-.225.174c-.037.024-.039.028-.042.034a.493.493,0,0,1-.136.02A.323.323,0,0,1,26.678,17.6Zm.357-.229a.709.709,0,0,1-.289.143.45.45,0,0,0,.17-.057.946.946,0,0,0,.17-.119.63.63,0,0,0,.074-.081A.85.85,0,0,1,27.034,17.367Zm.188-.192s0,.007,0,.007.011-.02.017-.029C27.233,17.161,27.227,17.168,27.222,17.176Zm-.85-.083Zm8.094-4.248.114.521-.021-.206c-.007-.039-.015-.078-.022-.117s-.022-.088-.031-.127l.019.059c-.016-.086-.033-.173-.049-.259-.006,0-.006.03.005.105l.025.095a.4.4,0,0,0-.039-.1S34.464,12.825,34.466,12.845Zm-7.59.29c.031.032.065.064.019-.117-.106-.352-.148-.5-.2-.658a2.413,2.413,0,0,1-.127-.8c0-.027,0-.017.006-.007s.031.042.015-.288a4.484,4.484,0,0,0-.157-.9,9.948,9.948,0,0,1,.084,1.146,4.44,4.44,0,0,0,.061.688c-.006-.047-.009-.087-.009-.113a2.305,2.305,0,0,0,.114.516c-.023-.107-.041-.214-.056-.321a3.627,3.627,0,0,0,.218.835c0-.009,0-.013.006-.013S26.863,13.122,26.876,13.135Zm.057-.121.005.009c-.025-.077-.042-.134-.042-.134Zm8.5-1.675-.005-.087a.248.248,0,0,0-.016-.049A1.118,1.118,0,0,0,35.435,11.339ZM26.2,8.392c.006-.035.015-.079.025-.065-.011-.1-.025-.225-.039-.334C26.183,8.126,26.188,8.259,26.2,8.392Zm-.065-1.962a.617.617,0,0,0-.038.22.113.113,0,0,0,.017-.049.655.655,0,0,1,.063-.176.323.323,0,0,1,.167-.168.37.37,0,0,1,.214.016c.064.021.112.039.122.043.063,0,.1-.024.107-.061a.81.81,0,0,0-.45-.059.247.247,0,0,0-.026.068.451.451,0,0,0-.036-.037A.418.418,0,0,0,26.131,6.431ZM29.5,6.064c-.147.015-.294.021-.443.024-.223.04-.425.071-.536.1l.43-.024.108.02a3.324,3.324,0,0,0,.712-.141Zm4.328.05.019.064c-.007-.045-.012-.089-.018-.134a.827.827,0,0,0-.047-.191c-.012.024-.025.042-.046.023A.942.942,0,0,1,33.825,6.114Zm-1.018-.29c.08-.008.035-.007.028-.013A.141.141,0,0,1,32.807,5.824ZM9.306,16.635a.456.456,0,0,1-.225-.138.678.678,0,0,1-.116-.183s-.005-.016-.016-.052a5.967,5.967,0,0,1-.2-1.023c-.029-.186-.024-.1-.018-.022-.018-.186-.051-.44-.069-.667s-.027-.426-.025-.494c0-.176.008-.168.013-.16s.006.009.009-.017c.006-.188,0-.188-.009-.187s-.011,0,.016-.29a1,1,0,0,0-.006.135c.013-.209.1-.572.133-.776l-.03.134c.022-.188.084-.407.119-.583a1,1,0,0,0,.018-.353l-.013.035a3.184,3.184,0,0,0-.018-.46c-.007-.069-.019-.139-.04-.469l0,.008c-.026-.288,0-.446-.018-.587l-.008.1c.013-.356.016-.386.015-.748,0-.042-.012-.217-.008-.268-.021-.016-.05-.84-.053-1,.016.288.021.151.028.069a2.028,2.028,0,0,1-.022-.522A.167.167,0,0,1,8.72,8,2.082,2.082,0,0,1,8.7,7.564c0,.073,0,.187.011.141a1.651,1.651,0,0,0,0-.194c0-.023.006,0,.009.028s.006.051.014.025a2.246,2.246,0,0,1,.02-.451c.02-.157.052-.319.068-.543,0,.143.016.022.036-.028-.037-.038.089-.61.018-.444.046-.438.055-1,.065-1.5.005-.248.012-.479.023-.67A2.115,2.115,0,0,1,9.023,3.5a.745.745,0,0,1,.115-.229.425.425,0,0,1,.277-.153.186.186,0,0,0-.021.025.522.522,0,0,1,.276.007.484.484,0,0,1,.159.082,1.142,1.142,0,0,0,.371.19c-.092-.027-.123-.03-.108-.014a.58.58,0,0,0,.167.1,1.111,1.111,0,0,0,.329,0l.064.036c.135-.017.285-.035.438-.068.057-.033.193-.08.331-.136.163-.064.336-.129.378-.154.164,0,.4-.139.518-.129.047-.022.108-.047.176-.073-.079,0-.112-.014.026-.046l.031-.011.068.01c.134-.049.273-.1.364-.126-.042.011-.091.02-.143.03l.17-.038.049-.015-.029.011a1.765,1.765,0,0,0,.289-.09c.492-.106,1.039-.4,1.576-.529a.978.978,0,0,0-.217.08,2.844,2.844,0,0,1,.344-.11.6.6,0,0,1,.4.045.552.552,0,0,1,.248.279,1.076,1.076,0,0,1,.076.281l.026-.028a.584.584,0,0,1-.044.322.611.611,0,0,1-.193.23,1.291,1.291,0,0,1-.425.194l-.005.036a11.069,11.069,0,0,1-1.447.386c-.086.052-.526.145-.735.224l-.062-.006a4.642,4.642,0,0,0-.6.224,3.691,3.691,0,0,0-.408.146l-.192.087a1.067,1.067,0,0,1-.231.079,3.512,3.512,0,0,1-.836.011l0-.007a.464.464,0,0,0-.189.032c-.028.019-.036.035-.05.105,0-.049,0-.033,0,.015s0,.14-.006.223a5.365,5.365,0,0,1-.04.64l-.016.337c0-.375-.035.025-.062.045l.013.217c-.007.039-.011.015-.015-.009s-.006-.059-.013.029c.008.145-.007.571.015.705a.872.872,0,0,0,.022-.136c0-.018,0-.017,0-.005l0-.015,0,.018c0,.018.006.047.008.059-.015.268,0,.17.011.161-.047.286-.031.454-.073.666.021-.085.016.094.012.272s-.008.362.017.269c-.043.226-.005.155-.04.3.016-.319-.012-.637-.023-.895l-.03.252a5.526,5.526,0,0,1,.02-.717,1.759,1.759,0,0,1-.017.334l.035-.064a8.152,8.152,0,0,0,0-.9c-.011.126-.013.04-.018-.045s-.01-.157-.025-.074l0,.191c0,.025-.008.026-.011.016q-.024.763-.037,1.525l.007-.142.021.1-.028.061c0,.172,0,.345-.006.517.028.054.038.482.061.359a2.016,2.016,0,0,0-.019.443c.019.216.033-.262.045-.352.011.256.02.256.028.263-.037.207-.1.364-.117.162,0,.116,0,.231,0,.346,0-.078.012.02.015.153l-.011.01a.215.215,0,0,1,0-.027c0,.208.006.415.012.623,0,.173-.18.458.253.492s.255-.2.244-.388.131-.249.273-.292a21.616,21.616,0,0,1,3.066-1.04c.881-.131,1.113.069.94.9a12.855,12.855,0,0,1-.588,1.6l.016,0c0-.008.009-.025.023-.064l0-.01c.006-.014.013-.028-.026.074l.118.022.052.016-.17-.038,0,.01.6.141c-.133-.037-.252-.069-.108-.04l-.2-.044c.068.009.625.14.742.156l.627.151c-.007,0,0,0,.014,0s.033,0-.028-.014c.155.035.291.064.089.013.748.183,1.506.376,2.248.614a11.917,11.917,0,0,1,2.131.907c.092.045.044.01.012-.014a2.075,2.075,0,0,0,.383.187.775.775,0,0,1,.291.339c.043.085.044.1.048.084s0-.048,0-.043a.562.562,0,0,1,0,.339.527.527,0,0,1-.186.285.57.57,0,0,1-.313.1,1.255,1.255,0,0,1-.295-.023,7.54,7.54,0,0,1-1-.262c-.184-.086.056-.015-.189-.116.16.086-.023.024-.218-.057-.179-.073-.367-.162-.319-.125-.111-.075-.31-.178-.468-.267s-.289-.16-.223-.168c-.282-.136-.249-.077-.168-.038a3.9,3.9,0,0,0-.9-.285c-.093-.035-.5-.127-.922-.211-.4-.092-.822-.14-1-.191.174.055-.051.011-.258-.008l.188.061c-.16-.024-.321-.052-.483-.089a.461.461,0,0,1-.125-.032c-.081-.024.023-.009-.179-.079l-.107-.037-.076-.022a.522.522,0,0,0-.109-.018.7.7,0,0,0-.176.017l.041,0a.528.528,0,0,0-.173.04c-.058.03.04-.035.122-.051.04-.009.072-.015.065-.02a.316.316,0,0,0-.168.015,1.222,1.222,0,0,0-.127.092c-.065.053-.128.129-.177.174.077-.1.117-.129.121-.142s-.025,0-.06.029a1.236,1.236,0,0,0-.209.29,1.235,1.235,0,0,1,.094-.083,1.6,1.6,0,0,0-.094.168l-.088.187a2.391,2.391,0,0,1-.226.373,2.353,2.353,0,0,1-.647.59,3.435,3.435,0,0,1-.386.21.933.933,0,0,1-.452.114A.464.464,0,0,1,11,15.115a.483.483,0,0,1-.162-.194.926.926,0,0,1-.1-.459c.007.006.01-.052.045-.132a.521.521,0,0,1,.2-.225c.093-.057.177-.087.23-.119s.083-.045.068-.021l-.039.021c-.057.04-.085.052-.085.057a.143.143,0,0,0,.064-.023.9.9,0,0,0,.273-.218c-.088.084-.017,0,.016-.056.017-.028.027-.046.01-.031a2.123,2.123,0,0,1-.165.164,1.535,1.535,0,0,0,.267-.352,2.078,2.078,0,0,1,.127-.278c.03-.061.066-.129.106-.2l.031-.053c0-.007.008-.014.013-.021s.015-.016.01-.021l-.022-.015a.2.2,0,0,0-.027-.018l-.057-.034c-.039-.023-.08-.044-.122-.066-.084-.041-.17-.08-.259-.114-.176-.07-.359-.125-.527-.174a.4.4,0,0,0,.068.015c-.149-.043-.307-.091-.459-.15a1.428,1.428,0,0,0-.413-.14c-.05,0-.073.048-.086.1a.741.741,0,0,0-.012.162c0,.1,0,.177,0,.213l-.012.055c.02.529.013.592,0,1.222,0-.008,0-.081-.007.019.008.152.011.3.022.734l0-.018c.009.224.022.448.046.672a.612.612,0,0,0,.011.181c.011.111.046.256.058.419a.608.608,0,0,1-.128.453.477.477,0,0,1-.274.146.841.841,0,0,1-.241.038A.643.643,0,0,1,9.306,16.635ZM14.3,13.347c.049,0,.1.01-.074-.026Zm-.029-1.357.017,0a.034.034,0,0,1,0-.011l-.016,0Zm-1.338-.236c-.02,0,.008-.044-.028-.034a.237.237,0,0,0,.016-.026c-.013-.031,0-.033.021-.043a.091.091,0,0,0,.056-.052.013.013,0,0,0,0,.007c.012-.045.07-.087.068-.1h.013a.129.129,0,0,1,.037-.089s0,.008.007,0a.077.077,0,0,1,.017-.057l0,0,.024-.048c.025.013.026-.089.061-.09a.284.284,0,0,1,.016-.067s0,0,.006,0c-.006-.026.03-.051.038-.073s0-.012-.012-.008c.025-.02.019-.081.028-.089s.011-.009.015-.006a.014.014,0,0,0,.009,0c.009-.031-.031-.009,0-.043,0,.005,0,.015,0,.012s.06-.023.057-.037l-.011.005c0-.02.061-.049.032-.054l-.015,0c.037-.039,0-.012.036-.054h0c0-.014.034-.036.005-.028l-.007.008a.329.329,0,0,1,.018-.039s-.006,0,0-.011c-.034.023-.006-.018,0-.028,0,.005.021-.014.041-.033-.031.021-.035.023,0-.013a1.266,1.266,0,0,1-.128.109.255.255,0,0,0,.028-.025c.014-.013,0,0-.006,0l.046-.044c-.037.033-.031.022-.023.012s.008-.014,0-.008c.022-.02.039-.04.063-.067-.04.043-.032.029-.023.016s.021-.029-.029.028c.014-.028-.011-.018-.03-.013s-.036.011-.031-.015-.025.022-.031.025l.012-.03a.784.784,0,0,0-.057.084c.014-.035.016-.049.008-.07a.445.445,0,0,0-.023.061V10.7c-.008.018-.015.014-.025.011,0,.044-.023.048-.02.07-.014-.021-.021-.015-.027-.009s-.012.013-.024-.008a.065.065,0,0,1-.008.022c.013.018.023.041.009.035l0,0-.015-.026a.075.075,0,0,1-.025.022.067.067,0,0,1,.016.01l-.018-.009h0l0,0a.014.014,0,0,0-.022.009c-.026-.014-.04.006-.056.027s-.035.045-.068.021c.008,0,.018,0,.017-.008a.09.09,0,0,1-.048,0c-.022,0-.041,0-.049.013l.011.027a.131.131,0,0,1-.058.044l.011.032a.085.085,0,0,0-.04.018c-.026.017-.055.033-.081,0,0,.016-.014.016-.029.015a.039.039,0,0,0-.028.005L12.665,11a.056.056,0,0,0-.046.024c-.062-.035-.086.028-.127.036l0-.006-.034.029c0-.015,0-.006,0,0s-.007.012-.013.011c-.008.015-.031.015-.051.005l-.026.006c.022-.023-.014-.031-.025-.055l-.009.025c-.011-.01,0-.023-.011-.024-.006.017-.038.027-.039.055a.056.056,0,0,0,.017.014s0,0,0,0h0a.035.035,0,0,0,0,.011c-.022,0-.011.008-.006.019-.035-.029-.041-.005-.07-.034.028.033-.056.013-.025.052-.017-.016-.019-.015-.021-.014s0,0-.014-.011c.027,0,.038-.039.051-.061l-.027-.016c0-.038.031-.014.047-.014a.017.017,0,0,1-.021,0l.017.029c.032,0,.044-.028.056-.052-.022,0,.015-.028-.008-.047l-.012.009a.011.011,0,0,1,0-.009l-.115.044-.039.016c.006.028-.019.051,0,.068-.017-.006-.018-.024-.04-.005s.032.024.043.032c-.015.018-.012.025-.009.033-.029-.028-.064-.081-.054-.1l-.028.012c.006,0,0,.01-.005.014L12,11.085h0a6,6,0,0,0-.629.3l0,0-.006,0-.013.007.043.02c-.007-.008-.012-.016,0-.014l-.016,0a.068.068,0,0,1,.027.006.069.069,0,0,0,.033.005.488.488,0,0,1,.045.024s.011-.008,0-.012c.012,0,.023,0,.009,0a.547.547,0,0,0,.171.058.626.626,0,0,1,.175.043c.008,0,.006-.01,0-.017.015.028.023-.009.036-.011l.022.042c.016-.009.008-.022.011-.03.061,0,.111.05.165.033.012.018-.011.034.008.042-.018-.047.057-.014.054-.042.012.046.07.02.048.085.024.009.026-.026.02-.033a.087.087,0,0,0,.079-.006c.012.019.135.006.149.066-.01-.039.006-.018.025-.03l-.008-.034.037.011c.008,0,.01,0,.009,0s-.006.018.009.029.03-.009.047-.021l0-.006.018,0c.012,0-.052.019-.014.045,0-.008.036-.042.042-.017-.021-.007-.023.015-.017.026l.028.01v-.04a.728.728,0,0,1,.124.055.227.227,0,0,0,.106.033c0,.029.046,0,.053.033l0,0C12.879,11.748,12.914,11.767,12.929,11.753Zm-.424-.144,0-.008C12.5,11.608,12.491,11.614,12.506,11.609Zm-.105-.528c.012,0,.018.005,0,0Zm-.354-.014a.022.022,0,0,0,.028-.011Zm.037-.015h0Zm.269-.089c.012.021.005.057.036.081.062.019.019-.072.08-.084,0,0,0,0,0,.012s.009.02.024.007a.149.149,0,0,0,.03-.095l-.119.043a.032.032,0,0,1,.012.005c-.012-.006-.027.008-.031.022l.026.007a.036.036,0,0,1-.024,0,.065.065,0,0,0-.019,0A.026.026,0,0,0,12.352,10.964Zm.3-.125a.071.071,0,0,1,.014.026.083.083,0,0,0,.011-.034Zm.116-.041a.039.039,0,0,0,.006.014.361.361,0,0,0,.081.049.455.455,0,0,0-.025-.085l-.03.011.013.049-.017-.047Zm.211-.074a.972.972,0,0,0,0,.1l.02-.033.013.017a.215.215,0,0,0,.016-.1Zm.249-.01s0,0,0-.011A.069.069,0,0,1,13.232,10.713Zm.061-.1a.349.349,0,0,1-.009.061.715.715,0,0,1,.033-.069Zm.215.042a.02.02,0,0,1,.011.006l.035-.037,0-.006-.008,0,.011-.007.008-.015a.211.211,0,0,0-.027.026l.008,0A.3.3,0,0,0,13.508,10.653ZM10.064,9.538a3.005,3.005,0,0,0,0-.416Q10.063,9.33,10.064,9.538Zm0-.509h0v0ZM8.787,8.212c.007.154.017.308.027.461,0-.045.006-.109.012-.184,0-.033,0-.067,0-.1s-.007-.077-.011-.111l.009.052c0-.076,0-.152,0-.228-.006,0-.01.025-.014.091l.008.085a.289.289,0,0,0-.021-.091S8.789,8.2,8.787,8.212ZM10.2,5.475c.016.036.035.073.063-.087a3.759,3.759,0,0,0,.017-.6.218.218,0,0,1,.071-.184.666.666,0,0,1,.4-.044c.074,0-.168.028.252.045a1.476,1.476,0,0,0,.376-.036.852.852,0,0,0,.273-.124l.1-.069c-.048.021-.1.041-.143.064a2.118,2.118,0,0,1-.993.062c-.209,0-.322.03-.381.142a.2.2,0,0,1,.077-.077.26.26,0,0,0-.11.193,1.027,1.027,0,0,0-.006.222,1.086,1.086,0,0,1,.047-.271,1.914,1.914,0,0,0-.049.323c-.012.116-.022.246-.023.416,0-.006.006-.009.008-.009S10.188,5.46,10.2,5.475Zm.1-.077,0,.009c.006-.072.011-.124.011-.124S10.3,5.315,10.295,5.4Zm3.143-1.6c.083-.029.177-.067.261-.105l-.322.093h.02C13.422,3.787,13.446,3.789,13.438,3.8ZM10.21,3.546c-.009-.024-.014-.045.013-.049a1.317,1.317,0,0,1-.272-.073A1.276,1.276,0,0,0,10.21,3.546Zm.855-.055a.122.122,0,0,1,.023-.016C11.021,3.493,11.059,3.486,11.065,3.491Zm4.055-.206c-.095.029-.191.057-.287.085a.091.091,0,0,0,.046,0,2.806,2.806,0,0,0,.41-.086.864.864,0,0,0,.221-.1.576.576,0,0,0,.1-.09c.026-.061,0-.1-.031-.116a.57.57,0,0,1-.3.249c-.008.022-.017.045-.027.066l-.026-.044C15.192,3.261,15.158,3.273,15.121,3.285Zm-.848-.812-.094.009a4.44,4.44,0,0,0-.557.275c.2-.062.389-.124.583-.188.173-.095.327-.183.411-.239ZM74.74,15.537v0Zm-56.13-.965.017.012Zm10.915-.344c-.066-.01-.134-.028-.158-.032a1.814,1.814,0,0,1-.244-.09s0,0-.006,0-.013,0,.01.008c-.059-.024-.11-.053-.034-.012a.493.493,0,0,1-.189-.146.533.533,0,0,1-.1-.218.747.747,0,0,1-.01-.239.306.306,0,0,1,.123-.21.708.708,0,0,1,.463-.1,2.478,2.478,0,0,0,.45-.05c.039-.011.015-.012,0-.012.111-.009.1-.035.158-.053l.162-.023c.061-.028.009-.02.012-.027.29-.107.587-.183.838-.251.036,0,.039.005.038.011s-.006.016.055.008c-.075-.007,0-.027.088-.039s.127-.031.109-.037a.122.122,0,0,0,.116-.079c.026-.052.034-.108.065-.082.012-.121-.026-.1-.03-.066a1.6,1.6,0,0,0-.044-.378c.013-.082-.083-.661-.052-.8-.023.093-.019,0-.048-.086l-.02.08-.027-.189c-.009-.038-.01-.049-.007-.049,0-.032.02,0,.012-.078a.474.474,0,0,0-.073-.2v.02l-.022-.085c-.005-.027.007.006.022.038s.045.092.028-.031a.3.3,0,0,1-.069-.173c.024.105.042.087.041.046s-.023-.1-.036-.147l-.025.059c-.027-.1-.055-.21-.087-.315-.016-.053-.031-.106-.049-.159a1.462,1.462,0,0,0-.054-.15.2.2,0,0,0-.19-.143c-.042,0-.112.008-.167.01a.713.713,0,0,0-.157.023c0-.007-.018-.006-.04,0s-.06.033-.1.053c-.076.037-.152.056-.137.031l.02,0c.108-.049-.042-.011-.132.012.042-.005.02.008,0,.02s-.064.035.076,0a1.735,1.735,0,0,1-.182.057.69.69,0,0,1-.311.071.575.575,0,0,0-.375.15c.008-.015.012-.018.012-.021a.522.522,0,0,0-.131.306.712.712,0,0,0,.007.225l-.008.023c.063.2.075.221.152.463,0,0-.016-.029,0,.009a1.367,1.367,0,0,1,.1.279l-.005-.006a1.761,1.761,0,0,1,.059.27c-.008,0,0,.03,0,.076a.518.518,0,0,0,.026.16,1.783,1.783,0,0,1,.065.174.232.232,0,0,1,.006.128,3.428,3.428,0,0,1-.008.343s0,.006-.007.021a.328.328,0,0,1-.275.322c-.078.02-.044.018-.007.016a1.313,1.313,0,0,1-.285,0,.655.655,0,0,1-.206-.049c-.107-.052-.033-.031-.059-.051-.075-.043-.072-.035-.076-.03s-.017.009-.1-.082c.02.02.06.052.046.038a.448.448,0,0,1-.093-.144c-.023-.058-.039-.116-.054-.156a.465.465,0,0,0,.012.056.6.6,0,0,1-.043-.241c0-.074-.009-.131-.026-.141l-.011.016c-.031-.258-.025-.107-.066-.367l0,0c-.03-.111-.027-.177-.066-.225l.007.039c-.04-.138-.041-.15-.078-.291a.447.447,0,0,1-.03-.1,1.62,1.62,0,0,1-.106-.393c.029.114.027.057.031.022a.364.364,0,0,1-.049-.206c-.034-.009-.079-.02-.106-.212.009.029.018.075.023.056a.209.209,0,0,0-.013-.079c0-.01.007,0,.012.01s.011.02.016.009a.538.538,0,0,1-.032-.183c0-.034,0-.07,0-.11l.012-.136c0,.066.016.012.035-.007-.018-.012,0-.079.032-.129s.052-.089.011-.066a1.468,1.468,0,0,1,.185-.263,1.8,1.8,0,0,1,.244-.219,1.423,1.423,0,0,1,.393-.221c.041,0,.114-.078.167-.109l0,.024c.133-.121.111-.08.274-.213-.064.063-.026.057.06.038l.106-.106.04.02A.51.51,0,0,1,29.61,8.7c.035-.061.246-.141.275-.173A.174.174,0,0,0,30,8.505c.04-.016.077-.032.108-.016a.4.4,0,0,1,.071-.037c-.036-.014-.054-.035.007-.039l.013,0,.032.022a1.023,1.023,0,0,1,.156-.045.387.387,0,0,1-.063,0H30.4l.021,0-.013,0a.383.383,0,0,0,.127-.018A1.029,1.029,0,0,0,30.7,8.36c.057-.008.117-.016.179-.022a.89.89,0,0,1,.185-.006.466.466,0,0,1,.177.043.179.179,0,0,0-.1-.014,3.961,3.961,0,0,1,.5.137l0-.031a.86.86,0,0,1,.364.2l.028-.019a1.133,1.133,0,0,1,.236.34.819.819,0,0,1,.053.191.243.243,0,0,1-.006.11c.033.028.049.2.087.284l-.017.029a1.06,1.06,0,0,0,.1.238,3.8,3.8,0,0,0,.238.635l-.006,0c.029.068.057.135.083.205-.036-.051.026.039.037.106a.708.708,0,0,1,.045.268l.019.141c-.038-.154-.031.016-.058.027l.03.086c0,.017-.009.007-.015,0s-.011-.023-.01.013c.021.058.028.234.054.288a.16.16,0,0,0,.017-.057c0-.008,0-.007,0,0v0a.158.158,0,0,0,.011.024c-.005.112.005.071.016.066a2.32,2.32,0,0,1-.06.281c.025-.045.019.031.013.107s-.01.148.015.111c-.045.09-.007.064-.044.12a1.24,1.24,0,0,0-.015-.366l-.028.1c-.039-.068.024-.23.009-.292a.286.286,0,0,1-.01.136l.033-.026a.991.991,0,0,0-.037-.368c0,.052-.011.017-.02-.017s-.019-.062-.029-.027l.009.077c0,.01-.007.011-.01.006a6.136,6.136,0,0,1-.017.828c.026.021.021.2.046.148a.4.4,0,0,0-.035.176c.007.088.041-.1.056-.137,0,.1.006.1.013.108-.044.082-.1.139-.111.048-.005.049-.009.1-.014.145.007-.031.009.009,0,.062l-.009,0a.051.051,0,0,1,0-.016c-.018.185-.037.369-.05.553a.315.315,0,0,1-.322.314,16.8,16.8,0,0,1-2.543.506.916.916,0,0,1-.262-.008l.022,0c.049.009.087.014.032.011.027,0,.055,0,.082.005h-.011A.932.932,0,0,1,29.525,14.228Zm3.206-1.583a.511.511,0,0,0,.016-.174C32.742,12.528,32.737,12.587,32.731,12.644Zm.02-.21h0v-.012Zm-1.493-1.35c.011.018.021.035,0-.031ZM32.76,11c.021.011.044.021.051-.048a.42.42,0,0,0-.075-.242.918.918,0,0,1-.126-.263c-.006-.008,0-.006,0,0s.035.006-.015-.1a.884.884,0,0,0-.189-.263c.08.2.161.4.225.606a.191.191,0,0,1-.006-.048.65.65,0,0,0,.061.175l-.015-.115c.025.09.016.169.054.3a.01.01,0,0,1,.009-.006A.047.047,0,0,1,32.76,11Zm.089-.052,0,0c0-.03,0-.053-.005-.053S32.846,10.914,32.848,10.949ZM28,10.712c.016.061.032.121.05.18,0-.018,0-.045,0-.075,0-.012,0-.025-.006-.037l-.017-.045.013.022c-.006-.031-.01-.062-.015-.093-.007,0-.011.008-.011.038l.013.033c-.011-.019-.021-.033-.026-.033S28,10.7,28,10.712Zm4.174-1.285c0-.013.011-.031.021-.028a.628.628,0,0,0-.054-.1C32.15,9.343,32.161,9.385,32.173,9.427Zm-2.963-.454.1-.052c-.015-.015-.027-.029-.025-.045C29.26,8.909,29.236,8.941,29.211,8.973Zm2.629-.224a.7.7,0,0,1,.116.116.03.03,0,0,0,0-.024.493.493,0,0,0-.1-.15.932.932,0,0,0-.11-.1c-.028,0-.052.031-.068.066a.942.942,0,0,1,.138.082l.047-.029ZM29.606,8.71a.031.031,0,0,1,0-.013C29.586,8.709,29.6,8.706,29.606,8.71Zm1.054-.218a2.327,2.327,0,0,1,.246-.006c.079-.034.153-.06.2-.081l-.156.012L30.91,8.4A.566.566,0,0,0,30.66,8.492Zm38.752,4.934-.026,0Zm-38.126-.714h0Zm36.362-.3a.591.591,0,0,1-.114-.018c.046.01.129.012.1.008a.533.533,0,0,1-.263-.1.657.657,0,0,1-.177-.21.5.5,0,0,0,.047.083.823.823,0,0,1-.151-.378.872.872,0,0,0-.055-.234l-.009.026c-.033-.219-.04-.263-.046-.311a1.535,1.535,0,0,1-.019-.318l0,.006a3.292,3.292,0,0,0-.005-.394l-.006.066c.008-.24.013-.262.033-.5A1.273,1.273,0,0,1,67,9.957c-.02-.013.028-.508.03-.649,0,.165.013.08.025.028a1.371,1.371,0,0,1-.013-.345c-.036-.02-.071-.049-.106-.352.011.046.022.12.026.089A.473.473,0,0,0,66.94,8.6c0-.015.007,0,.013.016s.013.032.017.015c-.03-.1-.042-.187-.064-.276a.316.316,0,0,0-.143-.232c.059.031.023-.013,0-.035-.018.015-.087-.027-.169-.044s-.145-.029-.093,0a3.485,3.485,0,0,0-.479-.019h-.517a6.317,6.317,0,0,1-.735-.018,2.079,2.079,0,0,0-.331.014l.014-.022c-.145.021-.2.025-.264.03a1.2,1.2,0,0,1-.123,0,.458.458,0,0,1-.238-.073c.087.046.117.039.1.025a.678.678,0,0,1-.116-.121.55.55,0,0,1-.094-.1.528.528,0,0,1-.077-.128.375.375,0,0,1,.026-.064.209.209,0,0,1,.056-.184.368.368,0,0,1,.083-.064c.027-.015.054-.028.077-.038a1.377,1.377,0,0,1,.189-.15c.1-.069.207-.133.232-.158.117-.006.254-.14.346-.125a.9.9,0,0,1,.116-.065c-.057,0-.084-.019.012-.043l.022-.009.05.013a2.046,2.046,0,0,1,.253-.09c-.03.006-.065.009-.1.014.042-.009.083-.013.121-.019l.035-.009-.021.007a1.21,1.21,0,0,0,.206-.047c.176-.011.366-.05.566-.069a1.523,1.523,0,0,1,.548.036.29.29,0,0,0-.113-.008,1.828,1.828,0,0,1,.237.039,1.26,1.26,0,0,0,.192.034.216.216,0,0,0,.123-.019.088.088,0,0,0,.044-.072l-.03,0a.364.364,0,0,0,0-.1c0-.039-.012-.076-.02-.13a2.5,2.5,0,0,1-.031-.289l-.033-.009a4.072,4.072,0,0,1,.047-1.017c-.023-.065.017-.361,0-.505l.023-.038a1.591,1.591,0,0,0-.056-.411c0-.047-.009-.094-.016-.14s-.021-.09-.032-.134c0-.017-.016-.055-.021-.084s-.01-.057-.013-.082a1.072,1.072,0,0,0-.02-.127.084.084,0,0,0-.077-.074.609.609,0,0,0-.081,0,.971.971,0,0,1-.153,0l0-.007a.657.657,0,0,1-.224-.044A.479.479,0,0,1,66,3.206c.051.047.031.03-.01-.017a.478.478,0,0,1-.093-.2.763.763,0,0,1-.028-.245.791.791,0,0,1,.052-.262.773.773,0,0,1,.124-.252c-.1.18-.053.122,0,.063.028-.031.059-.062.071-.057a.664.664,0,0,1,.111-.132c.027-.013.016,0,0,.015s-.035.036.024,0A.6.6,0,0,1,66.5,2a1.052,1.052,0,0,1,.156-.02.578.578,0,0,0,.1-.014.389.389,0,0,0-.089-.019c-.012,0-.012,0,0,0h0a.277.277,0,0,0,.039-.009c.174.009.11,0,.1-.015.189.037.3.009.443.035-.065-.015.041-.022.155-.034s.258-.031.19-.046a.412.412,0,0,0,.121,0,.192.192,0,0,1,.081,0c-.211.022-.414.083-.583.112l.17.008a.782.782,0,0,1-.321.029,1.149,1.149,0,0,0-.155,0,.9.9,0,0,1,.222,0L67.084,2c-.119,0-.225.006-.324.012a1.049,1.049,0,0,0-.289.045c.088-.013.035,0-.019.024s-.1.059-.045.045a.654.654,0,0,1,.124-.039c.017,0,.018,0,.01.01a.582.582,0,0,1,.105-.006,5.679,5.679,0,0,0,.922-.057l-.1.008.062-.03.045.021q.172-.023.342-.053c.027-.035.311-.1.224-.106a.518.518,0,0,1,.071,0,.751.751,0,0,0,.223-.037c.09-.03-.016-.02-.116-.01-.052.006-.1.011-.124.011.166-.044.164-.052.167-.062.146.009.262.049.119.1l.239-.049c-.052.006.01-.014.1-.032l.009.009L68.8,1.8c.225-.046.45-.091.678-.128q.745-.12,1.5-.192c.3-.029.708.107.73.314a.713.713,0,0,1-.6.706c-.642.158-1.282.322-1.957.492l.009.014L69.2,3s.051-.009-.036.011l.039.06.015.033-.055-.093-.012,0c.065.121.137.237.21.351-.047-.082-.09-.159-.032-.077-.026-.038-.05-.077-.074-.115.025.037.235.358.291.415l.246.355c0-.005,0,0,.009,0s.018.015-.007-.02c.063.086.119.161.042.044a6.774,6.774,0,0,1,.415.664A3.654,3.654,0,0,1,70.414,5l.065.184c.022.057.053.114.082.172a.91.91,0,0,1,.077.192,1.7,1.7,0,0,1,.018.2.594.594,0,0,0,.037.17.082.082,0,0,0,.093.057.448.448,0,0,0,.155-.058c.027-.015.051-.03.081-.048a.347.347,0,0,1,.109-.04,1.425,1.425,0,0,1,.2-.018l.191-.009c.07-.006.03-.013,0-.018a.56.56,0,0,0,.193-.008.379.379,0,0,1,.1-.012.856.856,0,0,1,.283.1c.117.048.036-.008.047-.011a.513.513,0,0,1,.261.366.783.783,0,0,1-.035.416.87.87,0,0,1-.546.5c-.069.01-.068,0-.066-.005s0-.017-.094,0c.064,0,.063.008.027.018a.348.348,0,0,1-.077.015c-.028,0-.075.008-.1.011-.089.013-.192.082-.174.085-.069.02-.169.083-.276.127l-.045.016c-.013,0-.02.005-.03.008a.244.244,0,0,1-.048.007.206.206,0,0,1-.077-.011.047.047,0,0,1-.03-.019h-.02s-.008,0,0,0l.011.025a.4.4,0,0,0,.018.039.1.1,0,0,0,.026.036c.012.008.017-.006.014-.023.015.04.026.068.041.116s.036.107.05.159c.028.1.056.2.085.3.006.069.052.351.069.643a5.133,5.133,0,0,1,.015.7c.025-.151.017.01.05.148l.018-.129c.01.1.02.21.036.313.012.063.015.08.012.08.009.052-.021-.009,0,.125a.892.892,0,0,0,.122.316l-.006-.032.024.066a.525.525,0,0,1,.027.1c.005.037,0,.023-.007-.011a.447.447,0,0,0-.023-.064l-.022-.045c-.015-.028-.028-.05-.031-.043a.073.073,0,0,0,0,.033l.009.038c.005.017.01.038.017.063a.34.34,0,0,1,.039.145.418.418,0,0,1-.034.215.318.318,0,0,0,.022-.158c-.006-.011-.015.014-.026.05a.753.753,0,0,1-.1.265.682.682,0,0,0,.081-.068.6.6,0,0,1-.216.259.608.608,0,0,1-.322.082.97.97,0,0,1-.6-.149,1,1,0,0,1-.347-.512,2.939,2.939,0,0,1-.143-.582,1.465,1.465,0,0,0-.014-.269c-.009-.132-.011-.257.009-.222l0,.03c.016.193.025-.058.016-.214,0,.069-.011.028-.02-.012-.012-.056-.023-.112-.018.119l-.026-.307a2.24,2.24,0,0,1-.046-.529,2.037,2.037,0,0,0-.035-.367.508.508,0,0,0-.156-.294.377.377,0,0,0,.032.024.712.712,0,0,0-.542-.163.589.589,0,0,0-.352.092.269.269,0,0,0-.033.012.348.348,0,0,0-.084.179.915.915,0,0,0-.016.157c0,.107,0,.222-.007.433,0-.006,0-.055-.007.012.008.1.015.2.012.494l0-.012V9.5c-.029,0,.018.776-.012.912.008.089.012.42.017.567,0,0,0,.01,0,.035a5.989,5.989,0,0,1-.009.7c-.008.128,0,.074.013.018a.957.957,0,0,1-.145.447.558.558,0,0,1-.3.2c-.1.023-.114.019-.115.015s.015-.011-.011-.011c-.14.018-.128.017-.128.025s0,.006-.031.007H67.7Zm3.6-2.59,0-.049c-.006-.014-.011-.027-.013-.027A.276.276,0,0,0,71.249,9.821Zm-4.191-.767c.008.1.013.2.014.307.006-.029.013-.073.022-.124,0-.021,0-.043,0-.064s-.005-.052-.008-.075l.008.036c0-.051,0-.1-.005-.153-.005,0-.009.017-.011.061a.561.561,0,0,1,.008.056c-.008-.035-.017-.06-.022-.06S67.058,9.043,67.057,9.054ZM64.038,7.936a.323.323,0,0,1-.164-.088c-.006.022-.012.043-.034.039A.338.338,0,0,0,64.038,7.936Zm-.162-.623a.087.087,0,0,1,.012-.018c-.032.017-.028.017-.021.016Zm1.678-.594a3.14,3.14,0,0,1,.408-.028c.13-.035.252-.063.321-.079-.086,0-.172,0-.256.01L65.963,6.6A1.147,1.147,0,0,0,65.554,6.72Zm3.711-.25.02.018.008,0,.007-.009,0,.008.017-.005s0-.009-.01-.011a.027.027,0,0,1,0,.008c0-.012,0-.023,0-.026A.108.108,0,0,1,69.265,6.47Zm-.028-.061a.083.083,0,0,0,.029.011c-.016,0-.008.016,0,.027.008-.023.011-.025.031-.015-.013-.034-.025-.068-.019-.077,0,.006,0,.01.006.015s0,0,0-.007.006.013.015.021c-.015-.035.013-.022.008-.047.009.011.017.009.03.011-.04-.015.044-.022-.013-.027a.039.039,0,0,0,.012-.032.037.037,0,0,0,0-.018l0-.009-.008-.016c-.02-.042-.036-.078-.025-.1s-.025-.024-.031-.037l.021-.007c-.053-.02-.026-.023-.083-.05.032.008.04,0,.052-.031L69.2,6.009l.031-.02c-.018-.007-.019-.022-.02-.038a.063.063,0,0,1-.049-.022c-.012-.011-.022-.023-.033-.022.041-.032-.027-.032.012-.058a.093.093,0,0,1-.023-.01c-.018.015-.04.025-.035.009l0,0,.026-.016a.088.088,0,0,1-.024-.029.051.051,0,0,1-.009.017.136.136,0,0,1,.008-.02.008.008,0,0,1,0,0l0,0a.018.018,0,0,0-.01-.027c.027-.059-.1-.075-.055-.144,0,.009,0,.021.008.02-.017-.039.011-.093-.021-.111l-.027.011a.17.17,0,0,1-.046-.069l-.032.009c0-.038-.076-.1-.018-.138-.028,0-.008-.05-.022-.066l.022-.013a.072.072,0,0,0-.025-.054c.033-.069-.031-.1-.041-.146l.007,0-.031-.04c.025,0-.017,0-.015-.02a.048.048,0,0,1-.008-.058l-.008-.03c.025.027.031-.014.055-.025l-.026-.011a.013.013,0,0,1,.014,0c.006,0,.009,0,.01-.007-.018-.007-.03-.044-.059-.045a.043.043,0,0,0-.013.018s0,0,0,0v0h-.011c0-.025-.009-.013-.02-.008.028-.039,0-.045.031-.077-.016.016-.02,0-.025-.015s-.011-.031-.03-.014c.028-.034,0-.014.023-.039,0,.031.042.044.066.059l.014-.031c.046,0,0,.055.021.061-.013,0-.011-.025,0-.032l-.028.018c0,.036.032.05.057.065,0-.013.009-.008.018,0s.02.009.03,0l-.011-.015a.011.011,0,0,1,.009,0c-.017-.043-.035-.085-.053-.128v.012h-.023l.022-.015-.019-.046a.063.063,0,0,1-.035,0c-.015,0-.027-.009-.036,0,.005-.018.023-.021,0-.045s-.021.036-.029.048c-.019-.016-.026-.013-.035-.01.027-.033.079-.073.1-.06l-.015-.032c0,.009-.011,0-.017-.006l.009-.006,0,0a2.819,2.819,0,0,0-.45-.693c0,.019,0,.038,0,.057,0-.013.007-.025.013-.012l0-.018c.007.006.011.058.022.068a.524.524,0,0,1,0,.059s0,0,.006,0,.006,0,.006,0c0,.015.007.027.009.008a1.129,1.129,0,0,0,.02.211.676.676,0,0,1,.022.21c0,.009.012,0,.017,0-.022.027.017.023.022.037l-.033.039a.017.017,0,0,0,.022,0l.009,0c.018.07-.015.141.016.2-.014.019-.035,0-.039.022.021-.018.028,0,.034.021s.009.033.021.027c-.042.027,0,.084-.07.078,0,.029.032.022.037.013a.107.107,0,0,0,.027.086c-.015.02.03.151-.023.184.035-.023.019,0,.036.018l.03-.02v.044c0,.009,0,.011,0,.011s-.018,0-.025.019.017.03.035.045l0-.005,0,.02c0,.006-.006,0-.013-.009s-.026-.021-.033.008c.008,0,.051.026.029.04,0-.025-.021-.02-.03-.01v.035l.039-.015c0,.1-.023.206-.019.312-.027,0,0,.076-.038.07l0,0c-.006-.026-.03.01-.023.031,0-.01.012-.005.019,0s.021.013.022-.018l.018.04c.066.017-.006.112.016.174a.008.008,0,0,0-.006-.006c.016.055-.008.128,0,.14l-.011.006a.175.175,0,0,1,.02.11s-.006-.007-.007,0a.1.1,0,0,1,.02.065h0c0,.02,0,.042.008.06-.014,0-.005.026,0,.051s.026.045.017.06a.086.086,0,0,1,.026.017.1.1,0,0,0,.028.011s0,0,0,.005a.045.045,0,0,1,.036,0,.127.127,0,0,0,.042,0c.015-.007.007-.011,0-.015a.087.087,0,0,0,.057-.018.111.111,0,0,1,.035-.018c.023-.007.012.009.02.015.034-.015-.015-.028.036-.032-.006,0-.015.008-.011.009a.081.081,0,0,1,.036.008c.017.007.034.013.044.006l-.014,0a.074.074,0,0,1,.053-.005c.02,0,.036.006.036-.009l0-.013a.086.086,0,0,0,.044,0c.008,0,.014-.005.05.006v0c.031,0,.039.023.063.005l-.009-.007A.132.132,0,0,1,69.2,6.4l0,0s.013,0,.013.009.005-.006.008-.006A.04.04,0,0,1,69.236,6.409Zm-2.215-.515a1.791,1.791,0,0,0-.031.28c0,.113,0,.216,0,.23a.1.1,0,0,0,.092.041c0-.03,0-.062-.008-.1-.008-.057-.014-.114-.019-.171L67,6.148l.05-.009c-.007-.091-.011-.182-.012-.274A.058.058,0,0,0,67.021,5.894Zm2.242.128.057,0L69.31,6A.222.222,0,0,1,69.263,6.022Zm-.042-.071h-.01C69.213,5.958,69.215,5.953,69.22,5.951Zm-.114-.289-.017.015a.215.215,0,0,0,.1.023l-.018-.053c-.04,0-.078-.009-.1-.009Zm-.029-.253a.375.375,0,0,0-.047.088.4.4,0,0,0,.085-.022L69.1,5.44l-.049.012.047-.016L69.091,5.4A.08.08,0,0,0,69.077,5.409Zm-.056-.126a.087.087,0,0,0,.035.015l-.009-.029A.068.068,0,0,1,69.021,5.283ZM68.5,5.174l.007-.007-.009,0S68.494,5.165,68.5,5.174Zm.329-.22c-.017.069.074.024.088.095.009,0-.042,0-.018.031a.155.155,0,0,0,.1.039c-.016-.046-.032-.092-.049-.137a.024.024,0,0,1,0,.013c.005-.014-.009-.03-.023-.036l-.006.03c-.008-.02.018-.046-.005-.071C68.888,4.93,68.85,4.92,68.827,4.953Zm-1.771.121c0-.076.006-.151.007-.226-.008.02-.021.045-.03.036A1.765,1.765,0,0,0,67.057,5.075Zm1.734-.109h0C68.789,4.979,68.786,4.986,68.791,4.966ZM68.8,4.61l0,0v0Zm0-.009c-.005-.012-.009-.023-.015-.035A.028.028,0,0,0,68.794,4.6ZM66.546,3.329c0,.012.053.008.143.014a.157.157,0,0,1,.131.1c.025.056.039.127.06.178a.5.5,0,0,0,.04.079c-.057-.183.022-.471-.332-.444a.554.554,0,0,1-.4-.086.55.55,0,0,0,.053.045.432.432,0,0,1-.118-.107.652.652,0,0,1-.075-.134.421.421,0,0,0,.079.186.4.4,0,0,1-.088-.22,1.9,1.9,0,0,1-.009-.283c-.01.015-.019,0-.028-.018s-.032-.055-.064.061a.53.53,0,0,0,.11.447.6.6,0,0,0,.5.163h.008C66.564,3.312,66.544,3.321,66.546,3.329ZM69.138,3a.161.161,0,0,1,.008.015l.011,0L69.149,3Zm-3.238-.3V2.688C65.891,2.788,65.885,2.839,65.9,2.695Zm1.231-.665Zm.141-.072Zm.816-.011.023,0,0,0Zm.084-.016.285-.057A1.356,1.356,0,0,0,68.172,1.931Zm-56.025,9.6a.008.008,0,0,0,0,0A.009.009,0,0,1,12.146,11.526Zm0-.5h.014v.023Zm45.7-.351-.008.038C57.841,10.7,57.843,10.689,57.846,10.677Zm-44.3-.058Zm63.062-.312c.057.005.112.011.051.011l.081,0-.117,0c-.074,0-.16-.006-.187,0l-.258-.006c.008,0-.035,0,.007.005-.064,0-.12,0-.036,0a2.274,2.274,0,0,1-.922-.161,1.049,1.049,0,0,1-.388-.277.593.593,0,0,1-.112-.462c.005-.044,0-.02-.011,0,.033-.117.015-.117.039-.186a.336.336,0,0,1,.147-.122c.043-.03.03-.03.018-.029s-.01,0-.009,0a.608.608,0,0,1,.246-.068C75.241,9,75.315,9,75.388,9a3.5,3.5,0,0,0,.409-.031c.08.008-.017.031.088.029-.139-.029.269-.037.223-.059.11.032.372-.011.329.055.127,0,.1-.032.068-.037a2.379,2.379,0,0,0,.388-.025c.041.008.21,0,.386.015.09.005.169.01.241.012s.124,0,.155,0c-.087-.015.008-.015.059-.06a.406.406,0,0,1-.066-.007.226.226,0,0,0,.108-.063c.012-.02.016-.025.018-.024S77.8,8.8,77.8,8.8s.016,0,.033-.032a.18.18,0,0,0,0-.1c-.005-.022-.016-.039-.025-.069l0,.018c0-.025-.008-.051-.012-.076s.007.005.018.035.035.086.031-.028a.3.3,0,0,1-.064-.17c.023.107.042.088.041.047l-.033-.15-.026.059c-.1-.429-.177-.881-.287-1.337.028,0-.075-.324-.028-.292v.019c.032.111.022-.04-.006-.13.005.041-.008.019-.021,0s-.035-.061-.006.074l-.059-.175c-.087-.084-.1-.481-.189-.749a.073.073,0,0,0,.012.025c-.071-.239-.114-.547-.134-.6l.006-.025a3.131,3.131,0,0,1-.124-.475s.012.03.005-.009a1.74,1.74,0,0,1-.079-.285l0,.006L76.8,4.108c.027,0-.122-.449-.109-.536-.021-.05-.066-.243-.09-.328,0,0,0-.007,0-.021-.039-.1-.061-.295-.089-.407-.021-.073-.019-.04-.016-.007-.02-.148-.111-.4-.12-.449s-.011-.066-.005-.064.008,0,.008-.009c-.021-.072-.027-.07-.033-.069s-.011,0-.034-.11c.008.024.022.068.019.05a2.775,2.775,0,0,0-.047-.312l.008.054c-.051-.142-.068-.353-.1-.368l-.009.018c-.062-.253-.039-.1-.108-.358l0,0c-.042-.107-.044-.173-.089-.216l.011.038c-.052-.134-.057-.141-.108-.283a.25.25,0,0,1-.027-.115A.248.248,0,0,1,75.877.41a.482.482,0,0,1,.171-.19c-.1.083-.042.054-.009.04a.289.289,0,0,1,.186-.117.078.078,0,0,1,.026-.064A.365.365,0,0,1,76.433,0c-.032.011-.081.028-.06.03a.421.421,0,0,0,.086-.021c.022,0-.045.02-.02.029A.551.551,0,0,1,76.9.094c-.067-.023-.017.012,0,.035.018-.016.076.033.113.081s.061.088.057.04a.952.952,0,0,1,.14.3,2.708,2.708,0,0,0,.107.281,2.74,2.74,0,0,1,.166.4c0,.042.069.119.1.176h-.023a2.9,2.9,0,0,1,.185.3c-.056-.073-.053-.034-.046.055.031.04.061.081.09.123l-.027.037a.492.492,0,0,1,.047.184.4.4,0,0,1,.058.146,1.045,1.045,0,0,0,.039.17.168.168,0,0,0-.015.12c.005.038.01.072-.013.095.007.019.016.043.024.07.018-.03.042-.042.037.011l0,.012-.027.026c.013.053.028.107.035.142a.3.3,0,0,1,.005-.057c0,.023,0,.046,0,.067l0,.019a.035.035,0,0,1,0-.011.264.264,0,0,0,.025.113c0,.2.19.392.211.616-.006-.033-.021-.077-.036-.085a3.411,3.411,0,0,0,.169.454L78.333,4a2.767,2.767,0,0,1,.157.317l.033-.007c.053.151.226.466.191.584.037.03.062.217.095.3l-.018.03a1.664,1.664,0,0,0,.078.255,4.425,4.425,0,0,0,.143.666l-.006,0,.055.208c-.032-.051.023.039.027.1a.82.82,0,0,1,.032.258l.02.135c-.039-.148-.031.016-.056.029l.034.083c0,.016-.009.007-.015,0s-.012-.022-.01.013a2.39,2.39,0,0,0,.08.275.161.161,0,0,0,.01-.057c0-.007,0-.007,0,0v0a.191.191,0,0,0,.013.022c.009.108.014.067.025.062-.021.121.008.184-.016.275.015-.039.023.033.032.1s.018.145.035.1c-.024.1.007.062-.016.125a1.432,1.432,0,0,0-.088-.35l-.008.1c-.052-.059-.017-.229-.04-.286a.3.3,0,0,1,.011.134l.028-.03a1.227,1.227,0,0,0-.083-.355c0,.051-.009.018-.022-.015s-.025-.06-.031-.025l.016.075c0,.011-.006.011-.011.006q.049.305.1.609L79.119,7.7l.027.035-.022.028c.011.068.021.137.032.205.03.017.066.185.079.133a.45.45,0,0,0,.008.182c.023.09.02-.116.022-.15.025.1.031.1.039.1-.025.1-.082.164-.1.066a1.508,1.508,0,0,1,0,.159c.006-.044.012,0,.009.054l-.009,0a.126.126,0,0,1,0-.015,2.68,2.68,0,0,0,.007.927c.066.225-.119.353-.328.478a4.1,4.1,0,0,1-2.018.417C76.781,10.315,76.7,10.31,76.611,10.307Zm1.184-1.49c0,.013,0,.03.016-.014C77.8,8.808,77.8,8.814,77.794,8.817Zm1.4-.609A.821.821,0,0,1,79.2,8.3a.426.426,0,0,0-.023-.181C79.186,8.148,79.191,8.178,79.2,8.208Zm-.02-.126h0l0-.009Zm-.181-1.419c.02.011.042.022.052-.045-.007-.265-.1-.2-.148-.513,0-.008,0-.006,0,0s.033.01,0-.1a.859.859,0,0,0-.148-.29q.077.321.138.644a.3.3,0,0,1,0-.058.553.553,0,0,0,.044.179l-.006-.115a2.321,2.321,0,0,0,.035.3.011.011,0,0,1,.009-.005A.059.059,0,0,1,78.994,6.663Zm.09-.048,0,0,0-.051S79.084,6.581,79.084,6.615Zm-.514-1.57c0-.014.01-.034.021-.032a.465.465,0,0,0-.068-.1C78.539,4.953,78.556,5,78.57,5.044Zm-.27-.727.063.152a.038.038,0,0,0,.008-.022,2.384,2.384,0,0,0-.049-.307.11.11,0,0,0-.093.007l.063.148h.054ZM77.933,3.4a1.315,1.315,0,0,0,.152.143l-.074-.129.008-.042a.926.926,0,0,0-.161-.208C77.882,3.247,77.907,3.325,77.933,3.4ZM77.8,2.111Zm-.012-.01a.037.037,0,0,1,.012.008c0-.012,0-.016-.006-.016S77.79,2.1,77.787,2.1Zm-.156-.33c.017-.012.033-.023.048-.018-.028-.031-.057-.059-.086-.087Q77.612,1.717,77.63,1.77ZM76.195.175a.789.789,0,0,0-.155.112.375.375,0,0,1,.069-.027l.04-.024.033-.026-.015.016c.026-.014.054-.027.082-.039,0-.005-.013-.006-.04,0l-.028.021c.019-.021.033-.036.02-.036ZM55,9.975l.005,0Zm-4.59-.612c.006.02.012.041.018.061C50.423,9.4,50.418,9.38,50.412,9.362Zm16.613-.074v0ZM76.1,8.933l.009,0ZM4.26,8.66a1.49,1.49,0,0,1-.339-.081c-.016,0-.009.005-.005.01-.023-.018-.033-.014-.045-.01a.041.041,0,0,1-.021,0,.607.607,0,0,1-.05-.044c-.027,0-.011.014-.015.018-.117-.029-.208-.1-.3-.124-.021-.025.021-.023-.013-.045.016.031-.017.019-.049.008s-.051-.018-.049-.006c-.018-.052-.121-.071-.073-.118-.039-.027-.049,0-.04.017a.3.3,0,0,0-.136-.057C3.1,8.2,2.9,8.115,2.89,8.041c.006.045-.014.012-.049.007l.007.042L2.79,8.047c-.014-.006-.017-.009-.015-.011S2.788,8.023,2.767,8a.073.073,0,0,0-.061-.019H2.684l0,.008-.029-.016c-.007-.005,0,0,.014,0s.055.005.018-.033c-.006.007-.068.014-.072-.017.032.025.04,0,.033-.012l-.046-.034L2.6,7.916c-.132-.1-.255-.219-.4-.321.018-.021-.1-.074-.064-.1l0,.006c.038.021.007-.032-.025-.048.023.031-.074-.008,0,.049L2.047,7.48c-.068.031-.142-.115-.238-.162.007,0,.01,0,.012,0a.867.867,0,0,1-.175-.16l0-.015A.275.275,0,0,1,1.528,7s.01.009,0-.006a.183.183,0,0,1-.046-.11l0,0a.365.365,0,0,1,0-.11c.014,0,.015-.044.027-.093s.037-.1.059-.1a.5.5,0,0,1,.062-.116s0,0,.008,0c.014-.042.081-.086.117-.112.021-.021.008-.018-.005-.014a.882.882,0,0,1,.169-.1c.046-.009.02.009.033.014.066-.013-.015-.033.078-.026-.011,0-.031.005-.023.006a.147.147,0,0,1,.063.023.14.14,0,0,0,.06.023l-.02-.01a.146.146,0,0,1,.078.025c.029.017.052.034.063.021V6.295c.085.057.045.009.126.072h0c.04.019.049.049.08.037L2.45,6.4a.957.957,0,0,1,.1.059c.006,0,.031.011.035.02.016-.019.115.055.134.069-.039-.019-.027,0-.023.016a.06.06,0,0,1,.071.034.077.077,0,0,1,.111-.021c-.012,0-.028-.006-.026,0s.02.011.026.011-.021,0-.021.018c.06-.005.07.039.136.063-.025,0-.013.015-.014.03.013-.016.026,0,.037.015s.024.037.03,0c.094.1.285.171.309.231,0,.022.05.015.07.025l-.014.018a.209.209,0,0,1,.068,0A.265.265,0,0,0,3.544,7c-.04.009-.035.026-.017.06l.068-.019-.008.036a.081.081,0,0,1,.062.028A.1.1,0,0,1,3.725,7.1c.022,0,.041.007.051,0,0,.055.061.012.057.061a.115.115,0,0,1,.032-.006c0-.025.006-.049.02-.031h.005l0,.03a.219.219,0,0,1,.056.01.077.077,0,0,1-.014-.021c.007.007.012.015.018.023l.007,0h0a.039.039,0,0,0,.041.015c.025.033.065.032.105.032s.092,0,.121.043c-.009-.01-.025-.017-.032-.008.065.016.117.077.164.064l.005-.029a.429.429,0,0,1,.129.011l.01-.032c.052.025.186,0,.206.076.011-.014.036,0,.061.009a.135.135,0,0,0,.051.016l0,.027a.182.182,0,0,0,.1.013c.076.071.168.039.244.062v.007l.081,0c-.013.008-.008,0,0,0a.054.054,0,0,1,.039,0,.135.135,0,0,1,.1.04l.052.02c-.064-.008-.006.033-.012.059l.04-.007c.009.017-.028.011-.006.026a.171.171,0,0,1,.053.008.142.142,0,0,0,.069.007A.061.061,0,0,0,5.555,7.6s0,0,0,0l0,0,0,0,.013,0c.039.029.028.011.032,0,.026.06.064.06.072.114,0-.025.022-.008.045.015s.05.055.054.025c0,.059.017.026.01.068a.2.2,0,0,0-.137-.087l.018.045c-.046.016-.063-.069-.094-.07a.053.053,0,0,1,.041.036l.008-.032a.172.172,0,0,0-.142-.045c.03.025-.05,0-.035.036l.028.007a.008.008,0,0,1,0,.01.556.556,0,0,1,.239.187c.012-.007.028,0,.044.011s.033.021.038.006c0,.03-.015.026.012.074.026.029.016-.051.016-.071.028.037.033.036.041.034-.021.051-.069.088-.094.057a.521.521,0,0,1,.016.061c0-.023.011-.009.016.013l-.009,0s0-.01-.006-.015a.826.826,0,0,1,.013.238c-.03.364-.26.357-.489.348a1.444,1.444,0,0,0-.177,0c-.083.007-.167,0-.251,0-.032,0-.063,0-.095.007.021,0,.041,0,.018.007l.031,0c-.01,0-.1.008-.113.011l-.1,0s-.013,0,0,0c-.024,0-.045,0-.013,0C4.493,8.687,4.376,8.679,4.26,8.66ZM2.786,8.032c.011,0,.02,0-.005-.012Zm2.978-.013a.063.063,0,0,0-.026-.063A.376.376,0,0,1,5.763,8.019Zm-.031-.076h0l0,0S5.732,7.942,5.732,7.943Zm-.058-.221ZM5.3,7.647c0-.025.043-.045.013-.088a.08.08,0,0,0-.1-.006.126.126,0,0,1-.1.008c-.012.005.032-.033-.031-.035a.211.211,0,0,0-.129.054l.234.051a.047.047,0,0,1-.017-.013.083.083,0,0,0,.069.006L5.2,7.6C5.23,7.606,5.248,7.645,5.3,7.647Zm-.657-.132.049.011a.045.045,0,0,1,0-.03A.118.118,0,0,0,4.644,7.515Zm.682.008h0L5.31,7.511ZM4.413,7.46l.059.014a.034.034,0,0,0,0-.015.632.632,0,0,0-.09-.1.238.238,0,0,0-.033.082l.058.015.02-.046Zm-.435-.135c.028.011.055.022.084.032a.745.745,0,0,0,.095-.067L4.1,7.3l-.006-.024A.253.253,0,0,0,3.978,7.325ZM3.641,7.11,3.648,7.1h0S3.642,7.105,3.641,7.11Zm-.184-.026L3.5,7.1A.136.136,0,0,1,3.52,7.06Zm.191.02Zm-.96-.5.012.008.018,0-.011,0,.028.018a.016.016,0,0,0,0-.019H2.719c.016,0,.027-.008.022-.016l-.066-.025A.277.277,0,0,1,2.689,6.6ZM3.37,8.39v0A.017.017,0,0,1,3.37,8.39ZM71.347,7.261l.018,0a.057.057,0,0,1-.017,0Zm3.145-.083c-.023,0-.009.015-.012.02a.617.617,0,0,1-.266-.143c-.01-.029.026-.015.007-.045,0,.032-.021.014-.042-.007s-.034-.035-.04-.024c.012-.049-.062-.095,0-.12-.019-.033-.042-.01-.041,0a.2.2,0,0,0-.084-.085c0-.029-.132-.16-.107-.224-.015.042-.017.008-.044-.006l-.014.037-.029-.052c-.009-.009-.009-.013-.007-.014s.017-.008.011-.034-.035-.028-.061-.039v.008l-.017-.022c0-.007.005,0,.016,0s.04.017.027-.023c-.008,0-.062-.008-.052-.035.016.03.032.015.033,0l-.022-.042-.026.034c-.064-.121-.105-.259-.169-.389.025-.011-.041-.094,0-.1v.006c.019.03.022-.023.005-.046,0,.014-.009.01-.018.006s-.026-.01-.011.03c-.013-.014-.027-.029-.039-.044-.07,0-.053-.143-.1-.215,0,0,.007.005.008.005a1.077,1.077,0,0,1-.061-.18l.008-.011a.284.284,0,0,1-.062-.137s.007.008.006,0a.181.181,0,0,1-.041-.081h0l-.028-.079c.028-.008-.059-.131-.037-.164a.544.544,0,0,1-.042-.1s0,0,0-.007c-.023-.027-.022-.09-.03-.124s-.012-.011-.015,0c0-.047-.046-.12-.045-.137-.008-.033.009-.015.015-.025s-.013-.021-.019-.02-.011,0-.012-.034c0,.007.008.021.008.015,0-.026.031-.078.018-.1l0,.018c-.021-.044.015-.113-.015-.116l-.013.006c.006-.082-.012-.033-.007-.116h0c-.009-.035.01-.056-.017-.074l0,.013a.267.267,0,0,1,.006-.1c0-.006,0-.032.008-.037-.027-.011.03-.117.047-.132-.017.037,0,.025.017.022a.047.047,0,0,1,.034-.062.07.07,0,0,1,0-.11c0,.012-.012.027,0,.027s.015-.018.017-.023,0,.02.012.024c.01-.057.054-.055.1-.1-.011.021.008.018.021.025-.018-.042.092-.008.044-.048.063-.014.131-.041.2-.056a.2.2,0,0,1,.158.011c.006.011.022.008.04,0a.074.074,0,0,1,.035,0l-.009.021c.075-.018.051,0,.143,0-.045.005-.035.023-.023.058a.378.378,0,0,1,.071,0l-.017.033a.067.067,0,0,1,.047.047c.045-.009.088.063.112.066-.034.042.04.052,0,.085a.1.1,0,0,1,.026.02c.017-.017.04-.029.037-.005l0,0-.026.015a.154.154,0,0,1,.026.039.07.07,0,0,1,.008-.021c0,.008,0,.016-.007.023a.014.014,0,0,1,0,.006l0,0a.027.027,0,0,0,.012.033c-.026.072.11.1.074.18,0-.012,0-.025-.012-.025.023.049.008.116.044.137l.025-.015a.322.322,0,0,1,.065.083l.03-.014c.01.047.1.111.057.169.029,0,.023.061.045.081l-.018.018a.126.126,0,0,0,.045.065c-.011.089.067.122.094.18l-.006,0,.046.048c-.027,0,.019,0,.023.024a.083.083,0,0,1,.029.074l.018.038c-.035-.033-.027.02-.049.035l.031.013c0,.007-.008.006-.014.006s-.01,0-.008.009c.021.008.045.055.075.057a.053.053,0,0,0,.008-.024s0,0,0,0v0l.012,0c.009.033.013.017.022.01-.017.051.01.059-.009.1.012-.02.021,0,.03.021s.02.042.033.02c-.021.044.006.019-.014.051-.007-.042-.052-.062-.082-.082l-.006.039c-.047,0-.019-.07-.04-.079a.032.032,0,0,1,.012.04l.025-.023c-.009-.047-.049-.065-.079-.084,0,.016-.007.011-.018.005s-.024-.01-.03.005l.015.018a.008.008,0,0,1-.008.006q.064.11.123.221a.053.053,0,0,1,.037.009c.016.008.028.016.036,0,0,.023-.018.024.008.057.025.017.013-.043.018-.059.021.025.028.021.035.019-.02.04-.06.082-.086.063l.021.042c0-.011.009,0,.017.011l-.008.005a.006.006,0,0,1,0,0,2.871,2.871,0,0,1,.228.62,3.16,3.16,0,0,1,.026.449.516.516,0,0,1,0,.08c0-.018.007-.037.009-.018l0-.025a.57.57,0,0,1,0,.095.424.424,0,0,1-.017.078s0,0,0,0,0,.005,0,0c-.006.019-.011.036,0,.012a.46.46,0,0,1-.464.308c-.013,0-.006.008,0,.011-.036-.015-.036.008-.058.011A.4.4,0,0,1,74.492,7.177Zm-.669-.661c.009,0,.018,0,0-.012Zm.956-.985a.05.05,0,0,0-.022-.045Zm-.028-.056h0l0,0Zm-.2-.389c.017-.018.059-.008.072-.052-.006-.089-.085-.025-.126-.113-.011,0,.044,0,.007-.04a.178.178,0,0,0-.115-.041c.032.056.066.112.1.168a.042.042,0,0,1,0-.017c0,.018.021.037.037.044l0-.038C74.534,5.021,74.517,5.057,74.548,5.086Zm.1-.07h0c0-.009,0-.016,0-.016A.15.15,0,0,1,74.653,5.016Zm-.371-.361a.052.052,0,0,1,.022-.02.1.1,0,0,0-.041-.016Zm-.109-.209.021.042s.01,0,.013-.009a.468.468,0,0,0,.024-.113.283.283,0,0,0-.083.03c.007.015.015.029.022.044l.047-.017Zm-.122-.273a.741.741,0,0,0,.108.017l-.04-.032.016-.018a.252.252,0,0,0-.112-.038Zm-.926-.294c-.009.018-.016.039-.023.057l.03-.009.006-.007a.1.1,0,0,1,0-.019l0,.012a.255.255,0,0,1,.017-.023.016.016,0,0,0-.018,0l0,.012c0-.013-.006-.023-.012-.023Zm.818-.112.01,0,0,0S73.946,3.763,73.943,3.766Zm.011,0Zm-.166-.048.027.016a.368.368,0,0,1,.029-.043A.37.37,0,0,0,73.787,3.715Zm.352,3.263a.012.012,0,0,1,0,0A.016.016,0,0,0,74.139,6.978Zm-17.794-.4,0,.006A.013.013,0,0,1,56.345,6.573ZM35.153,6a.135.135,0,0,1,0,.018C35.152,6.015,35.153,6.009,35.153,6ZM49,5.5h-.013a.283.283,0,0,1-.02-.034l-.028,0-.043,0-.028,0a.13.13,0,0,1,.026.019l-.032-.02-.01,0h.006a.081.081,0,0,0-.065-.008.277.277,0,0,0-.171-.009.332.332,0,0,1-.242-.03c.022.012.054.02.063.009a.863.863,0,0,1-.328-.152l-.014.027a.425.425,0,0,1-.179-.241l-.033,0a1.123,1.123,0,0,1-.04-.263c0-.1.043-.211.1-.231,0-.023.023-.066.062-.105s.085-.071.112-.1l.03.009c.078-.043.12-.072.162-.1a2.675,2.675,0,0,0,.413-.119l0,.006.117-.046c-.026.028.021-.02.059-.023a.292.292,0,0,1,.149-.028l.078-.02c-.081.039.016.03.028.054l.043-.034c.023.006-.026.028.013.024.029-.022.127-.051.149-.085a.079.079,0,0,0-.037-.008s0,0,0,0h0a.063.063,0,0,0,.01-.014c.064-.012.037-.015.032-.026a.234.234,0,0,0,.09,0,.16.16,0,0,1,.079,0c-.054-.024.167-.046.109-.075.032.009.041.007.048.005s.01,0,.032.005a.538.538,0,0,0-.191.1l.065,0c-.024.053-.135.027-.165.051a.112.112,0,0,1,.079-.016L49.486,4a.459.459,0,0,0-.2.092c.059-.006-.061.04-.013.052l.043-.018c.006,0,.008,0,.007.007q.173-.054.344-.114l-.03.006L49.654,4l.022.018.118-.041c0-.03.1-.074.061-.084a.1.1,0,0,1,.026,0c.017,0,.028.005.08-.02.029-.021-.012-.018-.05-.013a.263.263,0,0,1-.044,0c.055-.03.052-.036.051-.044.059.016.113.053.072.085l.079-.03c-.015,0,0-.011.031-.022l.006.008,0,0c.5-.193,1-.408,1.495-.618a.369.369,0,0,0,.271-.433c-.013-.049-.028-.1-.044-.147.007.033.013.064,0,.03l.015.047c-.008-.014-.045-.146-.057-.173-.014-.05-.027-.1-.039-.15,0,0,0,0,0,0s0-.008,0,.008c-.009-.037-.018-.07-.008-.02a1.021,1.021,0,0,1-.036-.281.454.454,0,0,1,.1-.269.594.594,0,0,1,.238-.165.442.442,0,0,1,.291-.03c.027,0,.013,0,0-.01.068.035.072.014.112.028a.57.57,0,0,1,.077.076c.039.018.018-.008.023-.01a1.787,1.787,0,0,1,.368.4c.015.049-.031,0,0,.064,0-.052.026,0,.055.044s.045.076.05.064c0,.077.077.218.007.211.017.075.045.054.044.03a.993.993,0,0,0,.076.225,1.864,1.864,0,0,1,.044.479c.025-.051.018.006.041.053l.025-.05.015.112c.008.022.007.028,0,.029,0,.019-.018,0-.018.048a.19.19,0,0,0,.056.113l0-.013c0,.016.008.033.014.049s-.007,0-.018-.021-.037-.052-.03.022c.009,0,.066.059.053.1-.014-.061-.033-.048-.036-.023l.022.088.03-.04a4.5,4.5,0,0,1,.131.825c-.012,0-.012.045-.012.091s0,.1-.024.089l0-.011c0-.07-.031.021-.026.076.005-.024.012-.01.019,0s.019.04.024-.041l.016.108c.033.03.032.106.012.2a.641.641,0,0,1-.134.278c.009-.011.009-.016.009-.018a.373.373,0,0,1-.215.132c-.073.016-.13.019-.147.024l-.015-.01a.535.535,0,0,1-.143.018.449.449,0,0,1-.162-.039h0c.005,0,.012,0-.006-.008a.292.292,0,0,1-.164-.094h.006a.612.612,0,0,1-.106-.134c.012-.007-.028-.066-.061-.136A.419.419,0,0,1,52.3,4.9a1.516,1.516,0,0,1-.07-.193s0,0,0-.013a1.426,1.426,0,0,1-.06-.242c-.015-.042-.015-.022-.015,0a.566.566,0,0,0-.046-.15c-.023-.046-.047-.08-.053-.093-.03-.048,0-.025,0-.042-.028-.032-.033-.021-.037-.018s-.007,0-.042-.028c.01,0,.028.014.023.008a.346.346,0,0,0-.057-.047.1.1,0,0,0-.082-.009.14.14,0,0,1,.031,0c-.074.017-.2.056-.191.089l.014.006c-.129.082-.046.047-.18.134v0c-.055.044-.1.049-.109.091l.021-.011a1.438,1.438,0,0,1-.151.1.146.146,0,0,1-.055.037c.009.023-.17.117-.206.133.051-.033.032-.032.012-.032h-.009a.139.139,0,0,1-.108.066c.008.035.014.073-.086.128.013-.013.036-.029.023-.03s-.033.018-.041.025.017-.023,0-.029c-.055.064-.118.06-.214.116.028-.025,0-.02-.019-.027.008.045-.153.023-.094.06a4.925,4.925,0,0,1-.6.179c-.027-.01-.074.037-.109.05l0-.023c-.086.072-.073.04-.174.119.039-.042.015-.047-.04-.051l-.064.072-.027-.028a.215.215,0,0,1-.1.039c-.019.048-.141.089-.153.118-.021-.019-.036-.008-.057.006s-.062.037-.085.02a.153.153,0,0,1-.064.029c.023.017.037.038.007.038Zm-.412-.121A.375.375,0,0,0,48.74,5.3l-.148-.011c-.05.031-.095.062-.124.081.033,0,.064-.009.095-.014Zm.786-.088c.016-.006.006-.006,0-.012A.045.045,0,0,1,49.37,5.287Zm.183-.139a.089.089,0,0,1,.017.048l.05-.07Zm-1.493-.2a.256.256,0,0,0-.009.115.294.294,0,0,0,.025.1.118.118,0,0,0,.08-.038.405.405,0,0,1-.05-.083l-.051.009L48.1,5.03a.514.514,0,0,1-.029-.094h0A.028.028,0,0,0,48.06,4.949Zm2.875-.288.093-.065a.4.4,0,0,1-.048,0l-.021.011-.02.02.008-.013-.047.024c0,.005.008.008.025,0l.015-.015C50.928,4.65,50.922,4.663,50.936,4.661ZM48.1,4.654a.372.372,0,0,1,.04-.066c-.011,0-.026,0-.032-.005A.151.151,0,0,0,48.1,4.654Zm.546-.411a.354.354,0,0,0-.159.129c.086-.029.178-.052.27-.075l.1-.027a.1.1,0,0,1-.026,0,.2.2,0,0,0,.1-.037l-.07,0c.053-.015.1.006.179-.028-.02-.02.028-.066-.04-.081-.159,0-.106.091-.291.129-.007,0,0,0,0-.011s0-.013-.016-.013A.137.137,0,0,0,48.643,4.243Zm.349-.155v0C48.962,4.089,48.946,4.088,48.992,4.088Zm.521-.062Zm.342-.071.007,0h0Zm-.31,0Zm.341-.011.088-.033A.187.187,0,0,0,49.885,3.943Zm3.368-.532,0-.019s-.008-.009-.01-.009S53.245,3.39,53.253,3.411ZM26.146,5.338l-.01,0ZM68.48,4.752l0,0ZM55.118,4.158a.762.762,0,0,1-.1-.007c.109-.006-.007-.033,0-.061l-.055.014c-.018-.016.037-.015,0-.027a.329.329,0,0,1-.084,0,.292.292,0,0,0-.1,0,.09.09,0,0,0,.03.028c.005,0,0,0,0,0l0,0,0,0-.018.006c-.068-.028-.046-.01-.047,0-.062-.063-.118-.068-.15-.136.01.031-.03.006-.068-.033s-.075-.1-.078-.058c-.007-.082-.023-.045-.016-.1a.292.292,0,0,0,.194.171.465.465,0,0,1-.039-.061c.031,0,.054.023.081.047s.054.05.074.049a.1.1,0,0,1-.072-.043v.037a.308.308,0,0,0,.223.044c-.054-.023.071-.008.035-.04l-.044,0c-.006-.005,0-.009,0-.012a.669.669,0,0,1-.194-.07l0,0,0,0a.359.359,0,0,1-.163-.2c-.015,0-.03-.018-.043-.037s-.032-.049-.041-.03c0-.043.025-.03.007-.106-.022-.046-.028.063-.037.087-.018-.059-.025-.056-.035-.057.032-.052.088-.094.112-.051,0-.025-.006-.049-.009-.073,0,0-.011-.014-.013-.039l.008,0c-.026-.215-.05-.43-.073-.65,0,0,0,0,0,0v0c-.045-.444-.088-.9-.139-1.4,0-.011.02-.071.039-.145-.014.031-.027.063-.023.027l-.008.046c0-.016.029-.143.026-.171a.6.6,0,0,0,.016-.139s0,0-.006,0S54.3.952,54.3.966c0-.035-.007-.067-.009-.02a.743.743,0,0,1,.025-.279.317.317,0,0,1,.239-.176.406.406,0,0,1,.3.024.338.338,0,0,1,.155.259c.008.024.013.008.017,0-.01.072.026.063.036.1-.007.034-.017.066-.026.1.011.023.018.018.024.012s.005-.006.008,0a.819.819,0,0,0,.157.417c.01.045-.035.009-.008.061,0-.048.027-.009.058.03s.051.065.054.046c0,.074.113.184.04.2.035.064.057.037.051.015a1.464,1.464,0,0,0,.122.2.775.775,0,0,0,.024.084c.011.035.015.064.023.092a.07.07,0,0,0,.057.056.13.13,0,0,1,.059.014c-.032-.027,0-.02.032-.046a.065.065,0,0,1-.033-.023l.037-.009c.027-.006.041-.007.06-.01s.028-.007.028,0,.009,0,.012.009.011.009.035.009a.189.189,0,0,0,.111-.053l-.012,0,.049-.012c.019,0-.012.011-.033.024s-.029.027.032.024c0-.009.063-.062.1-.046-.061.009-.05.029-.025.035l.086-.013-.036-.034c.247-.04.508-.057.771-.1,0,.013.041.008.082,0s.1-.012.088.01l-.011,0c-.055.013,0,.023.052.016l.023,0c-.057,0,.092-.053-.043-.036l.1-.033c.046-.074.278-.037.431-.081-.011,0-.013.007-.014.009.136-.037.315-.037.345-.051l.014.009a1.028,1.028,0,0,1,.273-.059s-.017.008.005.006a.613.613,0,0,1,.163-.042l0,0,.152-.029c0,.014.068,0,.141-.008a.407.407,0,0,1,.174.007c.031-.007.142-.01.19-.019,0,0,0,0,.012,0a.461.461,0,0,1,.246.03c.045.014.028,0,.011-.012a.627.627,0,0,1,.146.094.307.307,0,0,1,.078.1c.016.042.011.042,0,.042s-.007,0-.007.007c.015.043.022.041.028.04s.011,0,.02.069c-.005-.015-.012-.042-.012-.031.011.052-.023.141-.015.188l.006-.032a.328.328,0,0,1-.014.14c-.012.042-.026.073-.014.085l.015,0c-.031.074-.043.087-.049.1a.221.221,0,0,1-.075.089v0c-.052.052-.1.05-.115.088l.024-.008a.617.617,0,0,1-.171.059.145.145,0,0,1-.059.018c0,.025-.182.063-.219.071.063-.021.03-.024.009-.03a.127.127,0,0,1-.113.039c0,.035,0,.074-.1.106.015-.01.039-.02.027-.024s-.034.01-.041.015.02-.019.006-.028c-.061.053-.119.035-.216.074.029-.02,0-.02-.015-.03,0,.022-.035.021-.065.021s-.056,0-.03.022a5.01,5.01,0,0,1-.589.09c-.025-.013-.074.027-.109.034V3.04c-.09.059-.073.029-.18.091.043-.035.021-.044-.031-.056l-.07.061L57.386,3.1a.193.193,0,0,1-.1.02c-.025.044-.142.063-.157.09-.022-.021-.044-.013-.065,0s-.041.017-.058,0a.189.189,0,0,1-.038.027c.021.018.032.04,0,.037l-.007,0-.02-.026a.476.476,0,0,1-.084.031.162.162,0,0,1,.036.007l-.042-.006-.012,0,.007,0a.1.1,0,0,0-.07.015.335.335,0,0,0-.17.034.307.307,0,0,1-.228.022c.021.006.05.006.057-.005a.6.6,0,0,1-.162-.011.384.384,0,0,0-.137-.009l0,.03a1.1,1.1,0,0,1-.194,0l-.005.033a.432.432,0,0,0-.145.009c-.043.01-.06.014-.085-.012.006.026-.035.011-.039.044l-.027,0a.145.145,0,0,0-.012.1.24.24,0,0,0-.023.079.872.872,0,0,0,.007.09.319.319,0,0,1-.083.284l-.007,0a.516.516,0,0,1-.133.12c.03-.04-.022.031-.074.04a.251.251,0,0,1-.126.03A.264.264,0,0,1,55.118,4.158Zm.075-.022c.039,0,.059,0,0,0Zm-.03-.125c.018.021-.044.061.029.086a.165.165,0,0,0,.156-.064c.027-.039.057-.07.128-.153,0-.01,0,0,.012.008s.027,0,.047-.061a.181.181,0,0,0-.017-.126.263.263,0,0,0-.055-.076c0,.03,0,.061.009.1a.248.248,0,0,1-.146.222.15.15,0,0,1,.036-.011.33.33,0,0,0-.092.058.407.407,0,0,0,.069-.014C55.289,4,55.239,3.989,55.164,4.011Zm-.655-.371.006.012,0-.011h0Zm0-.02c0-.008,0-.015-.005-.023l-.008-.068A.138.138,0,0,0,54.508,3.619Zm2.038-.427c-.039.041-.076.08-.1.106l.085-.033.024.018a.316.316,0,0,0,.128-.112C56.638,3.178,56.592,3.186,56.546,3.192Zm-.64,0a1.409,1.409,0,0,0,.162.086.159.159,0,0,0,.026-.086L56,3.187l-.015.049,0-.05c-.031,0-.062,0-.094-.006A.034.034,0,0,0,55.906,3.2Zm-.337.066c.01,0,.025,0,.028.014l.036-.056A.259.259,0,0,0,55.569,3.263Zm1.714-.138c.017,0,.007,0,0-.011A.022.022,0,0,1,57.283,3.124Zm.193-.108a.1.1,0,0,1,.01.053L57.544,3Zm1.364-.255.1-.04-.046-.008-.018,0-.025.015.011-.011-.05.012c0,.006.007.009.022.01l.017-.011C58.835,2.748,58.827,2.76,58.841,2.761Zm-3-.651-.018,0C55.815,2.116,55.806,2.124,55.842,2.11ZM54.7,3.9h0ZM53.013,2.3a.025.025,0,0,1,0,.007S53.013,2.306,53.013,2.3Zm2.319-.778v0Z" transform="translate(261.131 184.533)" fill="#2a4c24" stroke="#2a4c24" stroke-linecap="round" stroke-linejoin="round" stroke-miterlimit="10" stroke-width="0.4"/>
    </g>
  </g>
  <rect id="矩形_69" data-name="矩形 69" width="96" height="72" transform="translate(0 0)" fill="none"/>
</svg>
