<svg xmlns="http://www.w3.org/2000/svg" width="180.75" height="70.75" viewBox="0 0 180.75 70.75">
  <g id="bottom_07" data-name="bottom/07" transform="translate(-864.625 -823.624)">
    <g id="Group_23" data-name="Group 23" transform="translate(-720.801 505.571)">
      <g id="Group_21" data-name="Group 21" transform="translate(1585.801 318.428)">
        <path id="Path_12" data-name="Path 12" d="M1761.563,348.373c-1.071.286-2.012.484-2.831.657-1.189.25-2.08.848-2.825.916-2.041.184-2.575-.7-2.723-.976-.186.006-.45.36-.674.346-1.075-.068.312-.663,1.131-.7,1.115-.512,3.493-1.468,3.633-1.494.613-.112,2.756.108,4.917.173a33.487,33.487,0,0,0-3.024-3.217c-.968-.88-2.021-1.815-3.232-2.717-.213-.159-.49-.527-.706-.685-1.668,0-1.683.053-3.349.131s-1.653.424-3.322.5a6.631,6.631,0,0,1-3.222-.278c-1.895-.534,1.438-.643,3.481-1.254a33.229,33.229,0,0,1,3.644-.655c-.883-.595-1.685-.763-2.6-1.332s-1.78-1.164-2.717-1.7-1.876-1.012-2.83-1.518-1.914-.939-2.885-1.415-1.957-.855-2.942-1.3-1.929-.916-2.927-1.335-1.954-.867-2.963-1.26-1.891-1.051-2.911-1.418-1.988-.7-3.017-1.039c.277.661-.7,1.124-2.116,1.344-.1.073-.184.453-.476.528-.46.118-2.23-.351-3.868-.192-1.687.165-3.412.8-3.794.642a7.087,7.087,0,0,0-3.174-.128,27.575,27.575,0,0,0-3.291.294c-1.148.238-2.389-.021-3.368.191-1.7.367-2.89.975-3.122.527-.422-.817.47-1.348,2.05-1.786a18.661,18.661,0,0,1,3.084-.865c.993-.12,2.092-.1,3.2-.162,1.05-.059,2.133-.206,3.2-.22,1.1-.016,2.187.312,3.207.337-.11-.069-.488.068-.587-.008-.505-.392,1.381-1.136,3.366-1.287a27.377,27.377,0,0,1,3.54.061c-1.222-.384-2.423-.79-3.665-1.143s-2.419-.9-3.673-1.224-2.559-.089-3.819-.378c-2.433.016-2.423.267-4.857.279-1.452.007,1.164-.485,2.9-.964-1.241-.267-2.615-.512-3.87-.751s-2.432-.847-3.693-1.058-2.59.334-3.853.153c-.951.079-1.974-.122-3.066-.069-1.015.049-2.075-.2-3.112-.185-1.065.016-2.114.108-3.1.077-1.143-.036-2.192-.138-3.081-.253-2.86-.368-2.482-.254-.661-.468a35.16,35.16,0,0,1,3.664-.6c-1.159-.1-2.352.074-3.513-.006s-2.305-.391-3.467-.446-2.318-.334-3.481-.367-2.333-.01-3.495-.02-2.335-.239-3.5-.226-2.317.635-3.479.672-2.357-.519-3.518-.459-2.3.6-3.457.687-2.361-.209-3.517-.1-2.308.379-3.46.513-2.233.855-3.38,1.014-2.339.085-3.482.271-2.416-.219-3.554-.006-2.2.908-3.326,1.15-2.356.183-3.479.454-2.251.632-3.366.932-2.274.549-3.377.882-1.818.962-2.909,1.327c1.22,1.676.479,1.822-.525,1.963a12.832,12.832,0,0,0-2.933.728,18.7,18.7,0,0,1-3.081.306,28.139,28.139,0,0,1-3.124.367c-1.052.471-1.928,1.4-2.944,1.9-1.032.511-2.187.777-3.18,1.321-1.009.553-1.916,1.256-2.882,1.843-.982.6-2.123.954-3.058,1.585-.952.643-1.948,1.237-2.848,1.915s-1.343,1.936-2.2,2.663-1.664,1.514-2.475,2.292-1.892,1.322-2.65,2.151-1.857,1.429-2.552,2.308-1.385,1.821-2.014,2.75-1.236,1.917-1.79,2.892-.5,2.253-.975,3.27-1.055,1.974-1.442,3.028-.893,2.059-1.19,3.143c-.293,1.066-.01,2.258-.217,3.365-.2,1.084-.852,2.107-.971,3.228a8.027,8.027,0,0,0,.558,3.222,8.841,8.841,0,0,0,1.641,2.773,13.538,13.538,0,0,0,2.391,2.2,21.208,21.208,0,0,0,2.731,1.831c.925.528,1.582,1.665,2.665,2.144.986.437,2.167.566,3.276.963,1.024.367,2.139.579,3.261.912,1.049.311,1.995,1.121,3.125,1.4,1.067.267,2.205.421,3.34.662,1.08.23,2.3-.06,3.436.147,1.091.2,2.194.419,3.334.6,1.1.171,2.218.3,3.359.453,1.1.146,2.205.412,3.345.54,1.108.124,2.258-.034,3.4.074,1.113.105,2.187.754,3.328.844,1.116.088,2.247.181,3.388.254,1.119.071,2.274-.271,3.415-.214,1.121.056,2.222.794,3.363.836,1.123.042,2.28-.636,3.42-.608,1.125.029,2.254.125,3.394.141s2.257-.211,3.4-.207,2.257.19,3.4.182,2.269.494,3.406.474,2.259-.242,3.4-.272,2.243-.568,3.379-.61,2.267.1,3.4.048,2.292.436,3.425.373,2.212-.9,3.343-.974,2.309.521,3.439.438,2.208-.8,3.337-.891,2.313.4,3.441.3,2.2-.763,3.326-.876,2.269-.105,3.393-.231,2.3.1,3.421-.037,2.2-.658,3.32-.8,2.287-.041,3.4-.2,2.228-.436,3.342-.6,2.389-.087,3.5-.268c-.644-.2-.907-.277-1.077-.472-.407-.468,1.478-.563,2.322-.318,1.1-.184,2.129-.173,3.209-.367s2.2-.273,3.278-.48c1.093-.21,2.225-.194,3.3-.414,1.09-.224,2.072-.878,3.14-1.113,1.087-.239,2.166-.452,3.228-.7,1.085-.255,2.167-.462,3.223-.729,1.083-.274,2.174-.46,3.225-.745,1.077-.292,2.286-.108,3.328-.412,1.073-.314,2.14-.623,3.174-.95,1.067-.337,1.875-1.359,2.9-1.71,1.06-.363,2.033-.594,3.041-.972a2.9,2.9,0,0,1-1.071-.7c-.321-.328,1.259-.6,3.277-.9,1.139-.174,2.367-.559,3.53-.678,1.013-.458,1.864-1.087,2.8-1.564.994-.506,1.916-1.025,2.814-1.552.965-.566,2.319-.5,3.168-1.084a28.6,28.6,0,0,0,2.249-2.357,25.214,25.214,0,0,0,2.539-2.021,15.618,15.618,0,0,0,1.779-2.686c-.03.011-.038.324-.071.335a4.3,4.3,0,0,1-4.046-.378c-.256-.161-.09-.485.314-.527a31.437,31.437,0,0,1,3.769-.506c.489-1,1.228-1.631,1.383-2.674s-.462-2.056-.663-3.145c-.185-1,.272-2.252-.229-3.285a19.274,19.274,0,0,0-1.764-2.957C1762.694,347.816,1761.976,348.263,1761.563,348.373Z" transform="translate(-1585.801 -318.428)" fill="#2a4c24"/>
      </g>
      <g id="Group_22" data-name="Group 22" transform="translate(1585.801 318.428)">
        <path id="Path_13" data-name="Path 13" d="M1673.278,318.053c.6,0,1.2.059,1.776.115.537.052,1.093.107,1.63.111.43,0,.861,0,1.292,0h.546c.494,0,1.078,0,1.664.019a17.123,17.123,0,0,1,1.867.19c.534.074,1.085.151,1.621.177a16.238,16.238,0,0,1,1.861.233c.531.087,1.079.178,1.614.214.2.014.415.02.656.02.325,0,.661-.012.985-.024s.674-.025,1.013-.025c.32,0,.6.011.866.034l-.016.748a14.505,14.505,0,0,0-2.423.369l-.044.009c.879.1,1.714.162,2.539.188.133,0,.27.006.417.006.46,0,.927-.02,1.42-.041.406-.017.825-.035,1.246-.042a12.9,12.9,0,0,1,1.52.1,12.826,12.826,0,0,0,1.324.094c.088,0,.174,0,.256-.006.13-.006.262-.009.4-.009.406,0,.8.026,1.176.051.356.024.692.046,1.019.046.166,0,.315-.006.456-.017l.042,0,.042.006a3.558,3.558,0,0,0,.508.034,9.728,9.728,0,0,0,1.283-.116,10.413,10.413,0,0,1,1.378-.123,4.177,4.177,0,0,1,.693.054,12.541,12.541,0,0,1,1.981.558,12.705,12.705,0,0,0,1.72.5l1,.188c.961.18,1.955.365,2.878.564l1.494.322-1.473.406-.158.043c.492-.048,1.078-.089,2.013-.1h.044l.043.01a9.1,9.1,0,0,0,1.789.167,9.169,9.169,0,0,1,2.04.213,21.254,21.254,0,0,1,2.023.664c.543.2,1.1.4,1.659.562.864.246,1.721.521,2.549.787.369.118.75.241,1.126.359l2.879.9-.244-.014c.933.313,1.751.6,2.541.881a11.254,11.254,0,0,1,1.583.762,11.491,11.491,0,0,0,1.337.66c.642.25,1.273.526,1.883.793.356.156.725.317,1.089.47.66.277,1.307.581,1.934.874.328.154.668.313,1,.466.386.175.782.344,1.165.507.589.251,1.2.51,1.786.8.321.157.647.313.963.464.637.3,1.295.618,1.932.956q.382.2.761.4c.686.359,1.4.731,2.08,1.123.606.347,1.192.725,1.758,1.09.317.2.646.416.971.618a9.087,9.087,0,0,0,1.2.6,8.567,8.567,0,0,1,1.417.739l.759.511-.9.169c-.431.081-.866.141-1.287.2a15.234,15.234,0,0,0-2.319.446,21.732,21.732,0,0,1-2.4.51c-.229.04-.481.084-.711.127a4.629,4.629,0,0,0,1.34.226c.2,0,.418-.013.723-.03.19-.011.406-.023.665-.036a6.677,6.677,0,0,0,1.585-.239,7.4,7.4,0,0,1,1.738-.262c.556-.026.934-.049,1.238-.068.629-.039,1.008-.063,2.128-.063h.122l.1.072a3.208,3.208,0,0,1,.412.395,2.849,2.849,0,0,0,.3.292c1.258.937,2.342,1.906,3.26,2.74a33.279,33.279,0,0,1,3.059,3.254l.319.382a1.867,1.867,0,0,1,.245-.07l.233-.048.142.191a19.7,19.7,0,0,1,1.8,3.018,4.269,4.269,0,0,1,.25,2.189,5.061,5.061,0,0,0,.011,1.192,8.54,8.54,0,0,0,.311,1.1,4.689,4.689,0,0,1,.354,2.167,3.985,3.985,0,0,1-.709,1.636l-.44,1.453.256-.094-.241.427,0,0-.246.43c0,.017,0,.037-.007.052-.021.168-.049.4-.284.481h0l-.016.006-1.393,2.464.19-.626q-.159.2-.333.4a8.7,8.7,0,0,1-1.538,1.275c-.35.248-.711.5-1.039.784a7.5,7.5,0,0,0-.884.97,6.964,6.964,0,0,1-1.4,1.41,4.846,4.846,0,0,1-1.727.62,5.186,5.186,0,0,0-1.465.479c-1.058.62-1.959,1.117-2.834,1.563-.389.2-.76.423-1.153.66a15.855,15.855,0,0,1-1.66.912l-.056.025-.061.006a17.289,17.289,0,0,0-1.975.366c-.508.114-1.032.232-1.536.309a28.364,28.364,0,0,0-2.793.519,3.111,3.111,0,0,0,.685.375l.829.374-.852.319c-.579.217-1.156.389-1.713.556-.433.129-.881.263-1.338.42a5.111,5.111,0,0,0-1.292.779,5.645,5.645,0,0,1-1.613.934c-.973.307-1.994.605-2.982.894l-.2.058a7.64,7.64,0,0,1-1.761.226,7.463,7.463,0,0,0-1.574.188c-.583.158-1.185.288-1.767.413-.481.1-.978.211-1.464.334-.615.155-1.247.292-1.859.424-.449.1-.914.2-1.371.306-.669.157-1.357.3-2.021.443-.4.084-.807.171-1.212.26a8.332,8.332,0,0,0-1.46.525,8.808,8.808,0,0,1-1.684.59,15.411,15.411,0,0,1-1.725.221c-.523.047-1.063.1-1.577.194-.576.111-1.166.185-1.736.257-.51.065-1.036.131-1.547.223-.573.1-1.136.15-1.68.2-.5.042-1.016.085-1.533.172l-.084.014-.082-.024a4.053,4.053,0,0,0-1.035-.116,4.479,4.479,0,0,0-.507.026c.129.044.291.094.5.156l1.549.474-1.583.259a15.133,15.133,0,0,1-1.83.144,15.445,15.445,0,0,0-1.674.125c-.519.079-1.049.184-1.562.286-.581.115-1.181.235-1.785.32a14.845,14.845,0,0,1-1.777.107,15.031,15.031,0,0,0-1.631.092,9.958,9.958,0,0,0-1.573.385,10.438,10.438,0,0,1-1.751.419,7.487,7.487,0,0,1-.893.048c-.3,0-.6-.012-.9-.024s-.582-.024-.869-.024a6.937,6.937,0,0,0-.766.038c-.6.066-1.2.1-1.785.124-.53.026-1.078.052-1.611.107a6.969,6.969,0,0,0-1.561.417,7.51,7.51,0,0,1-1.769.459c-.115.011-.236.016-.36.016a8.807,8.807,0,0,1-1.472-.166,8.133,8.133,0,0,0-1.347-.156c-.092,0-.181,0-.266.011a6.2,6.2,0,0,0-1.556.423,6.74,6.74,0,0,1-1.783.468c-.081.006-.166.009-.251.009a7.36,7.36,0,0,1-1.592-.235,6.7,6.7,0,0,0-1.427-.217c-.059,0-.117,0-.173.005a5.14,5.14,0,0,0-1.544.46,5.668,5.668,0,0,1-1.8.515c-.074,0-.15.006-.227.006a8.686,8.686,0,0,1-1.6-.2,7.992,7.992,0,0,0-1.453-.185c-.052,0-.1,0-.154,0-.177.008-.361.012-.561.012-.411,0-.824-.017-1.225-.034s-.8-.033-1.189-.033c-.152,0-.293,0-.429.007a7.706,7.706,0,0,0-1.6.294,8.176,8.176,0,0,1-1.784.316c-.538.014-1.091.075-1.626.133-.579.063-1.177.129-1.773.139h-.074a8.321,8.321,0,0,1-1.74-.246,7.6,7.6,0,0,0-1.571-.228h-.1c-.579,0-1.157-.047-1.716-.093-.529-.043-1.077-.088-1.606-.089h-.026c-.529,0-1.074.052-1.6.1a16.389,16.389,0,0,1-1.773.1c-.629-.009-1.261-.042-1.872-.074-.5-.027-1.02-.054-1.526-.067h-.061a5.848,5.848,0,0,0-1.535.293,6.422,6.422,0,0,1-1.715.318l-.114,0a6.238,6.238,0,0,1-1.825-.443,5.672,5.672,0,0,0-1.543-.394c-.08,0-.163-.006-.248-.006a11.632,11.632,0,0,0-1.38.113,12.054,12.054,0,0,1-1.449.117c-.118,0-.233,0-.343-.01-.948-.061-1.9-.136-2.818-.209l-.576-.045a7.459,7.459,0,0,1-1.8-.447,6.92,6.92,0,0,0-1.531-.4c-.277-.026-.579-.038-.951-.038-.222,0-.449,0-.669.008s-.45.008-.676.008a9.865,9.865,0,0,1-1.11-.053c-.635-.071-1.26-.185-1.864-.295-.512-.093-1-.181-1.489-.246q-.5-.066-1-.129c-.781-.1-1.59-.2-2.371-.325-.807-.125-1.6-.273-2.367-.417q-.49-.092-.976-.18a5.431,5.431,0,0,0-.975-.073c-.214,0-.435.007-.649.013s-.44.014-.661.014a5.467,5.467,0,0,1-1.162-.1c-.459-.1-.927-.182-1.379-.264-.655-.118-1.332-.241-1.974-.4a7.577,7.577,0,0,1-1.776-.777,7.288,7.288,0,0,0-1.365-.631c-.443-.131-.892-.246-1.326-.356-.681-.173-1.325-.337-1.955-.563a14.6,14.6,0,0,0-1.462-.41,10.925,10.925,0,0,1-1.839-.563,5.583,5.583,0,0,1-1.635-1.26,5.5,5.5,0,0,0-1.064-.9,21.5,21.5,0,0,1-2.779-1.863l-.137-.109a12.978,12.978,0,0,1-2.317-2.159,9.129,9.129,0,0,1-1.7-2.892l-.072-.233a7.694,7.694,0,0,1-.5-3.139,7.467,7.467,0,0,1,.534-1.874,8.131,8.131,0,0,0,.441-1.384A7.447,7.447,0,0,0,1586.5,364a6.742,6.742,0,0,1,.152-1.909,17.293,17.293,0,0,1,.75-2.048c.153-.369.312-.75.449-1.125a17.479,17.479,0,0,1,.913-1.971c.183-.355.372-.722.541-1.086a6.5,6.5,0,0,0,.4-1.444,6.142,6.142,0,0,1,.584-1.853c.584-1.028,1.192-2.009,1.806-2.917.653-.964,1.336-1.9,2.03-2.773a8.536,8.536,0,0,1,1.431-1.326,9.637,9.637,0,0,0,1.138-1,9.377,9.377,0,0,1,1.486-1.234,10.753,10.753,0,0,0,1.181-.935l.293-.281c.7-.673,1.424-1.369,2.2-2.026a5.7,5.7,0,0,0,.963-1.2,5.845,5.845,0,0,1,1.255-1.479c.6-.453,1.248-.872,1.874-1.277.327-.211.664-.43.99-.65a11.893,11.893,0,0,1,1.7-.9,13.814,13.814,0,0,0,1.378-.7c.4-.24.791-.507,1.174-.765.55-.371,1.119-.754,1.722-1.085a12.66,12.66,0,0,1,1.748-.74,14.462,14.462,0,0,0,1.446-.588,9.115,9.115,0,0,0,1.326-.871,9.009,9.009,0,0,1,1.63-1.033l.069-.031.076,0a18.773,18.773,0,0,0,2.334-.254c.259-.039.5-.076.748-.11a14.332,14.332,0,0,1,1.49-.1,4.933,4.933,0,0,0,1.5-.18,12.873,12.873,0,0,1,3.021-.752c.233-.033.777-.109.83-.234.01-.024.082-.262-.556-1.138l-.3-.414.485-.162a8.112,8.112,0,0,0,1.325-.616,8.174,8.174,0,0,1,1.6-.714c.677-.2,1.378-.378,2.056-.545.438-.108.891-.22,1.332-.339s.868-.243,1.292-.366c.679-.2,1.38-.4,2.084-.569a12.323,12.323,0,0,1,1.868-.253,13.114,13.114,0,0,0,1.621-.2,8.706,8.706,0,0,0,1.533-.54,8.891,8.891,0,0,1,1.8-.612,4.5,4.5,0,0,1,.833-.07c.36,0,.724.031,1.077.061s.688.059,1.018.059a3.954,3.954,0,0,0,.635-.046,15.7,15.7,0,0,1,1.873-.154c.535-.022,1.088-.045,1.618-.119a7.117,7.117,0,0,0,1.562-.479,7.475,7.475,0,0,1,1.826-.537c.517-.06,1.047-.15,1.559-.237.622-.106,1.265-.215,1.91-.276.187-.018.381-.026.592-.026.43,0,.864.036,1.283.072s.824.069,1.225.069c.151,0,.29,0,.425-.015a8.8,8.8,0,0,0,1.609-.328,9.039,9.039,0,0,1,1.856-.359c.065,0,.131-.005.2-.005a8.072,8.072,0,0,1,1.689.241,4.989,4.989,0,0,0,3.251-.1,7.31,7.31,0,0,1,1.874-.351Zm4.153.979q-.377,0-.754,0c-.571,0-1.143-.061-1.7-.115a16.669,16.669,0,0,0-1.794-.111,6.654,6.654,0,0,0-1.681.323,5.688,5.688,0,0,1-3.611.109,7.407,7.407,0,0,0-1.531-.224c-.054,0-.108,0-.159,0a8.355,8.355,0,0,0-1.7.335,9.49,9.49,0,0,1-1.748.352c-.153.011-.31.017-.48.017-.432,0-.867-.036-1.287-.072s-.822-.069-1.221-.069c-.188,0-.359.007-.522.023-.617.058-1.246.165-1.854.269-.522.089-1.061.181-1.6.243a6.818,6.818,0,0,0-1.641.491,7.777,7.777,0,0,1-1.731.523c-.566.079-1.137.1-1.69.125a14.912,14.912,0,0,0-1.784.145,4.687,4.687,0,0,1-.756.056c-.363,0-.728-.031-1.082-.062s-.685-.059-1.013-.059a3.766,3.766,0,0,0-.695.057,8.208,8.208,0,0,0-1.649.565,9.4,9.4,0,0,1-1.668.583,13.678,13.678,0,0,1-1.715.217,11.581,11.581,0,0,0-1.755.235c-.688.165-1.381.366-2.051.56-.427.124-.869.252-1.305.369s-.905.234-1.347.343c-.669.165-1.36.336-2.02.535a7.47,7.47,0,0,0-1.454.656c-.311.168-.629.341-.985.493.413.65.521,1.1.365,1.471-.218.515-.855.6-1.416.684a12.144,12.144,0,0,0-2.845.705,5.341,5.341,0,0,1-1.757.234,13.538,13.538,0,0,0-1.413.1c-.239.033-.481.069-.737.108a19.966,19.966,0,0,1-2.351.26,8.751,8.751,0,0,0-1.425.921,9.8,9.8,0,0,1-1.44.94,15.014,15.014,0,0,1-1.521.62,11.918,11.918,0,0,0-1.645.693c-.573.314-1.127.688-1.663,1.049-.39.263-.794.536-1.2.785a14.369,14.369,0,0,1-1.453.739,11.164,11.164,0,0,0-1.59.837c-.332.224-.672.445-1,.658-.615.4-1.251.81-1.83,1.246a5.217,5.217,0,0,0-1.084,1.3,6.341,6.341,0,0,1-1.1,1.351c-.757.642-1.473,1.329-2.165,1.994l-.294.282a11.471,11.471,0,0,1-1.262,1,8.688,8.688,0,0,0-1.37,1.132,10.351,10.351,0,0,1-1.226,1.083,7.856,7.856,0,0,0-1.31,1.2c-.683.862-1.355,1.78-2,2.728-.6.891-1.2,1.856-1.774,2.867a5.51,5.51,0,0,0-.5,1.631,7.154,7.154,0,0,1-.459,1.611c-.175.378-.368.752-.554,1.114a16.91,16.91,0,0,0-.876,1.886c-.142.389-.3.778-.46,1.154a16.722,16.722,0,0,0-.72,1.959,6.091,6.091,0,0,0-.125,1.7,8.12,8.12,0,0,1-.085,1.636,8.8,8.8,0,0,1-.477,1.515,6.809,6.809,0,0,0-.489,1.684,7.124,7.124,0,0,0,.471,2.838l.072.235a8.419,8.419,0,0,0,1.579,2.653,12.449,12.449,0,0,0,2.19,2.031l.137.109a20.78,20.78,0,0,0,2.684,1.8,6.122,6.122,0,0,1,1.221,1.02,5.025,5.025,0,0,0,1.41,1.106,10.219,10.219,0,0,0,1.713.52,15.178,15.178,0,0,1,1.537.433c.6.214,1.224.373,1.887.542.441.112.9.228,1.355.364a7.954,7.954,0,0,1,1.51.691,7.017,7.017,0,0,0,1.6.708c.618.154,1.254.269,1.926.391.458.083.931.168,1.4.268a4.763,4.763,0,0,0,1.006.086c.209,0,.417-.006.638-.013s.446-.014.672-.014a6.147,6.147,0,0,1,1.109.085q.488.088.979.181c.762.142,1.55.29,2.345.413.771.12,1.539.218,2.351.322q.5.064,1,.13c.51.067,1.026.161,1.524.252.592.108,1.2.219,1.813.288a9.149,9.149,0,0,0,1.026.048c.219,0,.444,0,.662-.008s.454-.009.683-.009c.4,0,.721.013,1.022.042a7.579,7.579,0,0,1,1.7.434,6.8,6.8,0,0,0,1.62.41l.577.046c.916.073,1.864.148,2.806.208.094.006.193.009.3.009a11.32,11.32,0,0,0,1.358-.112,12.192,12.192,0,0,1,1.471-.118c.1,0,.193,0,.285.007a6.3,6.3,0,0,1,1.755.435,5.6,5.6,0,0,0,1.6.4,5.374,5.374,0,0,0,1.6-.288,6.219,6.219,0,0,1,1.818-.32c.516.013,1.04.041,1.546.068.6.032,1.228.065,1.843.073a15.581,15.581,0,0,0,1.691-.1c.545-.052,1.108-.106,1.673-.106h.029c.559,0,1.121.048,1.665.092.568.046,1.158.094,1.727.09h.031a8.274,8.274,0,0,1,1.728.245,7.29,7.29,0,0,0,1.644.229c.562-.01,1.143-.073,1.7-.134s1.119-.122,1.687-.137a7.506,7.506,0,0,0,1.619-.293,8.377,8.377,0,0,1,1.756-.316c.146-.005.3-.008.457-.008.409,0,.822.017,1.221.034s.8.033,1.193.033c.188,0,.361,0,.527-.011.062,0,.125,0,.189,0a8.668,8.668,0,0,1,1.591.2,8.007,8.007,0,0,0,1.457.185c.063,0,.126,0,.186,0a5.048,5.048,0,0,0,1.56-.46,5.762,5.762,0,0,1,1.779-.514c.072,0,.147-.007.222-.007a7.355,7.355,0,0,1,1.591.235,6.7,6.7,0,0,0,1.428.217c.067,0,.132,0,.2-.007a6.1,6.1,0,0,0,1.583-.425,6.849,6.849,0,0,1,1.75-.465c.105-.009.216-.013.328-.013a8.813,8.813,0,0,1,1.473.166,8.133,8.133,0,0,0,1.346.156c.1,0,.2,0,.291-.013a6.85,6.85,0,0,0,1.59-.421,7.63,7.63,0,0,1,1.732-.455c.552-.056,1.11-.083,1.65-.11.573-.028,1.166-.057,1.739-.12a7.673,7.673,0,0,1,.849-.042c.3,0,.605.012.9.024s.581.024.866.024a6.748,6.748,0,0,0,.8-.042,9.73,9.73,0,0,0,1.624-.392,10.672,10.672,0,0,1,1.692-.41,15.6,15.6,0,0,1,1.713-.1,14.076,14.076,0,0,0,1.687-.1c.582-.082,1.172-.2,1.743-.313.521-.1,1.059-.211,1.6-.292a16.008,16.008,0,0,1,1.758-.132l.416-.017a.523.523,0,0,1-.083-.549c.225-.5,1.237-.5,1.57-.5a4.993,4.993,0,0,1,1.159.123c.519-.083,1.024-.125,1.513-.166.551-.046,1.072-.09,1.611-.187s1.067-.163,1.585-.229c.559-.071,1.136-.144,1.688-.25a16.52,16.52,0,0,1,1.652-.2,14.639,14.639,0,0,0,1.641-.208,8.125,8.125,0,0,0,1.54-.544,9.017,9.017,0,0,1,1.595-.568c.408-.09.82-.177,1.218-.261.661-.14,1.344-.284,2-.44.464-.109.932-.21,1.384-.308.605-.131,1.231-.267,1.834-.419.5-.126,1-.235,1.49-.34.6-.129,1.165-.251,1.729-.4a8.134,8.134,0,0,1,1.733-.213,6.984,6.984,0,0,0,1.588-.2l.2-.058c.984-.287,2-.584,2.966-.889a5.021,5.021,0,0,0,1.394-.822,5.733,5.733,0,0,1,1.495-.885c.471-.161.926-.3,1.366-.429.3-.088.584-.174.869-.266a3.3,3.3,0,0,1-.411-.362.481.481,0,0,1-.124-.495c.144-.431.752-.606,3.612-1.043.478-.073.967-.183,1.485-.3a18.428,18.428,0,0,1,2-.374,15.788,15.788,0,0,0,1.528-.846c.387-.234.787-.475,1.2-.686.862-.439,1.75-.929,2.8-1.542a5.729,5.729,0,0,1,1.681-.564,4.258,4.258,0,0,0,1.463-.5,6.4,6.4,0,0,0,1.241-1.267,8.152,8.152,0,0,1,.978-1.066c.354-.3.729-.569,1.093-.826a8.035,8.035,0,0,0,1.408-1.158,10.914,10.914,0,0,0,1.066-1.476,5.039,5.039,0,0,1-.825.07,4.468,4.468,0,0,1-2.5-.76.592.592,0,0,1-.281-.644.817.817,0,0,1,.757-.573c.394-.041.879-.129,1.392-.222a14.567,14.567,0,0,1,2.19-.292c.161-.3.338-.558.509-.814a3.728,3.728,0,0,0,.728-1.535,4.08,4.08,0,0,0-.325-1.821,9.1,9.1,0,0,1-.336-1.2,5.671,5.671,0,0,1-.022-1.376,3.6,3.6,0,0,0-.176-1.813,19.443,19.443,0,0,0-1.572-2.684c-.163.064-.357.157-.535.243a4.917,4.917,0,0,1-.779.326c-1.083.289-2.022.487-2.85.661a8.755,8.755,0,0,0-1.513.506,4.921,4.921,0,0,1-1.356.417,3.17,3.17,0,0,1-2.876-.852.925.925,0,0,1-.541.224h-.036c-.5-.031-.746-.206-.744-.518,0-.282.243-.5.781-.694a4.1,4.1,0,0,1,1.025-.236c1.034-.47,3.441-1.453,3.658-1.493a3.473,3.473,0,0,1,.6-.038c.488,0,1.177.04,1.975.087.491.029,1.025.06,1.573.085a30.23,30.23,0,0,0-2.437-2.531c-.9-.822-1.973-1.777-3.2-2.693a3.249,3.249,0,0,1-.4-.382c-.073-.078-.153-.164-.221-.228-.992,0-1.357.025-1.945.061-.307.019-.688.043-1.25.069a6.682,6.682,0,0,0-1.586.24,7.4,7.4,0,0,1-1.736.262c-.255.012-.468.024-.656.035-.306.018-.547.032-.766.032a6.509,6.509,0,0,1-1.919-.358c-.321-.09-.857-.242-.835-.67.02-.4.5-.512.781-.581.316-.077.733-.15,1.215-.233a21.217,21.217,0,0,0,2.314-.49,15.811,15.811,0,0,1,2.431-.471l.177-.025c-.121-.055-.243-.109-.367-.163a9.819,9.819,0,0,1-1.29-.65c-.331-.205-.662-.418-.982-.625-.558-.36-1.135-.732-1.724-1.069-.673-.385-1.376-.754-2.056-1.11q-.381-.2-.764-.4c-.623-.33-1.274-.641-1.9-.942-.317-.152-.646-.308-.97-.467-.571-.28-1.171-.536-1.75-.783-.387-.165-.787-.335-1.181-.514-.34-.155-.681-.315-1.012-.469-.62-.29-1.26-.59-1.906-.862-.369-.155-.74-.318-1.1-.475-.6-.264-1.227-.537-1.854-.781a12.236,12.236,0,0,1-1.425-.7,10.526,10.526,0,0,0-1.477-.714c-.784-.282-1.595-.564-2.521-.874a.94.94,0,0,1-.062.134c-.271.484-1.011.832-2.2,1.035a1,1,0,0,1-.6.548,1.2,1.2,0,0,1-.3.031,8.917,8.917,0,0,1-.967-.089,16.085,16.085,0,0,0-1.963-.155c-.245,0-.479.011-.695.032a18.341,18.341,0,0,0-2.293.423,7.421,7.421,0,0,1-1.367.245.817.817,0,0,1-.312-.053,3.436,3.436,0,0,0-1.316-.209c-.453,0-.963.044-1.5.091l-.181.016c-.342.029-.7.047-1.041.064a14.568,14.568,0,0,0-2.207.223,6.908,6.908,0,0,1-1.4.117c-.16,0-.32,0-.474,0s-.3,0-.444,0a5.077,5.077,0,0,0-1.041.083c-.558.12-1.057.266-1.5.395a5.613,5.613,0,0,1-1.357.3.7.7,0,0,1-.681-.361,1.091,1.091,0,0,1-.06-.969c.241-.552.964-.968,2.343-1.351.263-.073.549-.172.852-.277a10.814,10.814,0,0,1,2.288-.6c.646-.078,1.317-.1,2.027-.118.392-.011.8-.023,1.2-.046s.831-.06,1.24-.1c.646-.057,1.314-.116,1.975-.125h.082a11.347,11.347,0,0,1,1.746.179c.15.023.3.046.439.067.448-.662,2.424-1.106,3.7-1.2.266-.02.545-.032.847-.037-.347-.107-.7-.212-1.045-.311-.582-.166-1.156-.376-1.712-.579-.636-.233-1.293-.473-1.951-.642a8.477,8.477,0,0,0-1.875-.19,10.012,10.012,0,0,1-1.892-.176,19.747,19.747,0,0,0-2.342.138,20.583,20.583,0,0,1-2.472.141h-.034c-.286,0-.718,0-.764-.382s.351-.489.771-.606c.317-.088.754-.194,1.217-.306l.014,0c-.415-.08-.833-.158-1.245-.235l-1-.189a13.467,13.467,0,0,1-1.823-.529,11.8,11.8,0,0,0-1.861-.527,3.434,3.434,0,0,0-.57-.044,9.705,9.705,0,0,0-1.278.116,10.439,10.439,0,0,1-1.383.123,4.351,4.351,0,0,1-.572-.035c-.149.011-.305.017-.476.017-.352,0-.7-.023-1.068-.047s-.746-.049-1.126-.049c-.129,0-.249,0-.367.008-.094,0-.192.007-.292.007a13.581,13.581,0,0,1-1.4-.1,12.472,12.472,0,0,0-1.431-.094c-.41.006-.824.024-1.224.041-.48.021-.976.042-1.452.042-.156,0-.3,0-.441-.007-1.006-.032-2.026-.115-3.117-.256l-.965-.122c-.392-.049-.675-.084-.862-.112-.107-.016-.178-.028-.232-.041a.4.4,0,0,1-.356-.4c0-.342.356-.388.472-.4s.245-.027.426-.045l.262-.026c-.31-.042-.617-.092-.918-.142a15.685,15.685,0,0,0-1.775-.224c-.57-.028-1.139-.107-1.689-.183a16.571,16.571,0,0,0-1.786-.183c-.577-.016-1.154-.019-1.643-.019Zm48.722,7.509-1.935-.111c-.657-.038-1.4-.082-2.136-.082-.393,0-.744.012-1.071.037a9.082,9.082,0,0,0-2.649.581l.04.022,1.16.726-1.127-.028.047.055-.544-.063a1.649,1.649,0,0,1-.216.018.547.547,0,0,1-.3-.079c-.239-.03-.482-.068-.717-.1a10.3,10.3,0,0,0-1.7-.169c-.633.009-1.287.066-1.92.122-.415.037-.845.074-1.264.1s-.822.035-1.22.047c-.693.02-1.347.039-1.96.113a10.219,10.219,0,0,0-2.132.563c-.314.109-.611.212-.9.291-1.364.378-1.762.713-1.856.928a.321.321,0,0,0,.017.279h.037a5.575,5.575,0,0,0,1.146-.268c.452-.132.965-.282,1.549-.408a5.746,5.746,0,0,1,1.2-.1c.151,0,.306,0,.455,0s.309,0,.463,0a6.228,6.228,0,0,0,1.253-.1,15.13,15.13,0,0,1,2.321-.238c.352-.018.685-.034,1.014-.063l.18-.016c.556-.048,1.081-.094,1.567-.094a4.162,4.162,0,0,1,1.588.26l.041,0a7.712,7.712,0,0,0,1.2-.226,18.939,18.939,0,0,1,2.39-.439c.24-.023.5-.035.768-.035a16.706,16.706,0,0,1,2.055.161,8.792,8.792,0,0,0,.875.084.53.53,0,0,0,.113-.007c.04-.01.112-.143.142-.2a.766.766,0,0,1,.2-.265l.076-.057.094-.014c1.164-.18,1.711-.483,1.826-.687a.139.139,0,0,0,0-.141Zm36.1,21.126-.071,0c-.849-.026-1.7-.075-2.444-.119-.786-.046-1.465-.086-1.931-.086a3.013,3.013,0,0,0-.45.023c-.247.077-2.455.962-3.557,1.468l-.065.03-.072,0h-.019a2.215,2.215,0,0,0,1.731.609c.158,0,.326-.008.5-.024a4.471,4.471,0,0,0,1.14-.364,9.35,9.35,0,0,1,1.641-.545c.819-.172,1.747-.368,2.812-.652a4.649,4.649,0,0,0,.647-.277Zm2.142,12.5h-.024c-.049,0-.1,0-.16,0a13.648,13.648,0,0,0-2.1.28c-.488.088-.951.172-1.351.219a3.683,3.683,0,0,0,1.847.492,4.68,4.68,0,0,0,1.348-.211l.121-.213a.407.407,0,0,1,.041-.072Z" transform="translate(-1585.801 -318.428)" fill="#2a4c24"/>
      </g>
    </g>
  </g>
</svg>
