<svg xmlns="http://www.w3.org/2000/svg" width="332.26" height="57" viewBox="0 0 332.26 57">
  <g id="bottom_05" data-name="bottom/05" transform="translate(-3323.81 2327.269)">
    <path id="Union_10" data-name="Union 10" d="M86.234,55.94c-.6-.033-1.2-.066-1.791-.056a7.458,7.458,0,0,1-1.834-.284,7.383,7.383,0,0,0-1.8-.284c-1.225.017-2.432.262-3.625.275-1.225.013-2.434.256-3.625.265q-1.84.015-3.628.023c-1.227,0-2.437-.425-3.625-.425-1.231,0-2.437-.123-3.624-.129-.608,0-1.209.04-1.8.083-.614.045-1.225.09-1.826.083-1.238-.015-2.445-.1-3.628-.121-1.24-.025-2.445-.181-3.624-.216a8.157,8.157,0,0,0-1.834.222,7.863,7.863,0,0,1-1.814.222c-1.252-.051-2.459-.2-3.624-.27a14.317,14.317,0,0,0-1.814.045,12.685,12.685,0,0,1-1.836.04c-1.269-.1-2.462-.421-3.6-.546-1.286-.143-2.533-.065-3.642-.241-1.315-.207-2.313-1.342-3.367-1.6a18.929,18.929,0,0,1-3.409-.972c-1.436-.69-2.222-1.258-2.4-2.22-.22-1.223-1.072-2.318-1.3-3.509a3.383,3.383,0,0,1-.053-.642c0-.81.231-1.658.231-2.454a3.1,3.1,0,0,0-.07-.683c-.273-1.211-.491-2.454-.84-3.618a36.714,36.714,0,0,0-1.626-3.371,27.717,27.717,0,0,0-1.458-3.426,26,26,0,0,0-2.471-2.81A24.46,24.46,0,0,0,14.655,26.3c-.873-.8-2.3-1.019-3.366-1.763a13.554,13.554,0,0,1,3.444.222c.983.192,1.986.972,3.1,1.191s2.254.34,3.235.533a20.86,20.86,0,0,0,3.4.392.336.336,0,0,0,.086-.25A2.786,2.786,0,0,0,23.246,24.7a3.394,3.394,0,0,0-2.458-.831,18.97,18.97,0,0,0-3.489-.907c-1.262-.317-2.4-.508-3.516-.7a20.9,20.9,0,0,1-3.514-1.163c1.072-.023,2.025-.025,3-.048-.171.083-.249.174-.25.267,0,.383,1.307.8,2.923.869,1.018.043,2.207-.222,3.314-.222.611,0,1.2.02,1.737.041.612.025,1.149.05,1.555.041.286-.006.425-.131.426-.244a.154.154,0,0,0-.071-.128,7.014,7.014,0,0,0-4.406-1.75c-.077-.028-.107-.008-.2-.035a6.48,6.48,0,0,0-1.71-.115,14.084,14.084,0,0,1-2.059-.086c-1.072-.144-2.245-1.029-3.669-1.1-1.132-.055-2.4.186-3.773.206a.192.192,0,0,0,.036-.093c0-.015-.006-.026-.021-.03-.307-.061-1.773.246-3.041.314a1.081,1.081,0,0,0-.481-.015c-.207.027-.375.053-.446-.118.094-.236.548-.567.661-.8.045.03.111-.025.2-.078a.49.49,0,0,1,.29-.085,8.057,8.057,0,0,0,1.4-.008c.171-.015.342-.029.552-.034-.1-.033-.2-.069-.29-.1a3.382,3.382,0,0,0-1.491-.257,2.758,2.758,0,0,0-.725.219.075.075,0,0,0,.01-.038c-.008-.185-.976-.1-1.924-.018-.916.082-1.813.163-1.807,0a.077.077,0,0,1,.018-.042c1.125-.108,2.282-.332,3.6-.5,1.227-.163,2.432-.77,3.648-.951.992-.148,1.935-.4,2.808-.585-1.339.057-2.943.055-4.548.133.325-.347.683-1.122,1.06-1.452,1.21-.086,2.464-.387,3.708-.5s2.486-.143,3.693-.279a10.2,10.2,0,0,1,1.883.02,9.134,9.134,0,0,0,1.855.013c1.348-.184,2.506-.868,3.575-1.058,1.73-.307,3.161-.033,3.733-.312a8.451,8.451,0,0,0,2.315-.794c.007-.088-.592-.039-2.165.26a4.833,4.833,0,0,0-2.721-1.118,4.107,4.107,0,0,0-1.308.242,5.093,5.093,0,0,1-1.513.246c-1.2-.033-2.365-.471-3.5-.476-1.207-.008-1.883.136-3.007.158,1.032-.465,1.755-.5,2.927-.916,1.074-.383,2.08-1.1,3.267-1.447,1.1-.32,2.25-.685,3.447-.977.152.058.306.479.561.524a30.624,30.624,0,0,0,3.7-.224c1.127-.053,2.383-.2,3.643-.32a10.147,10.147,0,0,1,1.836.055,8.644,8.644,0,0,0,1.865.043,15.891,15.891,0,0,0,3.5-1.211c.367-.108.574-.175.571-.22a14.829,14.829,0,0,0-2.893-.149c-1.286-.037-2.768-.31-3.893-.29,1.173-.189,2.668-.217,3.895-.395,1.181-.169,2.311-.9,3.538-1.053,1.186-.154,2.425-.11,3.652-.251a6.449,6.449,0,0,1,1.853.153,6.729,6.729,0,0,0,1.855.158C47.643,4.007,48.775,3.1,50,2.981a10.867,10.867,0,0,1,1.841.035,11.537,11.537,0,0,0,1.838.038c1.2-.1,2.388-.491,3.617-.587a7.928,7.928,0,0,1,1.843.149,8.246,8.246,0,0,0,1.842.153c1.2-.086,2.369-.893,3.6-.972a7.288,7.288,0,0,1,1.846.2,7.439,7.439,0,0,0,1.841.206c1.209-.071,2.432-.008,3.657-.073,1.209-.063,2.4-.723,3.619-.783a10.455,10.455,0,0,1,1.839.131,10.823,10.823,0,0,0,1.831.134c1.211-.051,2.414-.441,3.635-.488a11.9,11.9,0,0,1,1.844.118,12.239,12.239,0,0,0,1.822.121c1.213-.041,2.428-.121,3.65-.159S92.586.763,93.808.73,96.235.392,97.457.363A6.216,6.216,0,0,1,99.295.7a6.4,6.4,0,0,0,1.834.338c.617-.013,1.237.015,1.856.045.6.028,1.2.055,1.8.046,1.216-.022,2.418-1,3.638-1.014a7.459,7.459,0,0,1,1.836.289,7.619,7.619,0,0,0,1.828.29c1.218-.015,2.435-.229,3.652-.241a11.493,11.493,0,0,1,1.836.184A11.666,11.666,0,0,0,119.4.826c1.217-.008,2.432-.649,3.649-.654a5.887,5.887,0,0,1,1.828.4,6.017,6.017,0,0,0,1.824.4C127.92.967,129.137,0,130.35,0s2.434.886,3.647.888a9.929,9.929,0,0,0,1.824-.229,9.716,9.716,0,0,1,1.828-.227,11.541,11.541,0,0,0,1.826-.191,11.45,11.45,0,0,1,1.831-.189c1.221.007,2.437.3,3.652.307.608,0,1.217-.051,1.823-.108s1.222-.111,1.831-.1c1.224.012,2.437.343,3.649.358s2.436.484,3.645.5a14.092,14.092,0,0,0,1.828-.139,14.174,14.174,0,0,1,1.826-.136c.6.007,1.2,0,1.8-.018C161.979.7,162.6.685,163.212.7c1.227.018,2.442.216,3.649.236,1.227.02,2.442.129,3.649.149.613.012,1.225-.015,1.834-.04S173.56.992,174.162,1c1.23.025,2.439.448,3.64.473a12.921,12.921,0,0,0,1.84-.141,12.277,12.277,0,0,1,1.817-.141c1.232.027,2.441.378,3.64.4a16.174,16.174,0,0,0,1.84-.1,15.968,15.968,0,0,1,1.814-.1c1.238.028,2.446.32,3.641.348a17.02,17.02,0,0,0,1.843-.09,16.263,16.263,0,0,1,1.809-.09,13.624,13.624,0,0,0,1.843-.126,13.5,13.5,0,0,1,1.813-.123c1.214.028,2.409.129,3.586.159a14.374,14.374,0,0,0,1.812-.11,14.1,14.1,0,0,1,1.784-.108c1.215.032,2.39.783,3.566.816a6.215,6.215,0,0,0,1.818-.322,6.129,6.129,0,0,1,1.787-.322c1.215.035,2.392.63,3.564.665,1.217.037,2.4.453,3.572.489A10.673,10.673,0,0,0,223,2.44a10.551,10.551,0,0,1,1.784-.146c1.218.04,2.4.416,3.57.456a6.593,6.593,0,0,0,1.823-.284,6.515,6.515,0,0,1,1.784-.28c1.222.046,2.417.05,3.583.1,1.222.05,2.388.712,3.549.761.608.025,1.21.022,1.8.018s1.2,0,1.78.022a9.32,9.32,0,0,0,1.821-.159,8.766,8.766,0,0,1,1.782-.158c1.232.061,2.405.474,3.56.538,1.236.068,2.4.574,3.551.642a7.7,7.7,0,0,0,1.838-.186A7.405,7.405,0,0,1,257,3.579c1.244.083,2.394.72,3.532.8,1.251.095,2.435.179,3.566.275,1.259.108,2.442.181,3.563.294,1.268.126,2.475.01,3.583.143,1.283.156,2.484.143,3.571.307,1.3.194,2.538.068,3.6.277A33.254,33.254,0,0,1,281.79,6.96a28.3,28.3,0,0,1,3.43,1.007,21.449,21.449,0,0,1,3.273,1.525c.953.645,1.844,1.355,2.892,2.1a28.657,28.657,0,0,0,2.765,2.271c.91.526,1.981,1,3.208,1.574a9.419,9.419,0,0,1-1.463-.085,17.273,17.273,0,0,0-2.046-.091c-1.032.023-2.213.625-3.523.637-.591,0-1.205,0-1.838,0-.552,0-1.117-.008-1.695,0-1.137,0-2.322,0-3.534,0-1.16,0-2.344-.471-3.536-.471-1.176,0-2.36-.192-3.533-.192-1.195,0-2.378.466-3.531.466-1.217,0-2.4-.093-3.531-.093-1.251,0-2.437-.166-3.53-.164-.631,0-1.23-.012-1.793-.023-.627-.013-1.21-.027-1.738-.022a9.941,9.941,0,0,0-3.281.311c0,.03.08.056.248.074-1.322.414-1.9.749-1.9.957s.664.3,1.8.181c.968-.1,2.23-.858,3.8-1.047a12.592,12.592,0,0,0,3.487.7,5.7,5.7,0,0,0,1.63-.325,6.124,6.124,0,0,1,1.88-.322c1.084.032,2.253.231,3.486.265.553.015,1.121.012,1.7.007s1.188-.01,1.794.008c1.143.033,2.292.715,3.47.748a6.83,6.83,0,0,0,1.756-.265,6.839,6.839,0,0,1,1.75-.264c.592.017,1.185-.018,1.772-.055s1.153-.07,1.718-.053c1.2.035,2.339,1.037,3.457,1.067a12.581,12.581,0,0,0,1.819-.118,12.009,12.009,0,0,1,1.675-.118,18.153,18.153,0,0,0,1.89-.071,15.318,15.318,0,0,1,1.6-.073,16.287,16.287,0,0,1,3.366.488c.1.05.154.078.154.092a2.726,2.726,0,0,1-.616-.044,13.271,13.271,0,0,0-2.462,0c-.995.093-2.138.619-3.435.7-1.091.071-2.245.491-3.46.557a7.56,7.56,0,0,1-1.747-.187,7.56,7.56,0,0,0-1.768-.187c-1.169.061-2.326.4-3.464.463a16.373,16.373,0,0,1-1.787-.03,14.749,14.749,0,0,0-1.7-.027c-1.3.086-2.476.222-3.469.315-1.947.183-3.271.511-3.279.789,0,.052.042.1.135.148-.095.039-.144.073-.146.1,0,.076.3.125.93.171a18.315,18.315,0,0,1,3.435-.327,13.376,13.376,0,0,1,1.617.121,15.271,15.271,0,0,0,1.826.121c1.094-.012,2.255-.312,3.442-.325.573-.007,1.154.013,1.733.033s1.142.04,1.708.035c.369-.005.737,0,1.1.007.28-.036.617-.073,1.061-.11,1.848-.156,1.8-.683,3.652-.838s1.83-.358,3.677-.514a13.761,13.761,0,0,1,3.775-.2,23.047,23.047,0,0,0,2.772,1.4c.517.123.815.682,2.585,1.516-.053-.005-.075.028-.074.088a4.285,4.285,0,0,0,.354.947,2.892,2.892,0,0,1,.279.859c0,.114-.042.182-.152.176a31.361,31.361,0,0,0-3.682-.1c-1.164.065-2.4.119-3.708.262-1.2.131-2.425.358-3.689.539-1.219.173-2.467.26-3.7.469s-2.486.305-3.691.538c-1.254.241-2.484.463-3.656.713-1.29.279-2.62.118-3.743.392a5.081,5.081,0,0,0-1.013.374c.4.078.629.19.632.31,0,.151-.346.316-1.166.448a6.113,6.113,0,0,1-.926.069c.456-.26.935-.572,1.461-.827a8.38,8.38,0,0,0-1.76-.107,14.5,14.5,0,0,0-3.67.564c-.344.1-.5.17-.494.219a7.456,7.456,0,0,0,2.327.081c.337-.008.7.013,1.08.035.344.019.7.038,1.056.036a4.62,4.62,0,0,1-.943.432c-1.922.564-3.157.971-3.16,1.207,0,.063.086.114.272.152a16.851,16.851,0,0,0,3.457.282c1.05-.022,2.247-.634,3.44-.71.432.229,2.981.917,3.945.348.419-.045,1.551-.387,3.319-.662,1.018-.156,2.2-.325,3.472-.528,1.1-.174,2.154-1.09,3.348-1.282a6.972,6.972,0,0,1,1.78.025,7.092,7.092,0,0,0,1.786.025c1.193-.2,2.282-.854,3.381-1.037,1.27-.212,2.44-.45,3.45-.624a7.614,7.614,0,0,1,2.724.022,4.727,4.727,0,0,0,.722.129c.016.007.024.015.024.025a17.193,17.193,0,0,1-3.345.873c-1.067.244-2.353.307-3.64.586-1.183.256-2.363.732-3.546.985-1.288.277-2.491.654-3.558.894a23.161,23.161,0,0,1-3.608.425s.007.01.021.016c-1.4.251-1.448.481-2.7.673l.125.039c-2.067.2-2.031.564-4.1.7s-2.051.483-4.125.619-2.069.182-4.139.319c-.753.049-1.127.069-1.133.084s.405.026,1.22.059a5.658,5.658,0,0,1,1.51.141,5.806,5.806,0,0,0,2.1.1c1.053-.086,2.265-.393,3.578-.5,1.152-.1,2.328-.66,3.556-.768,1.207-.106,2.439-.287,3.612-.4a12.338,12.338,0,0,0,3.369-.32c1-.211,2.191-.289,3.418-.569,1.087-.249,2.263-.375,3.407-.649s2.2-.856,3.287-1.125c1.221-.3,2.4-.46,3.386-.715a28.976,28.976,0,0,0,3.433-1.06,5.175,5.175,0,0,1,3.153,3.333c.409,1.133.7,2.109,2.986,2.849-1.14.119-2.592.675-3.987.9a9.191,9.191,0,0,1-1.845.033,8.946,8.946,0,0,0-2.086.063c-1.267.236-2.436,1.08-3.7,1.336-1.311.265-2.556.692-3.761.951-1.393.3-2.8.037-3.9.284a24.757,24.757,0,0,0-4.092,1.365c0-.032.009-.056.009-.075,0-.069-.063-.076-.479-.16a15.835,15.835,0,0,0-2.592-.055c-.141-.153-.475-.766-1.116-.791-2.109.1-1.7.309-4.19.523-1.249.1-2.709.166-4.229.3a24.19,24.19,0,0,0-3.94-.858,15.029,15.029,0,0,0-1.8.05c-.532.038-1.057.075-1.569.06a12.412,12.412,0,0,0-1.782.114,13.171,13.171,0,0,1-1.574.119c-1.163-.01-2.279-.179-3.347-.158-1.173.02-2.283.242-3.336.294a15.238,15.238,0,0,1-1.638-.035,11.932,11.932,0,0,0-1.717-.018c-.31-.022-.565-.139-.744-.148-.143-.008-.254.713-.395.723a6.749,6.749,0,0,1-1.376-.292,8.017,8.017,0,0,0-2.674-.269c-1.242.116-2.619.375-3.958.508-1.458.146-2.858.367-3.957.5a7.883,7.883,0,0,0-2.206.4c0,.07.507.1,1.709.081.476-.01.949,0,1.418.012.552.013,1.1.027,1.633,0,.512-.022,1.036,0,1.553.023.553.023,1.094.046,1.594.018-.759.286-1.172.577-1.177.851-.006.321.545.62,1.749.864a10.981,10.981,0,0,0,1.924.095c.4,0,.831,0,1.293.012.959.023,2.034-.358,3.208-.38a7.8,7.8,0,0,1,1.535.188,7.725,7.725,0,0,0,1.713.186c-1,.333-1.671.676-1.676.93,0,.179.322.315,1.093.371a13.555,13.555,0,0,0,3.255.383c.9-.07,1.976-.262,3.22-.411,1.358-.163,2.607-.713,3.839-.843,1.385-.148,2.737-.476,3.937-.589a.261.261,0,0,0-.176.234c0,.35.8.893,2.847,1a4.7,4.7,0,0,0,1.757-.373,4.8,4.8,0,0,1,1.562-.373c1.143.01,2.209.624,3.176.634-.117.061-.172.124-.169.184.009.248.977.458,2.392.42a14.449,14.449,0,0,0,3.67-.556c.343-.1.5-.169.495-.218a7.35,7.35,0,0,0-2.326-.086c-.338.007-.7-.017-1.085-.038a13.285,13.285,0,0,0-1.387-.029,9.5,9.5,0,0,1,1.746-.56,7.754,7.754,0,0,1,2.089.05c.608.085,1.035.169,1.218.02a42.64,42.64,0,0,0,4.632-.723,23.569,23.569,0,0,0,5.234.614,6.413,6.413,0,0,0,1.747-.239,6.479,6.479,0,0,1,1.627-.241c1.155.033,2.26.655,3.338.662,1.163.008,2.29.178,3.359.156,1.175-.023,2.3-.148,3.354-.2,1.193-.061,2.277-.725,3.309-.818a1.084,1.084,0,0,0,.456-.1,1,1,0,0,1,.342-.1c.143.008.231.121.371.108.091-.008.207.173.35.352s.316.37.515.353c1.173.212,2.375.216,3.576.392.591.086,1.172.191,1.757.292-.709.117-1.384.264-2.043.309-1.217.08-2.3.269-3.241.333a6.737,6.737,0,0,0-1.463.108,11.206,11.206,0,0,1-1.747.121c-.966-.023-2.043-.025-3.2-.018-.468,0-.949-.023-1.439-.048-.591-.03-1.194-.06-1.792-.04a6.94,6.94,0,0,0-3.341-.536,5.956,5.956,0,0,0-1.754.475c-.97.076-1.881.246-2.727.353a10.111,10.111,0,0,1-1.4.051,5.787,5.787,0,0,0-1.39.088c-.911.227-1.308.461-1.309.659,0,.28.787.489,2.028.507.937.012,2.14-.3,3.5-.35a7.676,7.676,0,0,1,1.681.2,7.936,7.936,0,0,0,1.856.2c1.167-.063,2.311-.861,3.465-.936a12.5,12.5,0,0,1,1.834.058,11.684,11.684,0,0,0,1.732.058.127.127,0,0,0-.008.043c0,.358,1.55.909,3.873.981,1.207.036,2.887-.388,4.364-.39-1.2.571-2.673,1.667-3.96,2.195-2.264-.157-3.877-.079-3.883.1,0,.037.067.078.214.122a18.469,18.469,0,0,0,2.261-.073c-.795.309-1.582.7-2.407.99-.348,0-.759-.008-1.218-.02-.314-.008-.651-.016-1.006-.019a4.783,4.783,0,0,1,.624.173,2.632,2.632,0,0,0,.926.207c-.909.315-1.824.874-2.774,1.171a3.552,3.552,0,0,1-1.533-.022,3.644,3.644,0,0,0-1.53-.027c-.007-.007-.008-.01-.008-.013s0,0,0,0c0-.022-.024-.091-.55-.6a.244.244,0,0,0-.075-.049c.533-.117,1.123-.282,1.783-.438a6.263,6.263,0,0,1-1.047.131c-1.047.028-2.132.07-3.2.1a6.287,6.287,0,0,1-1.646-.25,6.21,6.21,0,0,0-1.569-.249c-.256.008-.342.43-.473.5a6.192,6.192,0,0,1-.673.206,3.17,3.17,0,0,0,.717.066c1.333.08.621.314,4.928-.066a12.906,12.906,0,0,0-3.1.891c-.166.067-.243.122-.246.167-.02.27,2.671.143,4.3-.022-.933.1-1.869.166-2.822.288-1.2.153-2.427.2-3.655.348-1.207.143-2.351.9-3.582,1.035-1.207.133-2.454,0-3.684.131-1.208.124-2.412.43-3.642.547-1.212.114-2.447.085-3.679.194-1.213.108-2.4.644-3.63.745a10.29,10.29,0,0,1-1.856-.076,10.439,10.439,0,0,0-1.846-.075c-1.215.093-2.412.559-3.644.647-1.215.088-2.45.035-3.683.118a8.34,8.34,0,0,1-1.856-.164,8.372,8.372,0,0,0-1.854-.163c-1.217.076-2.42.494-3.654.566-1.217.07-2.446.063-3.68.129-1.218.065-2.43.353-3.662.416s-2.44.2-3.674.259a11.1,11.1,0,0,1-1.855-.126,11.113,11.113,0,0,0-1.841-.126c-1.222.053-2.43.506-3.664.556a12.643,12.643,0,0,1-1.852-.108,12.943,12.943,0,0,0-1.841-.106c-1.22.045-2.437.388-3.668.431s-2.451.018-3.683.058-2.439.388-3.67.426c-.616.018-1.232,0-1.852-.017s-1.224-.035-1.834-.017a8.7,8.7,0,0,1-1.845-.221A8.613,8.613,0,0,0,227,52.883c-1.222.032-2.43.811-3.662.841a10.429,10.429,0,0,1-1.846-.181,10.246,10.246,0,0,0-1.847-.181c-.614.013-1.23-.018-1.848-.05s-1.224-.061-1.837-.048-1.237,0-1.858,0c-.606-.007-1.213-.013-1.822,0-1.222.025-2.439.571-3.671.592a6.7,6.7,0,0,1-1.846-.323,6.727,6.727,0,0,0-1.847-.322c-1.223.02-2.435.922-3.667.941A6.407,6.407,0,0,1,199.4,53.8a6.486,6.486,0,0,0-1.846-.347c-1.224.018-2.449.046-3.681.063s-2.447.34-3.679.357c-.612.007-1.227-.048-1.841-.1a17.619,17.619,0,0,0-1.846-.1c-1.224.015-2.449.247-3.681.262a12.778,12.778,0,0,1-1.838-.164,12.436,12.436,0,0,0-1.85-.161c-1.225.012-2.454,0-3.686.018s-2.446.755-3.677.766c-.613,0-1.227-.041-1.842-.09s-1.23-.095-1.846-.088-1.227-.046-1.843-.1-1.23-.1-1.847-.1c-1.225.012-2.454,0-3.685.013s-2.43.012-3.641.025-2.427.1-3.637.119a11.054,11.054,0,0,1-1.818-.184,10.772,10.772,0,0,0-1.819-.183c-1.215.017-2.417.886-3.625.9a7.067,7.067,0,0,1-1.823-.3,7.081,7.081,0,0,0-1.821-.3c-1.213.02-2.414.619-3.619.639s-2.427.025-3.632.048a11.3,11.3,0,0,1-1.826-.166,11.075,11.075,0,0,0-1.816-.166c-1.216.023-2.421.324-3.627.348a12.077,12.077,0,0,1-1.824-.151,11.779,11.779,0,0,0-1.814-.149c-1.215.025-2.418.4-3.622.428s-2.42.4-3.624.425c-.609.013-1.217-.012-1.823-.035s-1.21-.048-1.811-.035a6.807,6.807,0,0,1-1.827-.3,6.8,6.8,0,0,0-1.818-.3c-1.218.027-2.412.765-3.615.79a6.727,6.727,0,0,1-1.833-.309,6.652,6.652,0,0,0-1.813-.309c-1.22.027-2.43.022-3.632.046-1.22.025-2.43.037-3.63.061-1.222.025-2.415.917-3.615.941-1.222.023-2.433.068-3.63.09l-.227,0C87.31,56,86.771,55.971,86.234,55.94Zm180.279-4.788c.239.1,1.892-.2,3.887-.3.978-.05,2.042-.424,3.133-.6-.572.036-1.142.02-1.7.006a13.839,13.839,0,0,0-1.791.023,9.012,9.012,0,0,0-3.571.828C266.474,51.126,266.486,51.141,266.513,51.152Zm13.095-1.421c1-.054,1.637-.054,1.628-.071a3.727,3.727,0,0,0-.439-.04c-.051,0-.1-.005-.159-.005A6.463,6.463,0,0,0,279.608,49.731Zm8.929-1.467c.36.154,2.133-.514,3.659-.72,1.382-.187,2.635-.178,2.633-.2s-.244-.026-.823-.068a18.259,18.259,0,0,0-2.939-.216c-1.536.175-2.659.732-2.662,1.05C288.4,48.172,288.446,48.225,288.537,48.264ZM277.23,47.088a21.839,21.839,0,0,0,3.954.222c.468-.032.976-.022,1.52-.012a19.272,19.272,0,0,0,2.474-.066c1.343-.148,2.536-.866,3.71-.985a9.094,9.094,0,0,1,2.048.091,8.545,8.545,0,0,0,1.777.1c1.411-.128,2.6-.959,3.711-1.044a14.241,14.241,0,0,1,2.251.04,12.588,12.588,0,0,0,1.552.063,12.867,12.867,0,0,1,1.814.023,5.038,5.038,0,0,0-1.738-.32,17.422,17.422,0,0,0-1.87.033,16.97,16.97,0,0,1-1.856.036c-.934-.028-1.4-.01-1.866.007s-.929.033-1.851.008c-1.857-.055-1.854-.149-3.71-.2a6.971,6.971,0,0,0-1.865.164,7.022,7.022,0,0,1-1.861.166c-1.858-.055-1.858-.045-3.714-.1-.225,0-.451-.586-.673-.569a14.839,14.839,0,0,0-3.768,1.2c-1.011.357-1.708.607-1.7.792C275.566,46.889,276.049,47,277.23,47.088Zm37.486-1.546a7.4,7.4,0,0,0-1.442.235c.471-.1.973-.18,1.512-.237Zm-37.245-4.215c.392-.161.629-.354.629-.507,0-.25-.633-.393-2.256-.112-.732.126-1.015.239-1.019.333C274.815,41.284,276.665,41.406,277.471,41.326Zm18.441-.209a6.743,6.743,0,0,0,2.306-.153,15.655,15.655,0,0,0,2.068-.877c-.592-.171-.678-.448-1.514-.458-1.193.133-2.176,1.108-3.048,1.389l-.237.074C295.619,41.1,295.762,41.107,295.912,41.117Zm7.725-1.075c.643-.048,1.084-.2,1.079-.294-.006-.129-.8-.165-2.968.253A12.8,12.8,0,0,0,303.637,40.042Zm-72.366-8.2c1.165-.045,2.339-.211,3.521-.265s2.334-.519,3.5-.581c1.19-.061,2.363-.134,3.513-.2.168-.01.335-.016.5-.021-.33-.044-.674-.127-1.026-.21a5.9,5.9,0,0,0-1.851-.231c-1.144.1-2.311.392-3.464.486-1.229.1-2.428.091-3.487.179-1.523.123-2.786.179-3.489.251-.388.039-.6.132-.608.233C228.377,31.682,229.227,31.92,231.271,31.838Zm24.565-1.045c1.034.025,2.225.383,3.489.373,1.118-.008,2.294-.436,3.482-.478a16.353,16.353,0,0,0,3.028-.279,2.046,2.046,0,0,1,.885.149,1.356,1.356,0,0,0,.7.141c1.008-.08,1.875-.9,2.758-1.01a9.769,9.769,0,0,1,1.426-.051,5.673,5.673,0,0,0,1.422-.088c.948-.237,1.362-.45,1.358-.617-.005-.222-.748-.363-1.962-.377-.943-.012-2.154.617-3.519.669-1.1.041-2.289.226-3.514.294a7.384,7.384,0,0,1-1.769-.2,7.056,7.056,0,0,0-1.794-.194c-1.235.083-2.412.345-3.494.428a.2.2,0,0,0,.087-.132c.009-.278-1.317-.353-3.307-.437-1.043-.045-2.267-.161-3.585-.169-1.151-.007-2.366.435-3.593.446s-2.429.038-3.591.056a8.21,8.21,0,0,1-1.893-.26,7.621,7.621,0,0,0-1.71-.261,12.658,12.658,0,0,0-1.837.179,9.483,9.483,0,0,1,1.365.043c1,.1,2.072.5,3.067.606a19.447,19.447,0,0,0,2.693.1c.2-.007.315-.013.317-.009l-.006,0a15.5,15.5,0,0,1-3.1,1.043h.361c.587,0,1.166,0,1.732-.028a9.477,9.477,0,0,1,1.834.121,8.962,8.962,0,0,0,1.708.124c1.3-.083,2.469-.289,3.494-.357A30.376,30.376,0,0,0,255.836,30.793Zm-211.292-1c1.348.017,2.573.3,3.206.3.291,0,.788.07.84-.02a.18.18,0,0,0,.028-.087c0-.2-.551-.33-2.945-.319-.634,0-1.387.037-2.328.1C43.747,29.777,44.15,29.786,44.544,29.791Zm-3.213-.083.227.007-.264-.05a5.793,5.793,0,0,0-1.728-.136,3.026,3.026,0,0,0-.706.107C38.871,29.679,39.935,29.665,41.332,29.708Zm12.449-.229a11.045,11.045,0,0,0,2.03-.143,11.95,11.95,0,0,1,1.624-.149c1.332,0,2.545.066,3.629.007a23.126,23.126,0,0,0,3.533-.8,21.337,21.337,0,0,1,2.273-.251c0-.015-.307-.049-.952-.179a11.978,11.978,0,0,0-3.554-.7c-1.129.03-2.368.506-3.632.594s-2.506.178-3.633.3c-1.574.173-2.929.1-3.642.29-.37.1-.577.231-.573.368C50.89,29.084,51.728,29.374,53.781,29.479ZM30.732,28.6a8.5,8.5,0,0,0,4.29.345c1.712-.227,3.033-.793,4.11-.9a19.215,19.215,0,0,1,2.164-.112,16.52,16.52,0,0,0-3.148-.316,13.933,13.933,0,0,1-1.835-.1,11.6,11.6,0,0,0-2.163-.09c-1.728.06-3.656.629-3.673.988C30.473,28.486,30.552,28.551,30.732,28.6Zm239.381-.9c1.193-.131,2.179-1.1,3.051-1.385l.237-.073c-.133-.007-.276-.017-.427-.029a6.7,6.7,0,0,0-2.306.153,15.619,15.619,0,0,0-2.069.872C269.192,27.412,269.276,27.689,270.113,27.7Zm-2.978-.378a12.451,12.451,0,0,0-1.886-.043c-.637.047-1.076.192-1.08.288C264.162,27.7,264.954,27.74,267.135,27.324Zm-230.188.081c1.493.075,2.445-.285,2.446-.493,0-.05-.056-.092-.174-.116a7.05,7.05,0,0,0-2.807.492C36.409,27.343,36.563,27.386,36.947,27.405Zm-7.534-1.251c.629.095,1.731-.619,3.437-.745a10.292,10.292,0,0,1,1.359.028,11.459,11.459,0,0,0,2.089-.013,12.522,12.522,0,0,1,2.115-.02,12.577,12.577,0,0,0,1.871,0c1.407-.149,2.665-.879,3.88-.992,1.322-.123,2.514-.327,3.569-.434-.452.019-.9.035-1.329.03-1.215-.015-2.356-.129-3.4-.151a9.864,9.864,0,0,0-1.828.173,8.62,8.62,0,0,1-1.592.174c-1.9-.058-3.133-.1-3.415-.116-.044,0-.068-.584-.112-.582a21.474,21.474,0,0,0-3.625.873,18.864,18.864,0,0,0-2.782-.31,15.954,15.954,0,0,0-2.907.33,2.938,2.938,0,0,0-1.029.288c0,.05.285.067,1.012.022,1.251-.078,2.907-.416,4.178-.524-1.311.375-2.182,1.024-2.191,1.482C28.7,25.9,28.921,26.08,29.413,26.154Zm235.867-.715a7.657,7.657,0,0,0,1.853.259c1.242-.032,2.47-.237,3.624-.264a1.168,1.168,0,0,0,.562-.226c.247-.129.626-.315.628-.463,0-.1-.186-.191-.742-.225-1.279-.078-.674.393-4.435.725.787-.234,1.476-1.606,2.27-1.931.185-.076.267-.121.266-.144,0-.081-1.041.109-2.269.183a10.821,10.821,0,0,0-2.445.619,1.717,1.717,0,0,1,.787.461c.155.151.151.4.35.445-.577.048-1.235.045-1.986.041-.907,0-1.95-.007-3.144.081-1.938.141-3.1.222-3.639.289-.25.032-.364.057-.362.077a23.734,23.734,0,0,0,3.259.028c1.053-.02,2.3-.178,3.624-.212h.089A8.052,8.052,0,0,1,265.279,25.439ZM50.607,24.084a7.59,7.59,0,0,0,1.493.164c.546-.043.835-.1.837-.149a10.9,10.9,0,0,0-3.117-.19c-.259,0-.515,0-.768.012A12.72,12.72,0,0,1,50.607,24.084ZM35.739,22.237c2.8.143,4.536-.189,4.525-.444,0-.062-.11-.12-.331-.165a12.355,12.355,0,0,0-3.11-.2c-1.119.1-2.092.368-2.087.572C34.738,22.11,35.028,22.2,35.739,22.237Zm236.7-.869a10.828,10.828,0,0,0-1.387.164c.319-.03.7-.065,1.251-.111.223-.019.419-.038.594-.058l-.156,0Q272.592,21.361,272.442,21.368ZM293.9,20.21a9.911,9.911,0,0,0,3.962-.116c-.185-.008-.376-.019-.574-.03a17.481,17.481,0,0,0-2.138-.017c-.515.033-1.054.074-1.614.115ZM29.369,19.8c1.1.017,2.341.44,3.633.418,1.18-.018,2.39-.657,3.614-.712s2.435-.254,3.6-.348a8.328,8.328,0,0,1,1.827.11,6.6,6.6,0,0,0,1.818.091c1.711.008,3.136-.179,3.123-.485,0-.092-.137-.194-.43-.305.339-.117.5-.2.5-.27.007-.175-1.093-.192-2.783-.181-.36,0-.747,0-1.156-.012-.705-.01-1.478-.022-2.289.013-1.094.046-2.237.541-3.416.611-1.153.066-2.313.151-3.433.227a7.516,7.516,0,0,1-1.8-.166,6.916,6.916,0,0,0-1.668-.163c-1.436.111-2.6.627-3.383.707l-.627.065A15.49,15.49,0,0,0,29.369,19.8Zm-3.7.348c.058-.009.048-.4.055-.656a2.419,2.419,0,0,0-.9.211.882.882,0,0,1-.346-.073.906.906,0,0,0-.436-.065c-.731.144-1.012.264-1.013.359C23.03,20.167,24.869,20.246,25.673,20.147Zm-2.285-1.312c2.027.1,3.355-.348,3.351-.608,0-.06-.073-.11-.223-.141-.652-.136-3.851.347-3.84.608C22.678,18.759,22.884,18.811,23.388,18.835Zm-16-.541c1.112-.083,2.408-.435,3.654-.546.377-.034.751-.047,1.11-.049a14.474,14.474,0,0,0-1.765-.075c-1.482.045-1.472.34-2.955.385-.085,0-.165,0-.241,0C7.252,18.134,7.312,18.3,7.387,18.294Zm11.293-.133c.7,0,1.383-.274,2.041-.275a35.569,35.569,0,0,0,3.915-.3c2.21-.123,3.581-.267,3.815-.547a11.6,11.6,0,0,0,1.74.567.207.207,0,0,1-.072-.153.277.277,0,0,1,.029-.119s.078.078.153.159.148.157.156.161c-.084-.012-.173-.028-.265-.048.409.382,2.459.179,3.589-.186.132.012.176-.363.3-.38a1.164,1.164,0,0,1,.8.163,1.181,1.181,0,0,0,.8.163.36.36,0,0,0,.318-.388.679.679,0,0,0-.082-.311,14.116,14.116,0,0,0,1.714-.1,9.744,9.744,0,0,1,1.429-.09.729.729,0,0,1,.37.123c-.34-.374-1.114-1.011-3.523-1.216a28.068,28.068,0,0,0-4.076-.352c-2.4.076-3.19.124-3.2.238,0,.017.016.037.048.057a16.828,16.828,0,0,0,3.306.44,8.2,8.2,0,0,1,1.739.449,11.775,11.775,0,0,0-1.512-.072.343.343,0,0,0-.262.371.239.239,0,0,0,.075.2.457.457,0,0,1-.335-.126c-.108-.08-.21-.159-.325-.119a5.242,5.242,0,0,0-2.372-.113c-.309.025-.484.561-.6.6-.081-.078-.169-.554-.466-.614-.157-.032-.311.133-.51.3a1.084,1.084,0,0,1-.7.3c.327-.232.112-.513.509-.574.329-.051.579-.254.582-.405a.147.147,0,0,0-.1-.135,13.5,13.5,0,0,0-3.46-.6c-1.35-.1-2.778.041-3.321.771-.866.075-1.8.207-2.989.357-3.272.412-4.435,1.1-4.495,1.369a8.642,8.642,0,0,0,1.272-.031c1.005.069,2.417.308,3.858.318l0-.007a.037.037,0,0,0,.013.007h-.009c.026.05.049.086.067.085s.014.005.013.016,0,.026,0,.038S18.67,18.161,18.68,18.161Zm18.173-.068c1.494.075,2.446-.285,2.447-.493,0-.05-.055-.092-.173-.116a7.052,7.052,0,0,0-2.809.492C36.315,18.031,36.469,18.074,36.853,18.093Zm2.248-2.9c.165.051.458.338.675.31a9.5,9.5,0,0,0,1.734-.6c-.274.03-.589.057-.947.08a13.849,13.849,0,0,0-1.729.132A1.446,1.446,0,0,0,39.1,15.188Zm-27.675.159a21.445,21.445,0,0,1,2.2-.057c.921.008,1.62.016,1.615-.167,0-.079-.133-.193-.434-.358a2.354,2.354,0,0,0-1.122-.35C12.926,14.415,12.463,15.008,11.426,15.347Zm10.281-.13c.36.106,1.7-.425,2.833-.473,1.029-.046,1.943-.022,1.934-.055a5.023,5.023,0,0,0-.769-.1c-2.416-.254-4.2.193-4.19.488C21.516,15.129,21.578,15.178,21.707,15.216Zm16.339-1.651c.907.871,2.307-.352,3.719-.929.185-.075.269-.113.269-.128,0-.034-.437.047-1.11.058.141-.056.218-.127.22-.2.006-.228-.666-.5-2.341-.549-1.423-.041-2.734.36-3.907.4-1.537.055-2.848.076-3.886.224-1.763.248-2.72.391-2.729.539,0,.078.253.156.79.252a21.892,21.892,0,0,0,4.04-.05,11.306,11.306,0,0,1,1.979.1,9.911,9.911,0,0,0,2.2.078C37.423,13.489,37.8,13.327,38.046,13.566Zm1.611-2.48c1.188-.023,2.328-.018,3.41-.03,1.215-.012,2.354-.619,3.4-.62,1.288,0,2.438-.123,3.411-.114a11.887,11.887,0,0,1,3.4.66c.042,0,.089-.174.133-.176a20.792,20.792,0,0,0,3.772-.7c1.923-.468,3.44-1.005,3.452-1.405.01-.335-.969-.06-3.659.173-1.022.09-2.259.244-3.8.461a9.555,9.555,0,0,1-2.112-.015,9.137,9.137,0,0,0-1.9-.03c-1.4.181-2.668.75-3.881.889-1.473.169-2.8.29-3.94.408a23.176,23.176,0,0,1-2.71.093,12.566,12.566,0,0,0-1.258.023c-.546.055-.836.126-.838.193C36.541,11.021,37.51,11.127,39.657,11.086Zm-13.905-.514c1.936-.085,1.575-.143,3.875-.388,1.136-.121,2.388-.863,3.792-1.017,1.242-.138,2.536-.408,3.842-.556a8.822,8.822,0,0,1,1.991.08,8.6,8.6,0,0,0,1.934.081c1.409-.168,2.7-.5,3.826-.65A28.876,28.876,0,0,0,48.6,7.584c0-.018-.063-.032-.194-.043a4.155,4.155,0,0,0-.731-.09c-1.843.164-1.8.6-3.645.763s-1.841.174-3.685.34a5.261,5.261,0,0,1-1.868-.126,5.286,5.286,0,0,0-1.863-.124c-1.84.166-1.8.576-3.64.742s-1.841.143-3.679.307a10.757,10.757,0,0,1-1.853.027,10.791,10.791,0,0,0-1.852.028c-.739.066-1.1.328-1.1.586C24.5,10.278,24.925,10.557,25.752,10.571ZM310.559,47.4c.27-.029.538-.061.807-.1-.21.032-.488.066-.807.1Zm-.688-.883.122-.012a.626.626,0,0,1-.115.012Zm.122-.012a2.33,2.33,0,0,0,.271-.076.83.83,0,0,1,.523-.063,7.742,7.742,0,0,1-.794.139Zm-22.375-6.179a3.6,3.6,0,0,1,1-.264,5.331,5.331,0,0,1,.59-.059,5.079,5.079,0,0,1-1.471.321l-.095,0Zm42.25-.067.133.015a.1.1,0,0,1-.052.015A.142.142,0,0,1,329.867,40.264Zm-1.641-.247a11.678,11.678,0,0,1,1.171-.143c.1-.06.2.071.3.2a.914.914,0,0,0,.168.187C329.31,40.2,328.766,40.11,328.226,40.017ZM18.6,18.007h0Zm-.086-.124c-.034-.066-.069-.131-.1-.124s-.06.008-.088.01c.04-.008.078-.016.115-.025s.064.083.108.174l.04.082A.46.46,0,0,1,18.513,17.882ZM17,17.717c0-.025.049-.053.157-.082a.937.937,0,0,1,.651.048,1.09,1.09,0,0,0,.51.085,3.7,3.7,0,0,1-.672.058C17.3,17.826,17,17.781,17,17.717Zm13.452-.065h0Zm5.038-1.007a7.492,7.492,0,0,1-1.754-.427,13.361,13.361,0,0,0,1.65.1.618.618,0,0,1,.539.345C35.786,16.662,35.641,16.656,35.495,16.645Z" transform="translate(3324.31 -2326.769)" fill="#d8d9bc"/>
    <path id="Union_10_-_Outline" data-name="Union 10 - Outline" d="M87.852,56.5c-.539,0-1.064-.027-1.646-.061H86.2c-.6-.033-1.173-.065-1.746-.055h-.067a8.08,8.08,0,0,1-1.881-.3l-.027-.006a6.861,6.861,0,0,0-1.663-.266c-.59.008-1.194.073-1.778.136-.6.065-1.227.132-1.848.139-.59.006-1.194.07-1.779.131-.6.063-1.228.129-1.848.134-1.2.01-2.4.016-3.563.023h-.091a10.991,10.991,0,0,1-1.918-.223,9.848,9.848,0,0,0-1.686-.2c-.651,0-1.3-.034-1.922-.066-.589-.031-1.145-.06-1.7-.063h-.063c-.573,0-1.147.042-1.7.082H60.9c-.61.045-1.243.091-1.862.084-.678-.008-1.35-.037-2-.064-.564-.024-1.1-.046-1.633-.057-.671-.013-1.331-.064-1.969-.114-.574-.044-1.117-.086-1.66-.1l-.112,0a8.408,8.408,0,0,0-1.609.214l-.024,0a8.23,8.23,0,0,1-1.908.227c-.722-.03-1.427-.092-2.109-.152-.528-.046-1.027-.09-1.525-.119-.15-.009-.3-.013-.469-.013-.421,0-.85.029-1.266.057l-.039,0c-.427.029-.868.059-1.3.06-.211,0-.4-.007-.589-.022a20.943,20.943,0,0,1-2.1-.307c-.528-.1-1.027-.187-1.514-.24-.572-.063-1.145-.082-1.7-.1a15.918,15.918,0,0,1-1.967-.144,5.748,5.748,0,0,1-2.144-.962,4.8,4.8,0,0,0-1.265-.649c-.3-.074-.591-.142-.872-.207a12.991,12.991,0,0,1-2.633-.8c-1.53-.735-2.457-1.393-2.673-2.581a7.014,7.014,0,0,0-.619-1.668,7.85,7.85,0,0,1-.677-1.837,3.856,3.856,0,0,1-.062-.737,9.8,9.8,0,0,1,.121-1.293,8.641,8.641,0,0,0,.11-1.159,2.6,2.6,0,0,0-.057-.573c-.081-.36-.158-.726-.233-1.081-.176-.837-.358-1.7-.6-2.5a9.9,9.9,0,0,0-.879-1.881,14.871,14.871,0,0,1-.729-1.441c-.155-.369-.3-.751-.437-1.121a14.4,14.4,0,0,0-.99-2.244,8.678,8.678,0,0,0-1.376-1.619c-.355-.357-.722-.725-1.051-1.129a12.684,12.684,0,0,1-.857-1.241,8.271,8.271,0,0,0-1.314-1.724,5.53,5.53,0,0,0-1.627-.876A8.548,8.548,0,0,1,11,24.948l-.819-.572.949-.312a6.25,6.25,0,0,1,.941-.053,14.623,14.623,0,0,1,2.755.26,6.765,6.765,0,0,1,1.573.6,6.665,6.665,0,0,0,1.53.589c.57.113,1.15.2,1.712.283.536.08,1.041.155,1.523.25a22.09,22.09,0,0,0,2.838.363,2.823,2.823,0,0,0-1.044-1.247l-.139-.1a2.767,2.767,0,0,0-1.762-.655c-.077,0-.156,0-.237.009l-.124.009-.114-.05a10.608,10.608,0,0,0-2.369-.659c-.36-.07-.7-.136-1.038-.22-1.16-.291-2.225-.477-3.255-.657L13.7,22.75a14.69,14.69,0,0,1-2.776-.872c-.271-.105-.551-.214-.825-.314L7.61,20.652l2.649-.057c.521-.011,1.016-.018,1.493-.024.516-.007,1-.013,1.5-.025l2.287-.055-1.712.836a7.569,7.569,0,0,0,2.131.356c.067,0,.138,0,.211,0a13.726,13.726,0,0,0,1.441-.108,15.306,15.306,0,0,1,1.64-.119h.068c.6,0,1.187.022,1.689.042l.181.007c.249.01.479.02.69.026a6.061,6.061,0,0,0-3.4-1.115l-.082,0-.049-.018a.948.948,0,0,1-.193-.033,4.462,4.462,0,0,0-1.119-.1c-.145,0-.3,0-.451,0s-.317,0-.482,0a12.5,12.5,0,0,1-1.649-.094,6.487,6.487,0,0,1-1.582-.509,6.168,6.168,0,0,0-2.045-.584c-.1,0-.213-.007-.326-.007-.5,0-1.034.048-1.6.1-.582.052-1.183.106-1.817.115l-1.155.017.027-.03c-.558.077-1.241.169-1.878.2l-.091,0L3.9,19.462a.738.738,0,0,0-.263,0l-.02,0a1.981,1.981,0,0,1-.256.021.716.716,0,0,1-.7-.446l-.078-.188.075-.189q.012-.029.026-.058l-.017.006.293-.549c-.333.015-.741.051-1.112.084l-.03,0c-.543.048-1.055.094-1.417.094a.971.971,0,0,1-.752-.214.539.539,0,0,1-.153-.4.573.573,0,0,1,.12-.326l.132-.174.218-.021c.655-.063,1.328-.167,2.039-.277.492-.076,1-.155,1.539-.226a9.091,9.091,0,0,0,1.539-.384l-.776.038.844-.9a4.453,4.453,0,0,0,.391-.56,4.316,4.316,0,0,1,.7-.926l.126-.111.167-.012c.621-.044,1.249-.146,1.914-.254.582-.094,1.183-.192,1.783-.248.554-.051,1.112-.085,1.652-.119.7-.043,1.368-.084,2.031-.159a6.7,6.7,0,0,1,.761-.04c.409,0,.812.029,1.2.057l.027,0c.382.028.742.054,1.092.054a4.811,4.811,0,0,0,.644-.039,9.38,9.38,0,0,0,1.974-.57,9.4,9.4,0,0,1,1.58-.485,13.939,13.939,0,0,1,2.418-.175c.329,0,.666,0,.907-.032a4.059,4.059,0,0,0-2.112-.767,3.5,3.5,0,0,0-1.039.2l-.1.028a5.555,5.555,0,0,1-1.662.264,11.019,11.019,0,0,1-1.828-.252A9,9,0,0,0,16.138,11h-.1c-.6,0-1.052.038-1.536.078-.414.034-.842.07-1.362.08L10.7,11.2l2.227-1A9.51,9.51,0,0,1,14.6,9.647c.395-.1.8-.206,1.289-.38a11.8,11.8,0,0,0,1.351-.62,11.21,11.21,0,0,1,1.944-.836c.295-.085.585-.172.893-.264.829-.247,1.687-.5,2.575-.719l.152-.037.146.056a.966.966,0,0,1,.42.376c.028.038.072.1.1.131a2.379,2.379,0,0,0,.3.016c.362,0,.845-.049,1.4-.105s1.169-.118,1.829-.15c.785-.037,1.625-.121,2.515-.211.362-.036.735-.074,1.106-.108.184-.017.376-.026.584-.026.454,0,.9.041,1.338.08l.029,0c.419.039.815.075,1.191.075a4.143,4.143,0,0,0,.54-.032,7.443,7.443,0,0,0,1.931-.566l-.706-.019c-.609-.017-1.253-.085-1.877-.151a17.4,17.4,0,0,0-1.993-.139l-.088-.994c.633-.1,1.357-.159,2.058-.214.627-.049,1.275-.1,1.845-.182a7.713,7.713,0,0,0,1.6-.487,8.514,8.514,0,0,1,1.943-.567c.637-.083,1.292-.11,1.925-.137.571-.024,1.163-.049,1.734-.114a3.846,3.846,0,0,1,.452-.026,8.794,8.794,0,0,1,1.521.178l.024,0a8.118,8.118,0,0,0,1.4.168,3.147,3.147,0,0,0,.322-.016,5.653,5.653,0,0,0,1.591-.528,6.484,6.484,0,0,1,1.969-.623c.205-.02.419-.029.655-.029.425,0,.853.032,1.267.063l.03,0c.394.029.8.059,1.191.059.195,0,.371-.007.54-.022a15.094,15.094,0,0,0,1.7-.28,15.838,15.838,0,0,1,1.918-.307c.117-.009.24-.014.365-.014a10.111,10.111,0,0,1,1.569.164l.025,0a9.478,9.478,0,0,0,1.463.156c.091,0,.181,0,.266-.009a6.114,6.114,0,0,0,1.63-.451A6.945,6.945,0,0,1,64.548,1.3c.089-.006.181-.009.274-.009a8.907,8.907,0,0,1,1.7.219,8.131,8.131,0,0,0,1.53.2c.065,0,.129,0,.191-.005.633-.037,1.276-.039,1.9-.04.579,0,1.178,0,1.762-.033a7.315,7.315,0,0,0,1.675-.369A8.175,8.175,0,0,1,75.52.849c.093,0,.191-.007.289-.007a12.6,12.6,0,0,1,1.612.138l.027,0a11.964,11.964,0,0,0,1.535.135c.072,0,.143,0,.212,0A12.789,12.789,0,0,0,80.921.88a13.6,13.6,0,0,1,1.91-.253c.088,0,.181-.005.274-.005a14.3,14.3,0,0,1,1.646.126A13.43,13.43,0,0,0,86.3.869c.067,0,.134,0,.2,0,.574-.02,1.16-.048,1.728-.076.629-.031,1.279-.063,1.923-.083A11.725,11.725,0,0,0,91.882.477,12.6,12.6,0,0,1,93.794.23,15.972,15.972,0,0,0,95.542.052a16.721,16.721,0,0,1,1.9-.189h.085a6.877,6.877,0,0,1,1.9.359l.013,0A5.9,5.9,0,0,0,101.12.54c.106,0,.219,0,.333,0,.5,0,1,.022,1.557.049.635.03,1.2.054,1.772.046a4.807,4.807,0,0,0,1.63-.469,5.581,5.581,0,0,1,2.007-.545h.057a8.064,8.064,0,0,1,1.905.3,7.307,7.307,0,0,0,1.68.276h.026c.582-.007,1.186-.064,1.77-.118.613-.057,1.247-.116,1.881-.122h.051a12.228,12.228,0,0,1,1.863.19,11.362,11.362,0,0,0,1.732.18h.014a6.963,6.963,0,0,0,1.693-.31,7.758,7.758,0,0,1,1.955-.344h.017a6.344,6.344,0,0,1,1.97.423A5.609,5.609,0,0,0,126.7.469a4.752,4.752,0,0,0,1.642-.45A5.509,5.509,0,0,1,130.35-.5a5.921,5.921,0,0,1,2,.475A5.106,5.106,0,0,0,134,.388a9.589,9.589,0,0,0,1.731-.22l.035-.007a10.109,10.109,0,0,1,1.86-.229h.041A11.3,11.3,0,0,0,139.4-.253a12.1,12.1,0,0,1,1.879-.2h.033a16.33,16.33,0,0,1,1.9.158,15.475,15.475,0,0,0,1.753.149h.048c.545,0,1.081-.046,1.724-.106l.048,0a18.373,18.373,0,0,1,1.835-.1,14.563,14.563,0,0,1,1.908.185A13.649,13.649,0,0,0,152.267,0a10.428,10.428,0,0,1,1.928.26A9.495,9.495,0,0,0,155.913.5h.072a14.376,14.376,0,0,0,1.69-.136l.045-.005a14.326,14.326,0,0,1,1.848-.134c.6.007,1.212-.006,1.781-.018.464-.01.918-.019,1.38-.019.173,0,.334,0,.492,0,.637.009,1.272.066,1.886.121s1.184.105,1.764.115c.626.01,1.254.044,1.861.076.589.031,1.2.064,1.788.073l.3,0c.478,0,.968-.02,1.441-.039l.149-.006c.578-.022,1.177-.045,1.766-.034A11.9,11.9,0,0,1,176.1.751a10.806,10.806,0,0,0,1.717.226h.116A13.527,13.527,0,0,0,179.58.839a12.884,12.884,0,0,1,1.89-.145,14.4,14.4,0,0,1,1.912.21,13.21,13.21,0,0,0,1.728.194,15.828,15.828,0,0,0,1.782-.1h.01a16.385,16.385,0,0,1,1.862-.1,17.606,17.606,0,0,1,1.91.181,16.216,16.216,0,0,0,1.732.167l.2,0c.514,0,1.042-.045,1.553-.088l.032,0c.5-.044,1.078-.094,1.637-.094l.226,0h.143a14.408,14.408,0,0,0,1.63-.124L197.89.94a13.551,13.551,0,0,1,1.824-.119c.629.015,1.257.049,1.865.082.567.031,1.154.063,1.721.077a13.884,13.884,0,0,0,1.717-.1l.038,0a14.513,14.513,0,0,1,1.84-.11,6.827,6.827,0,0,1,1.96.438,5.882,5.882,0,0,0,1.608.378h.069a6.18,6.18,0,0,0,1.6-.3l.015,0a6.819,6.819,0,0,1,1.826-.337h.095A8.443,8.443,0,0,1,216,1.289a7.4,7.4,0,0,0,1.634.311,12.055,12.055,0,0,1,1.9.257,10.861,10.861,0,0,0,1.671.232,10.4,10.4,0,0,0,1.724-.145l.019,0a12.17,12.17,0,0,1,1.655-.151c.067,0,.133,0,.2,0a13.5,13.5,0,0,1,1.9.239,12.226,12.226,0,0,0,1.674.217l.1,0a6.707,6.707,0,0,0,1.584-.271l.016,0a6.894,6.894,0,0,1,1.909-.291c.6.023,1.2.035,1.782.047s1.207.025,1.8.049a7.84,7.84,0,0,1,1.949.41,6.753,6.753,0,0,0,1.6.352c.339.014.7.02,1.169.02l.61,0,.537,0c.514,0,.906.007,1.269.024.062,0,.128,0,.194,0a10.137,10.137,0,0,0,1.529-.158,10.611,10.611,0,0,1,1.631-.169c.086,0,.171,0,.253.006a13,13,0,0,1,1.925.286,11.687,11.687,0,0,0,1.636.252,10.611,10.611,0,0,1,1.94.345,9.311,9.311,0,0,0,1.614.3c.07,0,.142.006.216.006a8.425,8.425,0,0,0,1.5-.185l.048-.009a8.957,8.957,0,0,1,1.579-.19c.092,0,.183,0,.271.009a8.607,8.607,0,0,1,1.973.439,7.369,7.369,0,0,0,1.562.366l.909.068c.929.069,1.806.135,2.662.208.495.042.981.08,1.451.116.738.056,1.435.11,2.12.179.6.06,1.2.063,1.777.066a15.99,15.99,0,0,1,1.815.077c.59.072,1.167.107,1.726.141.65.04,1.264.077,1.861.168a15.071,15.071,0,0,0,1.768.126,11.414,11.414,0,0,1,1.85.155,9.525,9.525,0,0,1,2.177.788,8.658,8.658,0,0,0,1.238.5c.41.115.8.215,1.18.312a14.922,14.922,0,0,1,2.318.72c.344.152.684.291,1.013.425a12.682,12.682,0,0,1,2.338,1.142c.552.374,1.074.762,1.626,1.172.407.3.828.616,1.275.933a10.14,10.14,0,0,1,1.072.924,8.878,8.878,0,0,0,1.654,1.322c.745.43,1.6.826,2.588,1.284l.582.27,1.656.772-1.818.178c-.082.008-.17.012-.269.012-.281,0-.615-.032-1-.069l-.286-.027a16.872,16.872,0,0,0-1.99-.089,6.5,6.5,0,0,0-1.412.272,8.525,8.525,0,0,1-2.117.365c-.382,0-.772,0-1.172,0l.014.006a4.228,4.228,0,0,0,1.479.475l.2,0a13.642,13.642,0,0,0,1.553-.118l.042,0a12.192,12.192,0,0,1,1.7-.116c.1,0,.2,0,.3,0,.517,0,1-.034,1.541-.074l.042,0c.488-.038.95-.074,1.392-.074.076,0,.15,0,.221,0a14.186,14.186,0,0,1,3.124.43c.1.024.206.05.248.057h.094l.1.049a.616.616,0,0,1,.437.536l0,.207-.05.052c.113.01.231.021.356.034l.091.01.082.041c.741.373,1.267.663,1.651.874a4.749,4.749,0,0,0,1.012.483,2.364,2.364,0,0,1,.854.466,9.972,9.972,0,0,0,1.829,1.084l2.616,1.233-2.209-.217.037.084.083.191a3.019,3.019,0,0,1,.319,1.05.674.674,0,0,1-.186.5.631.631,0,0,1-.454.184h-.037c-.213-.011-.43-.025-.652-.039-.65-.041-1.322-.083-2.048-.083-.324,0-.628.008-.929.025l-.506.028c-1.019.055-2.072.112-3.176.232-.752.082-1.506.2-2.3.328-.446.07-.907.143-1.369.209-.517.073-1.043.132-1.553.189-.7.078-1.43.159-2.135.279-.562.1-1.132.168-1.682.238-.693.089-1.348.172-2,.3l-.967.184c-.934.176-1.815.343-2.679.528a11.944,11.944,0,0,1-2.01.208,9.232,9.232,0,0,0-1.719.18l-.03.008a.611.611,0,0,1,.031.179c.016.611-.753.82-1.586.954a6.338,6.338,0,0,1-.872.073,4.756,4.756,0,0,1-.935.414c-.365.107-1.147.337-1.814.558a17.225,17.225,0,0,0,1.907.106q.16,0,.323,0a6.6,6.6,0,0,0,1.561-.322,8.859,8.859,0,0,1,1.857-.387l.141-.009.125.066a8.184,8.184,0,0,0,2.611.51,1.7,1.7,0,0,0,.845-.15l.093-.055.108-.011c.132-.014.4-.076.739-.154.578-.133,1.452-.333,2.556-.505.369-.056.758-.114,1.165-.175.736-.11,1.5-.223,2.306-.352a5.4,5.4,0,0,0,1.467-.574,6.583,6.583,0,0,1,1.88-.709,4.609,4.609,0,0,1,.742-.055c.4,0,.807.04,1.167.076l.019,0c.37.035.719.069,1.058.069a3.611,3.611,0,0,0,.579-.042,8.9,8.9,0,0,0,1.666-.512,9.139,9.139,0,0,1,1.713-.525c.717-.12,1.393-.246,2.048-.368.494-.092.96-.179,1.4-.255a8.113,8.113,0,0,1,2.9.023c.166.03.307.061.42.085l.14.03.092-.033.184.084a.531.531,0,0,1,.317.452v.007c.017.413-.389.553-.542.606s-.347.108-.635.181c-.523.133-1.26.3-2.193.512l-.364.083-.032.007.267-.051c.563-.108,1.1-.21,1.574-.334a30.3,30.3,0,0,0,3.325-1.018l.213-.114.219.1a5.687,5.687,0,0,1,3.425,3.622l.037.1c.375,1.044.646,1.8,2.633,2.44l2.249.727-2.35.246a13.522,13.522,0,0,0-1.926.424,20.342,20.342,0,0,1-2.035.47,6.242,6.242,0,0,1-.994.069c-.314,0-.634-.015-.944-.03h-.008c-.3-.014-.615-.029-.922-.029a5.568,5.568,0,0,0-1.047.084,8.086,8.086,0,0,0-1.772.64,9.252,9.252,0,0,1-1.917.694c-.683.138-1.359.324-2.013.5-.6.165-1.167.321-1.743.445a10.87,10.87,0,0,1-2.259.173,8.042,8.042,0,0,0-1.641.11,22.652,22.652,0,0,0-3.8,1.255,1.971,1.971,0,0,1-.284.109l-.7.17.049-.394-.034-.007a6.986,6.986,0,0,0-1.126-.064c-.338,0-.728.007-1.141.015l-.441.008-.152-.164a1.949,1.949,0,0,1-.123-.153.976.976,0,0,0-.628-.478,11.181,11.181,0,0,0-1.9.219,18.532,18.532,0,0,1-2.243.3c-.575.048-1.187.087-1.835.128-.773.049-1.572.1-2.394.171l-.057.005-.057-.008a8.584,8.584,0,0,1-1.206-.306,11.045,11.045,0,0,0-2.69-.547c-.134-.007-.273-.01-.422-.01-.43,0-.869.03-1.294.058h-.021c-.419.03-.9.064-1.36.064-.088,0-.174,0-.257,0l-.193,0a13.489,13.489,0,0,0-1.519.114l-.017,0a13.877,13.877,0,0,1-1.573.121h-.044c-.558,0-1.1-.045-1.625-.083-.6-.044-1.159-.086-1.709-.074a18.727,18.727,0,0,0-1.867.155c-.5.059-.975.114-1.455.138-.155.007-.311.011-.478.011-.41,0-.808-.022-1.214-.046l-.057,0c-.36-.02-.7-.039-1.03-.039-.205,0-.387.007-.555.023l-.04,0-.04,0a2.509,2.509,0,0,1-.453-.078c-.1.288-.236.625-.613.654-.028,0-.058,0-.088,0a4.341,4.341,0,0,1-.988-.192c-.145-.038-.3-.077-.457-.117a8.362,8.362,0,0,0-2-.28c-.174,0-.347.008-.513.024-.616.058-1.259.15-1.94.248-.66.095-1.342.193-2.016.26l-.135.014.258.011h.017c.367.015.715.03,1.05.03.175,0,.331,0,.476-.012l3.261-.184-3.057,1.151a3.323,3.323,0,0,0-.759.371,4.528,4.528,0,0,0,1.254.387,10.4,10.4,0,0,0,1.748.085h.321c.314,0,.682,0,1.063.012h.071a8.171,8.171,0,0,0,1.365-.169,10.948,10.948,0,0,1,1.749-.212h.078a8.331,8.331,0,0,1,1.5.185l.062.011a8.192,8.192,0,0,0,1.457.181l.145,0,3.542-.143-3.365,1.117c-.364.121-.636.227-.837.316l.133.011a6.358,6.358,0,0,1,.869.152,8.4,8.4,0,0,0,1.86.249c.15,0,.3-.006.451-.018.52-.04,1.121-.125,1.757-.216.458-.065.932-.132,1.442-.194a13.2,13.2,0,0,0,1.9-.421,12.4,12.4,0,0,1,1.949-.423c.671-.072,1.342-.188,1.991-.3.683-.118,1.328-.23,1.952-.289l2.876-.27-2.293,1.07a5.584,5.584,0,0,0,2.161.43,4.359,4.359,0,0,0,1.566-.346l.048-.017a5.114,5.114,0,0,1,1.66-.385h.025a6.791,6.791,0,0,1,1.859.357,5.884,5.884,0,0,0,1.212.272,4.718,4.718,0,0,1,1.021-.254,5.635,5.635,0,0,1,.569-.061c.142-.051.282-.1.419-.156a6.072,6.072,0,0,1,1.363-.4,6.95,6.95,0,0,1,.875-.055,9.768,9.768,0,0,1,1.344.1l.209.03a5.135,5.135,0,0,0,.61.067l.055,0,.082-.067.157-.011a30.822,30.822,0,0,0,3.654-.543c.333-.064.647-.125.929-.174l.13-.023.124.045a21.859,21.859,0,0,0,5.09.585c.043,0,.089,0,.136,0a6.717,6.717,0,0,0,1.472-.23l.035-.008a6.776,6.776,0,0,1,1.721-.245,7.273,7.273,0,0,1,1.815.359,5.821,5.821,0,0,0,1.51.3c.56,0,1.107.044,1.637.082.6.044,1.161.085,1.709.074.708-.014,1.4-.066,2.076-.116.437-.033.85-.063,1.263-.084a6.486,6.486,0,0,0,1.7-.411,7.042,7.042,0,0,1,1.59-.405l.038,0,.038,0h0a.861.861,0,0,0,.239-.07l.056-.022a1.213,1.213,0,0,1,.459-.116h.04a.926.926,0,0,1,.363.105l0,0a.872.872,0,0,1,.641.444l.074.1,0,.006a1.129,1.129,0,0,0,.139.157h.005l.065.012c.622.113,1.248.164,1.91.218.538.044,1.094.09,1.649.171.477.069.953.152,1.414.232l.273.047c.41-.066.745-.107,1.066-.13a.6.6,0,0,1,.155-.021.839.839,0,0,1,.648.415l.01.013,1.436.157-.686.407.9.637-1.724-.2a.6.6,0,0,1-.089.007h0a.616.616,0,0,1-.225-.044c-.515-.063-1.022-.145-1.5-.226l-.466.082a14.155,14.155,0,0,1-1.543.219c-.644.042-1.245.115-1.826.185-.5.06-.968.117-1.414.148l-.047,0-.046-.006a1.65,1.65,0,0,0-.191-.01,8.149,8.149,0,0,0-.971.094l-.178.023a11.684,11.684,0,0,1-1.823.125c-.476-.011-1.006-.018-1.611-.021l-.067.171a8.837,8.837,0,0,0,3.315.594,13.331,13.331,0,0,0,2-.177,18.013,18.013,0,0,1,2.345-.213l2.221,0-2.005.954c-.506.241-1.067.582-1.661.943a17.61,17.61,0,0,1-2.324,1.263l-.108.044-.116-.008c-.265-.018-.527-.034-.782-.046l-.411.159c-.1.039-.2.078-.3.119l.94-.078-3.741,1.3a12.874,12.874,0,0,0-1.224.526,12.511,12.511,0,0,1-1.565.65,2.452,2.452,0,0,1-.728.1,6.79,6.79,0,0,1-1.013-.1l-.017,0a6.066,6.066,0,0,0-.882-.094,1.561,1.561,0,0,0-.434.053l-.15.043.035.239c-.214.033-.493.067-.83.1h0c-.368.04-.742.075-1.1.108-.559.052-1.136.106-1.708.179-.639.081-1.29.134-1.92.186-.571.047-1.161.095-1.74.163a7.158,7.158,0,0,0-1.642.483,7.988,7.988,0,0,1-1.944.553,17.6,17.6,0,0,1-1.911.071,17.74,17.74,0,0,0-1.776.06c-.569.059-1.131.158-1.726.262-.623.11-1.267.223-1.919.285-.634.06-1.277.081-1.9.1-.586.02-1.193.04-1.783.092a10.244,10.244,0,0,0-1.7.354,11.051,11.051,0,0,1-1.934.391c-.162.013-.326.02-.5.02a14.389,14.389,0,0,1-1.438-.1c-.445-.044-.9-.09-1.339-.09-.15,0-.288.005-.422.016a11.769,11.769,0,0,0-1.722.309,12.61,12.61,0,0,1-1.926.338c-.633.046-1.276.054-1.9.062-.588.008-1.2.016-1.786.056-.1.007-.205.01-.311.01a10.217,10.217,0,0,1-1.63-.175l-.029,0a9.477,9.477,0,0,0-1.5-.164c-.084,0-.166,0-.245.007a12.84,12.84,0,0,0-1.731.271,13.675,13.675,0,0,1-1.925.294c-.632.036-1.275.052-1.9.068-.586.015-1.191.03-1.786.062s-1.157.114-1.766.2-1.253.181-1.9.214c-.585.029-1.185.078-1.765.126-.624.051-1.269.1-1.911.133-.093,0-.189.006-.287.006a13.29,13.29,0,0,1-1.62-.132l-.031,0a12.636,12.636,0,0,0-1.526-.128c-.079,0-.157,0-.232,0a11,11,0,0,0-1.735.266,11.887,11.887,0,0,1-1.931.289c-.094,0-.192.006-.292.006a15.316,15.316,0,0,1-1.626-.115h-.007a14.6,14.6,0,0,0-1.526-.108c-.083,0-.164,0-.243,0a14.739,14.739,0,0,0-1.76.209,15.714,15.714,0,0,1-1.91.223c-.632.022-1.275.027-1.9.031-.586,0-1.193.008-1.787.027a14.118,14.118,0,0,0-1.763.206,15.168,15.168,0,0,1-1.908.22c-.178.005-.362.008-.562.008-.411,0-.827-.011-1.23-.022l-.088,0c-.447-.013-.849-.024-1.258-.024-.2,0-.374,0-.548.008l-.13,0a9.629,9.629,0,0,1-1.8-.226l-.026,0a8.2,8.2,0,0,0-1.744-.212,6.019,6.019,0,0,0-1.677.394,6.861,6.861,0,0,1-1.986.447,10.542,10.542,0,0,1-1.88-.178l-.056-.009a9.912,9.912,0,0,0-1.757-.175c-.1,0-.2,0-.31,0-.528,0-1.061-.027-1.576-.054-.649-.033-1.22-.06-1.8-.048-.228,0-.466.006-.727.006-.4,0-.8,0-1.149-.01s-.729-.008-1.092-.008c-.26,0-.494,0-.714.006a8.492,8.492,0,0,0-1.718.282,9.355,9.355,0,0,1-1.954.31h-.069a7.348,7.348,0,0,1-1.913-.34l-.01,0a6.252,6.252,0,0,0-1.7-.3,5.186,5.186,0,0,0-1.658.437,6,6,0,0,1-2.011.5H201.2a7,7,0,0,1-1.936-.368,6.233,6.233,0,0,0-1.667-.328h-.035q-.836.012-1.676.029c-.656.012-1.335.025-2.006.034a14.51,14.51,0,0,0-1.766.173,15.477,15.477,0,0,1-1.913.184h-.109c-.6,0-1.2-.054-1.783-.105-.52-.048-1.108-.1-1.676-.1h-.119c-.589.007-1.173.066-1.79.128s-1.252.126-1.891.134h-.057a13.576,13.576,0,0,1-1.85-.169,12.176,12.176,0,0,0-1.779-.157c-.59.006-1.188.007-1.766.008-.63,0-1.281,0-1.921.01a6.187,6.187,0,0,0-1.69.36,7.016,7.016,0,0,1-1.988.406h-.1c-.62,0-1.241-.049-1.789-.091l-.052,0c-.577-.044-1.173-.088-1.75-.083h-.088c-.6,0-1.21-.051-1.8-.1H166.2c-.593-.05-1.205-.1-1.8-.094-.615.006-1.24.006-1.844.007s-1.228,0-1.842.007c-.568.005-1.144.008-1.7.011-.636,0-1.294.007-1.939.014-.614.007-1.241.034-1.847.06-.585.025-1.19.051-1.789.06h-.066a11.743,11.743,0,0,1-1.815-.187l-.021,0a10.29,10.29,0,0,0-1.735-.177,5.254,5.254,0,0,0-1.654.422,6.045,6.045,0,0,1-1.971.482h-.054a7.663,7.663,0,0,1-1.9-.32l-.016,0a6.587,6.587,0,0,0-1.673-.281,7.485,7.485,0,0,0-1.7.3,8.293,8.293,0,0,1-1.919.334c-.608.012-1.225.018-1.822.024s-1.208.012-1.809.024a11.58,11.58,0,0,1-1.881-.167l-.026,0a11.413,11.413,0,0,0-1.636-.162h-.1a15.548,15.548,0,0,0-1.771.171,16.534,16.534,0,0,1-1.856.178h-.128a13.357,13.357,0,0,1-1.772-.157,11.309,11.309,0,0,0-1.737-.145,12.233,12.233,0,0,0-1.753.208,13.151,13.151,0,0,1-1.868.22,12.313,12.313,0,0,0-1.752.207,13.146,13.146,0,0,1-1.872.218c-.116,0-.238,0-.363,0-.475,0-.952-.018-1.413-.036l-.076,0c-.511-.021-.97-.038-1.428-.038-.121,0-.24,0-.353,0h-.082a7.483,7.483,0,0,1-1.875-.319l-.012,0a6.334,6.334,0,0,0-1.676-.285,6.168,6.168,0,0,0-1.677.373,6.921,6.921,0,0,1-1.939.416h-.082a7.426,7.426,0,0,1-1.889-.326h-.006a6.221,6.221,0,0,0-1.669-.291c-.629.014-1.263.019-1.875.024-.577,0-1.174.01-1.757.022-.6.012-1.215.022-1.8.03s-1.22.018-1.826.031a5.181,5.181,0,0,0-1.655.441,5.9,5.9,0,0,1-1.961.5c-.595.011-1.2.028-1.779.044-.608.017-1.238.034-1.852.045Zm-3.189-1.118c.532,0,1.07.03,1.59.058h.009c.648.037,1.223.067,1.809.057.609-.011,1.236-.028,1.842-.045.584-.016,1.188-.033,1.787-.044a5.105,5.105,0,0,0,1.624-.434,5.984,5.984,0,0,1,1.991-.506c.608-.013,1.23-.022,1.831-.031s1.2-.018,1.8-.03,1.189-.017,1.769-.022c.609-.005,1.24-.011,1.862-.024h.081a7.344,7.344,0,0,1,1.866.325h0a6.3,6.3,0,0,0,1.694.292,6.1,6.1,0,0,0,1.657-.37,7,7,0,0,1,1.958-.42h.082a7.5,7.5,0,0,1,1.866.317l.013,0a6.359,6.359,0,0,0,1.684.286c.12,0,.246,0,.374,0,.478,0,.947.018,1.468.039l.075,0c.452.017.919.035,1.374.035.118,0,.233,0,.342,0a12.216,12.216,0,0,0,1.73-.2,13.239,13.239,0,0,1,1.894-.22,12.213,12.213,0,0,0,1.725-.206,13.174,13.174,0,0,1,1.9-.222l.142,0a13.164,13.164,0,0,1,1.746.155,11.721,11.721,0,0,0,1.75.147,15.559,15.559,0,0,0,1.742-.169,16.539,16.539,0,0,1,1.885-.179,11.684,11.684,0,0,1,1.9.171l.025,0a10.638,10.638,0,0,0,1.719.157c.6-.012,1.221-.018,1.817-.024s1.209-.012,1.814-.024a7.443,7.443,0,0,0,1.688-.3,8.333,8.333,0,0,1,1.932-.336h.063a7.665,7.665,0,0,1,1.872.312l.017,0a6.76,6.76,0,0,0,1.693.288,5.245,5.245,0,0,0,1.64-.42,6.056,6.056,0,0,1,1.985-.484,11.3,11.3,0,0,1,1.9.189l.02,0a10.526,10.526,0,0,0,1.715.175c.582-.008,1.18-.034,1.758-.059.614-.027,1.249-.054,1.879-.061.648-.007,1.307-.011,1.945-.014.556,0,1.13-.006,1.7-.011.619-.006,1.245-.006,1.851-.007s1.224,0,1.834-.007h.114c.6,0,1.2.05,1.779.1h.005c.619.052,1.2.1,1.792.1h.12c.578,0,1.156.044,1.715.086l.053,0c.558.044,1.19.093,1.8.088a6.19,6.19,0,0,0,1.7-.362,7.01,7.01,0,0,1,1.974-.4c.645-.007,1.3-.008,1.929-.01.577,0,1.173,0,1.757-.008h.089a13.462,13.462,0,0,1,1.833.166,12.676,12.676,0,0,0,1.718.16h.047c.593-.007,1.207-.069,1.8-.129.612-.062,1.245-.125,1.878-.133h.132c.614,0,1.226.056,1.766.106.59.053,1.2.107,1.79.1a14.508,14.508,0,0,0,1.788-.174,15.487,15.487,0,0,1,1.889-.182c.669-.009,1.346-.022,2-.034q.841-.016,1.68-.029h.049a7.053,7.053,0,0,1,1.943.367,6.02,6.02,0,0,0,1.7.329,5.2,5.2,0,0,0,1.674-.439,5.985,5.985,0,0,1,1.994-.5h.069a7.352,7.352,0,0,1,1.909.338l.007,0a6.27,6.27,0,0,0,1.706.306,8.478,8.478,0,0,0,1.745-.284,9.363,9.363,0,0,1,1.925-.308c.227,0,.467-.006.734-.006.369,0,.741,0,1.1.008s.747.01,1.139.01c.255,0,.486,0,.707-.006.1,0,.208,0,.317,0,.505,0,1,.023,1.555.052.5.026,1.021.052,1.524.052q.143,0,.287,0l.137,0a11.429,11.429,0,0,1,1.8.189l.054.008a9.654,9.654,0,0,0,1.7.166,6.039,6.039,0,0,0,1.695-.4,6.839,6.839,0,0,1,1.966-.445l.131,0a9.719,9.719,0,0,1,1.828.231l.025,0a8.1,8.1,0,0,0,1.712.207c.182-.005.371-.008.576-.008.423,0,.85.012,1.287.025l.087,0c.4.011.8.022,1.2.022.19,0,.364,0,.532-.007a14.205,14.205,0,0,0,1.782-.208,15.08,15.08,0,0,1,1.888-.218c.607-.02,1.219-.024,1.812-.028.615,0,1.251-.008,1.869-.03a14.735,14.735,0,0,0,1.788-.211,15.722,15.722,0,0,1,1.879-.22c.09,0,.185-.005.28-.005a15.576,15.576,0,0,1,1.63.114h.009a14.342,14.342,0,0,0,1.52.11c.086,0,.171,0,.251,0a10.974,10.974,0,0,0,1.769-.269,11.926,11.926,0,0,1,1.894-.286c.089,0,.182-.006.276-.006a13.382,13.382,0,0,1,1.649.135l.031,0a12.347,12.347,0,0,0,1.5.124c.082,0,.164,0,.241-.005.625-.029,1.261-.081,1.875-.131.588-.048,1.2-.1,1.8-.128s1.211-.119,1.8-.205,1.229-.178,1.855-.211c.608-.033,1.221-.048,1.814-.063l.4-.01q0-.012,0-.024v-.006c.028-.391.359-.59,1.415-.853a19.427,19.427,0,0,1,2.6-.437,9.177,9.177,0,0,1,.96-.043c.3,0,.618.009.9.017h.033c.285.007.58.015.872.015s.521-.007.746-.021l.109.984a6.679,6.679,0,0,0,.947.08c.084,0,.166,0,.245-.008.617-.042,1.239-.05,1.839-.058s1.236-.016,1.84-.06a11.682,11.682,0,0,0,1.773-.315c.323-.074.653-.15.987-.212l-.083.005-.281.01c-.283.009-.71.022-1.243.051l-.111-.992a6.972,6.972,0,0,1,1.113-.123c.068,0,.134,0,.2.007l.337.025a.563.563,0,0,1,.508.28l.13.242-.139.242a.481.481,0,0,1-.3.23c.249-.043.5-.077.753-.1.16-.013.323-.019.5-.019.487,0,.968.048,1.434.094h.005c.465.047.9.091,1.338.091.151,0,.289-.005.423-.016a10.151,10.151,0,0,0,1.758-.361,11.146,11.146,0,0,1,1.869-.383c.617-.055,1.238-.076,1.838-.1.635-.021,1.235-.041,1.838-.1s1.237-.169,1.841-.275c.586-.1,1.192-.21,1.8-.272a18.5,18.5,0,0,1,1.878-.066,16.606,16.606,0,0,0,1.8-.065,7.137,7.137,0,0,0,1.7-.494,8,8,0,0,1,1.879-.541c.582-.069,1.168-.117,1.735-.164a.553.553,0,0,1,.133-.312c-.226-.013-.389-.037-.558-.061s-.374-.054-.688-.073c-.254-.015-.449-.027-.574-.039-.074-.007-.125-.013-.167-.021a.512.512,0,0,1-.446-.517v-.013a.511.511,0,0,1,.047-.2L302,46.019A12.467,12.467,0,0,0,300.255,46c-.1.005-.2.008-.311.008-.371,0-.762-.03-1.175-.062l-.13-.01c-.492-.037-.939-.068-1.424-.068-.263,0-.509.009-.75.028a5.835,5.835,0,0,0-1.515.44c-.374.143-.777.3-1.207.417q.149.015.3.025l.166.012.506.037c.179.015.551.045.61.443v.01l.028.219-.143.169c-.148.175-.276.179-.655.194-.435.016-1.339.05-2.292.179a18.653,18.653,0,0,0-2.063.446,7.514,7.514,0,0,1-1.511.3h0a.874.874,0,0,1-.349-.063.665.665,0,0,1-.436-.622c0-.392.351-.73,1.061-1.031a6.533,6.533,0,0,1,1.027-.33c-.178-.013-.358-.021-.539-.021a5.058,5.058,0,0,0-.515.025,7.534,7.534,0,0,0-1.631.441,9.391,9.391,0,0,1-2.074.544,15.7,15.7,0,0,1-1.685.08c-.291,0-.569-.005-.853-.011h-.026c-.258,0-.5-.009-.737-.009-.282,0-.508.006-.713.02-.3.019-.609.029-.911.029a18.838,18.838,0,0,1-2.371-.172c-.282-.034-.525-.063-.744-.08a10.7,10.7,0,0,1-1.342-.162c-.192-.041-.777-.167-.787-.679-.009-.461.48-.673.772-.8s.7-.273,1.265-.474c.272-.1.568-.218.882-.347A10.081,10.081,0,0,1,281,44.248l.049,0a.959.959,0,0,1,.725.476c.023.029.052.067.078.1.809.023,1.247.033,1.672.043.488.012.949.022,1.918.051.094,0,.187,0,.275,0a6.324,6.324,0,0,0,1.471-.16,7.258,7.258,0,0,1,1.659-.179c.1,0,.21,0,.32,0,.945.027,1.423.065,1.886.1s.912.073,1.824.1c.311.008.586.012.84.012.4,0,.7-.011.979-.021h.034c.281-.01.571-.02.967-.02.272,0,.566,0,.9.015.225.006.429.009.622.009.529,0,.878-.024,1.186-.045.345-.022.7-.045,1.235-.045.211,0,.435,0,.683.01a5.563,5.563,0,0,1,1.892.349l2.036.727.076-.024.013-.023a.927.927,0,0,1,.751-.565h.08a6.916,6.916,0,0,1,1.616.262l.007,0a5.861,5.861,0,0,0,1.514.236c.516-.014,1.043-.032,1.553-.048.545-.018,1.108-.036,1.651-.051a5.726,5.726,0,0,0,.963-.121l.213.977-.277.067c.209.02.415.052.616.083l.016,0a5.974,5.974,0,0,0,.863.091,1.472,1.472,0,0,0,.432-.056,11.16,11.16,0,0,0,1.361-.565l-.082-.017.1-.992c.367,0,.716.011,1.015.019l.122,0c.333.008.648.017.921.017a.572.572,0,0,1-.4-.56c.017-.513.608-.578.892-.609a12.323,12.323,0,0,1,1.268-.053c.633,0,1.37.027,2.137.078a15.706,15.706,0,0,0,1.8-.98,15.4,15.4,0,0,1-1.969.184l-.167,0a12.675,12.675,0,0,1-2.929-.4,2.691,2.691,0,0,1-1.234-.608h-.109c-.419,0-.859-.035-1.284-.069l-.064-.005c-.471-.039-.894-.071-1.317-.071-.158,0-.3,0-.445.014a5.724,5.724,0,0,0-1.566.434,6.463,6.463,0,0,1-1.9.5c-.08,0-.161.006-.241.006a9.374,9.374,0,0,1-1.735-.211l-.022,0a7.962,7.962,0,0,0-1.437-.19l-.111,0a17.713,17.713,0,0,0-1.855.193,11.493,11.493,0,0,1-1.673.158c-1.7-.024-2.526-.354-2.522-1.01,0-.636.856-.933,1.688-1.141a4.864,4.864,0,0,1,1.161-.105l.326,0h.03l.368,0a7.749,7.749,0,0,0,.967-.05c.281-.036.566-.078.869-.123.578-.086,1.174-.174,1.805-.227l.013-.005a6.663,6.663,0,0,1,1.244-.39l-.3-.085a6.426,6.426,0,0,0-1.568-.32h-.079a6.378,6.378,0,0,0-1.386.221l-.035.008c-.244.057-.5.117-.772.165-.047.409-.553.645-1.539.719-.19.014-.4.021-.623.021h0c-.386,0-.825-.02-1.342-.062l-.929-.075-.3.125c-.191.079-.395.178-.611.283a8.481,8.481,0,0,1-1.519.615,6.263,6.263,0,0,1-1.63.2c-.3,0-.581-.017-.839-.035l-.086-.006c-.115-.008-.225-.015-.329-.02l-2.938-.136,2.818-.842.227-.071a5.259,5.259,0,0,0,.98-.511c.233-.141.478-.289.737-.424a27.891,27.891,0,0,1-2.807.4.529.529,0,0,1,.025.159c0,.452-.474.588-.857.7a14.852,14.852,0,0,1-3.8.575c-.114,0-.229,0-.341,0a7.909,7.909,0,0,1-1.6-.138,1.381,1.381,0,0,1-.879-.473L285.6,40.82l.29-.151-.079,0,.219-.077.1-.051-.1-.031a5.938,5.938,0,0,0-1.585-.317h-.015a4.355,4.355,0,0,0-1.329.328l-.048.017a5.457,5.457,0,0,1-1.8.4c-.048,0-.1,0-.144,0a7.266,7.266,0,0,1-2.358-.445,1.6,1.6,0,0,1-.882-.711c-.4.056-.807.128-1.234.2-.665.115-1.352.235-2.056.31a11.5,11.5,0,0,0-1.79.393,13.969,13.969,0,0,1-2.042.449c-.5.06-.968.126-1.421.191-.652.093-1.268.18-1.82.223-.174.014-.352.021-.528.021a9.249,9.249,0,0,1-2.075-.272,5.768,5.768,0,0,0-.727-.132c-.471-.034-1.574-.115-1.557-.88a.773.773,0,0,1,.349-.617l-.04-.007a7.008,7.008,0,0,0-1.372-.168,10.182,10.182,0,0,0-1.593.2,8.867,8.867,0,0,1-1.54.184h-.1c-.37-.011-.715-.012-1.037-.012h-.321a10.706,10.706,0,0,1-1.946-.1c-1.009-.2-2.165-.545-2.15-1.364a.816.816,0,0,1,.091-.359h-.028c-.387-.017-.734-.032-1.084-.032-.153,0-.293,0-.428.008-.2.008-.408.012-.64.012-.339,0-.686-.008-1.021-.016s-.66-.016-1-.016c-.141,0-.272,0-.4,0-.252,0-.481.007-.68.007-1.013,0-1.216-.05-1.388-.223a.515.515,0,0,1-.151-.369c0-.483.518-.575,1.017-.665.39-.07.953-.15,1.63-.23.393-.048.83-.107,1.292-.17.813-.111,1.736-.236,2.674-.33.652-.065,1.324-.161,1.973-.254.694-.1,1.349-.194,1.989-.254.2-.019.4-.028.607-.028a9.3,9.3,0,0,1,2.234.309c.168.041.329.083.471.12.18.047.363.095.509.126.1-.294.245-.692.668-.692h.028a1.823,1.823,0,0,1,.387.074,2.18,2.18,0,0,0,.332.071c.185-.015.383-.023.6-.023.357,0,.728.021,1.085.041l.058,0c.392.023.775.044,1.157.044.151,0,.292,0,.43-.01.445-.022.9-.075,1.386-.132a19.492,19.492,0,0,1,1.965-.162l.2,0c.529,0,1.074.04,1.6.079.509.037,1.035.076,1.559.081h.036a12.936,12.936,0,0,0,1.458-.114l.017,0a14.469,14.469,0,0,1,1.632-.121c.075,0,.15,0,.223,0s.149,0,.227,0c.428,0,.887-.033,1.291-.062l.023,0c.441-.03.9-.061,1.362-.061.167,0,.322,0,.474.012a11.889,11.889,0,0,1,2.927.588,8.81,8.81,0,0,0,1,.265c.813-.07,1.6-.12,2.358-.167.643-.041,1.249-.079,1.813-.126a17.673,17.673,0,0,0,2.138-.287,12.207,12.207,0,0,1,2.07-.237h.044a1.812,1.812,0,0,1,1.337.786c.405-.008.788-.015,1.126-.015a7.058,7.058,0,0,1,1.323.084l.087.018a3.273,3.273,0,0,1,.387.09l.045.017a23.34,23.34,0,0,1,3.835-1.252,8.716,8.716,0,0,1,1.857-.134,9.942,9.942,0,0,0,2.053-.15c.548-.118,1.1-.27,1.687-.431.67-.185,1.364-.375,2.08-.52a8.389,8.389,0,0,0,1.707-.627,8.947,8.947,0,0,1,2-.71,6.53,6.53,0,0,1,1.232-.1c.331,0,.656.016.969.031h.008c.312.015.607.029.9.029a5.28,5.28,0,0,0,.837-.056,19.578,19.578,0,0,0,1.934-.448l.495-.131a3.945,3.945,0,0,1-1.783-2.4l-.036-.1a4.61,4.61,0,0,0-2.691-2.958c-.555.213-1.848.624-3.3,1-.51.132-1.057.236-1.636.347s-1.158.222-1.756.369a12.3,12.3,0,0,0-1.5.521,13.211,13.211,0,0,1-1.787.605c-.617.148-1.242.253-1.847.355-.546.092-1.062.179-1.563.294-.7.16-1.371.253-2.019.344-.5.07-.978.136-1.407.227a15,15,0,0,1-3.018.351c-.183,0-.343-.006-.46-.018-.533.051-1.092.117-1.632.182-.633.075-1.288.154-1.932.21a9.734,9.734,0,0,0-1.738.377,9.933,9.933,0,0,1-1.82.391c-.666.056-1.308.165-1.929.27-.58.1-1.127.191-1.65.234-.354.029-.658.044-.929.044a5.247,5.247,0,0,1-1.288-.147l-.034-.007a5.2,5.2,0,0,0-1.395-.13h-.029l-.563-.022c-.217-.008-.381-.015-.492-.02a.618.618,0,0,1-.562-.239l-.142-.214.091-.241a.6.6,0,0,1,.607-.342c.118-.009.294-.02.529-.035l.432-.028c1.029-.068,1.551-.114,2.057-.158s1.04-.092,2.081-.16a10.3,10.3,0,0,0,1.979-.3,11.289,11.289,0,0,1,2.145-.322,9.168,9.168,0,0,0,2.029-.328l.022-.006-.235-.074,2.12-.326a6.534,6.534,0,0,0,1.225-.3,9.352,9.352,0,0,1,.975-.275l-1.206.181c-.405.06-.793.118-1.159.174-1.068.166-1.887.354-2.485.492-.333.076-.572.131-.753.159a2.806,2.806,0,0,1-1.257.237,9.243,9.243,0,0,1-2.934-.56,8.881,8.881,0,0,0-1.526.341,7.391,7.391,0,0,1-1.815.36c-.114,0-.229,0-.343,0a17.11,17.11,0,0,1-3.223-.3.821.821,0,0,1-.606-.37,2.854,2.854,0,0,1-1.636.76,4.686,4.686,0,0,1-1.126.107c-.135,0-.274,0-.415,0H271.6c-.134,0-.271,0-.41,0a7.353,7.353,0,0,0-.943.051,3.7,3.7,0,0,0-1.085.425,4.706,4.706,0,0,1-1.657.585.932.932,0,0,1-.192.019,2.048,2.048,0,0,1-.671-.155l-.08-.028a1.854,1.854,0,0,0-.585-.129.854.854,0,0,0-.087,0c-.508.05-.962.114-1.362.171a10.46,10.46,0,0,1-1.361.14,2.44,2.44,0,0,1-.391-.028,11.186,11.186,0,0,0-1.6.232,10.2,10.2,0,0,1-1.849.244h-.056a12.85,12.85,0,0,1-2.038-.208,11.176,11.176,0,0,0-1.412-.165l-.773-.019a22.8,22.8,0,0,1-2.715-.147c-.444.032-.921.09-1.426.151-.636.077-1.293.156-2.007.2-.1.006-.2.009-.3.009a11.371,11.371,0,0,1-1.5-.136H247.1a11.039,11.039,0,0,0-1.436-.126c-.1,0-.2,0-.3.009-.466.027-.933.031-1.287.031l-.479,0h-.359l-.07-.995c.185-.026.364-.061.537-.1q-.212-.018-.421-.041a12.772,12.772,0,0,1-1.587-.313,11.708,11.708,0,0,0-1.479-.293,9,9,0,0,0-1.293-.041l-.1-.993a13.242,13.242,0,0,1,1.909-.186h.056a7.878,7.878,0,0,1,1.7.257l.071.016a7.754,7.754,0,0,0,1.776.248l1.161-.02c.8-.015,1.617-.03,2.434-.036a10.281,10.281,0,0,0,1.73-.22,10.264,10.264,0,0,1,1.841-.226h.029c.877.006,1.724.059,2.471.106.4.025.777.049,1.132.064.933.039,1.821.081,2.436.149a2.089,2.089,0,0,1,1.187.376c.347-.04.706-.093,1.079-.148.629-.093,1.279-.189,1.957-.235.088-.006.181-.009.275-.009a8.65,8.65,0,0,1,1.648.211,7.981,7.981,0,0,0,1.474.194c.059,0,.117,0,.173,0,.566-.031,1.133-.089,1.681-.145.639-.065,1.243-.127,1.842-.149a8.291,8.291,0,0,0,1.883-.362,6.4,6.4,0,0,1,1.629-.307h.032a9.042,9.042,0,0,1,1.522.12c.189.036.7.134.873.49a2.31,2.31,0,0,1,1.082-.613c.2-.075.442-.156.728-.249-.294.005-.55.008-.776.008-.35,0-.6-.008-.774-.024a1.593,1.593,0,0,1-.291-.048.556.556,0,0,1-.434-.5c-.024-.469.483-.616.854-.724a14.917,14.917,0,0,1,3.8-.584c.121,0,.242-.005.359-.005a8.729,8.729,0,0,1,1.345.092,5.378,5.378,0,0,1,.964-.34,10.091,10.091,0,0,1,1.91-.208,11.186,11.186,0,0,0,1.845-.187c.876-.187,1.764-.355,2.7-.533l.964-.183c.681-.131,1.382-.221,2.06-.307.54-.069,1.1-.14,1.641-.232.733-.124,1.474-.207,2.191-.287.5-.056,1.022-.114,1.523-.185.454-.065.911-.137,1.353-.207.811-.128,1.576-.249,2.352-.334,1.131-.124,2.2-.181,3.231-.237l.5-.027c.32-.018.642-.027.985-.027.758,0,1.445.043,2.111.085l.157.01c-.032-.083-.074-.185-.128-.308L307,22.323a4.782,4.782,0,0,1-.289-.759,10.718,10.718,0,0,1-1.657-1.018,1.662,1.662,0,0,0-.495-.3,5.168,5.168,0,0,1-1.263-.58c-.363-.2-.854-.47-1.536-.815-.412-.041-.74-.061-1.027-.061a7.4,7.4,0,0,0-1.158.1c-.349.05-.783.112-1.406.164a14.052,14.052,0,0,0-1.784.25,15.08,15.08,0,0,1-1.893.265c-.177.015-.334.033-.477.054.38-.028.746-.054,1.1-.077.274-.019.557-.028.863-.028.471,0,.917.022,1.333.044l.031,0c.185.01.365.02.539.028l3.9.175-3.823.813a12.452,12.452,0,0,1-2.446.273h-.053a11.789,11.789,0,0,1-1.507-.134l-.125-.016-.361-.047.023-.931a6.188,6.188,0,0,0-.7.232,6.263,6.263,0,0,1-1.959.449c-.4.033-.736.068-1.039.107l-.037,0h-.037c-.434-.009-.751-.011-1.085-.007h-.187c-.518,0-1.04-.018-1.546-.036-.489-.017-1-.034-1.485-.034H285.2a14.16,14.16,0,0,0-1.728.163,14.009,14.009,0,0,1-1.715.162h-.1a16.545,16.545,0,0,1-1.79-.124l-.056-.006a12.512,12.512,0,0,0-1.5-.112,18.08,18.08,0,0,0-3.333.315l-.072.016-.074-.005c-.349-.026-.589-.052-.755-.081-.582-.1-.649-.434-.637-.621a.558.558,0,0,1,.019-.112.582.582,0,0,1-.009-.12c.017-.547.677-.752,1.294-.9a18.024,18.024,0,0,1,2.437-.371c.281-.026.577-.056.887-.087.778-.078,1.66-.167,2.6-.229.177-.011.361-.017.563-.017.4,0,.808.022,1.2.043.376.02.8.043,1.215.043.185,0,.354,0,.518-.013a14.334,14.334,0,0,0,1.64-.222,15.418,15.418,0,0,1,1.825-.241c.076,0,.155-.006.235-.006a9.012,9.012,0,0,1,1.65.2l.049.009a8.007,8.007,0,0,0,1.4.176c.06,0,.118,0,.174,0a11.768,11.768,0,0,0,1.778-.283,12.01,12.01,0,0,1,1.678-.274,6.528,6.528,0,0,0,.935-.135c-.36.023-.72.04-1.09.04-.11,0-.219,0-.325,0a11.255,11.255,0,0,0-1.562.11l-.042,0a13.055,13.055,0,0,1-1.891.121,4.981,4.981,0,0,1-1.861-.563,4.458,4.458,0,0,0-1.6-.5c-.092,0-.189,0-.287,0-.449,0-.9.027-1.376.056h-.01c-.527.033-1,.06-1.489.06-.112,0-.222,0-.328,0h-.08a6.767,6.767,0,0,0-1.524.248l-.017,0a7.654,7.654,0,0,1-1.778.28l-.108,0a7.107,7.107,0,0,1-1.9-.4A6.146,6.146,0,0,0,276.7,16.7c-.288-.009-.591-.013-.955-.013-.277,0-.553,0-.821,0-.3,0-.542,0-.79,0-.349,0-.652,0-.927-.011-.656-.019-1.286-.082-1.9-.142-.558-.056-1.086-.108-1.591-.123h-.091a5.912,5.912,0,0,0-1.635.3l-.1.028a5.92,5.92,0,0,1-1.615.317h-.069a11.014,11.014,0,0,1-3.264-.616c-.082-.027-.173-.058-.229-.074a10.437,10.437,0,0,0-2.144.592,7.282,7.282,0,0,1-1.589.446,9.539,9.539,0,0,1-.981.059,3.04,3.04,0,0,1-.777-.079c-.535-.146-.594-.507-.595-.656,0-.4.3-.762,1.7-1.253.158-.348.706-.408,1.281-.47.651-.07,1.522-.113,2.45-.121h.242c.439,0,.908.01,1.406.02l.105,0c.591.012,1.172.023,1.782.023h.017c.543,0,1.092.038,1.673.079.6.042,1.214.085,1.839.085.57,0,1.136.022,1.736.046s1.191.047,1.8.047a8.6,8.6,0,0,0,1.633-.22,9.713,9.713,0,0,1,1.891-.246h.007c.6,0,1.21.05,1.8.1.568.047,1.155.095,1.72.095h.015a9.613,9.613,0,0,1,1.888.248,8.556,8.556,0,0,0,1.643.223h1.192c.814,0,1.583,0,2.346,0h.483c.358,0,.734,0,1.219.006l.273,0c.534,0,1.054.006,1.556,0a7.631,7.631,0,0,0,1.87-.331,7.172,7.172,0,0,1,1.646-.306c.336-.007.651,0,.947.01-.308-.156-.6-.313-.885-.476a9.808,9.808,0,0,1-1.84-1.461A9.433,9.433,0,0,0,291.1,12c-.456-.323-.882-.64-1.293-.946-.543-.4-1.056-.785-1.59-1.147a11.98,11.98,0,0,0-2.156-1.045c-.335-.137-.682-.279-1.039-.436a14.021,14.021,0,0,0-2.16-.665c-.385-.1-.783-.2-1.2-.318a9.355,9.355,0,0,1-1.388-.557,8.61,8.61,0,0,0-1.951-.715,10.7,10.7,0,0,0-1.687-.137,15.848,15.848,0,0,1-1.885-.136c-.554-.084-1.146-.12-1.774-.159-.573-.035-1.165-.071-1.784-.147a15.26,15.26,0,0,0-1.7-.07c-.6,0-1.223-.007-1.871-.071-.673-.068-1.365-.121-2.1-.177-.472-.036-.961-.074-1.46-.116-.851-.072-1.725-.138-2.651-.207l-.91-.068a8.212,8.212,0,0,1-1.782-.407,7.857,7.857,0,0,0-1.745-.4c-.065,0-.134-.007-.2-.007a8.1,8.1,0,0,0-1.4.174l-.046.008a9.315,9.315,0,0,1-1.682.2c-.093,0-.186,0-.275-.008a10.185,10.185,0,0,1-1.791-.324,9.853,9.853,0,0,0-1.758-.318,12.609,12.609,0,0,1-1.779-.27,12.241,12.241,0,0,0-1.779-.268c-.066,0-.134-.005-.2-.005a9.727,9.727,0,0,0-1.477.157,11.067,11.067,0,0,1-1.682.17c-.081,0-.161,0-.238-.005-.348-.016-.726-.023-1.224-.023l-.531,0-.615,0c-.484,0-.857-.006-1.211-.021a7.587,7.587,0,0,1-1.85-.394,6.987,6.987,0,0,0-1.7-.368c-.585-.023-1.167-.035-1.783-.048-.585-.012-1.191-.025-1.8-.048l-.094,0a6.551,6.551,0,0,0-1.534.264l-.015,0a7.445,7.445,0,0,1-1.828.3l-.134,0a13.163,13.163,0,0,1-1.812-.231,12.738,12.738,0,0,0-1.756-.225l-.164,0a11.258,11.258,0,0,0-1.518.142l-.017,0a11.2,11.2,0,0,1-1.893.154,11.773,11.773,0,0,1-1.828-.25A11.127,11.127,0,0,0,217.6,2.6a8.251,8.251,0,0,1-1.861-.344,7.584,7.584,0,0,0-1.7-.321,5.677,5.677,0,0,0-1.622.3l-.015,0a6.918,6.918,0,0,1-1.87.342h-.1a6.7,6.7,0,0,1-1.894-.428,6,6,0,0,0-1.672-.388,13.569,13.569,0,0,0-1.713.1l-.038,0a14.577,14.577,0,0,1-1.844.109c-.582-.015-1.176-.047-1.751-.078-.6-.033-1.221-.067-1.835-.081l-.154,0A14.043,14.043,0,0,0,198,1.934l-.056.006a14.176,14.176,0,0,1-1.908.129l-.2,0c-.516,0-1.042.046-1.552.09l-.033,0a17.235,17.235,0,0,1-1.865.089,17.234,17.234,0,0,1-1.839-.176,16.851,16.851,0,0,0-1.8-.173l-.169,0c-.514,0-1.031.048-1.578.1h-.01a16.591,16.591,0,0,1-1.9.1,14.154,14.154,0,0,1-1.86-.206,13.652,13.652,0,0,0-1.78-.2h-.128a12.9,12.9,0,0,0-1.615.138,13.412,13.412,0,0,1-1.913.145,11.715,11.715,0,0,1-1.879-.242,10.978,10.978,0,0,0-1.762-.23c-.1,0-.2,0-.306,0-.462,0-.94.018-1.4.036l-.146.006c-.585.024-1.193.049-1.8.038s-1.225-.043-1.823-.075-1.217-.065-1.824-.075-1.236-.065-1.836-.119S163.806,1.2,163.2,1.2c-.153,0-.309,0-.477,0-.452,0-.9.009-1.358.018-.576.013-1.2.025-1.815.018h-.09a14.127,14.127,0,0,0-1.63.128l-.043.005A14.388,14.388,0,0,1,155.9,1.5a10.382,10.382,0,0,1-1.9-.258A9.534,9.534,0,0,0,152.256,1a14.609,14.609,0,0,1-1.871-.183,13.608,13.608,0,0,0-1.777-.175h-.094c-.539,0-1.074.048-1.642.1l-.046,0c-.668.062-1.227.11-1.815.11h-.055A16.469,16.469,0,0,1,143.087.7,15.339,15.339,0,0,0,141.3.551h-.028a11.175,11.175,0,0,0-1.723.183,12.051,12.051,0,0,1-1.888.2h-.041a9.221,9.221,0,0,0-1.676.212l-.035.006A10.329,10.329,0,0,1,134,1.388a5.9,5.9,0,0,1-1.991-.473A5.124,5.124,0,0,0,130.349.5a4.728,4.728,0,0,0-1.637.448,5.535,5.535,0,0,1-2.011.521,6.408,6.408,0,0,1-1.976-.422l-.005,0a5.535,5.535,0,0,0-1.657-.373h-.012a6.914,6.914,0,0,0-1.7.31,7.806,7.806,0,0,1-1.946.344h-.019a12.271,12.271,0,0,1-1.882-.192,11.323,11.323,0,0,0-1.713-.178h-.043c-.592.006-1.2.063-1.8.118s-1.228.115-1.852.122h-.036a8.16,8.16,0,0,1-1.916-.3,7.324,7.324,0,0,0-1.669-.275h-.042a4.8,4.8,0,0,0-1.642.47,5.591,5.591,0,0,1-1.994.544l-.238,0c-.52,0-1.031-.022-1.6-.049-.541-.026-1.027-.048-1.51-.048-.107,0-.212,0-.313,0h-.068a6.981,6.981,0,0,1-1.9-.354l-.015,0A6.154,6.154,0,0,0,97.53.862h-.061a15.738,15.738,0,0,0-1.79.18,16.965,16.965,0,0,1-1.857.187,11.662,11.662,0,0,0-1.76.231,12.654,12.654,0,0,1-1.88.245c-.635.02-1.28.052-1.9.082-.571.028-1.162.057-1.744.077-.076,0-.154,0-.232,0a14.39,14.39,0,0,1-1.665-.128,13.555,13.555,0,0,0-1.531-.119c-.08,0-.159,0-.235,0a12.654,12.654,0,0,0-1.771.238,13.728,13.728,0,0,1-1.864.25c-.083,0-.168.005-.254.005a12.861,12.861,0,0,1-1.66-.143l-.03,0a11.672,11.672,0,0,0-1.484-.13c-.082,0-.163,0-.24.006a7.323,7.323,0,0,0-1.707.373,8.163,8.163,0,0,1-1.91.41c-.609.032-1.221.033-1.813.035-.607,0-1.235,0-1.841.038-.082,0-.165.007-.249.007A8.989,8.989,0,0,1,66.33,2.49a8.063,8.063,0,0,0-1.508-.2c-.071,0-.142,0-.209.007a6.117,6.117,0,0,0-1.683.46,6.936,6.936,0,0,1-1.911.512c-.109.007-.222.011-.336.011a10.378,10.378,0,0,1-1.62-.169l-.025,0a9.224,9.224,0,0,0-1.413-.152c-.1,0-.2,0-.286.011a15.093,15.093,0,0,0-1.8.291,16.067,16.067,0,0,1-1.816.3c-.2.017-.4.026-.626.026-.427,0-.852-.031-1.264-.061l-.027,0c-.419-.031-.81-.061-1.2-.061-.2,0-.386.008-.559.025a5.666,5.666,0,0,0-1.663.544A6.46,6.46,0,0,1,46.5,4.63a4.156,4.156,0,0,1-.426.021,8.995,8.995,0,0,1-1.57-.184l-.023,0A7.939,7.939,0,0,0,43.135,4.3a2.851,2.851,0,0,0-.335.019c-.61.07-1.219.1-1.809.12-.64.027-1.244.052-1.838.129a7.652,7.652,0,0,0-1.715.51c-.236.09-.475.181-.718.264.584.015,1.013.027,1.3.043a3.828,3.828,0,0,1,.392.036.55.55,0,0,1,.528.5c.021.271-.138.471-.472.594-.111.041-.262.087-.456.144a6.88,6.88,0,0,0-.774.32,9.8,9.8,0,0,1-2.8.907,5.131,5.131,0,0,1-.671.04c-.421,0-.859-.04-1.282-.079l-.023,0c-.417-.038-.843-.076-1.252-.076-.177,0-.338.007-.492.021-.367.034-.739.071-1.1.107-.9.091-1.757.176-2.568.215-.634.031-1.241.092-1.776.146-.586.059-1.091.11-1.5.11a3.011,3.011,0,0,1-.527-.039,1.047,1.047,0,0,1-.638-.46c-.765.2-1.515.418-2.242.635-.3.088-.6.179-.9.266a10.449,10.449,0,0,0-1.77.767c-.328.167-.664.338-1.008.487.438.044.874.129,1.3.213a10.27,10.27,0,0,0,1.663.234,4.635,4.635,0,0,0,1.365-.227l.094-.027a4.664,4.664,0,0,1,1.241-.238c.048,0,.1,0,.143.005a5.07,5.07,0,0,1,1.595.376A.8.8,0,0,1,24,9.992c0-.456.411-.979,1.553-1.082.426-.038.8-.057,1.14-.057.3,0,.536.014.768.027h.017c.22.013.446.027.728.027.309,0,.654-.017,1.053-.052.922-.082,1.392-.119,1.846-.154s.917-.071,1.833-.153A6.8,6.8,0,0,0,34.646,8.2a7.742,7.742,0,0,1,1.928-.393c.238-.022.456-.032.664-.032a5.75,5.75,0,0,1,1.342.164l.008,0a4.736,4.736,0,0,0,1.141.145c.179,0,.367-.009.576-.028.924-.083,1.392-.127,1.846-.17s.92-.087,1.839-.17A6.434,6.434,0,0,0,45.7,7.359a7.369,7.369,0,0,1,1.936-.405c.039,0,.082-.006.126-.006a2.357,2.357,0,0,1,.469.058,2.131,2.131,0,0,0,.222.037,1.613,1.613,0,0,1,.212.029.526.526,0,0,1,.44.5c.01.291-.18.482-.566.565-.12.026-.288.055-.527.091-.435.065-1.049.145-1.825.246l-1.109.145c-.492.064-1.026.167-1.591.277-.713.138-1.45.281-2.241.375a5.072,5.072,0,0,1-.587.032,12.775,12.775,0,0,1-1.445-.111l-.025,0a12.168,12.168,0,0,0-1.36-.106,4.456,4.456,0,0,0-.509.027c-.643.073-1.295.178-1.925.279s-1.286.207-1.919.277a9.116,9.116,0,0,0-1.979.529,8.3,8.3,0,0,1-1.814.489c-.86.092-1.335.156-1.718.208l-.321.043a.532.532,0,0,1,.065.059.52.52,0,0,1,.136.393c-.03.393-.41.541-1.027.751-.428.146-1,.314-1.618.476a4.268,4.268,0,0,1-1.563.172,13.107,13.107,0,0,0-2.25.159,8.712,8.712,0,0,0-1.408.439A10.3,10.3,0,0,1,17.788,14a5.8,5.8,0,0,1-.779.048c-.386,0-.782-.029-1.165-.057l-.026,0c-.372-.027-.758-.055-1.13-.055-.2,0-.391.008-.566.025a3.419,3.419,0,0,1,.922.364c.332.182.687.408.694.787a.567.567,0,0,1-.164.411c-.222.228-.564.268-1.413.268l-.514,0h-.028c-.192,0-.393,0-.6,0-.4,0-1,.006-1.544.059l-1.31.126.012.092c-.239.052-.481.107-.736.166-.673.155-1.368.315-2.1.424a10.918,10.918,0,0,0-1.695.449l-.031.01c.186.05.346.109.5.166l.016.006c.089.033.173.065.26.093l.379.124.439.009c.068,0,.14,0,.216,0a6.037,6.037,0,0,0,1.38-.18,6.967,6.967,0,0,1,1.575-.205c.1,0,.208,0,.315,0,.532,0,1.04.039,1.51.082l-.042,1c-.156,0-.305,0-.449.009a9.8,9.8,0,0,1,1.552.541,5.817,5.817,0,0,0,1.331.441,11.543,11.543,0,0,0,1.516.085c.161,0,.318,0,.47,0s.314,0,.463,0a5.315,5.315,0,0,1,1.382.135h.008a.841.841,0,0,1,.142.019,7.474,7.474,0,0,1,1.106.12l-1.08-.889a.509.509,0,0,1-.286-.152c-.867-.022-1.7-.116-2.45-.2-.4-.045-.784-.088-1.113-.112a6.386,6.386,0,0,1-.762.036c-.183,0-.373,0-.536-.007l-.609-.014.132-.595c.052-.233.249-.59,1.361-.993a14.542,14.542,0,0,1,2.479-.605l-.143-.238.265.218q.46-.075.959-.138l.81-.1c.738-.1,1.386-.179,2-.237a1.985,1.985,0,0,1,.341-.276.575.575,0,0,1-.025-.145.614.614,0,0,1,.181-.449c.451-.467,1.951-.632,3.1-.632a14.059,14.059,0,0,1,1.463.078c.283.03.473.051.6.067.209.027.5.065.6.381l0,.011.069.238-.148.2a.538.538,0,0,1-.056.064,5.865,5.865,0,0,1,1.105.316.648.648,0,0,1,.4.6.9.9,0,0,1,.145.118A.894.894,0,0,1,28.8,15.9a1.245,1.245,0,0,1-.376-.146.556.556,0,0,1-.276-.5c.01-.164.1-.447.569-.538a5.354,5.354,0,0,1,.594-.066c.467-.034,1.173-.063,2.517-.106.129,0,.26-.006.391-.006a18.949,18.949,0,0,1,2.725.234c.366.051.711.1,1.019.126a9.41,9.41,0,0,1,2.443.482.5.5,0,0,1-.069-.219v-.01l-.014-.207.138-.159a.754.754,0,0,1,.581-.2c.169-.013.429-.029.823-.054l.667-.042c.332-.021.643-.048.925-.078l3.591-.391-3.557,1.435a8,8,0,0,1-1.65.553.734.734,0,0,1-.095.006.849.849,0,0,1-.257-.042,2.881,2.881,0,0,1,.324.307l1.223,1.344c.307-.01.635-.015.993-.015s.72,0,1.061.01h.095c.384.006.745.012,1.082.01l.707,0c1.854,0,2.2.068,2.424.3a.549.549,0,0,1,.036.721.6.6,0,0,1,.048.213.62.62,0,0,1-.179.458c-.146.153-.417.324-1.317.44a16.5,16.5,0,0,1-2.025.109H43.9a3.812,3.812,0,0,1-.528.034,9.989,9.989,0,0,1-1.341-.123l-.052-.007a9.855,9.855,0,0,0-1.35-.121c-.127,0-.252,0-.369.015-.461.038-.922.091-1.41.148-.715.083-1.455.169-2.207.2a7.624,7.624,0,0,0-1.674.341,7.777,7.777,0,0,1-1.954.371h-.1a11.727,11.727,0,0,1-2.032-.23,10.067,10.067,0,0,0-1.512-.189,14.255,14.255,0,0,1-2.667-.349l-.3-.06-.175-.034c0,.06,0,.118-.008.171-.034.452-.27.584-.461.614l-.018,0a8.112,8.112,0,0,1-.922.045c-1.749,0-2.024-.278-2.114-.369a.56.56,0,0,1-.166-.4c0-.3.214-.482.51-.607a2.792,2.792,0,0,1-.3-.043c-.477-.1-.559-.392-.565-.557a.53.53,0,0,1,.033-.2H19.859l-.019,0c-.13.026-.262.053-.4.077l.515,1.015a7.5,7.5,0,0,1,3.021,1.5c.082.063.152.117.211.16a.647.647,0,0,1,.279.539c0,.357-.319.726-.916.739l-.18,0c-.348,0-.754-.017-1.225-.036l-.18-.007c-.492-.02-1.066-.041-1.648-.041h-.067a13.759,13.759,0,0,0-1.448.1c.194.041.394.08.6.12a11.943,11.943,0,0,1,2.472.678c.061,0,.122,0,.182,0a3.73,3.73,0,0,1,2.335.836l.134.093a3.2,3.2,0,0,1,1.533,2.347.81.81,0,0,1-.246.608.517.517,0,0,1-.366.135,22.175,22.175,0,0,1-3.475-.4c-.46-.09-.954-.164-1.478-.242-.573-.085-1.166-.174-1.757-.291a7.409,7.409,0,0,1-1.77-.669,5.975,5.975,0,0,0-1.332-.522c-.357-.07-.7-.121-1.031-.157a4.968,4.968,0,0,1,1.387.838,9.024,9.024,0,0,1,1.484,1.927A11.756,11.756,0,0,0,17.264,29c.3.366.647.717.985,1.056a9.543,9.543,0,0,1,1.529,1.817,15.147,15.147,0,0,1,1.064,2.4c.142.377.275.734.423,1.086a13.914,13.914,0,0,0,.682,1.343,10.8,10.8,0,0,1,.962,2.077c.252.843.439,1.729.619,2.586.074.351.15.714.23,1.067a3.579,3.579,0,0,1,.082.793,9.508,9.508,0,0,1-.119,1.3,8.914,8.914,0,0,0-.111,1.16,2.869,2.869,0,0,0,.045.547,7.009,7.009,0,0,0,.6,1.6,7.859,7.859,0,0,1,.7,1.913c.125.686.66,1.155,2.121,1.858a12.346,12.346,0,0,0,2.428.727c.283.066.576.134.884.21a5.549,5.549,0,0,1,1.56.775,4.917,4.917,0,0,0,1.766.82,15.206,15.206,0,0,0,1.843.132c.573.019,1.166.038,1.776.106.522.057,1.038.151,1.584.25a20.177,20.177,0,0,0,2,.294c.158.012.325.018.51.018.4,0,.8-.028,1.23-.057l.04,0c.432-.029.878-.059,1.333-.059.186,0,.359,0,.528.015.512.03,1.041.076,1.553.121.67.059,1.364.12,2.061.148l.127,0a8.124,8.124,0,0,0,1.545-.211l.024,0a8.652,8.652,0,0,1,1.947-.232c.567.017,1.146.061,1.707.1.624.048,1.27.1,1.912.111.548.011,1.111.035,1.656.058.642.027,1.306.055,1.969.063h.114c.542,0,1.087-.04,1.664-.082h.007c.573-.042,1.166-.084,1.775-.084h.069c.583,0,1.176.034,1.751.064.612.032,1.245.065,1.87.065a10.74,10.74,0,0,1,1.86.217,10.089,10.089,0,0,0,1.744.207h.085c1.159-.006,2.357-.013,3.56-.023.571,0,1.145-.065,1.751-.129s1.237-.13,1.873-.137c.572-.006,1.145-.068,1.752-.134s1.236-.133,1.872-.142h.055a7.967,7.967,0,0,1,1.856.294l.026.006a6.994,6.994,0,0,0,1.7.267Zm224.968-8.759.024.243a6.892,6.892,0,0,0-.93.176c.388-.021.778-.047,1.136-.077l-.012-.35ZM277,46.568l.265.021c.241.019.507.051.787.085a17.987,17.987,0,0,0,2.251.164c.281,0,.565-.009.845-.027.226-.015.474-.022.779-.022.245,0,.493,0,.756.009h.027c.279.006.552.01.834.01a14.731,14.731,0,0,0,1.578-.074,8.633,8.633,0,0,0,1.853-.494,8.367,8.367,0,0,1,1.858-.491,6.035,6.035,0,0,1,.616-.03,12.608,12.608,0,0,1,1.543.122l.049.006a10.841,10.841,0,0,0,1.281.108c.122,0,.233,0,.34-.015a4.519,4.519,0,0,0,.772-.144c-.185,0-.381-.006-.593-.011-.938-.028-1.415-.066-1.876-.1s-.916-.073-1.835-.1c-.1,0-.2,0-.292,0a6.238,6.238,0,0,0-1.458.159,7.348,7.348,0,0,1-1.673.18c-.1,0-.2,0-.3,0-.967-.028-1.426-.039-1.913-.051-.448-.011-.911-.022-1.8-.047a.976.976,0,0,1-.712-.478l-.061-.078a9.9,9.9,0,0,0-2.558.789c-.326.134-.633.261-.93.365Zm30.034-5.041a8.8,8.8,0,0,1,1.625.208l.02,0a8.6,8.6,0,0,0,1.548.194c.064,0,.128,0,.189,0a5.654,5.654,0,0,0,1.605-.439c.293-.11.591-.222.9-.313l-.018-.007a6.3,6.3,0,0,0-2.288-.457,6.036,6.036,0,0,0-.6.031,5.278,5.278,0,0,0-1.532.407l-.157.063-.076.006c-.625.049-1.23.139-1.814.225-.308.046-.6.089-.889.126a8.69,8.69,0,0,1-1.093.058l-.379,0h-.029l-.316,0a4.015,4.015,0,0,0-.918.075c-.156.039-.288.076-.4.111a7.821,7.821,0,0,0,1,.071h.045a11.434,11.434,0,0,0,1.475-.148,18.763,18.763,0,0,1,1.957-.2Zm-8.672-1.3a4.457,4.457,0,0,0-.794.362,4.888,4.888,0,0,0,.518-.108,5.025,5.025,0,0,0,.64-.224Zm19.25.139c.824,0,1.52.007,2.129.022a10.769,10.769,0,0,0,1.67-.117l.177-.023a8.753,8.753,0,0,1,1.1-.1c.092,0,.177,0,.258.011.408-.03.851-.083,1.32-.14l.031,0c-.479-.042-.966-.094-1.448-.179a1.194,1.194,0,0,1-.869-.546l-.083-.107-.054-.069a.953.953,0,0,1-.215-.077l-.072.029-.061.024a1.59,1.59,0,0,1-.625.14,6.439,6.439,0,0,0-1.329.353,7.237,7.237,0,0,1-1.969.463c-.4.02-.809.051-1.24.083-.686.051-1.4.1-2.13.119-.319.006-.647,0-.975-.021l.017.006.131.048c.106,0,.216,0,.328,0,.484,0,.977.025,1.412.047h.019c.47.024.915.047,1.35.047h.043C316.9,40.368,317.262,40.366,317.615,40.366ZM252.4,30.12l.066.014a21.333,21.333,0,0,0,2.608.14l.775.019a11.881,11.881,0,0,1,1.542.177,12.085,12.085,0,0,0,1.882.2h.048a9.321,9.321,0,0,0,1.666-.226,11.543,11.543,0,0,1,1.8-.252l.058,0,.057.011a1.367,1.367,0,0,0,.259.021,9.936,9.936,0,0,0,1.22-.13l.523-.073a10.609,10.609,0,0,1-1.38-.2,7.928,7.928,0,0,0-1.459-.193c-.071,0-.141,0-.207.007-.638.043-1.268.136-1.878.226-.56.083-1.088.161-1.612.2l-1.54.118.641-.542c-.662-.071-1.682-.114-2.379-.144-.366-.016-.748-.04-1.152-.065-.77-.048-1.566-.1-2.415-.1H251.5a9.388,9.388,0,0,0-1.66.21,11.03,11.03,0,0,1-1.9.237c-.365,0-.731.008-1.1.013a.5.5,0,0,1-.384.429,1.332,1.332,0,0,0-.153.049c.324.027.635.068.923.107h.008a10.487,10.487,0,0,0,1.367.127c.082,0,.162,0,.237-.007.684-.043,1.327-.121,1.949-.2.542-.066,1.054-.128,1.543-.16Zm13.983-.176a3.685,3.685,0,0,1,.5.142l.083.029a1.972,1.972,0,0,0,.334.1l.031-.009.049,0a3.635,3.635,0,0,0,1.288-.465c-.489.027-.995.079-1.525.133C266.894,29.895,266.64,29.921,266.383,29.944Zm25.94-.419c.07,0,.173.008.3.008a14.144,14.144,0,0,0,2.811-.33c.463-.1.955-.166,1.475-.239.628-.088,1.277-.178,1.934-.328.529-.121,1.083-.215,1.62-.305.588-.1,1.2-.2,1.782-.342a12.456,12.456,0,0,0,1.652-.563,13.23,13.23,0,0,1,1.63-.561c.347-.085.687-.159,1.02-.226-.386.067-.788.12-1.206.175-.617.081-1.255.165-1.887.3-.569.123-1.156.3-1.725.481-.593.183-1.207.373-1.822.505-.7.15-1.369.33-2.019.5-.537.144-1.045.279-1.533.39a17.308,17.308,0,0,1-3.328.4l-.062,0-.219.039C292.591,29.469,292.45,29.5,292.323,29.525Zm-20.563-.385.262,0a3.879,3.879,0,0,0,.866-.073c-.14-.006-.3-.011-.471-.013h-.02A3.063,3.063,0,0,0,271.76,29.141Zm25.372-2.085a3.625,3.625,0,0,0-.583.042,5.758,5.758,0,0,0-1.592.616,6.2,6.2,0,0,1-1.758.667l-.1.015a16.179,16.179,0,0,0,3.034-.376c.47-.106.968-.239,1.5-.38.554-.148,1.123-.3,1.717-.437-.379,0-.76-.038-1.128-.073l-.021,0C297.848,27.091,297.483,27.055,297.132,27.055Zm10.377-1.643c-.186.017-.372.042-.557.074-.432.075-.9.161-1.385.253l-.7.131.352-.047c.6-.079,1.163-.153,1.666-.268l.365-.083ZM278.43,19.529a14.625,14.625,0,0,1,1.5.119l.054.006a14.872,14.872,0,0,0,1.765.118,13.077,13.077,0,0,0,1.59-.153,14.915,14.915,0,0,1,1.851-.172c.583-.007,1.181.014,1.756.033.555.019,1.129.04,1.687.035l.335,0c.223,0,.46,0,.745.008.308-.039.651-.074,1.046-.107a5.8,5.8,0,0,0,1.061-.175c-.2.027-.409.048-.618.06-.074,0-.151.006-.229.006a8.861,8.861,0,0,1-1.585-.192l-.05-.009a8.273,8.273,0,0,0-1.469-.185c-.062,0-.123,0-.182,0a14.658,14.658,0,0,0-1.707.228,15.3,15.3,0,0,1-1.756.235c-.183.01-.37.015-.574.015-.44,0-.88-.024-1.268-.045s-.772-.041-1.147-.041c-.181,0-.344,0-.5.015C279.915,19.383,279.134,19.458,278.43,19.529ZM29.408,19.3a11,11,0,0,1,1.637.2,10.5,10.5,0,0,0,1.949.214,6.45,6.45,0,0,0,1.584-.3l-.57.039c-.1.007-.208.01-.315.01a9.288,9.288,0,0,1-1.608-.183l-.064-.011a7.783,7.783,0,0,0-1.271-.153c-.072,0-.141,0-.206.008A8.262,8.262,0,0,0,29.408,19.3Zm12.682-.531.02,0,.051.007a9.283,9.283,0,0,0,1.206.114,2.777,2.777,0,0,0,.418-.029l.038-.006h.138a16.1,16.1,0,0,0,1.73-.081l-.426-.162h-.292l-.7,0h-.118c-.312,0-.639-.005-.985-.011h-.093c-.337,0-.686-.01-1.046-.01h-.1Zm-14.96-.876a.589.589,0,0,1,.109.326.621.621,0,0,1-.192.453,1.133,1.133,0,0,1-.277.2l.3-.031a7.355,7.355,0,0,0,1.061-.243,13.262,13.262,0,0,1,2.028-.435,1.118,1.118,0,0,1-.178-.09,11.865,11.865,0,0,1-1.474-.472A4.9,4.9,0,0,1,27.13,17.892Zm13.494.748a8.323,8.323,0,0,1,.985.065l-.154-.106c-.214,0-.417.01-.611.018-.1,0-.192.012-.289.023Zm-18.867-.267.453.127a.565.565,0,0,1,.1-.167C22.131,18.349,21.946,18.363,21.757,18.373Zm-17.49.021-.023.013-.037.023c-.024.015-.052.033-.084.05.227-.014.462-.036.695-.062C4.648,18.416,4.466,18.408,4.267,18.395Zm28.771.026a5.4,5.4,0,0,0,.655.045c.085,0,.168,0,.247-.008l.8-.055,1.206-.083a.547.547,0,0,1-.125-.366.565.565,0,0,1,.015-.108l-.067.012a1.884,1.884,0,0,1-.267.02,1.714,1.714,0,0,1-.836-.231l-.006,0a.881.881,0,0,0-.307-.117.657.657,0,0,1-.472.385,9.021,9.021,0,0,1-1.278.283Zm265.734-.429c-.219.01-.44.025-.66.045-.125.012-.256.032-.391.058.113-.011.234-.023.363-.033C298.346,18.039,298.572,18.016,298.772,17.992ZM18.893,17.509l.832.005a5.1,5.1,0,0,1,.995-.128h.019c.113,0,.23.006.347.006a17.805,17.805,0,0,0,2.216-.175c.458-.056.891-.109,1.306-.132s.818-.048,1.169-.074l.67-.476.012-.01c0-.005.012-.035.019-.056a.845.845,0,0,1,.256-.411,19.2,19.2,0,0,0-2.507-.335c-.243-.018-.481-.027-.706-.027a2.883,2.883,0,0,0-2.178.6l-.134.18-.224.019c-.648.056-1.347.146-2.157.25l-.813.1-.039,0,.475.391A.522.522,0,0,1,18.893,17.509Zm-3.256-.237.333.037c.212.024.431.048.656.072a.789.789,0,0,1,.4-.228,1.487,1.487,0,0,1,.393-.055h.037l-.1-.161C16.671,17.041,16.1,17.157,15.637,17.272Zm20.856-.1a.909.909,0,0,1-.054.177l.036-.011a7.752,7.752,0,0,1,.768-.179l.213-.038-.165-.018c-.172.016-.352.03-.537.04l.018.034Zm-5.535.127c.075,0,.163.007.263.007A9.1,9.1,0,0,0,33.5,16.98a.981.981,0,0,1,.169-.259l-.038-.012c-.2-.022-.419-.041-.7-.053l.56.322-1.367.234a.767.767,0,0,1-.129.011A.988.988,0,0,1,31.413,17l-.006,0-.085.03-.2-.124a2.571,2.571,0,0,0-.933-.093c-.249,0-.533.01-.846.031.1.034.2.068.306.1v-.107h.5c.222,0,.321.106.517.317l0,0h.289Zm246.494-1.514a11.352,11.352,0,0,1,1.117.3,6.274,6.274,0,0,0,1.629.356h.08a6.46,6.46,0,0,0,1.466-.234l-.33-.065a8.733,8.733,0,0,0-1.691-.228h-.015c-.607,0-1.214-.05-1.8-.1Zm-17.37.187-.9.281c-.215.068-.4.13-.566.188l.261-.025a6.57,6.57,0,0,0,1.357-.393l.223-.08Q260.257,15.96,260.081,15.975ZM35.705,15.867a1.1,1.1,0,0,1,.477.3c.4,0,.789-.034,1.146-.068a10.641,10.641,0,0,0-1.45-.214Zm229.217.067a9.383,9.383,0,0,0,1.318.132h.041a2.78,2.78,0,0,0,.588-.076c-.435-.029-.851-.052-1.253-.052H265.6C265.37,15.939,265.145,15.937,264.922,15.935ZM33.848,15.726l.051.006a12.344,12.344,0,0,0,1.4.087c-.159-.021-.322-.043-.489-.067-.431-.06-.894-.124-1.394-.169.141.045.281.091.419.137Zm-23.8-.652.024.189,1.2-.392a5.2,5.2,0,0,0,1-.474,5.368,5.368,0,0,1,.633-.325c-.319.023-.637.043-.95.062-.532.033-1.083.067-1.621.116-.565.053-1.15.148-1.715.239-.595.1-1.208.2-1.812.249a4.253,4.253,0,0,0-.305.429c.553-.018,1.1-.029,1.634-.04C8.816,15.113,9.458,15.1,10.049,15.075ZM25.18,9.993a2.109,2.109,0,0,0,.565.078,18.07,18.07,0,0,0,2.06-.171c-.141-.006-.269-.013-.389-.021H27.4c-.227-.013-.442-.025-.711-.025-.311,0-.655.017-1.051.053A2.093,2.093,0,0,0,25.18,9.993ZM313.375,46.267l-.212-.977a7.862,7.862,0,0,1,1.542-.248l.071,0,.065,1C314.369,46.087,313.89,46.162,313.375,46.267Zm-36.51-4.417a11.715,11.715,0,0,1-1.313-.074c-.689-.082-.924-.2-1.066-.344a.559.559,0,0,1-.16-.412c.022-.523.608-.664,1.434-.807a9.446,9.446,0,0,1,1.547-.161,2.3,2.3,0,0,1,.778.106.7.7,0,0,1,.516.66c0,.388-.316.714-.94.97l-.068.028-.073.007C277.341,41.841,277.12,41.85,276.864,41.85Zm-46.377-9.5c-1.988,0-2.32-.341-2.429-.454a.6.6,0,0,1-.176-.434c.012-.406.368-.647,1.058-.717.366-.037.858-.069,1.482-.109.6-.038,1.271-.082,2.017-.142.522-.043,1.067-.063,1.643-.084.6-.022,1.22-.044,1.843-.1.568-.047,1.159-.146,1.731-.242s1.151-.193,1.73-.244c.1-.009.214-.014.324-.014a7.429,7.429,0,0,1,1.686.256l.063.015c.323.076.629.148.914.186l-.052,1c-.176,0-.335.012-.487.02l-1.236.071c-.743.043-1.512.088-2.28.128a10.028,10.028,0,0,0-1.644.277,10.8,10.8,0,0,1-1.86.3c-.558.026-1.128.078-1.68.129-.6.056-1.228.113-1.845.137C231.009,32.349,230.739,32.355,230.488,32.355ZM48.364,30.617c-.107,0-.226-.007-.341-.014-.1-.006-.2-.012-.272-.012a9.744,9.744,0,0,1-1.122-.112,17.246,17.246,0,0,0-2.09-.188c-.36,0-.754-.012-1.2-.024l-.022-1c.979-.068,1.729-.1,2.36-.1,2.448-.01,2.995.114,3.266.387a.61.61,0,0,1,.181.435.67.67,0,0,1-.094.332l0,0A.708.708,0,0,1,48.364,30.617Zm-6.82-.4-.227-.007c-.578-.018-1.095-.026-1.51-.032-.3,0-.533-.008-.7-.014-.267-.009-.634-.022-.729-.405l-.055-.22.13-.189c.15-.215.307-.232,1.061-.315a4.155,4.155,0,0,1,.459-.025,7.529,7.529,0,0,1,1.416.167l.049.009.213.04ZM54.1,29.987c-.115,0-.23,0-.34-.008a12.483,12.483,0,0,1-2.315-.286c-.284-.073-1.04-.266-1.058-.864-.013-.4.3-.694.942-.866a9.132,9.132,0,0,1,1.809-.178c.573-.024,1.222-.051,1.91-.127,1.1-.122,2.307-.21,3.653-.3a12.131,12.131,0,0,0,1.73-.294,10.468,10.468,0,0,1,1.923-.3l.167,0a9.2,9.2,0,0,1,2.871.532c.252.08.469.148.629.18.338.068.578.108.736.135l.163.029a.511.511,0,0,1,.454.505v.01a.509.509,0,0,1-.5.5l-.147.009a16.764,16.764,0,0,0-2.037.228,9.267,9.267,0,0,0-1.083.287,10.3,10.3,0,0,1-2.5.524c-.327.018-.693.027-1.119.027-.409,0-.825-.008-1.267-.016-.411-.008-.837-.015-1.273-.017h-.015a11.611,11.611,0,0,0-1.53.143h-.009A13.354,13.354,0,0,1,54.1,29.987Zm-1.852-1.154a15.462,15.462,0,0,0,1.562.147c.093,0,.191.007.29.007a12.56,12.56,0,0,0,1.648-.146h.008a12.514,12.514,0,0,1,1.665-.153h.019c.444,0,.873.01,1.288.017.436.008.849.016,1.248.016s.756-.008,1.063-.025a9.488,9.488,0,0,0,2.269-.482c.292-.089.573-.175.846-.241a6.686,6.686,0,0,0-1.776-.212,9.609,9.609,0,0,0-1.734.278,12.889,12.889,0,0,1-1.876.315c-1.335.093-2.529.18-3.613.3-.721.079-1.388.107-1.977.132C52.835,28.8,52.518,28.811,52.244,28.833Zm-18.8.724a8.013,8.013,0,0,1-2.656-.415c-.075-.024-.14-.045-.19-.059-.581-.161-.627-.54-.62-.695.026-.563.8-.854,1.56-1.064a11.64,11.64,0,0,1,2.595-.4c.24-.009.458-.013.664-.013a10.589,10.589,0,0,1,1.217.065,1.052,1.052,0,0,1,.556-.323,7.756,7.756,0,0,1,.768-.179A10.378,10.378,0,0,1,39,26.281a1.648,1.648,0,0,1,.319.025.627.627,0,0,1,.575.606.568.568,0,0,1-.082.294c.72.075,1.293.179,1.583.237l-.106.99h-.171c-.55,0-1.2.037-1.936.111a10.681,10.681,0,0,0-1.609.357,18.588,18.588,0,0,1-2.484.542A12.59,12.59,0,0,1,33.443,29.557Zm-1.83-1.214a7.236,7.236,0,0,0,1.83.214,11.586,11.586,0,0,0,1.513-.106,15.133,15.133,0,0,0,1.857-.383c-.207-.017-.387-.038-.559-.058L36.19,28A10.338,10.338,0,0,0,34.8,27.91c-.194,0-.4,0-.628.013A10.364,10.364,0,0,0,31.613,28.344ZM270.136,28.2h-.031a2.422,2.422,0,0,1-1.232-.308,2.141,2.141,0,0,0-.413-.174l-.292-.085-.94.179a16.139,16.139,0,0,1-2.647.344h0a1,1,0,0,1-.764-.219.532.532,0,0,1-.148-.4c.022-.436.507-.574.666-.619a4.547,4.547,0,0,1,.878-.143c.186-.014.394-.021.616-.021.385,0,.826.021,1.348.065l.928.077.3-.125c.192-.079.4-.177.612-.282a9.586,9.586,0,0,1,1.284-.542c-.406.024-.825.064-1.26.107-.617.06-1.254.121-1.9.138l-.115,0a8.611,8.611,0,0,1-1.86-.272l-.017,0-.108-.024-3.176.28,1.678-.5h-.052c-.667.017-1.311.066-1.933.114-.6.046-1.166.089-1.694.1-1.475.029-2.494.034-2.979.012-.116-.005-.205-.012-.272-.02a.522.522,0,0,1-.036-1.043c.075-.016.178-.032.317-.05.492-.061,1.461-.131,3.067-.248l.6-.044c1-.074,1.9-.084,2.646-.084h.552l.555,0-1.7-.4,1.832-.532c.131-.038.29-.091.458-.148a8.332,8.332,0,0,1,2.1-.49c.564-.034,1.1-.095,1.491-.139.345-.039.572-.065.72-.065a.532.532,0,0,1,.587.5c.017.388-.326.528-.577.631a3.145,3.145,0,0,0-.876.783,8.648,8.648,0,0,0,1.6-.369,2.748,2.748,0,0,1,.991-.18c.089,0,.183,0,.287.009a2.845,2.845,0,0,1,.708.111.646.646,0,0,1,.5.62c0,.436-.45.668-.843.872l-.053.028c-.014.007-.041.024-.064.038l-.047.029a6.822,6.822,0,0,1,.725-.037c.3,0,.584.017.845.035l.038,0c.135.01.263.019.38.025l2.932.148-2.816.831-.227.07a5.3,5.3,0,0,0-.978.509,5.41,5.41,0,0,1-2.17.9Zm.018-1.128.364.03a4.46,4.46,0,0,0,.8-.362,4.807,4.807,0,0,0-.519.109A5.025,5.025,0,0,0,270.155,27.074Zm-4.2-2.658.932.2a5.657,5.657,0,0,0,.678-.681l.118-.132c-.2.018-.406.034-.619.047a5.717,5.717,0,0,0-1.3.265A1.2,1.2,0,0,1,265.958,24.417ZM29.535,26.663a1.324,1.324,0,0,1-.2-.014c-1.033-.157-1.134-.748-1.129-.994a1.108,1.108,0,0,1,.243-.643c-.592.085-1.178.161-1.7.193-.291.018-.527.027-.7.027a.891.891,0,0,1-.7-.191.518.518,0,0,1-.144-.377c.015-.487.549-.59,1.434-.76a16.3,16.3,0,0,1,3.037-.338,22.844,22.844,0,0,1,2.752.3c.371-.085.755-.205,1.159-.331A9.243,9.243,0,0,1,36.039,23h.015a.528.528,0,0,1,.523.508c0,.028.009.059.013.091.565.021,1.616.057,3.006.1h.088a8.454,8.454,0,0,0,1.3-.152l.107-.018a10.776,10.776,0,0,1,1.773-.181l.148,0c.487.01.985.039,1.512.07.609.036,1.239.073,1.887.081.43,0,.883-.011,1.3-.029l.072,1c-.46.047-.951.113-1.47.183-.668.09-1.358.183-2.1.252a7.979,7.979,0,0,0-1.712.444,10.1,10.1,0,0,1-2.161.547,7.951,7.951,0,0,1-.833.039c-.353,0-.716-.017-1.067-.033l-.047,0c-.353-.017-.717-.034-1.083-.034a7.877,7.877,0,0,0-.948.051,8.889,8.889,0,0,1-1.053.059c-.387,0-.753-.02-1.126-.043l-.054,0c-.316-.019-.614-.037-.888-.037-.129,0-.243,0-.349.012a8.849,8.849,0,0,0-2.154.48A4.121,4.121,0,0,1,29.535,26.663Zm-.277-1.057a1.258,1.258,0,0,0,.23.054.326.326,0,0,0,.047,0,3.778,3.778,0,0,0,.89-.226,9.831,9.831,0,0,1,2.387-.526c.13-.01.269-.015.424-.015.3,0,.618.019.949.039l.054,0c.37.022.706.041,1.066.041a7.9,7.9,0,0,0,.935-.052,8.856,8.856,0,0,1,1.067-.058c.39,0,.783.019,1.131.036l.047,0c.355.017.69.032,1.021.032a6.971,6.971,0,0,0,.728-.034,9.333,9.333,0,0,0,1.949-.5l.058-.02c-.321.031-.644.08-.987.136l-.1.017a9.134,9.134,0,0,1-1.464.165l-.119,0c-1.865-.057-3.125-.1-3.423-.116a.528.528,0,0,1-.5-.509l-.006-.035a11.179,11.179,0,0,0-1.745.445c-.447.14-.909.284-1.359.379l-.12.025-.118-.033a9.714,9.714,0,0,0-1.3-.182A3.6,3.6,0,0,0,29.258,25.606Zm22.7-.853a7.819,7.819,0,0,1-1.175-.135l-.254-.041a12.2,12.2,0,0,0-1.494-.157v-1c.267-.008.506-.012.732-.012h.052c3.164.008,3.314.165,3.472.332a.515.515,0,0,1,.143.382c-.017.437-.475.519-.626.546s-.386.055-.671.077Q52.051,24.753,51.958,24.753ZM37.044,22.772c-.428,0-.875-.012-1.33-.035a4.609,4.609,0,0,1-.865-.106c-.524-.133-.609-.446-.612-.62-.013-.543.664-.729.99-.819a9.159,9.159,0,0,1,1.553-.262c.245-.021.508-.032.782-.032a13.805,13.805,0,0,1,2.47.241c.474.1.72.31.733.635a.577.577,0,0,1-.166.425C40.1,22.716,37.947,22.772,37.044,22.772ZM271.1,22.03l-.134-.99a11.238,11.238,0,0,1,1.451-.171c.156-.007.322-.009.49-.005l.047,1c-.189.022-.389.041-.609.06C271.865,21.96,271.469,21.995,271.1,22.03Zm-232.3-7.661h0a1.547,1.547,0,0,1-1.1-.437.884.884,0,0,0-.156-.011,1.188,1.188,0,0,1-.347-.045c-.173.016-.354.024-.55.024a15.22,15.22,0,0,1-1.608-.116h-.008a14.39,14.39,0,0,0-1.514-.112c-.132,0-.258,0-.376.012-1.227.084-2.162.125-2.86.125a7.847,7.847,0,0,1-1.3-.081,5.511,5.511,0,0,1-.661-.148c-.466-.147-.551-.419-.541-.621.028-.5.581-.6,1.115-.7.48-.089,1.179-.189,2.044-.311a31.8,31.8,0,0,1,3.219-.2l.72-.024a12.99,12.99,0,0,0,1.5-.18l.322-.05c-.352-.064-.432-.146-.5-.22a.527.527,0,0,1-.151-.386c.016-.546.692-.614,1.288-.674a7.839,7.839,0,0,1,.791-.029c.153,0,.316,0,.489,0h.033c.186,0,.384,0,.6,0a20.257,20.257,0,0,0,2.057-.094q.53-.055,1.115-.112c.847-.084,1.806-.179,2.819-.3A11.485,11.485,0,0,0,47,9.279,14.42,14.42,0,0,1,49.109,8.8a5.676,5.676,0,0,1,.732-.043c.424,0,.855.036,1.272.071s.826.067,1.233.067a5.468,5.468,0,0,0,.767-.049c1.641-.232,2.856-.379,3.823-.464.873-.075,1.553-.154,2.1-.217.588-.068.977-.113,1.253-.113a.905.905,0,0,1,.677.221.613.613,0,0,1,.171.45c-.016.541-.647.862-1.327,1.127a20.712,20.712,0,0,1-2.506.748l-.247.061a21.251,21.251,0,0,1-3.372.634.511.511,0,0,1-.4.192h-.015a2.174,2.174,0,0,1-.581-.147,8.657,8.657,0,0,0-2.809-.513c-.458,0-.97.022-1.514.051-.6.031-1.219.063-1.892.064a5.971,5.971,0,0,0-1.462.276,7.625,7.625,0,0,1-1.939.345c-.409,0-.818.006-1.251.009l-.99.006a1.244,1.244,0,0,1,.726.465l.185-.016c.116-.011.193-.018.256-.018a.529.529,0,0,1,.392.155l.147.149,0,.209v0h0c0,.349-.284.463-.58.583-.347.142-.707.333-1.055.517A4.828,4.828,0,0,1,38.806,14.369Zm-.532-1.261a.953.953,0,0,1,.119.1.556.556,0,0,0,.413.163h0a2.4,2.4,0,0,0,.936-.284Zm-.721-.188h.017a1.245,1.245,0,0,1,.68.171l1.725-.686a10.617,10.617,0,0,0-1.186-.091l-.194,0a13.184,13.184,0,0,0-2.063.214,13.7,13.7,0,0,1-1.617.192l-.331.011c.188.018.375.038.56.059h.008a14.277,14.277,0,0,0,1.5.11,4.772,4.772,0,0,0,.579-.032l.236-.029Zm12.233-3.1h.1A9.7,9.7,0,0,1,53,10.385l.093.031a.5.5,0,0,1,.3-.11,19.032,19.032,0,0,0,3.426-.622l.249-.061c.587-.143,1.074-.277,1.476-.4-.432.048-.933.1-1.521.151-.948.083-2.146.229-3.77.458a6.457,6.457,0,0,1-.907.059c-.448,0-.887-.036-1.313-.07-.4-.033-.81-.068-1.192-.068a4.687,4.687,0,0,0-.6.035q-.186.024-.369.057C49.186,9.831,49.492,9.82,49.786,9.82Z" transform="translate(3324.31 -2326.769)" fill="rgba(0,0,0,0)"/>
  </g>
</svg>
