<svg xmlns="http://www.w3.org/2000/svg" width="50" height="46" viewBox="0 0 50 46">
  <g id="bottom_08" data-name="bottom/08" transform="translate(-1068.742 -778.167)">
    <g id="Group_24" data-name="Group 24" transform="translate(1068.743 778.168)">
      <path id="Path_14" data-name="Path 14" d="M1114.95,787.724c-.748-1.86-1.538-3.885-3.075-5.147a18.32,18.32,0,0,0-5.012-2.542,28.024,28.024,0,0,0-5.333-1.026,36.686,36.686,0,0,0-5.351-.8,40.091,40.091,0,0,0-5.416.1,32.845,32.845,0,0,0-5.359.99,17.1,17.1,0,0,0-4.575,2.376c-1.428.962-2.431,2.562-3.64,3.9a27.611,27.611,0,0,0-3.19,4.3c-.954,1.578-2.31,2.89-3,4.625a36.33,36.33,0,0,0-1.692,5.464,31.765,31.765,0,0,0-.529,5.753,23.5,23.5,0,0,0,.357,5.76c.386.091.5-.213.543.209.04.387.118.239-.15.434a13.292,13.292,0,0,0,.63,1.678c.1-.017-.082.241-.047.275.068.062.183,0,.042.041.921,2.247,1.955,4.568,3.7,5.837,1.679,1.224,3.937,1.218,6.151,1.32a32.216,32.216,0,0,1,3.948,1.4c.844.286,4.9-.124,5.776.086,2.121.511,3.827,1.523,5.3,1.4,2.785-.229,4.463-1.28,5.27-1.339,1.925-.14,3.554-1.219,5.127-1.605,1.913-.471,3.672-.582,5.111-1.365a15.7,15.7,0,0,0,4.566-3.185c1.3-1.519,1.659-3.665,2.28-5.522a20.841,20.841,0,0,0,1.361-5.825,32.983,32.983,0,0,0-.75-6.013,47.185,47.185,0,0,0-1.021-5.957A55.114,55.114,0,0,0,1114.95,787.724Z" transform="translate(-1068.743 -778.168)" fill="#d8d9bc"/>
    </g>
  </g>
</svg>
