<svg xmlns="http://www.w3.org/2000/svg" xmlns:xlink="http://www.w3.org/1999/xlink" width="320.999" height="295.5" viewBox="0 0 320.999 295.5">
  <defs>
    <filter id="Union_1" x="0" y="4.485" width="320.999" height="291.015" filterUnits="userSpaceOnUse">
      <feOffset dy="5" input="SourceAlpha"/>
      <feGaussianBlur stdDeviation="5" result="blur"/>
      <feFlood flood-color="#2a4c24" flood-opacity="0.502"/>
      <feComposite operator="in" in2="blur"/>
      <feComposite in="SourceGraphic"/>
    </filter>
  </defs>
  <g id="button_Button3-2_hover_farme" data-name="button/Button3-2/hover/farme" transform="translate(0.5)">
    <g transform="matrix(1, 0, 0, 1, -0.5, 0)" filter="url(#Union_1)">
      <path id="Union_1-2" data-name="Union 1" d="M320.14-282.3a28,28,0,0,0,3.878-.139c.994-.117,1.429-.25,1.45-.327-1.464,0-2.929.021-4.394-.035a29.926,29.926,0,0,1-3.486.046c-1.385-.016-2.9-.121-4.285-.166.216.06-.043.117-2.028-.076.625,0,1.3.061,2.022.075-.339-.091-1.653-.318-.284-.26-4.305-.621-7.67-1.011-11.281-1.6a61.785,61.785,0,0,1-6.386-1.388c-.874-.1-1.906-.192-3.284-.225a12.367,12.367,0,0,1,1.327.028c1.121.052,2.166.1-.32-.217a18.415,18.415,0,0,0-3.1-.188,14.5,14.5,0,0,1-1.771-.049c2.279,0,1.889-.259,4.041-.331q-1.027-.362-2.121-.8c-.484-.046-1.056-.114-1.762-.215-1.253-.085-.054.123.978.256s1.887.265-.073.127a15.943,15.943,0,0,0-3.047-.334,16.031,16.031,0,0,1-3.506-.33l.926.016a16.9,16.9,0,0,0-2.486-.467c-.856-.121-1.749-.233-2.7-.4-1.055-.157-.516.216-.787.423s-1.364.26-5.659-.72l-1.233.064c-1.233-.269-2.357-.565-3.407-.835s-2.025-.525-2.935-.8l-2.6-.763-2.393-.773c-1.567-.488-3.064-1.062-4.714-1.63l-2.57-.968-1.4-.529-1.486-.6c-.6-.32.413.04.925.223-2.9-1.117-6.462-2.659-9.772-4.245-1.654-.8-3.25-1.593-4.685-2.315-1.421-.75-2.713-1.374-3.721-1.894-.855-.506-2.4-1.419-3.479-2.155s-1.719-1.23-.842-.778c-.838-.476-1.816-.987-2.724-1.625-.069-.163.447.178,1.017.519a5.376,5.376,0,0,0,1.243.661c-.547-.35-.838-.554-1.035-.661.263.1.315.05.375,0a.217.217,0,0,1,.2-.057,3.876,3.876,0,0,1,1.088.463c.626.328,1.562.9,3.051,1.75,1.037.855,0,.271-1.156-.377-1.149-.664-2.4-1.425-1.859-.8,1.557.971,1.787.953,1.917.937a.217.217,0,0,1,.1,0c2.5,1.463,2.379,1.53,2.191,1.55.514.224,1.556.8,2.648,1.4.546.3,1.106.6,1.62.861a12.136,12.136,0,0,0,1.363.577c2.785,1.375,2.368,1.3,1.984,1.222-.314-.062-.607-.125.884.6l2.136.459c.911.459,1.844.874,2.773,1.3s1.854.858,2.8,1.244c4.135,1.6,3.937,1.22,3.864.972-.033-.133-.027-.255.582-.139s1.808.5,4.21,1.24c-.666-.094-.084.289,1.22.9.65.314,1.495.639,2.447,1.009s2.02.754,3.143,1.1c-1.354-.379-3.286-.918-5.314-1.487a59.71,59.71,0,0,1-5.792-2.029c2.333,1.081.678.473-1.272-.24-1.938-.743-4.153-1.631-3-.921,2.425.793,6.394,2.254,9.487,3.41l-1.037-.311c3.31,1.189,5.992,1.5,10.6,2.955,2.327.6,1.857.62,1.418.625a31.516,31.516,0,0,1,3.764.859c1.489-.079,2.98-.216,4.452-.325,1.479-.137,2.95-.288,4.41-.446a146.576,146.576,0,0,1-27.921-7.907c-1.029-.657.7-.1,2.627.525A22.1,22.1,0,0,0,260-296.7c1.457.491,2.9,1.018,4.378,1.465a7.824,7.824,0,0,1-1.522-.339l-2.741-.816c-1.788-.54-3.04-.943-1.128-.073,3.91,1.195,6.747,2.069,9.577,2.787a84.4,84.4,0,0,0,9.462,1.93,55.739,55.739,0,0,0-6.422-1.638c-1.407-.3-2.871-.7-4.3-1.078s-2.777-.846-3.958-1.284c2.018.623,3.741,1.077,5.436,1.435-4.544-1.268-9.348-2.825-14.341-4.771l-1.169-.31c1.68.666,3.1,1.224,4.159,1.595l1.861.691c-4.535-1.553-8.377-2.836-8.815-2.619l.789.334-1.638-.542c1.308.562,2.609,1.125,3.922,1.628a6.7,6.7,0,0,1-2.209-.733,21.631,21.631,0,0,1-2.257-1.077l.5.167c-1.036-.433-2.052-.91-3.064-1.379q-.573-.224-1.182-.459l.631.2c-1-.45-1.967-.943-2.945-1.43l-1.235-.538a2.3,2.3,0,0,0,.459.147l-.934-.474c-1.211-.483-3.317-1.36-5.271-2.339-1.983-.929-3.821-1.936-4.675-2.334a72.134,72.134,0,0,1-6.378-3.82c.737.487,1.6,1.051,2.221,1.414s1,.528.743.283c-2.939-2.07-4.18-3.316-9.347-6.712.968.721,1.924,1.463,2.922,2.142q-3.478-2.142-6.833-4.5c-2.087-1.97,3.343,2.356,4.406,2.823-5.262-3.589-8.71-7.665-11.187-9.3-.115-.483-.292-1.3-3.264-4.178.938,1.172.461.773-.062.321s-1.087-.958-.355.044c-1.025-.839-2.818-2.983-3.336-3.378l.237.141a98.636,98.636,0,0,0-8.453-9.173c-1.3-1.683-2.439-3.133-3.4-4.5s-1.839-2.591-2.622-3.815-1.558-2.4-2.341-3.649l-2.479-4.056a13.242,13.242,0,0,0-1.837-4.628c-.415-.506-1.385-2.125-2.327-3.672a23.3,23.3,0,0,0-2.06-3.28c2.074,4.524,2.08,3.507,3.532,6.1.869,2.345-.226.375,1.272,3.419-.645-1.208-2.148-3.905-3.608-6.665-.7-1.393-1.4-2.8-1.993-4.028-.557-1.249-1-2.328-1.235-3.042l.48.943c-.095-.235-.183-.456-.267-.673-1.055-1.822-1.964-3.411-2.645-4.464a38.878,38.878,0,0,0-1.961-4.778c-.409-.82-.775-1.735-1.181-2.776s-.851-2.209-1.291-3.58c.281.84.926,2.315,1.314,3.492.666,1.38.284.251-.107-.877-.434-1.256-.881-2.512.091-.311-.3-.658-.057.244.344,1.186.678,1.812,1.575,3.405,1.491,2.914-.585-1.44-.992-2.951-1.479-4.425l.642,1.495-1.082-3.36c-.333-1.128-.608-2.274-.913-3.408-.113-.164.017.487.086.821-.294-.979-.59-1.976-.893-2.985-.255-1.019-.515-2.052-.775-3.088-.58-2.061-.93-4.194-1.375-6.274l-.159-.781-.117-.784q-.115-.783-.229-1.556c-.145-1.031-.319-2.046-.433-3.046-.09-1-.178-1.984-.263-2.938s-.179-1.88-.181-2.777a12,12,0,0,1-.516-3.41c-.087-.907-.047-1.949-.061-3.077,0-.564.006-1.15.009-1.751s.024-1.215.069-1.838c.159-5,1.094-10.477,1.366-13.389-.039,1.585.223,2.487.553,1.573-.093.639-.17,1.622-.3,2.8-.09,1.185-.18,2.572-.4,4.014a2.812,2.812,0,0,0-.16.586c-.021.723-.021,1.446,0,2.085.054-.1.1-.022.119.374.066-1.113.123-2.17.246-3.171.1-1,.191-1.957.279-2.87.063-.918.217-1.779.318-2.617s.208-1.641.307-2.419c.476-3.1.915-5.8,1.608-8.547l.128-.113c.293-1.4.69-2.765,1.07-4.141-1.121,3.31-1.513,3.02.026-1.237l-.147.529c.455-1.208,1.157-3.058,1.88-5.1.343-1.028.787-2.063,1.195-3.091.423-1.022.806-2.043,1.243-2.948l.912-2.581a13.868,13.868,0,0,1,1.955-3.243c.471-.555.818-.791,1.248-1.3.354-.7.714-1.349,1.06-1.966s.655-1.216.962-1.785.587-1.119.865-1.65.564-1.03.834-1.523c.539-.988,1.025-1.945,1.543-2.88.534-.925,1.07-1.848,1.63-2.815l3.577-4.639c1.25-1.541,2-2.357.581-.31a47.027,47.027,0,0,0,2.917-4.825,24.163,24.163,0,0,1,1.809-2.553,53.57,53.57,0,0,1,3.788-4.054l-1.512,2.034c1.505-1.773,3.258-3.656,5.027-5.59l2.739-2.831c.906-.943,1.857-1.822,2.751-2.7s1.791-1.7,2.65-2.473,1.655-1.511,2.422-2.151c1.537-1.274,2.793-2.322,3.676-2.938-1.117,1.352,1.285-.306,4.212-2.287,2.926-1.954,6.471-4.088,7.379-4.263-.4.057,2.447-1.8,2.825-2.148a18.894,18.894,0,0,0,2.912-1.716c-1.6.85-1.147.366-1.023.136.062-.115.043-.165-.358.048a26.083,26.083,0,0,0-2.6,1.681,49.994,49.994,0,0,1,5.086-3.78c1.082-.673,2.286-1.4,3.652-2.18l2.21-1.145c.78-.4,1.6-.819,2.49-1.2l.023.326c-.947.392-1.857.856-2.781,1.288s-1.852.862-2.75,1.348c.654-.087-2.135,1.375-3.2,2.1,5.014-2.665,4.793-2.276,4.557-2-.118.142-.23.276.333.05.282-.112.732-.316,1.435-.651s1.642-.832,2.967-1.413a10.2,10.2,0,0,1,2.414-1.274c-.246.134-.365.23-.328.247a7.538,7.538,0,0,0,1.6-.558l1.942-1.049c1.971-.521.444.183-1.149.9-1.6.692-3.226,1.5-1.591.959l-3.352,1.69c-1.173.615-2.335,1.265-3.34,1.819-1.99,1.147-3.279,2.032-2.564,1.856.8-.414,1.486-.782,2.083-1.116.607-.317,1.13-.6,1.592-.861.929-.521,1.619-.981,2.337-1.414a34.174,34.174,0,0,1,6.484-3.067c.27-.046.536-.1.808-.142,2.476-.991,2.78-1.434,4.132-2.023a9.135,9.135,0,0,0,2.481-.566c1.053-.428,2.051-.733,2.986-1.06s1.839-.578,2.736-.825c1.78-.535,3.565-.916,5.635-1.44-1.392.245-2.584.452-3.629.637l-2.71.573-1.12.227c-.348.083-.678.163-1,.239l-1.833.422a56.912,56.912,0,0,0-10.136,3.441c.41-.194,1.175-.554,2.125-.949.955-.379,2.075-.822,3.157-1.253a28.293,28.293,0,0,0,4.429-1.813l-.022.323c.909-.276,1.817-.552,2.738-.834s1.892-.478,2.877-.718c.5-.109.994-.243,1.512-.33l1.592-.261,1.661-.252c.561-.066,1.133-.119,1.721-.176-.946.162-1.893.333-2.855.553l1.151-.209c.373-.056.735-.1,1.1-.142.716-.084,1.406-.166,2.077-.211,1.339-.112,2.594-.167,3.806-.213,2.424-.091,4.673-.157,7.119-.464-1.732.006-3.14.085-4.208.181a89.661,89.661,0,0,1,10.688-.227c2.4-.138,4.8-.206,7.208-.25-.07.148,4.477.45,2.267.551,5.138.6,7.6.449,10.582.716,2.606.507,1.461.39-.4.2-.933-.083-2.048-.182-2.962-.239a6,6,0,0,0-1.774.047c7.238.819,14.86,1.972,18.947,2.515a7.926,7.926,0,0,1-2.063-.584c-.023-.012-.008-.017.007-.022-.011.006-.005.015-.007.022.2.121,3.092.663,4.695,1l1.144.046c2.638.716,2.235.748-.064.4,2.539.579,5.655.931,8.182,1.891-4.359-.911-9.854-2.306-12.164-2.587a69.822,69.822,0,0,1,9.36,2.261c2.53.8,5.367,1.609,11.024,3.221.036.044-.157.027-.352.01-.386-.034-.77-.068.666.386,3.148.953,2.911.718,2.7.484-.126-.139-.243-.279.365-.169a71.17,71.17,0,0,1-7.854-2.656l1.084.137c-.055-.045.147-.024.778.108l-.775-.106c.147.133,2.576.853,3.268,1.149l.722-.117c-.2.129.654.567,1.938,1.077s2.991,1.136,4.523,1.6c-2.969-1.306-2.152-1-2.852-1.679a26.625,26.625,0,0,1,2.669.786c.719.271,1.318.538,1.934.809a36.185,36.185,0,0,0,4.952,1.84c-.4-.027-4.551-1.526-1.022-.076,2.931,1.168,2.638.771,4.641,1.484-2.328-.621-1.844-.193-4.372-.812-2.618-.984-3.143-1.189-3.664-1.36s-1.023-.35-3.624-1.184c1.43.574,2.843,1.2,4.264,1.8-3.369-1.178-3.562-1.057-3.628-.936-.021.039-.029.078-.128.073A48.525,48.525,0,0,0,352-527.953a21.844,21.844,0,0,1,4.329,1.452c1.188.4.082-.1-.879-.5s-1.754-.742.1-.1A15.859,15.859,0,0,0,358.408-526a15.937,15.937,0,0,1,3.3,1.222l-.89-.254a16.844,16.844,0,0,0,2.283,1.092c.8.338,1.628.675,2.5,1.083.978.424.553-.076.871-.206s1.385.1,5.28,2.154l1.208.256c1.123.578,2.13,1.153,3.075,1.685s1.817,1.028,2.627,1.526l2.315,1.407,2.112,1.362c1.386.876,2.684,1.816,4.129,2.79.711.507,1.447,1.036,2.231,1.6.394.281.8.571,1.217.871l1.279.962c.494.463-.388-.146-.836-.454,1.049.763,2.194,1.632,3.371,2.555l2.233,1.225-.678-.316c.64.439,1.493.984,2.421,1.559s1.945,1.153,2.851,1.767a40.934,40.934,0,0,0,3.726,2.257c.876.683-2.538-1.274-4.517-2.314-1-.5-1.664-.752-1.222-.408.457.322,1.935,1.372,5.193,3.507,1.242.808,2.027,1.385,2.608,1.739a7.3,7.3,0,0,0,1.222.64,8.376,8.376,0,0,1,2.357,1.187s-.19-.069.059.161c2.034,1.633,2.342,1.671,4.073,2.953a37.23,37.23,0,0,0-3.542-2.9,18.2,18.2,0,0,1,2.6,1.986c.585.483,1.2.989,1.763,1.454s1.1.871,1.491,1.185c-1.108-.754-.133.172.874,1.1.966.89,1.96,1.779,1.164,1.183.462.458.934.914,1.409,1.363s.918.938,1.379,1.394c.916.918,1.826,1.8,2.7,2.621,1.691,1.685,3.156,3.171,4.183,4.1a38.845,38.845,0,0,0,3.132,4.111c.61.686,1.2,1.475,1.863,2.377s1.394,1.914,2.173,3.125c-.49-.739-1.495-2-2.173-3.034-1-1.162-.343-.172.327.816.747,1.1,1.507,2.2,0,.327.462.559-.009-.25-.642-1.056-1.125-1.576-2.4-2.885-2.2-2.431.939,1.241,1.727,2.594,2.578,3.893l-1.006-1.279,1.916,2.967c.615,1,1.178,2.041,1.766,3.056.152.13-.142-.464-.3-.771l1.637,2.653c.511.919,1.031,1.85,1.55,2.784,1.094,1.841,1.986,3.812,2.956,5.707l.356.714.316.727q.316.725.627,1.444c.408.959.84,1.893,1.207,2.83.348.945.687,1.871,1.018,2.77s.658,1.772.894,2.637a12.026,12.026,0,0,1,1.384,3.159c.32.853.551,1.871.856,2.957.144.546.294,1.113.446,1.694s.294,1.18.411,1.792c1.141,4.873,1.66,10.4,2.153,13.287-.375-1.542-.862-2.346-.943-1.375-.076-.642-.255-1.613-.44-2.784-.219-1.169-.492-2.532-.656-3.981.117-.486-.443-4.062.147-1.8-.972-4.757-.83-3.4-.723-2.045.072.906.129,1.812-.171.894.225,1.093.444,2.128.585,3.126q.25,1.491.477,2.844c.177.9.251,1.776.373,2.61s.223,1.638.328,2.415c.345,3.116.621,5.839.666,8.672l-.1.141c.082,1.426.052,2.849.044,4.275.224-3.485.679-3.3.3,1.2l0-.551c-.125,1.285-.322,3.254-.492,5.41-.066,1.08-.226,2.194-.352,3.293-.146,1.1-.251,2.181-.438,3.168l-.212,2.728a13.745,13.745,0,0,1-1.047,3.636c-.312.658-.585.975-.868,1.578-.16.767-.341,1.487-.515,2.173s-.318,1.344-.465,1.972-.278,1.234-.408,1.818-.279,1.14-.411,1.686c-.265,1.094-.485,2.143-.742,3.179-.279,1.032-.556,2.062-.846,3.141-.142.34-.377.907-.657,1.578l-.009.044.006-.04c-.233.558-.494,1.186-.758,1.819-.029.179-.057.361-.085.538-.154.829-.308,1.646-.458,2.442-.263,1.6-.608,3.107-.888,4.486-.26,1.386-.59,2.611-.827,3.661-.478,1.4-1.049,2.774-1.607,4.146.843-2.5,1.485-5.664,1.094-4.947-.342,1.165-.445,1.648-.6,2.243-.18.59-.416,1.295-1.029,2.9.025-.616.4-2.016.692-3.611-1.305,3.288-1.325,3.7-1.243,3.87s.235.087-.968,2.275c-.826,2.064-1.172,3.327-1.073,3.641l-.972,1.779c-.336.585-.694,1.161-1.038,1.741.052.527-2.24,4.977-4.011,7.741-.053.2.353-.323.846-1.038.248-.358.515-.762.756-1.148s.426-.767.558-1.051c.09.33-1.623,3.392-2.877,5.268a9.439,9.439,0,0,0-1.65,2.034c-.828,1.1-1.826,2.517-2.812,3.807-1.971,2.581-3.83,4.687-3.222,3.465a105.734,105.734,0,0,1-11.579,12.055,137.989,137.989,0,0,1-11.091,8.843c-.48.275-1.061.648-1.652,1l-1.645.955c-.924.523-1.337.706-.276-.127l-1.244.8-1.189.731-2.2,1.379c-1.43.84-2.718,1.687-4.062,2.434-.668.38-1.335.761-2.017,1.15s-1.4.737-2.136,1.116c-1.466.773-3.095,1.486-4.949,2.283-.636.217,3.326-1.507,2.985-1.558a62.6,62.6,0,0,1-7.168,3.062c-1.3.463-2.678.983-4.231,1.5l-4.95,1.7a7.265,7.265,0,0,0,1.452-.629c-.253.119-.865.358-1.622.643-1.049.388-2.384.825-3.383,1.177-.625.159-.134-.007.343-.173.4-.141.8-.282.492-.225-3.8,1.049-7.4,1.979-10.909,2.741s-6.918,1.46-10.356,1.982a113.277,113.277,0,0,1-17.884,1.476Q321.622-282.261,320.14-282.3Zm-1.362-1.935c1.366.059,2.46.1,3.644.168,1.184.03,2.46.062,4.182-.027,1.068-.157.657-.188-.229-.179s-2.255,0-3.1,0c.237-.217,1.088-.2,2.973-.25a35.154,35.154,0,0,0,5.644-.049c1.424-.061,2.9-.2,4.189-.265,1.279-.106,2.36-.174,2.978-.157,5.013-.7,4.574-.88,4.124-.952-.454-.1-.924-.118,3.932-.9l2.952-.239c5.561-1.4,12.64-3.524,18.73-5.677l-1.279.47c-.809.437.631.012,1.282-.145,4.661-1.519,8.555-3.6,11.37-4.553,2.676-1.391,6.239-3.4,9.752-5.552l-.018-.091c-.805.5-1.612,1-2.431,1.511s-1.7.95-2.591,1.437c-.45.233-.9.49-1.375.708l-1.468.662-1.54.671c-.526.209-1.063.408-1.616.616.873-.4,1.743-.81,2.616-1.272l-1.058.5c-.347.151-.687.285-1.023.42-.669.267-1.315.524-1.951.74-1.265.452-2.462.829-3.621,1.186-2.318.713-4.474,1.356-6.756,2.284,1.673-.452,3.011-.893,4.018-1.26a89.548,89.548,0,0,1-10.267,2.976c-2.282.751-4.585,1.435-6.9,2.1a6.135,6.135,0,0,0-1.428.142c-1.075.154-2.165.308-.9-.089-5.119.746-7.456,1.524-10.408,2.034-2.648.183-1.513,0,.336-.295.923-.161,2.024-.351,2.924-.533a5.943,5.943,0,0,0,1.7-.5c-7.206,1.074-14.866,1.925-18.955,2.454a7.7,7.7,0,0,1,2.142.033c-.226-.065-3.157.154-4.792.247l-1.117.249c-2.734-.011-2.353-.145-.042-.4-2.6.095-5.7.557-8.394.282,4.447-.243,10.118-.311,12.421-.635a69.939,69.939,0,0,1-9.628.228c-2.651-.124-5.6-.172-11.483-.271-.14-.1,1.855-.2-.407-.3-5.243-.174-1.391.351-3.041.486a71.02,71.02,0,0,1,8.276.543l-1.085.145c-.162-.09-2.709-.16-3.456-.268l-.536.239q.492.074.987.143a105.469,105.469,0,0,0,12.824,1.033l.171,0C320.679-284.392,318.955-284.266,318.778-284.236Zm-16.9-.969c-.357-.1-.71-.219-1.063-.334-.422-.011-.8-.029-1.159-.054C300.4-285.455,301.136-285.323,301.877-285.205Zm.127-.442c.8.124,1.607.242,2.413.348-1-.254-1.966-.459-2.838-.633A4.1,4.1,0,0,1,302-285.648Zm3.918.059a6.111,6.111,0,0,0-2.143-.459c-.446-.055-.94-.108-1.456-.157C303.491-285.984,304.7-285.774,305.921-285.589Zm-6.6-.787-.216-.045-.107,0Zm-.672-.3c.267.016.573.031.919.05-.16-.046-.318-.088-.462-.128-1.117-.151-2.235-.314-3.349-.471.828.063,1.468.1,1.971.124-.985-.23-1.648-.351-3.035-.743-.747-.044-1.292-.051-1.774-.041a20.067,20.067,0,0,1-2.542-.05q1.341.434,2.694.811c2.409.24,2.94.3,3.459.326.344.018.682.043,1.561.093a.522.522,0,0,1-.176-.108C298.1-286.784,298.365-286.732,298.646-286.673Zm-.614-.413c1.971.062,1.257-.2,1.571-.27-2.346-.28-3.834-.421-4.9-.484C295.683-287.615,296.806-287.356,298.032-287.086Zm5.161-.446c1.465.086,3.249.148,3.874.117.757-.143,2.39-.167,3.873-.234a10.37,10.37,0,0,0,2.968-.34c.318-.091-.735-.136-1.916-.177-1.319-.009-2.727-.063-4.22-.117a2.551,2.551,0,0,1-.849.127c1.474.086,2.457.2,1.853.412a12.707,12.707,0,0,0-3.638-.158,15.627,15.627,0,0,1-3.883.029C300.594-287.786,301.732-287.647,303.193-287.532Zm34.784-3.3.817.061c-6.336.761-12.764,1.165-18.884,1.3,5.537.207,10.27.087,11.311.235.518.063.115.2-1.579.391s-4.675.455-9.314.618l-1.213.085c2.428.043,6.617-.145,10.538-.517,1.581-.237,4.9-.864,7.793-1.487,1.444-.321,2.783-.632,3.751-.871a14.381,14.381,0,0,0,1.535-.429h-.1C341.5-291.443,339.949-291.022,337.977-290.831Zm-65.964,1.23c.429.017.594,0,.6-.031Zm74.751-.457c3.144-.471,5.308-.884,7.385-1.328s4.069-.93,6.844-1.687c-.776.106-1.547.224-2.325.314a39.808,39.808,0,0,1,5.209-1.178c.546-.083,1.12-.161,1.991-.362s2.049-.495,3.787-1.045c1.415-.557,4.015-1.423,6.239-2.28,1.114-.425,2.135-.84,2.87-1.191a4.306,4.306,0,0,0,1.147-.657,4.087,4.087,0,0,0,.613-.181q3.492-1.694,6.878-3.578c-2.459,1.385-4.687,2.534-6.757,3.537.388-.137.894-.328,1.459-.552a22.128,22.128,0,0,0,2.3-1.053c.76-.39,1.485-.764,2.012-1.11.552-.433,1.419-1.019,2.368-1.637s1.94-1.341,2.818-1.931,1.58-1.14,1.944-1.437.379-.357-.166-.039c-.91.655-2.008,1.385-3.062,2.081a15.486,15.486,0,0,1-2.969,1.609l1.869-1.118,1.819-1.2c-.851.433-1.678.906-2.545,1.3,1.314-.67,1.055-.816.318-.736l-2.261,1.343c-.382.221-.758.459-1.15.671l-1.185.624.468-.227-2.287,1.279-2.352,1.16c1.5-.6,2.773-1.034,3.143-1.125s-.087.343-2.149,1.307c.3-.262-.969.141.444-.556-2.8,1.173-9.139,3.192-7.361,3.019,2.674-1.181,3.032-1.187,3.259-1.112s.315.222,2.388-.782a59.926,59.926,0,0,1-6.681,2.809c2.211-1.031-.7-.273-4.2.7-1.48.563-5.614,1.665-8.135,2.407.972.012-1.207.758,2.959-.284a50.966,50.966,0,0,1-6.543,1.63,17.746,17.746,0,0,0,2.726-.827c-1.766.186-3.768.662-4.9.794-.883.207-1.771.416-2.641.6a5.009,5.009,0,0,1,.663-.04l-2.911.808c3.917-.894,1.846-.24,1.826-.078.022-.161-.614-.044-1.425.149s-1.8.428-2.478.556c1-.075,2-.137,3-.226C349.643-290.477,345.965-290.238,346.763-290.057Zm-3.294-.146c3.607-.486,2.761-.528,3.294-.756-1.259.224-2.515.462-3.764.655.145-.01.269-.016.364-.016C343.584-290.321,343.65-290.288,343.469-290.2Zm-59.949-.457.892-.117L282-291.216A4.206,4.206,0,0,0,283.52-290.66Zm-17.751-.589c.531.149,1.128.3,1.737.444-1.033-.284-2.066-.582-3.088-.907C264.774-291.566,265.24-291.41,265.769-291.249Zm46.262.411c-4.358-.212-.076-.241,1.467-.3a14.168,14.168,0,0,0,3.37.088l4.938-.214-.184.067a93.227,93.227,0,0,0,9.319-.6c-.139-.088,3.533-.888,5.27-1.391-2.477.236-2.986.213-2.928.146s.687-.2.48-.272c-.332.022-.524.025-.131-.03a.4.4,0,0,1,.132.03,11.473,11.473,0,0,0,1.534-.186c.4-.092.023-.078-.4-.063a3.4,3.4,0,0,1-.721-.013c-5.228.7-10.645,1.02-12.783,1.493,1.631.1,2.754-.285,4.573-.287a70.613,70.613,0,0,1-10.375.578l-1.441-.226c-1.471.029-2.945.077-4.417.08a33.41,33.41,0,0,1,5.366-.383,18.46,18.46,0,0,0-2.994-.069c-1.4.016-3.049.032-4.422-.052-.486.095-.973.18-1.46.261.562-.15-5.488-.465-1.175-.506,1.166.015,2.333.024,3.5,0s2.332-.02,3.5-.061c-.647-.081-1.293-.146-1.939-.24,1.966.01,3.934.013,5.9-.039l-1.392.178c1.186-.039,2.118-.057,2.863-.064s1.3-.021,1.727-.011a9.2,9.2,0,0,1,1.568.143,8.055,8.055,0,0,0,1.581.086c.867-.009,2.241-.092,4.623-.344,2.96-.607,6.157-.873,11.976-1.531-4.191.625-.4.329-1.953.747a36.753,36.753,0,0,0,4.753-.677c1.163-.248,2.063-.5,3.155-.762,1.117.017,1.924.065-1.9.648-.214.271,1.171.013,2.6-.245a8.915,8.915,0,0,1,2.833-.3A59.433,59.433,0,0,0,359.83-298.3l2.109-.751c.761-.263,1.6-.531,2.576-.849l8-2.454-.465.349c2.2-.818,4.153-1.6,5.934-2.352l2.518-1.12c.811-.388,1.592-.8,2.379-1.186a70.159,70.159,0,0,0,9.546-5.937c1.9-1.207,3.8-2.447,5.641-3.791-.573.5-1.58,1.495-2.29,2.168-.649.624-1,1.047-.411.732-.671.382-1.329.793-1.983,1.226-.724.451-1.453.907-2.178,1.383l-1.093.717-1.13.669c-.758.439-1.515.9-2.31,1.29-.127.137.137.057.5-.111l1.1-.551c-.455.283-.856.527-1.245.741l-1.171.592c-.8.387-1.634.89-2.877,1.53a9.768,9.768,0,0,0,1.277-.494c.451-.209.645-.25-.362.326l-1.77.735c-.589.242-1.17.5-1.774.7-1.145.54-1.846.913-2.337,1.2-.513.276-.811.473-1.138.675a18.622,18.622,0,0,1-4.356,1.8,48.4,48.4,0,0,1,5.237-2.683c-1.315.484-.44.12.4-.3s1.686-.864.529-.436a22.863,22.863,0,0,1-2.41,1.179c-.757.339-1.5.6-2.277.9l-5.819,2.085c.588-.232.723-.359,1.973-.792-2.482.776-5,1.465-7.523,2.106.961-.153-.578.34-2.274.852s-3.552,1.036-3.161,1.1c4.091-.912,5.505-1.347,7.067-1.789,1.551-.471,3.269-.911,7.792-2.365-2.513.952-5.742,2.291-7.242,3.015.119-.011-.027.061-.341.168.084-.047.213-.107.341-.168a4.434,4.434,0,0,0-.5.117c-1.324.7.137.382.261.919,4.11-1.6,7.011-2.17,11.769-4.193.8-.625-2.925.7-5.336,1.579,1.416-.547,2.82-1.107,4.208-1.7l-.785.442a78.371,78.371,0,0,0,10.437-4.5,32.953,32.953,0,0,0-3.43,2.1l2-.929c.674-.309,1.376-.59,2.066-.951-.423-.093-.342-.374.9-1.074q.6-.33,1.167-.645c.378-.211.733-.441,1.085-.65l1.99-1.193,3.291-2.082c1.9-1.283,3.375-2.167,4.523-2.925.216-.186.462-.4.657-.564-.583.272.376-.639,1.617-1.885s2.794-2.8,3.5-3.718c.064.15.789-.472,1.7-1.3.9-.841,1.962-1.927,2.774-2.628.172-.333.146-.485-.033-.486a126.642,126.642,0,0,0,14-16.96c.642-2.1,1.712-4.342,1.759-5.559,2.479-4.006,5.488-9.632,7.479-13.2l-.061.388c.47-.88.9-1.736,1.3-2.547.365-.823.69-1.6.978-2.311.537-.98.421-.521.293-.063-.115.409-.238.818.086.206.906-2.064,1.658-4.188,2.472-6.282a18.007,18.007,0,0,1-1.138,3.361c-.318.848-.72,1.739-1.1,2.578l-1,2.243c.191-.474.575-1.43.408-1.144-.667,1.425-1.616,3.462-2.473,5.3a21.291,21.291,0,0,1-2.238,3.933c-.331.692-.028-.028.051-.351.039-.161.021-.223-.16.039s-.521.851-1.183,1.964c-1.842,2.933-2.168,4.052-2.254,4.426a14.1,14.1,0,0,0,1.444-2.008c.615-.952,1.117-1.7.719-.827.666-1.18,1.109-2.017,1.579-2.947s.986-1.939,1.871-3.429c-.627,1.185-1.3,2.619-1.933,3.9a20.918,20.918,0,0,1-1.753,2.928c-.589,1.193-1.027,2.036-1.265,2.638a2.07,2.07,0,0,0-.265,1.064c.1.255.7-.343,1.382-1.4a14.406,14.406,0,0,1,1.139-2.328c1.034-1.973,2.056-3.945-.238-.321,1.389-2.821,4.019-7.9,5.595-11.682l-.024.195,1.02-2.326c.344-.773.68-1.548.984-2.338a13.751,13.751,0,0,0-.643,2.23c.44-1.09.808-2.209,1.2-3.314.351-1.016.721-2.023,1.035-3.048-.946,3.188,1.176-2.544,1.855-4.163.019-.792.729-3.436-.237-.994a15,15,0,0,0-.757,2.172,11.749,11.749,0,0,1-.606,2.016c.319-1.234.692-2.447.956-3.692l.139-.3.441-2.256a10.23,10.23,0,0,1,.695-1.8c.1-.109.1.139.115.342s.027.364.145.046c.062-.73.13-1.415.2-2.069l-.131.145c.061-.193.122-.392.183-.587.017-.151.034-.3.052-.454l-.043.421c.117-.377.234-.758.349-1.145.022-.559.033-1.118.053-1.677.147-.62.2-.26.219.506,0,.077,0,.16,0,.245.67-2.295,1.312-4.723,1.882-7.117,0-.124,0-.239,0-.365-.024-.784-.052-1.624-.078-2.494s-.014-1.769-.062-2.671-.092-1.808-.137-2.69c-.06-1.767-.275-3.436-.437-4.805a11.145,11.145,0,0,0-.654-2.965c-.118-1.974.2-.122.483,1.486.231,1.612.445,2.982.338-.007.274,1.717.5,3.774.609,5.546a19.87,19.87,0,0,0,.405,3.817c-.288-3.4.229-1.256.111-3.457-.121-1.264-.345-2.521-.527-3.779l.065.84q-.175-1.189-.341-2.538c-.108-.9-.279-1.833-.414-2.81-.151-.975-.272-1.991-.446-3.024s-.358-2.09-.541-3.162q-.141-.8-.279-1.617-.162-.808-.325-1.621c-.217-1.084-.434-2.17-.653-3.248-.248-1.071-.493-2.133-.736-3.177-.121-.52-.244-1.038-.365-1.548s-.271-1.007-.4-1.5c-.529-1.649-1.013-3.169-1.565-4.617s-1.033-2.868-1.615-4.3c-.567-1.435-1.107-2.921-1.762-4.5-.309-.8-.631-1.625-.967-2.493l-1.1-2.722c.547,1.091-.035-.518-.491-1.811-.483-1.279-.811-2.259.411.05a50.16,50.16,0,0,0-2.1-4.808,10.749,10.749,0,0,0-1.246-2.1c1.39,3.061.486,1.078,1.592,3.684-.451-.844-1.2-2.232-1.872-3.645s-1.389-2.787-1.738-3.625c.373.751.258.452.4.589a10.521,10.521,0,0,0-1.371-2.473A7.619,7.619,0,0,1,424.283-462c-.171-.959-3.175-5.545-4.525-7.818-.791-1.009-1.646-1.973-2.461-2.958.694.8.2.026-.506-1.016a23.051,23.051,0,0,1-1.748-2.627c-1.8-2.091-3.449-3.712-6.113-6.925,1.24,1.212-2.383-2.979-2.268-3.188-1.194-1.34-2.3-2.549-3.453-3.6l-1.677-1.551c-.566-.484-1.125-.963-1.682-1.437-2.218-1.907-4.474-3.68-6.961-5.994.2.091,1.352.85-.131-.478-.992-.722-2.5-1.941-3.768-2.9-.167.019-.1.15.739.679-1.407-.747-2.664-1.448-3.716-2.042,1.267,1.278,3.911,2.752,4.755,3.625-.733-.43-1.754-1.134-2.975-1.96-.606-.42-1.257-.875-1.941-1.352l-2.15-1.463c-1.06-.71-2.159-1.432-3.253-2.13a6.349,6.349,0,0,1-.662-.209c-.813-.441-1.445-.731-1.954-.962,3.234,2.271,7.707,5.347,11.561,8.381-.723-.666-1.485-1.286-2.233-1.928.936.7,1.87,1.4,2.775,2.136-.812-.793-1.652-1.554-2.5-2.313,2.484,1.915,4.633,3.605,6.782,5.433-2.372-2.048-3.043-3.04-1.621-1.786,2.831,2.731,3.227,2.523,5.464,4.533-1.23-1.132-2.851-2.585-1.7-1.773l4.721,4.7c1.256,1.306,2.483,2.55,4.174,4.646-.054-.4,1.117.8,2.341,2.209a29.217,29.217,0,0,0,2.95,3.156l-1.572-1.942,1.812,1.942.9.974.876,1c1.249,1.883.717,1.36.206.836-.6-.613-1.17-1.226,1.177,2.025,1,1.39,1.788,2.391,2.413,3.211s1.113,1.441,1.586,2.02.922,1.118,1.417,1.809,1.083,1.506,1.812,2.644c-.589-.684-1.529-1.881-2.6-3.373-1.125-1.454-2.356-3.219-3.663-4.954.474.739.981,1.453,1.431,2.208-.446-.537-1.592-1.986-2.8-3.635-1.271-1.6-2.629-3.393-3.6-4.531,1.71,1.8,1.36,1.339.422.192-.467-.573-1.077-1.323-1.657-2.039-.6-.7-1.155-1.379-1.484-1.843-.157-.043-.029.185.118.414.3.462.667.924-1.106-.856,2.155,2.42,2.643,2.92,4.845,5.764-.5-.634-.983-1.187-1.414-1.689-.6-.685-1.116-1.281-1.614-1.775-.987-.993-1.765-1.7-2.514-2.375a71.909,71.909,0,0,1-5.847-5.556c1.42,1.312,1.244,1.014.695.317s-1.533-1.729-1.654-1.942c-.337-.307-.76-.695-1.225-1.117l-1.5-1.292-1.466-1.247-1.17-.921.8,1.185c-.962-.756-1.731-1.43-2.415-2.07l-1.947-1.813a26.985,26.985,0,0,0-2.122-1.837,29.245,29.245,0,0,0-2.967-2.07c-.374-.112.645.6,1.6,1.341s1.919,1.408,1.5,1.119c-.791-.557-1.511-1.08-2.177-1.575l-1.883-1.369c-1.164-.881-2.193-1.659-3.2-2.424-.966-.746-1.915-1.48-2.961-2.253l-.1-.047c-.556-.25-.94-.413-1.275-.553-.672-.28-1.152-.471-2.437-1.093.2-.1-1.724-1.166-4.369-2.342l-4.243-1.922c-1.461-.624-2.911-1.192-4.127-1.7l2.291.85c3.676,1.1-2.373-1.17-2.474-1.308l-2.391-.708c.414.115.717.161-.18-.207a19.845,19.845,0,0,0-2.119-.634c-.556-.138-1-.227-1.434-.317a32.3,32.3,0,0,1-3.555-.911c-.083-.1.341-.06.759-.015.654.07,1.293.14-.051-.362a22.018,22.018,0,0,0-2.394-1.143,48.176,48.176,0,0,0-5.535-1.714c-.364-.029-1.627-.354-3.085-.744.2.048.458.115.553.128-1.046-.394-2.118-.7-3.177-1.056,2.859.356,5.507,1.7,8.353,2.164l.321-.228c2.156.584,5.066,1.422,6.443,1.7-1.611-.552-2.593-.864-3.627-1.179-1.045-.281-2.137-.573-3.976-1.069-.457-.336,2.16.274,2.539.362l-.6.01c2.153.728,3.77,1.236,5.554,1.7.538.144,1.094.292,1.679.451l-1.337-.507-3.134-1.118,1.274.241c1.787.507,3.553,1.07,5.329,1.633l1.614.67a28.9,28.9,0,0,1,4.541,1.857c.984.351,1.959.718,2.924,1.1,1.268.524,2.536,1.037,3.814,1.51-.091-.058-.173-.112-.245-.159-.924-.469-1.832-.963-2.752-1.4-3.261-1.313-6.578-2.477-9.9-3.579-2.072-.833-3.542-1.5-4.891-2.111l-.857-.4a4.936,4.936,0,0,1-.694-.283l.264.083c-.379-.176-.768-.355-1.162-.535-.689-.154-1.383-.3-2.075-.452l-3.476-.745,2.977.882c-.966-.184-2.99-.782-5.352-1.507-2.368-.692-5.1-1.43-7.421-2.059a20.647,20.647,0,0,1,2.595.474c-.474-.123-.945-.253-1.422-.369l-.474-.2c-.449-.1-.938-.219-1.451-.348.143.059.287.115.43.176-1.9-.517-3.8-1.028-5.713-1.485l.135.019c-1.1-.289-2.017-.55-2.539-.731.212.046.411.087.61.128-.524-.13-.94-.242-1.27-.338a9,9,0,0,1-1.476-.542,8.028,8.028,0,0,0-1.506-.49c-.839-.215-2.189-.491-4.556-.86-3.015-.177-6.172-.745-11.965-1.607,4.211.475.469-.217,2.081-.217a36.613,36.613,0,0,0-4.767-.573c-1.189-.061-2.122-.049-3.246-.077-1.077-.3-1.843-.558,2-.136.527-.4-5.073-.428-5.389-.869a59.457,59.457,0,0,0-11.812.1l-2.232.181c-.8.059-1.685.1-2.708.156l-2.433.09c-.449.053-.9.1-1.349.159,3.356-.04,6.269-.49,6.675-.217a15.261,15.261,0,0,0-2.465.233c1.709.035,2.581,0,3.387-.029.708-.028,1.366-.057,2.5-.039-3.2.111-7.9.265-12.605.849a105.549,105.549,0,0,0-12.657,2.308c-1.013.291.844-.352,1.02-.431-1.337.3-2.4.537-3.566.776-1.151.277-2.391.573-4.033,1.106-.991.425-.585.35.269.112l3-.8c-.169.272-1,.471-2.8,1.009a35.1,35.1,0,0,0-5.441,1.5c-1.359.427-2.754.944-3.976,1.337-1.21.432-2.235.775-2.838.918-4.659,1.972-4.189,2.029-3.735,1.985.462-.026.924-.125-3.565,1.88l-2.791.991c-2.989,1.665-6.433,3.719-9.858,5.878-.251.2-.515.4-.81.617l.643-.511q-.918.579-1.831,1.169c-1.109.9-2.207,1.838-3.21,2.622l-.046-.16c-.958.782-1.884,1.6-2.826,2.4a18.687,18.687,0,0,1,2.425-2.143c1.018-.752,2.2-1.585,3.442-2.577h-.011q-1.653,1.069-3.242,2.141a1.066,1.066,0,0,0-.129.2l-2.167,1.411-.881.864c-1.129.738-.842.225.4-.974-.792.553-1.541,1.108-2.263,1.659a18.976,18.976,0,0,0-2.318,3.685c-1.685,1.584-3.593,3.511-5.436,5.411,2.182-1.963,4.175-3.617,6.045-5.108,2.179-1.748,4.224-3.242,6.29-4.691q-3.777,2.667-7.374,5.568-2.632,2.137-5.138,4.415c-1.852,1.911-3.629,3.781-5.037,5.23l.159-.359c-.683.728-1.322,1.443-1.913,2.125-.565.7-1.083,1.368-1.545,1.981-.771.8-.543.4-.3-.012.218-.367.446-.733-.027-.221-1.41,1.758-2.689,3.616-4.018,5.429a18.038,18.038,0,0,1,1.972-2.953c.527-.738,1.145-1.495,1.727-2.209l.95-1.167-2.268,2.483c.993-1.268,1.948-2.579,2.992-3.816l-.611.913a40.356,40.356,0,0,0,2.967-3.164l-.036.117q.319-.383.633-.755a21.3,21.3,0,0,1,3.181-3.223c.5-.584.019.035-.14.326-.079.146-.079.211.165,0s.724-.687,1.651-1.592a16.25,16.25,0,0,0,3.327-3.694,13.981,13.981,0,0,0-1.917,1.567c-.839.76-1.522,1.354-.908.612-.95.97-1.594,1.663-2.288,2.441s-1.457,1.619-2.7,2.831c.913-.984,1.936-2.195,2.879-3.27a21.089,21.089,0,0,1,2.45-2.376c.879-1,1.523-1.7,1.91-2.222s.545-.825.53-.961a.083.083,0,0,0-.037-.057c-.672.522-1.3.99-1.887,1.385-1.153,1.337-5.7,6.025-1.331,2-2.074,2.367-5.934,6.6-8.436,9.843l.075-.181-1.589,1.983c-.533.658-1.059,1.321-1.557,2.006a13.951,13.951,0,0,0,1.2-1.989c-.269.357-.523.723-.777,1.088-.154.232-.28.41-.383.545-.286.419-.569.84-.857,1.26-.082.118-.162.238-.243.357a11.368,11.368,0,0,1-1.23,1.841c-.136.208-.275.413-.408.624.1-.162.187-.3.258-.421l-.306.409-.065-.181c-.8,1.052-2.09,2.844-2.67,3.59a.352.352,0,0,1-.013.041l.374-.467c-.119.169-.266.377-.418.595-.33.883-1.436,2.827.03.853a15.023,15.023,0,0,0,1.293-1.9,11.975,11.975,0,0,1,1.107-1.791c-.626,1.111-1.3,2.187-1.881,3.321l-.209.25-1.012,2.067a10.657,10.657,0,0,1-1.137,1.558c-.125.081-.067-.161-.024-.362.084-.4.108-.619-1.5,2.277l.8-.518c-2.059,3.221-4.243,7-6.13,10.618-.9,1.828-1.812,3.582-2.489,5.245l-.992,2.352c-.287.744-.52,1.449-.736,2.086.294-1.472.173-2.234-.752-.384.216-.544.485-1.224.787-1.989.321-.756.678-1.6,1.046-2.465.7-1.755,1.589-3.567,2.27-5.1a66.327,66.327,0,0,1-2.8,7.323,7.171,7.171,0,0,0,1.056-1.919c.368-.869.737-1.908,1.158-2.88.8-1.963,1.544-3.777,1.973-3.8,2.192-4.076,2.981-5.613,3.6-7.051a21.7,21.7,0,0,1,1.177-2.264,34.829,34.829,0,0,1,2.4-3.613c-.134-.176.439-1.025.818-1.7-.179.255-.365.517-.53.757-.353.515-.649.906-.693.834a20.619,20.619,0,0,1,1.372-1.876,1.313,1.313,0,0,0,.16-.462,16.553,16.553,0,0,0-1.687,2.152c-.333.489-.712,1.019-1.071,1.607l-1.116,1.857c-.382.646-.773,1.31-1.169,1.978-.373.68-.746,1.363-1.114,2.036s-.742,1.324-1.1,1.953c-.337.639-.66,1.248-.976,1.808a16.785,16.785,0,0,0,.675-1.581c-.4.73-.741,1.363-1.043,1.938l.213-.156c-.682,1.362-1.158,2.231-1.519,2.806-.331.763-.64,1.517-1.009,2.4l.17-.278a15.4,15.4,0,0,1-1.391,3.093,6.78,6.78,0,0,0-1.1,1.725l-.424,1.075c-.164.45-.348.952-.514,1.409-.326.915-.561,1.648-.353,1.409-.111.241-.216.485-.322.729a14.48,14.48,0,0,1-.415,1.527c-.817,2.511-1.516,5.058-2.122,7.623l.147.1.928-3.191c.145-.534.316-1.061.5-1.585l.533-1.575a8.832,8.832,0,0,0-.488,2.146,13.685,13.685,0,0,1-.5,2.392c.38-2.032.147-1.343-.227-.1a29.88,29.88,0,0,1-1.055,3.2l-.424,2.69.072-.695c-.641,2.047-.405,2.507-.876,4.946.561-2.506,1.1-4.213,1.673-7.057q-.088.523-.187,1.089c-.16.893-.332,1.846-.5,2.756-.264,1.829-.488,3.484-.6,4.132-.175,1.408-.3,2.6-.506,3.769-.09.584-.211,1.16-.283,1.759s-.133,1.218-.19,1.878c.108-2.285-.094-2.181-.255-2.288-.1,1.35-.177,2.7-.213,4.05a9.273,9.273,0,0,1,.017,1.183c-.022-.212-.026-.424-.04-.638-.011.328-.008.658-.011.986.064,1.023.145,1.863.309,1.422l-.317,1.43v.1c.012,1.312.1,2.623.145,3.935a11.52,11.52,0,0,1-.118,3.013c-.042.328-.138.895.271,4.421.239.208.155-.606.225-1.708l.336,2.625c.11.874.286,1.742.425,2.614l-.177-.347.419,2.134c.149.709.333,1.413.5,2.119.017.637-.131.3-.345-.431-.107-.37-.23-.839-.355-1.337-.1-.5-.215-1.034-.317-1.524-.4-1.957-.685-3.251-.212.741a78.362,78.362,0,0,1-1.653-12.825c-.082-.98-.191-1.969-.219-3.04-.033-1.243-.058-2.6-.072-4.169l.258-1.191c.083-2.123.239-4.271.456-6.452l-.12.88c-.109.915-.278,1.824-.33,2.743l.014-.518a28.882,28.882,0,0,0-.413,4.189c-.038.845-.01,1.746-.032,2.671-.006.926-.066,1.878-.091,2.831l0,.032c.051.3.084.1.111-.248s.095-.895.133-1.211a14.76,14.76,0,0,1-.023,2.127c-.053.181-.144-.07-.216-.626.137,1.414.189,4.664.513,7.015.236,2.4.547,3.866.534,1.6a30.867,30.867,0,0,0,.6,4.893c.326,1.6.8,3.214,1.184,5.024l-.7-4.559c1.286,4.8.9,4.009,2.049,6.907-.18-.852-.34-1.67-.457-2.488-.175-1.129-.389-2.243-.568-3.442a116.505,116.505,0,0,0,5.673,20.353c.2.453.4.9.6,1.337.4.863.754,1.7,1.18,2.439.808,1.5,1.526,2.77,2.1,3.679,1.239,2.262,1.884,3.615,2.65,5.2.406.782.893,1.595,1.511,2.6.31.5.659,1.051,1.06,1.659.2.3.414.625.642.963l.782,1.032c.344.437.4.4.451.356.1-.071.2-.141,1.919,2.407a5.433,5.433,0,0,1-.595-.643c-.652-.731-1.343-1.463.761,1.425a64.616,64.616,0,0,1,4.13,5.1c.762.926,1.557,1.873,2.374,2.817.41.471.827.94,1.25,1.4a17,17,0,0,0,1.327,1.335c1.725,2,4.934,5.28,4.078,4.785-1.451-1.515-3.18-3.364-4.671-4.874-1.439-1.554-2.578-2.825-2.936-3.113.194.12-.02-.188-.247-.5-.371-.506-.774-1.012.55.375-2.02-2.432-2.641-3.242-3.278-3.94-.314-.351-.619-.686-1.057-1.217-.214-.269-.468-.583-.775-.968s-.669-.847-1.057-1.441c-.152-.129.176.532.725,1.283a23,23,0,0,0,1.64,2.106c-.075.067-.557-.439-1.2-1.172-.316-.37-.675-.792-1.045-1.224-.353-.444-.7-.914-1.027-1.344-1.314-1.729-2.275-2.948-.994-.754a40.832,40.832,0,0,0,4.442,5.269c.652.675,1.231,1.374,1.918,2.109a34.236,34.236,0,0,1,2.167,2.654c-.787-.717-1.687-1.731-2.652-2.786a36.348,36.348,0,0,0-2.9-3.152c.863,1.162,1.7,2.342,2.588,3.493l2.3,2.188-.167-.1a31.184,31.184,0,0,0,5,5.3c.641.544,1.276,1.058,2.056,1.735.807.651,1.773,1.452,3.043,2.6-1.424-1.573-1-1.429-.608-1.284.345.126.669.251-.276-.766,1.67,1.554,3.073,2.945,4.082,3.934s1.58,1.622,1.457,1.783c-1.668-1.347-2.525-2.041-2.972-2.4s-.521-.338-.575-.309c-.11.054-.163.175-3.168-2.432.3.36.158.348.006.335-.272-.022-.574-.044,1.608,2.089,2.031,1.751,1.8,1.41,1.551,1.087-.122-.163-.249-.323-.1-.217s.554.5,1.587,1.347c.213.235.434.478.254.4,1.977,1.468,2.1,1.953,4.471,3.744l-.579-.4c2.642,2.549,3.271,2.332,5.537,4.54-.4-.515.053-.228.8.324s1.852,1.307,2.685,1.827c-1.239-1.008-2.154-1.837-3.317-2.965s-2.685-2.43-5.082-4.451c-.721-.322-.462.08-2.472-1.543,1.034.89,2.044,1.8,3.091,2.671-.705-.529-1.231-.944-1.87-1.437l.059.057-.392-.316.322.249-2.853-2.683c3.838,3.167,2.3,1.469,4.036,2.68.821.781,1.453,1.278,1.922,1.665s.8.641,1.089.863c.575.444.99.751,2.071,1.685-.217.04,1.363,1.57,3.614,3.388,1.118.918,2.372,1.944,3.6,2.951,1.251.978,2.5,1.9,3.546,2.7L225-326.5c-3.262-2.015,1.988,1.742,2.051,1.9l2.124,1.3c-.369-.216-.646-.337.124.25a19.626,19.626,0,0,0,1.882,1.157c.5.276.9.476,1.3.675a32.726,32.726,0,0,1,3.2,1.8c.052.122-.343-.028-.734-.178-.617-.237-1.223-.474-.052.36a21.725,21.725,0,0,0,2.018,1.72,47.8,47.8,0,0,0,4.9,3.082c.342.123,1.479.762,2.786,1.516-.184-.1-.414-.229-.5-.266.909.649,1.864,1.223,2.8,1.839-2.67-1.081-4.88-3.059-7.507-4.243l-.37.138c-1.929-1.121-4.524-2.681-5.783-3.305,1.412.949,2.28,1.5,3.2,2.074L240-314.625c.355.443-2.017-.822-2.357-1l.579.145c-1.89-1.258-3.323-2.165-4.923-3.071-.8-.458-1.627-.931-2.553-1.485l-1.467-.9c-.509-.338-1.045-.714-1.62-1.124-.693-.5-.252-.219-.064-.16-1.955-1.2-3.815-2.5-5.629-3.83-1.788-1.369-3.568-2.718-5.467-3.9l1.259.746c-.619-.438-1.415-.944-2.277-1.584s-1.842-1.358-2.89-2.131-2.189-1.582-3.32-2.472l-3.449-2.753-.118.056a13.13,13.13,0,0,1-2.077-1.83l.007,0c-1.128-.981-2.23-1.942-3.274-2.852-.874-.761-1.7-1.483-2.441-2.184.339.4.641.74.843.968-.538-.594-.882-.956-1.1-1.165.194.243.4.5.642.777.314.354.678.72,1.068,1.11.774.548,4.648,4.425,4.323,3.669.875.915,2.132,1.986,3.322,3s2.313,1.986,3.009,2.6c-2.477-2.3,2.015,1.263,2.588,1.493.747.875,3.884,3.144,3.388,3.059.246.228-.061-.053-.577-.493a15.831,15.831,0,0,0-1.827-1.455c-1.451-1.018-.23.047.908,1.044.563.507,1.123.974,1.316,1.153s0,.111-.907-.528c1.137.825,2.364,1.713,3.64,2.635s2.561,1.927,3.916,2.843L226.5-321.5l1.955,1.3c.648.409,1.294.788,1.916,1.159-.883-.62-1.773-1.227-2.626-1.888,1.024.778,2.866,1.91,4.444,2.962s2.948,1.942,3.1,2.121c-1.617-1.013-3.489-2.231-5.565-3.517-.269.191,4.925,3.2,5.049,3.5,1.03.588,2.1,1.111,3.151,1.653l3.166,1.617-2.648-1.619c.885.426,2.686,1.525,4.778,2.833,2.11,1.28,4.553,2.7,6.634,3.9a35.307,35.307,0,0,1-4.707-2.437l-1.407-.821-1.466-.9c-1-.616-2.059-1.247-3.164-1.865-1.627-.889-1.18-.5-.719-.112s.926.769-.584-.084a30.529,30.529,0,0,0,3.694,2.209l1.137.777c-1.428-.641-3.628-1.883-5.989-3.231-1.19-.658-2.376-1.416-3.542-2.116s-2.291-1.369-3.315-1.935a6.012,6.012,0,0,0,.821.38q-1.1-.778-2.213-1.537-1.1-.78-2.2-1.561c-1.469-1.032-2.944-2.033-4.407-2.994a26.229,26.229,0,0,0,2.983,2.081c.055.151-2.676-1.7-3.758-2.341,2.6,1.96.365.531,2.016,1.765-.892-.577-1.7-1.1-2.518-1.707l-2.686-2.072c-.565-.53-.15-.284.286-.038.324.184.659.366.615.232a29.124,29.124,0,0,1-2.672-2.142c-.424-.368-.89-.747-1.436-1.189s-1.17-.952-1.962-1.525c3.968,3.337-1.314-.541-2.786-1.578l.667.561a18.008,18.008,0,0,1-1.609-1.1c.205.22.417.444.634.677.457.484.943.991,1.47,1.52s1.127,1.043,1.761,1.592c.214.279.26.386.211.391l.354.324c-.166-.13-.328-.256-.5-.389a7.141,7.141,0,0,1-.564-.441c-1.472-1.144-2.63-2.078-.86-.225-.758-.659-1.531-1.452-2.315-2.207s-1.549-1.508-2.2-2.191c-1.315-1.346-2.3-2.28-2.345-2.1a36.8,36.8,0,0,0,2.486,2.958c-1.053-1.09-1.939-1.961-2.716-2.737l-2.1-2.152c-.674-.668-1.3-1.363-2-2.153-.426-.487-.9-1.012-1.395-1.6-.447-.475-.955-.963-1.474-1.44l-2.012-1.923.573.48c-.307-.361-.687-.783-1.1-1.236.21.309.448.657.674.984.8,1.111,1.369,1.972-.41.057a50.381,50.381,0,0,0,3.278,4.1,10.7,10.7,0,0,0,1.749,1.708c-2.136-2.6-.75-.916-2.495-3.148.655.7,1.742,1.846,2.754,3.04s2.067,2.332,2.62,3.052c-.4-.448-.413-.444-.452-.44a.125.125,0,0,1-.082-.025,10.4,10.4,0,0,0,1.964,2.035,7.619,7.619,0,0,1,1.537,1.285c.413.883,4.506,4.539,6.4,6.386,1.025.771,2.1,1.482,3.145,2.223-.879-.591-.2.026.75.85a23.2,23.2,0,0,1,2.37,2.088c2.281,1.556,4.3,2.7,7.7,5.113-1.512-.851,3.073,2.265,3.016,2.5a49.743,49.743,0,0,0,4.269,2.588c.69.363,1.362.716,2.023,1.065l2,.955c2.638,1.27,5.277,2.4,8.28,4-.214-.038-1.527-.472.248.428,1.465.566,3.965,1.7,5.539,2.282l-.052-.013.076.023-.026-.01,1.311.362c.066.051.031.052.019.064l-1.283-.41a4.587,4.587,0,0,0,1.283.41l9.64,2.654a13.3,13.3,0,0,0-2.786-1.1c-1.411-.488-3.039-.982-4.012-1.317l-1.761-.362c-1.429-1-4.74-1.808-5.86-2.481.82.227,1.987.644,3.383,1.126.691.251,1.441.522,2.226.806l2.455.859c3.38,1.154,7.079,2.328,9.919,2.962-3.3-1.341-10.587-3.763-16.736-6.4.872.457,1.77.861,2.659,1.287-1.086-.435-2.171-.871-3.236-1.349.99.556,2,1.075,3.014,1.591-2.894-1.209-5.407-2.287-7.954-3.5,2.817,1.365,3.72,2.149,2.021,1.3-3.443-1.909-3.771-1.6-6.454-2.971,1.483.778,3.425,1.763,2.1,1.275L235.893-311c-1.553-.937-3.061-1.821-5.238-3.411.157.377-1.286-.486-2.833-1.53a29.47,29.47,0,0,0-3.67-2.288l2.023,1.47-2.253-1.409-1.128-.707-1.107-.74c-1.7-1.5-1.041-1.127-.41-.751.735.436,1.435.874-1.668-1.655-1.326-1.085-2.345-1.849-3.163-2.48s-1.451-1.106-2.057-1.542-1.179-.842-1.838-1.383-1.436-1.174-2.434-2.087c.747.507,1.964,1.423,3.383,2.589,1.463,1.115,3.11,2.5,4.823,3.84-.651-.59-1.326-1.15-1.955-1.763.569.4,2.051,1.509,3.651,2.789,1.643,1.221,3.421,2.6,4.658,3.447-2.12-1.295-1.661-.942-.458-.075l2.13,1.541c.758.525,1.474,1.036,1.91,1.4.159,0-.012-.178-.206-.357-.41-.374-.927-.749,1.276.529-2.711-1.782-3.311-2.139-6.179-4.321.653.483,1.26.895,1.809,1.268.76.508,1.41.951,2.017,1.3,1.211.706,2.146,1.185,3.046,1.646a72.411,72.411,0,0,1,7.09,3.86c-1.713-.9-1.464-.658-.754-.128s1.928,1.276,2.1,1.451l1.473.762,1.789.861,1.742.827,1.368.588-1.076-.939c1.125.482,2.043.935,2.869,1.376l2.353,1.25a27.136,27.136,0,0,0,2.524,1.229,29.245,29.245,0,0,0,3.4,1.234c.388.013-.78-.417-1.9-.881s-2.219-.866-1.74-.7c.909.335,1.74.654,2.512.961l2.174.837,3.722,1.518c2.337.98,4.584,1.924,7.871,3.021a6.013,6.013,0,0,1,2.784.154c-.793.032.906.608-1.77.076a57.031,57.031,0,0,0,6.928,1.556c-2.164-.565-1.885-.59-.885-.428-.226-.092-.465-.185-.729-.289.68.222-.744-.627-2.478-1.382-.742-.369-1.276-.643-1.713-.848,6.679,2.985,1.756.061,8.38,3.049.135.017.245.029.317.034,1.215.27,1.02.281.326.214l-.133-.017.712.327c-.393-.175-.644-.277-.824-.34-.145-.019-.3-.043-.469-.067.262.131.621.308,1.048.514l.014,0a7.937,7.937,0,0,0,2.419.337,5.025,5.025,0,0,1-1.795-.039c.292.138.6.28.919.423l.3.127c.326.018.565.023.773.026a23.972,23.972,0,0,1,2.778,0l-1.338-.218c-.627-.18,1.724.163,2.228.228-.745-.035-.212.082.325.2.48.1.965.207.542.2l3.313.34,3.318.272-1.293.1c-1.858-.028-3.711-.117-5.57-.2,2.216.271,3.81.538,5.272.778,1.458.267,2.783.5,4.445.759.316-.064.629-.12.944-.191,3.867.39,7.534.667,5.019.878a5.481,5.481,0,0,0-1.492-.185,2.474,2.474,0,0,1-.559.047l-.2.032c4.173.227,6.78.245,7.021.252-7.106.078-.381.5-1.589.951,1.2.03,2.4.061,3.6.058S310.831-290.813,312.031-290.838Zm-35.685-1.55.366.07-2.546-.585C274.5-292.807,275.145-292.649,276.347-292.388Zm6.292-2.042q1.664.122,3.329.225l-1.735-.231c-.674-.048-1.311-.086-2-.158C282.367-294.538,282.5-294.482,282.638-294.429Zm-1.845-.142c.139.013.28.022.422.033a1.827,1.827,0,0,0-.363-.235,32.771,32.771,0,0,1-3.659-.833c1.219.194,2.087.307,2.735.377-.414-.191-.895-.4-1.394-.592l-.328-.039c-.931-.13-1.979-.292-3.024-.465s-2.074-.4-2.983-.6l2.433.625a32.256,32.256,0,0,1-4.43-1.038c2.313.807,2.043.919,1.44.969-.3-.11.189-.015-.1-.121-1.938-.561-3.444-.9-3.028-.653-1.838-.161,2.642.952,3.944,1.4,1.013.216,2.019.457,3.018.638,1.727.212,3.456.384,5.185.531l-.606-.233C280.369-294.7,280.61-294.626,280.794-294.572Zm109.322-9.645c-.906.685-1.791,1.236-2.611,1.793s-1.626,1.032-2.428,1.5c-1.581.977-3.208,1.8-5.07,2.844l3.34-1.551,2.47-1.252,1.021-.507c.315-.172.616-.333.9-.49l1.661-.879a56.676,56.676,0,0,0,8.9-5.937c-.344.294-.992.84-1.806,1.464l-2.726,2.025c-1.083.754-2.117,1.492-2.837,2.04,1.742-1.083,3.445-2.187,5-3.257.62-.523,1.758-1.395,3.016-2.427,1.059-.816,2.158-1.785,3.184-2.67.773-.651,1.465-1.3,2.032-1.853-1.094,1.106-2.23,2.174-3.371,3.244l.975-.734c-.26.263-.622.614-1.064,1.009.69-.5,1.4-1.013,2.111-1.545l-.068-.2c.813-.621,1.569-1.3,2.352-1.961s1.566-1.312,2.306-2.01c-.608.252,1.7-1.878,2.545-2.858-4.153,3.867-4.042,3.434-3.884,3.1.076-.168.149-.326-.337.037-.242.181-.624.493-1.217,1s-1.37,1.229-2.5,2.131a10.378,10.378,0,0,1-2.042,1.887c.224-.208.336-.351.294-.358a7.551,7.551,0,0,0-1.4.952l-1.6,1.513c-1.657.947-.626.061.625-.959l-.154.107a7.432,7.432,0,0,1-2.072,1.227c1.8-1.618.813-.373,3.378-2.27l.139-.117c-.861.506-1.385.7-1.315.52a.4.4,0,0,1,.055-.091c-.4.3-.844.626-1.338.973-.249.115-.492.238-.746.346-.269.2-.508.385-.721.556l.594-.379c-.505.379-1.006.765-1.508,1.152-.737.666-1.078,1.093-1.832,1.691h-.007A9.468,9.468,0,0,0,390.116-304.217Zm.67,1.719c-.9.583-1.628,1.107-2.512,1.738,1.122-.607,2.048-1.122,2.858-1.617s1.5-.974,2.187-1.44,1.35-.953,2.1-1.485,1.58-1.1,2.551-1.807c-.243.307.328,0,2.168-1.244.121-.194.233-.4.349-.6a5.3,5.3,0,0,0,.822-.521l1.7-1.292,1.663-1.342c1.12-.883,2.193-1.819,3.268-2.753-1.48,1.054-1.674.954-3.421,2.29.362-.176.18.029-.312.447s-1.283,1.06-2.184,1.695c1.267-1.122-1.078.584-1.725.931-.338.292-.71.6-1.113.909-.289.229-.589.464-.9.7-.1.1-.248.224-.44.379-.57.473-1.531,1.143-2.62,1.87-1.074.747-2.3,1.512-3.386,2.2-1.076.7-2.04,1.278-2.587,1.66,1.7-.921,3.342-1.937,5-2.935C392.727-303.776,391.668-303.113,390.786-302.5Zm16.186-15.729c-.666.606-1.233,1.136-1.722,1.614-.5.463-.938.867-1.315,1.241-.762.743-1.31,1.364-1.893,1.968-.558.557-1.117,1.137-1.88,1.823l.021.242,2.039-1.819c.973-.9,1.928-1.824,2.754-2.619,1.429-1.425,2.387-2.515,2.159-2.515A.416.416,0,0,0,406.972-318.227Zm2.773.414c-.869.929-1.847,1.94-2.963,3.046l-1.836,1.677-.194.172.9-.71,2.44-2.071c.745-.639,1.375-1.252,1.908-1.74l.876-.429c3.165-2.774,6.131-6.081,8.076-8.155l-.5.756a135.71,135.71,0,0,0,9.036-11.306c.284-.485.575-.988.875-1.5.28-.522.567-1.054.854-1.592s.584-1.078.874-1.618.545-1.1.816-1.648c.537-1.089,1.062-2.153,1.486-3.184.326-.776.654-1.5.925-2.186-.175.317-.353.634-.527.949-.631,1.145-1.322,2.239-1.957,3.321s-1.289,2.109-1.92,3.071-1.2,1.886-1.778,2.7c-1.155,1.627-2.1,2.964-2.791,3.787.728-1.595-1.161.627-3.474,3.293-2.32,2.642-5.192,5.618-6.023,6.02.367-.157-1.889,2.368-2.171,2.8.353-.3.592-.483.592-.483-.543.526-.694.636-.6.487a18.814,18.814,0,0,0-2.366,2.406c.651-.606.906-.772.99-.754.573-.534,1.1-1.02,1.575-1.475q-.78.743-1.572,1.475c.083.021-.008.232-.04.36s0,.171.333-.139a25.98,25.98,0,0,0,2.079-2.295A49.679,49.679,0,0,1,409.746-317.813Zm5.839-11.71a87.416,87.416,0,0,1-8.164,9.169l-.479.062c-1.225,1.187-2.539,2.559-4.015,3.868a25.98,25.98,0,0,0,4.722-3.217,75.174,75.174,0,0,0,9.329-9.665l-.645.813c4.622-4.827,7.668-10.433,12.329-17.009-.916,1.739-1.409,2.526-1.867,3.4-.475.863-.894,1.82-1.941,3.741.781-1.174,1.507-2.383,2.231-3.59-.176.585.281-.024,1-1.1s1.623-2.671,2.455-3.978l-1.086,2.549c-.533.768-1.488,2.145-2.3,3.318-.4.587-.759,1.128-1.01,1.518-.166.248-.279.422-.334.518-.121.089-1.023,1.174-2.163,2.617-.685.882-1.522,1.848-2.291,2.829s-1.529,1.937-2.153,2.73c.547-.094,5.583-6.994,3.659-3.671.955-1.389,1.485-2.169,2.083-2.929a31.317,31.317,0,0,0,2.137-3.03c-.438.759-.663,1.178-.778,1.429a94.429,94.429,0,0,0,6-10.887c.735-1.568,1.411-3.163,2.055-4.77-.244.477-.475.927-.683,1.329.057-.177.095-.326.217-.629-.471.931-.834,1.64-1.123,2.178s-.522.895-.684,1.15c-.324.507-.423.571-.522.629s-.192.11-.51.591-.84,1.4-1.894,3.142c-.09.167-.148.275-.231.432l.491-1.408c-.869,1.343-1.683,2.72-2.6,4.033,1.016-1.529,1.932-3.121,2.9-4.679.528-.84.5-.679.48-.518s-.045.342.616-.695c1.232-2.319,2.819-5.384.755-2.1.145-.283.386-.671.658-1.141l.916-1.588a39.289,39.289,0,0,0,1.873-3.5c-.109.393.264-.183.787-1.09.43-1.241.842-2.489,1.217-3.749a9.007,9.007,0,0,1,.291-1.148c-.034.212-.086.418-.127.628.113-.379.214-.762.318-1.142-.443.961-.932,1.971-1.438,3.048-.476.914-.971,1.868-1.483,2.852l-.786,1.5-.85,1.514c-.582,1.018-1.135,2.079-1.761,3.121l-1.858,3.184c-1.129,1.842-2.239,3.722-3.369,5.569,1.153-1.922.449-.983-.235-.042-.793,1.088-1.559,2.177.619-1.181a30.961,30.961,0,0,0-2.831,4.27c-.294.523-.583,1.056-1,1.741a25.465,25.465,0,0,1-1.84,2.631c-.2.151.269-.454.854-1.244a19.2,19.2,0,0,0,1.506-2.406C420.307-335.762,417.964-332.612,415.584-329.523Zm-207.552-4.218.48.4c.382.3.727.564,1.006.781.561.428.869.626.707.348l-1.663-1.327c-.554-.466-1.123-.95-1.743-1.45l1.19.835-4.18-3.653c.295.329.588.655.866.968,1.652,1.808,2.988,3.077,2.435,2.125C207.425-334.411,207.725-334.082,208.032-333.741Zm-8.06-6.7c.845.888,1.735,1.857,2.511,2.576,1.525,1.461,2.353,2.131.591-.029-.92-.777-1.8-1.6-2.678-2.42-.25-.159-.491-.3-.707-.427Zm225.877,2.636c-.054.1-.111.2-.181.316.107-.151.207-.306.315-.457C425.94-337.9,425.895-337.856,425.85-337.807Zm6.176-9.842c-.351.727-.775,1.579-1.262,2.5-1.275,2.293-2.9,5-4.408,7.225a9.448,9.448,0,0,0,.911-1.021c.577-1.015,1.788-2.774,2.779-4.345a14.405,14.405,0,0,0,1.677-3.068l.156-.073a13.493,13.493,0,0,0,1.5-2.893,26.059,26.059,0,0,1,1.867-3.53c-.119-.135-.654.729-1.58,2.4-.373.715-.544,1.152-.827,1.773a24.376,24.376,0,0,1-1.524,2.856c-.5.571.038-.277.5-1.049.3-.521.561-1.01.477-1.01C432.256-347.888,432.174-347.817,432.025-347.649Zm-230.708,8.087a.945.945,0,0,0-.126-.239l-.326-.214C201.048-339.826,201.211-339.659,201.317-339.562Zm-8.51-9.034.4.527c.384.3.563.386.34.092-.24-.289-.846-1.018-2.008-2.351Zm242.257-7.616c-.271.73-.561,1.43-.808,2.1-.26.691-.5,1.334-.712,1.9-.156.388-.291.74-.4,1.051.122-.2.241-.4.361-.6.3-.595.586-1.193.851-1.8-.063.232-.138.46-.208.689.426-.758.835-1.537,1.2-2.36-.131.188-.283.431-.371.54.224-.528.422-1,.6-1.439-.1-.173-.307-.11.955-2.476a18.766,18.766,0,0,0,.557-1.821C436.527-359.187,435.785-357.652,435.065-356.212Zm2.332-6.69c-.209.618-.442,1.307-.687,2.033-.12.364-.242.74-.365,1.118-.044.117-.087.24-.132.359l.046-.083c.377-.651.75-1.378,1.06-2.009.176-.808.4-1.742.961-4.079C438.092-365.117,437.811-364.14,437.4-362.9Zm1.687-3.312c-.571,2.2-1.218,4.385-1.949,6.576.156-.249.318-.522.486-.825.294-.545.613-1.167.952-1.842.2-.413.413-.848.631-1.292.214-.858.376-1.653.5-2.333a19.164,19.164,0,0,1-.393,2.114c.093-.189.183-.376.277-.57.057-.248.112-.495.164-.724.135-.593.259-1.115.388-1.545a4.144,4.144,0,0,1,.383-1.014c-.211.918-.418,1.586-.55,2.078-.1.377-.172.646-.215.832.3-.672.592-1.363.891-2.058.041-.1.085-.2.126-.3.494-2.1.853-4.094,1.044-5.48l-.01.039c-.055.18-.11.341-.164.507-.144.655-.212.8-.242.722-.178.51-.348.963-.512,1.375l-.015.078c0-.02.006-.042.01-.061-.012.028-.024.059-.035.087,0,.006,0,.006,0,.006h0C440.288-368.506,439.747-367.568,439.084-366.214ZM440.7-371.4a12.108,12.108,0,0,0-.717,1.374q-.191.9-.4,1.787c-.122.519-.251,1.036-.381,1.553.658-1.592,1.321-3.182,1.893-4.806,0-.145-.03-.228-.089-.228S440.848-371.618,440.7-371.4Zm-.666-6.474c.257.2-.575,2.174-.454,2.658a11.6,11.6,0,0,0,.723-1.582l.278-2.044c.031-.221.05-.445.075-.666C440.487-379.012,440.287-378.473,440.039-377.87Zm-264.378.948.006.012.1.152-.2-.373C175.6-377.062,175.63-376.992,175.661-376.922Zm266.314-7.549a22.061,22.061,0,0,1-.55,2.489c-.056.2-.117.409-.179.631-.088,1.581-.08,2.222.434-1.306-.038.742-.088,1.474-.147,2.2q.166-.578.339-1.179c.2-.723.409-1.465.615-2.213.045-.185.09-.369.136-.556.03-.411.064-.827.1-1.231.142.061.28-.587.43-2.572l-.026-.21c-.084.44-.182.876-.272,1.315l-.111.295.318-1.5.048-.273-.107-.922C442.406-386.939,442.149-385.662,441.976-384.471Zm-1.271,2.316L440.5-380.1c.071-.2.178-.557.337-1.163.008-.07.015-.139.02-.21l.017.075q.054-.206.115-.448l.046-.668Zm4.822.05c-.016.242-.028.489-.047.727-.015.289-.031.568-.045.85.172-.5.315-.891.446-1.275a18.029,18.029,0,0,0,.666-2.381c-.1.484-.176.9-.118.855a22.907,22.907,0,0,0,.961-4.32c.04-.745-.05-1.04.031-1.659.327-2.478-.036-1.269-.5.464-.117.434-.244.9-.365,1.351-.14.444-.277.874-.392,1.241-.229.7-.4,1.153-.457,1.043-.03.477-.06.952-.084,1.422.071-.226.147-.462.237-.737-.055.325-.147.7-.256,1.1-.018.352-.04.7-.058,1.051.122-.522.24-1.038.338-1.534A13.943,13.943,0,0,1,445.526-382.1Zm-273.04-2.231.154.177c-.448-1.262-1.226-3.191-1.768-4.294a1.125,1.125,0,0,0,.017.17q.179.482.358.962c-.083-.193-.2-.462-.31-.733.039.156.1.359.187.632.372,1,.811,1.966,1.237,2.941l.081.094-.11-.315C172.383-384.584,172.434-384.456,172.486-384.335Zm273.226-.934c.6-2.319,1.048-4.674,1.536-7.017.319-1.975.673-3.944.932-5.926-.055-.527-.107-1.076-.156-1.643-.01.1-.02.2-.031.3a27.937,27.937,0,0,1-1.168,6.469c-.083-.148-.15.167-.238.483-.081.293-.179.585-.319.507l-.342,2.138c-.019.833-.028,1.9-.019,3.376a2.932,2.932,0,0,1-.036-.526C445.8-386.5,445.75-385.883,445.711-385.269ZM443.16-388.6c-.007.047-.018.092-.028.138.04.428.086.439.145-.818Zm-.1-1.162c.019.348.04.781.063,1.1l.177-1.014c0-.1.008-.211.013-.329-.013-.229-.018-.481-.027-.729Zm2.815-12.205c-.03.231-.064.471-.1.717l.008.053.156,1.432a6.984,6.984,0,0,0,.374-1.4c.029-.254.076-.673.131-1.149s.089-1.009.131-1.494c.078-.967.115-1.736-.024-1.452.237-1.356.37-2.722.518-4.09-.023-.19-.046-.378-.07-.566l-.211.128c.02-.473.044-.877.071-1.241-.041-.339-.084-.673-.125-1q-.1-.625-.2-1.209l-.02.959c0,.553-.03,1.107-.073,1.66l-.11,1.658a8.76,8.76,0,0,0-.084-2.2,13.5,13.5,0,0,1-.14-2.439c.16,2.061.2,1.336.246.039.007-.193.013-.4.021-.608-.122-.7-.239-1.342-.353-1.9.136.534.256.965.368,1.356a14.629,14.629,0,0,1,.151-2.214l-.287-2.708.11.689a13.182,13.182,0,0,0-.223-3.07c-.056-.25-.113-.5-.175-.754.052,1.986.024,3.638.175,6.071-.031-.352-.068-.72-.1-1.1-.075-.9-.157-1.868-.236-2.79-.217-1.834-.431-3.49-.49-4.145-.063-.442-.122-.858-.18-1.263-.1-.376-.192-.748-.292-1.129-.407-1.476-.831-2.974-1.2-4.46a25.063,25.063,0,0,1-1.709-4.568,22,22,0,0,1,1.4,3.516c.45,1.314.714,2.089.426.231-.431-1.6-1-3.76-1.681-5.642a20.58,20.58,0,0,0-1.765-4.1c1.629,4.585,1.3,4.367,1.027,4.123-.142-.119-.284-.241-.191.231.047.237.157.622.343,1.234s.433,1.455.8,2.6c-.332-.995-.638-1.759-.986-2.674-.376-.907-.8-1.963-1.354-3.546-.832-2.649.09-.457.709.985.315.719.557,1.248.48.877-.038-.186-.156-.6-.387-1.319s-.559-1.763-1.1-3.181l-.943-.825-.733-2.02c-.277-.7-.56-1.413-.838-2.111s-.549-1.38-.8-2.01l-.717-1.675c.723,1.513,1.347,3.035,1.949,4.34s1.117,2.42,1.546,3.149c-.183-.515-.388-1.1-.61-1.722-.244-.618-.5-1.279-.771-1.959-.535-1.362-1.106-2.8-1.684-4.1-1.093-2.628-2.1-4.757-2.054-5.013a111.762,111.762,0,0,0-8.421-13.159c-2.954-4.018-6.146-7.96-10.075-12.578-3.059-3.762-2.431-3.648-1-2.238-.127-.152-.237-.284-.354-.42-.256-.235-.525-.479-.816-.737l-.869-.764q-.483-.377-1.024-.8c-.446-.334-.488-.283-.532-.232s-.109.123-.873-.481c.459.5.881.966,1.227,1.375-.411-.463-.87-.974-1.283-1.418-.26-.208-.606-.5-1.047-.873,2.232,2.686,3.142,4.232,7.195,8.781-.749-.946-1.478-1.908-2.266-2.823q2.8,2.966,5.432,6.111c1.505,2.442-2.619-3.137-3.523-3.862,4.152,4.823,6.424,9.649,8.392,11.865-.013.5-.054,1.334,2.07,4.877-.6-1.374-.246-.864.144-.295s.8,1.206.355.049c.774,1.075,1.946,3.61,2.345,4.124l-.191-.2a98.258,98.258,0,0,0,5.784,11.038c.821,1.961,1.543,3.656,2.12,5.225s1.1,2.977,1.544,4.361.883,2.719,1.314,4.127.852,2.9,1.342,4.558a13.265,13.265,0,0,0,.575,4.944c.27.6.787,2.41,1.3,4.148a23.032,23.032,0,0,0,1.141,3.7c-.833-4.9-1.1-3.923-1.831-6.8-.232-2.489.314-.3-.343-3.63.31,1.332,1.062,4.325,1.756,7.368.318,1.527.63,3.063.881,4.405.214,1.349.361,2.5.406,3.256l-.221-1.035c.148,1.186.218,2.139.269,3.022.021.885.019,1.7.054,2.612s.129,1.912.234,3.182c.069.877.193,1.882.351,3.066.148.2.342-.093.565-1.191C446.049-403.514,445.964-402.786,445.87-401.971Zm2.515-2.171c.192,1.115.379,1.75.461,1.437-.3-3.9-.156-2.853.016-1.807.138.836.292,1.672.243-.018a.22.22,0,0,1,.071.106c.026-.436.057-.921.094-1.438.094-1.023.086-2.175.127-3.285.018-1.111.069-2.185-.012-3.066.093-.819.148-1.316.18-1.155a6.937,6.937,0,0,1,.031.772c0,.449.023,1.1-.034,2a2.839,2.839,0,0,0,.188-1.017c.033-.539.051-1.236.059-1.975s.006-1.519.01-2.221-.05-1.327-.052-1.757c-.12-.994-.213-2.691-.351-3.761-.061,1.45-.227.838-.645-2.245l-.075-.174c.087,1.27.225,2.712.222,4.222.015.753.029,1.521.045,2.289,0,.384.019.766.017,1.149s-.017.762-.025,1.138c-.039,1.306-.029,2.558-.062,3.7.025.211.052.436.08.695-.024-.188-.052-.377-.085-.569,0,.132-.006.268-.012.4-.051,1.267-.07,2.359-.036,3.16l-.1-.908C448.626-407.065,448.506-405.6,448.385-404.141Zm-1.838-10.026c.084.284.17.558.256.849.047.158.094.324.144.5a20.852,20.852,0,0,0-.064-2.669l-.307-.108Zm.535-2.5a21.327,21.327,0,0,0-.3-2.215c-.113-.61-.236-1.252-.376-1.918.167,1.482.335,2.987.448,3.981.025-.073.049-.1.072-.1C446.984-416.923,447.039-416.723,447.082-416.671Zm-.98-6.825c.074.307.143.6.2.846.134.595.33,1.4.522,2.109-.006-.05-.01-.1-.017-.148-.091-.731-.218-1.618-.307-2.561-.11-.94-.143-1.941-.241-2.879l.569.606-.353-2.741c-.132-.911-.2-1.834-.391-2.735l.121.5a28.88,28.88,0,0,0-.689-4.152c-.182-.826-.444-1.689-.661-2.589-.235-.9-.423-1.831-.646-2.758-.494-1.288-1.4-4.487-2.34-6.713-.852-2.258-1.533-3.593-.932-1.4a30.8,30.8,0,0,0-1.847-4.572c-.73-1.465-1.612-2.9-2.446-4.549l1.862,4.223c-2.729-4.722-1.766-3.464-4.389-6.972-.1-.447-.481-1.345.073-.646-.228-.4-.443-.813-.691-1.221l-.783-1.237c-.53-.84-1.077-1.706-1.629-2.582s-1.2-1.708-1.8-2.564c-.492-.666-.959-1.341-1.451-1.987.392.674.787,1.357,1.18,2.032,1.747,3.04,3.252,6.022,4.2,7.507-.48-.687-.472-.4-.13.46.17.428.434.992.744,1.654s.663,1.425,1.071,2.222c.388.627-.092-.495-.318-1.137.6,1.4,1.3,2.949,1.941,4.569.336.8.677,1.619,1.016,2.431.322.82.643,1.637.96,2.438s.637,1.581.938,2.333.581,1.481.849,2.162.539,1.312.792,1.885c.236.578.457,1.1.665,1.539-.426-.847-.851-1.691-1.315-2.52.478,1.116.84,2.159,1.2,3.124s.673,1.864.979,2.712c.565,1.712,1.1,3.231,1.687,4.768-.09-.15-.454-1.2-.5-1.025.228,1.156.571,2.35.93,3.544-.023-.252-.049-.506-.087-.761-.088-.6-.186-1.21-.3-1.864.544,2.49.69,2.016.9,2.177.108.081.227.323.394,1.186.083.43.18,1.016.294,1.815.055.4.115.851.184,1.363.05.514.085,1.09.132,1.732a6.213,6.213,0,0,1-.131-1.341,3.924,3.924,0,0,0-.051.671c.011.064.028.13.039.194l-.039-.138C446.058-424.194,446.074-423.861,446.1-423.5Zm-278.817-3.818c.062,1.048.087,1.8.163,4.8.052-.384.075-1.125.122-2.079a18.891,18.891,0,0,1,.039-2.227c.045-.118.076-.113.1-.023.014-.2.026-.4.039-.608.021-.383.043-.776.064-1.176s.071-.8.107-1.211l.022-.279a4.226,4.226,0,0,1-.008-1.087c.03-.439.09-1.029.188-1.831.051-.4.11-.851.175-1.363.03-.183.07-.381.107-.578l.159-1.65c.052-.434.092-.825.121-1.163q-.069.5-.156,1.017c-.137.937-.365,1.912-.514,2.843l-.394-.729-.2,1.479c-.007.687.276-.384.4-.679A33.714,33.714,0,0,0,167.285-427.314Zm-4.447.518c0-.188-.011-.38-.017-.557.048-.734.121-1.464.2-2.193-.129.706-.229,1.08-.219-.124C162.565-425.736,162.66-425.886,162.838-426.8Zm.517-1.132c-.015.153-.03.314-.047.472.055.711.137,1.069.216.743.028-1.215,0-1.707,0-2.324.006-.216.017-.451.035-.734C163.488-429.24,163.427-428.606,163.355-427.928Zm283.029-11.916c.588,2.206,1.216,4.239,1.557,6.147q.29,1.424.548,2.711c.158.859.249,1.68.362,2.446a23.136,23.136,0,0,0-.334-4.167c-.135-.93-.275-1.906-.407-2.812-.181-.9-.35-1.728-.481-2.378l.861,2.22.047,1.494c.333,1.321.724,2.638,1.013,3.976a17.53,17.53,0,0,0-.349-2.92c-.211-1.231-.408-2.6-.626-3.693-.054-.087-.583-1.84-1.2-3.789-.718-1.923-1.473-4.058-1.893-4.958.443,1.542.843,3.1,1.241,4.647-.287-1.029-.79-2.672-1.345-4.405-.856-2.276-1.735-4.735-2.4-6.061-.041,0,.039.3.192.756s.381,1.066.583,1.711a12.008,12.008,0,0,0,1.2,2.863c0,.258-.332-.486-.654-1.23-.476-1.1-.938-2.2-.319-.07-.811-2.04-1.971-4.628-3.016-7.112l-1.628-3.474c-.469-1.084-1-1.984-1.359-2.71l.061-.663c-1.619-3.192-1.58-1.863-3.659-5.55,1.5,2.275,1.4,1.9,1.279,1.531-.106-.339-.222-.678.855.984-.593-1.195.329-.232-1.948-3.741a17.177,17.177,0,0,1-2.34-3.142c-.281-.462-.554-.922-.9-1.416a11.972,11.972,0,0,0-1.413-1.561c-.546-.785-.294-.577-.051-.369.316.273.616.544-.891-1.388l-1.1-1.207c-.322-.34-.62-.607-.866-.842a12.9,12.9,0,0,0-1.076-.926c-.487-.352-.592-.263-.83-.255.75.874,1.364,1.533,1.9,2.075l1.378,1.428a26.762,26.762,0,0,1,2.764,3.135c-.852-.929-1.733-1.831-2.595-2.743l-1.3-1.361c-.446-.441-.91-.865-1.363-1.3.425.544.815,1,1.153,1.412.191.246.371.472.543.682a24.433,24.433,0,0,0-2.356-2.336c-.466-.417-.892-.8-1.288-1.157a53.2,53.2,0,0,1,5.444,6.686l-.5-.344a44.717,44.717,0,0,0,3.073,3.972l-.908-1.274c.326.413.97,1.231,1.129,1.513-.055-.059-.125-.135-.2-.213,1.139,1.494,2.157,3.071,3.011,4.319.421.631.8,1.184,1.062,1.638a5.47,5.47,0,0,1,.471,1.026c-.286-.384-.551-.781-.851-1.155,1.179,1.989,1.812,3.11,2.531,4.352.356.622.67,1.31,1.1,2.147.407.846.942,1.836,1.536,3.164a2.329,2.329,0,0,0-.366-.617A83.492,83.492,0,0,1,446.384-439.844Zm-277.19.8c-.21,1.179-.392,2.362-.556,3.548a25.853,25.853,0,0,0,.537-3.088c.083-.545.168-1.1.249-1.641C169.349-439.829,169.263-439.439,169.194-439.043ZM170.35-453.3c-.149.542-.3,1.1-.457,1.674-.136.577-.274,1.165-.414,1.759s-.282,1.191-.424,1.789c-.008.035-.015.071-.02.106.146-.526.294-1.038.445-1.514.377-1.209.679-2.26.855-3.043l-.144.9c.5-1.385,1.016-2.83,1.529-4.259.248-.717.5-1.432.737-2.133.264-.692.524-1.372.772-2.028a29.737,29.737,0,0,1,2.645-5.7l.271-.8A134.575,134.575,0,0,0,170.35-453.3Zm5.58-12.532c.036-.052.073-.114.108-.162.04.161.184-.117.347-.4s.329-.53.446-.417l1.773-3.955-.29.863c.534-1.1,1.172-2.155,1.754-3.236l.89-1.612.1-.161C178.967-471.669,177.176-468.161,175.93-465.83Zm13.056-20.822c.017.019.106-.055.277-.246l.013-.045A1.8,1.8,0,0,0,188.986-486.652Zm.29-.26c.108-.124.247-.289.424-.513.035-.1.758-1.1,1.27-1.854-.276.267-.762.8-1.514,1.668-.019.059-.033.12-.049.181.09-.1.178-.206.274-.319-.112.149-.212.286-.3.411-.035.132-.072.264-.107.4C189.283-486.942,189.282-486.931,189.276-486.912Zm219.978-2.073c.79.515,1.489.929-1.193-1.236l-.039-.027C408.444-489.824,408.856-489.4,409.254-488.984Zm-3.681-3.653c.26.139.664.4,1.144.72l1.327.913c.456.339.909.7,1.34,1.035.58.449,1.1.848,1.474,1.117-.136-.219-.319-.5-.526-.818a42,42,0,0,0-5.45-3.771c-.317-.192-.623-.39-.931-.591.551.495,1.047.947,1.453,1.312.013.005.029.015.046.021l-.5-.452C405.176-492.965,405.375-492.8,405.573-492.637Zm3.21,3.341c.094.062.2.131.3.2a1.026,1.026,0,0,0-.294-.222C408.784-489.316,408.78-489.31,408.783-489.3Zm-1.624-1.8c.368.276.792.6,1.263,1.02.18.085-.307-.468-1.034-1.052-.273-.228-.574-.473-.871-.7.107.152-.087.007-.434-.291C406.435-491.8,406.8-491.45,407.159-491.1ZM207.14-510.311c-1.109.92-2.149,1.917-3.222,2.879.064.15-.476.756-1,1.339-.509.6-1.006,1.177-.887,1.235-.885.977-1.852,1.819-2.762,2.73a29.9,29.9,0,0,0-2.633,2.911c-.6.962.968-.245-2.088,2.975-.328.291-.727.656-1.158,1.1s-.9.969-1.4,1.534l-1.576,1.809c-.364.445-.729.908-1.1,1.375.368-.373.793-.835,1.232-1.285.484-.486.965-.971,1.34-1.346.755-.742,1.107-1.025.3.052l.911-1c1.324-1.755,4.146-4.942,5.9-6.858-.1.156-.177.291-.372.551.695-.777,1.23-1.369,1.649-1.815s.735-.73.958-.933c.445-.407.558-.444.666-.474s.215-.057.647-.439,1.175-1.14,2.645-2.545l.337-.359-.842,1.233c1.189-1.073,2.333-2.192,3.555-3.225-1.377,1.215-2.675,2.517-4.016,3.77-.73.675-.661.526-.6.377s.13-.317-.775.513c-.656.7-1.384,1.492-1.9,2.079.537-.508,1.1-1.012,1.672-1.536,1.218-1.123,2.606-2.232,4.191-3.48a11.164,11.164,0,0,1-1.287,1.119c-.689.586-1.354,1.172-1.191,1.155a55.888,55.888,0,0,1,4.667-3.755c.029-.029.062-.06.093-.089l-.09.087c.473-.346.955-.693,1.459-1.049.463-.318.94-.651,1.429-.993.119-.119.236-.237.353-.352.419-.43.835-.87,1.42-1.423a25.48,25.48,0,0,1,2.459-2.066c.23-.1-.377.369-1.147.982a19,19,0,0,0-2.079,1.935c3.612-2.945,6.695-5.384,9.8-7.755a87.294,87.294,0,0,1,10.262-6.753l.48.062c1.491-.831,3.116-1.816,4.881-2.7a26.04,26.04,0,0,0-5.4,1.89,75.422,75.422,0,0,0-11.517,6.933l.833-.619c-5.717,3.471-10.113,8.1-16.321,13.253,1.335-1.444,2.017-2.076,2.684-2.8s1.335-1.528,2.844-3.114c-1.059.932-2.074,1.913-3.087,2.893.321-.52-.278-.049-1.251.808s-2.26,2.161-3.4,3.21l1.711-2.182,3.08-2.612c.54-.466,1.028-.895,1.372-1.207.224-.2.378-.335.457-.414.141-.054,1.292-.87,2.769-1.971.889-.674,1.949-1.392,2.947-2.143s1.98-1.477,2.788-2.081a13.929,13.929,0,0,0-2.613,1.684c-1.77,1.272-3.5,2.543-1.875.918-1.28,1.1-2,1.714-2.771,2.294a31.455,31.455,0,0,0-2.852,2.375c1.2-1.195,1.311-1.387,1.322-1.53s-.056-.211.85-1.095c-1.485,1.236-2.893,2.56-4.324,3.856-.089.016,1.46-1.418,2.557-2.5,1.119-1.053,1.791-1.755-.154-.365-.82.831-2.448,2.217-3.811,3.48a14.4,14.4,0,0,0-2.417,2.532l-.169.029a13.5,13.5,0,0,0-2.194,2.41,26.264,26.264,0,0,1-2.719,2.928c.078.161.821-.536,2.147-1.907.547-.6.825-.974,1.26-1.5a24.038,24.038,0,0,1,2.214-2.366c.626-.423-.11.258-.758.885s-1.171,1.231-.214.56c.473-.337,2.052-1.854,3.313-3.061a10.452,10.452,0,0,1,1.764-1.471C207.443-510.735,207.375-510.608,207.14-510.311Zm-10.893,18.678c-.272.365-.523.717-.357.556l1.2-1.437Q196.672-492.071,196.247-491.632Zm209.837-.49c-.08-.072-.158-.143-.238-.217-.027-.017-.052-.037-.077-.056C405.885-492.291,405.992-492.2,406.084-492.122Zm-3.909-3.459c.128.106.253.215.378.322.144.093.285.184.433.276a36.392,36.392,0,0,0,3.615,2.3c-1.135-.9-2.254-1.824-3.406-2.708l-2.19-1.2C401.4-496.26,401.791-495.923,402.175-495.581Zm-7.567-.688Zm-3.092-9.508c1.188.583,2.313,1.13,3.291,1.694-.3-.228-.651-.48-1.042-.749s-.841-.52-1.32-.8c-.347-.128-1.282-.626-2.264-1.145C390.626-506.443,391.073-506.114,391.515-505.777Zm-5.979,1.041c-1.088-.636-2.1-1.231-3.622-2.12a2.256,2.256,0,0,0-1.055-.228c.721.481,1.488.972,2.159,1.4-.1-.1-.146-.178-.125-.231Zm4.312-1.855c.145.07.283.138.425.208-.147-.155-.52-.482-.918-.826-1.233-.647-2.294-1.173-2.039-.85-.522-.318-1.141-.648-1.8-.981.392.283.786.562,1.177.851.279.149.55.3.773.429l-.006,0,2.216,1.086c-.07-.061-.134-.12-.191-.172C389.627-506.747,389.747-506.664,389.848-506.592Zm.1-2.576c.577.417,1.18.86,1.688,1.221.061.015.129.033.187.046.3.208.633.417.984.624a2.343,2.343,0,0,0-.2-.228c-2.136-1.391-5.588-3.824-8.278-5.739l.921.568c-2.89-2-5.4-2.993-9.472-5.587-2.09-1.18-1.632-1.077-1.209-.968a31.884,31.884,0,0,1-3.412-1.8c-1.459-.308-2.934-.56-4.384-.835-1.465-.249-2.926-.481-4.378-.706a149.672,149.672,0,0,1,15.439,8.386c.637.238,1.221.461,1.592.6l-.789-.37a11.848,11.848,0,0,1,3.81,1.742l-1.406-.641-1.175-.5c-.653-.267-1-.379-.772-.152l1.949.853c.657.306,1.334.628,2.063.95l-1.368-.5,6.268,3.079c.879.3,2.23.789,3.236,1.071-2.206-1.528-2.146-1.2-2.141-.979,0,.137-.039.253-.6-.015s-1.617-.95-3.745-2.283c.618.263.156-.257-.945-1.185-.545-.471-1.278-1-2.1-1.606s-1.754-1.249-2.751-1.87l4.747,2.806a59.455,59.455,0,0,1,5.068,3.453c-.74-.617-1-.86-.946-.86A24.716,24.716,0,0,1,389.946-509.169Zm-9.851,1.571a2.723,2.723,0,0,1,.977.247l-.922-.54c-.469-.228-.938-.458-1.414-.676.31.124.586.238.855.35l-1.387-.811A9.278,9.278,0,0,0,380.095-507.6Zm-3.039-1.26c.756.363,1.6.763,2.57,1.219l.043.006c-1.692-1.063-3.343-2.045-4.78-2.794C375.47-509.986,376.211-509.454,377.055-508.857Zm6.055-.83,1.777.779.021-.018c-1.049-.663-2.159-1.375-2.819-1.764l-.595-.286a.039.039,0,0,0,.011.027l-.121-.081c-.64-.313-1.206-.594-1.636-.807,1.15.61,1.075.646.518.455q.957.633,1.924,1.293l.77.338c-.479-.34-.787-.558-.879-.622Zm-9.548-.94c.9.495,1.948,1.026,3.316,1.685-.933-.675-1.951-1.385-3.137-2.166a6,6,0,0,1-2.649-.867c.238.053.262,0,.252-.073-.6-.215-1.228-.427-1.754-.588C371.047-511.983,372.146-511.419,373.562-510.627Zm-2.405-6.516c1.28.654,2.593,1.417,3.872,2.148.136.08.267.162.4.242.282.117.577.236.9.36-2.85-1.335-1.723-.983-.019-.361-.777-.462-1.535-.9-2.293-1.325a84.211,84.211,0,0,0-8.637-4.3A54.91,54.91,0,0,0,371.157-517.144Zm7.379.234c-.306-.233-.714-.5-1.184-.795s-1.013-.579-1.565-.878C376.712-518.039,377.631-517.486,378.535-516.91Zm-9.725-1.362c-.3-.18-.879-.5-1.973-1.059l-.335-.162Zm-134.674-6.5c-1.091.579-2.4,1.354-3.36,1.822-.254.278-.268.431-.1.478-1.847,1.08-3.653,2.213-5.419,3.381q1.731-.976,3.433-1.887c.868-.617,1.55-1.132,1.993-1.493h-.006l.027-.016-.02.016a3.539,3.539,0,0,0,1.472-.308q1.472-.75,2.933-1.467a13.977,13.977,0,0,0,1.766-1.234,7.088,7.088,0,0,1,1.2-1.13c1.175-.629,2.338-1.292,3.529-1.9,1.2-.584,2.383-1.207,3.6-1.765-.521.3-1.019.649-1.528.974.919-.395,1.83-.766,2.676-1.113s1.612-.7,2.27-.964c1.321-.506,2.152-.8,2.074-.584-.943.472-2.249.937-3.521,1.5l-1.871.808a16.136,16.136,0,0,0-1.578.829l1.225-.478,1.239-.433c-1.041.5-1.689.833-2.175,1.039a9.117,9.117,0,0,1-1.149.4,12.89,12.89,0,0,0-1.327.457c-.6.257-1.411.672-2.643,1.35,1-.32.884-.258.266.04l-1.232.606c-.481.263-1.009.576-1.513.907.455-.173,1.207-.592,2.1-1.014l2.8-1.369c1.694-.766,3.056-1.313,2.736-.935.456-.186.91-.373,1.37-.552.139-.077.272-.151.4-.218.788-.438,1.239-.755.582-.6.747-.2,1.49-.424,2.235-.673.816-.25,1.639-.5,2.463-.774l1.242-.411,1.265-.354c.848-.228,1.7-.479,2.566-.652.158-.1-.119-.089-.508-.02l-1.208.249c.513-.156.964-.288,1.4-.4l1.284-.27c.872-.168,1.811-.439,3.177-.737a10.009,10.009,0,0,0-1.362.148c-.491.086-.689.076.433-.22l1.9-.255c.631-.082,1.26-.184,1.893-.22,1.247-.226,2.02-.406,2.571-.561.566-.134.907-.249,1.275-.359a18.6,18.6,0,0,1,4.674-.617c-.7.2-1.84.495-3.158.773l.19-.033c-.608.159-1.278.278-1.978.45.2,0,.722-.039.881-.017.769-.117,1.511-.181,2.286-.262l2.551-.213c1.96-.249,3.814-.478,5.736-.673-1.333.029-3.134.079-6.093.228,1.618-.164,3.525-.4,5.143-.627-.3.015-.606.029-.91.046-1.322.1-2.631.172-3.26.314a14.192,14.192,0,0,1,1.667-.252c.724-.073,1.582-.189,2.48-.228.436-.022.881-.05,1.323-.073.515-.081.972-.157,1.336-.228a3.973,3.973,0,0,0,.516.018c1.462-.338-.032-.4-.014-.954-4.384.483-7.335.288-12.456,1.017-.93.4,3.008.072,5.563-.151-1.508.163-3.011.341-4.506.561l.875-.225a78.469,78.469,0,0,0-11.249,1.655,32.971,32.971,0,0,0,3.856-1.141l-2.177.381c-.73.124-1.481.216-2.242.385.375.193.242.436-1.035.776l1.6-.4c-.482.129-1.015.267-1.665.42l-.048.013-1.3.321c-.418.107-.82.237-1.214.349l-2.233.639-3.718,1.163c-2.165.75-3.824,1.223-5.129,1.66l-.782.374c.633-.111-.527.521-2.049,1.4-1.518.9-3.426,1.986-4.347,2.689,0-.024-.026-.035-.064-.035A9.032,9.032,0,0,0,234.137-524.771Zm137.615,3.864c-.414-.128-.575-.156-.593-.125Zm-10.073-1.014a4.193,4.193,0,0,0-1.322-.929l-.893-.118Zm-23.739-4.653.529.234q.537.142,1.1.295l1.573.429,1.65.5c1.129.337,2.312.673,3.542.986,1.519.371,1.376.242.967.039l-.178-.01c-1.305-.494-2.589-.966-3.583-1.349l-.038-.008-1.3-.457c.1.015.2.036.3.054-1-.415-1.234-.6,0-.382a5.384,5.384,0,0,0,1.394.562,2.439,2.439,0,0,1,.55.1l.2.018c-2-.651-3.626-1.148-4.78-1.491l-2.461-.521-.294-.112,2.153.455c-.775-.227-1.243-.356-1.335-.383,6.884,1.754.5-.39,1.781-.511-1.152-.338-2.3-.676-3.463-.983s-2.313-.63-3.48-.915c4.155,1.327.011.251-1.5-.087a14.3,14.3,0,0,0-3.231-.952l-4.825-1.066.192-.017a93.347,93.347,0,0,0-9.156-1.822,17.233,17.233,0,0,1-2.579.011c-1.013-.021-2.113-.042-2.87-.026,2.451.411,2.938.564,2.864.613s-.716.021-.534.14a11.961,11.961,0,0,0-1.53-.217c-.715-.023.937.249,1.061.362,5.231.674,10.546,1.758,12.734,1.853-1.547-.52-2.735-.435-4.491-.9a70.463,70.463,0,0,1,10.171,2.115l1.334.589c1.428.351,2.865.685,4.288,1.063a33.47,33.47,0,0,1-5.284-1.015,15.129,15.129,0,0,0,2.514.747,59.745,59.745,0,0,1,5.907,1.3,6.975,6.975,0,0,1-1.8-.188c.175.055.343.11.51.166.494.032.987.076,1.479.124-.581,0,5.18,1.864,1,.791-.537-.15-1.073-.3-1.61-.444a8.866,8.866,0,0,1-1.634-.246C336.506-526.95,337.226-526.773,337.94-526.573Zm-4.53-1.147c1.343.309,2.29.494,3.368.671-.375-.1-.75-.2-1.128-.294-1.129-.293-2.26-.581-3.395-.841C332.64-528.029,333.025-527.876,333.41-527.72Zm6.779-3.365a15.574,15.574,0,0,1,3.758.972c.662.088-.4-.339-1.785-.828-1.391-.46-3.1-.979-3.711-1.111-.767-.058-2.351-.455-3.8-.773a10.424,10.424,0,0,0-2.955-.436c-.333.005.674.321,1.805.665,1.271.349,2.617.763,4.044,1.2a2.516,2.516,0,0,1,.853.1c-1.4-.462-2.321-.829-1.685-.875A12.688,12.688,0,0,0,340.189-531.086Zm-85.182-.561c-.039.032-.063.06-.063.077,1.417-.378,2.826-.776,4.255-1.1.271-.1.591-.2.944-.311C258.443-532.59,256.761-532.168,255.007-531.647Zm70.506-1.733c-5.293-1.627-9.9-2.73-10.864-3.142-.485-.2-.062-.222,1.624.029s4.635.764,9.158,1.8l1.2.229c-2.335-.667-6.429-1.564-10.314-2.217-1.588-.178-4.96-.428-7.912-.571-1.479-.061-2.854-.107-3.851-.127a14.606,14.606,0,0,0-1.6.018c1.094.319,2.74.3,4.753.636l-.772-.269C313.251-536.091,319.565-534.825,325.513-533.38Zm-60.049-.94a5.025,5.025,0,0,0-1.2.311c.837-.183,1.681-.362,2.477-.546-.121,0-.112-.034.2-.113-.335.059-.673.115-1.011.165.4-.036.6-.052.677-.052A7.778,7.778,0,0,1,265.464-534.319ZM262.64-539a21.733,21.733,0,0,0-2.5.424c-.836.18-1.632.356-2.23.553-.648.277-1.636.62-2.715.971s-2.221.8-3.221,1.14-1.82.694-2.251.886-.459.248.15.082c1.05-.4,2.3-.821,3.5-1.221a15.509,15.509,0,0,1,3.283-.79l-2.1.6-2.066.686c.934-.2,1.855-.44,2.8-.6-1.444.309-1.232.516-.5.628l2.533-.715c.424-.116.85-.249,1.282-.351l1.31-.3-.514.1,2.542-.646,2.575-.515c-1.6.194-2.949.283-3.328.277s.17-.31,2.414-.708c-.359.174.973.113-.574.422,3.016-.41,9.657-.728,7.9-1.018-2.888.451-3.236.364-3.438.233s-.244-.3-2.508.141a59.918,59.918,0,0,1,7.184-.992c-2.4.426.6.443,4.232.408,1.576-.161,5.854-.161,8.483-.228-.936-.261,1.362-.421-2.933-.489a50.823,50.823,0,0,1,6.742.113,17.416,17.416,0,0,0-2.845.1c1.754.274,3.81.331,4.941.5.9.028,1.819.055,2.706.1a5.323,5.323,0,0,1-.653-.132l3.021-.032c-4.013-.146-1.844-.242-1.782-.395-.064.149.582.2,1.413.225s1.852.05,2.54.1c-.986-.184-1.97-.383-2.958-.556a17.726,17.726,0,0,1,2.475.188c1.242.151,2.295.3,1.872.082-3.159-.356-5.355-.515-7.478-.621s-4.173-.149-7.047-.134c.775.1,1.552.182,2.324.3a39.716,39.716,0,0,1-5.336-.2c-.55-.061-1.125-.134-2.019-.163s-2.106-.05-3.929.034c-1.511.172-4.247.339-6.617.594-1.187.123-2.279.262-3.081.411a4.317,4.317,0,0,0-1.279.34.961.961,0,0,0-.141-.007C264.469-539.187,263.643-539.114,262.64-539Zm15.728,3.7c.668.015,1.335.054,2,.1.469,0,.934,0,1.4.011-.968-.1.647-.18,2.419-.237s3.7-.086,3.34-.253c-.453-.018-.87-.034-1.261-.048C283.619-535.714,280.982-535.565,278.367-535.3Zm20.82-3.565c1.275.109,2.549.2,3.805.338-.477-.092-.709-.169-.426-.22a26.474,26.474,0,0,0-2.7-.265C299.4-539.008,299.508-538.907,299.187-538.86Zm20.469,256.549c.161,0,.321,0,.484.009Zm-.438-.01.438.01C319.511-282.313,319.366-282.316,319.218-282.321Zm-12.346-1.071a1.734,1.734,0,0,0,.37-.017.936.936,0,0,1-.227.02C306.972-283.388,306.924-283.39,306.872-283.392Zm-1.673-.185c-.719-.117-1.578-.227-2.454-.421s-1.791-.364-2.629-.566-1.6-.4-2.208-.554l2.6.542-.189.017c.717.059,2.028.354,3.325.63,1.3.239,2.588.51,3.23.536h-.006A14.22,14.22,0,0,1,305.2-283.578Zm2.061.163-.018.005Zm2.795-2.123c.07.03-.13.061-.78.1Zm19.179-.506c-.156.043-.417.1-.912.184C328.772-285.938,329.042-285.994,329.234-286.044Zm.08-.029a.274.274,0,0,1-.08.028C329.27-286.055,329.293-286.064,329.314-286.073Zm.018-.007-.018.007Zm.013-.008-.012.008Zm0-.023c.026,0,.013.014,0,.023C329.354-286.1,329.347-286.1,329.347-286.11Zm6.359-.746c-2.922.238-3.013.533-4.319.366,1.195-.121,2.391-.24,3.583-.37-.448.02-.752.012-1.216,0l1.469-.027c.4-.043.794-.083,1.191-.132.688-.012-1.3.582-3.9.778C333.577-286.444,334.643-286.63,335.706-286.856Zm29.222-2.4-.235.081Zm-57.6-2.685,2.413,0c-.29.012-.639.02-1.1.02C308.278-291.923,307.847-291.928,307.324-291.938ZM326.2-292.6c1.35-.084,2.7-.213,4.047-.328-1.234.115-2.468.254-3.7.344Zm-20.058-.237-.648-.1q1.54.014,3.076-.022l.637.09c-.879.01-1.76.036-2.639.036Zm35.725-1.99c.079-.065.115-.13-.21-.105.927-.123,1.855-.238,2.778-.381-.731.173-1.463.334-2.2.491a2.954,2.954,0,0,1-.474.108C341.7-294.718,341.8-294.774,341.867-294.83Zm-.209-.1-.538.072A5.339,5.339,0,0,1,341.658-294.935Zm31.427-2.166c-.3.139-.621.279-1.106.464Zm-134.333-6.71a6.65,6.65,0,0,1,1.851.726c-3.907-1.948-3.344-1.231-6.518-3.01,1.537.633,3.045,1.309,4.6,1.885l2.313.891,2.315.824c-.866-.4-1.746-.783-2.6-1.209l-2.59-1.274c2.826,1.3,5.185,2.352,7.228,3.19-.676-.209-1.334-.463-2-.694l.257.118c-1.08-.425-1.127-.267-.483.159a13.657,13.657,0,0,0,1.436.8c.629.292,1.387.6,2.229.9l-.807-.194c.478.14,1.342.461,2.253.829a30.385,30.385,0,0,1,3,1.263c-2.787-1.049,1.277.787,1.7,1.048A145.052,145.052,0,0,1,238.752-303.811Zm132.254,4.052-1.043.395C370.25-299.48,370.618-299.619,371.006-299.759Zm8.943.21c0,.02-.016.048-.04.077h-.019C379.848-299.471,379.862-299.5,379.948-299.549Zm-113.079-1.207q-1.205-.691-3.121-1.691c-.643-.331-1.344-.69-2.1-1.082l-2.432-1.307a72.258,72.258,0,0,1-6.879-3.3c-.716-.586.839.2,2.445,1a14.537,14.537,0,0,0,2.782,1.2c-.735-.4-1.676-.843-2.151-1.066-1.453-.857-.589-.494.287-.131a4.946,4.946,0,0,0,1.093.392l4.764,2.627,3.11,1.035c-2.949-1.658-2.713-1.557-2.386-1.455.257.08.57.16-.563-.615,2.142,1.293,7.877,3.778,9.521,5.1l-5.974-2.271c1.241.6,2.275,1.155,3.433,1.608l-.072.516.915.434C268.183-300.4,267.946-300.286,266.869-300.757Zm101.312.446c-.253.1-.563.215-1.071.383Zm14.952-1.043c1.005-.506,2.129-1.033,2.439-1.148a35.792,35.792,0,0,1-4.207,2.085C381.2-300.458,382.122-300.863,383.133-301.354Zm-130.918-3.934a57.611,57.611,0,0,1-5.72-2.94c1.5.207,6.727,3.63,6.011,2.515a60.478,60.478,0,0,0-5.648-2.84c.187-.157,2.321.953,4.642,2.27,2.35,1.269,4.912,2.707,5.876,3.359C255.3-303.984,253.811-304.6,252.215-305.288Zm134.194-1.088-1.544.857C385.306-305.773,385.8-306.05,386.409-306.376Zm-154.451-.668a3.785,3.785,0,0,0,1.119.342c.35.219.718.451,1.007.607C233.367-306.391,232.669-306.728,231.959-307.044Zm.436-.082.392.093c.341.228.393.319.289.331Zm-3.272-1.238c.93.47,1.89.884,2.835,1.318A28.3,28.3,0,0,1,229.123-308.363Zm23.311-.862a8.888,8.888,0,0,0-2.63-1.211c6.8,3.9-1.444-.451-1.84-.539a11.687,11.687,0,0,0-1.471-.918c2.875,1.552,5.315,2.854,1.838.6-1.263-.752-2.548-1.472-3.8-2.253L240.8-315.9c1.674,1.025,3.062,1.818,4.446,2.631,1.408.776,2.806,1.584,4.478,2.684l1.449.451c-1.5-.929-3.317-1.96-5.23-3.013-1.9-1.07-3.858-2.236-5.73-3.3,1.207.573,2.4,1.166,3.612,1.794q.906.473,1.842.963c.629.319,1.27.641,1.928.974,1.308.67,2.673,1.385,4.123,2.155.727.381,1.467.794,2.25,1.193l2.441,1.223c1.61.931.967.667.309.4-.591-.238-1.195-.475-.192.153-.884-.5-1.912-1.023-2.645-1.359s-1.151-.512-.851-.241c1.49.84,2.64,1.3,3.573,1.748.147.139-.142.053-.425-.031-.385-.116-.758-.232-.006.217C255.236-307.716,253.719-308.494,252.434-309.225Zm-8.156.1-.257-.185,2.827,1.435.254.182Zm-13.335.451c-.256-.189-.025-.1.434.121l1.361.7C232.08-308.157,231.6-308.378,230.942-308.677Zm-20.774-10.735a33.28,33.28,0,0,1-3.394-2.756c-.615-.554-1.256-1.131-1.89-1.735s-1.247-1.243-1.87-1.862c-2.475-2.487-4.7-4.98-6-6.171.642.54.56.26.006-.477-.274-.371-.676-.849-1.146-1.408s-1.012-1.206-1.614-1.87c-.538-.506.217.453.6,1.016-.943-1.2-2.017-2.514-3.059-3.913l-1.612-2.088-1.561-2.107c-.516-.689-1.024-1.364-1.512-2.011s-.943-1.282-1.38-1.871-.862-1.129-1.253-1.617-.726-.94-1.043-1.313c.63.707,1.261,1.412,1.924,2.094-.75-.954-1.372-1.869-1.968-2.71l-1.651-2.366c-.989-1.509-1.9-2.837-2.866-4.17.126.12.747,1.038.748.858-1.292-2.624-3.329-5.306-4.487-7.827l1.092,1.852a26.091,26.091,0,0,0-1.73-3.435c-.9-1.723-2.99-5.329-1.505-1.993-.532-1.17-1.109-2.308-1.6-3.5-.061-.067-.05.028-.01.176-.351-1-1.031-2.558-1.638-3.977-.712-1.8-1.286-3.357-.994-3.2,1.18,2.287,1.195,1.964,3.131,5.964a18.774,18.774,0,0,0,1.181,3.02c.525,1.1,1.127,2.312,1.81,3.57.7,1.242,1.447,2.555,2.2,3.889.778,1.32,1.577,2.658,2.315,4a24.936,24.936,0,0,1,2.836,3.972,22.044,22.044,0,0,1-2.259-3.038c-.776-1.153-1.233-1.833-.472-.113.83,1.43,1.944,3.374,3.087,5.016a20.666,20.666,0,0,0,2.766,3.5c-2.762-4.01-2.391-3.882-2.063-3.719.169.079.339.161.124-.273-.1-.217-.312-.56-.65-1.1s-.8-1.3-1.444-2.306c.578.873,1.071,1.535,1.644,2.329.6.778,1.282,1.689,2.229,3.077,1.49,2.344.031.463-.942-.769-.49-.615-.859-1.062-.689-.723.083.167.3.534.715,1.173s1,1.561,1.888,2.79l1.122.554c.385.551.8,1.148,1.232,1.763.448.6.909,1.22,1.359,1.825s.888,1.191,1.291,1.734c.42.532.8,1.021,1.129,1.435-1.091-1.277-2.09-2.585-3.008-3.69s-1.708-2.05-2.31-2.644c.307.451.658.959,1.035,1.506.4.536.818,1.106,1.255,1.695.869,1.176,1.793,2.416,2.69,3.524,1.736,2.257,3.259,4.056,3.283,4.312a111.64,111.64,0,0,0,11.547,10.541c3.9,3.12,8,6.1,13,9.553,3.93,2.846,3.3,2.9,1.55,1.9a23.317,23.317,0,0,0,3.6,2.229c.676.312,1.156.53,2.651,1.331-1.56-.752-2.079-1.055-2.063-.934a11.977,11.977,0,0,0,1.344,1.279c.772.456,1.535.876,2.254,1.258A135.844,135.844,0,0,1,210.169-319.412Zm15.846,10.636a.857.857,0,0,1,.18.077C226.142-308.72,226.087-308.743,226.015-308.776Zm174.509-.243-.044.069C400.473-308.955,400.476-308.97,400.524-309.019Zm-9.375-1.474c.04.073-.464.587-.939.952.364-.438-.781.115-1.48.54C390.533-310.2,391.1-310.58,391.149-310.494Zm9.536,1.2c1.173-.851.09.013-.164.278Zm-.719-.969a5.667,5.667,0,0,1-.48.4Zm-8.133.139c.791-.7,1.931-1.486,3.01-2.361.548-.43,1.089-.86,1.6-1.263a15.26,15.26,0,0,0,1.311-1.208l-1.059.777-1.082.739c.875-.754,1.415-1.24,1.83-1.563a9.215,9.215,0,0,1,1.005-.681,13.13,13.13,0,0,0,1.166-.783c.507-.4,1.188-1.014,2.2-1.986-.879.566-.785.477-.266.031l1.031-.9c.395-.379.825-.816,1.226-1.267-.393.284-1.011.885-1.766,1.522s-1.591,1.383-2.349,2.043c-1.56,1.275-2.809,2.2-2.323,1.474.519-.508,1.291-1.1,2.159-1.791l2.846-2.281c.973-.84,1.962-1.706,2.861-2.551a23.62,23.62,0,0,0,2.241-2.5l-.09.175a48.236,48.236,0,0,0,6.277-7.557c.827-.885,1.721-2.019,2.614-3.181.867-1.185,1.707-2.419,2.5-3.466l.086.141c.724-1,1.4-2.032,2.108-3.048a18.771,18.771,0,0,1-1.789,2.695c-.789.988-1.707,2.1-2.655,3.377l.466-.139a29.219,29.219,0,0,0-3.015,3.731c-.821,1.174-1.586,2.271-2.407,3.444.635-.828,1.434-1.792,2.279-2.791s1.683-2.084,2.479-3.07a18.945,18.945,0,0,0,2.855-4.309l1.728-1.92.627-1.063c1.287-1.438.44.349-1.676,3.422-.451.473-.675.709-.6.518-.471.726-.9,1.44-1.542,2.383s-1.534,2.076-2.871,3.688l1.289-1.83c-1.622,2.039-3.259,3.911-4.561,5.5-1.343,1.53-2.354,2.8-2.883,3.533h0a.093.093,0,0,1-.017.023l.015-.022a8.489,8.489,0,0,0-2.849,1.806,27.522,27.522,0,0,0-2.332,2.693,7.033,7.033,0,0,1-.864,1.4c-.975.911-1.926,1.852-2.919,2.743-1.005.874-1.989,1.78-3.016,2.632.428-.424.817-.891,1.222-1.334-.781.618-1.568,1.211-2.293,1.764s-1.376,1.093-1.944,1.517a8.12,8.12,0,0,1-1.8,1.155C391.847-310.072,391.83-310.09,391.833-310.129Zm-150.326-1.365-.123-.085.463.253C241.767-311.358,241.626-311.435,241.507-311.494Zm3.606-.152c.148.075.331.173.561.3Q245.392-311.493,245.113-311.646Zm-.781-.269-1.967-1.3c.912.53,1.82,1.068,2.748,1.573A1.64,1.64,0,0,0,244.332-311.915Zm.275-1c.5.271,1.194.627,1.883,1.023C245.862-312.237,245.215-312.573,244.607-312.918Zm-3.3-1.109c-.773-.647.346.028,1.492.7a7.194,7.194,0,0,0,1.847.95c.053.068.053.1.009.1C244.372-312.277,242.275-313.547,241.305-314.027Zm-16.979,1.2c.176.119.458.31.671.452C224.771-312.528,224.524-312.695,224.327-312.829Zm180.066-.77-.229.226C404.239-313.449,404.316-313.524,404.392-313.6Zm-8.842,0q-.1.06-.181.1Zm9.152-.315c-.1.106-.206.209-.311.311Zm-165.764-1.524.083-.017.128.074Zm-1.3-.2,0,0C237.59-315.657,237.577-315.662,237.637-315.632ZM399.3-317.984c.619-.552,1.31-1.129,1.29-.972-.538.365-1.5,1.267-2.153,1.764a.738.738,0,0,1-.094.066C398.324-317.125,398.8-317.527,399.3-317.984Zm-170.685-.651c.373.192.773.407,1.187.639Zm-1.237-.627c-.258-.23.423.2,1.238.628Zm-4.985-1.209.758.577C222.9-320.077,222.651-320.268,222.391-320.471Zm188.227-2.586-2.113,2.331-.514.417Zm-189.948,1.29c-.832-.612-1.625-1.275-2.437-1.911l-1.213-.962-1.18-1c-.026-.1.149-.033.325.031.155.056.31.113.333.061,1.936,1.615,3.908,3.186,5.936,4.68C222.071-320.991,219.075-323.163,220.67-321.767Zm190.69-8c-.793,1-1.051,1.407-1.441,1.975A19.786,19.786,0,0,1,407.487-325c.01-.16-.2-.043-.809.5s-1.6,1.536-3.266,3.006C407.475-325.5,408.188-326.182,411.36-329.764ZM210.1-322.947l-1.337-1.146c.546.451,1.079.913,1.637,1.35l1.073.9Zm204.344-.275-1.129,1.188C413.715-322.468,414.09-322.861,414.442-323.222Zm-1.434.917-.133.126Zm.792-.768c-.259.263-.526.516-.792.768C413.284-322.568,413.549-322.825,413.8-323.073Zm1.615-1.614c-.135.074-.161.047.188-.37l-.505.195a27.815,27.815,0,0,1,2.543-2.63,2.644,2.644,0,0,1,.968-.628c-.655.775-1.362,1.5-2.059,2.24-.417.631.239.046.9-.539.777-.691,1.555-1.382.571-.068.076-.167-.224.02-.835.569s-1.518,1.464-2.738,2.695c1.945-2.067,1.47-1.8,1.122-1.558-.557.555-1.149,1.1-1.766,1.708C414.333-323.615,414.883-324.144,415.414-324.687ZM229.177-323.3c.087.05.177.106.261.159Zm-2.182-1.79c.307.225.6.438.752.576C227.524-324.681,227.239-324.9,226.994-325.086Zm-13.625-3.171a10.235,10.235,0,0,0,1.612,1.121c1.256,1.141,1.557,1.5,1.52,1.588C215.458-326.453,214.378-327.313,213.369-328.258Zm203.318-1.3c-.883,1-2.509,2.945-2.877,3.192A17.8,17.8,0,0,1,416.687-329.556Zm-212.064,2.308c.224.235.44.465.642.7A8.705,8.705,0,0,1,204.624-327.247Zm.364.054c-.3-.188-.609-.377-.363-.053-.955-.977-2.016-2.031-3.031-3.033-.506-.5-1.012-.98-1.459-1.452s-.85-.926-1.195-1.338a52.076,52.076,0,0,1-5.957-6.339c.284.148-.126-.485-.552-1.118s-.88-1.283-.633-1.11c-.777-1-1.615-2.141-2.5-3.323s-1.742-2.469-2.626-3.7c-1.714-2.5-3.34-4.947-4.511-6.726l.891,1.5c-3.09-5.066-1.558-1.679-3.679-5.305l.488-.262c-1.591-2.353-3.01-5.159-3.951-6.844.168-.1.673.637,1.372,1.869.349.615.75,1.355,1.185,2.175s.948,1.7,1.461,2.621c1.005,1.861,2.2,3.809,3.3,5.578a45.219,45.219,0,0,0,3.084,4.3,25.85,25.85,0,0,0,2.59,4.039c.151-.3,1.61,1.576,3.433,3.937.944,1.155,1.94,2.464,2.945,3.655s1.964,2.308,2.753,3.139c.678.783.008.138-.624-.524s-1.264-1.3-.609-.416c2.43,2.765,3.861,3.765,6.684,6.967-.344-.326-.213-.145-.462-.37,2.037,1.9,2.478,2.369,2.381,2.369A1.99,1.99,0,0,1,204.987-327.193Zm215.371-2.927-1.021,1.572a2.032,2.032,0,0,1-.729.428Zm-3.464.334q-.1.118-.207.231C416.762-329.64,416.831-329.717,416.894-329.786Zm-4.453-1.253c-.4.473-.733.867-1.081,1.274C411.65-330.121,411.981-330.517,412.441-331.04Zm8.477-.022,1.127-1.137-1.686,2.079Zm-213.844-1.787c.477.507,1.01.995,1.6,1.59C208.046-331.86,207.507-332.364,207.073-332.849Zm206.763.516c-.062.092-.122.184-.178.269-.038.037-.062.063-.11.11C413.648-332.076,413.741-332.206,413.836-332.333Zm1.537-2.079-1.536,2.079C414.269-332.967,414.738-333.618,415.374-334.412Zm-219.63-.942-.19-.276,1.195,1.32,1.235,1.281C197.222-333.789,196.467-334.558,195.744-335.355Zm2.711.112a24.688,24.688,0,0,1-2.008-2.455c2.53,2.863,1.448,1.712,3.9,4.406C199.973-333.667,199.23-334.417,198.455-335.243Zm2.339,1.759a.354.354,0,0,1,.111.068Zm225.018-5.649c.024-.018.017.005-.034.083h0C425.766-339.049,425.784-339.084,425.812-339.133Zm-232.88-.289c-.157-.2-.411-.519-.633-.8.232.277.457.548.684.818a.023.023,0,0,0-.014,0h-.007C192.956-339.407,192.948-339.41,192.932-339.422ZM425.5-342.537l-.029.048Zm.036-.06-.036.06Zm.431-.709c-.124.2-.264.436-.431.709C425.677-342.831,425.819-343.07,425.965-343.305ZM428.927-346l-.077.219-.188.274C428.747-345.664,428.833-345.825,428.927-346Zm4.749-7.491a7.773,7.773,0,0,1-.548,1.188C433.262-352.622,433.452-353.029,433.676-353.487Zm-252.594-2.681-.145-.307,1.789,2.655.145.306Zm11.388-1.241a16.214,16.214,0,0,1,2.136,2.4A25.536,25.536,0,0,1,192.47-357.41Zm-11.7,1.134c.2.314.385.6.553.862Zm254.8-2.674a11.987,11.987,0,0,1-.543,1.36A11.568,11.568,0,0,1,435.565-358.949Zm4.975-9.853c.1-.3.2-.647.307-1.043-.065.281-.12.541-.193.8-.006.168.1.13-.4,1.356-.338,1.092-.55,1.659-.186.428l-.5,1.146c-.036.045-.06.067-.073.067A15.343,15.343,0,0,1,440.541-368.8Zm3.4-1.924a7.334,7.334,0,0,0,.565-1.873l-.382,2.331-.475,2.317c-.027.057-.045.083-.058.082C443.466-367.869,443.982-370.414,443.938-370.726Zm-272.547.107c.087.25.159.473.2.64C171.528-370.161,171.438-370.434,171.391-370.619Zm1.682-1.114c.267.476.559,1,.945,1.691A12.111,12.111,0,0,1,173.073-371.733Zm270.865,1.007c-.034.079-.058.141-.09.211C443.914-370.785,443.932-370.793,443.938-370.726Zm-6.112-1q-.042.142-.085.284C437.767-371.534,437.8-371.629,437.826-371.731ZM171.6-374.185c-.227-.376-.482-.783-.766-1.307s-.6-1.171-1-2c0,.828-.167,0-1.233-1.942-.557-1.964.473.811.781.968-.6-1.536-1.188-3.075-1.676-4.129s-.839-1.64-.839-1.311c1.3,3.681.891,2.717.453,1.753-.351-.773-.718-1.548-.23.077-.511-.133-3.087-7.893-3-8.418.537-.149.518-2.109,1.749.779.525,1.316,1.1,2.854,1.669,4.5L169.4-380.2c.677,1.661,1.342,3.287,1.94,4.753.652,1.443,1.242,2.726,1.734,3.719C172.462-372.82,172.062-373.435,171.6-374.185Zm-2.815-2.112a27.866,27.866,0,0,1,1.388,3.092A25.583,25.583,0,0,1,168.788-376.3ZM447.881-382.9c-.052.623-.15,1.235-.234,1.851l-.263,1.04C447.547-380.978,447.753-381.931,447.881-382.9Zm-12.788-49.045c-.012.057-.058,0-.2-.366-.039-.264-.11-.613-.191-.959-.261-.916-.557-1.819-.861-2.719l-.9-2.707-.979-2.676c-.328-.892-.645-1.786-1.011-2.661,0,.246-.453-.792-.99-2.057-.515-1.276-1.227-2.732-1.564-3.4.821,1.594,1.025,1.87.989,1.63l-.473-1.075c-.45-.947-.855-1.913-1.335-2.843-.331-.6-.811-1.588-1.34-2.71s-1.167-2.337-1.714-3.432c-1.129-2.172-2.088-3.742-1.8-2.68-.261-.472-.519-.974-.787-1.507s-.577-1.08-.891-1.666-.653-1.2-1.026-1.847-.817-1.3-1.289-1.994c-.132-.324-.152-.439-.1-.431l-.261-.4c.127.167.251.33.381.5a6.684,6.684,0,0,1,.432.571c1.125,1.485,2,2.685.769.439.565.831,1.1,1.8,1.668,2.728s1.1,1.857,1.555,2.683c.921,1.641,1.627,2.8,1.721,2.632a37.322,37.322,0,0,0-1.632-3.5c.732,1.324,1.361,2.393,1.912,3.344l1.468,2.62c.478.818.9,1.652,1.376,2.595s1.012,1.989,1.553,3.31c-.158-.308-.364-.716-.6-1.182s-.527-.981-.82-1.52c-.584-1.076-1.193-2.242-1.756-3.135-1.094-1.8-1.72-2.665-.579-.124.8,1.156,1.532,2.354,2.285,3.546.669,1.681-.639-.88-1.018-1.486a17.131,17.131,0,0,0,1.122,2.813,30.629,30.629,0,0,0,1.552,3.277c-.062-.465-1.48-3.685-.1-1.1.933,1.823,1.752,3.7,2.605,5.565.422.936.8,1.89,1.2,2.835q.363.875.722,1.756a2.169,2.169,0,0,0-.319-.553c-.071-.08-.112-.075-.145-.071a.062.062,0,0,1-.07-.025c.423,1.18.729,1.947,1.106,2.821a21.358,21.358,0,0,1,1.2,3.575c-.536-1.465-1.175-2.893-1.766-4.333.411,1.2.754,2.186,1.037,3.016.255.841.463,1.522.635,2.094.333,1.148.541,1.854.735,2.529s.352,1.325.645,2.341c.15.508.328,1.107.548,1.852s.449,1.642.753,2.733l-.1-.175c.838,3.117,1.862,8.749,2.545,11.606l-.321-.058a12.062,12.062,0,0,1,.681,3.589c.022.481.046,1.036.132,1.87.07.834.16,1.949.374,3.549l-.142-1.015c.4,4.005.04,2.126-.194,1.9.1,1.529.16,2.734.288,3.779.058.523.121,1.006.186,1.469s.1.909.147,1.355c.1.894.2,1.793.26,2.863s.014,2.307-.07,3.875c-.1-.127-.2.34-.3.765s-.22.809-.29.53c.092-.737.12-1.731.156-2.75a23.864,23.864,0,0,0-.05-2.918c-.124-.482-.171.744-.209,1.969-.048,1.589-.08,3.177-.245,1.044-.053,1.253-.118,2.406-.253,3.542s-.206,2.266-.343,3.47C442.182-399.371,439.753-416.032,435.092-431.948Zm11.685,46.714c-.066.3-.152.693-.232,1.05C446.615-384.5,446.689-384.839,446.777-385.234Zm.054-.233c-.015.069-.032.148-.052.233C446.8-385.309,446.813-385.387,446.831-385.466Zm.028-.133q-.014.067-.028.133Zm-.955-.987c0,.05,0,.112,0,.211C445.9-386.449,445.9-386.515,445.9-386.586Zm-277.881-.7c.025.052.052.112.083.187C168.076-387.173,168.052-387.227,168.023-387.291Zm-2.473-5.682-.412-1.437c-.134-.48-.231-.971-.348-1.455.363,1.446.9,2.839,1.363,4.253Zm.453-.963c-.187-.5-.366-1.011-.513-1.528.211.634.485,1.248.744,1.864Zm280.354-11.584c-.084.6-.162,1.038-.242,1.426A7.465,7.465,0,0,1,446.356-405.521ZM169-408.392c.231,1.247.4,2.348.555,3.407ZM446.078-409.4l.049.692c-.114.807-.184,1.615-.338,2.418C445.929-407.324,445.981-408.363,446.078-409.4Zm.058-7.3c.043.482.082.934.094,1.325C446.192-415.842,446.16-416.281,446.136-416.7Zm5.667-.826a4.883,4.883,0,0,0-.156-1.457c.087-.507.173-.962.325,1.806a6.551,6.551,0,0,1-.064,1.118A13.734,13.734,0,0,1,451.8-417.524Zm-6.26-.419a12.306,12.306,0,0,1,.475,1.876C445.883-416.6,445.735-417.177,445.544-417.943Zm6.1-1.038c-.018.106-.038.216-.056.3A1.185,1.185,0,0,1,451.646-418.981Zm-7.795-5.221c-.178-.684-.374-1.5-.582-2.406s-.477-1.883-.731-2.91c-.489-2.056-1.134-4.245-1.742-6.237a44.36,44.36,0,0,0-1.864-4.948,25.6,25.6,0,0,0-1.453-4.568c-.224.245-1.146-1.94-2.3-4.688-.609-1.361-1.234-2.879-1.9-4.29s-1.3-2.736-1.846-3.744c-.449-.93.032-.134.468.667s.885,1.585.483.56c-1.632-3.3-2.755-4.633-4.65-8.453.252.411.163.186.36.493-2.22-3.549-1.8-3.07-1.359-2.591.239.259.487.518.333.144.672,1.189,1.42,2.481,2.142,3.711.359.615.723,1.208,1.031,1.778s.585,1.113.808,1.6a51.9,51.9,0,0,1,4.112,7.661c-.239-.218,0,.506.246,1.229s.514,1.455.319,1.226c.493,1.165,1.006,2.485,1.557,3.857s1.045,2.833,1.579,4.253c1,2.862,1.941,5.639,2.611,7.66l-.471-1.676c1.672,5.69,1.069,2.024,2.18,6.074l-.539.128c.925,2.681,1.568,5.759,2.039,7.628l-.017,0C444.485-422.041,444.2-422.872,443.852-424.2Zm-15.685-40.422Zm22.966,41.6a1.764,1.764,0,0,1,0,.766A4.486,4.486,0,0,1,451.133-423.022Zm-282.82-4.6c-.027.549-.066,1.2-.134,2.06C168.21-426.312,168.259-426.995,168.313-427.624Zm275.613-6.544c.164.731.294,1.4.405,2.025C444.213-432.679,444.084-433.317,443.926-434.168Zm1.126-.481c-.148-.75-.341-1.441-.517-2.106a38.052,38.052,0,0,0-1.169-3.756c-.437-1.224-.889-2.486-1.408-3.934-.277-.716-.563-1.483-.855-2.32s-.569-1.754-.958-2.725c.157.364.325.71.461,1.055s.266.681.389,1.006c.26.649.5,1.258.734,1.84s.473,1.133.681,1.68.387,1.086.577,1.623c.371,1.075.8,2.132,1.158,3.324s.73,2.493,1.149,4.009l.136,2.733C445.312-433.091,445.186-433.9,445.052-434.649Zm-3.714-1.21-.06-.332,1.038,3.024.063.335Zm.943,1.9c.1.3.2.621.312.976C442.471-433.363,442.384-433.637,442.281-433.957Zm1.833-1.037c-.382-1.158-.77-2.293-.819-1.753l-.084-1.89a14.016,14.016,0,0,0,.761,2.622,12.75,12.75,0,0,1,.833,2.914c-.008.072-.022.105-.04.105A10.667,10.667,0,0,1,444.114-434.994Zm-9.932-4.283c.114.252.256.6.43,1.1C434.476-438.545,434.33-438.911,434.182-439.277Zm-269.874.348a4.869,4.869,0,0,1-.2.74A1.743,1.743,0,0,1,164.308-438.929Zm282.66-2.153c.254.718.469,1.447.681,2.177.02.261.016.371-.006.371C447.557-438.535,447.193-440.293,446.968-441.083Zm-3.158.471c0-.2.172.049.4.617-.14-.322-.12-.12-.053.24s.14.888.186,1.2A14.985,14.985,0,0,1,443.809-440.612Zm2.909-.309c.094.344.168.62.208.807C446.858-440.384,446.788-440.652,446.718-440.921Zm.141-.484a2.83,2.83,0,0,1,.108.324C446.931-441.19,446.9-441.3,446.859-441.406Zm-282.044-2.647c.591-1.987.32-.8.069.384a4.788,4.788,0,0,0-.225,1.443c-.08.175-.159.342-.2.342A7.4,7.4,0,0,1,164.815-444.053Zm-.022,1.553a1.123,1.123,0,0,1-.133.274C164.706-442.324,164.752-442.425,164.793-442.5Zm6.034-1.815c-.086.462-.168.9-.251,1.3C170.658-443.487,170.739-443.932,170.827-444.314Zm1.832-6.41c.321-.751.595-1.513.952-2.249-.4.962-.721,1.953-1.086,2.93Zm262.512-1.7c.014.009.016-.008.044.027.1.234.261.607.4.938C435.466-451.785,435.318-452.1,435.171-452.423Zm-261.3-2.757a7.418,7.418,0,0,1-.6,1.316C173.5-454.422,173.69-454.824,173.866-455.18Zm255.776-5.049c.261.459.787,1.374,1.32,2.371a24.724,24.724,0,0,1,1.3,2.889C430.563-458.386,431.31-456.995,429.642-460.229Zm3.211,1.911-.861-1.557c.538.931,1.069,1.87,1.562,2.826l.11.314Zm-3.784-1.936.092.1A.38.38,0,0,1,429.069-460.254Zm-6.943-4.087c.456.743.845,1.369,1.137,1.949C422.934-463,422.545-463.612,422.125-464.341Zm14.951-3.147.935,1.159.773,1.282c.251.428.475.879.712,1.317C438.77-465.035,437.887-466.239,437.076-467.488Zm.438,1.941.308.267c.313.439.619.881.893,1.342C438.345-464.495,437.924-465.018,437.514-465.547Zm-10.876-2.461a8.675,8.675,0,0,1,.44.837C426.925-467.456,426.775-467.734,426.638-468.008Zm-245.9-1.374c.22-.462.459-.912.689-1.368l.187-.258-.7,1.371-.647,1.394-.171.253Zm236.363-.566c-.915-1.426-1.113-1.853-1.053-1.926.771,1.143,1.592,2.254,2.32,3.425A10.331,10.331,0,0,0,417.1-469.949Zm13.4-2.258c-.287-.4-.584-.78-.867-1.146q-.85-1.094-1.614-2c.915,1.063,1.626,1.737,2.489,2.815a12.254,12.254,0,0,0,.843,1.627Zm3.525.869c.046.058.084.1.128.158C434.11-471.224,434.071-471.276,434.021-471.338Zm-11.352-1.671-.8-1.149,1.039,1.421,1,1.453C423.489-471.859,423.093-472.445,422.669-473.009Zm-6.317,1.277c-.135-.094-.272-.188-.307-.143-1.45-2.058-2.947-4.083-4.518-6.051.319.216,2.65,3.085,1.47,1.326.647.8,1.236,1.65,1.858,2.472l.925,1.242.879,1.271c0,.028-.012.039-.032.039A.825.825,0,0,1,416.352-471.732Zm11.229-4.135q.179.208.359.429C427.824-475.573,427.7-475.716,427.581-475.866Zm-249.218-1.969.525-.936c-.411.892-.856,1.759-1.232,2.665C177.87-476.694,178.122-477.26,178.363-477.835Zm232.725-1.218c.192.24.384.491.585.757C411.463-478.568,411.272-478.815,411.088-479.053Zm-220.753-5.361-.067.108Zm220.919-2.375.531.612ZM199.084-495c.117-.108.086-.057-.029.082Zm.763-6.864c-.214.278-.5.621-.838,1.008A7.618,7.618,0,0,1,199.847-501.867Zm5.822-5.2.255-.217-.386.408Zm3.8-1.995c-.121.116-.242.233-.363.347Zm.325-.309-.325.309C209.575-509.163,209.684-509.267,209.792-509.369Zm8.748-1.2c-.679.467-1.351.931-2.02,1.4Q217.525-509.874,218.541-510.566Zm-8.158-2.2c.016,0-.01.028-.053.072l-.011,0C210.307-512.7,210.326-512.719,210.382-512.77Zm149.788-3.662c.259.107.588.244.875.362C360.691-516.208,360.357-516.339,360.171-516.432Zm-1.987-.891.288.084C358.377-517.264,358.277-517.294,358.183-517.323ZM221.627-519.6l-.26.17Q221.5-519.518,221.627-519.6Zm3.607-2.341a17.813,17.813,0,0,1-3.607,2.341C222.739-520.334,224.813-521.8,225.234-521.941Zm116.847.137-2.028-.456-2.116-.442c-1.439-.309-2.94-.648-4.541-1.02-.8-.182-1.624-.387-2.484-.572l-2.674-.552c-1.787-.483-1.119-.4-.42-.312.637.078,1.3.156.161-.2.982.253,2.113.5,2.907.632s1.245.2.885.013c-1.658-.427-2.888-.577-3.906-.768-.181-.1.132-.089.432-.079.4.013.769.026-.063-.212,1.025.2,2.692.56,4.125.932a8.855,8.855,0,0,0,2.854.494c-5.015-1.33-2.733-.873-.5-.417,1.144.234,2.277.468,2.414.462a11.6,11.6,0,0,0,1.661.508c-3.18-.758-5.876-1.388-1.933-.1,1.418.4,2.845.768,4.252,1.2l4.215,1.311c-1.884-.561-3.429-.968-4.976-1.4-1.561-.386-3.121-.806-5.022-1.438l-1.518-.063c1.693.511,3.712,1.04,5.834,1.564,2.114.544,4.309,1.165,6.392,1.713C344.721-521.243,343.415-521.51,342.08-521.8Zm-120.368-1.022c-.931.468-1.865.936-.572-.08-.118.141.222.039.955-.333s1.847-1.024,3.345-1.9c-2.516,1.558-1.838,1.348-1.44,1.2.415-.126.582-.152-2.8,1.987C223.938-523.948,222.827-523.387,221.712-522.826Zm125.073.509h.221l-.076.039C346.9-522.287,346.84-522.3,346.785-522.317Zm1.548-.139.026.006Zm-.025-.006.008,0,.017,0Zm-5.546-.888a7.382,7.382,0,0,0-2.062-.45c-.518-.387,2.43.489,3.654.735.294.137.363.192.279.192A18.41,18.41,0,0,1,342.761-523.35Zm-3.971-.438c.7.171,1.41.327,2.088.5C340.32-523.417,339.563-523.582,338.79-523.788Zm1.275-.594a1.613,1.613,0,0,0,.819.056l2.237.754C342.1-523.849,341.089-524.133,340.065-524.381ZM231.823-526.02l.6-.27-3.249,1.978Zm107.615,1.492q.314.071.627.147C339.9-524.416,339.7-524.463,339.438-524.528ZM248-525.481l-1.74.5A15.063,15.063,0,0,1,248-525.481ZM226.837-526c-.5.316-.966.6-1.4.858Zm.53.474c-.42.2-.7.317-.7.317C227.334-525.575,227.5-525.641,227.367-525.521Zm115.765-.014c.083.011.24.049.37.074l.142.05Zm-13.489-.688a15.221,15.221,0,0,0-3.089-.46c.816.2,1.839.383,2.356.475,1.616.451.705.326-.231.2a5.017,5.017,0,0,0-1.17-.1l-5.285-1.309-3.272-.2c3.194.82,3.033.806,2.706.793-.272-.012-.659-.023.679.447-2.4-.7-8.589-1.619-10.518-2.468l6.36.655c-1.354-.255-2.5-.53-3.735-.667l-.064-.517-1-.183c1.47.247,1.67.08,2.832.258q1.341.355,3.455.828l2.311.5,2.689.636a72.037,72.037,0,0,1,7.5,1.419c.255.115.277.162.134.162C331.987-525.747,330.837-525.985,329.643-526.223Zm5.055-2.143c.505.114,1.191.289,2.33.617Zm-88.313-1.254-.2.051C246.262-529.59,246.328-529.607,246.385-529.621Zm62.39-.347c-.469.107-.916.216-5.756-.622,1.343.216,1.24.1,1.435.077-.584-.12-1.711-.343-2.916-.541-1.209-.175-2.491-.34-3.368-.4l.4-.061-7.639-1.057a21.139,21.139,0,0,1,4.186.422,21.731,21.731,0,0,0,3.933.429l-4.209-.668,7.1.753c-2.812-.225-.239.4,2.226.632.561-.336.6-.076,4.44.35-.715-.039.881.415,2.751.7.814.165,1.4.293,1.876.377C309.627-530.16,309.193-530.064,308.775-529.968Zm-57.535-1.463a3.345,3.345,0,0,1,1.155-.678c-.467.329.785.091,1.571-.139a21.969,21.969,0,0,1-2.674.838C251.259-531.409,251.243-531.416,251.239-531.43Zm-9.217-2.839-1.134.458a26.915,26.915,0,0,1,3.087-1.532c.666-.288,1.378-.587,2.1-.88s1.47-.529,2.176-.769c.335.087-1.68.86-4.114,1.964-1.234.515-2.547,1.167-3.769,1.759-1.23.576-2.321,1.189-3.1,1.645C238.811-532.563,240.417-533.409,242.022-534.269Zm72.608,1.57c1.221.207,2.45.39,3.668.623l.325.1C317.3-532.24,315.962-532.462,314.63-532.7Zm-3.382-.47a.349.349,0,0,1-.117-.063c.232.046.394.083.324.083C311.428-533.149,311.362-533.155,311.248-533.169Zm-67.716-.329-.326.1Zm59.555-.2.538.069C303.376-533.658,303.2-533.681,303.087-533.7Zm-2.782-.347c.75.018,1.5.053,2.248.09,1.219,0-.258.109.534.256C302.16-533.822,301.234-533.951,300.305-534.05Zm-56.955-.138c-.233.109-.433.2-.619.29A6.153,6.153,0,0,1,243.351-534.188Zm29.369-1.461-.018.011Zm.35-.109a1.719,1.719,0,0,0-.35.109A1.382,1.382,0,0,1,273.07-535.758Zm7.177-.853c-.093.024-.232.048-.373.073C279.754-536.557,279.915-536.59,280.247-536.611Zm-5.654-.108c-.306.039-.7.076-1.109.112Zm-11.286-1.923c.152.082-.848.237-1.951.45-1.1.229-2.324.449-2.653.482A35.507,35.507,0,0,1,263.307-538.643Zm54.087-.448a.742.742,0,0,0-.087.007.285.285,0,0,1,.088-.007c.162,0,.429.012.928.058C317.868-539.073,317.591-539.088,317.395-539.091Zm-.107.008-.013,0Zm.02,0-.02,0Zm-52.348-.1c.063.01.051.032-.058.066C264.9-539.136,264.927-539.158,264.959-539.18ZM310.205-540c-.666-.165,1.4-.228,3.974.254-1.083-.078-2.164-.173-3.248-.229,2.884.523,3.051.261,4.267.759C313.536-539.482,311.874-539.768,310.205-540Zm-36.849.123-1.192.163C272.488-539.77,272.84-539.82,273.356-539.875Z" transform="translate(-146.61 557.26)" fill="#d8d9bc" stroke="#d8d9bc" stroke-width="1"/>
    </g>
    <rect id="Rectangle_75" data-name="Rectangle 75" width="320" height="290" fill="none"/>
  </g>
</svg>
