<svg id="button_Button3-2_noramal_farme" data-name="button/Button3-2/noramal/farme" xmlns="http://www.w3.org/2000/svg" width="40" height="36" viewBox="0 0 40 36">
  <path id="Path_437" data-name="Path 437" d="M768.366,824.345l-3.262,2.617-2.043,3.351-.823,3.287v3.384l1.235,3.445,2.291,2.889,3.381,2.547,5.174,1.669,5.26.387,4.749-1.342,3.98-3.261,1.723-3.93.929-4.677-.929-3.67-1.723-2.573-2.827-2.358-4.031-2.241-2.819-1.016-5.316-.288Z" transform="translate(-756.461 -817.742)" fill="#fff"/>
  <path id="Union_1" data-name="Union 1" d="M178.457-516.262a3.359,3.359,0,0,0,.4-.018.411.411,0,0,0,.146-.029c-.152,0-.3,0-.451-.006a3.427,3.427,0,0,1-.363.006c-.141,0-.3-.012-.441-.018-.035-.012-.176-.029-.029-.029-.445-.059-.8-.1-1.166-.158-.207-.035-.424-.076-.664-.141-.088-.006-.2-.018-.34-.018a.568.568,0,0,1,.146,0c.111,0,.205.006-.041-.023a2.211,2.211,0,0,0-.322-.023.932.932,0,0,1-.184,0c.236,0,.2-.023.418-.029-.07-.023-.141-.053-.217-.082-.053-.006-.111-.012-.184-.023-.129-.006-.006.012.1.029s.193.023-.006.012a2.128,2.128,0,0,0-.318-.035,2.15,2.15,0,0,1-.363-.029h.1a1.987,1.987,0,0,0-.258-.047c-.088-.012-.182-.023-.281-.041s-.053.023-.082.041-.141.029-.582-.07l-.129.006c-.129-.023-.246-.059-.352-.082l-.3-.078c-.094-.029-.182-.053-.271-.076s-.164-.053-.246-.082c-.164-.047-.316-.105-.486-.158-.088-.035-.176-.064-.264-.1l-.146-.053c-.053-.018-.1-.041-.152-.059-.037-.02-.02-.018.012-.008-.283-.107-.617-.252-.928-.4-.17-.076-.34-.158-.486-.229s-.283-.141-.383-.189-.252-.146-.363-.217-.176-.123-.088-.076c-.082-.053-.187-.1-.281-.164-.006-.018.047.018.105.053a.47.47,0,0,0,.129.064c-.053-.035-.088-.053-.105-.064.023.006.029,0,.035-.006s.006-.006.023,0a.3.3,0,0,1,.111.047c.064.029.164.088.316.17.105.088,0,.029-.117-.035s-.252-.141-.193-.082c.2.123.188.094.205.094.264.146.246.158.229.158.053.023.164.078.275.137.059.029.113.064.166.088s.105.047.141.059c.287.135.246.129.205.117s-.064-.012.094.064l.223.047c.094.047.188.088.287.129s.188.088.287.123c.43.158.406.123.4.1s-.006-.029.059-.018.188.053.434.129c-.064-.012-.006.029.129.088.064.029.152.064.252.1s.207.076.324.111c-.141-.041-.336-.094-.547-.146s-.428-.135-.6-.205c.24.105.064.047-.135-.023s-.43-.164-.312-.094c.254.082.664.229.98.34l-.105-.029c.346.117.623.152,1.1.293.24.061.193.066.146.066a2.891,2.891,0,0,1,.387.082c.158-.006.313-.018.465-.029s.3-.029.457-.047a15.666,15.666,0,0,1-2.893-.787.878.878,0,0,1-.229-.076c-.111-.047-.229-.1-.234-.105l.059.018-.318-.141a1.056,1.056,0,0,1-.123-.047l.064.023c-.105-.047-.205-.094-.3-.146a1,1,0,0,1-.129-.053c.023.012.035.012.047.018a.7.7,0,0,0-.094-.047c-.129-.053-.346-.137-.545-.236-.143-.064-.277-.131-.377-.18a.213.213,0,0,1,.029.016l-.182-.082c-.029-.018-.006-.012.041.012-.135-.07-.287-.158-.424-.238.063.033.1.051.072.027-.3-.205-.434-.334-.969-.674.105.076.2.146.3.217-.24-.141-.475-.295-.709-.453-.211-.193.346.236.457.283-.545-.359-.9-.764-1.156-.928-.012-.047-.029-.129-.34-.416.1.117.053.076-.006.029s-.111-.094-.035.006c-.105-.088-.293-.3-.346-.342l.023.018a9.021,9.021,0,0,0-.875-.92c-.135-.164-.252-.312-.352-.447s-.187-.258-.27-.381-.158-.24-.24-.369-.166-.252-.26-.4a1.271,1.271,0,0,0-.187-.459c-.041-.053-.146-.217-.24-.369a1.88,1.88,0,0,0-.217-.328,3.6,3.6,0,0,0,.369.609c.088.234-.023.035.129.34-.064-.117-.223-.387-.369-.662-.076-.141-.146-.281-.211-.4s-.1-.236-.129-.307l.053.094c-.012-.023-.018-.041-.029-.064-.105-.182-.2-.34-.27-.445a3.564,3.564,0,0,0-.207-.48c-.041-.082-.076-.17-.123-.275s-.088-.225-.129-.359c.029.082.094.234.135.348.064.135.029.023-.012-.09s-.094-.252.012-.029c-.035-.064-.006.029.035.119.07.182.16.34.154.293-.061-.146-.107-.293-.154-.441l.064.148-.111-.336c-.035-.111-.064-.229-.094-.34-.012-.018,0,.047.012.082-.035-.1-.064-.2-.094-.3s-.053-.205-.082-.311c-.059-.207-.094-.418-.141-.629l-.018-.076-.012-.076c-.006-.053-.018-.105-.023-.158-.018-.1-.035-.205-.047-.3s-.018-.2-.023-.293a2.344,2.344,0,0,1-.023-.277,1.585,1.585,0,0,1-.053-.34c-.006-.094-.006-.193-.006-.311v-.176c0-.059.006-.117.012-.182.012-.5.111-1.045.141-1.338-.006.158.023.246.053.158-.006.064-.018.158-.029.281a3.682,3.682,0,0,1-.041.4.237.237,0,0,0-.018.059v.211c.006-.012.012-.006.012.035.006-.111.018-.217.029-.316s.018-.193.029-.287.018-.176.029-.264.023-.164.035-.24a8.469,8.469,0,0,1,.164-.857l.012-.006c.029-.141.07-.281.111-.416-.117.328-.158.3.006-.123l-.018.053c.047-.123.117-.307.193-.512.035-.1.084-.205.125-.311s.082-.2.129-.293l.094-.258a1.252,1.252,0,0,1,.205-.324c.047-.053.082-.076.129-.129.035-.07.07-.135.105-.2s.07-.123.1-.176.064-.111.094-.164.059-.105.082-.152c.059-.1.105-.2.164-.293s.105-.184.164-.277.248-.311.371-.463.205-.24.059-.035a3.877,3.877,0,0,0,.3-.48,2.272,2.272,0,0,1,.188-.254,4.635,4.635,0,0,1,.393-.4l-.158.2c.158-.176.336-.363.518-.557.1-.094.193-.187.287-.281s.193-.187.281-.277l.275-.24c.088-.082.17-.152.254-.217.158-.129.287-.234.375-.293-.111.135.135-.035.439-.229a4.422,4.422,0,0,1,.764-.43,3.128,3.128,0,0,1,.293-.211l-.076.029c.07-.035.088-.047.076-.029a2.014,2.014,0,0,0,.3-.176c-.164.088-.117.041-.105.018s.006-.018-.035,0-.123.07-.27.17a4.728,4.728,0,0,1,.521-.375c.117-.07.24-.141.381-.223.072-.035.148-.07.23-.111s.164-.082.258-.123v.035c-.1.041-.193.082-.287.129s-.189.088-.283.135c.064-.012-.223.135-.334.211.518-.27.494-.229.469-.2-.006.012-.018.023.037.006.029-.012.076-.035.152-.07s.17-.082.3-.141a.891.891,0,0,1,.24-.117c-.021.008-.029.018-.023.018s.053-.018.164-.059l.2-.105c.205-.047.047.023-.117.094s-.334.146-.164.094c-.105.053-.223.111-.346.17s-.24.129-.346.182c-.207.117-.342.205-.266.188.082-.041.152-.082.213-.111s.117-.064.164-.088c.1-.053.17-.1.246-.141a3.733,3.733,0,0,1,.668-.311.346.346,0,0,0,.082-.012c.26-.1.289-.141.43-.2a.949.949,0,0,0,.258-.059c.105-.041.211-.07.311-.105a2.545,2.545,0,0,1,.281-.082c.182-.053.365-.094.582-.146-.146.029-.27.047-.377.064s-.2.041-.281.059c-.041.006-.076.018-.111.023s-.07.018-.105.023c-.064.018-.129.029-.187.041a5.788,5.788,0,0,0-1.051.348,2.43,2.43,0,0,1,.223-.1c.094-.035.213-.078.324-.125a2.107,2.107,0,0,0,.457-.182v.035c.094-.029.188-.059.281-.082s.2-.047.3-.076c.053-.006.105-.023.158-.029s.107-.018.16-.029.117-.018.176-.023l.176-.018-.293.053.117-.018.111-.018.217-.018c.141-.012.27-.018.393-.023a6.357,6.357,0,0,0,.74-.047c-.182,0-.328.012-.436.018.33-.029.746-.029,1.1-.023.246-.012.494-.018.746-.023-.006.018.463.047.234.059.533.059.787.041,1.092.07.27.047.152.035-.041.018-.094-.006-.211-.018-.3-.023a.509.509,0,0,0-.184.006c.752.082,1.539.2,1.961.252a.927.927,0,0,1-.217-.059h0c.023.012.322.064.486.1l.123.006c.27.07.229.07-.012.041a6.03,6.03,0,0,1,.852.184c-.453-.09-1.021-.23-1.262-.254a6.385,6.385,0,0,1,.969.225c.264.082.557.158,1.143.322h-.035c-.041-.006-.088-.012.064.041.324.094.3.07.277.047s-.023-.029.041-.018a7.236,7.236,0,0,1-.811-.264l.111.012c-.006-.006.012-.006.082.012l-.082-.012c.012.012.264.088.34.117l.07-.012c-.018.012.07.053.2.105s.311.111.469.158c-.3-.129-.223-.1-.293-.164.111.023.2.053.275.076s.135.053.2.082a3.838,3.838,0,0,0,.51.182c-.041,0-.469-.152-.105-.006.307.117.277.076.482.146-.24-.059-.193-.018-.453-.082-.27-.094-.322-.117-.381-.135s-.105-.035-.375-.117c.152.059.3.117.445.182-.463-.158-.346-.088-.393-.088a5.913,5.913,0,0,0,.656.223,2.682,2.682,0,0,1,.447.146c.123.041.012-.012-.088-.053s-.184-.07.006-.006a1.492,1.492,0,0,0,.3.105,2.646,2.646,0,0,1,.34.123l-.094-.023c.076.041.158.076.24.111s.164.064.258.107.059-.014.088-.02.143.006.547.213l.123.023c.117.059.223.117.322.17l.27.152c.088.053.164.1.242.141s.146.094.217.135c.141.088.275.182.428.281q.105.079.229.158c.041.029.082.059.129.088s.088.066.129.1c.053.047-.041-.012-.082-.041.105.076.223.158.348.252.082.047.164.088.229.123l-.07-.029c.064.041.158.094.252.152s.2.117.293.176c.193.123.357.217.387.229a2.938,2.938,0,0,1-.469-.234c-.1-.047-.17-.07-.123-.041s.2.141.533.352c.129.082.211.141.27.176a.946.946,0,0,0,.131.064.849.849,0,0,1,.24.119s-.018-.006.006.018c.211.158.246.164.422.293a3.125,3.125,0,0,0-.363-.287,1.821,1.821,0,0,1,.27.193c.059.053.123.1.182.146s.111.088.152.123c-.117-.082-.012.012.088.105s.205.176.123.117c.047.047.1.094.148.141l.141.141c.094.088.188.176.281.258.176.172.322.318.434.412a4.117,4.117,0,0,0,.322.41,2.4,2.4,0,0,1,.189.24c.07.088.146.188.229.311-.053-.076-.158-.2-.229-.3-.107-.117-.037-.018.035.082s.152.217,0,.035c.047.053,0-.029-.066-.105-.117-.158-.246-.293-.229-.246a3.843,3.843,0,0,1,.266.393l-.1-.129.2.293c.059.1.117.207.182.307.012.012-.018-.047-.035-.076.059.088.117.176.17.264s.111.188.164.281c.111.182.205.381.3.568l.035.07.035.078c.023.047.041.094.064.141.041.1.088.188.123.281s.07.188.105.281.07.176.1.264a1.2,1.2,0,0,1,.141.316,2.346,2.346,0,0,1,.088.295c.018.053.029.111.047.17s.029.117.041.176c.117.486.176,1.045.223,1.332-.035-.158-.088-.234-.094-.141-.012-.064-.029-.158-.047-.275s-.053-.254-.07-.4c.012-.047-.047-.4.018-.182-.105-.475-.088-.34-.082-.205.012.094.018.182-.012.094.023.105.047.211.059.311s.035.193.053.283.023.182.035.264.023.164.035.24c.035.311.064.586.07.869l-.012.012c.012.141.006.287.006.428.023-.346.07-.328.029.123v-.059c-.012.129-.029.328-.047.545-.012.105-.023.217-.041.324s-.023.223-.041.322l-.023.27a1.148,1.148,0,0,1-.111.363c-.029.064-.059.1-.088.158-.018.076-.035.146-.053.219s-.035.135-.047.193-.029.129-.041.182-.029.117-.043.17c-.029.111-.053.217-.076.316l-.088.316c-.018.035-.041.094-.07.16s-.053.117-.076.182c-.006.018-.006.035-.012.053-.018.082-.029.164-.047.246-.029.158-.064.311-.094.445s-.059.264-.082.369c-.053.137-.111.277-.17.412.088-.252.158-.564.117-.494-.035.117-.047.166-.064.225s-.041.129-.105.293c0-.064.041-.205.07-.363-.135.328-.135.369-.129.387s.023.006-.1.229a.945.945,0,0,0-.111.363l-.1.176-.105.176a4.051,4.051,0,0,1-.418.775c-.006.018.035-.035.088-.105.023-.035.053-.076.076-.117a.654.654,0,0,0,.059-.105,2.2,2.2,0,0,1-.3.527,1.154,1.154,0,0,0-.17.205c-.082.111-.187.254-.287.383-.205.258-.4.469-.334.346a10.857,10.857,0,0,1-1.2,1.2,12.686,12.686,0,0,1-1.15.885c-.047.029-.111.064-.17.1s-.123.072-.17.1c-.094.053-.141.07-.029-.012-.041.029-.088.053-.129.082s-.082.047-.119.07q-.123.07-.229.141c-.152.082-.281.17-.422.24-.07.041-.141.076-.211.117s-.141.07-.217.111c-.152.076-.324.146-.512.229-.07.023.342-.152.307-.158a7.183,7.183,0,0,1-.74.311c-.135.041-.281.094-.439.146s-.336.113-.535.178a1.219,1.219,0,0,0,.176-.07l-.17.064c-.111.041-.246.082-.352.117-.064.012-.012-.006.035-.023s.082-.023.053-.018c-.393.105-.768.2-1.127.275s-.715.146-1.074.2a11.966,11.966,0,0,1-1.879.15C178.641-516.258,178.549-516.26,178.457-516.262ZM177-516.59c.035.006.07.006.1.012a11.045,11.045,0,0,0,1.326.105c.111,0-.094.012-.111.018.141.006.258.006.381.012s.252.006.428,0c.111-.018.07-.018-.023-.018h-.322c.029-.023.117-.018.311-.023a3.741,3.741,0,0,0,.582-.006c.146-.006.3-.023.434-.029a2.1,2.1,0,0,1,.311-.012c.518-.07.471-.088.424-.1s-.094-.012.41-.088l.3-.023c.576-.141,1.309-.352,1.938-.57l-.131.047c-.088.047.061.006.131-.012.48-.152.885-.357,1.178-.457.277-.135.641-.34,1-.551v-.012c-.082.047-.164.1-.252.152s-.176.094-.27.141a.787.787,0,0,1-.141.07c-.047.023-.1.047-.152.07s-.105.041-.16.064-.105.041-.164.064c.088-.041.182-.082.271-.129-.041.018-.078.035-.113.047s-.07.029-.105.047c-.064.023-.135.053-.2.07-.129.047-.258.082-.375.117-.24.076-.463.141-.7.229.172-.041.313-.088.418-.123a10.769,10.769,0,0,1-1.062.3c-.24.072-.475.143-.717.207,0-.012-.076,0-.152.012-.111.012-.217.029-.088-.006-.527.076-.773.152-1.08.205-.27.018-.152,0,.037-.029.1-.018.211-.035.3-.053a.81.81,0,0,0,.176-.053c-.746.105-1.537.193-1.961.246.154-.006.23-.006.219.006h0a4.709,4.709,0,0,0-.494.023l-.117.023c-.281,0-.24-.012,0-.041a6.153,6.153,0,0,1-.873.029c.463-.023,1.049-.029,1.289-.064a7.691,7.691,0,0,1-1,.023c-.275-.012-.582-.018-1.191-.029-.012-.006.193-.018-.041-.029-.541-.018-.141.035-.311.053a7.084,7.084,0,0,1,.855.053l-.117.012c.012.006-.012.006-.082.012l.082-.012c-.012-.006-.275-.012-.357-.023Zm-.434.035-.107-.035a.787.787,0,0,1-.123-.006C176.414-516.578,176.49-516.566,176.568-516.555Zm.012-.047a2,2,0,0,0,.252.035c-.105-.023-.205-.041-.295-.059A.132.132,0,0,1,176.58-516.6Zm.41.006a.851.851,0,0,0-.223-.041l-.152-.018C176.738-516.631,176.861-516.613,176.99-516.6Zm-.687-.076c-.006,0-.012-.006-.023-.006h-.006C176.285-516.678,176.291-516.672,176.3-516.672Zm-.07-.029a.639.639,0,0,1,.1.006.171.171,0,0,0-.053-.012c-.111-.018-.229-.035-.346-.047.088.006.152.006.205.012-.1-.023-.17-.035-.311-.076-.082-.006-.135-.006-.187-.006a1.37,1.37,0,0,1-.264-.006c.094.029.188.059.281.082l.357.035c.035,0,.07.006.164.006-.012,0-.018-.006-.023-.006A.4.4,0,0,1,176.232-516.7Zm-.059-.041c.2.006.129-.023.158-.029-.24-.029-.393-.041-.5-.047C175.928-516.795,176.045-516.771,176.174-516.742Zm.529-.047a3.535,3.535,0,0,0,.4.012c.076-.012.246-.018.4-.023a.836.836,0,0,0,.3-.035c.035-.006-.07-.012-.193-.018-.141,0-.281-.006-.439-.012a.251.251,0,0,1-.088.018c.152.006.258.018.193.041a1.248,1.248,0,0,0-.375-.018,1.5,1.5,0,0,1-.406,0C176.438-516.812,176.557-516.8,176.7-516.789Zm3.6-.33.082.008c-.656.076-1.32.117-1.953.129.574.023,1.063.012,1.174.023.053.006.012.023-.164.041s-.488.047-.969.059l-.123.012c.252.006.686-.018,1.092-.053.164-.023.5-.088.8-.146.152-.035.293-.064.387-.09s.166-.041.16-.041h-.021C180.656-517.178,180.5-517.135,180.3-517.119Zm-6.824.125c.041,0,.059,0,.059-.006Zm7.734-.047c.322-.047.545-.09.762-.131s.418-.094.705-.17c-.076.012-.158.023-.24.029a5.433,5.433,0,0,1,.539-.117,1.3,1.3,0,0,0,.211-.035,3.472,3.472,0,0,0,.389-.105c.146-.053.416-.141.645-.229.117-.041.223-.082.3-.117a.542.542,0,0,0,.117-.064c-.006,0-.006-.006.006-.012s0,.006-.006.012a.267.267,0,0,0,.064-.018l.014-.006c.041-.012.094-.035.146-.053.082-.029.164-.07.24-.105s.152-.076.211-.111a2.077,2.077,0,0,1,.24-.164c.1-.061.205-.137.293-.2s.164-.111.205-.141.035-.035-.018-.006c-.094.064-.211.141-.316.205a1.638,1.638,0,0,1-.311.166l.193-.113.188-.123c-.088.047-.17.094-.264.135.141-.07.111-.082.035-.076-.076.047-.158.088-.234.137-.041.018-.076.047-.117.064l-.086.043.01,0-.234.129-.242.117a3.314,3.314,0,0,1,.324-.117c.035-.006-.012.035-.223.135.029-.029-.1.012.047-.059-.295.117-.945.322-.764.3.275-.117.311-.123.334-.111s.035.018.252-.082a6.121,6.121,0,0,1-.691.281c.229-.1-.076-.023-.434.07-.154.059-.582.17-.846.24.1,0-.123.076.311-.029a4.645,4.645,0,0,1-.68.164,2.152,2.152,0,0,0,.281-.082c-.182.018-.387.064-.5.082-.1.018-.184.041-.277.059a.336.336,0,0,1,.07-.006l-.3.082c.4-.088.188-.023.188-.006,0-.018-.064-.006-.146.012s-.187.041-.258.055l.311-.02C181.508-517.082,181.127-517.059,181.215-517.041Zm-.346-.012c.375-.053.287-.053.346-.078-.135.025-.264.049-.393.066a.274.274,0,0,1,.035,0C180.883-517.068,180.891-517.062,180.869-517.053Zm-6.2-.047.088-.012c-.076-.014-.164-.031-.246-.043A.424.424,0,0,0,174.672-517.1Zm-1.836-.061c.053.018.117.029.176.049-.105-.031-.211-.061-.316-.1A.977.977,0,0,0,172.836-517.16Zm4.2-.059c-.734.012-.035.053-.164.094.123.006.252.006.375.006a2.91,2.91,0,0,0,.369,0c-.451-.018-.006-.023.152-.029a1.592,1.592,0,0,0,.348.012c.182-.012.381-.018.516-.023l-.023.006c.246,0,.67-.029.969-.059-.018-.012.363-.088.545-.141a1.279,1.279,0,0,1-.3.018c.006-.012.07-.023.047-.029.053-.006.152-.018.164-.018.035-.012,0-.012-.041-.012h-.076c-.545.07-1.1.105-1.326.152.17.012.287-.029.475-.029a8.414,8.414,0,0,1-1.072.059l-.148-.023c-.152,0-.3.006-.457.006a3.589,3.589,0,0,1,.553-.035,2.015,2.015,0,0,0-.324-.012c-.141,0-.3.006-.439,0-.053.006-.1.018-.152.023.059-.012-.57-.047-.123-.047h.363c.123,0,.24-.006.363-.006-.07-.012-.135-.018-.205-.029.205.006.41.006.611,0l-.143.018c.125-.006.219-.006.295-.006a.927.927,0,0,1,.182,0,.811.811,0,0,1,.158.012.644.644,0,0,0,.164.006c.094,0,.234-.006.48-.029.307-.064.635-.088,1.238-.158-.434.064-.041.035-.2.076a4.081,4.081,0,0,0,.488-.064c.123-.029.217-.053.328-.076.117,0,.2.006-.2.064-.023.023.123,0,.27-.029a.9.9,0,0,1,.293-.029,6.432,6.432,0,0,0,1.18-.311c.07-.023.141-.047.217-.076s.164-.053.27-.088c.2-.059.459-.135.828-.24l-.053.035c.229-.082.434-.164.615-.24.088-.037.176-.072.264-.107s.16-.082.242-.123a7.1,7.1,0,0,0,.99-.592c.2-.123.395-.246.582-.381-.059.053-.164.152-.234.217s-.1.105-.049.078c-.068.037-.135.078-.2.121s-.152.088-.229.135l-.111.076a1.162,1.162,0,0,0-.117.064c-.076.047-.158.088-.24.129-.012.012.018.006.053-.012s.082-.041.111-.053a.959.959,0,0,1-.129.07l-.117.064c-.082.035-.17.088-.3.152a.957.957,0,0,0,.135-.053c.047-.018.064-.023-.041.035l-.182.07c-.059.023-.123.053-.184.07a2.36,2.36,0,0,0-.24.125.952.952,0,0,0-.117.064,2.221,2.221,0,0,1-.451.182,4.108,4.108,0,0,1,.539-.27c-.135.047-.047.012.041-.029s.176-.09.059-.041c-.088.047-.176.082-.252.117s-.152.059-.234.088c-.164.059-.34.117-.6.211a1.564,1.564,0,0,1,.205-.082c-.258.076-.518.146-.781.211.1-.018-.059.035-.234.082s-.363.105-.322.111c.422-.088.568-.135.727-.176s.34-.094.8-.24c-.258.1-.594.229-.746.3q.018,0-.035.018a.2.2,0,0,1,.035-.018.477.477,0,0,0-.053.012c-.135.07.012.035.029.094.424-.164.723-.223,1.215-.422.082-.064-.3.07-.551.158.146-.053.293-.111.434-.17l-.082.041a7.789,7.789,0,0,0,1.08-.447c-.193.1-.252.148-.352.207.064-.029.135-.059.205-.088s.141-.061.217-.1c-.047-.012-.035-.041.094-.111a1.162,1.162,0,0,0,.117-.064.69.69,0,0,0,.111-.064c.076-.041.141-.082.205-.117.129-.076.24-.146.346-.211.2-.129.348-.217.465-.293l.07-.053c-.064.023.035-.064.164-.187s.293-.283.363-.371c.006.012.082-.053.176-.135s.2-.193.289-.258c.018-.035.012-.053-.006-.053a12.639,12.639,0,0,0,1.449-1.7,4.2,4.2,0,0,0,.182-.553c.258-.4.568-.967.773-1.32l-.006.035c.047-.088.094-.17.135-.252s.072-.164.1-.234c.053-.1.041-.053.029-.006s-.029.082.006.023c.094-.205.176-.422.258-.627a1.578,1.578,0,0,1-.117.334l-.111.258c-.041.082-.076.164-.105.223.018-.047.059-.141.041-.111-.066.141-.166.346-.254.529a2.159,2.159,0,0,1-.234.393c-.035.07,0-.006.006-.035s.006-.023-.018.006-.053.082-.117.193a1.38,1.38,0,0,0-.234.445,2.071,2.071,0,0,0,.146-.205c.064-.094.117-.17.076-.082.07-.117.111-.2.164-.293s.1-.193.193-.346c-.064.123-.135.264-.2.393a2.763,2.763,0,0,1-.182.293c-.064.117-.105.205-.135.264s-.029.094-.023.105.07-.035.141-.141a1.1,1.1,0,0,1,.111-.234c.111-.2.217-.393-.018-.029.146-.281.416-.793.576-1.168v.018l.105-.229c.035-.082.07-.158.1-.234a1.448,1.448,0,0,0-.064.223c.047-.111.082-.223.123-.334s.082-.223.117-.334c-.117.381.111-.219.182-.389.006-.076.076-.34-.023-.1a.918.918,0,0,0-.076.223c-.012.035-.018.07-.064.2.035-.125.07-.248.1-.371l.012-.029.047-.229c.047-.117.064-.17.07-.176s.012.012.012.029.006.041.018.006.018-.059.035-.117v-.023l.006.012a.138.138,0,0,1,.012-.047l.006-.064-.035.035-.018.012c.006-.018.012-.035.018-.059a.1.1,0,0,0,.006-.041v.041c.012-.041.023-.076.035-.117a1.535,1.535,0,0,1,.006-.164c.012-.064.018-.029.023.047v.029c.064-.23.135-.477.193-.717v-.035c-.006-.076-.006-.164-.012-.246s0-.182-.006-.27-.006-.182-.012-.27c-.006-.178-.029-.342-.047-.482a1.239,1.239,0,0,0-.064-.293c-.012-.2.018-.012.047.146s.047.3.035,0a5.567,5.567,0,0,1,.064.557,1.929,1.929,0,0,0,.041.383c-.029-.342.023-.129.012-.348-.012-.129-.035-.252-.053-.381l.006.088c-.012-.082-.023-.164-.035-.258s-.029-.182-.041-.281-.029-.2-.047-.3-.041-.213-.059-.318c-.012-.053-.018-.105-.029-.158s-.023-.111-.035-.164c-.018-.111-.041-.217-.064-.328s-.053-.211-.076-.316a1.467,1.467,0,0,0-.041-.152,1.183,1.183,0,0,0-.041-.148c-.053-.17-.105-.322-.158-.463s-.105-.287-.17-.434-.111-.287-.182-.445c-.029-.084-.066-.166-.1-.254s-.07-.176-.111-.27c.059.111-.006-.053-.053-.182s-.082-.229.041.006a3.826,3.826,0,0,0-.217-.48.8.8,0,0,0-.129-.213,3.679,3.679,0,0,1,.164.371c-.041-.088-.123-.223-.193-.365s-.141-.281-.176-.363c.035.076.023.047.041.059a.956.956,0,0,0-.141-.246.646.646,0,0,1-.123-.164,7.613,7.613,0,0,0-.465-.781c-.076-.094-.158-.187-.242-.281.047.051,0-.02-.068-.117a1.982,1.982,0,0,1-.182-.264c-.182-.205-.357-.369-.633-.693.129.123-.242-.293-.23-.316-.123-.135-.24-.258-.357-.363-.059-.053-.117-.1-.176-.152l-.176-.141c-.229-.193-.457-.371-.717-.6.018.006.137.082-.012-.053-.105-.07-.264-.193-.393-.287-.018,0-.012.012.076.064-.146-.07-.275-.141-.381-.2.129.123.4.275.492.363-.076-.047-.182-.117-.311-.2-.064-.041-.129-.088-.2-.135s-.146-.094-.223-.146l-.336-.211c-.018-.006-.041-.012-.07-.023-.082-.041-.152-.07-.205-.094.336.223.8.533,1.2.838-.076-.07-.152-.129-.229-.193.094.07.193.141.287.211-.088-.076-.17-.152-.258-.229.27.2.5.381.74.574-.277-.229-.365-.34-.207-.211a6.884,6.884,0,0,0,.564.453c-.129-.111-.293-.26-.176-.176.217.211.357.34.486.469a6,6,0,0,1,.434.463c-.006-.041.117.082.242.223s.264.295.3.318l-.164-.2.188.2.094.094.094.1c.129.188.07.135.018.082s-.123-.117.123.205c.105.141.188.24.252.322s.111.141.164.2.094.111.146.182.113.154.189.266c-.064-.07-.16-.187-.271-.336s-.246-.322-.381-.5c.053.076.105.146.152.223-.047-.053-.164-.2-.293-.363s-.27-.34-.375-.457c.182.182.141.135.047.023-.047-.059-.111-.135-.17-.207s-.123-.135-.158-.182c-.02-.006-.008.018.012.041.029.041.07.088-.113-.088.225.246.277.295.506.576l-.146-.164c-.064-.07-.117-.131-.17-.178-.1-.1-.184-.17-.26-.24a6.366,6.366,0,0,1-.6-.557c.146.135.129.1.07.035s-.158-.176-.17-.2c-.035-.029-.076-.064-.129-.111s-.1-.082-.152-.129-.105-.082-.152-.125-.09-.064-.119-.088l.078.119c-.1-.078-.178-.143-.248-.207l-.2-.182a2.494,2.494,0,0,0-.223-.187,3.391,3.391,0,0,0-.3-.205c-.041-.012.064.059.164.135l.131.092c-.072-.049-.139-.092-.2-.139s-.135-.094-.193-.135c-.123-.088-.229-.17-.33-.246s-.2-.146-.311-.223l-.006-.006c-.059-.023-.1-.041-.135-.053-.07-.031-.117-.049-.252-.113a1.885,1.885,0,0,0-.451-.234c-.135-.059-.289-.123-.441-.187s-.3-.123-.428-.17c.082.023.182.064.24.082.381.111-.246-.117-.258-.129l-.246-.07c.041.012.076.012-.018-.023s-.164-.047-.223-.064-.1-.023-.146-.029a2.7,2.7,0,0,1-.365-.094c-.012-.012.029-.006.07,0,.07.006.141.012,0-.035a1.662,1.662,0,0,0-.246-.117c-.135-.047-.322-.105-.574-.17a2.29,2.29,0,0,1-.279-.062l.016,0c-.107-.041-.219-.07-.324-.105.293.035.57.172.863.219l.035-.023c.223.059.521.141.662.17-.164-.059-.27-.088-.375-.117s-.223-.059-.41-.111c-.047-.031.223.029.264.035l-.064.006c.223.07.393.123.574.17.059.012.119.029.178.041l-.143-.047-.322-.111.135.023c.182.047.365.105.547.164.053.018.105.041.17.064a3.091,3.091,0,0,1,.469.188l.3.105c.129.053.26.105.395.152-.012-.006-.018-.012-.029-.018-.094-.047-.187-.094-.283-.135-.34-.135-.68-.252-1.025-.357-.211-.088-.365-.152-.506-.217l-.088-.035c-.035-.018-.064-.023-.07-.029a.254.254,0,0,0,.029.006c-.041-.02-.082-.037-.123-.055-.07-.012-.141-.029-.217-.041l-.357-.076.311.088c-.1-.018-.311-.076-.557-.152s-.529-.141-.77-.205a1.741,1.741,0,0,1,.27.047l-.146-.035-.047-.018-.152-.035.047.018c-.2-.053-.393-.105-.592-.152l.012.006c-.113-.029-.207-.059-.26-.076a.249.249,0,0,0,.064.012c-.059-.012-.1-.023-.135-.029a1.436,1.436,0,0,1-.152-.059.987.987,0,0,0-.152-.047c-.088-.023-.229-.047-.475-.088-.312-.018-.641-.07-1.238-.158.439.047.047-.023.217-.023a4.619,4.619,0,0,0-.492-.059c-.123-.006-.219,0-.336-.006-.111-.029-.193-.053.207-.012.053-.041-.523-.047-.559-.088a6.4,6.4,0,0,0-1.221.012l-.234.018c-.082.006-.17.006-.275.012-.076.006-.164.006-.252.012a1.138,1.138,0,0,1-.141.012,6.6,6.6,0,0,1,.691-.018,1.193,1.193,0,0,0-.258.023c.164,0,.252,0,.334-.006s.146-.006.275,0c-.328.012-.814.023-1.3.082a11.812,11.812,0,0,0-1.309.234c-.105.023.088-.041.105-.047l-.369.076c-.123.029-.246.059-.416.111-.105.047-.064.035.023.012s.229-.059.311-.082c-.018.029-.1.053-.287.105a3.65,3.65,0,0,0-.562.146l-.412.135c-.129.047-.234.076-.293.094-.486.193-.434.2-.387.2s.094-.012-.371.184l-.287.1c-.311.17-.668.375-1.02.592-.025.018-.055.035-.084.059l.064-.053c-.064.041-.123.082-.187.117-.117.094-.229.188-.334.264l-.006-.018c-.1.082-.193.164-.293.242a2.371,2.371,0,0,1,.252-.213c.105-.076.229-.158.357-.258q-.176.105-.334.211a.081.081,0,0,1-.018.023l-.223.141-.088.084c-.117.076-.088.023.041-.1-.082.059-.164.113-.234.166a1.665,1.665,0,0,0-.24.369c-.178.158-.371.352-.564.539.068-.059.135-.113.2-.166-.074.061-.148.123-.219.184-.193.193-.375.383-.521.523l.018-.035c-.07.076-.141.146-.2.217s-.111.135-.16.193c-.082.076-.059.035-.035-.006s.047-.07,0-.018c-.146.176-.275.363-.416.545a2.387,2.387,0,0,1,.205-.293,2.155,2.155,0,0,1,.182-.223c.035-.041.064-.082.094-.117l-.234.246c.105-.123.205-.258.313-.381l-.064.094a3.692,3.692,0,0,0,.3-.316v.012a.877.877,0,0,1,.064-.076,2.181,2.181,0,0,1,.328-.324c.053-.059,0,.006-.012.035-.012.012-.012.018.018,0s.07-.07.17-.158a1.7,1.7,0,0,0,.34-.369.965.965,0,0,0-.193.152c-.088.076-.158.141-.094.064a3.076,3.076,0,0,0-.24.246c-.07.076-.152.158-.275.281.094-.1.2-.223.293-.328a2.718,2.718,0,0,1,.258-.24c.088-.1.158-.17.193-.217a.269.269,0,0,0,.059-.1l-.006-.006q-.105.079-.193.141c-.123.135-.592.6-.141.2-.211.234-.609.658-.873.986l.012-.023-.166.2c-.053.07-.111.135-.164.205a1.67,1.67,0,0,0,.129-.2,1.287,1.287,0,0,0-.082.105.567.567,0,0,1-.041.053c-.029.047-.059.088-.088.129-.006.012-.018.023-.023.035a1.319,1.319,0,0,1-.129.188.489.489,0,0,0-.047.07c.012-.023.023-.041.029-.053-.006.012-.018.023-.029.041l-.006-.018c-.082.105-.215.279-.273.355.014-.014.023-.027.033-.037a.252.252,0,0,0-.041.059c-.035.088-.152.281,0,.082a1.11,1.11,0,0,0,.135-.187.838.838,0,0,1,.117-.178c-.064.105-.135.219-.2.33l-.018.023-.105.205a.921.921,0,0,1-.117.158c-.012.006-.006-.018-.006-.035.012-.041.012-.064-.152.229l.082-.053c-.211.322-.441.7-.635,1.063-.094.182-.187.357-.258.521-.035.082-.07.164-.1.234s-.059.146-.076.211c.029-.146.018-.223-.082-.041.023-.053.053-.117.082-.2s.07-.158.111-.246c.07-.176.164-.352.234-.51a6.932,6.932,0,0,1-.293.732.824.824,0,0,0,.111-.187c.041-.088.076-.193.117-.293.088-.193.164-.375.205-.381.229-.406.311-.559.377-.705a1.673,1.673,0,0,1,.117-.223c.059-.088.129-.205.252-.363-.018-.018.047-.1.082-.17-.018.023-.035.053-.053.076a.269.269,0,0,1-.07.082,2.234,2.234,0,0,1,.141-.187.094.094,0,0,0,.018-.047,1.356,1.356,0,0,0-.176.217,1.848,1.848,0,0,0-.111.158c-.035.064-.076.123-.117.188s-.076.135-.119.2-.076.135-.117.205-.076.129-.111.193-.07.123-.1.184c.018-.049.064-.143.07-.16-.041.07-.076.137-.111.2l.023-.018a2.838,2.838,0,0,1-.158.281c-.035.076-.064.152-.105.24l.018-.029a1.5,1.5,0,0,1-.141.311.728.728,0,0,0-.117.17c-.006.023-.023.064-.041.111s-.035.094-.053.141c-.035.09-.059.16-.035.137-.012.029-.023.053-.035.076s-.018.064-.041.152c-.088.252-.158.5-.223.762l.018.012.094-.322.053-.158.053-.158a.734.734,0,0,0-.047.217,2.1,2.1,0,0,1-.053.24c.041-.205.018-.135-.023-.012a2.981,2.981,0,0,1-.111.322l-.041.266.006-.064a3.013,3.013,0,0,0-.09.492c.059-.252.113-.422.172-.705l-.018.105c-.018.1-.035.189-.053.277-.023.182-.049.352-.061.416-.018.141-.029.258-.053.375-.012.059-.023.117-.029.176s-.012.123-.018.188c.012-.229-.012-.217-.029-.229-.012.135-.018.271-.023.406a.543.543,0,0,1,.006.117.24.24,0,0,1-.006-.064v.1c.006.1.012.188.029.141l-.029.146v.006c0,.135.006.264.012.393a1.044,1.044,0,0,1-.012.3,1.8,1.8,0,0,0,.029.441c.023.018.018-.059.023-.17l.035.264c.012.088.029.17.041.258l-.018-.035.047.217c.012.07.031.141.049.211,0,.064-.012.029-.037-.047-.012-.035-.023-.082-.035-.129s-.023-.105-.035-.152c-.037-.186-.064-.311-.027,0a4.377,4.377,0,0,0,.211.686c-.018-.088-.035-.172-.047-.254-.018-.111-.041-.223-.053-.34a10.709,10.709,0,0,0,.58,2.031c.023.047.041.094.064.135a2.408,2.408,0,0,0,.123.246c.082.146.158.275.217.369.129.223.193.357.275.518.041.076.088.158.154.264.029.047.07.1.111.164.018.029.041.059.064.094a1.287,1.287,0,0,0,.082.105c.035.041.041.035.047.029s.018-.012.2.246c0,0-.033-.033-.064-.064-.064-.076-.141-.146.082.141.135.141.275.318.428.512.076.094.158.188.24.281.047.047.088.094.131.141a1.528,1.528,0,0,0,.141.135c.176.2.51.527.422.48-.152-.152-.334-.34-.486-.492s-.266-.281-.3-.311c.018.012-.006-.018-.029-.053-.041-.047-.082-.1.059.041-.211-.24-.275-.322-.34-.393-.029-.037-.064-.066-.111-.119-.018-.029-.047-.059-.076-.1a1.178,1.178,0,0,1-.111-.146c-.018-.012.018.053.076.129a1.526,1.526,0,0,0,.17.213c-.006.006-.059-.043-.123-.119-.035-.035-.07-.076-.111-.123s-.07-.088-.105-.135c-.135-.17-.234-.293-.1-.07a4.336,4.336,0,0,0,.457.523c.07.07.129.141.2.211s.141.158.223.264c-.082-.07-.176-.17-.275-.275a3.307,3.307,0,0,0-.3-.318c.088.119.176.236.27.354l.227.209a3.282,3.282,0,0,0,.508.529c.07.053.135.105.217.17s.182.148.311.266c-.146-.16-.105-.148-.064-.131s.07.025-.023-.076c.17.154.316.295.422.395s.164.158.152.176c-.176-.135-.264-.205-.311-.24s-.053-.035-.059-.029-.018.018-.328-.242c.029.037.012.031,0,.031-.029,0-.059-.006.17.211.205.176.182.141.158.105-.012-.018-.023-.029-.012-.018a1.624,1.624,0,0,1,.164.135c.023.023.047.047.029.035.205.146.217.2.459.375l-.059-.041c.275.258.34.234.574.457-.041-.053.006-.023.082.029s.193.131.275.184c-.123-.1-.223-.184-.34-.295s-.281-.246-.527-.445c-.076-.035-.047.006-.254-.152.107.088.213.176.318.264-.07-.053-.129-.094-.193-.141l-.295-.27c.395.316.236.146.418.264a1.84,1.84,0,0,0,.2.17c.047.035.082.064.111.088a2.464,2.464,0,0,1,.211.164,2.007,2.007,0,0,0,.375.342c.117.088.246.193.371.293s.264.193.369.27c-.07-.047-.158-.105-.205-.141-.336-.2.205.176.211.193l.223.129c-.041-.023-.07-.035.012.023a2.135,2.135,0,0,0,.193.117,1.341,1.341,0,0,0,.135.064c.082.041.164.082.33.182,0,.006-.043-.006-.078-.018-.064-.023-.123-.053,0,.035a2.166,2.166,0,0,0,.207.172,4.868,4.868,0,0,0,.5.311,3.006,3.006,0,0,1,.293.152l-.039-.021c.09.063.186.119.273.18-.275-.111-.5-.311-.773-.428l-.041.012c-.2-.111-.465-.266-.6-.33.146.1.24.154.33.207s.2.111.369.211c.041.041-.205-.082-.24-.105l.059.018a5.518,5.518,0,0,0-.512-.307c-.082-.047-.164-.094-.264-.152-.047-.023-.094-.053-.152-.088s-.105-.07-.164-.111-.029-.023-.006-.018a6.1,6.1,0,0,1-.582-.381,6.135,6.135,0,0,0-.568-.393l.129.076c-.064-.041-.146-.094-.234-.158s-.187-.137-.3-.213-.229-.158-.346-.246-.236-.182-.354-.275l-.012.006a1.5,1.5,0,0,1-.217-.187v.006c-.117-.1-.229-.2-.34-.287-.088-.076-.176-.146-.252-.217a1.129,1.129,0,0,1,.088.094c-.053-.059-.088-.094-.111-.117a.742.742,0,0,0,.064.076,1,1,0,0,0,.111.111c.082.059.48.445.445.369.094.094.223.2.346.3s.242.2.313.264c-.26-.234.205.123.27.146.076.088.4.311.346.307l-.059-.047a1.15,1.15,0,0,0-.187-.146c-.152-.1-.023.006.094.105.059.047.117.094.135.111s0,.012-.094-.053c.117.082.246.17.375.264s.27.193.406.287.281.182.416.27c.07.047.141.088.205.135s.135.076.2.111a2.852,2.852,0,0,1-.275-.187c.105.082.3.193.463.295s.3.2.322.217c-.17-.105-.363-.223-.58-.354-.023.018.51.318.527.348.1.059.213.111.324.17l.328.158-.275-.158c.094.041.275.152.492.281s.475.27.688.393a4.08,4.08,0,0,1-.488-.246c-.047-.029-.094-.053-.146-.082s-.1-.059-.146-.088c-.105-.064-.217-.129-.328-.187-.17-.094-.123-.053-.076-.018s.094.076-.059-.006a2.33,2.33,0,0,0,.381.223l-.012-.012.047.029-.035-.018.117.076c-.146-.064-.375-.187-.621-.322-.119-.064-.242-.141-.365-.211s-.234-.135-.34-.193a.363.363,0,0,0,.082.035c-.076-.049-.152-.1-.229-.148l-.229-.158c-.152-.105-.3-.205-.453-.3a1.909,1.909,0,0,0,.307.205c.006.018-.277-.17-.389-.234.271.2.035.053.207.182-.09-.059-.172-.111-.26-.176s-.17-.123-.275-.205c-.064-.053-.023-.029.023-.006s.07.035.07.023c-.117-.076-.187-.141-.281-.211a1.824,1.824,0,0,0-.146-.117,2.577,2.577,0,0,0-.205-.158c.41.334-.135-.053-.287-.154l.07.055a1.9,1.9,0,0,1-.166-.107.514.514,0,0,1,.066.064c.047.049.094.1.152.154s.117.105.182.158c.023.029.023.041.023.041l.035.029-.053-.035c-.012-.012-.029-.023-.059-.047-.152-.111-.27-.205-.088-.023-.082-.064-.158-.146-.242-.217s-.158-.154-.229-.219c-.135-.135-.234-.229-.24-.211a3.656,3.656,0,0,0,.258.293c-.111-.105-.2-.193-.281-.275s-.146-.146-.217-.211-.135-.135-.205-.217c-.047-.047-.094-.1-.146-.158s-.1-.1-.152-.146c-.076-.07-.148-.135-.207-.193l.059.053a.851.851,0,0,0-.117-.125c.023.031.047.066.07.1.084.111.143.2-.041.006a4.856,4.856,0,0,0,.342.41c.1.105.17.176.182.17-.223-.258-.082-.088-.264-.311.07.07.182.182.287.3s.217.234.27.311c-.041-.053-.041-.047-.047-.047h-.006c.135.152.17.182.205.2a1.6,1.6,0,0,1,.158.129,7.9,7.9,0,0,0,.658.641l.328.223c-.094-.059-.023,0,.076.082a2.5,2.5,0,0,1,.246.211c.234.158.447.27.8.512-.158-.088.316.229.311.252.152.094.3.182.439.258.076.035.141.07.213.105s.135.064.205.094c.275.129.545.24.855.4-.023,0-.158-.047.029.047.146.055.406.166.57.225h.006l.016.006-.008,0a.824.824,0,0,0,.121.043c.287.076.439.111,1,.264a1.083,1.083,0,0,0-.289-.111c-.141-.047-.311-.1-.41-.129l-.182-.035c-.152-.105-.492-.182-.611-.254.09.025.207.066.354.113.07.029.146.053.229.082l.252.088c.352.111.734.229,1.027.293-.039-.016-.082-.031-.131-.049.082.027.17.059.266.09a.61.61,0,0,1,.287.012c-.082.006.094.064-.182.006a5.073,5.073,0,0,0,.717.158c-.225-.059-.2-.059-.09-.041-.023-.012-.053-.018-.076-.029.07.023-.076-.064-.258-.141-.076-.035-.135-.064-.176-.082.688.3.182.006.863.3h.035c.123.029.105.029.035.023h-.018a.657.657,0,0,1,.076.029.883.883,0,0,1-.088-.035.146.146,0,0,1-.047-.006.667.667,0,0,0,.111.053.876.876,0,0,0,.246.035.614.614,0,0,1-.182-.006.454.454,0,0,0,.094.041c.012.006.018.012.029.018h.082a2.128,2.128,0,0,1,.287,0l-.141-.023c-.064-.018.182.018.234.023-.146-.006.182.041.088.041l.342.035.346.029-.135.006c-.193,0-.383-.012-.576-.018.229.023.395.053.547.076s.287.053.457.076l.1-.018c.4.035.77.064.521.088C176.84-517.219,177.018-517.219,177.037-517.219Zm-4.906-.463c.406.123.7.205.992.281s.58.135.98.193a5.135,5.135,0,0,0-.664-.164c-.146-.035-.3-.07-.445-.111a3.384,3.384,0,0,1-.41-.129,5.765,5.765,0,0,0,.563.146,15.461,15.461,0,0,1-1.484-.48l-.123-.029c.176.064.322.123.434.158s.176.064.193.07a5.693,5.693,0,0,0-.914-.264l.082.035-.17-.053c.135.053.27.111.4.164-.105-.07.076-.012.275.053a2.218,2.218,0,0,0,.393.105c.152.047.3.1.453.146a.683.683,0,0,1-.158-.035c-.082-.023-.189-.053-.283-.082a1.708,1.708,0,0,0-.213-.057C172.023-517.732,172.047-517.719,172.131-517.682Zm4.184.439q.123.009.229.012a.492.492,0,0,0-.152-.018h-.059A.022.022,0,0,1,176.314-517.242Zm-2.387-.029h.008c-.074-.016-.152-.037-.232-.053C173.738-517.312,173.8-517.3,173.928-517.271Zm.65-.205c.117.006.229.018.346.023a1.528,1.528,0,0,0-.182-.023l-.205-.018Zm-.187-.018a.1.1,0,0,0,.041.006.347.347,0,0,0-.035-.023c-.105-.018-.223-.041-.381-.082q.185.026.281.035c-.041-.018-.094-.041-.141-.059a.074.074,0,0,1-.035-.006c-.1-.012-.205-.029-.311-.041s-.219-.041-.312-.064l.252.064a2.994,2.994,0,0,1-.457-.105c.24.082.211.094.146.1-.029-.012.023-.006-.006-.012-.205-.059-.357-.094-.316-.07-.187-.012.275.1.41.141.105.023.205.047.313.064.176.023.357.041.533.053l-.018-.008A.077.077,0,0,0,174.391-517.494Zm-3.168-.158Zm14.9-1.092c-.078.064-.113.111-.189.17a.962.962,0,0,0-.234.119c-.094.07-.187.123-.27.176a2.883,2.883,0,0,1-.252.152c-.164.1-.334.182-.523.287.131-.064.248-.111.342-.158s.182-.088.258-.123l.105-.053c.035-.018.064-.035.094-.047.059-.029.117-.059.17-.088a5.62,5.62,0,0,0,.922-.594c-.035.029-.1.082-.187.146s-.182.129-.283.2-.217.148-.293.207c.182-.111.359-.219.518-.324.064-.053.182-.141.316-.246.105-.082.223-.176.328-.264.076-.07.152-.135.211-.187-.117.111-.234.217-.352.322l.1-.07c-.023.023-.064.059-.105.1.07-.053.141-.1.217-.152l-.006-.023c.082-.059.158-.129.24-.193s.164-.135.242-.205c-.066.029.176-.187.258-.283-.43.389-.418.342-.4.313s.018-.035-.035,0c-.023.018-.064.053-.123.1s-.141.123-.258.217a1.351,1.351,0,0,1-.211.188c.023-.023.035-.035.029-.035a1.14,1.14,0,0,0-.146.094l-.164.152c-.17.094-.064.006.064-.094-.006,0-.012.006-.018.006-.105.07-.205.135-.217.123.188-.158.088-.035.352-.223l.006-.006c-.086.043-.135.064-.129.041a.006.006,0,0,0,.006-.006c-.041.029-.088.064-.135.094a.816.816,0,0,1-.076.035l-.076.059.059-.041Zm-.354.459c-.094.059-.17.111-.264.176.117-.064.217-.111.3-.164s.152-.094.229-.141.137-.1.213-.148.164-.111.264-.182c-.023.029.035,0,.229-.123.012-.023.023-.041.035-.064v0s.023-.012.082-.047l.176-.135.176-.129c.111-.094.223-.187.336-.275-.154.105-.172.094-.354.229.035-.018.018,0-.035.041a2.618,2.618,0,0,1-.223.17c.129-.111-.111.059-.182.094l-.111.094c-.029.023-.064.047-.094.07a.467.467,0,0,0-.047.035,3.251,3.251,0,0,1-.27.188c-.111.076-.236.148-.354.219s-.211.129-.264.164c.176-.088.346-.193.518-.289C185.967-518.414,185.855-518.344,185.768-518.285Zm-14.387,0Zm16.059-1.574a1.864,1.864,0,0,0-.176.166,1.469,1.469,0,0,0-.135.123c-.082.07-.135.135-.2.193s-.117.117-.193.182v.029c.07-.059.141-.123.211-.182.105-.094.2-.187.287-.264.15-.145.246-.254.223-.254A.045.045,0,0,0,187.439-519.859Zm.289.043c-.088.094-.193.193-.307.3-.059.053-.123.111-.193.17l-.018.018c.029-.023.064-.047.094-.07.088-.076.178-.146.254-.211s.141-.123.193-.17l.094-.047a10.486,10.486,0,0,0,.832-.816l-.047.076c.354-.369.652-.77.934-1.127.029-.053.059-.1.088-.152l.088-.158c.035-.053.064-.111.094-.164s.053-.111.082-.164a2.931,2.931,0,0,0,.152-.318l.1-.217a.821.821,0,0,1-.059.094c-.064.117-.135.225-.2.33s-.135.211-.2.311-.123.188-.182.27c-.123.164-.217.293-.293.375.076-.158-.117.064-.357.33a4.164,4.164,0,0,1-.623.6c.039-.021-.168.211-.217.271l.053-.037c-.049.043-.064.059-.066.053a2.163,2.163,0,0,0-.238.234.366.366,0,0,1,.1-.076c.012.006,0,.023,0,.035s0,.018.035-.012.1-.1.211-.229A4.957,4.957,0,0,1,187.729-519.816Zm.6-1.168a9.852,9.852,0,0,1-.844.914l-.049.006c-.129.117-.264.26-.416.389a3.041,3.041,0,0,0,.488-.324,7.989,7.989,0,0,0,.967-.967l-.07.082a15.916,15.916,0,0,0,1.279-1.7c-.1.172-.146.248-.193.336s-.094.182-.205.375c.082-.117.158-.24.234-.357-.018.059.029-.006.1-.111s.17-.266.258-.4l-.1.244c.1-.178.2-.359.285-.543.076-.158.143-.316.213-.475a.959.959,0,0,0-.07.129.174.174,0,0,1,.012-.039c-.043.08-.08.148-.107.2a.977.977,0,0,1-.07.111c-.035.053-.041.059-.053.064s-.023.012-.053.059-.088.141-.2.316a.147.147,0,0,1-.023.041l.053-.141c-.088.135-.176.271-.27.406.105-.152.2-.312.3-.471.053-.082.053-.07.053-.053s-.006.035.064-.07c.123-.229.289-.533.076-.205.018-.029.041-.07.07-.117s.059-.1.094-.158a3.688,3.688,0,0,0,.189-.352c-.006.041.029-.018.082-.105.047-.125.088-.248.129-.377a.635.635,0,0,1,.029-.117.3.3,0,0,0-.012.064.781.781,0,0,0,.029-.111c-.041.094-.094.193-.146.3-.047.088-.1.188-.152.283-.029.047-.053.1-.082.152s-.061.1-.09.146c-.059.105-.117.211-.182.316l-.193.316c-.117.182-.229.371-.346.559.117-.193.041-.1-.029-.006s-.158.217.07-.117a2.521,2.521,0,0,0-.293.428c-.035.053-.064.105-.105.17a1.613,1.613,0,0,1-.193.264,1,1,0,0,1,.094-.123,2.2,2.2,0,0,0,.152-.24C188.818-521.613,188.578-521.3,188.332-520.984Zm1.2-1.168c-.041.059-.082.111-.105.152a.4.4,0,0,0-.035.053,3.346,3.346,0,0,0-.223.264c-.07.088-.158.182-.234.281s-.16.2-.225.271c.053-.006.576-.7.377-.365.1-.141.152-.217.217-.293s.123-.152.223-.3c-.047.076-.07.117-.082.141.111-.168.219-.34.318-.516C189.7-522.391,189.607-522.264,189.529-522.152Zm-22.668.744a.335.335,0,0,1,.047.041c.041.029.078.053.107.076.059.041.088.064.07.035l-.172-.135a1.768,1.768,0,0,0-.141-.111C166.8-521.469,166.828-521.441,166.861-521.408Zm0-.041-.434-.363c.029.029.059.064.088.094.168.18.307.307.254.215l-.037-.027Zm-.832-.627c.088.088.176.182.258.258.158.141.246.211.059-.006-.094-.076-.182-.158-.275-.24a.732.732,0,0,1-.07-.047A.155.155,0,0,0,166.029-522.076Zm23.365.264a.128.128,0,0,0-.018.029.294.294,0,0,0,.02-.033S189.395-521.814,189.395-521.812Zm0-.006.008-.012A.041.041,0,0,0,189.4-521.818Zm.635-.98c-.035.07-.082.158-.129.248-.135.229-.3.5-.457.727a1.326,1.326,0,0,0,.094-.105c.059-.1.182-.275.287-.434a1.913,1.913,0,0,0,.176-.307l.012-.006a1.223,1.223,0,0,0,.158-.293,2.621,2.621,0,0,1,.189-.352c-.012-.012-.064.076-.164.24-.037.07-.055.117-.084.176a1.732,1.732,0,0,1-.158.287c-.053.055.006-.029.053-.105.031-.051.057-.1.049-.1S190.049-522.814,190.033-522.8Zm-23.869.811c0-.006-.006-.012-.012-.023a.123.123,0,0,0-.035-.023A.172.172,0,0,1,166.164-521.988Zm-.881-.9a.322.322,0,0,1,.041.053c.041.029.059.035.035.006s-.082-.1-.205-.234C165.2-523.01,165.242-522.951,165.283-522.893Zm25.063-.762c-.029.07-.059.141-.082.211a1.921,1.921,0,0,0-.072.188c-.018.041-.029.076-.041.105.012-.018.023-.041.035-.059.031-.059.061-.123.09-.182-.006.023-.018.047-.023.07a1.856,1.856,0,0,0,.123-.24c-.012.023-.029.047-.035.059.023-.053.041-.1.059-.146-.006-.018-.029-.012.1-.246.029-.084.047-.137.059-.184C190.5-523.955,190.422-523.8,190.346-523.654Zm.24-.67a2.146,2.146,0,0,1-.07.205c-.012.035-.023.07-.035.111l-.018.035.006-.012a1.7,1.7,0,0,0,.111-.2c.018-.082.041-.176.1-.4C190.662-524.547,190.633-524.447,190.586-524.324Zm.357-.7c-.059.135-.111.229-.182.363-.059.223-.123.439-.2.662.018-.029.029-.053.047-.082.035-.059.064-.117.1-.187.023-.041.041-.082.064-.129.023-.088.041-.164.053-.234a1.5,1.5,0,0,1-.041.211c.012-.018.018-.035.029-.053s.012-.053.018-.076c.012-.059.029-.111.041-.152a.319.319,0,0,1,.041-.1c-.023.088-.047.158-.059.205s-.018.064-.023.082c.029-.064.064-.135.094-.205.006-.012.006-.018.012-.029a5.07,5.07,0,0,0,.1-.541c0,.016-.01.031-.016.049-.012.064-.018.076-.023.07q-.026.079-.053.141v0A.006.006,0,0,1,190.943-525.021Zm-.012-.152c-.018.023-.041.07-.076.135a1.651,1.651,0,0,1-.041.182,1.156,1.156,0,0,1-.041.152c.07-.158.141-.316.2-.48,0-.014,0-.021-.008-.021S190.947-525.2,190.932-525.174Zm-.07-.646c.029.018-.059.217-.047.264a1.01,1.01,0,0,0,.076-.158l.029-.205c0-.018.006-.041.006-.064C190.908-525.937,190.885-525.879,190.861-525.82Zm-27.35.094.012.018a.336.336,0,0,0-.023-.041C163.506-525.738,163.512-525.732,163.512-525.727Zm27.549-.756a1.879,1.879,0,0,1-.059.252.223.223,0,0,1-.018.059c-.006.158-.006.223.047-.129-.006.076-.012.146-.018.223.012-.041.023-.082.035-.117.023-.076.047-.146.064-.223.006-.018.012-.035.018-.059,0-.041.006-.082.006-.123.018.006.029-.059.047-.254l-.006-.023c-.006.047-.018.088-.023.135l-.012.029.029-.152.006-.029-.012-.088C191.107-526.73,191.078-526.6,191.061-526.482Zm.369.24c0,.023-.006.047-.006.07a.36.36,0,0,1-.006.082c.018-.047.035-.088.047-.123a1.571,1.571,0,0,0,.064-.207c-.008.033-.01.059-.006.055a1.718,1.718,0,0,0,.1-.436c.006-.07,0-.1.006-.164.035-.246-.006-.129-.053.047-.014.041-.025.088-.037.135s-.029.088-.041.125c-.023.07-.041.111-.047.105,0,.047-.006.094-.006.141a.544.544,0,0,1,.023-.076,1.056,1.056,0,0,1-.029.111.637.637,0,0,1-.006.105c.012-.053.029-.105.035-.152A1.6,1.6,0,0,1,191.43-526.242Zm-28.246-.229.018.023a3.9,3.9,0,0,0-.184-.418h0c.012.035.023.064.035.1-.006-.018-.018-.047-.029-.076a.178.178,0,0,0,.018.064c.041.1.082.2.129.295l.006.012-.012-.035Zm28.264-.088c.064-.236.111-.471.16-.705.035-.2.07-.393.094-.592-.006-.053-.006-.105-.012-.164a.053.053,0,0,0-.006.029,2.354,2.354,0,0,1-.125.645c-.006-.012-.018.018-.023.047s-.018.059-.029.053l-.035.217c0,.082-.006.188,0,.334-.006-.018-.006-.006-.006-.053C191.459-526.684,191.453-526.623,191.447-526.559Zm-.264-.336v.012c0,.047.006.047.012-.082Zm-.012-.117a.709.709,0,0,1,.006.111l.023-.1v-.035c0-.023-.006-.047-.006-.07A.549.549,0,0,1,191.172-527.012Zm.293-1.221c-.006.023-.006.047-.012.07v.006l.018.143a.66.66,0,0,0,.041-.137c0-.023.006-.07.012-.117a1.234,1.234,0,0,0,.012-.146c.012-.1.012-.176,0-.146.023-.135.037-.27.055-.41a.162.162,0,0,1-.006-.053l-.025.012c0-.047.008-.088.008-.123s-.008-.07-.014-.1c-.006-.047-.012-.082-.018-.123l-.006.094a1.647,1.647,0,0,1-.006.17l-.012.164a.838.838,0,0,0-.006-.223,1.274,1.274,0,0,1-.018-.24c.018.205.023.135.023,0a.2.2,0,0,0,.006-.061c-.012-.07-.023-.135-.035-.187.012.053.023.094.035.135a1.2,1.2,0,0,1,.018-.223l-.029-.27.012.07a1.6,1.6,0,0,0-.023-.311l-.018-.07c.006.193,0,.363.018.6a.649.649,0,0,1-.012-.111c-.006-.088-.018-.187-.023-.275-.023-.187-.047-.352-.053-.416-.006-.047-.012-.088-.018-.129a.618.618,0,0,1-.029-.111c-.041-.148-.088-.295-.123-.447a2.145,2.145,0,0,1-.182-.457,1.859,1.859,0,0,1,.146.352c.047.135.076.211.047.023-.047-.158-.105-.375-.176-.562a1.873,1.873,0,0,0-.182-.406c.17.453.135.436.105.412s-.029-.029-.018.023a.452.452,0,0,0,.035.123c.018.059.041.141.082.258-.035-.1-.07-.176-.105-.27s-.082-.193-.141-.352c-.082-.266.012-.047.076.1.029.07.059.123.047.088a.553.553,0,0,0-.035-.135c-.029-.07-.059-.178-.117-.318l-.1-.082c-.023-.064-.047-.129-.07-.2s-.059-.146-.088-.211-.059-.141-.082-.205-.053-.117-.076-.164c.076.146.141.3.2.434a3.422,3.422,0,0,0,.164.311,1.759,1.759,0,0,1-.064-.17c-.023-.064-.053-.129-.082-.193-.053-.141-.111-.281-.17-.41-.117-.264-.217-.477-.217-.506a11.532,11.532,0,0,0-.869-1.314c-.3-.4-.635-.8-1.045-1.256-.316-.375-.246-.363-.1-.223a.271.271,0,0,0-.041-.041,1.048,1.048,0,0,0-.082-.076c-.029-.023-.059-.053-.088-.076a1.287,1.287,0,0,1-.105-.082c-.047-.035-.059-.029-.059-.023s-.012.012-.088-.047c.047.053.088.1.129.141-.047-.047-.094-.1-.135-.146-.029-.018-.064-.047-.111-.082.234.264.328.422.744.875-.076-.094-.152-.189-.234-.283.193.2.381.4.563.611.16.246-.27-.311-.363-.387.428.486.664.967.869,1.189,0,.047-.006.131.211.488-.059-.141-.023-.088.018-.029s.082.117.035,0c.082.111.205.363.246.416l-.023-.023a10.043,10.043,0,0,0,.6,1.109c.088.193.158.363.223.521s.111.3.158.436.088.27.135.41.088.293.141.457a1.214,1.214,0,0,0,.059.494c.029.059.082.24.135.416a2.1,2.1,0,0,0,.117.369,4.212,4.212,0,0,0-.187-.68,1.41,1.41,0,0,0-.041-.365c.035.135.111.436.182.74.035.152.07.3.094.439s.035.252.041.322l-.023-.1c.018.119.023.213.029.3s0,.17.006.264.012.188.023.316c.006.088.023.188.035.3.018.023.035-.006.059-.117C191.482-528.385,191.477-528.314,191.465-528.232Zm-28.74-.445c.035.158.082.322.123.5l-.07-.43c0,.018,0,.035.006.055a7.108,7.108,0,0,1-.17-1.279,2.567,2.567,0,0,1-.023-.3c-.006-.123-.006-.258-.012-.416l.029-.123c.006-.207.023-.424.047-.641l-.012.088c-.012.088-.029.182-.035.27V-531a3.129,3.129,0,0,0-.041.418c-.006.082,0,.176-.006.264s-.006.188-.006.287c.006.035.006.012.012-.023a.874.874,0,0,1,.012-.123c0,.129.006.193,0,.217s-.018-.012-.023-.07c.012.135.018.469.053.705s.059.387.053.164A3.242,3.242,0,0,0,162.725-528.678Zm29,.229c.018.111.041.176.047.146-.029-.393-.018-.287,0-.182.018.082.029.164.029,0a.006.006,0,0,1,.006.006,1.359,1.359,0,0,1,.012-.141c.006-.105.006-.217.012-.328s.006-.223,0-.311.012-.129.018-.111v.076c0,.047.006.111,0,.2a.437.437,0,0,0,.018-.1c.006-.059.006-.123.006-.2v-.225c0-.07-.006-.129-.006-.176-.012-.1-.018-.27-.035-.375-.006.146-.023.088-.064-.223l-.006-.018c.006.129.023.27.018.422.006.076.006.152.006.229,0,.041.006.076.006.117a.709.709,0,0,0-.006.111c-.006.131,0,.254-.006.371v.053c-.006.123-.006.234-.006.316l-.012-.094C191.748-528.742,191.736-528.6,191.725-528.449Zm-.189-1c.006.029.018.061.023.09a.212.212,0,0,1,.02.047c0-.076,0-.148-.006-.266l-.037-.012Zm.055-.246c-.006-.07-.018-.146-.031-.223s-.023-.129-.041-.193c.018.146.035.3.049.4,0-.008.006-.012.008-.012S191.584-529.707,191.59-529.7Zm-.1-.686c.006.029.018.059.023.088.012.059.029.135.047.211v-.018c-.006-.07-.018-.164-.029-.258s-.012-.193-.023-.287l.061.064-.037-.277c-.018-.088-.023-.182-.041-.275l.012.053a3.068,3.068,0,0,0-.07-.416c-.018-.082-.047-.17-.07-.258s-.041-.182-.064-.275c-.053-.131-.146-.447-.246-.67s-.158-.363-.094-.141a2.892,2.892,0,0,0-.193-.457c-.076-.146-.164-.289-.252-.459l.193.424a4.188,4.188,0,0,0-.451-.7c-.012-.041-.053-.135.006-.064-.023-.035-.047-.076-.072-.117s-.053-.082-.082-.129c-.053-.082-.111-.17-.17-.258l-.182-.252c-.053-.066-.1-.137-.152-.2.041.07.082.135.123.2.182.3.334.6.434.756-.053-.07-.047-.041-.012.041.018.047.041.1.072.17s.07.141.111.223c.041.059-.006-.053-.029-.117.059.141.135.295.2.459.035.076.07.158.105.24s.064.164.1.246.064.158.094.234a2.106,2.106,0,0,1,.088.217c.029.064.059.129.082.188.014.033.025.061.037.086-.031-.062-.066-.123-.1-.186.047.111.088.219.123.313s.07.188.1.27c.057.166.111.309.168.457-.014-.035-.039-.1-.045-.082a2.989,2.989,0,0,0,.1.357c-.006-.029-.006-.053-.012-.076-.006-.059-.018-.123-.029-.187.053.246.07.2.094.217s.023.035.041.117c.006.047.018.105.029.184.006.041.012.082.018.135s.012.111.018.176a.47.47,0,0,1-.018-.135c0,.018-.006.041-.006.064,0,.006.006.018.006.023l-.006-.018C191.482-530.455,191.488-530.42,191.488-530.385Zm-28.846-.381c.012.105.012.182.018.48q.009-.062.018-.211a1.32,1.32,0,0,1,0-.223c.006-.012.012-.012.012,0a.219.219,0,0,1,.006-.061.785.785,0,0,1,.006-.117.874.874,0,0,1,.012-.123v-.029a.284.284,0,0,1,0-.105c0-.047.012-.105.018-.182q.009-.062.018-.141a.173.173,0,0,0,.012-.059c.006-.059.012-.111.018-.164a.881.881,0,0,0,.012-.117l-.018.105c-.012.094-.035.188-.053.281l-.041-.07-.018.146c0,.07.029-.035.041-.064A4.015,4.015,0,0,0,162.643-530.766Zm-.457.053v-.061c.006-.07.012-.141.018-.217-.012.07-.023.111-.023-.012C162.156-530.607,162.168-530.625,162.186-530.713Zm.053-.113a.146.146,0,0,1-.006.047c.006.072.018.107.023.072.006-.119,0-.172,0-.23v-.035C162.25-530.93,162.242-530.879,162.238-530.826Zm29.279-1.2c.061.223.125.428.16.615.023.1.041.188.059.275s.023.164.035.24a1.833,1.833,0,0,0-.035-.416c-.012-.094-.023-.187-.041-.281s-.035-.17-.047-.234l.088.223.006.146c.035.135.076.264.105.4a1.987,1.987,0,0,0-.041-.293c-.018-.123-.041-.258-.064-.369-.006-.006-.059-.182-.123-.381s-.148-.406-.2-.494c.047.152.088.311.129.465-.029-.1-.082-.266-.141-.441-.088-.229-.176-.475-.246-.6-.006,0,0,.029.018.076s.041.105.064.17a1,1,0,0,0,.123.287c0,.023-.035-.053-.07-.123-.047-.111-.1-.223-.029-.006-.088-.205-.205-.463-.316-.715-.059-.119-.117-.242-.164-.348s-.105-.2-.141-.27l.006-.064c-.17-.322-.164-.187-.381-.557.152.223.141.188.129.152s-.018-.07.094.1a1.094,1.094,0,0,0-.205-.375,2.046,2.046,0,0,1-.242-.312.978.978,0,0,0-.094-.141.882.882,0,0,0-.146-.158c-.059-.082-.029-.059-.006-.041s.064.053-.088-.135c-.047-.047-.082-.088-.111-.123s-.064-.059-.094-.082a.932.932,0,0,0-.111-.094.088.088,0,0,0-.082-.023c.076.088.141.152.193.205s.1.1.141.146a2.242,2.242,0,0,1,.287.311c-.088-.094-.176-.182-.27-.275l-.129-.135-.146-.129.123.141.094.111a2.423,2.423,0,0,0-.281-.275l-.135-.117a5.23,5.23,0,0,1,.563.668l-.053-.035a4.115,4.115,0,0,0,.322.4l-.1-.129a1.07,1.07,0,0,1,.117.152c.111.146.211.295.295.412.041.064.082.117.111.164s.041.082.047.1c-.029-.035-.059-.076-.088-.111.123.2.188.311.264.434.035.064.064.129.111.217s.1.182.158.313a.261.261,0,0,0-.035-.059A8.249,8.249,0,0,1,191.518-532.021Zm-28.676.082c-.023.117-.041.234-.059.357a2.7,2.7,0,0,0,.059-.311c.006-.053.018-.111.023-.164C162.859-532.016,162.848-531.98,162.842-531.939Zm.119-1.426c-.012.053-.029.111-.047.17s-.029.117-.043.176-.025.105-.037.158a.95.95,0,0,0,.037-.123,2.315,2.315,0,0,0,.09-.3l-.018.094c.053-.141.105-.287.158-.43.029-.07.053-.141.076-.211s.059-.135.082-.205a2.86,2.86,0,0,1,.275-.568l.029-.082A14.081,14.081,0,0,0,162.961-533.365Zm.586-1.264.006,0c0,.012.018-.018.029-.041s.035-.053.053-.041l.182-.395-.029.088c.053-.111.123-.217.182-.328l.094-.158.006-.018C163.855-535.209,163.676-534.863,163.547-534.629Zm1.344-2.07a.13.13,0,0,0,.029-.023.336.336,0,0,1,.047-.053c0-.012.076-.111.129-.187-.029.029-.076.082-.158.17a.022.022,0,0,1-.006.018l.023-.023a.171.171,0,0,1-.023.029.373.373,0,0,1-.012.041Zm22.785-.234c.082.053.152.094-.123-.123h-.006C187.594-537.016,187.635-536.975,187.676-536.934Zm-.377-.363c.023.012.064.041.117.07s.09.059.137.094.094.07.141.1a1.372,1.372,0,0,0,.152.111.612.612,0,0,1-.059-.082,5.14,5.14,0,0,0-.564-.375l-.094-.059c.047.037.086.072.123.1a.126.126,0,0,0-.018-.016C187.258-537.332,187.275-537.314,187.3-537.3Zm.33.334c.012.006.018.012.029.018-.014-.014-.023-.02-.027-.02S187.629-536.965,187.629-536.963Zm-.164-.182a1.518,1.518,0,0,1,.123.105c.023.006-.029-.047-.105-.105-.025-.023-.061-.047-.09-.07.012.012-.006,0-.041-.029C187.387-537.215,187.422-537.18,187.465-537.145Zm-20.7-1.92c-.111.094-.223.189-.334.289.006.012-.047.076-.1.129s-.105.123-.094.129c-.094.094-.193.182-.287.27a3.193,3.193,0,0,0-.27.293c-.064.094.1-.023-.219.3a.932.932,0,0,0-.117.107c-.047.047-.094.1-.146.152l-.164.182c-.035.047-.076.094-.111.141a1.337,1.337,0,0,1,.129-.129c.047-.053.1-.1.135-.135.082-.076.117-.105.035.006a.755.755,0,0,1,.094-.1c.135-.178.43-.494.611-.687-.01.01-.016.025-.033.043.066-.07.123-.127.162-.172s.076-.07.1-.094a.2.2,0,0,1,.07-.047c.012,0,.023-.006.064-.041s.123-.117.275-.258l.035-.035-.088.123c.123-.105.24-.217.369-.322-.141.123-.275.252-.416.381-.076.064-.07.047-.064.035s.018-.035-.076.053c-.07.07-.146.146-.2.205.059-.047.111-.1.176-.152.084-.076.178-.15.281-.23-.066.055-.121.107-.105.107.158-.135.311-.252.48-.375.006,0,.006-.006.012-.006s-.006.006-.012.006l.021-.016a.565.565,0,0,1,.063-.057c-.025.021-.047.041-.062.057.041-.029.086-.055.133-.086s.094-.064.146-.1l.035-.035.146-.146c.064-.053.141-.117.258-.205.023-.006-.041.041-.123.1a1.794,1.794,0,0,0-.211.193c.369-.293.691-.539,1.01-.773a8.949,8.949,0,0,1,1.061-.676l.053.006c.152-.082.324-.182.506-.27a2.445,2.445,0,0,0-.559.188,7.965,7.965,0,0,0-1.191.693l.088-.064a16.027,16.027,0,0,0-1.689,1.326c.135-.141.205-.207.275-.277s.137-.152.295-.311c-.111.094-.217.188-.318.287.035-.053-.029-.006-.129.082s-.234.213-.352.318l.176-.217c.07-.059.205-.172.316-.26.059-.047.107-.094.143-.123a.44.44,0,0,0,.047-.041l.006-.006-.006.006c.018-.006.135-.088.287-.2.094-.064.2-.135.3-.211s.205-.146.287-.211c-.053,0-.744.533-.463.264-.135.111-.205.17-.287.229s-.164.117-.295.234c.125-.117.137-.135.137-.152s-.006-.018.088-.105c-.152.123-.3.252-.445.381.012-.012.158-.146.262-.246.119-.105.189-.176-.012-.035-.088.082-.258.217-.4.346s-.258.236-.246.254H166.3a1.234,1.234,0,0,0-.229.246,3.654,3.654,0,0,1-.281.293c.006.012.082-.059.223-.193.053-.059.082-.1.129-.152a2.5,2.5,0,0,1,.229-.234c.064-.041-.012.023-.076.088s-.123.123-.023.059c.047-.035.211-.187.34-.312a1.084,1.084,0,0,1,.186-.143C166.8-539.107,166.795-539.1,166.768-539.064Zm-1.125,1.867c-.031.035-.055.07-.037.053l.125-.141Zm21.709-.047a.076.076,0,0,0-.027-.023A.157.157,0,0,1,187.352-537.244Zm-.4-.346a.155.155,0,0,1,.035.029l.047.029a3.563,3.563,0,0,0,.375.229c-.117-.088-.234-.182-.352-.27l-.229-.119A1.409,1.409,0,0,1,186.947-537.59Zm-1.1-1.021c.123.059.24.111.336.17-.029-.023-.064-.047-.107-.076s-.082-.053-.135-.082a2.276,2.276,0,0,1-.234-.111C185.75-538.676,185.8-538.646,185.844-538.611Zm-.621.105c-.111-.064-.217-.123-.375-.217a.227.227,0,0,0-.105-.018c.07.047.152.094.223.141-.012-.012-.018-.018-.018-.023C185.076-538.57,185.164-538.535,185.223-538.506Zm.445-.187a.175.175,0,0,1,.047.023c-.018-.018-.053-.053-.094-.088-.129-.064-.24-.117-.211-.082-.059-.029-.123-.064-.187-.1l.123.088.076.041c.076.035.152.07.229.111a.065.065,0,0,0-.006-.012A.183.183,0,0,0,185.668-538.693Zm.012-.258c.059.041.123.088.176.123a.022.022,0,0,1,.018.006c.029.018.064.041.1.059,0-.006-.006-.012-.018-.023-.223-.135-.58-.383-.855-.57l.094.053c-.3-.2-.559-.3-.98-.557-.217-.117-.17-.105-.123-.094a2.774,2.774,0,0,1-.352-.182l.059.012c-.041-.012-.059-.018-.059-.012-.152-.029-.3-.059-.453-.082s-.3-.053-.457-.07a14.521,14.521,0,0,1,1.6.838c.07.023.129.047.17.059l-.082-.035a1.307,1.307,0,0,1,.395.17,1.107,1.107,0,0,1-.146-.064c-.049-.018-.09-.035-.125-.047-.064-.029-.1-.041-.076-.018.064.029.129.059.2.088s.135.064.211.094l-.141-.047.65.307c.088.029.229.076.334.105-.229-.154-.223-.117-.223-.1s-.006.029-.059,0-.17-.1-.393-.225c.064.023.018-.029-.094-.123-.059-.047-.135-.1-.217-.158s-.184-.123-.289-.187c.129.07.307.176.494.281a5.367,5.367,0,0,1,.521.346c-.074-.061-.1-.086-.1-.086A2.054,2.054,0,0,1,185.68-538.951Zm-1.021.158a.217.217,0,0,1,.1.023c-.031-.018-.061-.035-.1-.053s-.094-.047-.146-.07a.682.682,0,0,1,.088.035c-.041-.023-.088-.053-.141-.082A.92.92,0,0,0,184.658-538.793Zm-.311-.129c.076.041.164.076.264.123h.006c-.176-.105-.346-.2-.5-.277C184.184-539.035,184.26-538.982,184.348-538.922Zm.623-.084c.064.029.123.055.188.078-.105-.066-.223-.137-.293-.178a.274.274,0,0,1-.059-.029v.006c-.006-.006-.006-.006-.012-.006a1.608,1.608,0,0,0-.172-.082c.119.059.113.064.053.047.066.041.137.082.2.129.029.012.053.018.082.029l-.014-.006Zm-.986-.094c.094.053.2.105.346.172l-.328-.219a.624.624,0,0,1-.275-.088c.029.006.029,0,.029-.006-.064-.018-.129-.041-.182-.059C183.727-539.234,183.838-539.176,183.984-539.1Zm-.246-.65c.129.064.264.141.4.217l.041.023c.029.012.059.023.094.035-.293-.135-.182-.1,0-.035-.082-.047-.164-.088-.24-.135a9.753,9.753,0,0,0-.893-.428A5.719,5.719,0,0,0,183.738-539.75Zm.762.023c-.035-.023-.076-.047-.123-.076s-.105-.059-.164-.088C184.313-539.838,184.406-539.785,184.5-539.727Zm-1.008-.135a1.994,1.994,0,0,0-.2-.105l-.008,0C183.35-539.934,183.418-539.9,183.492-539.861Zm-14.852-.082c.123-.064.24-.129.357-.187.088-.064.158-.111.205-.152C169.01-540.172,168.828-540.061,168.641-539.943Zm14.117-.281a.444.444,0,0,0-.141-.094l-.094-.014C182.6-540.295,182.676-540.26,182.758-540.225Zm-13.4-.088c.105-.049.205-.1.3-.148a.993.993,0,0,0,.184-.123.637.637,0,0,1,.123-.111c.123-.064.24-.129.363-.187s.246-.123.375-.176c-.053.029-.105.064-.158.094.094-.041.188-.076.275-.111s.17-.07.234-.094c.137-.053.225-.082.213-.059-.094.047-.23.094-.359.146-.07.029-.135.059-.193.082s-.117.059-.164.082l.123-.047.129-.041c-.105.047-.176.082-.223.105a.8.8,0,0,1-.117.035c-.041.012-.076.023-.141.047s-.146.07-.275.135c.105-.029.094-.023.029.006-.029.012-.076.035-.129.059s-.1.059-.152.094c.047-.018.123-.059.217-.105s.193-.088.287-.135c.176-.076.316-.129.287-.094l.141-.053a.147.147,0,0,1,.041-.023c.08-.043.125-.074.064-.059.074-.021.15-.043.229-.07s.166-.047.254-.076c.041-.012.082-.029.129-.041s.082-.023.129-.035c.088-.023.176-.047.264-.064.018-.012-.012-.012-.053-.006s-.094.023-.123.029c.053-.018.1-.029.146-.041s.088-.018.129-.029c.094-.018.188-.041.328-.07a.8.8,0,0,0-.141.012c-.047.012-.07.012.047-.023l.2-.023c.064-.006.125-.018.2-.023.129-.023.205-.041.264-.053s.094-.023.135-.035a1.8,1.8,0,0,1,.48-.064,2.327,2.327,0,0,1-.328.076h.023c-.064.012-.135.023-.205.041h.088c.082-.012.158-.018.24-.023s.164-.018.264-.023c.2-.023.395-.047.594-.064-.141,0-.324.006-.635.018.17-.012.365-.035.535-.059a.474.474,0,0,0-.094.006,2.062,2.062,0,0,0-.336.029.836.836,0,0,1,.17-.023,1.653,1.653,0,0,1,.254-.023c.047-.006.094-.006.141-.012s.1-.012.135-.018h.053c.152-.037,0-.043,0-.1-.451.047-.758.029-1.285.1-.1.041.311.006.574-.012-.158.012-.311.029-.469.053l.094-.023a8.534,8.534,0,0,0-1.168.164,3.384,3.384,0,0,0,.4-.111l-.225.035c-.076.018-.152.023-.229.041.025.012.027.031-.033.055l.086-.02c-.029.006-.062.016-.1.025-.02.006-.043.014-.074.021-.047.012-.088.018-.135.029l-.123.035c-.082.023-.158.047-.234.064-.141.047-.27.082-.383.117-.223.076-.393.123-.527.164-.029.012-.059.029-.082.041.064-.012-.059.053-.211.141s-.357.2-.451.264a.719.719,0,0,0-.207.082c-.111.059-.246.141-.346.182-.029.031-.029.049-.012.049A.4.4,0,0,0,169.355-540.312Zm10.943-.377.053.023a.857.857,0,0,1,.117.029c.053.012.105.023.164.041s.113.035.166.047c.117.035.24.07.369.1.158.041.141.023.1.006h-.018c-.135-.053-.27-.1-.369-.135h-.006l-.012,0a.072.072,0,0,1-.029-.008l.02.006-.113-.041a.054.054,0,0,1,.018,0c-.09-.039-.107-.059.01-.037q-.155-.05-.27-.082l-.252-.047-.029-.012.223.041-.1-.025c.646.158.018-.051.143-.062-.117-.035-.234-.064-.357-.1l-.357-.088c.428.129,0,.023-.158-.012a1.758,1.758,0,0,0-.334-.094c-.172-.035-.371-.082-.494-.105h.018c-.234-.064-.65-.141-.945-.187.006.006-.117,0-.252,0a2.836,2.836,0,0,0-.316,0c.258.041.3.059.3.064s-.076,0-.053.012a1.522,1.522,0,0,0-.164-.023c-.07,0,.1.029.111.041.541.064,1.092.176,1.32.182-.164-.053-.287-.041-.469-.088a7.105,7.105,0,0,1,1.057.211l.135.059.445.105a4.444,4.444,0,0,1-.545-.1,1.326,1.326,0,0,0,.258.07c.164.029.346.064.609.135a.528.528,0,0,1-.152-.014.11.11,0,0,0,.023.008,1.237,1.237,0,0,0,.152.012c-.064,0,.535.188.1.082-.053-.018-.111-.029-.164-.047a.58.58,0,0,1-.17-.023C180.152-540.73,180.229-540.713,180.3-540.689Zm.617.088a.127.127,0,0,1,.059.012h.018l-.223-.07C180.781-540.643,180.834-540.631,180.916-540.6Zm-.146-.018Zm-.939-.187c.141.029.24.047.352.07a1.139,1.139,0,0,0-.117-.029c-.117-.035-.234-.059-.352-.088C179.754-540.836,179.789-540.824,179.83-540.807Zm.7-.334a1.581,1.581,0,0,1,.389.094c.07.012-.041-.035-.187-.082s-.318-.1-.383-.111-.24-.047-.393-.076a1.4,1.4,0,0,0-.3-.047c-.035.006.07.035.188.07s.27.076.416.117a.371.371,0,0,1,.088.012c-.146-.047-.24-.082-.176-.088A1.532,1.532,0,0,0,180.533-541.141Zm-8.812-.059-.006.006c.146-.035.293-.076.439-.105a.948.948,0,0,1,.1-.035C172.078-541.293,171.9-541.252,171.721-541.2Zm7.293-.176c-.545-.158-1.025-.27-1.121-.311-.053-.02-.006-.025.166,0s.48.076.949.182l.123.023c-.246-.064-.668-.158-1.066-.219-.166-.023-.518-.047-.822-.059-.152-.006-.293-.012-.4-.012a1.215,1.215,0,0,0-.164,0c.111.029.287.029.492.064l-.082-.029C177.746-541.645,178.4-541.516,179.014-541.375Zm-6.213-.094a.564.564,0,0,0-.123.035c.088-.018.176-.035.258-.059-.012,0-.012,0,.018-.012a.66.66,0,0,1-.105.018l.072-.006A.693.693,0,0,1,172.8-541.469Zm-.293-.465a2.016,2.016,0,0,0-.254.041,1.706,1.706,0,0,0-.234.059c-.064.023-.17.059-.281.094s-.229.078-.334.113-.187.07-.229.088-.047.029.012.012c.111-.041.24-.082.363-.123a1.46,1.46,0,0,1,.34-.078l-.217.061-.211.064c.094-.018.188-.041.287-.059-.152.029-.129.053-.053.064l.264-.07.135-.037.088-.018h0l.021-.006a.038.038,0,0,1-.014,0l.242-.061.271-.053c-.17.018-.307.029-.348.029s.018-.035.248-.076c-.035.018.105.012-.059.047.316-.041,1-.076.82-.105-.3.047-.334.035-.357.023s-.023-.029-.258.018a6.653,6.653,0,0,1,.744-.1c-.252.041.059.041.436.041.164-.018.6-.018.879-.023-.1-.029.141-.041-.3-.053a5.879,5.879,0,0,1,.7.012,2.341,2.341,0,0,0-.295.012c.182.029.395.035.512.053.094,0,.188,0,.275.006a.211.211,0,0,1-.064-.012l.311-.006c-.416-.012-.187-.023-.182-.035-.006.012.059.018.146.023s.188,0,.264.006l-.311-.053a1.305,1.305,0,0,1,.246.018c.135.012.246.029.205.006-.328-.035-.551-.047-.773-.059s-.43-.018-.729-.012c.082.006.158.018.24.029a4.353,4.353,0,0,1-.551-.023c-.059-.006-.117-.012-.211-.018s-.217-.006-.4.006c-.16.018-.441.035-.687.059a3.037,3.037,0,0,0-.316.041.452.452,0,0,0-.135.035h-.018C172.693-541.951,172.607-541.943,172.508-541.934Zm1.631.371c.07,0,.135.006.205.006a1.225,1.225,0,0,0,.146.006c-.1-.012.064-.018.246-.023s.387-.012.346-.029a.907.907,0,0,1-.129-.006C174.678-541.6,174.408-541.592,174.139-541.562Zm2.152-.359.395.035c-.053-.012-.076-.018-.047-.023a2.661,2.661,0,0,0-.273-.025C176.313-541.936,176.326-541.924,176.291-541.922Zm2.072,25.654a.474.474,0,0,1,.094.006A.5.5,0,0,0,178.363-516.268Zm-.822-.064c.064,0,.135.006.211.006.012,0,.012.006-.02.006S177.645-516.322,177.541-516.332Zm-.627-.059c-.076-.012-.164-.023-.258-.047l-.271-.053c-.088-.023-.164-.041-.229-.059l.27.059h-.018c.07.006.207.035.342.064s.27.047.334.053C177.049-516.373,176.984-516.385,176.914-516.391Zm.211.012c-.006.006-.018.006-.041.006C177.1-516.373,177.119-516.373,177.125-516.379Zm2.271-.264a.656.656,0,0,1-.094.023C179.35-516.631,179.379-516.637,179.4-516.643Zm.014,0Zm.66-.076a2.246,2.246,0,0,1-.451.035l.375-.035h-.129l.152-.006c.041-.006.082-.006.123-.012.07,0-.135.059-.4.076C179.848-516.678,179.959-516.7,180.07-516.719Zm-2.939-.512h.252a.681.681,0,0,1-.1.006Q177.222-517.225,177.131-517.23Zm1.953-.064c.141-.006.277-.023.418-.029-.129.006-.254.023-.383.029Zm-2.141-.035h.316l.07.006c-.105.006-.217.006-.322.006Zm2.91-.041c.012,0,.012,0,.012.006C179.836-517.365,179.813-517.365,179.854-517.371Zm-5.539-.146.041.016A.352.352,0,0,1,174.314-517.518Zm6.385-.006c.008,0,.01-.008,0-.008.094-.012.182-.021.27-.039l-.229.053a.21.21,0,0,1-.049.006C180.682-517.512,180.691-517.516,180.7-517.523Zm-.031,0a.224.224,0,0,1-.041,0Zm.014,0-.014,0Zm.018,0-.018,0A.067.067,0,0,1,180.7-517.531Zm3.162-.182-.041.014Zm.076-.033c-.025.012-.047.021-.076.033C183.887-517.723,183.91-517.734,183.938-517.746Zm-13.9-.668a.607.607,0,0,1,.193.07c-.4-.2-.346-.123-.676-.3.16.064.313.129.477.189l.24.088.24.082c-.094-.041-.182-.076-.27-.123l-.27-.125c.293.131.533.236.744.318l-.205-.07.029.012c-.111-.041-.117-.023-.053.018.035.023.088.047.146.082s.146.059.234.088l-.082-.018c.047.012.135.047.229.082a2.742,2.742,0,0,1,.313.123c-.289-.105.135.082.176.105C171-517.975,170.512-518.186,170.037-518.414Zm13.684.4-.111.041A1.153,1.153,0,0,1,183.721-518.01Zm-11.086-.012.117.045C172.711-517.992,172.672-518.006,172.635-518.021Zm12.09.014-.006,0h0Zm.691-.348c-.25.133-.482.248-.691.348C184.959-518.121,185.188-518.236,185.416-518.355Zm-12.469.246c-.082-.047-.187-.105-.322-.17-.064-.035-.141-.07-.219-.105s-.158-.088-.252-.131c-.252-.1-.311-.141-.709-.334-.129-.1.469.223.539.223-.076-.041-.17-.088-.223-.111-.152-.088-.064-.047.023-.012a.7.7,0,0,0,.117.041l.5.26.318.105c-.307-.166-.283-.16-.246-.148s.059.02-.061-.059c.225.131.816.377.986.512l-.615-.229c.129.059.234.117.352.158l-.006.053c.035.018.064.029.094.047C173.082-518.074,173.059-518.062,172.947-518.109Zm-1.795-.459c.088.047.182.09.275.131-.111-.041-.223-.084-.334-.137.1.059.205.107.311.16-.316-.125-.588-.242-.869-.371.328.152.439.24.258.152-.357-.193-.393-.158-.668-.3.152.082.352.176.217.129-.27-.146-.434-.24-.6-.334a6.315,6.315,0,0,1-.541-.34c.012.041-.135-.047-.293-.152a4.277,4.277,0,0,0-.381-.23l.211.148-.234-.143-.117-.07-.113-.07c-.176-.152-.111-.117-.047-.082s.148.088-.17-.158l-.146-.117c-.062-.059-.127-.109-.187-.17.059.041.211.152.375.281s.354.258.482.346c-.217-.129-.17-.094-.047-.006.064.041.141.1.223.154a1.745,1.745,0,0,1,.193.135c.053,0-.223-.17.111.018a7.638,7.638,0,0,1-.639-.43c.07.047.129.088.188.129.076.047.146.09.211.125.123.07.223.123.311.17a6.732,6.732,0,0,1,.734.381c-.178-.088-.152-.064-.076-.012s.2.129.217.146c.041.023.094.047.152.076s.123.059.188.088.123.053.176.082.105.041.146.059l-.111-.094c.111.047.211.094.293.135l.242.129c.082.041.164.082.264.123a3.044,3.044,0,0,0,.352.119c.041.006-.082-.041-.193-.088s-.234-.084-.182-.066c.094.029.182.066.258.1s.158.059.229.082c.135.053.264.105.381.152.139.057.277.113.434.17C172.248-518.16,171.664-518.355,171.152-518.568Zm12.275.5a.646.646,0,0,1-.113.041C183.369-518.045,183.4-518.057,183.428-518.068Zm1.549-.1a2.466,2.466,0,0,1,.252-.117,3.827,3.827,0,0,1-.439.211C184.771-518.08,184.871-518.121,184.977-518.168Zm-13.574-.111.113.029c.006.006.006.006,0,.006Zm.025-.283a6.193,6.193,0,0,1-.588-.293c.152.018.693.363.623.252a6.365,6.365,0,0,0-.588-.287,1.843,1.843,0,0,1,.482.229c.24.129.51.271.609.336C171.75-518.432,171.6-518.492,171.428-518.562Zm13.889-.111-.164.088C185.2-518.615,185.252-518.639,185.316-518.674Zm-15.979-.064a.493.493,0,0,0,.111.035.732.732,0,0,0-.07-.047l.041.012c.035.023.041.029.029.035a.85.85,0,0,1,.105.059C169.484-518.674,169.408-518.709,169.338-518.738Zm-.293-.135c.094.047.193.088.293.135A2.879,2.879,0,0,1,169.045-518.873Zm2.406-.082a.854.854,0,0,0-.27-.123c.7.387-.148-.047-.189-.053a1.311,1.311,0,0,0-.152-.094c.295.158.547.287.188.059-.129-.076-.264-.146-.393-.223l-.381-.234c.17.1.316.182.457.264s.293.158.465.264l.146.047c-.152-.094-.342-.193-.541-.3s-.4-.223-.592-.334c.123.059.252.117.375.182.064.029.123.064.188.094s.135.064.2.1c.137.064.277.141.43.217.076.035.152.076.234.117s.164.082.252.123c.164.088.094.064.029.041s-.123-.047-.018.018c-.094-.053-.2-.105-.275-.141s-.117-.047-.088-.023c.152.088.275.129.369.176.012.012-.018.006-.047-.006s-.07-.023.006.023C171.744-518.809,171.586-518.885,171.451-518.955Zm-.84.006-.029-.018.293.146.029.018Zm-3.531-1.027a3.709,3.709,0,0,1-.348-.275c-.064-.053-.135-.111-.2-.176s-.129-.123-.193-.182c-.252-.252-.486-.5-.621-.617.07.055.059.025,0-.053-.023-.035-.07-.082-.119-.141s-.1-.117-.164-.182.023.041.064.1c-.1-.123-.211-.252-.316-.393-.059-.07-.111-.141-.17-.211l-.158-.211a2.351,2.351,0,0,1-.158-.2c-.053-.066-.1-.125-.141-.184s-.094-.117-.135-.164c-.025-.033-.053-.068-.078-.1.057.061.111.119.172.174-.076-.094-.141-.187-.205-.27s-.113-.164-.172-.234c-.1-.152-.193-.287-.293-.416.012.012.076.1.076.082-.135-.264-.346-.529-.463-.781l.111.188a2.251,2.251,0,0,0-.182-.346c-.088-.176-.3-.533-.152-.2-.053-.117-.117-.234-.164-.352-.006-.006-.006.006,0,.018-.041-.1-.111-.254-.17-.395-.078-.182-.137-.34-.107-.322.125.229.125.193.324.594a2.371,2.371,0,0,0,.123.3c.053.111.117.229.188.357s.152.252.229.387.164.266.24.4a2.915,2.915,0,0,1,.293.4,1.928,1.928,0,0,1-.234-.3c-.082-.117-.129-.182-.047-.012a5.771,5.771,0,0,0,.316.5,2.061,2.061,0,0,0,.289.352c-.289-.4-.252-.393-.217-.375.018.006.035.018.012-.029a.621.621,0,0,0-.066-.105c-.029-.059-.082-.129-.146-.234.059.088.111.152.172.234s.129.17.229.311c.152.234,0,.041-.1-.082-.047-.059-.088-.105-.07-.07.012.018.029.053.076.117s.1.158.193.281l.117.053c.041.059.082.117.129.178s.094.123.141.182.088.117.129.176.088.1.117.141c-.111-.129-.217-.258-.311-.369s-.176-.2-.24-.266c.035.047.07.1.111.154s.082.111.129.17c.088.117.188.24.275.352a4.7,4.7,0,0,1,.34.428,11.277,11.277,0,0,0,1.2,1.057c.4.311.828.609,1.344.957.406.281.342.287.158.188a2.261,2.261,0,0,0,.377.223c.07.035.117.053.27.135-.158-.076-.211-.105-.211-.094a1.26,1.26,0,0,0,.141.129c.076.047.158.088.229.123A14.474,14.474,0,0,1,167.08-519.977Zm1.643,1.063c.006.006.012.006.018.012S168.729-518.908,168.723-518.914Zm17.08-.17c.006.006-.047.059-.094.094.035-.041-.082.012-.152.059A1.123,1.123,0,0,1,185.8-519.084Zm.986.117c.123-.082.012.006-.018.029Zm-.07-.094c-.018.012-.029.023-.053.041A.322.322,0,0,1,186.719-519.061Zm-.846.012c.082-.07.2-.146.313-.234.059-.041.111-.088.164-.129a1.488,1.488,0,0,0,.135-.117l-.105.076-.111.076c.088-.076.146-.129.188-.158a.469.469,0,0,1,.105-.07.919.919,0,0,0,.117-.076,2.8,2.8,0,0,0,.229-.2c-.088.061-.082.049-.029.006.029-.023.064-.053.111-.094s.082-.082.123-.123c-.041.029-.105.088-.182.152l-.24.2c-.164.129-.293.223-.24.146.053-.047.129-.105.223-.176s.188-.148.293-.23.205-.17.3-.252a3.16,3.16,0,0,0,.23-.252l-.012.018a4.641,4.641,0,0,0,.65-.758,3.955,3.955,0,0,0,.27-.316c.088-.117.176-.24.258-.346l.012.012c.076-.1.146-.2.219-.3a1.536,1.536,0,0,1-.189.27c-.082.1-.176.211-.27.34l.047-.012a3.252,3.252,0,0,0-.316.369c-.082.119-.164.23-.246.348.064-.082.146-.182.234-.281s.176-.207.258-.307a1.6,1.6,0,0,0,.293-.434l.184-.187.064-.105c.129-.146.041.029-.178.34-.047.047-.07.07-.059.053-.053.07-.094.141-.164.234a4.132,4.132,0,0,1-.293.371l.135-.184c-.17.207-.34.395-.475.553s-.246.281-.3.352a.878.878,0,0,0-.295.182,2.165,2.165,0,0,0-.24.27.75.75,0,0,1-.088.141c-.105.09-.2.184-.3.271s-.205.182-.311.264c.041-.041.082-.088.123-.135-.076.064-.158.123-.234.182s-.141.105-.2.146a.694.694,0,0,1-.186.117C185.875-519.043,185.873-519.045,185.873-519.049Zm-17.027-.082c-.041-.021-.09-.053-.139-.084.045.027.092.057.143.086Zm1.771-.094-.205-.129.34.182C170.629-519.236,170.641-519.219,170.617-519.225Zm-2-.047.09.057C168.674-519.234,168.645-519.254,168.617-519.271Zm2.053-.043c.051.025.111.057.17.09Zm-.369-.121c-.082-.07.035,0,.152.064a1.16,1.16,0,0,0,.193.1c.006.006.006.008,0,.008C170.623-519.264,170.4-519.391,170.3-519.436Zm-1.754.117c.018.012.047.029.07.047C168.594-519.289,168.564-519.307,168.547-519.318Zm2.094-.012.029.016A.213.213,0,0,0,170.641-519.33Zm16.564-.094-.053.053Zm-.943.029-.025.014C186.244-519.385,186.252-519.391,186.262-519.395Zm-16.2-.182.006-.006c.006.006.012.006.012.012Zm-.141-.023Zm16.729-.234c.064-.055.135-.113.129-.1-.053.035-.152.125-.223.178l-.008.006S186.6-519.787,186.648-519.834Zm-17.6-.031.063.031Zm-.061-.035.061.035A.448.448,0,0,1,168.992-519.9Zm-.047-.02.041.02Zm-.082-.039c-.025-.02.02.006.082.039C168.916-519.934,168.887-519.945,168.863-519.959Zm-.516-.123.076.059A.663.663,0,0,1,168.348-520.082Zm19.469-.258-.217.234-.053.041Zm.16.156c-.029.027-.059.053-.09.078Zm-19.807-.027c-.088-.064-.17-.129-.252-.193l-.129-.094-.123-.1c-.006-.012.012-.006.029,0a.132.132,0,0,0,.041.006c-.105-.088-.217-.176-.322-.27a.71.71,0,0,0,.164.111c.129.117.164.152.158.158.2.164.4.322.611.469C168.311-520.135,168-520.352,168.17-520.211Zm19.881-.041a.855.855,0,0,1-.074.068C188-520.207,188.025-520.23,188.051-520.252Zm-.158-.762a2.261,2.261,0,0,0-.146.2,2.147,2.147,0,0,1-.252.281c0-.018-.023-.006-.084.047s-.164.152-.34.3A11.605,11.605,0,0,0,187.893-521.014Zm-20.818.686-.053-.045a.9.9,0,0,0,.082.063l.111.094Zm21.141-.029-.117.117C188.139-520.281,188.174-520.322,188.215-520.357Zm-.064.012c-.035.035-.064.064-.1.094C188.086-520.287,188.115-520.316,188.15-520.346Zm.16-.154c-.053.053-.107.1-.166.16C188.2-520.4,188.254-520.449,188.311-520.5Zm-20.49.08.092.068.012.012Zm1.225.057a.128.128,0,0,1,.029.018Zm19.281-.152-.012.012c-.018.006-.018.006.018-.035l-.053.018a3.514,3.514,0,0,1,.264-.264.507.507,0,0,1,.1-.064c-.064.082-.141.152-.211.229-.047.059.023,0,.088-.059.082-.07.164-.141.064-.006.006-.018-.023.006-.088.059s-.158.146-.281.27C188.414-520.562,188.361-520.539,188.326-520.516Zm-21.389.07.084.072C166.992-520.4,166.965-520.422,166.938-520.445Zm.793-.041a2.576,2.576,0,0,0-.211-.152,1.767,1.767,0,0,1-.193-.141c-.064-.053-.146-.117-.252-.205a3.324,3.324,0,0,1,.352.258c.121.09.256.2.395.307C167.789-520.443,167.758-520.465,167.73-520.486Zm19.887.006v0Zm-18.736-.018.018.012Zm-.059-.047.059.047A.44.44,0,0,1,168.822-520.545Zm19.492.041h0l0,0Zm.152-.51c-.082.088-.275.316-.316.34A2.1,2.1,0,0,1,188.467-521.014Zm-21.957.252a.7.7,0,0,1,.064.07A.534.534,0,0,1,166.51-520.762Zm.029.006c-.029-.018-.059-.041-.029-.006l-.316-.3c-.053-.053-.105-.1-.152-.146s-.088-.1-.123-.137a4.939,4.939,0,0,1-.617-.633c.029.012-.012-.053-.059-.117s-.088-.123-.064-.105c-.076-.1-.164-.211-.258-.334s-.182-.242-.27-.365c-.176-.252-.346-.5-.465-.674l.09.146c-.318-.5-.16-.164-.383-.529l.053-.023c-.164-.234-.311-.516-.41-.686.018-.012.07.064.141.188a1.786,1.786,0,0,1,.123.217c.047.082.1.17.152.264.105.184.229.377.342.553s.234.328.316.434a3.251,3.251,0,0,0,.27.4c.018-.029.17.154.357.395.094.111.2.246.3.363s.2.229.283.316,0,.012-.064-.053-.129-.135-.064-.041c.252.275.4.375.691.693-.035-.035-.018-.012-.059-.047.221.2.268.246.256.246A.2.2,0,0,1,166.539-520.756Zm22.285-.293-.105.158a.163.163,0,0,1-.076.041Zm-21.141.07h0c.008,0,.012.008.01.008Zm20.32-.158c-.041.047-.076.082-.111.123C187.922-521.049,187.957-521.084,188-521.137Zm.881-.006.117-.113-.178.207Zm-22.043-.1c.027.025.057.051.084.08C166.9-521.189,166.869-521.215,166.842-521.24Zm21.309-.027c-.006.006-.012.018-.018.023l-.012.012C188.133-521.244,188.139-521.256,188.15-521.268Zm-21.389-.053.08.08C166.814-521.268,166.787-521.293,166.762-521.32Zm21.547-.152-.158.205C188.2-521.332,188.244-521.4,188.309-521.473Zm-22.721-.1-.018-.023.125.129.123.129C165.742-521.414,165.666-521.49,165.588-521.572Zm.283.012a2.388,2.388,0,0,1-.211-.246c.264.287.152.176.4.445C166.023-521.4,165.947-521.479,165.871-521.561Zm.246.18.006,0S166.119-521.379,166.117-521.381Zm-.006,0s0,0,.006,0Zm.928-.5a.183.183,0,0,1,.023.018l.006.006Zm-.012-.012.012.012Zm22.361-.053c.006,0,0,0,0,.006S189.389-521.941,189.389-521.947Zm-24.088-.029c-.018-.018-.047-.053-.07-.082.029.029.053.059.076.082Zm24.072-.338c-.006.008-.012.018-.02.027A.237.237,0,0,1,189.373-522.314Zm.033-.049a.305.305,0,0,0-.033.049A.264.264,0,0,1,189.406-522.363Zm.3-.271-.006.023-.023.029C189.693-522.6,189.7-522.617,189.711-522.635Zm-25.395-.357a.391.391,0,0,0,.027.031A.209.209,0,0,1,164.316-522.992Zm25.889-.393a.98.98,0,0,1-.061.117C190.162-523.3,190.18-523.338,190.205-523.385Zm-26.131-.27-.018-.029.188.264.014.035Zm1.318.238s0,0,0,0l.012.012Zm-.145-.361a1.437,1.437,0,0,1,.223.24A2.636,2.636,0,0,1,165.248-523.777Zm-1.209.117a.711.711,0,0,1,.059.082C164.08-523.6,164.063-523.631,164.039-523.66Zm26.359-.27a1.046,1.046,0,0,1-.053.135A.649.649,0,0,1,190.4-523.93Zm-25.6-.4v0Zm26.111-.586c.006-.029.018-.064.029-.105-.006.029-.012.053-.018.082s.012.012-.041.135c-.035.111-.059.164-.023.041l-.047.117s-.006.006-.008.006A1.366,1.366,0,0,1,190.914-524.916Zm.352-.193a.782.782,0,0,0,.059-.187l-.041.234-.047.234s0,.008-.006.008C191.213-524.82,191.271-525.078,191.266-525.109Zm-28.193.012c.006.023.012.047.018.064A.264.264,0,0,1,163.072-525.1Zm.17-.111c.029.047.059.1.1.17A1.188,1.188,0,0,1,163.242-525.209Zm28.023.1c-.006.012-.006.018-.012.023C191.26-525.115,191.266-525.115,191.266-525.109Zm-28.176-.342-.076-.135c-.029-.053-.064-.117-.105-.2,0,.082-.018,0-.125-.193-.059-.2.047.082.082.094-.064-.152-.123-.3-.176-.41s-.088-.164-.088-.129c.135.363.094.27.047.17-.035-.076-.076-.152-.023.012a3.925,3.925,0,0,1-.311-.846c.059-.012.053-.205.182.082.053.129.117.281.176.447s.129.334.193.5.137.328.2.475.129.27.176.371A1.832,1.832,0,0,0,163.09-525.451Zm-.289-.211a3.249,3.249,0,0,1,.143.3A1.924,1.924,0,0,1,162.8-525.662Zm28.871-.662c-.006.059-.018.123-.023.182l-.029.105C191.637-526.131,191.66-526.23,191.672-526.324Zm-.74.076-.023.205C190.914-526.113,190.92-526.184,190.932-526.248Zm-.58-4.982c-.006.006-.006,0-.023-.035s-.012-.059-.018-.094c-.029-.094-.059-.182-.094-.275l-.09-.27-.1-.266c-.035-.094-.07-.182-.105-.27,0,.023-.047-.076-.105-.205s-.123-.27-.158-.34c.082.158.105.188.1.164l-.047-.105c-.047-.1-.088-.193-.141-.287-.035-.059-.082-.158-.135-.27s-.123-.236-.182-.342c-.117-.217-.217-.375-.187-.27-.023-.047-.053-.1-.076-.152s-.064-.105-.094-.164-.064-.123-.107-.187-.082-.129-.135-.2c-.012-.029-.012-.041-.006-.041l-.01-.016a.112.112,0,0,0,.021.021c.012.018.023.035.041.059.117.152.207.27.082.047.061.082.113.176.172.27s.111.188.158.27c.1.164.17.281.182.264a2.931,2.931,0,0,0-.17-.352c.076.135.141.24.2.334s.1.182.152.264.094.164.141.26.1.182.145.3c-.012-.027-.027-.057-.045-.09a1.759,1.759,0,0,1-.088-.152c-.059-.105-.123-.219-.182-.312-.111-.182-.176-.264-.059-.012.082.117.158.236.234.354.07.17-.064-.088-.105-.146a1.919,1.919,0,0,0,.117.281,3.306,3.306,0,0,0,.164.328c-.006-.047-.152-.369-.012-.111.094.182.182.369.27.557l.123.281c.025.061.049.119.072.178a.179.179,0,0,0-.029-.053c-.012-.012-.018-.012-.018-.012H190.2c.047.117.076.193.117.281a2.2,2.2,0,0,1,.123.357c-.059-.146-.123-.287-.182-.434.041.123.076.223.105.3s.047.152.064.205c.035.117.059.188.076.258s.035.129.07.234c.012.047.029.107.053.184s.047.164.082.27l-.012-.012c.082.311.193.873.264,1.156l-.035-.006a1.133,1.133,0,0,1,.07.363c0,.047.006.1.012.182s.018.2.041.357l-.018-.1c.047.4.006.211-.018.188.012.152.018.277.029.377.006.053.012.1.018.146l.018.141c.012.088.018.176.029.281s0,.234-.012.387c-.006-.012-.018.035-.029.082s-.023.076-.029.053c.012-.076.012-.176.018-.275a2.343,2.343,0,0,0-.006-.293c-.018-.053-.023.07-.023.193-.006.158-.012.316-.023.105a3.393,3.393,0,0,1-.029.357c-.012.113-.018.225-.035.348A13.028,13.028,0,0,0,190.352-531.23Zm1.184,4.777-.006.033Zm.023-.105c-.006.029-.018.07-.023.105C191.541-526.482,191.547-526.518,191.559-526.559Zm.008-.035c0,.012-.008.023-.008.035A.336.336,0,0,1,191.566-526.594Zm-.1-.1v0Zm-28.746-.07c0,.006.006.012.006.018A.022.022,0,0,1,162.725-526.766Zm-.258-.568-.041-.141c-.012-.033-.018-.068-.027-.1.039.131.086.256.133.383Zm.047-.094a1.566,1.566,0,0,1-.053-.152c.023.064.047.123.076.188Zm-.129-.193a.3.3,0,0,1,.014.045C162.395-527.592,162.389-527.605,162.385-527.621Zm29.133-.969c-.012.064-.018.105-.029.146A.812.812,0,0,1,191.518-528.59Zm-28.693-.281c.023.123.041.234.053.34Zm28.658-.105.006.07c-.012.082-.018.164-.035.24A2.657,2.657,0,0,0,191.482-528.977Zm.295-.166a.18.18,0,0,1,.006.055A.391.391,0,0,0,191.777-529.143Zm-.283-.562c0,.047.006.094.006.135A1.083,1.083,0,0,1,191.494-529.705Zm-.064-.123a.782.782,0,0,1,.047.188C191.465-529.693,191.447-529.752,191.43-529.828Zm.646.035c-.006-.068-.012-.139-.012-.141.006-.053.018-.092.029.182a.371.371,0,0,1-.008.109S192.08-529.717,192.076-529.793Zm-.012-.141c-.006.012-.006.023-.012.029C192.059-529.922,192.059-529.928,192.064-529.934Zm0,0Zm-.811-.521c-.018-.07-.035-.152-.059-.24s-.047-.189-.076-.289c-.047-.205-.117-.428-.182-.627a3.756,3.756,0,0,0-.193-.492,2.161,2.161,0,0,0-.146-.459c-.023.023-.117-.193-.24-.469-.059-.135-.129-.287-.2-.428s-.135-.271-.187-.377,0-.012.047.07.088.158.047.053c-.164-.328-.281-.463-.48-.844.025.041.02.02.037.043-.229-.348-.189-.3-.143-.254.023.023.047.053.035.018.07.117.152.246.223.369a1.989,1.989,0,0,1,.105.176,1.525,1.525,0,0,1,.088.164,5.244,5.244,0,0,1,.424.764c-.023-.023,0,.047.023.123s.053.146.035.123c.053.117.105.246.164.387s.105.281.158.422c.105.289.205.564.27.77l-.047-.17c.176.568.111.205.229.609l-.059.012c.094.266.164.576.211.764h0C191.322-530.238,191.295-530.324,191.254-530.455Zm-1.619-4.043Zm2.371,4.16c.006.041.012.064,0,.076Zm-29.254-.43c0,.047-.006.1-.016.178C162.742-530.656,162.748-530.713,162.752-530.768Zm0-.029a.148.148,0,0,1,0,.029C162.752-530.777,162.754-530.787,162.754-530.8Zm28.539-.463a.154.154,0,0,1,.008.023C191.3-531.244,191.295-531.252,191.293-531.26Zm-.027-.193c.018.076.029.141.041.205C191.295-531.3,191.283-531.365,191.266-531.453Zm.111-.047a1.848,1.848,0,0,0-.053-.211,3.507,3.507,0,0,0-.117-.375c-.047-.125-.094-.248-.146-.395q-.044-.105-.088-.229c-.035-.088-.059-.176-.1-.275a.83.83,0,0,1,.047.105c.012.035.029.07.041.1.023.064.053.129.076.188s.047.111.07.164.041.111.059.164c.035.105.082.213.117.33s.076.252.123.4l.012.27C191.406-531.342,191.395-531.424,191.377-531.5Zm-.381-.123-.006-.029.105.3.006.035Zm.287.088c-.041-.117-.082-.229-.088-.176l-.006-.187a1.678,1.678,0,0,0,.076.264.985.985,0,0,1,.088.293c0,.008,0,.01,0,.01A1.265,1.265,0,0,1,191.283-531.535Zm-.187.105a.834.834,0,0,0,.029.094A.834.834,0,0,1,191.1-531.43Zm-.838-.533a.979.979,0,0,1,.041.111C190.287-531.887,190.27-531.928,190.258-531.963Zm-27.92.035a.236.236,0,0,1-.023.07C162.32-531.893,162.326-531.922,162.338-531.928Zm29.24-.213c.023.066.047.143.07.213,0,.027,0,.039,0,.039A2.365,2.365,0,0,1,191.578-532.141Zm-.33.043c0-.018.016,0,.035.047-.006-.006,0,.014,0,.041a1.035,1.035,0,0,1,.023.117A2.033,2.033,0,0,1,191.248-532.1Zm.035.047a.059.059,0,0,1,.006.018Zm.27-.076c.006.029.014.053.02.082A.569.569,0,0,1,191.553-532.127Zm-.549.014c.012.023.023.045.033.068C191.027-532.068,191.016-532.09,191-532.113Zm.563-.062c.006.006.006.018.012.035C191.572-532.152,191.572-532.164,191.566-532.176Zm-29.176-.264c.059-.2.029-.082.006.035-.018.076-.035.152-.023.146-.008.018-.016.035-.02.035A.765.765,0,0,1,162.391-532.439Zm-.006.152c0,.012-.006.018-.012.029A.246.246,0,0,0,162.385-532.287Zm.629-.182c-.012.047-.018.094-.029.135C163-532.387,163-532.428,163.014-532.469Zm.188-.639c.035-.076.064-.152.1-.223-.041.094-.076.193-.111.293Zm26.561-.01a.238.238,0,0,1,.014.033A.169.169,0,0,0,189.762-533.117Zm.6-.16.006.006a.572.572,0,0,0,.041.094A.763.763,0,0,1,190.357-533.277Zm-27.033-.277a.712.712,0,0,1-.059.131C163.289-533.477,163.307-533.52,163.324-533.555Zm26.475-.484c.027.051.078.135.123.221a2.964,2.964,0,0,1,.135.287C189.885-533.863,189.955-533.742,189.8-534.039Zm.316.174-.088-.158c.059.094.111.188.164.281l.008.035Zm-.328-.193a.172.172,0,0,0,.012.02Zm-.059,0,.006.006Zm-.721-.41c.047.076.088.135.117.193C189.09-534.334,189.055-534.393,189.008-534.469Zm1.549-.316.094.117.082.129c.023.041.047.088.07.129C190.732-534.539,190.639-534.656,190.557-534.785Zm.041.193.035.029c.029.041.064.088.094.135A1.765,1.765,0,0,0,190.6-534.592Zm-1.09-.187a.213.213,0,0,0,.016.029A.2.2,0,0,1,189.508-534.779Zm-.031-.053c.014.021.023.039.031.053C189.5-534.8,189.484-534.816,189.477-534.832Zm-25.443-.143c.023-.047.053-.088.076-.135l.018-.029-.07.141-.07.137-.018.029Zm24.586.094.02.027A.139.139,0,0,1,188.619-534.881Zm-.129-.146c-.094-.146-.117-.187-.111-.193.082.111.164.223.24.34A.718.718,0,0,0,188.49-535.027Zm1.385-.229c-.029-.041-.059-.076-.088-.111-.059-.076-.117-.141-.17-.205.094.111.17.176.258.281a.951.951,0,0,0,.088.164C189.934-535.168,189.9-535.215,189.875-535.256Zm.365.088c.006.006.006.012.012.018S190.24-535.162,190.24-535.168Zm-1.174-.17-.088-.111.111.141.1.146Zm-.658.129c-.012-.012-.029-.018-.029-.012-.146-.211-.3-.41-.469-.609.035.023.275.311.152.135.07.082.129.164.193.246l.094.123.094.129s0,0,0,0A.239.239,0,0,1,188.408-535.209Zm.1-.105.016.018A.16.16,0,0,1,188.508-535.314Zm-24.715-.5.053-.094c-.041.088-.088.176-.129.27C163.74-535.7,163.764-535.76,163.793-535.818Zm24.076-.123a.663.663,0,0,0,.059.076A.663.663,0,0,1,187.869-535.941Zm.012-.775c.023.023.041.047.059.064A.642.642,0,0,1,187.881-536.717Zm-22.961-.012v0Zm.041-.082-.006.012Zm.975-.727c.012-.006.006-.006-.006.012Zm19.5-.6a.331.331,0,0,0,.027.02.043.043,0,0,0,.01.008Zm-19.424-.086c-.018.023-.053.059-.088.1A.789.789,0,0,1,166.012-538.219Zm.854-.086c-.064.053-.133.107-.2.166C166.73-538.2,166.8-538.25,166.865-538.3Zm.221-.178c.207-.16.4-.3.6-.434-.242.168-.479.34-.707.521-.039.029-.076.059-.115.09C166.941-538.367,167.014-538.426,167.086-538.482Zm-.488-.158a.966.966,0,0,1,.141-.105l-.152.115Zm19.035-.076a.017.017,0,0,1,.012.006Zm-19.018-.023.029-.023-.041.041Zm1.332-.354-.26.178C167.773-538.977,167.859-539.035,167.947-539.094Zm16.994.074,0,0Zm-.02-.012.02.012Zm-.057-.039.057.039C184.9-539.043,184.885-539.057,184.865-539.07Zm-18.156-.006h0l0,0Zm15.891-.6.088.035A.451.451,0,0,1,182.6-539.68Zm-.191-.082a.051.051,0,0,1,.016.006Zm-.014-.006.014.006Zm-14.129-.227a.289.289,0,0,0-.025.016A.289.289,0,0,0,168.266-539.994Zm.375-.236a1.885,1.885,0,0,1-.375.236C168.381-540.066,168.6-540.215,168.641-540.23Zm12.088.018c-.07-.018-.137-.029-.213-.047s-.141-.029-.217-.047c-.146-.031-.3-.061-.469-.1l-.258-.053c-.088-.023-.182-.041-.275-.059-.189-.053-.119-.041-.049-.035s.137.018.025-.018a2.308,2.308,0,0,0,.3.064c.082.012.129.023.088,0-.17-.041-.3-.053-.4-.076-.023-.012.014-.012.043-.012s.076,0-.006-.018c.105.023.275.059.428.094a1.126,1.126,0,0,0,.293.053c-.516-.135-.287-.094-.059-.047.123.023.24.047.258.047a.579.579,0,0,0,.131.045c-.311-.072-.555-.127-.16,0,.146.041.293.076.439.125l.35.1c-.156-.047-.291-.082-.426-.115-.164-.037-.322-.078-.521-.143l-.158-.006c.176.047.387.105.6.154s.447.117.664.17C181-540.16,180.869-540.184,180.729-540.213Zm.248.016c.027.008.057.016.086.025Zm-12.707-.121c-.094.047-.187.094-.053-.006-.012.012.023,0,.1-.037s.189-.1.348-.187c-.264.158-.193.135-.152.117s.059-.012-.289.2C168.5-540.432,168.389-540.379,168.27-540.318Zm12.963.053h.006Zm.141-.018s0,0,0,0S181.377-540.281,181.373-540.283Zm-.574-.09c-.105-.029-.213-.059-.213-.041-.053-.041.248.047.377.07.027.014.035.02.025.02A1.667,1.667,0,0,1,180.8-540.373Zm-.2.012.039.01Zm-.217-.053.217.053C180.545-540.373,180.469-540.391,180.387-540.414Zm.121-.062c.082.02.076.01.1.01l.23.076C180.729-540.42,180.619-540.449,180.508-540.477Zm-.16.055.039.008Zm-11.027-.215.064-.029-.334.2Zm11.131.146c.02.006.039.01.057.014A.57.57,0,0,1,180.451-540.49ZM171-540.584l-.182.053A1.49,1.49,0,0,1,171-540.584Zm-2.193-.053a1.381,1.381,0,0,1-.146.088C168.7-540.572,168.746-540.6,168.8-540.637Zm10.645-.023a1.305,1.305,0,0,0-.33-.041c.088.018.2.035.248.047.158.041.07.029-.023.018-.059-.006-.125-.018-.125-.006l-.545-.135-.34-.018c.328.076.316.076.281.076s-.07-.006.07.047c-.246-.07-.887-.164-1.086-.246l.658.064c-.141-.023-.264-.053-.389-.064l-.006-.053-.105-.018c.154.023.172.006.295.023.094.023.211.053.357.082.07.018.152.035.24.053s.176.041.275.064a6.944,6.944,0,0,1,.775.141c.023.012.027.016.016.016C179.689-540.609,179.572-540.635,179.449-540.66Zm.85-.135a.212.212,0,0,1,.039.01Zm-.334-.076c.053.012.123.029.24.059Zm-9.131-.123-.023.006Zm6.85-.01.057.01C177.723-541,177.705-541,177.684-541Zm-.406-.031c-.047.012-.094.023-.592-.059.141.023.129.012.146.006-.059-.012-.176-.035-.3-.053s-.258-.035-.346-.041l.041-.006-.791-.105a1.98,1.98,0,0,1,.434.041,2.392,2.392,0,0,0,.4.047l-.434-.07.734.076c-.289-.023-.023.041.229.064.059-.035.064-.006.463.035-.076-.006.088.041.281.07.057.012.1.02.137.025C177.361-541.053,177.322-541.047,177.277-541.035Zm-5.949-.141a.327.327,0,0,1,.123-.07c-.053.035.082.012.158-.012a1.857,1.857,0,0,1-.277.082Zm-.951-.287-.117.047a2.742,2.742,0,0,1,.316-.152c.07-.029.146-.059.223-.088s.152-.055.223-.078a2.42,2.42,0,0,1-.428.2c-.123.053-.264.117-.387.176s-.24.117-.322.164C170.043-541.293,170.213-541.375,170.377-541.463Zm7.691.189c.066.01.133.021.2.033l.029.006C178.223-541.248,178.145-541.262,178.068-541.273Zm-.182-.031c.061.01.121.02.182.031C178.006-541.283,177.947-541.293,177.887-541.3Zm-.346-.047-.012-.006c.021,0,.039.008.033.008Zm-7.006-.035-.035.012A.244.244,0,0,1,170.535-541.387Zm6.174-.018.041.006A.206.206,0,0,1,176.709-541.4Zm-.012,0h.012Zm-.289-.035c.076,0,.154.006.23.006.123,0-.029.012.053.029Zm-5.955.018-.012.006Zm.059-.029a.314.314,0,0,0-.064.029A.217.217,0,0,1,170.512-541.451Zm3.074-.158c-.018.006-.029.006-.035.012S173.568-541.6,173.586-541.609Zm.746-.09a.068.068,0,0,1-.041.008C174.279-541.691,174.3-541.691,174.332-541.7Zm-.588-.006-.111.014A.659.659,0,0,1,173.744-541.705Zm-1.551-.021-.008,0h0S172.191-541.725,172.193-541.727Zm.385-.172a.877.877,0,0,1-.2.047c-.117.018-.24.041-.275.047A2.941,2.941,0,0,1,172.578-541.9Zm5.6-.047a.8.8,0,0,1,.094.006C178.223-541.939,178.193-541.945,178.176-541.945Zm-.012,0h0Zm-5.416-.006c.006,0,.006,0-.006.006Zm4.682-.082c-.07-.018.146-.023.41.023-.111-.006-.223-.018-.334-.023a2.583,2.583,0,0,1,.441.076C177.775-541.98,177.605-542.01,177.43-542.033Zm-3.809.012L173.5-542A1.206,1.206,0,0,1,173.621-542.021Z" transform="translate(-156.609 546.762)" fill="#d8d9bc" stroke="#d8d9bc" stroke-width="1"/>
  <rect id="Rectangle_75" data-name="Rectangle 75" width="40" height="36" fill="none"/>
</svg>
