<svg id="button_Button1-6_noramal" data-name="button/Button1-6/noramal" xmlns="http://www.w3.org/2000/svg" width="150" height="100" viewBox="0 0 150 100">
  <path id="路径_442" data-name="路径 442" d="M1551.423-26.719c-6.806.983-1.906-.616-.405-.738.537-.043,1.35-.258,2.342-.394a15.441,15.441,0,0,0,.693-4.149c0-.063,0-.119,0-.181-1.908.166-4.608.428-8.145.862-10.265,1.261-2.477-.418.813-1.041a23.914,23.914,0,0,1,4.181-.408c.271-.06.562-.112.875-.149.059-.007.121-.011.184-.013l2.086-.054c0-.438-.016-.867-.042-1.281-.624,0-1-.005-1-.005s.024-.2.972-.45a20.417,20.417,0,0,0-.38-2.662c-3.971.357-9.5.853-10.77,1.175-.236.06,7.992.944,7.7.935-2.978-.093-23.16.853-16.285-1.057a2.6,2.6,0,0,1,.482-.081c1.62-.129,10.432-.821,18.814-1.242-1.653-7.158-2.543-11.228-5.92-16.307-4.054.834-16.534,3.007-16.534,3.007s-7.91-.758-3.527-1.79c5.2-1.225,12.2-2.791,19.171-2.876a78.389,78.389,0,0,0-6.369-7.637l-11.972,1.6a3.327,3.327,0,0,1-.617-.01c3.5.392,13.035-1.636,12.589-1.59-.206-.488-1.153-1.012-1.344-1.534-2.451.21-10.807,1.163-15.126,1.722-11.2,1.45-4.91-1.58-.211-1.723.036,0,.07,0,.107,0,.511.025,9.609-.037,15.23,0-1.434-2.2-1.614-3.642-2.945-5.1a3.73,3.73,0,0,1-1.037.383c-5.614,1.528-26.737,1.448-18.817.581,3.236-.354,18.467-1.647,19.812-1.165-.251-1.191-2.278-3.734-3.242-4.616-29.2-26.713-104.747-19.187-108.438,23.263C1421.773-21.9,1459.481-11,1491.819-8.569s55.411-2.552,61.223-18.347C1552.528-26.863,1552-26.8,1551.423-26.719Z" transform="translate(-1414.217 99.297)" fill="#dcdcc3"/>
  <path id="路径_443" data-name="路径 443" d="M1572.754-19.125c-8.274,1.129-1.186-.858.637-1,1.121-2.31,2.519-5.313,2.521-5.385-1.843.151-.38-.617,0-.661.072-.007-4.695,0-4.619,0l4.619-.911c-.005-.5.657-3.755.442-4.706a30.875,30.875,0,0,0-7.713,1.548c-.287.068,6.549.678,6.192.668-3.62-.107-32.105,4.785-23.748,2.59.169-.043,11.913-3.242,12.126-3.258,1.969-.149,2.956-1.458,13.143-1.941-1.01-7.973-3.934-12.383-7.038-19-4.927.958-10.185,1.776-10.185,1.776s1.708-1.679,10.185-1.776c-1.661-3.318-3.558-5.056-5.426-9.037l-12.806.745a4.413,4.413,0,0,1-.75-.013c-1.194-.126,7.552-.791,12.876-1.3-.25-.56-1.241-1.805-1.473-2.4-2.978.241-26.591,4.4-31.84,5.038-13.61,1.665,9.751-4.753,15.463-4.917.044,0,.086,0,.13,0,.622.028,9.413-.165,16.247-.122-1.53-1.624-4.609-4.6-5.391-5.185a7.04,7.04,0,0,1-1.224.306c-6.824,1.755-28.459,1.245-18.831.249,3.934-.407,18.42-1.11,20.056-.556C1551.575-71.334,1542-82.7,1513.81-83.863s-65.938,14.6-68.576,40.13,13.839,32.626,59.092,37.394S1567.555-10.2,1572.754-19.125Z" transform="translate(-1435.964 90.924)" fill="#ffffe2"/>
  <rect id="矩形_379" data-name="矩形 379" width="150" height="100" fill="none"/>
  <g id="组_733" data-name="组 733" transform="translate(-244.874 -73.358)">
    <path id="联合_18" data-name="联合 18" d="M75.57,27.4c-.113-.069-.09-.075-.082-.078s0-.007-.125-.112c.08.08.074.082.018.048a.637.637,0,0,1-.112-.092.446.446,0,0,1-.112-.19.625.625,0,0,1,.05-.389c.021-.06.029-.091.015-.073.175-.273.376-1.017.408-.866.119-.354.058-.305.021-.2a8.429,8.429,0,0,0,.281-1.1c.083-.218.409-1.881.566-2.281-.088.214-.009-.051.033-.3l-.09.215c.046-.186.091-.372.141-.557a.609.609,0,0,1,.039-.145c.027-.094.014.028.088-.209a5.313,5.313,0,0,0,.141-.612l-.023.056.076-.255c.024-.078,0,.026-.025.129-.032.145-.059.29.061-.062a2.117,2.117,0,0,1,.141-.537c-.1.308-.066.277-.019.167l.145-.431-.091.129q.311-.928.68-1.876.183-.474.379-.951l.2-.478a4.053,4.053,0,0,0,.18-.479,2.711,2.711,0,0,0,.152-.445c.069-.225.168-.428.163-.36l-.026.048c-.116.325.05-.089.2-.324-.082.122-.023,0,.011-.066.013-.03.021-.045,0-.03a.415.415,0,0,0-.046.059,1.606,1.606,0,0,0-.105.174c.018-.043.043-.083.064-.125s.055-.09.064-.107l.045-.068a.321.321,0,0,0,.041-.056c-.042.007-.078.012-.111.015l-.048,0h-.023s-.035,0-.052,0c-.164-.01-.362-.03-.576-.055-.429-.05-.92-.125-1.331-.186a.39.39,0,0,0,.081.006,9.428,9.428,0,0,1-1.1-.226c-.332-.088-.59-.173-.673-.2l-.058-.033a1.674,1.674,0,0,1-.65-.248.367.367,0,0,1-.1-.331,1.5,1.5,0,0,1,.155-.442c0,.01-.041.091.018-.017a.712.712,0,0,1,.2-.257.771.771,0,0,1,.565-.134l-.021,0a6.905,6.905,0,0,1,.8.122,5.362,5.362,0,0,0,.7.152c.368.069.769.1.888.12h.186l.093,0c.046.009.01-.027,0-.05L77.99,12.7l-.071-.129c-.046-.083-.084-.16-.114-.219a.4.4,0,0,0-.023-.057,6.314,6.314,0,0,1-.434-1.158c-.064-.215-.044-.12-.024-.024-.055-.215-.13-.511-.185-.777s-.094-.5-.1-.579c-.023-.208-.016-.2-.008-.189s.009.01.009-.022c-.025-.24-.032-.218-.04-.218s-.006,0-.012-.049a1.987,1.987,0,0,1-.019-.3.611.611,0,0,0,.015.167,1.039,1.039,0,0,1,0-.225.5.5,0,0,1,.106-.253.832.832,0,0,1,.423-.228.809.809,0,0,0-.163.044.574.574,0,0,1,.368-.054.412.412,0,0,1,.17.093A.66.66,0,0,1,78,8.66a2.177,2.177,0,0,1,.119.259.438.438,0,0,0,.068.127l0-.045c.3.713.144.3.44,1.021l-.006-.008a5.585,5.585,0,0,0,.282.634l-.042-.11c.168.389.18.425.345.824.022.045.107.236.123.295.034.007.4.92.467,1.1-.134-.314-.084-.159-.06-.065a1.236,1.236,0,0,0,.141.221.505.505,0,0,0,.242.161.245.245,0,0,1,.121-.045c.037-.008.087-.016.158-.035.033-.01.081-.022.137-.035s.118-.027.188-.037c-.086.018-.222.052-.165.048s.188-.033.231-.044-.122.035-.058.04a5.146,5.146,0,0,1,1.194-.077c-.171.014-.023.022.038.038a1.05,1.05,0,0,1,.327-.009c.165.008.309.015.2-.019a4.088,4.088,0,0,0,.846-.078,1.2,1.2,0,0,1,.5,0,.96.96,0,0,1,.445.232c.519.494.193,1.264-.1,1.264-.06.016-.172.044-.277.063s-.223.051-.313.066l.02-.03c-.5.134-.388.089-.978.24.242-.075.136-.069-.117-.053q-.2.062-.405.117l-.086-.03a2.916,2.916,0,0,1-.548.053,1.977,1.977,0,0,1-.44.05h-.217a.622.622,0,0,0-.065,0c-.042,0-.069.021-.07.038-.024,0-.04.026-.049.053a1.633,1.633,0,0,0-.033.164.7.7,0,0,1-.1.295c-.012.063-.033.141-.058.225.056-.077.1-.1.022.058l-.014.038-.06.055c-.057.163-.118.323-.157.428.022-.046.048-.1.079-.153l-.09.182-.021.056a.265.265,0,0,1,.011-.034l-.032.071-.025.066a.3.3,0,0,0-.019.082.636.636,0,0,0-.046.127l-.007.033,0,.016s0,.007,0,.006l.007-.005c.019-.014.037-.03.058-.043a.518.518,0,0,1,.076-.043.3.3,0,0,1,.038-.015l.019-.005.01,0,.028,0a.917.917,0,0,1,.434.076,2.457,2.457,0,0,1,.337.18l.147.09c.051.032.1.066.15.1a1.131,1.131,0,0,0-.242-.131c.113.061.242.135.358.2s.229.144.331.22c.208.146.389.286.535.389l0-.043a3.885,3.885,0,0,1,.782.749l.042-.009a4.834,4.834,0,0,1,.526.87,2.223,2.223,0,0,1,.223.837,1.767,1.767,0,0,1,.077.415c.006.1.013.2.019.289s.008.177.014.246l-.026.071c0,.355.009.573.014.786-.077.716-.076,1.378-.139,2l-.009.005-.041.629c-.009-.166.005.125-.019.312,0,.1-.013.23-.027.365-.006.064-.017.14-.03.216a1.28,1.28,0,0,1-.06.209,1.246,1.246,0,0,1-.214.415c.173-.294.1-.195.017-.095-.045.053-.093.105-.112.1a1.218,1.218,0,0,1-.2.207c-.045.023-.025,0,0-.02s.059-.054-.038.009a1.433,1.433,0,0,1-.4.21c-.168.062-.336.1-.423.123a.811.811,0,0,0,.178-.007c.021-.007.02-.006.006,0l.019,0-.022,0-.072.025c-.177.024-.23.021-.241.027s.025.01.032.016c-.2-.01-.349-.032-.486-.051-.068-.012-.133-.026-.2-.042-.049-.015-.1-.032-.149-.052.092.044-.1,0-.3-.063-.224-.071-.453-.186-.353-.108-.12-.079-.162-.1-.194-.121a.439.439,0,0,1-.122-.09,2.62,2.62,0,0,0,1.04.355c-.1-.029-.195-.068-.29-.1a3.283,3.283,0,0,1,.431.092,1.594,1.594,0,0,0,.426.057,1.244,1.244,0,0,1-.4-.048l.07.049a1.869,1.869,0,0,0,.606.012,1.952,1.952,0,0,0,.487-.148c-.143.039-.058.009.031-.036s.18-.1.08-.07a1.659,1.659,0,0,1-.211.087c-.031,0-.032,0-.019-.007a2.386,2.386,0,0,1-.251.063,3.06,3.06,0,0,1-2.079-.519.705.705,0,0,1-.214-.127c-.111-.088-.2-.2-.157-.116a.9.9,0,0,1-.089-.175,3.23,3.23,0,0,1-.137-.325c-.042-.129-.038-.046,0,.083a2.15,2.15,0,0,0,.136.338c-.086-.134-.124-.207-.145-.244s-.026-.038-.033-.041a.58.58,0,0,1,.006-.322c.024-.045.04-.021.072.1a.692.692,0,0,1,.033-.412c-.016.032-.018.036-.014.013a.565.565,0,0,1,.1-.18h.017l-.015.023a.862.862,0,0,1,.091-.107c.333-.329.718-.113,1.059.031.167.072.285.253.443.357.368.242.611.181.577-.307-.07-1.014.319-1.972.238-3.018a3.777,3.777,0,0,0-1.916-3.267,1.44,1.44,0,0,1-.738-.581l-.006.024.035.054.007.01c.009.015.015.029-.043-.061l-.033.123-.023.061.055-.184-.009-.014-.221.707c.057-.161.112-.318.063-.143l.068-.233c-.016.079-.22.729-.25.866l-.233.729c0-.008,0,0,0,.017s0,.041.019-.033c-.054.182-.1.34-.022.1-.278.872-.553,1.758-.818,2.643l-.4,1.323c-.064.218-.139.439-.2.653a6.439,6.439,0,0,0-.131.657c-.013.12.006.052.02.008a1.99,1.99,0,0,0-.042.5c-.036.16-.074.32-.122.478-.02.135,0,.109.009.084s.013-.024.015-.019a2.95,2.95,0,0,1-.217.671,2.475,2.475,0,0,1-.172.306,1.634,1.634,0,0,1-.228.265,1.274,1.274,0,0,1-.593.324.949.949,0,0,1-.217.025A1.021,1.021,0,0,1,75.57,27.4ZM80.1,25.6l.024.024-.021-.024h0Zm-.127-.166a.619.619,0,0,0,.064.084A.734.734,0,0,1,80,25.455a1.615,1.615,0,0,1-.176-.389A1.11,1.11,0,0,0,79.978,25.431Zm3.663-.134c.015.046.034.093.08-.1.11-.764-.014-.637.081-1.564,0-.028,0-.018.008-.007s.031.045.05-.291a5.252,5.252,0,0,0-.028-.933c-.033.636-.093,1.27-.152,1.9.008-.057.016-.1.022-.133a4.009,4.009,0,0,0-.039.543l.049-.334c-.024.272-.081.484-.1.888,0-.007.007-.01.01-.01S83.634,25.276,83.641,25.3Zm.123-.09v.01l.02-.146S83.778,25.109,83.764,25.206Zm-7.142-3.875c-.005.057-.012.114.031-.085Zm7.167-.98c0-.036.009-.083.022-.07a1.7,1.7,0,0,0-.1-.323C83.743,20.085,83.768,20.215,83.788,20.35ZM82.481,17.9a4.447,4.447,0,0,1,.337.338c.027,0,.055,0,.082,0l-.038.046a4.118,4.118,0,0,1,.3.386.126.126,0,0,0-.015-.051c-.018-.037-.051-.1-.1-.179s-.107-.16-.166-.242l-.171-.213-.095-.1a.14.14,0,0,0-.064-.017A.091.091,0,0,0,82.481,17.9Zm-2.819-.344.009.013.007-.023-.009-.013Zm.2-.7a.7.7,0,0,1,.623-.193.81.81,0,0,1,.083.006,3.077,3.077,0,0,1,.465.128,2.49,2.49,0,0,0-.42-.183.757.757,0,0,0-.113-.056.533.533,0,0,0-.463.144,1.5,1.5,0,0,0-.122.1l-.033.028s0-.01,0-.016,0-.013,0-.02C79.875,16.824,79.869,16.843,79.866,16.863Zm1.619-2.121c.083-.006.036-.006.03-.014A.1.1,0,0,1,81.485,14.742Zm1.067-.212c.023.021.041.039.015.059l.321-.115Zm-2.431-1.4a.651.651,0,0,0-.1-.046.385.385,0,0,1-.09-.04c.082.038.135.038.08.012a.479.479,0,0,1-.2-.16,1.287,1.287,0,0,1-.122-.239c.017.046.031.113.06.187a.652.652,0,0,0,.083.124.529.529,0,0,0,.095.076.475.475,0,0,1-.049-.029A.5.5,0,0,0,80.121,13.129Zm-69.4,13.3c-.056-.007-.071-.012-.07-.015-.045-.012.015-.017-.1-.057-.089-.029-.138-.043-.176-.054a.725.725,0,0,1-.122-.036l.024.021a.828.828,0,0,1-.117-.076c-.04-.035.036.022.094.041s.086.028-.039-.067a.266.266,0,0,1-.1-.05A.306.306,0,0,1,10,26c.049.072.079.1.09.1s0-.019-.012-.047a.7.7,0,0,1-.112-.2.544.544,0,0,0-.011.09.922.922,0,0,1-.082-.495.912.912,0,0,1,.164-.477.7.7,0,0,1,.439-.273,1.123,1.123,0,0,1,.5.034c-.012.03.418.123.356.149l-.022-.01c-.147-.034.034.046.156.068-.123-.042.234.009-.069-.068.08.013.16.023.239.034a1.239,1.239,0,0,1,.412.038,2.216,2.216,0,0,0,.582.028.082.082,0,0,0-.035.01c.16-.016.338-.036.485-.065a1.559,1.559,0,0,0,.3-.076l.031,0a1.3,1.3,0,0,1,.292-.105,1.436,1.436,0,0,1,.352-.021s-.044.005.01.009a1.9,1.9,0,0,1,.392.012l-.009,0a.891.891,0,0,0,.338-.02c0,.008.039,0,.082-.028a.271.271,0,0,0,.1-.168c.036-.154.018-.336.036-.389-.01-.07-.02-.331-.032-.446a.081.081,0,0,0,0-.027c-.024-.136-.019-.4-.034-.546-.013-.1-.016-.055-.018-.012,0-.2-.074-.536-.076-.607-.011-.092,0-.088,0-.085s.008,0,.01-.01c-.015-.1-.023-.1-.029-.1s-.013,0-.024-.15c.006.033.016.094.015.07-.012-.108.011-.309-.015-.416l0,.073a3.761,3.761,0,0,0-.072-.5l-.013.021c-.036-.342-.031-.142-.073-.489l0,0a1,1,0,0,0-.067-.3l.006.052c-.036-.185-.039-.2-.075-.39a.682.682,0,0,1-.029-.139,2.965,2.965,0,0,1-.12-.518c.036.148.034.075.037.03a.565.565,0,0,1-.065-.268c-.043-.01-.09-.025-.146-.264.014.036.031.093.034.068a.275.275,0,0,0-.026-.1c0-.012.008,0,.015.011s.016.024.021.009a4.078,4.078,0,0,1-.134-.5c.033.069.025,0,.033-.025-.052-.005-.043-.324-.083-.22-.089-.456-.382-1.122-.392-1.313,0-.053-.07-.167-.1-.246l.028,0c-.113-.207-.072-.165-.19-.417.06.1.061.052.057-.064l-.1-.17.034-.045a.751.751,0,0,1-.049-.241.206.206,0,0,1-.031-.059l-.04-.115a.348.348,0,0,0-.1-.149c.015-.093-.126-.153-.12-.231a.642.642,0,0,1-.081-.062c.006.047-.006.076-.045.012l-.012-.013,0-.047a1.385,1.385,0,0,1-.145-.159c.013.022.025.049.037.077-.018-.03-.032-.061-.046-.089L12.754,15l.012.013a.8.8,0,0,0-.1-.151c-.054-.146-.108-.29-.167-.448a.756.756,0,0,1-.044-.275.468.468,0,0,1,.111-.287.27.27,0,0,0-.064.155.536.536,0,0,1,.116-.217.734.734,0,0,1,.165-.138,1.233,1.233,0,0,1,.325-.139l-.02-.031a.816.816,0,0,1,.572.073l.026-.031a2.59,2.59,0,0,1,.41.272.686.686,0,0,1,.246.334c.063.027.169.273.23.382l-.012.042c.062.152.108.24.151.326a2.11,2.11,0,0,0,.141.44,3.749,3.749,0,0,1,.164.406l-.007.005c.035.089.07.178.1.268-.044-.065.033.049.048.134a1.208,1.208,0,0,1,.075.335l.042.175c-.065-.188-.035.024-.062.042l.052.1c0,.022-.01.01-.018,0s-.018-.027-.009.019a2.764,2.764,0,0,0,.137.347.232.232,0,0,0,0-.075c0-.009,0-.009,0,0v0a.223.223,0,0,0,.019.027c.029.138.028.085.04.076,0,.156.043.232.038.35.008-.043.035.043.063.13s.059.179.068.124c0,.125.023.076.017.16a2.99,2.99,0,0,0-.194-.425c0,.045.009.09.015.135-.077-.066-.072-.291-.109-.362a.444.444,0,0,1,.04.172l.026-.044a2.085,2.085,0,0,0-.161-.449c.01.066-.007.025-.027-.017s-.038-.076-.041-.03l.031.1c0,.014,0,.016-.01.01a7.623,7.623,0,0,0,.343,1.036c.039.013.144.214.139.144a.678.678,0,0,0,.078.226c.062.1-.021-.149-.033-.2.068.121.077.122.086.121.008.126-.029.224-.084.122.022.059.041.118.059.179-.005-.038.015.009.033.077l-.01.008a.19.19,0,0,1-.011-.034c.092.354.119.735.178,1.089a13.9,13.9,0,0,1,.48,3.677c0,.128,0,.238,0,.336,0-.074.009-.142.011-.063v-.108c0,.036-.005.34,0,.4,0,.113,0,.227,0,.34,0,0,0,0,0,.006s0,.017,0-.016c.006.084.011.158.007.047a2.616,2.616,0,0,1-.019.617,1.19,1.19,0,0,1-.245.572,1.332,1.332,0,0,1-.5.367,2.525,2.525,0,0,1-.59.174c-.054.013-.021.014,0,.013a.72.72,0,0,0-.218.056c-.074,0-.146,0-.22,0-.086.022-.017.022-.022.029-.407.071-.81.068-1.141.115-.106-.009.024-.036-.116-.034.183.034-.353.044-.3.068-.146-.038-.489.011-.432-.066-.167,0-.137.037-.089.042a3,3,0,0,0-.509.033,3.128,3.128,0,0,0-.334,0,2.872,2.872,0,0,1-.727-.034c.082.033.046.031-.023.03-.031,0-.068,0-.105,0,.034.017.068.03.1.045A2.168,2.168,0,0,1,10.723,26.427Zm-.044-.021c.028,0,.056-.006-.04-.016Zm3.688-6.979.065.236c0-.024,0-.059,0-.1,0-.017-.007-.034-.01-.052l-.021-.057.014.026-.023-.119c-.006,0-.01.015-.007.05l.017.042c-.015-.025-.026-.043-.032-.043S14.367,19.417,14.367,19.426Zm1.282-1.111a1.632,1.632,0,0,1,.068.156.631.631,0,0,0-.1-.214Zm-.047-.1h0l-.01-.019Zm-2.039-1.753c-.013-.047-.025-.093-.037-.14-.02.014-.04.025-.057.016C13.5,16.38,13.533,16.42,13.563,16.461Zm1.519-.053c.025.013.053.026.055-.063-.049-.347-.14-.257-.258-.657-.007-.01,0-.008,0-.006s.042.01-.02-.133a1.323,1.323,0,0,0-.233-.353c.034.088.067.176.1.263.07.178.13.36.185.543a.528.528,0,0,1-.01-.067.874.874,0,0,0,.08.23l-.024-.15a3.864,3.864,0,0,0,.084.39.011.011,0,0,1,.011-.008A.059.059,0,0,1,15.082,16.408Zm.1-.071,0,0c-.007-.038-.01-.066-.011-.066S15.175,16.294,15.181,16.338Zm-1.823-.463a.042.042,0,0,1-.014-.011C13.351,15.9,13.351,15.879,13.358,15.875ZM12.575,14.3c-.005.018-.011.038-.016.057a.742.742,0,0,0,.191.293c-.006-.015-.012-.03-.017-.046a2.651,2.651,0,0,1-.071-.267.842.842,0,0,1-.116-.262A.689.689,0,0,0,12.575,14.3Zm1.671.063c0-.018,0-.043.012-.043a.5.5,0,0,0-.113-.1C14.181,14.27,14.214,14.318,14.246,14.367Zm-.757-.659a1.24,1.24,0,0,1,.194.1.049.049,0,0,0-.011-.027.707.707,0,0,0-.181-.145.772.772,0,0,0-.188-.078.1.1,0,0,0-.05.1.71.71,0,0,1,.208.043c.015-.016.029-.031.045-.046Zm36.934,12.6a.637.637,0,0,1-.227-.416,1.594,1.594,0,0,1,0-.424c.013-.129.021-.257.029-.385.029-.509.028-1,.029-1.442.015-.132.023-.126.031-.12s.017.014.031-.184c-.04.252-.036-.021-.013-.317.021-.278.071-.574.041-.482a7.2,7.2,0,0,1,.227-.745c.106-.255.206-.432.207-.343.192-.4.122-.348.063-.235a3.243,3.243,0,0,0,.241-.653,2.232,2.232,0,0,0,.03-.624c.008-.071.016-.257.041-.5s.063-.544.113-.847c.1-.606.227-1.226.29-1.448-.091.3-.014-.027.006-.326l-.075.262c.034-.222.065-.444.084-.666.005-.068.009-.112.01-.138s0-.036.005-.035c.006-.111.023.023.042-.254a.39.39,0,0,0-.057-.212.406.406,0,0,0-.1-.105c-.066-.053-.125-.08-.236-.159l.055.052a1,1,0,0,1-.255-.259c-.031-.052-.019-.034.017.014a.811.811,0,0,0,.178.173c.062.044.107.07.1.059a.357.357,0,0,0-.053-.052,1.177,1.177,0,0,1-.156-.163.418.418,0,0,1-.061-.067,1.624,1.624,0,0,1-.108-.153.841.841,0,0,1-.141-.424.793.793,0,0,0,.058.239.365.365,0,0,0,.043.08c.014.015,0-.036-.02-.109a.777.777,0,0,1-.046-.3.492.492,0,0,1,.122-.3.5.5,0,0,0-.147.176.57.57,0,0,1,.221-.3,1.18,1.18,0,0,1,.3-.149,1.2,1.2,0,0,0,.123-.051.283.283,0,0,0,.082-.053.087.087,0,0,0,.027-.063.141.141,0,0,0,0-.038c0-.017-.01-.036-.016-.057a1.592,1.592,0,0,1-.1-.3.479.479,0,0,1,.077-.38.272.272,0,0,0,.054-.123c-.342.561-.689,1.129-1.028,1.712a3.706,3.706,0,0,0-.278.434c-.152.25-.306.5-.287.42l.037-.052c.206-.35-.091.083-.26.367.082-.121.043-.043,0,.035-.053.107-.106.215.154-.2l-.328.562a6.886,6.886,0,0,1-.582.962l-.88,1.329a.517.517,0,0,0,.047-.084c-.235.369-.511.773-.725,1.117s-.367.625-.412.717L47,20.338a2.9,2.9,0,0,1-.439.69,1.6,1.6,0,0,1-.291.254,1.438,1.438,0,0,1-.49.21c.027-.007.057-.016-.051,0a.6.6,0,0,1-.384-.057.9.9,0,0,1-.232-.175.6.6,0,0,1-.176-.374l.006.027a.579.579,0,0,1,.164-.466q.153-.182.294-.373a4.76,4.76,0,0,0,.48-.7c.232-.379.469-.8.558-.914.085-.167.441-.768.617-1.027a.513.513,0,0,0,.044-.058c.194-.312.6-.872.814-1.216.139-.225.072-.132,0-.039.3-.431.748-1.235.851-1.4.128-.211.127-.2.127-.185s0,.015.021-.015a5.889,5.889,0,0,1,.323-.586,1.729,1.729,0,0,0-.091.166c.151-.25.462-.674.6-.93l-.1.162c.259-.464.641-1.086.652-1.177l-.038.037c.225-.4.271-.487.317-.574s.089-.179.339-.574l0,.012c.211-.349.36-.514.454-.693l-.086.112c.076-.1.128-.181.168-.249a1.232,1.232,0,0,0,.084-.193,1.471,1.471,0,0,0,.072-.508c0-.058-.025-.3-.028-.372a4.661,4.661,0,0,1-.1-.627c-.009-.081-.014-.167-.016-.248V8.171a.1.1,0,0,0-.016-.06.121.121,0,0,0-.1-.042.554.554,0,0,0-.109.011.436.436,0,0,1,.163-.01c.023,0,.03.008.028,0a.154.154,0,0,0-.106-.034c-.1.021-.208.058-.316.079s-.233.044-.4.067c-.039.049-.1.1-.735.238.1-.027.253-.062.188-.057a2.065,2.065,0,0,0-.264.057c-.065,0,.139-.044.064-.044-.428.127-.744.154-1.377.293.146-.037.1-.034.029-.031-.027,0-.058,0-.083,0a.9.9,0,0,1-.449,0c-.185-.033-.325-.064-.21-.012a1.922,1.922,0,0,0-.75-.036.359.359,0,0,1-.288-.072.633.633,0,0,1-.171-.2.717.717,0,0,1-.083-.244.7.7,0,0,1,.005-.257.514.514,0,0,1,.122-.239.682.682,0,0,1,.2-.148,2.431,2.431,0,0,1,.394-.164,3.612,3.612,0,0,1,.7-.135c.2-.024.351-.041.449-.047a6.826,6.826,0,0,0,.687-.126l-.025.031c.594-.148.465-.1,1.166-.265-.289.08-.163.074.136.05l.48-.133.1.027c.193-.052.442-.043.534-.175a.553.553,0,0,0,.025-.126,1.273,1.273,0,0,0,0-.148c0-.06,0-.122,0-.184,0-.251,0-.506-.01-.575.065-.219,0-.591.064-.751-.006-.073-.009-.167-.012-.269-.03.1-.06.143-.041-.055V4.339l.037-.085c0-.2,0-.41.005-.547-.005.062-.014.132-.024.206.009-.086.017-.167.025-.245l0-.073c0,.013,0,.028,0,.044a3.221,3.221,0,0,0,.015-.429,9.98,9.98,0,0,0,.028-1.147,2.358,2.358,0,0,0-.115-.545,1.365,1.365,0,0,1-.045-.664.828.828,0,0,0,.008.378,1.256,1.256,0,0,1-.016-.279,1.074,1.074,0,0,1,.02-.142L51.42.747a.124.124,0,0,0,0-.029,1.655,1.655,0,0,0-.016-.212.738.738,0,0,1,0-.164.394.394,0,0,1,.054-.155.4.4,0,0,1,.262-.164A1.115,1.115,0,0,1,51.858,0c.036,0,.07,0,.106,0a.92.92,0,0,1,.413.071c-.007-.016-.013-.034-.021-.049a.634.634,0,0,1,.2.14.831.831,0,0,1,.127.175,1.531,1.531,0,0,1,.129.328,5.33,5.33,0,0,1,.143.583L53,1.262c.05.285.121.733.157,1.153a4.749,4.749,0,0,1,.015.983,3.247,3.247,0,0,1,.03.479c0,.216.014.45.021.622l-.028.084c-.014.426-.009.673,0,.92a2.74,2.74,0,0,0-.005.3.887.887,0,0,0,.037.248.107.107,0,0,0,.1.074.5.5,0,0,0,.106-.009,1.013,1.013,0,0,0,.129-.028c.177-.048.357-.116.535-.181a5.458,5.458,0,0,1,.548-.175l.009.006c.244-.072.49-.133.734-.191-.188.065.142-.048.363-.085.058-.015.125-.031.2-.047s.143-.032.238-.048a1.173,1.173,0,0,1,.549.036.8.8,0,0,1,.477.365.64.64,0,0,0-.19-.2c-.025-.012,0,.008.028.047a.577.577,0,0,1,.139.26,1.013,1.013,0,0,1,.115.33c-.007.077-.01.014-.021-.026s-.014-.068-.009.063a.5.5,0,0,1-.042.26.623.623,0,0,1-.233.26,3,3,0,0,1-.482.217,1.071,1.071,0,0,0,.2-.037c.026-.011.024-.01.008,0l.021-.006-.026.008c-.025.012-.064.029-.081.038-.376.1-.233.068-.218.079-.408.06-.631.145-.937.18.134-.01-.121.054-.372.12s-.487.127-.353.12c-.323.037-.214.053-.423.068.441-.1.867-.256,1.213-.367l-.353.064a9.873,9.873,0,0,1,.983-.256,2.99,2.99,0,0,1-.459.111l.1.014c.25-.057.47-.119.672-.18a1.5,1.5,0,0,0,.548-.267c-.077.054-.1.057-.08.044a.955.955,0,0,0,.1-.094c.088-.094.121-.227.053-.117a.567.567,0,0,1-.2.188c-.036.014-.039.012-.024,0a1.861,1.861,0,0,1-.4.149c-.5.139-1.006.278-1.511.414l-.1.045-.056-.005q-.388.1-.778.2c-.142.065-.593.2-.437.181-.114.023-.151.024-.218.036-.033.007-.074.013-.132.03a.314.314,0,0,0-.191.12c-.024.056-.018.073-.009.056a.21.21,0,0,1,.072-.083,1.387,1.387,0,0,1,.361-.1,1.426,1.426,0,0,0-.282.1c-.029.019-.026.024-.026.031a.146.146,0,0,0-.1.069c-.025.039-.042.083-.056.106s-.028.03-.037.006a.279.279,0,0,1,0-.137.7.7,0,0,0-.02.2c0,.094,0,.187,0,.28C53,8.324,53,8.456,53,8.63l-.012.013c.016,1.5,0,3.006.019,4.508.006.571.267,1.132.061,1.717-.046.13.107.189.2.252a3.594,3.594,0,0,0,1.367.688,1.463,1.463,0,0,1,.874.547.581.581,0,0,1,.069.757.536.536,0,0,1-.731.241,6.6,6.6,0,0,1-1.768-.662l-.011-.008-.005.02.011.007,0-.019,0,.019.077.056.013.009c.017.013.03.026-.091-.062l-.04.165-.024.073c.014-.051.043-.164.064-.238l-.011-.008c-.081.278-.147.555-.207.833.046-.185.085-.346.047-.146.021-.094.04-.188.063-.281-.009.047-.059.267-.1.5s-.084.471-.092.554c-.051.3-.095.6-.138.9,0-.01,0,0,0,.019s0,.049.014-.042c-.027.223-.048.418-.007.127-.076.54-.13,1.081-.23,1.628-.122.545-.363,1.047-.52,1.568a4.6,4.6,0,0,0-.15,1.6,11.561,11.561,0,0,1,.028,1.63c-.017.151.007.067.02.009a1.848,1.848,0,0,1-.1.378.538.538,0,0,1-.141.225.957.957,0,0,1-.6.18c-.249.024-.055.03-.07.041h-.043A.654.654,0,0,1,50.422,26.306ZM51.6,16.3c0,.066.008.133.014-.1C51.6,16.229,51.6,16.263,51.6,16.3Zm-.856-8.161.318-.072a1.427,1.427,0,0,1,.314-.053,1,1,0,0,0-.253.011l-.139.027-.154.039.072-.023-.317.062c0,.006.037.005.129-.008l.116-.031C50.723,8.124,50.661,8.148,50.739,8.138Zm2.283-.275.011-.021A.17.17,0,0,0,53.022,7.863Zm.332-.2a.474.474,0,0,0-.309.159.341.341,0,0,1,.166-.107c.083-.029.168-.047.24-.07l.081-.025Zm-3.477-.747.405-.068c-.026-.019-.046-.038-.014-.058Zm1.541-.39a.017.017,0,0,1,.01,0,.241.241,0,0,1,.006-.028C51.4,6.536,51.408,6.532,51.418,6.527Zm2.776-.463a9.054,9.054,0,0,1,1.087-.3c-.073.013-.132.023-.17.028.172-.029.484-.1.631-.146l-.4.064c.159-.035.3-.055.466-.081.082-.013.167-.027.263-.046a2.207,2.207,0,0,1,.32-.051c-.042-.013.026-.031.059-.049s.031-.044-.169-.047a1.638,1.638,0,0,0-.171.023l-.135.025c-.083.017-.155.032-.218.048-.127.031-.224.061-.326.094-.2.068-.431.132-.969.282-.034.014-.017,0-.006-.008s.014-.04-.346.09a2.673,2.673,0,0,1-.85.259.235.235,0,0,1-.16-.086C53.231,6.378,53.523,6.3,54.194,6.064Zm1.922-.649c-.015,0,.031-.009.178-.02l.014,0C56.205,5.4,56.13,5.413,56.116,5.415ZM52.974,3.753c.007-.042.019-.1.03-.079-.01-.125-.03-.268-.051-.4Q52.963,3.515,52.974,3.753ZM51.627,1.845a.939.939,0,0,1-.009.125c.012.077.011.153.017.24s.011.165.019.244c.011.114.024.22.039.322.011-.223.02-.445.034-.668a1.061,1.061,0,0,0,0-.137,1.669,1.669,0,0,0-.1-.307c-.059-.13-.107-.24-.142-.317C51.528,1.521,51.591,1.682,51.627,1.845ZM52.518.429a1.263,1.263,0,0,1,.089.234c.03.1.055.2.079.306l.073.054-.055.024c.043.189.078.379.107.57a.151.151,0,0,0,.008-.063,4.624,4.624,0,0,0-.061-.583c-.017-.118-.042-.23-.059-.317a1.637,1.637,0,0,0-.044-.168.13.13,0,0,0-.1-.068A.078.078,0,0,0,52.518.429ZM13.107,26.41l.012,0Zm78.628-.3c-.042-.019-.083-.04-.125-.061.026.017.064.039.031.028l.036.016c-.014,0-.112-.052-.135-.059s-.073-.039-.108-.061c0,0,0,0,0,0s-.007,0,0,.006c-.027-.014-.052-.026-.017,0l-.39-.227a3.332,3.332,0,0,1-.375-.243c-.018-.01-.013,0-.009.01-.022-.029-.036-.029-.051-.029a.052.052,0,0,1-.025,0c-.017-.022-.032-.045-.048-.068-.032-.011-.018.011-.023.015-.131-.075-.228-.189-.342-.24-.021-.035.029-.022-.008-.056.015.04-.023.019-.061,0s-.06-.035-.06-.019c-.014-.067-.138-.111-.075-.157-.045-.041-.06,0-.05.012a.375.375,0,0,0-.162-.092c-.018-.04-.271-.166-.287-.254.011.059-.015.016-.059.008l.009.051-.074-.055c-.018-.007-.021-.012-.019-.014s.015-.016-.013-.046a.1.1,0,0,0-.077-.026h-.027l.005.01-.038-.022c-.009-.007,0,0,.018,0s.067.009.02-.039c-.007.008-.083.013-.092-.024.042.031.051.006.041-.014l-.06-.044-.005.052c-.171-.125-.334-.282-.509-.43.021-.022-.121-.109-.077-.13l0,.009c.045.033.01-.037-.027-.063.011.018,0,.016-.018.014s-.04,0,.007.044l-.079-.047c-.044.013-.085-.037-.127-.092a.686.686,0,0,0-.145-.159c.009,0,.013,0,.015,0a1.843,1.843,0,0,1-.208-.216l0-.018a.427.427,0,0,1-.159-.183s.013.011,0-.008a.257.257,0,0,1-.08-.126l0,0a.612.612,0,0,1-.035-.135c.015,0,0-.059,0-.124s.014-.135.04-.147a.435.435,0,0,1,.017-.078l.035-.085s0,0,.009-.007c.007-.057.086-.126.125-.167.024-.031.008-.023-.008-.016.059-.046.159-.15.192-.154.053-.024.025.005.043.007.08-.03-.027-.035.091-.05-.013.005-.037.012-.027.013a.217.217,0,0,1,.087.011.224.224,0,0,0,.079.012l-.028-.008a.209.209,0,0,1,.113.015c.038.013.068.027.078.011l0-.017c.121.056.06,0,.175.074l0,0c.054.022.068.058.107.048l-.015-.014a1.059,1.059,0,0,1,.124.081c.009,0,.04.017.044.028.019-.021.144.078.168.1-.049-.027-.035,0-.029.017a.084.084,0,0,1,.089.048c.029-.029.062-.059.139-.014-.015,0-.036-.011-.033,0s.026.015.034.017-.026,0-.026.019c.075,0,.089.054.172.09-.032,0-.017.016-.018.034.017-.018.034,0,.047.022s.032.048.038.008c.119.128.359.245.386.322,0,.028.062.027.086.043l-.019.019c.1.009.063.023.172.04-.052,0-.046.024-.027.068l.087-.007-.013.042a.118.118,0,0,1,.074.048.136.136,0,0,1,.094.013.13.13,0,0,0,.068.016c-.009.065.075.034.062.092a.119.119,0,0,1,.042,0c0-.03.016-.056.031-.03l.006,0-.011.034a.333.333,0,0,1,.069.032.108.108,0,0,1-.013-.03.364.364,0,0,1,.018.033l.008.006-.007,0a.062.062,0,0,0,.048.034c.047.1.221.063.264.185-.009-.016-.025-.031-.038-.024.075.049.116.143.179.153l.017-.03a.6.6,0,0,1,.151.079l.025-.03c.054.056.224.1.213.2.034-.014.08.071.121.089l-.009.03a.264.264,0,0,0,.106.069c.055.12.176.137.252.2l0,.007.092.047c-.036,0,.026,0,.046.023a.176.176,0,0,1,.09.088l.049.042c-.067-.031-.02.034-.035.062l.048.006c0,.022-.036,0-.015.027.031,0,.095.057.133.049a.059.059,0,0,0-.008-.033s0,0,0,0l0,0,0,0,.016,0c.036.039.028.017.035.005.017.071.056.072.063.133,0-.029.022-.01.049.014s.065.063.067.027c.007.07.023.029.02.078a.265.265,0,0,0-.169-.095l.022.052c-.056.02-.074-.084-.107-.088a.065.065,0,0,1,.045.048l.013-.037a.261.261,0,0,0-.158-.081c.014.019,0,.016-.017.013s-.039-.007-.033.017l.031.018c0,.007,0,.01-.007.011l.138.1h0l.06.045a.81.81,0,0,1,.11.1c.013-.007.033,0,.052.01s.044.021.046,0c.009.036-.01.033.033.088.038.03,0-.066,0-.089.041.039.046.036.055.032-.011.063-.053.118-.09.09.012.021.023.042.033.064,0-.017.012,0,.022.02l-.009.006a.017.017,0,0,1,0-.006.74.74,0,0,1-.045.686.518.518,0,0,1-.451.287A.829.829,0,0,1,91.735,26.115Zm.893-.906a.092.092,0,0,0-.043-.066C92.6,25.164,92.614,25.186,92.628,25.208Zm-.056-.083h0l0,0Zm-.1-.263Zm-.421-.189c.008-.029.068-.03.052-.091A.1.1,0,0,0,92,24.525a.171.171,0,0,1-.132-.048c-.016,0,.053-.018-.02-.054a.271.271,0,0,0-.175-.014l.256.194a.083.083,0,0,1-.021-.031.112.112,0,0,0,.077.044l-.032-.048C91.988,24.593,91.993,24.645,92.053,24.673Zm-2.729-.065c.013,0,.025,0-.008-.015Zm2.809-.06h0l-.015-.021Zm-.783-.38.054.04a.054.054,0,0,1,.011-.034.127.127,0,0,0-.043-.006Zm-.247-.181.063.047a.036.036,0,0,0,0-.021.7.7,0,0,0-.066-.155.264.264,0,0,0-.073.076l.062.045.044-.043Zm-.476-.349.095.07a1.122,1.122,0,0,0,.139-.036l-.075-.019v-.03a.164.164,0,0,0-.044-.006A.411.411,0,0,0,90.627,23.638Zm-.373-.36.011-.007-.007,0S90.257,23.273,90.254,23.278Zm.012-.006Zm-.24-.066.046.033a.145.145,0,0,1,.035-.05Zm-.953-.679.015.01.023.005-.014,0,.035.025c0-.005,0-.012,0-.023l-.018,0c.02,0,.033-.006.028-.017l-.083-.037A.35.35,0,0,1,89.073,22.527Zm.954,2.587a.021.021,0,0,1,0,.006A.03.03,0,0,1,90.026,25.114Zm-58.053-.691a.732.732,0,0,1-.26-.127.965.965,0,0,1-.21-.231,1.532,1.532,0,0,1-.24-.535,1.035,1.035,0,0,1-.018-.38c-.018.089-.021.084-.026.031,0-.072,0-.122,0-.174-.018.042-.033.075-.046.1a.876.876,0,0,1,.018-.131V22.97h-.007l-.014,0-.028.006c-.039.012-.052.014-.051.01-.018,0-.016,0-.019-.007s-.013-.012-.078,0a1.731,1.731,0,0,0-.429.167l.043-.008-.185.063c-.06.019.022-.015.1-.049.1-.044.18-.088-.076-.016a1.221,1.221,0,0,1-.38.162c.229-.076.192-.09.1-.072l-.323.107.122.007A6.823,6.823,0,0,1,28.5,23.7a3.062,3.062,0,0,1-1.554-.209c.013-.012-.162-.085-.312-.182s-.279-.2-.228-.192l.03.028c.212.146-.045-.065-.2-.2.064.067.018.036-.029,0-.063-.043-.126-.085.1.125A1.923,1.923,0,0,1,26,22.788a.608.608,0,0,1-.179-.236,1.115,1.115,0,0,1-.1-.453,1.535,1.535,0,0,1,.087-.525c.055-.172.138-.324.2-.465a.221.221,0,0,0-.019.058c.217-.505.538-1.11.583-1.23L26.6,19.9c.179-.435.2-.486.445-.991,0,.007-.026.068.014-.012.024-.063.049-.126.087-.217.039-.113.11-.15-.063-.126l.015,0c-.2.018-.392.058-.589.093,0-.019-.252.042-.537.06a1.644,1.644,0,0,1-.415-.028.937.937,0,0,1-.159-.045.427.427,0,0,1-.1-.044l-.133-.048c-.057-.023-.122-.057-.19-.089s-.133-.077-.193-.116-.112-.079-.151-.11a.217.217,0,0,0-.031-.035,1.4,1.4,0,0,1-.311-.34,1.922,1.922,0,0,1-.208-.431c-.032-.079-.04-.1-.041-.095a.185.185,0,0,0,.009.052,2.623,2.623,0,0,1-.1-.572,2.206,2.206,0,0,1,.022-.448c.03-.156.035-.148.04-.139s.006.01.014-.013c.083-.352-.055.049.085-.417-.017.054-.039.156-.027.118.024-.09.077-.209.125-.329a3.2,3.2,0,0,0,.132-.323l-.048.112c.1-.324.34-.719.335-.781L24.6,14.6c.136-.256.164-.311.192-.366A3.508,3.508,0,0,1,25,13.868v.008a3.837,3.837,0,0,0,.258-.451l-.05.072c.166-.271.183-.294.362-.563a1.919,1.919,0,0,1,.131-.2,7.335,7.335,0,0,1,.5-.743c-.142.213-.062.121-.011.068a1.593,1.593,0,0,1,.256-.386c-.017-.048-.027-.106.2-.448-.03.057-.082.142-.052.112a.8.8,0,0,0,.09-.143c.015-.015.006.006,0,.027s-.016.042,0,.027c.119-.254.262-.4.464-.747-.057.115.009.027.047,0-.026-.054.33-.442.191-.348.224-.323.479-.752.695-1.134s.391-.717.482-.842c.054-.058.125-.291.259-.4v.033a.538.538,0,0,1,.207-.141.615.615,0,0,1,.152-.035,1.214,1.214,0,0,1,.164,0,1.056,1.056,0,0,1,.289.041c-.115-.027-.145-.014-.125,0a1.469,1.469,0,0,1,.178.108.524.524,0,0,1,.26.265c-.007.027-.014.052-.022.076a1.1,1.1,0,0,1,.042.425.5.5,0,0,1,.018.111,1.478,1.478,0,0,1-.012.233c-.021.167-.07.33-.073.377-.1.117-.136.366-.235.433-.014.045-.037.1-.062.162.055-.048.093-.055.02.05l-.014.027-.057.031c-.056.116-.118.231-.159.3.021-.032.049-.067.079-.1l-.091.125-.022.039a.269.269,0,0,1,.012-.025,1.1,1.1,0,0,0-.128.234c-.261.366-.408.908-.71,1.3a.653.653,0,0,0,.1-.182c-.194.363-.436.7-.536.938h.039c-.13.272-.231.483-.348.7l.028.03a9.211,9.211,0,0,1-.646,1.156c-.012.091-.231.429-.312.612l-.049.032a4.976,4.976,0,0,0-.248.522,4.114,4.114,0,0,0-.346.676,1.309,1.309,0,0,0-.085.3.122.122,0,0,0,.013.064.1.1,0,0,0,.049.038l0,.008a.293.293,0,0,0,.029.006c.012,0,.019,0,.038,0s.064.007.1.007c.07,0,.145,0,.22,0-.068.015-.029.006.046,0a1.254,1.254,0,0,1,.19-.01,3.52,3.52,0,0,1,.568.022c.1,0,.192,0,.286-.009-.314.035.025.042.047.066.061-.013.118-.032.175-.05.075,0-.11.043.023.028.028-.011.071-.025.12-.039a1.478,1.478,0,0,0,.153-.065.624.624,0,0,0,.222-.165c-.02,0-.052.026-.1.044-.011.009-.01.008,0,0l-.011,0,.013-.006a.227.227,0,0,0,.031-.033c.083-.058.107-.08.107-.089s0,0-.011,0a.028.028,0,0,1-.013,0,1.567,1.567,0,0,0,.371-.39c-.055.055.012-.061.074-.194s.138-.314.079-.245c.12-.167.055-.126.142-.231-.123.26-.188.53-.281.732.044-.058.085-.12.125-.182a.694.694,0,0,1-.14.286c-.066.093-.145.167-.183.221a1.547,1.547,0,0,1,.1-.123.69.69,0,0,1,.073-.086l-.062.026a1.647,1.647,0,0,1-.55.5c.1-.037.044,0-.02.03s-.136.065-.059.055a1.15,1.15,0,0,0,.155-.065c.022-.006.025,0,.017.006a1.251,1.251,0,0,0,.5-.418c.029-.04.056-.082.082-.124l.005-.009a3.861,3.861,0,0,0,.245-.5l-.062.127.011-.09.051-.039c.06-.14.116-.283.175-.422a.452.452,0,0,1,.049-.182c.042-.1.107-.183.051-.142a.574.574,0,0,1,.12-.093,1.077,1.077,0,0,1,.24-.131c.1-.033.035-.036-.066-.007a.785.785,0,0,0-.256.143,1,1,0,0,1,.177-.152c.029-.02.029-.026.031-.032a.391.391,0,0,1,.256.012c.037.025.017.043-.083.075a.806.806,0,0,1,.342,0c-.092-.022,0-.021.122.013l0,.015-.01,0c.461.137.423.422.33.886A17.032,17.032,0,0,1,28.551,20.3c-.292.547-.224,1.2-.788,1.719l.032-.006L27.813,22l.007-.006c.008-.007.019-.014-.019.021L27.868,22h.048l-.118.015-.015.014c.17-.017.334-.042.5-.072-.111.015-.2.027-.08,0-.053.011-.107.019-.162.029a6.032,6.032,0,0,0,.639-.145c.185-.045.369-.1.551-.149-.007,0,0,0,.009-.01s.027-.016-.028,0c.135-.044.251-.084.073-.032.327-.1.652-.211.982-.315.166-.052.332-.1.5-.147.081-.018.13-.055.14-.119a.371.371,0,0,0-.055-.214,2.1,2.1,0,0,1-.186-.5.863.863,0,0,1-.012-.28.51.51,0,0,1,.126-.266.627.627,0,0,1,.239-.158.917.917,0,0,1,.8.059c.085.046.043.009.013-.016.11.079.159.118.2.143a.51.51,0,0,1,.128.1,1.2,1.2,0,0,1,.17.354c.047.1.048.073.047.05s0-.022,0-.02a1.289,1.289,0,0,1,.043.135l.03.125c.02.084.037.167.054.25.034.166.063.33.09.49.054.32.1.624.159.9,0,.083-.005.081-.014.078s-.019-.005,0,.118c0-.169.037.023.07.214.027.158.054.315.061.272-.015.246.106.812.014.724.022.135.025.207.033.22s.025-.02.029-.067a.591.591,0,0,1-.217.454,1.041,1.041,0,0,1-.4.209,1.451,1.451,0,0,1-.155.011A.829.829,0,0,1,31.974,24.423Zm-.894-1.451h.036c.014-.008.03-.017.024-.017A.349.349,0,0,0,31.08,22.972Zm-3.317-.954-.015.015.03,0,.016-.015Zm-1.617-5.975c-.333.708-.3.885.313.9a.49.49,0,0,1-.1-.014,1.7,1.7,0,0,0,.406-.01l-.251-.015c.1,0,.188.005.29.012a3.634,3.634,0,0,0,.378.012c-.05-.028.168-.062-.059-.1a1.625,1.625,0,0,0-.544.015,1.34,1.34,0,0,1-.229.027.808.808,0,0,1-.158-.009.251.251,0,0,1-.16-.078c-.012-.01-.007-.009,0-.008s.013,0,.016,0-.023-.029-.018-.154a1.758,1.758,0,0,1,.063-.294c.026-.093.05-.176.067-.247.011-.043.018-.08.024-.112Zm.987.734h.008l-.11-.009ZM29.365,15.1l.011-.014s0-.006,0-.006S29.369,15.092,29.365,15.1Zm.109-.141a.449.449,0,0,0-.058.074.657.657,0,0,1,.346-.224A.493.493,0,0,0,29.474,14.958Zm.708-.14-.034-.007Zm-3.316-.238c.02-.02.048-.044.053-.028A2.312,2.312,0,0,0,27,14.318Zm.627-1.194a.076.076,0,0,0,.033-.025c.082-.092.371-.517.392-.547a.1.1,0,0,0-.059-.106l-.17.314.03.066-.055-.021Zm-1.088-1.631-.221.346c.026-.03.066-.073.11-.121l.051-.072.05-.088-.02.044.117-.166c-.006,0-.023.011-.061.056l-.037.066c.021-.046.034-.08.026-.08S26.414,11.745,26.405,11.755Zm2.3-.6c-.047.171-.086.326-.1.417l.134-.3.061-.061a2.759,2.759,0,0,0,.172-.532Zm1.236-2.636a.072.072,0,0,1,.011.024.144.144,0,0,0,0-.038S29.949,8.519,29.945,8.521Zm-.572-.772.044.006a.63.63,0,0,1,.2.066c0-.028,0-.052.025-.055a.653.653,0,0,0-.171-.021C29.437,7.744,29.405,7.746,29.373,7.749Zm9.052,15.762c-.013.03-.151.029-.262.015s-.2-.03-.127.011a5.7,5.7,0,0,1-1.227-.321A3.107,3.107,0,0,1,36,22.779c-.056-.057-.247-.142-.353-.216l.029-.011c-.319-.174-.238-.149-.6-.376.156.087.107.029-.012-.1l-.257-.145-.015-.068a2.005,2.005,0,0,1-.287-.248,1.348,1.348,0,0,1-.251-.171l-.164-.128c-.051-.04-.1-.082-.118-.1a1.913,1.913,0,0,1-.113-.282.3.3,0,0,1,.049-.272A.538.538,0,0,1,34,20.487c-.031.017-.062.034-.067.027s.015-.042.056-.079l.018-.022.06-.016a1.214,1.214,0,0,1,.257-.249c-.039.022-.082.047-.124.074a.924.924,0,0,1,.148-.089.341.341,0,0,1,.047-.026l-.028.017a.792.792,0,0,1,.329-.083.67.67,0,0,1,.209.07l.155.1c.094.056.2.105.3.16a1.741,1.741,0,0,1,.548.389.358.358,0,0,0-.107-.083,1.5,1.5,0,0,1,.222.215c.033.037.065.083.091.116s.048.066.074.1a1.041,1.041,0,0,0,.317.266l.006-.037a4.313,4.313,0,0,0,.617.279l.025-.032c.144.063.387.129.621.2l.085.027.07.024.048.018a.276.276,0,0,0,.058,0c-.014,0,.026-.072.06-.182s.077-.258.1-.348l.042-.039c.076-.235.11-.381.144-.523a5.764,5.764,0,0,0,.353-1.313l.009,0c.019-.14.033-.281.04-.42.014.112-.006-.083,0-.208,0-.067-.006-.153,0-.242s0-.177,0-.265a2.842,2.842,0,0,1,0-.3c.017.327.037-.024.071-.039-.005-.062-.01-.124-.012-.187.009-.032.014-.012.017.009s.005.051.016-.023c-.01-.125.062-.483.069-.6a.547.547,0,0,0-.05.109c0,.015,0,.014,0,0l0,.012,0-.015a.486.486,0,0,0,0-.052c.069-.221.036-.142.02-.138a3.739,3.739,0,0,1,.259-.519c-.054.066,0-.063.054-.186.056-.138.1-.293.055-.227.09-.161.04-.116.1-.22-.07.248-.124.487-.193.694.037-.062.072-.123.1-.182a3.479,3.479,0,0,1-.211.523.907.907,0,0,1,.1-.226l-.054.036a2.155,2.155,0,0,0-.175.74c.025-.1.02-.031.016.041s0,.131.022.064c.005-.052.013-.1.021-.156.009-.021.013-.02.015-.007a4.311,4.311,0,0,1,.289-.9,3.542,3.542,0,0,0,.221-.722.6.6,0,0,1,0-.172c0-.1.006-.185-.016-.13a1.053,1.053,0,0,0,.061-.358c0-.178-.054.211-.078.281.013-.208,0-.209,0-.216.057-.167.129-.294.134-.107.007-.1.014-.2.019-.3-.008.065-.011-.016-.006-.127l.011-.007c0,.011,0,.022,0,.034.018-.378.026-.759.063-1.133a7.963,7.963,0,0,1,.674-3.227c.229-.415.064-.465-.3-.46-.666.009-1.333,0-2.237,0-.171-.015-.348-.02-.529-.019.118,0,.229.008.1.01l.138,0c-.119,0-.507,0-.594.01-.177.007-.354.017-.53.031.017,0-.07.011.016,0-.131.012-.245.023-.074.01-.632.052-1.271.138-1.91.2a14.488,14.488,0,0,1-1.907.047c-.084,0-.036.008,0,.013a1.462,1.462,0,0,0-.349.014.542.542,0,0,1-.339-.151c-.078-.066-.068-.048-.058-.029s.011.018.007.017a.688.688,0,0,1-.149-.219.532.532,0,0,1-.049-.269.853.853,0,0,1,.224-.446,2.083,2.083,0,0,1,.3-.338.628.628,0,0,1,.209-.116.481.481,0,0,1,.245-.009c.094.038.074.048.068.051s0,.015.093.061c-.117-.084.02-.013.174.035a1.456,1.456,0,0,0,.212.052c.04,0,.062,0,.052,0a1.271,1.271,0,0,0,.412.051c.152,0,.27-.011.227.034.257-.029.206-.063.132-.058a6.746,6.746,0,0,0,.775-.159c.042,0,.15-.018.3-.03s.317-.019.5-.029a5.858,5.858,0,0,1,.857-.005c-.173-.031.022-.021.2-.048l-.161-.03.4-.015c.081-.007.1-.007.1,0,.067,0-.016.022.156.024a1.943,1.943,0,0,0,.432-.057l-.042,0,.183-.011c.07,0-.06.013-.141.028s-.107.029.105.029a1.049,1.049,0,0,1,.383-.049c-.225.008-.2.032-.113.039l.315-.011-.105-.042a13.437,13.437,0,0,1,1.39.033l.708.049a2.842,2.842,0,0,1,.729.123c-.006.007.034.023.093.049s.135.062.209.1c.148.075.276.167.227.16l-.03-.023c-.21-.116.051.053.2.179-.072-.072,0-.022.05.01.024.015.041.025.029.009a.744.744,0,0,0-.151-.14,1.2,1.2,0,0,1,.3.267.506.506,0,0,1,.079.087.842.842,0,0,1,.073.15,1.083,1.083,0,0,1,.043.433,3.366,3.366,0,0,1-.284.911.192.192,0,0,0,.016-.054c-.1.236-.208.5-.292.717a4.375,4.375,0,0,0-.153.456l-.025.04c-.048.212-.069.331-.1.46s-.055.269-.1.524c0-.007,0-.067-.01.014,0,.125-.018.25-.039.6l0-.015c-.01.185-.009.369,0,.554a4.266,4.266,0,0,0,.007.5,2.248,2.248,0,0,1-.089.623c-.01.11-.1.508-.138.685a.17.17,0,0,0-.014.041c-.013.106-.045.256-.071.409s-.044.313-.056.431c-.013.154,0,.088.014.022-.047.3-.085.842-.107.952-.022.143-.027.135-.033.127s-.006-.009-.012.013c-.045.331.046-.049-.038.391.006-.052.02-.147.011-.11-.028.169-.13.461-.151.63l.028-.109c-.04.31-.178.716-.155.771l.021-.025c-.131.521-.038.225-.176.752v-.008a2.8,2.8,0,0,0-.1.471l.023-.078c-.068.287-.077.311-.155.6a1.649,1.649,0,0,1-.057.215,1.33,1.33,0,0,1-.1.362c-.064.18-.144.368-.169.43.083-.223.03-.123-.007-.065a1.429,1.429,0,0,1-.146.4.139.139,0,0,1,.022.1.817.817,0,0,1-.153.365c.036-.058.082-.153.054-.119a.483.483,0,0,0-.049.078l-.048.072c-.017.014-.005-.007.006-.028s.021-.042,0-.027a.975.975,0,0,1-.771.441C38.583,23.517,38.471,23.523,38.425,23.511Zm.913-.862c.006,0,.02-.019.042-.064l.018-.068c-.01.063-.014.1.008.062l.124-.36c-.017.032-.044.079-.075.132l-.03.075c-.009.031-.018.063-.026.091l.008-.043C39.382,22.533,39.361,22.591,39.338,22.65Zm-4.028-.463c-.06-.048-.12-.1-.179-.146,0,.027-.011.05-.037.048C35.167,22.122,35.239,22.154,35.311,22.187Zm2.878-.2a.341.341,0,0,1-.038.061.559.559,0,0,0,.139-.25c-.016.021-.04.046-.046.032A.969.969,0,0,1,38.188,21.986Zm-1.264-.242c.1.043.209.083.316.12a.079.079,0,0,0-.028-.029c-.047-.032-.178-.1-.294-.169s-.22-.138-.233-.147a.1.1,0,0,0-.1.062,3.265,3.265,0,0,0,.3.145l.06-.038Zm-2.393-.127a.064.064,0,0,1-.023-.005C34.551,21.649,34.53,21.626,34.532,21.617Zm.795-1.075c.158.048.3.1.386.126-.091-.057-.183-.107-.276-.154l-.054-.061a2.836,2.836,0,0,0-.483-.174C35.038,20.373,35.183,20.456,35.327,20.543Zm3.426-.758a4.109,4.109,0,0,0-.075.642,7.8,7.8,0,0,0,.283-1.291.841.841,0,0,1-.021.091,1.377,1.377,0,0,0,.022-.376c-.009.077-.021.154-.036.23a2.528,2.528,0,0,0,.041-.614c-.009.018-.022,0-.036-.015s-.048-.055-.064.076a2.45,2.45,0,0,0,0,.488,1.681,1.681,0,0,1-.042.575c0,.019,0,.011-.008,0s-.005-.009-.009-.009S38.782,19.618,38.753,19.784Zm.063-1.187c0-.014,0-.038.006-.077l0-.007C38.819,18.551,38.817,18.581,38.816,18.6Zm.755-2.961c0-.011,0-.023,0-.034v0C39.574,15.614,39.573,15.625,39.571,15.637Zm.015-.107c.016-.118.028-.236.038-.356A2.807,2.807,0,0,0,39.586,15.531ZM36.409,8.686Zm.557-.079L36.9,8.6C36.864,8.613,36.825,8.623,36.965,8.607Zm-4.1,14.268a.1.1,0,0,1,0,.021C32.865,22.889,32.866,22.882,32.866,22.875ZM6.539,22.648a.589.589,0,0,1-.266-.144.464.464,0,0,1-.131-.281,1.294,1.294,0,0,1,.013-.294,1.212,1.212,0,0,1,.072-.284.732.732,0,0,1,.4-.426c.047-.026.016-.022-.007-.02.148-.029.129-.062.21-.086a1.367,1.367,0,0,1,.21.025c.08-.017.017-.028.022-.037a1.36,1.36,0,0,1,.572.067.929.929,0,0,1,.131.059c.042.022.083.049.107.061a.273.273,0,0,0,.177.022c.078.006-.015.048.092.031-.078-.01,0-.026.072-.068a.385.385,0,0,0,.085-.061c.009-.01.01-.017,0-.019a.064.064,0,0,0,.05-.036.12.12,0,0,0,0-.083c-.021-.069-.053-.14,0-.133-.065-.137-.089-.1-.076-.055-.042-.093-.059-.163-.089-.234a1.468,1.468,0,0,0-.094-.2,7.285,7.285,0,0,1-.277-.911c0,.108-.024-.006-.074-.094l0,.1-.072-.219c-.019-.043-.021-.056-.019-.057-.011-.037.023,0,0-.1a.649.649,0,0,0-.117-.224l0,.024-.038-.1c-.01-.031.009.006.031.042.031.052.067.1.028-.041a.359.359,0,0,1-.1-.2c.041.124.059.1.053.051L7.45,18.56l-.023.073a1.174,1.174,0,0,0-.142-.325A.242.242,0,0,0,7.04,18.2a1.053,1.053,0,0,0-.349.132l-.368.2c0-.014-.082.025-.161.064s-.183.088-.17.055l.021-.006c.121-.067-.051-.012-.149.042.047-.016.025,0,0,.024s-.063.056.088-.013c-.064.038-.127.077-.192.112-.08.123-.55.229-.87.332.023-.009.028-.013.03-.016a3.414,3.414,0,0,1-.73.129l-.028-.01a.709.709,0,0,0-.24.091.515.515,0,0,0-.2.2s.012-.034-.011,0a.5.5,0,0,0-.02.111.485.485,0,0,0,.052.2l-.006-.007a1.019,1.019,0,0,1,.05.331,2.146,2.146,0,0,0-.036.292,1.613,1.613,0,0,1-.081.355,2.374,2.374,0,0,0-.021.4s0,.007,0,.024c.013.06.023.144.045.228.01.042.028.083.042.123a.572.572,0,0,1,.036.124c.011.1.014.056.019.011a.719.719,0,0,1-.081.341.582.582,0,0,1-.163.2c-.079.054-.078.045-.078.036s0-.01-.013,0c-.092.05-.083.051-.081.059s0,.025-.151.039c.034,0,.1-.02.071-.018a.441.441,0,0,1-.206-.018c-.071-.019-.135-.051-.185-.064.02.01.041.021.061.03a.59.59,0,0,1-.257-.143c-.068-.061-.107-.12-.13-.12v.023a1,1,0,0,1-.116-.2.289.289,0,0,1-.024-.066.5.5,0,0,1-.016-.168l0,0a.487.487,0,0,1,.026-.172.246.246,0,0,0,.014-.114l-.016.044a2.806,2.806,0,0,0,.069-.344.5.5,0,0,1,.01-.125.7.7,0,0,1-.012-.21c0-.107,0-.223,0-.261.014.135.022.071.032.031a.488.488,0,0,1-.031-.245c-.042-.012-.085-.029-.12-.246.012.033.022.085.027.063a.219.219,0,0,0-.017-.089c0-.011.008,0,.014.01s.013.023.02.01a2.387,2.387,0,0,1-.083-.47c.022.068.023.007.036-.019-.055-.011.016-.3-.044-.216a1.615,1.615,0,0,1,.131-.76.711.711,0,0,1,.252-.263.543.543,0,0,1,.208-.084,1.426,1.426,0,0,0,.228-.091l0,.028c.184-.1.149-.063.364-.183-.085.061-.041.062.062.054l.14-.106.044.029a.691.691,0,0,1,.2-.076c.047-.066.29-.153.32-.193a.18.18,0,0,0,.131-.028c.042-.021.083-.043.119-.027a.608.608,0,0,1,.077-.053c-.042-.011-.065-.033,0-.046l.014-.007.04.021c.06-.034.123-.064.165-.082a.42.42,0,0,1-.07.01l.083-.015.022-.009-.013.007A.347.347,0,0,0,5,17.369c.241-.042.459-.278.731-.315a.2.2,0,0,0-.1.046,5.1,5.1,0,0,0,.541-.214l-.022-.028a3.58,3.58,0,0,1,.374-.19l-.009-.039c.086-.03.231-.106.381-.157a.605.605,0,0,1,.375-.039.949.949,0,0,1,.44.026l.025.035a2.715,2.715,0,0,1,.338.146,3.908,3.908,0,0,1,.585.648l-.005.006c.055.07.1.142.154.213-.056-.046.041.036.072.107a.928.928,0,0,1,.136.288l.069.152c-.1-.16-.03.029-.054.051l.064.086c0,.021-.009.011-.018,0s-.021-.021-.007.019c.044.057.119.251.17.3a.181.181,0,0,0,0-.07c-.005-.008,0-.007,0,0v-.007l0,.009a.148.148,0,0,0,.021.023c.039.125.034.076.045.067.006.149.057.218.048.331.008-.054.035.03.061.114s.054.167.066.116c-.011.118.02.072,0,.151a1.586,1.586,0,0,0-.178-.395l.012.124c-.075-.058-.068-.265-.111-.327a.332.332,0,0,1,.044.155l.026-.042a1.308,1.308,0,0,0-.187-.4c.016.059-.005.024-.028-.011s-.046-.064-.043-.021l.039.083c0,.013,0,.015-.009.011.123.3.227.617.328.931.04.011.115.205.124.14a.413.413,0,0,0,.043.208c.051.092,0-.132,0-.177.05.113.059.109.07.11-.012.11-.058.2-.11.109.018.055.037.11.055.165-.007-.038.016,0,.037.065l-.01.008a.092.092,0,0,1-.008-.017,8.266,8.266,0,0,0,.393.985,1.208,1.208,0,0,1-1.154,1.682H7.958v0h-.02s0,0,0,0v.01h.018l-.017,0v.01H7.936v-.009l-.044,0-.026,0h.071v-.014l-.28,0c.066.007.124.013.054.017l.1,0c-.033.008-.307,0-.363.015l-.308,0c.01,0-.04.015.009.014-.076,0-.142.011-.043.011-.073,0-.15.007-.229.007A1.256,1.256,0,0,1,6.539,22.648Zm-4-2.348c.012.073.023.145.033.218,0-.021.009-.052.016-.088,0-.016,0-.032,0-.047l-.014-.053.011.025c0-.036-.006-.073-.01-.109-.006,0-.011.013-.012.044l.011.04c-.011-.024-.021-.041-.026-.041S2.539,20.292,2.538,20.3Zm6.956-.571a.587.587,0,0,0-.063-.2C9.452,19.6,9.473,19.664,9.494,19.729Zm-.078-.24h0l-.006-.014Zm-1.75-.2c.016.019.031.037,0-.037ZM3.459,18.11l.135-.042c-.015-.02-.027-.038-.02-.056C3.537,18.045,3.5,18.077,3.459,18.11Zm5.358-.223c0-.014.019-.01.034-.008s.057.011.042-.07c-.114-.3-.183-.195-.378-.52-.008-.007,0-.007,0-.006s.048,0-.047-.113a.757.757,0,0,0-.316-.225,2.876,2.876,0,0,1,.46.611.328.328,0,0,1-.02-.053.769.769,0,0,0,.121.184l-.052-.127C8.719,17.656,8.73,17.749,8.818,17.887ZM3.97,17.862a.038.038,0,0,1,.007-.015C3.946,17.859,3.965,17.855,3.97,17.862Zm4.965-.069,0,0-.023-.058Zm-3.752-.325.27-.113a2.341,2.341,0,0,0,.162-.188l-.151.1-.05-.005A.937.937,0,0,0,5.183,17.467Zm1.135-.6a.126.126,0,0,0,.009.108L6.5,16.9v-.063l.027.052.18-.078a.04.04,0,0,0-.026-.008h0A3.118,3.118,0,0,0,6.317,16.868Zm.934-.22a1.2,1.2,0,0,1,.156-.011c-.015-.008-.033-.021-.027-.032A.4.4,0,0,0,7.251,16.648Zm60,5.584-.026-.03a.763.763,0,0,1-.28-.243c-.062-.08-.125-.17-.231-.337,0,0,.033.04,0-.014a3.113,3.113,0,0,1-.259-.382l.009.008-.223-.359c.008,0-.014-.044-.052-.1a1.1,1.1,0,0,0-.106-.152.87.87,0,0,1-.023.087l-.008.023-.014.033c-.009.022-.021.042-.031.062a.357.357,0,0,1-.128.144.487.487,0,0,1-.222.128,1.685,1.685,0,0,1-.289.043s-.01,0-.032,0c-.161.029-.467.028-.646.044-.116.014-.065.016-.014.018-.232,0-.636.071-.721.072-.169.013-.064-.01-.111-.015-.251.024.045.034-.294.046.039-.005.111-.013.083-.013a2.089,2.089,0,0,1-.214-.005,1.563,1.563,0,0,0-.277,0l.086,0c-.234.032-.559,0-.6.036l.023.015c-.407.005-.172.019-.584.024l0,0a1.518,1.518,0,0,0-.365.029h.063c-.223.012-.243.012-.471.018a.874.874,0,0,1-.167.007,3.591,3.591,0,0,1-.63.023c.182-.007.1-.019.045-.03a.793.793,0,0,1-.325.008.111.111,0,0,1-.066.059,1.8,1.8,0,0,1-.243.059c.038-.015.1-.028.073-.032a.321.321,0,0,0-.109.025c-.031,0,.062-.028.026-.036a.922.922,0,0,1-.281.067,2.147,2.147,0,0,1-.377,0c.1,0,.017-.018-.016-.041-.016.023-.129-.007-.209-.067s-.129-.118-.1-.049a.926.926,0,0,1-.239-.459,3.237,3.237,0,0,1-.077-.493,2.07,2.07,0,0,1,.031-.7,3.054,3.054,0,0,0,.035-.316l.023.019a1.413,1.413,0,0,1,.029-.254l.063-.288c-.018.14.013.089.087-.027.011-.075.026-.153.041-.226l.055-.021a1.18,1.18,0,0,1,.119-.26c0-.1.143-.4.141-.466.094-.064.1-.243.174-.285a1,1,0,0,1,.03-.116c-.043.032-.077.036-.029-.039l.008-.019.047-.021c.029-.085.062-.169.085-.225a.764.764,0,0,1-.052.076l.059-.092.014-.029a.126.126,0,0,1-.007.019A.547.547,0,0,0,59.635,17c.175-.265.2-.668.391-.96a.346.346,0,0,0-.05.135,6.136,6.136,0,0,0,.279-.7h-.037c.051-.2.092-.361.142-.522l-.034-.02c.044-.115.082-.3.126-.477a1.2,1.2,0,0,1,.139-.4c-.017-.064.082-.327.094-.466l.036-.03a1.94,1.94,0,0,0,.054-.4,1.464,1.464,0,0,0,.056-.514.785.785,0,0,1,.193-.591l.009,0a.766.766,0,0,1,.364-.225c-.059.032-.022.011.042-.01A.442.442,0,0,1,61.6,11.8a.6.6,0,0,1,.252.022.672.672,0,0,1,.24.132.829.829,0,0,1,.19.19c-.205-.212-.01.041-.036.07a.872.872,0,0,1,.1.127c0,.028-.007.014-.019,0s-.025-.034,0,.025a.723.723,0,0,1,.08.241,1.383,1.383,0,0,0,.045.223.322.322,0,0,0,.016-.09c0-.012,0-.011,0,0v0a.4.4,0,0,0,.014.038c0,.175.01.111.024.1a3.146,3.146,0,0,1-.071.437c.026-.056.02.047.007.158s-.039.253,0,.194c-.069.138-.02.1-.076.185a1.755,1.755,0,0,0,.03-.576c-.013.053-.027.106-.042.159-.039-.105.041-.348.024-.45a.547.547,0,0,1-.014.205l.04-.039a1.576,1.576,0,0,0-.061-.577c0,.082-.009.033-.024-.019s-.044-.1-.044-.045a.968.968,0,0,1,.026.118c0,.017-.007.017-.012.01a4.006,4.006,0,0,1-.077,1.28c.029.034-.026.307.019.237a.73.73,0,0,0-.092.263c-.014.136.08-.149.108-.2-.028.158-.019.16-.01.168-.077.117-.172.194-.156.053l-.058.221c.019-.05.011.013-.01.095l-.014,0A.145.145,0,0,1,62,14.733a20.033,20.033,0,0,1-.856,2.681A12.762,12.762,0,0,0,60.1,20.065h.019l.007-.032s0,0,0-.006.006-.017-.006.039l.063,0,.034.005c-.02,0-.063,0-.1,0l0,.013c.126,0,.252.006.377.005-.088-.006-.17-.011-.077-.016h-.127c.042,0,.4-.008.473-.022l.4-.013c-.013,0,.052-.018-.012-.013.1-.01.185-.019.055-.014.48-.025.964-.08,1.447-.14a11.713,11.713,0,0,1,1.443-.115c.064,0,.027-.014,0-.021.177.024.167-.023.264-.028l.257.044c.1-.013.024-.027.032-.036.123,0,.244.007.364.014s.245.027.343.038c.057.01.121.024.179.032l.021,0h.007c.005,0,.01,0,0,0l-.022-.039c-.015-.026-.031-.051-.046-.074s.009-.025.021-.023.018,0,0-.052c0,.039-.007.035-.02.019a.213.213,0,0,1-.025-.037l-.044-.081c-.055-.1-.114-.215-.112-.179a1.116,1.116,0,0,0-.13-.3c-.056-.1-.1-.17-.051-.169-.119-.151-.13-.1-.1-.052a2.532,2.532,0,0,1-.2-.257.822.822,0,0,1-.134-.3.53.53,0,0,1,.066-.265.944.944,0,0,1,.29-.3.75.75,0,0,1,.42-.129.626.626,0,0,1,.266.053c-.111-.058.039-.02.176.021a.853.853,0,0,0-.116-.08,1.047,1.047,0,0,1,.311.148c.06.038.074.054.071.056.043.04-.021,0,.077.115.077.087.108.146.135.175s.051.056.087.1l-.011-.03.071.122c.02.037-.011-.007-.046-.051-.049-.063-.1-.126-.016.053a.6.6,0,0,1,.166.243c-.077-.153-.091-.121-.07-.061l.108.214,0-.092c.313.614.57,1.28.947,1.9-.037.011.273.434.2.4l-.013-.025c-.1-.146,0,.064.092.177-.033-.055,0-.029.025,0s.08.071-.042-.1c.06.074.122.146.186.216a.584.584,0,0,1,.144.128c.029.031.059.067.091.105a.778.778,0,0,1,.1.152.536.536,0,0,1,.027.409.468.468,0,0,1-.275.285.1.1,0,0,0,.038-.024,1.4,1.4,0,0,1-.59.152h-.02A.879.879,0,0,1,67.25,22.233Zm-6.965-.841.289-.014c-.028,0-.069-.012-.116-.022H60.4l-.071.008.033-.009h-.143c0,.007.016.012.056.017l.053-.007C60.28,21.375,60.251,21.386,60.286,21.392ZM60.1,20.066l0,.012h.021s0,0,0-.013Zm-1.233-.979c.019-.055.039-.109.061-.164-.026,0-.049,0-.057-.02C58.868,18.965,58.869,19.025,58.869,19.086Zm.218-.694.007,0a.05.05,0,0,1,0-.019C59.077,18.4,59.081,18.4,59.087,18.393Zm7.105-.606-.037-.039a.183.183,0,0,0-.03-.011C66.12,17.736,66.134,17.747,66.192,17.787Zm-.434-.165Zm-5.81-1.153-.045.044a1.551,1.551,0,0,0-.052.4c.051-.117.1-.235.148-.353.008-.128.012-.246.008-.312Zm.626-1.575c-.051.073-.208.4-.221.421a.11.11,0,0,0,.083.076c.026-.079.053-.158.078-.238l-.046-.047.057.013c.026-.082.052-.163.075-.245A.06.06,0,0,0,60.575,14.893Zm1.5-.473a1.006,1.006,0,0,0,.068-.263Zm-1.292-.26c.016-.069.031-.138.044-.207-.012.016-.03.037-.04.027A1.284,1.284,0,0,0,60.786,14.16ZM62.16,14.1h0l0-.017Zm-1.219-1.727a.66.66,0,0,0-.01.25,1.8,1.8,0,0,0,.037.18c.008.031.016.057.023.08,0-.074.006-.147,0-.221a.587.587,0,0,1,.38-.623l-.073.02a1.965,1.965,0,0,1,.279-.083.8.8,0,0,0-.185.013.561.561,0,0,1,.217-.017,1.11,1.11,0,0,1,.262.053c-.013-.019.022-.024.044-.032s.032-.03-.053-.081a.518.518,0,0,0-.437,0,1.169,1.169,0,0,0-.164.094.8.8,0,0,0-.222.215c-.009.024,0-.007-.014-.011h0C61.018,12.215,60.98,12.241,60.941,12.375Zm.946-.5h.007l-.094-.034ZM8.3,21.194h0Zm83.45-1.514a.162.162,0,0,1-.079-.008v0a.149.149,0,0,1-.039-.006c-.022-.006-.037-.012-.055.006l.015.006a1.054,1.054,0,0,1-.118-.019c-.008,0-.036,0-.042-.005-.009.029-.136-.01-.161-.018.046,0,.028-.012.019-.027a.06.06,0,0,1-.083-.008.084.084,0,0,1-.109.063c.013,0,.032,0,.027-.013s-.024,0-.031,0,.02-.011.017-.027c-.061.026-.086-.017-.161-.024.027-.006.011-.02.008-.037-.011.022-.028.007-.044-.007s-.033-.033-.031.005c-.122-.08-.337-.132-.367-.2,0-.025-.055-.01-.078-.021l.015-.022a.186.186,0,0,1-.075,0,.3.3,0,0,0-.076,0c.045-.012.04-.031.022-.069l-.076.022.011-.042a.08.08,0,0,1-.065-.033.111.111,0,0,1-.086,0c-.024-.006-.045-.011-.056,0,.01-.063-.065-.022-.052-.078a.108.108,0,0,1-.037,0c0,.028-.016.054-.029.032l-.005,0,.011-.034a.237.237,0,0,1-.06-.022.075.075,0,0,1,.01.027l-.014-.03-.006,0h0a.043.043,0,0,0-.041-.026c-.037-.087-.192-.037-.221-.148.006.014.02.027.032.019-.063-.039-.09-.125-.145-.129l-.018.029a.4.4,0,0,1-.126-.064l-.025.029c-.042-.049-.187-.085-.167-.172-.032.015-.062-.062-.1-.077l.012-.029a.185.185,0,0,0-.084-.059c-.031-.105-.143-.125-.188-.167l0-.007-.072-.027c.013,0,.01,0,0,0s-.032,0-.04-.01a.112.112,0,0,1-.074-.064l-.043-.031c.059.017.017-.035.03-.064l-.042,0c0-.02.031-.008.014-.028a.149.149,0,0,1-.05-.015.117.117,0,0,0-.069-.012.053.053,0,0,0,.007.031s0,0,0,0v0l-.015,0c-.033-.034-.026-.013-.032,0-.015-.066-.052-.066-.054-.125,0,.032-.024.009-.047-.014s-.047-.046-.052-.015c0-.062-.018-.023-.009-.068.029.053.1.063.141.075l-.015-.048c.051-.021.059.074.09.076-.02,0-.04-.03-.037-.042l-.014.037a.174.174,0,0,0,.139.058c-.012-.016,0-.015.013-.015s.035,0,.031-.02l-.028-.012a.01.01,0,0,1,.006-.011c-.04-.026-.079-.054-.117-.083l0,0-.012-.01a1.035,1.035,0,0,1-.123-.114c-.013.009-.032,0-.05,0s-.039-.013-.042,0c-.006-.031.014-.033-.025-.074-.036-.021-.006.056-.007.078-.034-.031-.041-.027-.049-.022.011-.056.059-.11.09-.088-.011-.017-.021-.034-.03-.052,0,.016-.011.007-.021-.013l.009-.006s0,0,0,0a.754.754,0,0,1-.053-.147c-.138-.562.01-.8.607-.8a.515.515,0,0,1,.1-.01c-.022,0-.045-.006-.021-.01l-.033,0a.619.619,0,0,1,.122-.005.485.485,0,0,1,.1.028s.015,0,0-.007a.127.127,0,0,0,.028.009,1.132,1.132,0,0,1,.292.2c.089.085.182.156.271.232.014.007.011,0,.008-.01.015.025.028.024.041.023a.032.032,0,0,1,.021,0l.035.057c.027.006.016-.013.021-.017a1.534,1.534,0,0,0,.287.158c.02.027-.023.027.01.051-.014-.034.02-.023.052-.012s.052.019.05,0c.016.058.125.067.075.126.042.025.052-.012.042-.024a.255.255,0,0,0,.145.042c.019.029.242.087.264.167-.009-.035,0-.029.021-.023a.089.089,0,0,0,.03,0l-.012-.046.067.037c.015,0,.019.007.017.01s-.011.018.014.041c.045.026.056.009.09,0l0-.009.033.013c.022.013-.1-.01-.032.046.006-.009.072-.028.08.007-.037-.023-.044,0-.035.02l.052.031,0-.05a3.679,3.679,0,0,1,.437.334c-.021.024.1.087.059.112l0-.008c-.037-.026-.012.036.02.055-.021-.036.08.012.013-.054l.067.033c.081-.03.134.143.225.207-.007,0-.011,0-.013,0,.079.059.136.173.158.183l0,.016a.407.407,0,0,1,.138.133h0s-.008,0,0,.008a.244.244,0,0,1,.088.076h0a.912.912,0,0,1,.069.087c-.014.01.017.044.044.09s.046.1.031.122a.313.313,0,0,1,.019.144s0,0-.006.008c.012.051-.046.123-.072.16s0,.022.011.013c-.045.043-.094.146-.12.157s-.026.013-.029.007,0-.007-.009-.006c-.054.044.033.026-.056.066.008-.008.025-.021.017-.018a.151.151,0,0,1-.074.009.131.131,0,0,0-.065.007h.024a.166.166,0,0,1-.1.013c-.03,0-.053,0-.056.011l.006.016A.217.217,0,0,0,91.747,19.679Zm-.521-.1H91.3a.22.22,0,0,1-.022-.027l-.016,0-.02,0,.011-.007-.034-.008a.018.018,0,0,0,.008.02l.015,0C91.228,19.566,91.218,19.575,91.225,19.582Zm-.9-.345.067-.032-.039-.021A.2.2,0,0,1,90.33,19.237ZM90.2,19.18l-.01.008C90.2,19.193,90.2,19.187,90.2,19.18Zm-.516-.294.064.011,0,.028a.254.254,0,0,0,.14-.031l-.079-.055A1.287,1.287,0,0,0,89.685,18.885Zm-.24-.3a.548.548,0,0,0,.042.14.325.325,0,0,0,.071-.075l-.05-.038-.041.042.035-.047-.051-.039A.043.043,0,0,0,89.445,18.59Zm-.194-.134a.121.121,0,0,0,.055,0l-.041-.033A.062.062,0,0,1,89.25,18.457Zm-.347-.208a.229.229,0,0,0,.151,0l-.087-.072a1.288,1.288,0,0,0-.109-.081.034.034,0,0,1,.009.019.073.073,0,0,0-.065-.03l.027.039c-.03-.018-.033-.066-.085-.082-.007.028-.059.04-.045.094a.069.069,0,0,0,.089.035.107.107,0,0,1,.107.026h0C88.906,18.2,88.848,18.224,88.9,18.249Zm-.232-.071c.013.016.019.027,0,0Zm-.362-.482.007,0-.005-.005Zm-.009-.014a.643.643,0,0,1-.038-.055A.068.068,0,0,0,88.3,17.682Zm2.385-.062Zm.119,0-.007-.012C90.786,17.612,90.776,17.615,90.8,17.619ZM65.32,19.329s0,.01,0,.014A.058.058,0,0,1,65.32,19.329ZM83.976,18.5c-.085-.058-.054-.028-.021.007a.634.634,0,0,1-.2-.3.455.455,0,0,1,0-.272c.035-.09.039-.083.043-.075s.006.008.014,0c.047-.094.039-.09.032-.094s-.005-.02.085-.122c-.016.024-.053.075-.037.057.066-.082.216-.189.271-.275l-.047.047c.106-.151.292-.326.284-.368l-.023,0c.2-.245.071-.114.271-.367v.005c.077-.117.134-.17.147-.244l-.03.039.2-.31a.566.566,0,0,1,.066-.113,3.013,3.013,0,0,1,.234-.43c-.065.125-.021.073.009.045a.52.52,0,0,1,.116-.227c-.027-.034-.054-.075.048-.276-.011.034-.033.084-.015.068a.246.246,0,0,0,.04-.084c.008-.008.006.005,0,.018s0,.026.01.018a2.866,2.866,0,0,1,.2-.439c-.02.068.015.019.04,0-.039-.039.174-.251.077-.206.229-.37.474-.992.585-1.126.038-.032.058-.156.087-.226l.02.02c.044-.213.052-.157.109-.4-.013.107.018.074.083-.01l.019-.179.051-.013a.74.74,0,0,1,.088-.206c-.014-.081.1-.323.09-.374.084-.046.069-.193.142-.222a.6.6,0,0,1,.019-.094c-.039.023-.07.023-.031-.035l0-.014.042-.011c.017-.063.035-.126.046-.168a.31.31,0,0,1-.037.057c.014-.024.028-.046.04-.069l.007-.022a.052.052,0,0,1,0,.014.281.281,0,0,0,.036-.134c.107-.217.007-.529.116-.791a.208.208,0,0,0-.012.114,2.58,2.58,0,0,1,.063-.329,1.045,1.045,0,0,0,.048-.262l-.035,0a1.248,1.248,0,0,1,.081-.473l-.031-.026A.717.717,0,0,1,87.6,9.4a.66.66,0,0,1,.3-.143.8.8,0,0,1,.259-.014.34.34,0,0,1,.169.058.379.379,0,0,1,.211.063,1.271,1.271,0,0,1,.227.176l0,.047a2.307,2.307,0,0,1,.2.318c.017.082.035.157.054.229a1.182,1.182,0,0,1,.04.251,2.371,2.371,0,0,1-.022.416H89.04a.851.851,0,0,0,.015.216c-.03-.047.02.037.028.084a2,2,0,0,0,.113.18.725.725,0,0,0,.106.082c-.137-.073-.015.04-.018.071a.784.784,0,0,0,.093.022c.013.014,0,.014-.012.013s-.024,0,.008.019.093.026.154.039a.425.425,0,0,0,.158.008.2.2,0,0,0-.056-.033c-.008,0-.008,0,0,0l-.006,0,.007,0a.124.124,0,0,0,.028-.006c.116.03.075.009.073,0,.122.064.206.046.307.1-.038-.024.038-.018.122-.008s.2.027.153-.007c.112.061.081.015.146.065a1.256,1.256,0,0,0-.45-.011l.121.037a.362.362,0,0,1-.212-.011.536.536,0,0,0-.135-.023.4.4,0,0,1,.159.026l-.028-.04c-.172-.033-.305-.023-.426-.04.051.024.019.02-.02.015s-.086-.009-.051.019l.09.023c.011.007.01.011,0,.013a8.236,8.236,0,0,0,.867.107l.132.024c.028-.029.241,0,.186-.034a.5.5,0,0,0,.209.067c.108.006-.118-.064-.159-.085.126.016.128.008.134,0,.094.064.152.145.042.137l.172.041c-.035-.014.013-.01.076.007l0,.012-.019,0c1.046.267,2.055.68,3.125.868.35.061.767.268.71.807a.754.754,0,0,1-.022.3.052.052,0,0,0,0-.007c.02-.058.027-.1.019-.038a.77.77,0,0,0,.012-.1.519.519,0,0,1-.032.176.487.487,0,0,1-.1.169.536.536,0,0,1-.288.135c.01,0-.041.013.01,0-.039.008-.074.013-.089.014a1.457,1.457,0,0,1-.242,0l-.284-.023a4.483,4.483,0,0,1-.568-.083,3.1,3.1,0,0,1-.543-.184c-.174-.07-.35-.132-.524-.193-.048-.013-.023,0-.006.011-.123-.059-.127-.029-.2-.045l-.182-.083c-.081-.012-.023.014-.03.019-.367-.086-.717-.2-1.022-.236-.092-.035.031-.03-.095-.062.085.042-.024.025-.131.007-.085-.014-.17-.028-.148-.01-.12-.071-.441-.1-.372-.159-.15-.037-.131.006-.089.022a2.692,2.692,0,0,0-.465-.077,5.511,5.511,0,0,1-.927-.28c.07.057-.035.006-.131,0l.078.061a.758.758,0,0,0-.187-.046c-.028,0-.032.006-.033,0a.012.012,0,0,1-.013-.008c0-.006-.009-.012-.043,0a.124.124,0,0,0-.054.081c0,.027,0,.045,0,.084l.011-.017a.809.809,0,0,0-.021.089c-.009.028,0-.011,0-.049s0-.107-.046.018a.383.383,0,0,1-.009.224c.025-.134,0-.118-.022-.073a1.269,1.269,0,0,1-.046.2c.024-.021.044-.04.065-.061-.006.021-.008.037-.017.061a.416.416,0,0,1-.024.06l-.043.092-.091.184c-.063.122-.125.245-.189.369l-.4.753c-.011-.01-.056.07-.1.149s-.1.177-.108.142l.014-.017c.062-.127-.049.02-.1.123.029-.042.022-.011.015.019s-.019.084.065-.063l-.091.207c.006.146-.307.519-.468.82a.076.076,0,0,0,.011-.033c-.146.268-.383.564-.416.627l-.026.015a2.688,2.688,0,0,1-.342.495s.021-.035-.012,0a1.578,1.578,0,0,1-.224.286l0-.009c-.075.082-.152.163-.234.238-.011-.013-.11.089-.232.187a1.135,1.135,0,0,1-.315.2,2.474,2.474,0,0,1-.366.2s-.008,0-.025.006a.679.679,0,0,1-.246.078.449.449,0,0,1-.057,0A.4.4,0,0,1,83.976,18.5Zm1.411-2.949c-.031.069-.064.136-.1.2.015-.017.037-.041.063-.067l.025-.042.02-.053-.005.028.054-.1s-.016,0-.036.03l-.013.04c0-.029.006-.051,0-.051S85.391,15.548,85.386,15.553Zm1.292-2.522.059-.13c-.024,0-.046-.006-.055-.023C86.682,12.929,86.68,12.98,86.679,13.031Zm1.7-.17.023.006c.007-.008.015-.013.009-.013A.146.146,0,0,0,88.379,12.861Zm-1.537-.382a.009.009,0,0,1,.006,0,.045.045,0,0,1-.006-.016C86.833,12.483,86.836,12.481,86.842,12.478Zm4.06-.622a.636.636,0,0,0-.207-.045C90.764,11.825,90.833,11.84,90.9,11.856Zm-.25-.054H90.64Zm-.709-.146Zm.112-.06Zm-1.039-.26c.006-.035.1.017.061-.088-.056-.114-.07-.155-.106-.213a.454.454,0,0,1-.032-.323c0-.012,0-.007.007,0s.032.021.04-.118a.7.7,0,0,0-.064-.333.338.338,0,0,0-.041-.055,3.46,3.46,0,0,1-.02.776.193.193,0,0,1,.008-.052.359.359,0,0,0,.041.215.607.607,0,0,1-.007-.133A.441.441,0,0,0,89.015,11.337Zm-1.656-.4-.031.041a1.2,1.2,0,0,0,.056.311c.019-.1.035-.2.048-.3a2.145,2.145,0,0,0-.08-.24Zm1.753.282h0a.259.259,0,0,1-.016-.031ZM87.681,9.644a.442.442,0,0,0-.135.174,1.5,1.5,0,0,0-.067.167.122.122,0,0,0,.1.051,1.831,1.831,0,0,1,.036-.193l-.05-.039.057.013a.493.493,0,0,1,.089-.177H87.7A.056.056,0,0,0,87.681,9.644Zm.567-.144a.7.7,0,0,1,.156.043c-.01-.014-.025-.033-.015-.042a.29.29,0,0,0-.069-.008A.416.416,0,0,0,88.248,9.5Zm1.91,7.8v0A.018.018,0,0,1,90.158,17.3Zm-51.074-.329c0,.012-.006.023-.008.033A.191.191,0,0,1,39.084,16.973Zm-10.489-.531-.008.013Zm25.042-1.62c-.061-.034-.076-.048-.074-.051-.046-.037.022-.006-.089-.107A2.148,2.148,0,0,1,53.3,14.5l-.027-.03c0,.009,0,.016,0,.03a1.393,1.393,0,0,1-.02.186c.008-.056,0-.009-.019.06a.838.838,0,0,1-.032.1l-.016.045c-.005.017,0,.008-.005.013a.577.577,0,0,1,.015-.058c.006-.026.015-.05.021-.078a1.5,1.5,0,0,0,.027-.167c.013-.066.02-.116.023-.142l-.023-.028c0,.01,0,.019,0,.027,0-.01,0-.021,0-.031s-.018-.024-.027-.039c0,.043,0,.086,0,.13,0-.044,0-.088,0-.132,0-.007-.009-.014-.014-.023a.3.3,0,0,0,.012.041.675.675,0,0,1-.059-.176c-.01-.068.013.053.056.123l0,.008c0-.04,0-.08-.008-.119a.427.427,0,0,1-.039-.126.4.4,0,0,1,.024-.218.287.287,0,0,0-.012.16c.008.01.015-.016.026-.052a1.081,1.081,0,0,1,.077-.266l-.075.07a6.54,6.54,0,0,1,1.288-1.9c.007.013.091-.076.176-.166s.192-.2.184-.156l-.023.019c-.127.142.063-.017.166-.134-.052.045-.03.01-.008-.025s.061-.1-.1.066l.2-.234a9.061,9.061,0,0,1,.878-.924c-.021.025-.025.033-.026.038.273-.306.653-.648.713-.723l.035-.016a7.527,7.527,0,0,1,.552-.593c0,.006-.033.043.015,0a4.44,4.44,0,0,1,.327-.363l-.006.011.307-.326c.023.026.51-.573.627-.648.053-.071.271-.314.366-.425,0,0,.009-.006.026-.022.1-.14.337-.364.461-.508.08-.1.039-.06,0-.023.176-.173.433-.522.5-.585.076-.088.077-.079.079-.071s0,.01.016,0c.17-.206-.058.01.188-.252-.025.033-.075.093-.053.071.091-.1.288-.256.368-.367l-.064.063c.074-.1.182-.2.256-.3a.506.506,0,0,0,.12-.2l-.025.012c.117-.186.141-.222.165-.262a.91.91,0,0,1,.055-.077.7.7,0,0,1,.172-.155l0,.006a.542.542,0,0,1,.223-.093,1.144,1.144,0,0,0,.162-.036h-.069a.783.783,0,0,1,.152,0,.816.816,0,0,1,.108.01.941.941,0,0,1,.254.073.42.42,0,0,1,.165.106c.007,0,.041.021.082.07a.5.5,0,0,1,.091.217.836.836,0,0,1-.049.4c.028-.1.027-.126.021-.122s-.021.041-.035.066a.737.737,0,0,1-.11.333c.024.035.067.085-.082.376.02-.048.051-.119.029-.095a.618.618,0,0,0-.061.119c-.012.012-.006-.006,0-.023s.009-.035-.006-.023a.838.838,0,0,1-.157.27,2.8,2.8,0,0,1-.272.28c.07-.076,0-.026-.041-.015.009.029-.093.088-.157.125s-.09.06-.046.062a.1.1,0,0,0-.047.1.159.159,0,0,0,.036.055.6.6,0,0,0,.081.065c.132.085.3.176.433.261a4.549,4.549,0,0,1,.6.407,1.792,1.792,0,0,0,.284.166l-.025.014c.267.116.2.107.506.25-.135-.049-.093-.006.011.092l.224.08.016.059a1.355,1.355,0,0,1,.256.161c.1.011.4.206.469.214.057.1.242.131.279.216a1.257,1.257,0,0,1,.117.047c-.029-.048-.03-.082.043-.024l.02.01.017.05c.086.041.171.085.227.115a.782.782,0,0,1-.075-.062l.09.071.029.017L64.907,9.1a.675.675,0,0,0,.174.1,8.788,8.788,0,0,1,.957.579.361.361,0,0,0-.132-.083c.264.165.487.382.662.474l.008-.036a4.748,4.748,0,0,1,.486.33l.032-.025c.2.171.687.49.757.659a3.613,3.613,0,0,1,.389.346l.008.048a3.8,3.8,0,0,0,.324.293c.031.04.062.079.095.116a1.338,1.338,0,0,0,.1.1.636.636,0,0,1,.208.319.608.608,0,0,1-.057.372.705.705,0,0,1-.211.268l-.009,0a1.013,1.013,0,0,1-.382.186c.047-.024.029-.015-.015,0a.631.631,0,0,1-.187.037.862.862,0,0,1-.493-.085,1.45,1.45,0,0,1-.23-.111c.256.115,0-.042.005-.078a1.534,1.534,0,0,1-.141-.065c-.019-.022,0-.016.016-.01s.037.015-.009-.024c-.1-.043-.312-.245-.393-.291a.343.343,0,0,0,.051.082c.01.008.009.008,0,0l.006.008-.008-.01a.381.381,0,0,0-.038-.021c-.123-.137-.083-.076-.089-.065-.1-.162-.191-.219-.266-.341.022.046-.054-.02-.135-.091s-.2-.162-.165-.1c-.087-.128-.078-.064-.129-.152a5.554,5.554,0,0,0,.481.333l-.107-.129c.118.03.267.261.345.32a.755.755,0,0,1-.151-.159l0,.057a3,3,0,0,0,.231.223,2.337,2.337,0,0,0,.223.171c-.058-.06-.013-.029.036,0s.095.058.06.009c-.033-.026-.066-.052-.1-.08-.01-.015-.007-.018,0-.015-.06-.055-.116-.111-.17-.167a6.312,6.312,0,0,0-.856-.733.383.383,0,0,1-.126-.047c-.072-.035-.141-.069-.11-.029a.73.73,0,0,0-.231-.18c-.131-.06.124.127.164.173-.146-.084-.153-.074-.163-.069-.092-.113-.141-.231-.005-.168l-.2-.129c.042.033-.017,0-.093-.041v-.014l.022.012c-.422-.26-.854-.5-1.274-.769-1.266-.8-2.512-1.628-3.8-2.469-.082.111-.167.219-.252.328.061-.067.114-.125.058-.046l.079-.11c-.019.042-.257.339-.3.406-.093.108-.184.218-.281.322,0,0,0,0,0,.01s-.009.022.019-.01c-.068.081-.127.153-.032.052-.342.38-.7.757-1.051,1.133s-.706.749-1.066,1.1c-.044.051-.01.031.013.017-.148.114-.11.139-.176.216l-.216.168c-.044.061-.026.055-.01.05s.014-.006.015,0c-.338.381-.694.733-.949,1.063-.047.04-.053.032-.057.025s-.008-.017-.073.051c.1-.074.011.036-.081.147-.077.094-.155.187-.12.17-.156.1-.4.459-.411.352-.134.16-.08.156-.037.114a2.7,2.7,0,0,0-.353.521,3.937,3.937,0,0,0-.323.532.769.769,0,0,1-.33.325.479.479,0,0,1-.291.042c.053.016.047.02.007.022a.764.764,0,0,1-.215-.031.6.6,0,0,0,.142.074A.828.828,0,0,1,53.636,14.822Zm-.042-.042c.033.01.065.025-.04-.038Zm-.345-.379s0,0,0,0a.047.047,0,0,0,0-.022C53.249,14.386,53.249,14.395,53.249,14.4Zm-.032-.04a.188.188,0,0,0,.027.037c0-.013,0-.025,0-.037s-.016-.059-.026-.109l-.006-.009Q53.215,14.3,53.217,14.361Zm14.6-1.235c.1.022.148.033.007,0Zm.021-.042a.624.624,0,0,0,.444-.028c.049-.023.1-.047.171-.084a.919.919,0,0,0,.262-.189c.014-.023,0,.007.012.013s.05-.009.118-.153a.475.475,0,0,0,.034-.279.3.3,0,0,0-.122-.181.445.445,0,0,0-.079-.043.334.334,0,0,1,.1.426.614.614,0,0,1-.43.366.671.671,0,0,1,.074-.014l-.3.079a1.213,1.213,0,0,0,.193-.015,1.32,1.32,0,0,1-.507-.01C67.843,13.008,67.659,13.007,67.834,13.084Zm-1.9-1.54.02.011-.019-.012Zm-.048-.034c-.079-.054-.159-.107-.239-.158A1.206,1.206,0,0,0,65.884,11.51Zm1.951-.145c-.009-.02-.021-.049-.007-.052a1.05,1.05,0,0,0-.165-.1C67.721,11.264,67.778,11.314,67.834,11.365Zm-.989-.812c.073.055.143.112.214.168,0-.007,0-.018-.011-.033a4.531,4.531,0,0,0-.347-.37.109.109,0,0,0-.1.056c.072.052.144.1.214.157l.062-.027Zm-1.34-.918c.132.032.253.06.324.073-.074-.037-.149-.073-.225-.108l-.04-.053a1.457,1.457,0,0,0-.412-.121C65.272,9.494,65.39,9.563,65.506,9.635ZM63.712,8.454Zm-.023,0a.053.053,0,0,1,.02,0,.094.094,0,0,0-.023-.013S63.69,8.448,63.689,8.453Zm-.53-.258c0-.025.009-.048.031-.051L63,8.09Zm-1.09-2.548s.017-.008.039-.048l.013-.055c-.006.051-.007.085.011.052.032-.1.063-.194.086-.3a1.162,1.162,0,0,1-.058.11l-.021.059-.019.076,0-.037C62.107,5.554,62.088,5.6,62.069,5.647ZM0,13.548c-.049-.494.6-.539.836-.531a5.6,5.6,0,0,0,1.211-.13A4.207,4.207,0,0,1,3.6,12.8a2.638,2.638,0,0,0,.748.1H4.328c-.145,0-.256-.018-.126-.012a1.733,1.733,0,0,1-.224-.022,2.237,2.237,0,0,0,.439.019.771.771,0,0,0,.151-.016,1.269,1.269,0,0,0,.138-.026,1.163,1.163,0,0,0,.183-.061,1.469,1.469,0,0,0,.441-.275h0a1.782,1.782,0,0,0,.186-.186c-.006.006,0,0,.008-.013s.024-.033-.027.026c.109-.129.191-.256.113-.149a5.811,5.811,0,0,0,.595-1.2c.187-.44.4-.873.612-1.3s.443-.848.669-1.265c.111-.208.232-.416.336-.622a4.579,4.579,0,0,0,.244-.651c.032-.121.006-.053-.011-.009a2.766,2.766,0,0,0,.119-.5c.052-.16.1-.321.165-.479.038-.135.022-.11.009-.084s-.014.024-.014.019c.018-.058.037-.115.058-.172a.329.329,0,0,0,.033-.126c0-.029-.022-.047-.058-.055a.538.538,0,0,0-.149-.009c-.221.021-.457.051-.677.074-.445.05-.866.1-1.248.157-.11.006-.111,0-.107-.009s.017-.018-.161,0c.422,0-.822.114-.68.128a4.589,4.589,0,0,0-.524.036c-.291.031-.55.062-.473.007-.384.05-.312.079-.2.069a8.71,8.71,0,0,0-1.154.222c-.061.008-.216.038-.42.085-.1.023-.216.052-.337.082s-.252.061-.363.1-.233.108-.358.162a1.34,1.34,0,0,1-.381.1.619.619,0,0,1-.35-.041.369.369,0,0,1-.162-.151c.027.052.05.075.052.083s-.018,0-.048-.039a.607.607,0,0,1-.139-.385.6.6,0,0,0,.025.3.576.576,0,0,1-.048-.38.59.59,0,0,1,.208-.316A.776.776,0,0,1,.788,5.93c.021-.012.029-.015.029-.013C.852,5.9.858,5.9.866,5.9s.03,0,.17-.072c.359-.194.371-.216.566-.33l-.06.021c.083-.041.168-.079.253-.117s-.069.04-.176.1-.161.1.146-.027a1.826,1.826,0,0,1,.528-.242c-.321.115-.27.127-.15.091.149-.054.3-.106.451-.152-.055,0-.11,0-.165,0a7.883,7.883,0,0,1,1-.257c.344-.061.683-.113,1.03-.167.691-.108,1.4-.21,2.112-.3,0,.009.058.006.15,0a2.585,2.585,0,0,1,.345-.014c.245.01.468.024.4.043l-.055-.006c-.158-.007-.154,0-.077.014a2.132,2.132,0,0,0,.465.006c-.126.007-.049-.01.025-.027s.167-.039-.09-.021a2.218,2.218,0,0,0,.411-.092c.066-.041.19-.08.211-.18a.672.672,0,0,0,0-.235A2.312,2.312,0,0,1,8.358,3.6c.01-.23.05-.469.073-.7a2.061,2.061,0,0,0-.017-.636.279.279,0,0,0,.016.051A1.373,1.373,0,0,0,8.22,1.8l-.086-.121a.38.38,0,0,1-.057-.162,1.12,1.12,0,0,1,.009-.292c.012-.09.028-.173.041-.249A.939.939,0,0,1,8.185.76.6.6,0,0,1,8.349.531.586.586,0,0,1,8.417.5a.793.793,0,0,1,.4-.11.474.474,0,0,1,.314.1.711.711,0,0,1,.193.288c.049.119.1.26.163.446-.005-.009-.037-.093,0,.024a4.147,4.147,0,0,1,.233.881l-.007-.021a5.6,5.6,0,0,1,.083.832c-.016,0,0,.357-.035.743a.73.73,0,0,0,.03.275.254.254,0,0,0,.157.169.729.729,0,0,0,.341,0,4.423,4.423,0,0,1,.464-.133c.2-.047.421-.079.555-.1a.388.388,0,0,0,.064,0c.317-.058.921-.074,1.27-.118.229-.032.128-.026.028-.021a4.358,4.358,0,0,0,.8-.145c.133-.034.253-.081.351-.115s.17-.07.209-.083c.19-.09.184-.08.178-.07s-.007.011.024,0c.111-.057.172-.081.2-.091s.02-.013.019-.017,0-.008.053-.021a1.215,1.215,0,0,1,.318-.026c-.038,0-.09,0-.13.007s-.074.008-.042.007a2.071,2.071,0,0,1,.492.039c.088.014.175.03.256.039s.159.011.224.025a.941.941,0,0,0-.171-.027.621.621,0,0,1,.368.1.537.537,0,0,1,.21.313.7.7,0,0,1,.01.3c-.016.079-.044.129-.047.151l.037-.034a.454.454,0,0,1-.189.19.683.683,0,0,1-.155.062l-.166.039-.562.129.009-.005a5.009,5.009,0,0,0-.687.2l.118-.03c-.422.121-.46.134-.9.237A2.331,2.331,0,0,1,13.171,5a2.339,2.339,0,0,1-.55.093l-.215.012c-.068,0-.134.006-.193.013-.121.01-.219.027-.267.034.171-.031.216-.038.206-.042a.751.751,0,0,0-.127,0,5.329,5.329,0,0,1-.62.14c-.032.047-.07.108-.631.247.086-.026.222-.063.164-.058a1.884,1.884,0,0,0-.231.058c-.058,0,.122-.043.056-.043a2.387,2.387,0,0,1-.548.115c-.047.006-.1.007-.15.011l-.04,0-.018,0a.1.1,0,0,0-.029.012.344.344,0,0,0-.093.237c.011-.143-.022-.022-.042.036.012.009.012.066.013.093s-.007.091.031.119a.129.129,0,0,0,.1-.019c.021-.01.018-.017-.008-.023L10,6.026a.192.192,0,0,1,.033-.009.2.2,0,0,1,.054,0,.18.18,0,0,1,.04,0l.028.006.058.011a1.667,1.667,0,0,1,.228.073,2.158,2.158,0,0,1,.43.236c.271.191.511.4.754.588.479.378.888.71,1.037.865.076.089.332.258.478.381l-.037,0c.435.314.328.255.825.645-.214-.153-.142-.07.031.128q.176.127.349.26l.03.088a3.585,3.585,0,0,1,.4.406,2.476,2.476,0,0,1,.333.311l.212.231a1.126,1.126,0,0,0,.132.127.748.748,0,0,0,.221.244,1.278,1.278,0,0,1,.221.194c.056.025.123.064.2.1-.063-.065-.075-.1.059-.016l.033.017.049.061a3.094,3.094,0,0,0,.424.139c-.048-.016-.1-.04-.157-.064.066.024.126.053.188.072l.058.013-.036-.007a1.107,1.107,0,0,0,.347.058,1.764,1.764,0,0,0,.462.023c.163-.009.314-.049.517-.066a2.615,2.615,0,0,1,1.078.174,1.256,1.256,0,0,0-.278-.064,6.245,6.245,0,0,0,.782.167c.063.008.11.006.181.01A.467.467,0,0,1,20,11.5a.739.739,0,0,1,.248.3.432.432,0,0,0,.018-.044.645.645,0,0,1,.064.4c-.008.041-.014.06-.021.084l-.021.072c-.015.048-.032.095-.05.142a.894.894,0,0,1-.417.479l-.006.046a1.034,1.034,0,0,1-.271.076c-.106.012-.179.012-.271.016-.177.007-.369.008-.555,0a3.193,3.193,0,0,1-.861-.113,2.109,2.109,0,0,1-.421-.05c-.186-.032-.4-.082-.529-.1l-.062-.04a3.254,3.254,0,0,0-.771-.029,13.489,13.489,0,0,0-2.033.212l-.006-.007-.648.088c.168-.042-.125.03-.321.043a7.669,7.669,0,0,1-.784.072l-.41.049c.453-.076-.038-.035-.068-.062l-.258.062c-.044,0-.024-.008,0-.017s.083-.024-.03-.01a8.51,8.51,0,0,0-.84.194,1.173,1.173,0,0,0,.168-.012c.021-.006.02-.005.006,0l.018,0-.021,0c-.021.007-.055.019-.068.025-.324.057-.2.046-.19.056-.366.026-.566.088-.843.089.287.005-.878.135-.637.148a1.541,1.541,0,0,0-.212.008.589.589,0,0,1-.163.006,8.47,8.47,0,0,0,1.086-.213l-.312.025c.192-.081.693-.1.873-.154a2.122,2.122,0,0,1-.407.066l.085.023A10.657,10.657,0,0,0,11.15,13.2c-.163.02-.039-.008.067-.036.087-.022.164-.045.066-.042l-.231.045c-.03,0-.033,0-.022-.008-.122.022-.246.045-.368.071-.236.05-.474.1-.711.138l.012,0-.021,0c-.466.084-.934.157-1.4.223-.037.04-.589.125-.431.129a3.093,3.093,0,0,0-.544.047c-.262.05.326,0,.437,0-.312.05-.311.058-.319.069-.263-.01-.464-.049-.2-.1l-.437.056c.095-.008-.023.015-.186.037l-.014-.009.042-.007c-.785.106-1.572.224-2.362.282-1.105.081-2.216.1-3.324.15-.048,0-.1,0-.143,0s-.1,0-.142,0H.867A.806.806,0,0,1,0,13.548Zm7.527.182a3.932,3.932,0,0,0,.546-.07C7.894,13.684,7.712,13.707,7.53,13.729Zm.645-.082s0,0,0,0l.045-.008Zm4.438-.543-.011,0,.153-.01Zm-.09-.138c.073.02-.224.09.1.093.8-.042.646-.136,1.605-.233.035-.008.011,0,0,.011s0,.029.312-.018a8.662,8.662,0,0,0,.941-.214c-.388.041-.771.1-1.151.148-.273.033-.547.062-.821.091.064,0,.115-.006.149-.006a4.332,4.332,0,0,0-.56.071l.349-.018C13.163,12.921,12.936,12.9,12.522,12.966Zm-8.3-.078Zm15.225-.062a.133.133,0,0,0,.055.013.586.586,0,0,0,.215-.031.649.649,0,0,0,.271-.177,1.292,1.292,0,0,0,.228-.387.1.1,0,0,0-.074-.118.168.168,0,0,1,0,.021,1.292,1.292,0,0,1-.2.425.644.644,0,0,1,.005.087l-.052-.033A.631.631,0,0,1,19.45,12.826Zm-1.8-.066a2.762,2.762,0,0,0,.353.01q-.209-.023-.417-.053C17.624,12.73,17.67,12.751,17.653,12.76Zm-10.5-.49a.345.345,0,0,0-.055.09c.024-.034.028-.014.037-.009s.022,0,.053-.054l0,.032s0,.011,0,.012l.026-.005a.224.224,0,0,1,.132-.034l.135.005a.829.829,0,0,0,.154-.01.031.031,0,0,0-.019.009c.17-.029.387-.009.426-.023l.017.012a1.341,1.341,0,0,1,.337-.048s-.022.008.006.007a.874.874,0,0,1,.2-.039l0,0,.186-.025c0,.018.086,0,.176-.018a.559.559,0,0,1,.2-.021c.036-.015.171-.039.231-.054,0,0,0,0,.015,0a1.768,1.768,0,0,1,.285-.046c.051-.013.027-.016,0-.018a2.409,2.409,0,0,0,.315-.072c.075-.013.03.01.052.014.11-.026-.025-.033.126-.047-.017.005-.049.013-.036.013a.413.413,0,0,1,.094,0,.331.331,0,0,0,.127,0h-.039c.1-.033.251-.008.262-.044l-.013-.014c.181-.014.074-.022.257-.038v0c.078-.019.125,0,.158-.042h-.028c.1-.022.106-.022.206-.041a.179.179,0,0,1,.073-.016c0-.029.228-.061.272-.068-.078.021-.038.025-.013.034a.161.161,0,0,1,.14-.038c0-.041.008-.086.134-.117-.019.01-.049.021-.035.026s.042-.01.051-.015-.025.021-.008.032c.079-.058.147-.034.269-.074-.038.021,0,.023.015.036,0-.026.043-.024.08-.021s.069.005.04-.024c.25-.008.621-.109.723-.077.029.016.092-.027.134-.035l0,.027c.113-.065.091-.031.225-.1-.054.04-.028.051.034.067l.089-.069.024.039a.24.24,0,0,1,.127-.02.192.192,0,0,1,.1-.052c.047-.016.1-.029.1-.042.015.029.032.022.043.016s.019-.011.048.013a.055.055,0,0,1,.011-.021c-.034-.022-.06-.048-.036-.038h0l.042.03a.063.063,0,0,1,.031-.015.3.3,0,0,1-.039-.013l.042.012H13.9s0,0,0,0c.022.006.042.008.037,0a.319.319,0,0,0,.047.007c.012,0,.024,0,.009-.01a.635.635,0,0,0-.071-.049c-.051-.032-.078-.041-.054-.073,0,.01,0,.019.021.021a.244.244,0,0,1-.038-.07.222.222,0,0,0-.084-.091l-.021.028a1.507,1.507,0,0,1-.185-.156l-.031.024c-.068-.087-.275-.209-.269-.312-.041,0-.1-.112-.154-.147l.009-.033a.49.49,0,0,0-.137-.117c-.08-.157-.232-.218-.337-.317l0-.007-.122-.083c.045.007-.033-.006-.062-.041a.351.351,0,0,1-.125-.126l-.069-.063c.09.055.02-.035.036-.062l-.062-.021c0-.013.006-.012.014-.011s.017,0,0-.016c-.041-.014-.131-.091-.179-.092a.091.091,0,0,0,.015.041c.006,0,0,0,0,0l0,0,0,0a.065.065,0,0,0-.021,0c-.051-.054-.039-.027-.045-.014-.032-.087-.084-.1-.1-.17,0,.035-.032,0-.07-.031s-.078-.067-.075-.028c-.02-.076-.032-.03-.038-.086a.607.607,0,0,0,.221.123L11.924,9.2c.069-.011.108.117.152.13a.121.121,0,0,1-.065-.068L12,9.3a.516.516,0,0,0,.215.135c-.021-.027,0-.019.021-.01s.049.016.04-.011l-.044-.03c0-.008,0-.01.005-.012q-.222-.185-.445-.365c-.014.008-.041,0-.067-.008s-.063-.021-.057,0c-.027-.039,0-.045-.083-.1-.06-.021.033.077.043.1-.063-.035-.07-.028-.078-.021-.018-.072-.006-.156.055-.133l-.081-.066c.014.019-.01.01-.04-.013l.006-.012.009.006c-.657-.528-1.317-1.045-1.944-1.6l0,.023s0,0,0,0V7.2l-.01.012s.005-.014.009-.024l-.012-.011c-.02.052-.041.1-.061.154.021-.037.043-.079.033-.034l.017-.054c0,.02-.056.17-.057.2-.022.056-.046.111-.072.165,0,0,0,0,.005.006s0,.012.011,0c-.015.042-.026.079,0,.027-.085.2-.17.4-.248.6a4.743,4.743,0,0,1-.261.591c-.009.027.007.017.018.01-.059.059-.017.075-.03.116L8.8,9.046c0,.033.007.031.017.028s.008,0,.01,0c-.079.2-.212.371-.261.542-.019.019-.027.014-.034.01s-.015-.011-.035.023c.047-.034.026.022,0,.079s-.039.1-.02.088c-.079.045-.122.227-.179.163-.043.076,0,.081.017.062a.77.77,0,0,0-.1.25c-.042.041-.187.42-.285.477.062-.033.014.016,0,.077L8,10.813l-.063.118c-.009.026-.015.032-.017.031s-.008.007-.013.006-.017,0-.038.027a.239.239,0,0,0-.033.146l.011-.01-.025.057c-.009.017,0-.01,0-.036s0-.071-.043,0c.008.006.012.106-.03.13.036-.067.009-.07-.013-.05l-.051.094.057-.011c-.143.269-.314.538-.457.831-.013-.009-.042.048-.055.074s-.036.067-.062.065l.01-.01c0-.014,0-.021,0-.021S7.166,12.259,7.157,12.27Zm4.349-.521a.525.525,0,0,1,.054.011l.027-.005.029-.014-.013.011.061-.011c0-.006-.007-.011-.026-.012l-.022.012c.019-.017.029-.03.013-.033Zm1.726-.262.08-.011a.1.1,0,0,1-.009-.059Zm.315-.116a.033.033,0,0,1,.006-.012C13.532,11.362,13.544,11.364,13.546,11.371Zm.506-.167-.029.006c.028.019.071.042.126.072l.09.05c.014.008.039.021.045.026l.007.007H14.3c-.034-.04-.069-.078-.1-.118a1.165,1.165,0,0,0-.236-.1Zm3.612.081c-.113.029-.222.054-.324.076a3.653,3.653,0,0,0,.488-.034,1.746,1.746,0,0,1,.271-.015,3.39,3.39,0,0,1,.519-.031h.069a3.176,3.176,0,0,0-.469-.046l-.119-.029A1.955,1.955,0,0,0,17.664,11.285ZM7.9,10.96l.017-.015c0-.008,0-.016,0-.016S7.9,10.938,7.9,10.96Zm5.755-.278a1.494,1.494,0,0,0,.084.209.187.187,0,0,0,.088-.056l-.077-.081-.051.031.041-.042-.081-.081A.036.036,0,0,0,13.653,10.683Zm-.309-.283a.26.26,0,0,0,.08.03l-.068-.065C13.355,10.377,13.354,10.394,13.344,10.4Zm-.911-.7c.108.152.159.043.316.2.021.007-.065,0,.031.07a.463.463,0,0,0,.22.074q-.165-.149-.332-.295a.108.108,0,0,1,.018.029.228.228,0,0,0-.1-.076l.047.066c-.048-.042-.061-.1-.144-.154C12.48,9.636,12.4,9.62,12.433,9.7Zm-.03.032h0C12.423,9.756,12.433,9.772,12.4,9.727Zm2.307-.036a.118.118,0,0,1,.029.014c-.024-.026-.033-.034-.035-.034S14.71,9.686,14.709,9.691Zm-.821-.72c0-.031.006-.057.038-.047-.1-.066-.2-.129-.3-.193C13.715,8.811,13.8,8.89,13.888,8.971Zm-2.161-.015.008,0-.006-.005Zm-.021-.019-.09-.072A.2.2,0,0,0,11.707,8.938ZM9.539,7.179l.011.011a.139.139,0,0,0,.006-.02l-.01-.009ZM.775,5.956C.749,5.976.725,6,.73,6a.4.4,0,0,0,.034-.023l.1-.064C.833,5.927.807,5.938.775,5.956ZM11.516,5.2a5.651,5.651,0,0,1,.551-.125c-.054,0-.129.008-.218.015l-.144.029-.117.034.057-.021c-.089.02-.18.041-.269.063,0,.005.035,0,.113-.01l.1-.031C11.5,5.185,11.448,5.21,11.516,5.2Zm79,8.16.009.006Zm-34.713-.351-.013.008Zm6.562-.022v0Zm0,0a.007.007,0,0,1,0,0A.007.007,0,0,0,62.368,12.982ZM5.338,12.5l-.008.008h0Zm.068-.066-.068.066Zm3.085-2.62-.006,0ZM80.405,9.2a.609.609,0,0,1-.26-.2A1.3,1.3,0,0,1,80,8.746a1.74,1.74,0,0,0-.119-.209c-.031-.1.048,0-.009-.116.021.1-.037,0-.094-.093-.047-.079-.094-.158-.092-.124-.021-.14-.2-.432-.1-.411-.054-.149-.081-.112-.072-.065-.063-.177-.1-.326-.143-.479,0-.026,0-.1-.008-.182a.314.314,0,0,0-.084-.2.21.21,0,0,0-.2-.039c-.066.014-.138.041-.183.045.1-.006-.01.025-.1.085l.1-.006c-.075.032-.149.066-.225.094-.044.022-.058.026-.059.022-.017.006-.019,0-.024,0s-.019-.009-.076.009a.782.782,0,0,0-.233.129l.026,0-.1.043c-.034.012.013-.013.053-.039s.092-.064-.051-.021A.394.394,0,0,1,78,7.293c.13-.043.1-.062.054-.055l-.182.06.075.023c-.523.173-1.081.3-1.635.47,0-.016-.088.01-.177.037s-.2.059-.18.029l.022,0c.134-.051-.05-.02-.159.024.05-.011.025.007,0,.024s-.072.049.092,0l-.209.093a.965.965,0,0,1-.359.162,3.187,3.187,0,0,0-.516.208.083.083,0,0,0,.027-.021,2.1,2.1,0,0,1-.44.188,1,1,0,0,1-.286.032h-.022l-.028-.017a.947.947,0,0,1-.165-.026L73.8,8.5a1.123,1.123,0,0,1-.317-.1c.005,0,.041.016,0-.012a.376.376,0,0,1-.121-.076.429.429,0,0,1-.117-.229l.006.009a.392.392,0,0,1,.071-.353c.006.006.033-.023.079-.059a1.427,1.427,0,0,1,.182-.115,3.025,3.025,0,0,1,.33-.18c.051-.043.266-.168.361-.223,0,0,.008,0,.025-.008a3.38,3.38,0,0,1,.466-.227c.083-.043.044-.032,0-.02.173-.066.462-.223.528-.243.083-.033.08-.025.079-.017s0,.008.011.006c.187-.077-.044-.022.214-.106-.029.013-.083.036-.061.03.1-.036.289-.051.382-.094l-.067.015c.173-.076.434-.106.453-.147l-.022-.01c.315-.079.129-.05.448-.13l0,0c.136-.046.217-.045.276-.094l-.048.01c.169-.054.185-.056.359-.106a.563.563,0,0,1,.128-.04.7.7,0,0,1,.208-.081,2.164,2.164,0,0,0,.249-.091c-.122.06-.059.045-.017.042a.692.692,0,0,1,.208-.133.115.115,0,0,1,0-.077c.012-.033.044-.075.079-.149,0,.026-.024.063-.008.054s.026-.052.03-.064.007,0,.007.015,0,.021.011.015c.012-.063.017-.111.025-.17a.848.848,0,0,0,0-.1.619.619,0,0,0-.034-.125c.034.057.024,0,.031-.024-.019,0-.035-.051-.049-.1-.019-.069-.035-.138-.051-.08a1.962,1.962,0,0,0-.244-.417c-.013-.027-.046-.041-.1-.069a.291.291,0,0,1-.15-.147,2.8,2.8,0,0,1-.187-.44c0-.052-.085-.154-.108-.236l.028,0a.573.573,0,0,1-.076-.2.605.605,0,0,1-.011-.1.686.686,0,0,1,.011-.178c-.008.069.005.089.017.078a.136.136,0,0,0,.024-.036l.045-.065a.6.6,0,0,1,.07-.2h.057a.5.5,0,0,1,.2-.147.145.145,0,0,1,.052-.048.641.641,0,0,1,.06-.035c.025-.009.051-.018.079-.026a.739.739,0,0,1,.273-.006.74.74,0,0,0,.151.106c.051.033.094.069.1.111a.5.5,0,0,1,.085.065c-.008-.048,0-.079.046-.01l.011.014-.007.048a1.353,1.353,0,0,1,.126.158.664.664,0,0,1-.027-.072c.014.03.024.057.036.084l.014.022a.06.06,0,0,1-.01-.012.378.378,0,0,0,.082.126c.089.229.38.41.475.675-.017-.038-.048-.087-.067-.093a3.581,3.581,0,0,0,.338.492l.021-.029c.056.06.106.111.154.154l.068.068.065.057.03-.025A.439.439,0,0,0,80.1,4.7a1.351,1.351,0,0,0,.139.011.435.435,0,0,1,.116.024A.353.353,0,0,1,80.5,4.7a1.283,1.283,0,0,0,.2-.049l.036.02a1.5,1.5,0,0,0,.3-.11,4.488,4.488,0,0,0,.793-.264l.005.007.242-.1c-.056.046.042-.033.12-.052a1.14,1.14,0,0,1,.3-.095L82.659,4c-.109.051-.069.05-.02.049.028,0,.059,0,.066.009L82.8,4c.019,0,.012.007,0,.015s-.029.022.017.01c.063-.04.267-.107.322-.156a.235.235,0,0,0-.073,0c-.008,0-.008,0,0,0h-.008l.009,0a.174.174,0,0,0,.025-.021c.133-.034.082-.03.072-.042a.846.846,0,0,0,.166-.017.566.566,0,0,1,.186-.014c-.05-.011.033-.033.129-.044s.229-.005.17-.036c.134.054.1.009.176.063a.736.736,0,0,0-.494.064c.045,0,.091,0,.137,0-.077.061-.289.048-.357.086a.37.37,0,0,1,.164-.037L83.4,3.843a1.365,1.365,0,0,0-.425.169c.066-.015.018.009-.021.033s-.058.038-.016.038l.088-.036c.015,0,.015,0,.009.011.142-.048.284-.093.429-.133h0l.032-.01a.913.913,0,0,1,.536,0,.167.167,0,0,1,.109.013c.06.02.113.053.092.017.057.075.029.055.138.2.034.047.031.01.007-.044a.746.746,0,0,0-.086-.146c.114.1.112.106.125.1.03.135-.016.23-.079.139a.831.831,0,0,1,.055.133c0,.012.005.023.008.034,0-.038.018.007.032.073l-.013.007a.029.029,0,0,1,0-.009c.077.444-.3.656-.606.778-.53.208-1.138.222-1.666.435s-1.073.36-1.611.544l.009.016.024-.007s.036-.008-.022.01l.022.041.006.027c-.006-.014-.019-.044-.03-.068l-.013,0,.113.27c-.021-.065-.04-.124-.007-.058L80.6,6.33c.02.028.131.292.165.341l.12.3s0,0,.008,0,.014.012,0-.017c.033.073.063.135.026.037.143.356.3.714.456,1.067a1.68,1.68,0,0,1,.185.572.426.426,0,0,1-.107.317.565.565,0,0,1-.281.15c-.048.018-.017.019,0,.021-.141.013-.124.055-.2.08a1.543,1.543,0,0,1-.22,0c-.088.02-.018.029-.023.038a.829.829,0,0,1-.086,0A.644.644,0,0,1,80.405,9.2ZM78.6,7.057l.039-.007c.01-.01.021-.019.016-.019A.253.253,0,0,0,78.6,7.057Zm1.927-.866.008.019s0,0,.012-.006l-.008-.017Zm-2.468-.436a1.051,1.051,0,0,1-.188.122c.022,0,.054-.011.091-.02L78,5.837a.493.493,0,0,0,.049-.04l-.021.025a.88.88,0,0,0,.1-.066s-.018,0-.046.011l-.03.029c.019-.026.031-.045.02-.045Zm2.281-.8c.053-.007.108-.019.168-.032-.017-.006-.039-.016-.035-.028A.78.78,0,0,0,80.339,4.957ZM79.626,4.7a1.232,1.232,0,0,0,.156.132.033.033,0,0,0-.007-.027c-.018-.031-.069-.1-.114-.17l-.086-.144a.128.128,0,0,0-.1.04c.046.055.09.1.133.148l.059-.023Zm2.036-.258a1.214,1.214,0,0,0-.336.215c.2-.069.416-.147.67-.232l.077-.027a.255.255,0,0,1-.047.006.667.667,0,0,0,.211-.086l-.139.03a2.387,2.387,0,0,0,.359-.1c-.036-.016.066-.093-.067-.085-.319.067-.224.156-.6.272-.013.008-.005,0,0-.01s0-.013-.015-.013A.35.35,0,0,0,81.663,4.444Zm2.668-.274a.322.322,0,0,0-.095-.138.216.216,0,0,0-.035-.024A.59.59,0,0,1,84.331,4.17Zm-1.952-.051,0,0C82.32,4.131,82.288,4.137,82.379,4.119Zm1.784-.14h0l-.007,0Zm-.721-.106Zm-4.73-.392.175.251a2.517,2.517,0,0,0,.224.127l-.13-.135-.006-.052a1.051,1.051,0,0,0-.263-.193Zm4.825.3Zm-6.143-.5a.488.488,0,0,1,.037-.133c-.024,0-.047,0-.056-.021A.475.475,0,0,0,77.4,3.276Zm.307-.5a.048.048,0,0,1,.005-.017C77.676,2.774,77.7,2.767,77.7,2.772Zm-44.515,6.1a.089.089,0,0,1,.02.009Zm55.245-.451a.951.951,0,0,1-.147.039l-.02-.048a.274.274,0,0,1-.185-.08.231.231,0,0,1-.146-.116c-.05-.079-.063-.161-.082-.182.048-.074-.024-.177.033-.22a.419.419,0,0,1-.018-.073c-.027.027-.056.035-.042-.016V7.714l.036-.021a1.276,1.276,0,0,1-.009-.141.293.293,0,0,1-.019.053l.019-.063V7.524a.039.039,0,0,1,0,.011.211.211,0,0,0,0-.112c.057-.183-.073-.414.01-.621-.009.031-.013.075,0,.087,0-.174.064-.344.047-.458l-.034,0a1.492,1.492,0,0,1,.02-.34l-.037-.012a1.4,1.4,0,0,0,.027-.142,1.008,1.008,0,0,0,.008-.118c0-.024,0-.026,0-.035a.292.292,0,0,1,.02-.04c-.016.008-.021,0-.034-.01a.081.081,0,0,0-.025-.012.211.211,0,0,0-.059-.006l-.016-.031a.788.788,0,0,0-.232,0,2.015,2.015,0,0,0-.613,0l0-.008-.2.025c.029-.015.012-.007-.02,0a.234.234,0,0,1-.079.01.612.612,0,0,1-.242-.012c-.042,0-.086,0-.132-.005.151-.013-.01-.039-.017-.072-.028.007-.058.012-.089.017-.033-.019.059-.017,0-.032a.5.5,0,0,1-.151-.015c-.062-.012-.126-.039-.163-.046a.172.172,0,0,0,.051.054c.01,0,.009,0,0,0l.006,0L85.9,5.618a.206.206,0,0,0-.033,0c-.119-.088-.08-.052-.085-.036a.852.852,0,0,1-.108-.192.253.253,0,0,1-.016-.144c-.014.036-.029-.038-.03-.114s.017-.172-.016-.132c.057-.094.016-.071.066-.126a.532.532,0,0,0,.024.384.52.52,0,0,1,.013-.109.343.343,0,0,1,.037.145.227.227,0,0,0,.062.141.19.19,0,0,1-.065-.129c-.008.012-.016.025-.024.039a.3.3,0,0,0,.148.177.43.43,0,0,0,.175.045c-.045-.021-.015-.018.019-.017s.067,0,.038-.026a.552.552,0,0,1-.071-.012c-.008-.007-.006-.011,0-.013-.165-.053-.276-.176-.257-.446a.618.618,0,0,1,.042-.195c-.01-.013,0-.049.007-.085s.043-.085.011-.073a.226.226,0,0,1,.063-.032c.02-.008.042-.027.105-.057.04-.023.013-.024-.034-.015a.551.551,0,0,0-.125.055c.088-.086.095-.082.092-.1a.167.167,0,0,1,.127.033c.019.02.013.038-.022.058a.444.444,0,0,1,.13-.018c-.027-.005.009-.014.059-.01l0,.011a.063.063,0,0,1-.015,0,.687.687,0,0,1,.194.046,1.287,1.287,0,0,0,.761,0,1.745,1.745,0,0,1,.533-.051c.26.028.495-.138.439-.517a7.6,7.6,0,0,1-.01-1.047c.012-.073.035-.152.056-.231-.017.05-.033.1-.021.043l-.019.073c0-.026.063-.229.061-.272a.465.465,0,0,0-.007-.23s0,0,0,0-.006-.011,0,.012c-.01-.033-.019-.062-.021-.068a.843.843,0,0,1-.012-.4.4.4,0,0,1,.108-.2.344.344,0,0,1,.209-.09,1.608,1.608,0,0,1,.438.04.675.675,0,0,1,.38.227c.028.031.019.008.011-.007a.536.536,0,0,0,.059.088.14.14,0,0,1,.042.055.547.547,0,0,1,.014.168c.01.044.016.034.021.024s0-.009.006-.008a1.023,1.023,0,0,1,0,.226.888.888,0,0,0,.006.187,1.506,1.506,0,0,0,.1.356c0,.078-.039-.009-.02.089.006-.071.031,0,.05.078s.024.163.037.133c-.018.054-.027.15-.044.219s-.029.113-.065.089c-.01.112.029.092.038.062-.008.119.024.226.1.238a.1.1,0,0,0,.072.034.485.485,0,0,0,.179-.016,3.6,3.6,0,0,1,.347-.11c-.084,0,0-.026.069-.074-.027,0-.056,0-.083,0,.057-.025.116-.049.173-.071.035-.017.045-.019.046-.016s.015,0,.02,0,.016.01.059,0a.52.52,0,0,0,.183-.093H90.7l.083-.025c.028-.007-.014.012-.047.031s-.065.045.044.027a.228.228,0,0,1,.167-.069c-.1.019-.084.042-.045.044s.095-.016.143-.024l-.056-.037a5.178,5.178,0,0,1,.918-.044c.12,0,.24,0,.36,0,0,.016.079.017.154.029s.145.035.12.051l-.016-.008c-.108-.017.025.036.107.06-.036-.019-.011-.018.014-.018s.069,0-.056-.047a.807.807,0,0,1,.176.05c.062-.012.184.06.266.2a.5.5,0,0,1,.068.239.769.769,0,0,1-.029.233.058.058,0,0,0,0-.029.493.493,0,0,1-.228.308,1.113,1.113,0,0,1-.216.089L92.6,4.667a.684.684,0,0,1-.218.043.783.783,0,0,1-.248-.039h.006c.007,0,.017,0-.01-.009s-.059-.008-.1-.016-.088-.027-.165-.035l.006,0c-.04,0-.08-.012-.12-.015h-.122c0-.019-.1-.008-.217.015a1.6,1.6,0,0,1-.271.055c-.044.023-.215.083-.289.117,0,0-.006,0-.02,0a2.4,2.4,0,0,1-.363.127c-.065.027-.035.023,0,.019-.135.031-.369.125-.424.119-.1.013-.04-.01-.069-.015-.154.015.029.038-.182.031.025,0,.07-.006.053-.008a.464.464,0,0,1-.149-.032c-.026-.008-.054-.016-.077-.022a.068.068,0,0,0-.05,0,.1.1,0,0,1,.038,0c-.053,0-.091.049-.1.117s-.011.118.007.128l.015-.014a3.228,3.228,0,0,1,.013.348l0,0c.005.107-.018.165.012.218l0-.037c0,.133,0,.145-.008.28a.291.291,0,0,1,0,.1,1.278,1.278,0,0,1-.015.375c0-.108-.013-.058-.028-.03a.282.282,0,0,1-.012.194c.038.018.08.041.062.214,0-.028,0-.07-.012-.054a.151.151,0,0,0,0,.072c-.005.008-.008,0-.011-.012s-.007-.02-.016-.012c.025.123-.025.2-.038.371,0-.056-.021-.011-.039,0,.048.023-.086.219-.009.169-.026.079-.049.17-.072.264s-.042.188-.076.287a.684.684,0,0,1-.137.247.341.341,0,0,1-.154.107c-.042.006-.124.078-.189.093l0-.027a.466.466,0,0,1-.154.056l-.182.034C88.548,8.465,88.511,8.451,88.432,8.421Zm.015-.006c.037-.017.073-.036.107-.056-.034,0-.069,0-.105,0A.087.087,0,0,1,88.447,8.416ZM88.1,8.33a.034.034,0,0,1-.016,0C88.1,8.351,88.092,8.336,88.1,8.33Zm-.152-1.268-.025.034a.616.616,0,0,0,.1.23c0-.075,0-.151,0-.227-.04-.073-.079-.139-.1-.177Zm1.489-.384c.006,0,.013-.007.021-.031l0-.032c.01.029.019.048.026.028l0-.172c-.006.016-.017.041-.029.068,0,.01,0,.02,0,.03l0,.046-.007-.022C89.438,6.621,89.436,6.649,89.432,6.677ZM88.1,6.059a1.367,1.367,0,0,0-.129.266.146.146,0,0,0,.1.04c.005-.049.011-.1.019-.147l-.055-.027.058.006c.008-.05.018-.1.028-.149A.036.036,0,0,0,88.1,6.059ZM86.5,5.7c.048.006.074.011,0,0Zm-.021-.149c.022.027-.07.065.027.1a.354.354,0,0,0,.251-.033.55.55,0,0,1,.236-.041c.012,0,0,.006,0,.016s.013.023.095.012a.748.748,0,0,0,.285-.1c-.2,0-.4.012-.6.019a.181.181,0,0,1,.044.009.409.409,0,0,0-.169.017l.106.016a.506.506,0,0,1-.108-.011.658.658,0,0,0-.108-.01A.451.451,0,0,0,86.478,5.547ZM88,5.584a.5.5,0,0,1,.1.043.221.221,0,0,0-.1-.081C88.012,5.558,88.016,5.576,88,5.584Zm-2.141-.82,0-.006v0A.071.071,0,0,0,85.864,4.764Zm.045-.06a.105.105,0,0,0-.014.023.329.329,0,0,1,.128-.081A.2.2,0,0,0,85.91,4.7Zm4.534-.982c-.014.015-.029.029.03,0ZM79.687,8.2v.01S79.687,8.207,79.687,8.2ZM5.345,6.074h0Zm4.538-.244a.018.018,0,0,0,0,.005A.019.019,0,0,1,9.883,5.831ZM7.745,4.441c-.042,0-.084.008-.127.01ZM89.63,3.346a.022.022,0,0,1,0,.007ZM8.409,2.237c0,.009,0,.018.006.026C8.413,2.256,8.411,2.247,8.409,2.237Z" transform="translate(272.874 109.358)" fill="#2a4c24" stroke="rgba(42,76,36,0.98)" stroke-linejoin="round" stroke-miterlimit="10" stroke-width="0.6"/>
  </g>
</svg>
