<svg id="button_Button1-3_noramal" data-name="button/Button1-3/noramal" xmlns="http://www.w3.org/2000/svg" width="96" height="72" viewBox="0 0 96 72">
  <g id="组_31" data-name="组 31" transform="translate(5 4)">
    <path id="路径_55" data-name="路径 55" d="M1035.394,588.14c-3.337,1.674-3.91,1-4.026.585-.09.006-.31,1.063-.418,1.05-.52-.062.3-1.092.7-1.129a17.6,17.6,0,0,0,1.545-2.219c.3-.1,1.313.495,2.36.555a28.773,28.773,0,0,0-2.932-5.124c-.1-.144-.2-.839-.307-.982-2.428.138-2.485,1.756-4.813.877-1.914-.723,2.237-1.478,3.778-2.021a51.789,51.789,0,0,0-12.59-11.915c.134.6-.691.972-1.378,1.172-.046.065.056.924-.085.993a7.109,7.109,0,0,1-3.247-.37c-1.732-1.334-7.184,3.289-7.5,2.146-.585-2.131,4.7-3.78,7.93-3.633-.054-.063-.64,1.182-.687,1.112-.392-.571,1.911-1.211,3.268-1.066a39.312,39.312,0,0,0-4.992-2.322c-1.177-.14-1.106.409-2.288.421-.733.008-.094-.4.746-.839a38.327,38.327,0,0,0-4.9-1.654,18.545,18.545,0,0,1-6.09-.1c-2.089-.506-.547-1.58,1.556-1.758a44.769,44.769,0,0,0-15.335.139,41.076,41.076,0,0,0-14.658,5.555c1.051,2.716-.085,2.233-1.23,3.1-.615.466-2.477-.661-3.635-.608-4.683,3.946-8,10.086-10.841,16.476-2.573,5.789-3.9,12.419-4.343,20.239-.371,6.587,3.095,10.871,9.611,13.728,4.41,1.933,9.84,4.331,15.923,4.721,5.168.332,10.762-.89,16.34-1.583a95.515,95.515,0,0,0,16.131-3.192c-.312-.18-.813.009-.895-.169-.2-.427,1.059-.7,1.468-.472a61.527,61.527,0,0,0,16.886-8.262c-.217-.184-.041-.132-.221-.479-.243-.469,1.247-1.719,2.806-2.019,3.594-3.062,6.338-5.815,7.505-9.7-.016.01.189.165.173.175-1.039.7-1.61.229-1.886-.1-.124-.147,0,.266.2.226.526-.1.917-1.173,1.376-1.118a15.538,15.538,0,0,0-.784-10.388C1035.41,588.268,1035.594,588.04,1035.394,588.14Z" transform="translate(-950.953 -561.328)" fill="#fdfee2"/>
  </g>
  <rect id="矩形_68" data-name="矩形 68" width="96" height="72" fill="none"/>
  <g id="组_729" data-name="组 729" transform="translate(-252.631 -159.033)">
    <path id="联合_17" data-name="联合 17" d="M7410.789,2982.032c.1.024.189.046.082.029l.148.027c-.05,0-.466-.087-.553-.094l-.467-.093c.014.007-.064,0,.011.013-.116-.021-.217-.038-.066-.005-.558-.112-1.125-.229-1.68-.388-.278-.078-.55-.175-.819-.266l-.8-.271c-.073-.02-.033,0-.007.014a.95.95,0,0,0-.3-.072l-.282-.109c-.121-.021-.031.013-.041.018-.276-.065-.549-.126-.812-.171s-.516-.066-.75-.1c-.145-.04.04-.023-.152-.064.127.044-.015.024-.167-.008s-.294-.073-.25-.048c-.089-.045-.248-.1-.374-.155s-.226-.113-.174-.121c-.208-.107-.187-.064-.128-.028-.122-.063-.229-.127-.328-.191a1.341,1.341,0,0,1-.28-.22,1.036,1.036,0,0,1-.137-.248.812.812,0,0,1-.022-.481.9.9,0,0,1,.255-.423l.08-.068.066-.052c.041-.032.077-.055.1-.073-.067.046-.07.038-.039.01a1.8,1.8,0,0,0,.128-.151c-.035.03-.076.054-.112.081a1.285,1.285,0,0,0,.113-.125,1.113,1.113,0,0,0,.1-.134c.034-.058.044-.074.046-.073.026-.05.007.02.078-.106.02-.053.034-.094.044-.127s.01-.06.013-.083a.781.781,0,0,0,0-.14l-.008.033c0-.025.005-.049.006-.073l0-.074c0-.054.012.041.015.108,0,.033,0,.059.008.054a.094.094,0,0,0,.01-.034.357.357,0,0,0,.009-.1c-.006,0-.01-.058-.032-.122s-.041-.136-.046-.186a.923.923,0,0,0,.045.135c.005.008.012-.017.006-.051s-.022-.086-.039-.127-.034-.083-.053-.123c0,.031,0,.064,0,.094a1.534,1.534,0,0,0-.325-.47l-.223-.215c-.04-.035-.074-.077-.111-.116a1.226,1.226,0,0,1-.105-.124,1.28,1.28,0,0,1-.284-.6,1.174,1.174,0,0,1,.127-.66,2.161,2.161,0,0,0,.152-.255c.076-.125.152-.238.145-.2l-.02.027c-.111.182.059-.036.139-.189-.039.064-.024.021-.009-.021.021-.059.042-.117-.08.1a2.357,2.357,0,0,0,.137-.3.858.858,0,0,1,.071-.219c.019-.046.041-.1.059-.148a.432.432,0,0,0,.03-.158c0-.1-.115-.174-.246-.21-.065-.021-.13-.031-.2-.05a1.169,1.169,0,0,1-.2-.071.2.2,0,0,0,.05.016,1.9,1.9,0,0,1-.576-.413c-.154-.148-.275-.263-.318-.294l-.024-.033c-.076-.061-.141-.1-.2-.143a1.525,1.525,0,0,1-.132-.132,1.219,1.219,0,0,0-.136-.134.524.524,0,0,0-.1-.061.456.456,0,0,1-.135-.1c.006,0,.048.044-.005-.015a.278.278,0,0,1-.08-.193.707.707,0,0,1,.108-.349l0,.014a.226.226,0,0,1,.1-.1.248.248,0,0,1,.139-.014.917.917,0,0,1,.243.088c-.007.011.188.1.392.217a4.063,4.063,0,0,1,.474.3c.086.047.4.239.54.313a.184.184,0,0,0,.032.022l.334.164a2.673,2.673,0,0,0,.359.142c.134.039.078.016.021-.007a1.257,1.257,0,0,1,.451.235.958.958,0,0,1,.229.3c.056.121.049.117.042.114s-.009,0,0,.015c.056.14.056.127.062.125s.005,0,.016.029a.452.452,0,0,1,.02.064.52.52,0,0,1,.016.1c-.006-.052-.023-.112-.018-.081a.439.439,0,0,1-.044.306c-.051.1-.121.181-.156.249l.059-.082c-.035.061-.078.123-.111.188a.613.613,0,0,0-.041.1c-.01.033-.014.068-.024.1-.047.134-.12.215-.12.242l.025-.016a2.106,2.106,0,0,0-.192.282l-.045.089a1.233,1.233,0,0,0-.086.222v-.006a.493.493,0,0,0,.042.4l-.022-.065a.843.843,0,0,0,.125.23,1.461,1.461,0,0,0,.182.2c.025.019.123.1.15.124a.292.292,0,0,1,.088.058l.084.073a.827.827,0,0,1,.083.1.6.6,0,0,1,.073.112.813.813,0,0,1,.057.111c.027.072.054.13.06.16-.081-.2-.054-.1-.039-.042a.888.888,0,0,1,.1.379c.016.01.033.023.052.078a.849.849,0,0,1,.027.119c0,.053.012.122.012.211,0-.055-.011-.141-.016-.106s0,.118,0,.146-.006,0-.009-.021-.006-.039-.012-.019c0,.06.007.115.007.171s-.01.11-.017.167c-.017.115-.044.242-.083.412.016-.11-.012-.019-.034.015a.512.512,0,0,1-.073.218c-.045.088-.082.158-.033.109-.018.039-.043.076-.066.115a.848.848,0,0,1-.077.117c-.057.082-.118.149-.17.224a1.076,1.076,0,0,0-.071.113.472.472,0,0,0-.023.054.14.14,0,0,0-.008.041.087.087,0,0,0,.035.07.389.389,0,0,0,.1.05,3.941,3.941,0,0,0,.467.115c.137.029.245.053.307.073a2.668,2.668,0,0,0,.362.05l-.019.017c.321.016.247.026.625.052-.158,0-.1.019.056.064l.262,0,.044.04a1.87,1.87,0,0,1,.333.064,4.8,4.8,0,0,1,.574.089c.1.073.3.082.372.149.038.007.086.021.139.036-.046-.038-.058-.066.038-.02l.023.008.034.041c.1.037.207.079.269.1-.028-.014-.059-.033-.093-.054l.112.062.034.015-.021-.008a.82.82,0,0,0,.2.083c.327.173.786.2,1.167.346a.633.633,0,0,0-.166-.039c.33.079.654.189.87.218l-.009-.028c.248.045.441.084.638.138l.019-.025c.072.023.165.047.266.076a1.62,1.62,0,0,0,.286.064,2.217,2.217,0,0,0,.283.011,1.1,1.1,0,0,1,.175.007,1.552,1.552,0,0,1,.232-.052,2.818,2.818,0,0,0,.306-.075l.046.01a4.683,4.683,0,0,0,.46-.14,10.668,10.668,0,0,0,1.185-.352l0,0,.37-.13c-.092.048.07-.035.184-.065a3.335,3.335,0,0,1,.455-.133l.239-.073c-.17.063-.107.053-.036.044a.232.232,0,0,1,.085,0l.147-.065c.027,0,.015,0,0,.013s-.043.022.022,0c.1-.044.4-.137.487-.189a.545.545,0,0,0-.1.015c-.012.005-.012.005,0,0l-.011,0,.013,0a.382.382,0,0,0,.039-.022c.191-.054.119-.041.109-.049.215-.031.328-.086.49-.1-.068,0,.044-.031.166-.068l.188-.057c.051-.013.072-.023.029-.025.1,0,.13,0,.154,0a.251.251,0,0,1,.1.013.8.8,0,0,0-.375.063l-.292.118.185-.035a3.7,3.7,0,0,1-.508.156,1.07,1.07,0,0,1,.238-.066l-.054-.013a4.662,4.662,0,0,0-.631.225c.094-.024.027,0-.033.029s-.1.045-.037.037l.133-.046c.02,0,.021,0,.012.006l.645-.2-.019.005.05-.015.385-.121a.879.879,0,0,1,.408-.025.362.362,0,0,1,.156.011c.087.019.165.053.121.018a.578.578,0,0,1,.1.072c.015.012.034.024.06.048a.538.538,0,0,1,.1.11c.048.075.036.021-.013-.054a.711.711,0,0,0-.175-.164.919.919,0,0,1,.16.1c.023.018.027.017.033.017a.273.273,0,0,1,.048.214c-.006.017-.015.021-.025.011a.529.529,0,0,1-.036-.058.362.362,0,0,1,.012.252c.008-.022.009-.024.008-.009a.4.4,0,0,1-.042.12l-.012,0c0-.006.005-.012.008-.017a.778.778,0,0,1-.092.139.96.96,0,0,1-.507.285,32.688,32.688,0,0,0-3.573,1.074,8.5,8.5,0,0,1-2.176.393C7411.1,2982.093,7410.943,2982.062,7410.789,2982.032Zm.792-.92c.082-.01.164-.025.245-.042-.023,0-.053-.006-.045-.017Zm-1.149-.185c.1.026.2.052.293.08a.069.069,0,0,0-.027-.021c-.088-.051-.494-.194-.523-.2a.076.076,0,0,0-.071.062q.144.034.288.071l.046-.033Zm3.153-.44a3.588,3.588,0,0,0-.524.23q.558-.168,1.115-.343c-.029.007-.053.012-.069.015a2.063,2.063,0,0,0,.32-.11l-.2.05c.162-.052.3-.064.535-.151-.046-.007.119-.088-.072-.058-.469.112-.36.17-.916.334-.018.008-.008,0,0-.006s0-.01-.008-.01A.761.761,0,0,0,7413.585,2980.487Zm-4.913.01c.147.01.28.014.355.011-.09-.015-.179-.033-.269-.05l-.061-.036a4,4,0,0,0-.458-.063Q7408.456,2980.435,7408.673,2980.5Zm6.01-.41.006,0C7414.6,2980.107,7414.547,2980.118,7414.683,2980.087Zm2.739-.4a.5.5,0,0,1,.168.15.415.415,0,0,0-.169-.157.547.547,0,0,0-.063-.027C7417.378,2979.659,7417.4,2979.67,7417.421,2979.682Zm-1.187,0Zm-9.84-.006a.06.06,0,0,1,.018,0l-.025,0C7406.379,2979.667,7406.392,2979.672,7406.394,2979.676Zm10.9-.054h0l-.021-.007Zm-11.766-.05.208.035c-.009-.019-.015-.036,0-.044Zm-2.365-1.547c-.014.03-.022.064.03-.043A.321.321,0,0,1,7403.167,2978.024Zm1.222-1.1c.005,0,.006-.018,0-.068,0-.017-.011-.038-.017-.061.02.053.035.086.031.044a1.8,1.8,0,0,0-.1-.329.771.771,0,0,1,.028.135c.007.025.015.05.021.076s.016.051.022.074c0-.012-.009-.025-.014-.038C7404.371,2976.809,7404.381,2976.864,7404.389,2976.92Zm56.193,4.663a.324.324,0,0,1-.081-.029c-.015-.008-.02-.011-.019-.012-.031-.019-.024-.022-.029-.031s-.025-.024-.073-.1a.387.387,0,0,1-.04-.077.32.32,0,0,1-.021-.061.808.808,0,0,1-.022-.088.458.458,0,0,1-.014-.07.377.377,0,0,1-.005-.086l-.008.038a.655.655,0,0,1,.032-.168c.021-.06-.014.048-.014.123,0,.038,0,.066.007.06s.008-.046.036-.139a.384.384,0,0,1,.028-.132.425.425,0,0,1,.119-.17.319.319,0,0,0-.085.126c0,.011.018-.007.042-.033a.8.8,0,0,1,.192-.187.754.754,0,0,0-.092.029.807.807,0,0,1,.259-.153c.051-.018.09-.028.134-.041l.128-.037.521-.158c.35-.109.706-.223,1.069-.33a1.146,1.146,0,0,0,.25-.056c.123-.031.24-.057.211-.032l-.029,0c-.178.051.058.009.2-.026-.066.01-.029,0,.008-.02.052-.021.1-.041-.115.006.1-.026.191-.055.288-.077a1.52,1.52,0,0,1,.509-.1c.117-.012.245-.014.37-.019h.106a1.391,1.391,0,0,0,.246-.013l-.038.011a.326.326,0,0,0,.125-.039.122.122,0,0,0,.059-.092.937.937,0,0,0-.042-.278,1.393,1.393,0,0,1-.028-.247.7.7,0,0,1,.014-.145l.02-.034c.024-.086.051-.145.066-.2a1.083,1.083,0,0,0,.031-.151,2.688,2.688,0,0,0,.017-.412c0,.005.005.052.005-.012-.01-.1-.019-.195-.035-.473l0,.011-.031-.435a2.849,2.849,0,0,0-.014-.389.324.324,0,0,0-.031-.135c-.02-.035-.056-.038-.1-.03-.08.018-.149.047-.183.049a3.386,3.386,0,0,1-.537.12.126.126,0,0,0-.033,0,6.33,6.33,0,0,1-.667.07c-.12.013-.068.014-.015.014-.24.01-.66.057-.748.054-.176,0-.066-.01-.114-.015-.262.007.044.03-.307.019.041,0,.116,0,.086,0-.134,0-.373-.045-.506-.056l.088.016a1,1,0,0,1-.378-.092c-.11-.053-.179-.119-.2-.124l.01.025a.533.533,0,0,1-.133-.179.643.643,0,0,1-.033-.088.446.446,0,0,1-.017-.093.423.423,0,0,1,.045-.225v.007a.313.313,0,0,1,.183-.15c.06-.02.107-.031.153-.047l-.044,0a1.926,1.926,0,0,1,.47,0,2.722,2.722,0,0,0,.457-.031l.356-.029c-.183.022-.1.023-.042.027a1.184,1.184,0,0,1,.333-.044c.018-.034.044-.067.337-.113-.044.011-.116.025-.086.027a.568.568,0,0,0,.121-.021c.03,0-.063.021-.029.027.194-.06.343-.054.627-.116-.089.026-.01.019.025.024.016-.041.4-.042.278-.071.071-.01.145-.024.221-.04l.114-.026a.154.154,0,0,0,.063-.027.066.066,0,0,0,.014-.065c0-.017-.015-.074-.019-.114-.012-.086-.019-.17-.022-.252-.008-.163-.008-.312-.008-.434,0-.062,0-.113,0-.167a.439.439,0,0,1,.027-.122,1.474,1.474,0,0,1,.062-.151.371.371,0,0,1,.139-.151l0,.025a.414.414,0,0,1,.165-.077.583.583,0,0,1,.108-.012.784.784,0,0,1,.12,0,.617.617,0,0,1,.211.06c-.08-.032-.1-.027-.092-.014a1.116,1.116,0,0,1,.116.1.481.481,0,0,1,.178.193.423.423,0,0,1-.015.057,1.017,1.017,0,0,1,.047.3,1.3,1.3,0,0,1,.055.228.619.619,0,0,0,.075.225.149.149,0,0,0,.056.123c.026.022.051.023.075.043a.738.738,0,0,0,.091-.031c-.044-.009-.062-.025.011-.037l.018-.007.042.012a2.446,2.446,0,0,1,.235-.1l-.1.021c.041-.011.079-.02.118-.027l.036-.01-.021.008a2.1,2.1,0,0,1,.229-.034c.025,0,.052.009.077.013l.01,0h.023a.614.614,0,0,0,.113-.022c.082-.022.166-.053.251-.084a2.538,2.538,0,0,1,.527-.156.46.46,0,0,0-.143.045c.287-.091.581-.14.775-.194l-.019-.023a.922.922,0,0,1,.132-.022.323.323,0,0,1,.169.029,1.313,1.313,0,0,1,.345.167l.031-.012a.422.422,0,0,1,.135.35.67.67,0,0,1-.12.344.731.731,0,0,1-.25.219.767.767,0,0,1-.119.052l-.052.014-.054.011a.162.162,0,0,1-.052,0l-.025.005h-.016l-.01,0-.024.006-.124.024a2.473,2.473,0,0,0-.269.063l-.041-.012a3.494,3.494,0,0,0-.4.121,10.6,10.6,0,0,0-1.042.294l0-.005-.3.092c.03-.025-.025.015-.042.018v.005a.153.153,0,0,1,.009.026.045.045,0,0,1,0,.013l0,.031a1.984,1.984,0,0,1,.015.219c.007.074.014.148.019.222-.034-.245-.027.02-.05.035l.026.14c0,.025-.009.01-.013-.005s-.01-.038-.01.02c.019.094.021.372.04.46a.424.424,0,0,0,.017-.09c0-.012,0-.011,0,0v0c0,.012.005.031.008.039-.009.177,0,.113.012.106a3.132,3.132,0,0,1-.084.441c.024-.055.01.051-.011.161s-.047.246-.016.189c-.055.135-.017.095-.056.182a5.514,5.514,0,0,0,.058-.572c-.014.054-.029.108-.046.16-.015-.108.063-.356.055-.46a.731.731,0,0,1-.024.211l.032-.039a2.2,2.2,0,0,0-.008-.591c0,.082-.01.027-.018-.029s-.016-.1-.025-.046l.007.124c0,.019-.007.017-.01,0,0,.038,0,.076,0,.114a4.109,4.109,0,0,1-.085.879l.021-.1.007.065-.029.036a2.929,2.929,0,0,0-.04.33.532.532,0,0,1,.018.133c.007.075.013.144.024.1a.819.819,0,0,0-.008.282c.013.067.015.024.016-.04s.009-.156.013-.184c.009.164.018.16.024.166a.768.768,0,0,1-.038.152c-.013.025-.031.017-.047-.054a.557.557,0,0,0,.072.235c-.016-.028-.014-.035-.007-.022a.4.4,0,0,0,.069.081v.009a.592.592,0,0,0,.425.073,20.585,20.585,0,0,1,3.625.157c.366.069.609.239.583.578-.026.36-.414.333-.674.341l-.531-.015c.079.006.344.015.2.015l.131,0c-.021,0-.126,0-.235,0s-.216,0-.254,0l-.416-.011c.013,0-.056,0,.012,0-.1,0-.193,0-.058,0-.5-.012-1-.021-1.5-.025s-1,0-1.49-.017c-.066,0-.029.006,0,.01a1.144,1.144,0,0,0-.271.008l-.264-.024c-.107.006-.023.014-.031.019a3.953,3.953,0,0,0-1.35.213c-.057.01-.059,0-.057,0s.005-.014-.085.009c.116-.014,0,.023-.132.061s-.252.068-.208.068a3.169,3.169,0,0,0-.344.05c-.118.023-.208.042-.181,0-.2.052-.152.072-.1.059a3.714,3.714,0,0,0-.576.217c-.063.015-.314.116-.588.194a2.862,2.862,0,0,1-.4.083,1.727,1.727,0,0,1-.274.01c.144.011,0,.021-.15.046.045.007.089.01.133.014a1.61,1.61,0,0,1-.185.014A.675.675,0,0,1,7460.582,2981.583Zm-.062-.032a.083.083,0,0,0,.038.006.515.515,0,0,1-.091-.043A.4.4,0,0,0,7460.519,2981.551Zm5.333-2.555c0,.048,0,.09.008.13,0-.1,0-.216-.009-.285C7465.85,2978.889,7465.851,2978.94,7465.852,2979Zm0-.21h0c0-.011,0-.022,0-.034C7465.852,2978.764,7465.851,2978.775,7465.851,2978.786Zm.114-2.29c.019.021.039.042.042-.065-.006-.068-.006-.082-.009-.1a.327.327,0,0,0-.013-.058c.033-.015.059-.033.121-.061a2.781,2.781,0,0,1,.358-.115c.016-.007.007,0,0,.007s0,.024.161-.029a2.492,2.492,0,0,0,.463-.208c-.371.109-.741.219-.994.281.03-.005.055-.009.071-.01a2.276,2.276,0,0,0-.272.07c.061-.006.117-.013.171-.022-.054.015-.11.018-.167.028.007.068.016.152.039.276,0,0,0-.007.007-.007S7465.957,2976.488,7465.965,2976.5Zm.072-.128c0,.012,0,.032,0,.063l0,.006c0-.034-.005-.066-.006-.073Zm0,0h0Zm-3.159-.638q-.147.024-.294.044c.029,0,.071,0,.12,0l.062-.007.072-.015-.035.011.148-.017s-.017-.007-.06-.006l-.054.012c.047-.015.076-.027.041-.027Zm5.418-.1h0v0h0v0h0Zm.042-.088a.364.364,0,0,1-.055,0c-.033,0-.074.013-.12.023.021,0,.047.007.041.017.023-.006.047-.013.071-.021s.053-.006.075-.022l.029-.017Zm-1.609-.453a3.835,3.835,0,0,0,.385-.1c.112-.065.21-.128.265-.166l-.223.09h-.062A3.784,3.784,0,0,0,7466.729,2975.083Zm-.083-.059v0c0-.007,0-.015,0-.022C7466.65,2975.008,7466.648,2975.017,7466.647,2975.024Zm1.982-.247a.275.275,0,0,1,.172.186.062.062,0,0,0,.005-.031.2.2,0,0,0-.044-.1.447.447,0,0,0-.122-.1c-.045-.028-.091-.051-.125-.071a.71.71,0,0,1-.067-.042l-.018-.01a.063.063,0,0,0-.074.059.11.11,0,0,1,.042.011,2.079,2.079,0,0,0,.2.087l.047-.026Zm-3-.247a.06.06,0,0,1,.01.015c0-.02,0-.026,0-.026S7465.632,2974.528,7465.629,2974.53Zm-.249-.509c0-.021,0-.041.025-.04a.474.474,0,0,0-.191-.038A.454.454,0,0,1,7465.38,2974.02Zm-1.971,6.89h0Zm-17.181-.051a.943.943,0,0,1-.221-.058.48.48,0,0,1-.109-.062.291.291,0,0,1-.085-.109.407.407,0,0,1-.009-.254,1.794,1.794,0,0,1,.072-.219,7.11,7.11,0,0,1,.391-.769.964.964,0,0,0-.046.094,6.6,6.6,0,0,0,.329-.651c.048-.111.075-.227.123-.343s.085-.217.024-.282-.147-.015-.237.021a.544.544,0,0,1-.142.036l-.123.02c-.155.024-.268.042-.322.052l-.084,0c-.4.074-.619.123-.855.185-.06.015-.119.032-.183.051a1.253,1.253,0,0,1-.217.052.8.8,0,0,1-.271-.013.608.608,0,0,1-.3-.158c.011.008.1.085-.017-.026a.491.491,0,0,1-.1-.161.355.355,0,0,1-.011-.237.485.485,0,0,1,.2-.244,1.705,1.705,0,0,1,.388-.184l-.024.012a6.239,6.239,0,0,1,1-.274,2.057,2.057,0,0,0,.275-.044c.168-.031.4-.073.631-.123s.478-.112.679-.174a.561.561,0,0,0,.241-.106.632.632,0,0,0,.093-.142,5.1,5.1,0,0,1,.3-.52,2.817,2.817,0,0,0,.177-.334,1.55,1.55,0,0,0,.094-.294.374.374,0,0,0,.017-.076c0-.022.005-.053.006-.073v-.021s0-.008,0-.01h-.081l-.1,0c-.133-.007-.277-.021-.42-.016a1.132,1.132,0,0,0-.41.083,2.066,2.066,0,0,1-.364.118c-.144.03-.187.027-.175.03a.724.724,0,0,0,.14-.01.966.966,0,0,1-.5-.036.943.943,0,0,1-.429-.346l-.072-.11a.437.437,0,0,0-.066-.088.218.218,0,0,0-.077-.051.187.187,0,0,0-.035-.01h-.015c-.006,0-.007,0-.007.011l0,.018-.016.079a.594.594,0,0,1-.043.115.513.513,0,0,1-.135.177c-.033.023-.042.028-.043.027s.027-.029-.025,0a.768.768,0,0,1-.253.1c-.033.008-.026.01-.026.012s-.007.007-.068.013a3.463,3.463,0,0,1-.381,0h.131c.066,0,.115,0,.073,0-.313-.015-.88-.03-1.2-.014h.209a8.428,8.428,0,0,1-.913-.005c-.282-.018-.5-.056-.548-.05l.052.02c-.248-.039-.4-.087-.492-.1a.464.464,0,0,0-.2.007.212.212,0,0,0-.141.109.369.369,0,0,0-.036.177,2.021,2.021,0,0,0,.04.3l0-.012a2.858,2.858,0,0,1,.044.294.321.321,0,0,1,0,.072.092.092,0,0,1-.034.062.171.171,0,0,0-.035.09,1.331,1.331,0,0,0,0,.357c0-.05,0-.1,0-.15,0,.27.017.419.026.568s.023.3.044.577c.008.064.034.332.034.41a1.411,1.411,0,0,1,.025.216,2.382,2.382,0,0,1,.007.481.541.541,0,0,1-.11.27.531.531,0,0,1-.226.157.809.809,0,0,1-.363.049.552.552,0,0,0,.149,0,.48.48,0,0,0,.088-.017c.041-.011.052-.015.045-.016s-.033,0-.065.008a.856.856,0,0,1-.1.008.422.422,0,0,1-.37-.109.728.728,0,0,1-.181-.42.339.339,0,0,1-.069-.166,3.341,3.341,0,0,1-.059-.67c.006.11.015.284.019.212s-.006-.239-.009-.294c0-.035.006,0,.01.04s.009.077.014.037c-.019-.239-.028-.445-.031-.679s0-.5-.016-.84c.016.218.018.03.026-.049a3.123,3.123,0,0,1-.035-.457c-.011-.2-.023-.354-.034-.221-.026-.34-.073-.724-.1-1.125,0-.05-.007-.1-.009-.152,0-.026,0-.052,0-.078v-.037a.126.126,0,0,0,0-.025c-.008-.039-.023-.093-.035-.14l-.023-.091c-.014-.055-.027-.11-.041-.164l-.019-.082-.01-.04,0-.02c0-.007,0-.017,0-.006-.023.106-.049.2-.078.3s-.087.268-.137.4a5.01,5.01,0,0,1-.268.6c-.071.124-.228.475-.333.683l0-.037c-.131.3-.176.42-.222.553a4.642,4.642,0,0,0-.173.662c.06-.32.021-.192-.09.118a3.448,3.448,0,0,1-.17.52l-.076.079a3.133,3.133,0,0,1-.166.306,2.929,2.929,0,0,1-.205.3.645.645,0,0,1-.122.152.572.572,0,0,1-.173.113.547.547,0,0,1-.232.041.83.83,0,0,1-.227-.042.469.469,0,0,1-.2-.124.4.4,0,0,1-.091-.178.768.768,0,0,1-.017-.112c.024-.144.063-.3.1-.45a1.287,1.287,0,0,1,.143-.366,2.931,2.931,0,0,1,.1-.277c-.066.1-.1.128,0-.067l.022-.047.064-.074c.094-.2.2-.4.264-.531-.032.058-.072.124-.115.192.047-.081.092-.156.134-.229l.037-.069-.021.042a3.014,3.014,0,0,0,.2-.412l.059-.121.031-.064.007-.017s.007-.018,0-.008l-.016.032-.008.017,0,.008,0,0v0h0v-.018c.005-.02.005-.017.007-.024l0-.011.008-.02.015-.037c.08-.2.155-.394.227-.6.138-.392.271-.8.44-1.174a2.07,2.07,0,0,0-.1.284c.121-.333.261-.665.4-.955a6.557,6.557,0,0,0,.276-.778l-.035.022a3.32,3.32,0,0,1,.289-.679,2.358,2.358,0,0,0,.3-.5l-.026-.02a.741.741,0,0,0,0-.205l-.014-.146c0-.038-.005-.076-.008-.116,0-.013-.006-.03-.022-.026h-.016l-.02,0-.129.009-.5.031c-.155.011-.3.025-.415.04s-.217.031-.293.034a.944.944,0,0,1-.216.042.724.724,0,0,1-.4-.072.68.68,0,0,1-.185-.139,1.115,1.115,0,0,1-.132-.166.44.44,0,0,1-.075-.244.483.483,0,0,1,.054-.209c.024-.028.047-.053.071-.078a.982.982,0,0,1,1.024-.408.935.935,0,0,0,.588-.031,2.232,2.232,0,0,1,.666-.155.625.625,0,0,1,.1,0,.035.035,0,0,0,.044-.034.407.407,0,0,0,0-.064l0-.156c0-.209,0-.413,0-.614l.006-.007c0-.271,0-.541,0-.81.017.211-.01-.159-.012-.4s-.039-.664-.078-.959a1.018,1.018,0,0,1,.057-.583c-.146.646.014-.051.083-.053a1.063,1.063,0,0,1,.2-.3c.05-.04.025-.01,0,.019s-.066.074.041-.024a1.031,1.031,0,0,1,.082-.072.382.382,0,0,1,.151-.072.338.338,0,0,1,.2.021.645.645,0,0,1,.159.1l.244.207a.381.381,0,0,1,.1.144.471.471,0,0,1,.024.129.329.329,0,0,0,0-.111.378.378,0,0,0-.083-.169c-.027-.027-.026-.024-.007-.009l-.021-.021.026.026c.014.015.031.033.046.053s.028.04.035.053a.408.408,0,0,1,.031.188.78.78,0,0,1-.014.1c-.01.048-.014.066-.014.073s.015-.027.021-.034c-.019.061-.035.108-.043.146a.252.252,0,0,0-.006.049c0,.015,0,.047,0,.07.006.1.013.186.018.271a3.779,3.779,0,0,1,0,.44c.012-.112.021.128.022.385,0,.292-.006.606.018.455-.039.348-.006.239-.038.461a12.287,12.287,0,0,0-.037-1.376c0,.13-.006.26-.012.39a5.218,5.218,0,0,1-.026-.56c0-.186-.015-.376-.028-.493.009.073.021.175.025.261a1.875,1.875,0,0,1,0,.2l.022-.1c-.005-.139-.019-.273-.033-.4a3.405,3.405,0,0,1,.049-.341.338.338,0,0,0-.05-.2.523.523,0,0,0-.128-.126,2.356,2.356,0,0,0-.246-.191c.081.059.089.075.072.063a.858.858,0,0,0-.129-.077.278.278,0,0,0-.172-.023c-.018.005-.026.01-.021.011h.012a.445.445,0,0,1,.045,0,.44.44,0,0,1,.264.124c.028.029.028.032.011.022.056.049.109.1.162.144.228.183.032.4.056.6.021.173.034.347.043.521,0-.01,0-.019,0-.029,0,.018,0,.035,0,.053.031.581.013,1.164.01,1.746a2.74,2.74,0,0,1,.026.313c.006.088.01.176.019.222s.015.059.016.009a.425.425,0,0,0,.018.121.13.13,0,0,0,.041.063.177.177,0,0,0,.12.03,2.247,2.247,0,0,0,.282-.043c.162-.034.062-.025-.1-.006a.879.879,0,0,1-.236.013.1.1,0,0,1-.082-.069c.028.055.067.055.112.056a.485.485,0,0,0,.1-.015c.049-.012.052-.016.057-.021.329-.02.58,0,.226.068l.566-.094c-.136.018.014-.014.222-.046l.016.008-.036.006a.535.535,0,0,1,.673.43c.1.427-.284.454-.5.49a5.474,5.474,0,0,1-1.339.251c-.315-.026-.328.22-.3.408.216,1.3-.065,2.068.245,3.331,0-.024,0-.046-.005-.064s0-.025,0-.054c.005.053.009.1.012.134s.023.1.037.146a.477.477,0,0,0,.031.089s.007,0,.008.006l-.008-.006h0c.008.015.013.013.016,0v0a.553.553,0,0,0,0-.11l.011.019,0-.01-.009-.035c0,.009,0,.018,0,.026a1.6,1.6,0,0,1-.1-.56c-.019-.1-.03-.149-.021-.125a.587.587,0,0,1-.021-.167c.01.094.025.187.041.28,0-.031,0-.063-.006-.1,0-.014,0-.028-.007-.042-.007-.117-.012-.188,0-.153-.021-.365.079.345.11.744a.629.629,0,0,0,.053.134.442.442,0,0,1-.048-.1l0,.009c.013.052.024.1.034.134.131.182.4.207,1.013.241.883.05,1.771.022,2.656.043.164,0,.309.092.451.338l.017,0-.02-.036a.2.2,0,0,1-.017-.03l.016.024c.006.01.014.024.024.042h0l-.021-.129-.009-.083.032.211.01,0q-.065-.461-.144-.895c.035.217.067.423.022.2l.054.308c-.011-.06-.054-.293-.1-.543s-.1-.509-.128-.6q-.1-.481-.237-.957c0,.011,0,0-.01-.017s-.02-.048.007.047c-.064-.219-.127-.409-.061-.183q-.117-.4-.259-.787a.809.809,0,0,1-.035-.458,2.043,2.043,0,0,1,.164-.423,1.442,1.442,0,0,1,.25-.381,1.374,1.374,0,0,1,.367-.273c.271-.142.563-.215.831-.335a14.7,14.7,0,0,1,3.375-1.085c.083-.012.1-.008.089-.013a.2.2,0,0,0-.057,0,1.023,1.023,0,0,1,.123,0l.061,0,.052.01c.064.011.111.017.151.028s.074.015.113.025.08.026.137.05a2.067,2.067,0,0,1,.514.389c.13.118.11.089.089.059-.01-.014-.021-.029-.014-.026a1.892,1.892,0,0,1,.486.77,1.772,1.772,0,0,1,.07.443l.025.423c.027.558.036,1.088.036,1.57-.01.143-.017.136-.023.13s-.013-.015-.023.2c.029-.274.027.021.008.341a4.252,4.252,0,0,0-.032.524c-.041.2-.088.537-.145.81-.031.145-.057.268-.084.35s-.053.109-.051.061a.58.58,0,0,1-.147.234c-.046.042-.076.058-.084.069s.043,0,.107-.049a.448.448,0,0,1-.209.1.632.632,0,0,1-.216,0,1.442,1.442,0,0,1-.19-.047.59.59,0,0,0-.166-.024,1.4,1.4,0,0,0-.623.221c-.026.009-.064.028-.119.046a.918.918,0,0,1-.091.03.478.478,0,0,1-.054.014l-.035.007c-.024,0-.062,0-.07.034-.008.015,0,.03,0,.045a.277.277,0,0,1,.015.051.769.769,0,0,1-.016.4,1.782,1.782,0,0,1-.176.378l-.1.177c-.016.029-.033.059-.046.088l-.017.036c0,.009-.008.018-.013.028a.586.586,0,0,0-.037.114l-.007.029s.007,0,.014,0l.011,0,.057-.01.118-.018.171-.025c.2-.028.366-.043.472-.048-.292.01.062-.026.378-.07-.1,0-.2,0-.3,0q.369-.043.741-.066l.153-.01a.136.136,0,0,1,.04,0,.153.153,0,0,1,.073.006,1.282,1.282,0,0,0,.217.007c.505-.007.53-.015.809-.02l-.077-.007.343.013c.25.011-.891-.011-.073.038a.571.571,0,0,1,.088-.005,1.055,1.055,0,0,1,.208.019.833.833,0,0,1,.24.091.445.445,0,0,1,.179.169.509.509,0,0,0-.21-.178.413.413,0,0,0-.091-.036c-.022,0,.028.023.1.066a.449.449,0,0,1,.222.25.709.709,0,0,1,.019.323.745.745,0,0,0,.038-.217.622.622,0,0,1-.055.367.5.5,0,0,1-.3.232,1.535,1.535,0,0,1-.335.07.62.62,0,0,1-.093,0l-.081-.007c-.052,0-.1-.009-.156-.011a6.8,6.8,0,0,0-1.273.082c-.429.06-.863.136-1.308.176-.222.024-.453.011-.656.048a.614.614,0,0,0-.472.349.417.417,0,0,0-.075.161c-.037.106-.068.257-.115.4-.014.036-.027.073-.042.107s-.033.07-.05.1l-.087.154c-.047.085-.074.128-.063.089l.034-.06c.2-.39-.088.1-.232.427.072-.14.037-.053,0,.034-.047.12-.1.241.134-.234-.1.213-.191.428-.292.641a2.594,2.594,0,0,1-.206.433.966.966,0,0,1-.234.29.556.556,0,0,1-.35.125A.5.5,0,0,1,7446.229,2980.859Zm-5.906-1.845a.572.572,0,0,0,.2.3.477.477,0,0,0,.354.059.491.491,0,0,1-.259-.033.377.377,0,0,1-.163-.119.572.572,0,0,1-.079-.118.56.56,0,0,0,.041.062.965.965,0,0,1-.11-.323s0,.042.02.14a.887.887,0,0,0,.05.121c-.038-.071-.06-.127-.063-.127S7440.317,2978.988,7440.322,2979.014Zm-2.389-.747a.244.244,0,0,1-.018.038.3.3,0,0,0,.038-.054S7437.938,2978.266,7437.934,2978.268Zm.611-1.227c.027-.147.048-.293.075-.439-.044.154-.075.287-.119.431a.069.069,0,0,1,.032-.018C7438.54,2977.015,7438.544,2977.022,7438.544,2977.041Zm12.031-.655h-.117C7450.386,2976.4,7450.313,2976.406,7450.575,2976.386ZM7437.979,2975.732Zm0,0h0Zm0,0h0Zm0,0h0Zm-.024,0h0a.518.518,0,0,0,.028-.044l.074-.177c.077-.182.149-.365.219-.549.077-.29.138-.551.171-.7l-.176.541-.067.126c-.059.175-.114.347-.165.509-.025.081-.05.16-.072.237a.256.256,0,0,0-.012.056Zm.061-.1,0,0,.016-.026,0,0c0-.009,0-.013,0-.013A.43.43,0,0,0,7438.013,2975.632Zm7.315-.76.01.018h0c0-.006,0-.012,0-.019l-.01,0Zm0,.017h0l-.005-.01Zm-.014,0h.013l0-.012,0-.007-.018,0Zm1.274-.392.033.013h.017l.019-.008-.008.008.038,0s0-.009-.015-.012l-.015.007c.012-.011.02-.02.01-.023Zm-.187-.044,0,.017,0,.011s0,0,0,.006h.007c.007,0,.029-.01.034,0,.007-.012.024-.016.056-.02s.082-.007.1-.008c-.049.01-.025.016-.01.024a.085.085,0,0,1,.089-.016c0-.031.009-.064.089-.075-.012.006-.031.011-.022.016s.026,0,.033-.007-.017.013-.007.023c.052-.036.093-.011.17-.029-.024.012,0,.017.007.028,0-.019.027-.014.049-.008s.043.011.027-.014a1.34,1.34,0,0,0,.238,0,.573.573,0,0,1,.206.005c.017.014.057-.015.083-.019l0,.02c.07-.042.056-.019.137-.065-.032.028-.016.037.021.051l.053-.049.015.029a.113.113,0,0,1,.068-.014h.008c.018-.038.107-.051.118-.074.017.019.034.012.049.005s.03-.013.043,0a.138.138,0,0,1,.027-.023c-.017-.016-.026-.036,0-.032l.005,0,.016.022a.331.331,0,0,1,.059-.026.092.092,0,0,1-.026-.006l.03,0,.008,0,0,0a.058.058,0,0,0,.047-.015.191.191,0,0,0,.124-.045.19.19,0,0,1,.151-.042c-.016,0-.036,0-.039.012.078-.026.165-.008.21-.04l-.009-.024a.58.58,0,0,1,.146-.052l0-.029c.07-.005.212-.078.264-.024.008-.015.04-.015.073-.015a.221.221,0,0,0,.063,0l.013.021a.3.3,0,0,0,.113-.02c.109.034.2-.018.292-.02v.006c.031-.007.057-.013.083-.021-.011.012,0,0,.009,0a.049.049,0,0,1,.027-.009.119.119,0,0,1,.079-.009.149.149,0,0,0,.029-.012c-.024.028.017.025.034.041a.154.154,0,0,0,.007-.029c.015,0,0,.023.018.015s.036-.063.022-.091a.065.065,0,0,0-.022.008s0,0,0,0h0a.04.04,0,0,0,0-.01c.02-.028.006-.021,0-.024.046-.021.038-.051.076-.074-.018.007-.01-.02,0-.047s.015-.056-.008-.046c.042-.028.008-.024.042-.041a.321.321,0,0,0,0,.15l.032-.034c.031.037-.041.086-.038.111a.062.062,0,0,1,.026-.048H7450a.364.364,0,0,0-.036.135c.017-.013.012,0,.009.018s0,.025.013.022.011-.019.016-.028.007,0,.009,0a.683.683,0,0,0,.079-.2c0-.016.007-.031.011-.047l-.01.024-.015-.021.025,0c.007-.029.014-.057.02-.086-.024-.013-.02-.087-.044-.07.015-.026.029-.013.028-.071-.011-.038-.035.04-.048.052,0-.043-.011-.045-.018-.047.038-.03.1-.05.105-.01,0-.021.006-.042.008-.064-.006.014-.01,0-.008-.025h.01a.017.017,0,0,1,0,.007c.05-.469,0-.957.048-1.526l0,0a.034.034,0,0,0,0-.008c0-.009,0-.017,0-.026a.679.679,0,0,1-.056.092c.018-.017.033-.031.021-.009a.261.261,0,0,0,.016-.032,1.109,1.109,0,0,1-.065.116.749.749,0,0,1-.081.079s0,.018.01.006c-.019.02-.036.039-.006.016a3.375,3.375,0,0,1-.325.245,1.577,1.577,0,0,1-.354.189c-.016.01,0,.012.006.014-.053,0-.038.031-.061.045s-.051,0-.078,0c-.023.021,0,.022,0,.029-.121.063-.256.074-.351.132-.037,0,0-.032-.047-.022.068.018-.106.056-.079.072a.159.159,0,0,0-.079,0c-.041.007-.076.014-.075-.023-.053.012-.036.038-.02.039a.435.435,0,0,0-.156.06.829.829,0,0,0-.128.029.436.436,0,0,1-.213.021c.04.021,0,.016-.035.036l.038.021-.083.013c-.017.006-.021.006-.021,0s0-.017-.036-.017a.14.14,0,0,0-.085.043l.009,0-.038.009c-.014,0,.011-.01.026-.021s.02-.021-.025-.021c0,.008-.048.052-.075.037.047-.006.038-.024.02-.029l-.066.008.027.031c-.189.025-.389.021-.59.034,0-.011-.03-.011-.06-.01s-.076,0-.067-.019l.008,0c.049-.006-.016-.025-.056-.019.043.008-.074.035.029.036l-.079.018c-.025.035-.1.025-.181.016a.683.683,0,0,0-.151-.007c.008,0,.011,0,.012-.005a.817.817,0,0,1-.173-.009.614.614,0,0,0-.091-.01l-.009-.011a.593.593,0,0,1-.21-.007s.014,0,0-.006l-.033.006h-.026s-.01,0-.007,0l0,0a.3.3,0,0,1,.006.03l0,.015.007.027c-.025,0,.06.19.042.229.012.021.034.1.047.138,0,0,0,0,0,.009a.871.871,0,0,1,.041.173c.011.03.012.016.013,0a1.477,1.477,0,0,0,.059.19c.007.029,0,.029,0,.029a.005.005,0,0,0-.007,0c.01.03.016.029.02.028s.01,0,.017.047c0-.01-.011-.029-.01-.021.007.035-.014.1,0,.137v-.024c.026.06.009.156.036.159l.01-.009c.013.112.017.044.031.157h0c.014.045.005.082.031.09v-.012Zm1.258-.01.051-.005a.1.1,0,0,1-.006-.044Zm.193-.08a.03.03,0,0,1,0-.009C7447.848,2974.353,7447.854,2974.355,7447.856,2974.36Zm.453-.047.02-.006.08-.022c.023-.041.043-.079.055-.1l-.056.039-.021-.013A.254.254,0,0,0,7448.309,2974.313Zm.431-.117.066-.014v-.047l.011.045.069-.015a.026.026,0,0,0-.011-.013.6.6,0,0,0-.141-.035A.171.171,0,0,0,7448.74,2974.2Zm-7.592-.057c.008.026.006.012,0-.022C7441.147,2974.124,7441.147,2974.132,7441.148,2974.139Zm7.934-.01.062-.009c-.006-.005-.017-.016-.016-.026A.155.155,0,0,0,7449.082,2974.128Zm.48-.13a.25.25,0,0,0-.128.083c.074-.008.148-.016.222-.021l.052-.005a.053.053,0,0,1-.019-.005.1.1,0,0,0,.076-.018c-.017,0-.033,0-.049-.007a.133.133,0,0,1,.042,0,.129.129,0,0,0,.085-.009c-.014-.017.011-.054-.032-.071-.1-.014-.068.069-.2.072-.006,0,0,0,0-.012s0-.012-.019-.012Zm.24-.083h-.016Zm.325-.385v-.005h0Zm0-.023c0-.023.007-.046.011-.07A.106.106,0,0,0,7450.131,2973.507Zm-2.153-.561.015,0c0-.005.008-.01,0-.01Zm-1.752-.767a.134.134,0,0,0-.032.047.183.183,0,0,1,.037-.01l.073-.012a.854.854,0,0,0,.068-.094l-.062.032-.019-.015A.2.2,0,0,0,7446.226,2972.18Zm-.24,0a.156.156,0,0,1,.026-.01c-.006-.021,0-.042.009-.031h0l0,.026.033-.01a.032.032,0,0,1-.012-.012.065.065,0,0,0,.014.011h0l0,0c.008,0,.016,0,.032-.013a1.085,1.085,0,0,0,.117-.033c.065-.023.132-.072.206-.046-.016,0-.037,0-.04.009.08-.018.168,0,.215-.027l-.009-.024a.757.757,0,0,1,.148-.051l0-.029c.072,0,.208-.085.265-.037.011-.026.1-.016.135-.033l.016.019a.308.308,0,0,0,.112-.035c.116.018.2-.05.293-.069l0,.006.089-.038c-.019.024.015-.017.044-.019a.2.2,0,0,1,.115-.019l.06-.013c-.062.03.012.027.022.049l.033-.027c.018.007-.02.024.009.021.022-.018.1-.036.116-.064a.058.058,0,0,0-.028-.009s0,0,0,0h0a.04.04,0,0,0,.008-.011c.049-.006.029-.011.025-.021a.168.168,0,0,0,.069.008.108.108,0,0,1,.062.01c-.042-.027.13-.025.087-.057.024.012.031.011.037.01s.008,0,.024.008a.332.332,0,0,0-.15.071l.05.009c-.012.027-.047.025-.078.023a.083.083,0,0,0-.05.006.071.071,0,0,1,.061-.007l-.019-.025a.3.3,0,0,0-.153.065c.045,0-.046.031-.01.045l.032-.013a.006.006,0,0,1,0,.009c.12-.031.241-.062.362-.09,0-.027.077-.055.05-.07.032,0,.024.021.082,0,.035-.023-.053-.018-.071-.025.043-.02.042-.027.042-.035.045.024.084.071.048.1l.011,0,.054-.014c-.015,0,0-.01.022-.017l0,.009-.007,0c.485-.136.974-.511,1.54-.076l0-.02,0-.009a.259.259,0,0,0,0,.029l.009.007c0-.006,0-.011,0-.016l0,0h0s0,0,.006,0c0-.03,0-.058.007-.087-.006.021-.01.035-.012.011v.037c0-.012,0-.115,0-.137l.009-.116s0,0,0,0-.005-.006-.006.005c0-.029,0-.053-.007-.016a2.34,2.34,0,0,0-.016-.417c-.017-.138-.044-.275-.049-.412,0-.018-.011-.007-.016,0,.014-.052-.019-.046-.026-.073l.021-.077c-.01-.019-.016-.014-.021-.009s0,0-.007,0a1.491,1.491,0,0,1-.023-.2.569.569,0,0,0-.03-.177c.005-.034.032,0,.026-.042-.013.034-.022,0-.038-.026s-.027-.052-.034-.041a.105.105,0,0,0-.021-.078c-.016-.023-.027-.044,0-.06-.039-.036-.048-.006-.042.007a.159.159,0,0,0-.136-.044.3.3,0,0,0-.148-.012.5.5,0,0,1-.18,0c.035.021-.007.015-.042.034l.038.021-.086.012c-.017.006-.022.005-.022,0-.015,0,0-.016-.037-.017a.144.144,0,0,0-.089.043l.01,0-.04.009c-.015,0,.011-.01.027-.021s.021-.022-.025-.021c0,.008-.05.052-.08.037.049-.006.04-.024.021-.029l-.068.009.028.03c-.194.03-.405.03-.606.075,0-.011-.033-.006-.065,0s-.075.014-.069,0h.009c.049-.016-.022-.022-.062-.005.019,0,.01.008,0,.017s-.024.025.036.011l-.075.036c-.026.065-.212.055-.324.114.007,0,.009-.008.009-.009-.1.049-.239.076-.26.093l-.014-.006a.78.78,0,0,1-.2.094s.012-.01-.005,0a.431.431,0,0,1-.118.063l0,0-.111.05c0-.012-.056.015-.109.043a.3.3,0,0,1-.121.046,1.5,1.5,0,0,1-.136.073h-.01a.82.82,0,0,1-.175.069c-.03.016-.015.015,0,.014a1.937,1.937,0,0,0-.194.085c-.047.017-.021,0-.036-.006-.068.027.021.022-.077.044.01-.005.03-.013.022-.012a.282.282,0,0,1-.065,0,.206.206,0,0,0-.081.008h.025c-.065.029-.165.007-.171.034l.008.01c-.118.007-.048.015-.167.022v0c-.05.013-.081,0-.1.03h.018c-.061.018-.067.016-.126.036a.111.111,0,0,1-.041.018c0,.01-.028.027-.049.047a.09.09,0,0,0-.036.053c.007-.038-.006-.024-.02-.018a.091.091,0,0,1-.009.088c.031.01.057.021.064.089-.006-.01-.01-.028-.016-.021s0,.024.006.029-.006,0-.01,0-.008-.008-.013,0a.146.146,0,0,1,.022.069.225.225,0,0,0,.02.086c-.016-.02-.017,0-.026.012.016,0,.018.018.019.038s0,.053.02.029c.022.152.159.37.144.445-.009.021.031.056.04.084l-.02,0c.058.069.031.056.087.147-.03-.038-.038-.017-.05.025a.525.525,0,0,1,.049.063l-.031.015a.124.124,0,0,1,.01.033l0,.034a.124.124,0,0,1,.043.022c.015.01.032.016.042.01C7445.934,2972.172,7445.986,2972.135,7445.986,2972.176Zm.67-.038.071-.015v-.044l.01.042.073-.015a.031.031,0,0,0-.011-.011.741.741,0,0,0-.146-.033A.16.16,0,0,0,7446.656,2972.138Zm-6.844-1.165a1.578,1.578,0,0,1-.012.252.741.741,0,0,1-.165.307,2.6,2.6,0,0,0-.3.438c-.023.079-.01.124.021.136a2.415,2.415,0,0,1,.277-.48l.034-.046c0-.029.006-.058.007-.087l.043.013a.725.725,0,0,0,.1-.6A.238.238,0,0,0,7439.812,2970.973Zm6.045,1.119c0-.009,0,0-.009,0h.009Zm1.161-.036.06-.014c-.007-.005-.017-.013-.016-.022A.16.16,0,0,0,7447.018,2972.056Zm.48-.194a.276.276,0,0,0-.118.1l.281-.075a.067.067,0,0,1-.022,0,.132.132,0,0,0,.078-.03h-.053a.158.158,0,0,1,.049,0,.177.177,0,0,0,.086-.014c-.015-.017.021-.056-.032-.072-.123,0-.08.076-.219.1,0,0,0,0,0-.01s0-.011-.014-.011A.088.088,0,0,0,7447.5,2971.862Zm-1.717.085a.1.1,0,0,1,.044-.007c-.017-.015-.035-.028-.052-.042C7445.776,2971.915,7445.778,2971.931,7445.781,2971.948Zm1.979-.211v0C7447.737,2971.736,7447.725,2971.735,7447.76,2971.737Zm.4-.02Zm.26-.021.008,0s0,0,0,0Zm.025-.006.075-.018h-.013A.108.108,0,0,0,7448.446,2971.69Zm-.26-.035Zm-2.686-.742s.01,0,.014-.013a.111.111,0,0,1,0-.016c.006.015.014.024.019.015,0-.026,0-.055.006-.081a.246.246,0,0,0-.023.027c0,.006,0,.012,0,.018l0,.021,0-.011C7445.5,2970.886,7445.5,2970.9,7445.5,2970.913Zm-7.59-.172a1.532,1.532,0,0,0,.431-.087,1.411,1.411,0,0,1-.514.054C7437.871,2970.721,7437.93,2970.734,7437.91,2970.741Zm11.377-1.083.014,0s.009-.01,0-.01A.067.067,0,0,0,7449.287,2969.658Zm-10.042-.109c-.071.03-.131.057-.182.081a1.361,1.361,0,0,1,.71-.114c.167.033.125-.13.124-.234-.01-.47.011-.942.017-1.412,0,.08-.008.142-.011.184a5.845,5.845,0,0,0-.007-.7c0,.145-.006.289-.011.434a7.326,7.326,0,0,0-.032-1.148c0,.033-.017,0-.03-.029-.022-.052-.046-.1-.037.141.027.491.032.694.051.923a9.852,9.852,0,0,1,.013,1.085c0,.036,0,.022-.005.009s-.026-.056-.02.38c0,.049,0,.1.006.146a.654.654,0,0,1,.007.1.082.082,0,0,1-.016.048.061.061,0,0,1-.044.019c-.032,0-.063,0-.1-.006h-.014A1.146,1.146,0,0,0,7439.246,2969.549Zm1.99-.243c.083-.012.165-.027.247-.04-.091.01-.184.024-.273.036a.473.473,0,0,1-.139,0,.168.168,0,0,1-.1-.066.316.316,0,0,1-.042-.1C7440.958,2969.3,7441.059,2969.332,7441.236,2969.306Zm-.323-.331h0c0-.017,0-.034,0-.051C7440.913,2968.942,7440.913,2968.959,7440.913,2968.976Zm-1.153-2.108c0-.028,0-.069-.006-.127l0-.013C7439.755,2966.786,7439.758,2966.835,7439.76,2966.868Zm-35.88,13.58.013.007Zm48.279-.21-.079-.013c.017.006.033.011.014.01l.025,0a.286.286,0,0,1-.046-.006.314.314,0,0,0-.048-.006l-.079-.017s-.012,0,0,0c-.02,0-.037-.005-.012,0-.095-.019-.19-.036-.287-.05a2.35,2.35,0,0,1-.285-.051c-.013,0-.007.005,0,.009a.032.032,0,0,0-.038,0,.032.032,0,0,1-.016,0,.451.451,0,0,1-.045-.031c-.022,0-.008.013-.011.017-.1-.01-.184-.058-.266-.059-.021-.017.014-.024-.017-.036.018.024-.012.02-.04.015s-.043-.007-.041,0c-.022-.041-.11-.038-.079-.086-.036-.015-.039.014-.03.022a.23.23,0,0,0-.121-.023c-.02-.02-.205-.06-.224-.121.009.029,0,.024-.015.019a.079.079,0,0,0-.023,0l.011.035-.055-.028c-.013,0-.015-.005-.014-.008s.009-.013-.012-.031c-.037-.02-.046-.006-.072,0l0,.007-.027-.011c-.018-.01.078.01.023-.035,0,.007-.056.02-.063-.006.031.018.035,0,.027-.015l-.042-.024v.038c-.124-.068-.234-.167-.357-.251.015-.018-.083-.065-.053-.084l0,.006c.031.019.006-.028-.02-.041.019.026-.063-.007-.006.042l-.055-.023c-.031.015-.059-.013-.09-.049a.623.623,0,0,0-.1-.1c.006,0,.009,0,.01,0a.545.545,0,0,1-.125-.158l0-.012a.247.247,0,0,1-.078-.138s.007.009,0,0a.171.171,0,0,1-.038-.088h0c-.006-.029-.013-.057-.017-.085.021,0-.029-.147,0-.174a.535.535,0,0,1-.009-.108s0,0,0-.006a.371.371,0,0,1,.017-.132c0-.025,0-.016-.011-.006a.911.911,0,0,0,.026-.09.172.172,0,0,1,.03-.066c.017-.021.02-.016.022-.012a.007.007,0,0,0,.008,0c.039-.044-.029-.016.042-.059-.007.006-.02.019-.014.016.027-.021.09-.009.113-.021h-.019a.121.121,0,0,1,.082-.006c.023,0,.042.008.046,0l0-.012a.148.148,0,0,0,.058.01.149.149,0,0,1,.059.01v0c.037,0,.053.021.075,0l-.012,0a.589.589,0,0,1,.1.016c.006,0,.029,0,.034.006.008-.022.111.018.13.029-.038-.009-.023.006-.017.018a.051.051,0,0,1,.066.019c.017-.025.038-.052.1-.025-.012,0-.027-.005-.024,0s.02.01.025.01-.018,0-.018.016c.054,0,.066.036.123.065-.022,0-.013.011-.015.024.014-.012.024,0,.032.019s.017.037.026.009c.035.05.083.112.121.16s.068.082.07.109.035.022.049.033l-.015.012c.063.006.039.017.108.024-.035.005-.033.019-.024.049l.058-.01-.011.03a.068.068,0,0,1,.048.027.083.083,0,0,1,.061,0c.018,0,.035.008.043,0,0,.047.049.011.042.054a.087.087,0,0,1,.027,0c0-.021.007-.042.018-.027h0l0,.026a.161.161,0,0,1,.045.009.064.064,0,0,1-.01-.019l.014.02,0,0h0a.031.031,0,0,0,.034.013c.019.029.053.028.087.028s.078,0,.1.039c-.007-.009-.021-.015-.027-.007.055.014.1.069.137.059l0-.025a.364.364,0,0,1,.109.014l.01-.027c.044.024.161.011.173.078.019-.018.064.029.095.031v.024a.176.176,0,0,0,.082.022c.064.074.119.047.178.064v.006l.063,0c-.011.008-.006,0,0,0a.039.039,0,0,1,.029,0,.105.105,0,0,1,.079.025l.044.012c-.052,0,0,.03,0,.053l.033-.011c.008.014-.022.013,0,.023a.12.12,0,0,1,.045,0,.123.123,0,0,0,.06,0,.046.046,0,0,0-.014-.022s0,0,0,0l0,0,0,0a.039.039,0,0,0,.011-.005c.036.021.026.007.028,0,.03.051.064.047.074.1,0-.032.014-.017.034,0s.038.028.039,0c.005.044.014.013.015.047-.029-.033-.073-.03-.112-.037a.306.306,0,0,1,.017.035c-.019.011-.035-.006-.05-.023s-.022-.028-.034-.027a.043.043,0,0,1,.038.027l.005-.029a.141.141,0,0,0-.125-.024c.027.019-.042.007-.025.035l.024,0a.008.008,0,0,1,0,.009.516.516,0,0,1,.1.045l0,0,.007,0,.019.01.1.064c.008-.008.023-.007.037-.006s.03,0,.029-.01c.012.02,0,.026.037.047s-.011-.042-.015-.058c.032.014.036.01.041,0,0,.043-.012.092-.042.085l.037.03c-.005-.01.006-.006.019.005l0,.007,0,0a.371.371,0,0,1,.12.388.361.361,0,0,1-.4.31A1.383,1.383,0,0,1,7452.159,2980.238Zm-1.813-.4c.008,0,.016-.006-.006-.01Zm2.19-.329a.056.056,0,0,0-.041-.03Zm-.052-.038h0Zm-.4-.187c0-.022.032-.044,0-.078a.062.062,0,0,0-.083,0,.091.091,0,0,1-.085.012c-.009,0,.026-.029-.023-.03a.223.223,0,0,0-.109.039l.007,0a1.008,1.008,0,0,0,.185.047.037.037,0,0,1-.012-.01.064.064,0,0,0,.058,0l-.033-.02C7452.02,2979.252,7452.038,2979.284,7452.081,2979.281Zm.012-.11h0l-.015-.008Zm-.551-.029.04.013a.039.039,0,0,1,0-.026A.094.094,0,0,0,7451.542,2979.142Zm-.19-.059.049.015a.029.029,0,0,0,0-.014.475.475,0,0,0-.071-.088.22.22,0,0,0-.032.071l.048.015.019-.04Zm-.362-.124.071.027a.638.638,0,0,0,.082-.058l-.05,0,0-.021A.232.232,0,0,0,7450.989,2978.96Zm-.268-.195.008-.006h0S7450.723,2978.762,7450.721,2978.765Zm.008-.006Zm-.158-.033.029.023a.134.134,0,0,1,.026-.036C7450.609,2978.719,7450.59,2978.723,7450.572,2978.727Zm-.54-.494.026.013s0-.01,0-.017h-.012c.013-.005.022-.01.017-.017l-.059-.011.015.023.011.005h.016Zm.854,1.8,0,0Zm-26.913-.6a.18.18,0,0,1-.105-.067c-.014-.021-.009-.031.009-.026a.709.709,0,0,0,.094.018c-.089-.011-.165-.081-.224-.238.013.051-.026-.034-.059-.157l.006-.012a.121.121,0,0,1,0,.014c-.268-.977-.293-2-.564-2.97a28.089,28.089,0,0,1-.553-5.351c-.022-.272-.221-.518-.108-.727a1.159,1.159,0,0,1,.165-.634.455.455,0,0,0-.032.05c-.062.11-.09.2-.047.072a1.064,1.064,0,0,0-.061.2.973.973,0,0,1,.134-.341,1.16,1.16,0,0,1,.28-.3,1.8,1.8,0,0,1,.607-.251c-.008,0,0,0,.011-.008s.031-.013-.022,0c.11-.028.208-.049.179-.045a22.529,22.529,0,0,1,2.241-.266c.392-.034.783-.068,1.168-.113s.769-.1,1.15-.147c.1-.015.042-.016,0-.016a2.1,2.1,0,0,0,.421-.069c.139-.005.277-.009.416-.01.167-.024.035-.023.047-.031a7.022,7.022,0,0,1,1.155-.014c.094.006.183.015.275.026a.686.686,0,0,1,.275.1,1.044,1.044,0,0,1,.358.4c.04.1.026.091.019.09s-.008,0,.035.134c-.049-.182.042,0,.084.218s.042.425.053.346c-.03.271.012.942-.049.828,0,.319.03.263.034.172,0,.37.008.668.036.969,0,.1.01.522.037.958s.071.885.067,1.052c0-.227.018.016.057.228l0-.2.057.483a.559.559,0,0,1,.015.125c.01.082-.019-.017,0,.19a2.994,2.994,0,0,0,.111.515l0-.05.043.218c.012.067-.009-.019-.031-.1-.032-.121-.067-.242-.018.068a2.507,2.507,0,0,1,.122.45c-.061-.266-.07-.229-.057-.129l.087.376,0-.133c.129.543.221,1.1.306,1.673q.062.426.125.86c.011.071.021.148.034.211s.034.09.091.1a.583.583,0,0,0,.1.011.548.548,0,0,1,.124.02.423.423,0,0,1,.212.143c-.008,0,.028.047.058.126a.7.7,0,0,1,.038.293.453.453,0,0,1-.1.264c-.047.055-.083.069-.065.046a.308.308,0,0,0,.037-.032.311.311,0,0,0,.047-.07c.007-.017.011-.024.01-.026s-.016.022-.044.057a.394.394,0,0,1-.132.107.656.656,0,0,1-.182.059c.123-.022.017.014-.051.028-.033.006-.057.012-.032.013a.469.469,0,0,0,.077,0,.612.612,0,0,0,.173-.047,1,1,0,0,1-.477.07,3.139,3.139,0,0,1-.807-.065c-.362-.059-.776-.141-1.125-.174a.368.368,0,0,0,.069,0,8.317,8.317,0,0,0-.946-.057c-.143,0-.273.01-.377.015s-.18.006-.216.01l-.056-.009c-.535.033-.6.026-1.236.044.008,0,.082-.008-.02-.005-.152.017-.307.023-.739.071l.018,0a5.677,5.677,0,0,0-.669.12.61.61,0,0,0-.179.038,1.146,1.146,0,0,1-.426.068.513.513,0,0,1-.238-.077.478.478,0,0,1-.159-.174.464.464,0,0,1-.059-.306.443.443,0,0,1,.04-.161.556.556,0,0,1,.15-.193.641.641,0,0,1,.229-.126c.082-.023.149-.036.2-.051a.324.324,0,0,0,.051-.009,7.4,7.4,0,0,1,1.025-.231c.189-.024.107-.02.023-.015a2.7,2.7,0,0,1,.685.009,1.086,1.086,0,0,0,.473,0c.168-.041.161-.034.154-.028s-.007.007.019,0c.194-.059.176-.062.175-.067s0-.006.04-.018a1.859,1.859,0,0,1,.248-.059.717.717,0,0,0-.135.035,1.237,1.237,0,0,1,.405-.032c.076.007.148.025.213.038a1.426,1.426,0,0,0,.179.023c-.045-.006-.09-.013-.135-.021.188.021.412.035.6.047a2.511,2.511,0,0,0,.362.012l-.035-.014c.165.014.264.029.332.039l.137.023c.036.006.071.013.139.03.034.008.073.021.125.03a.564.564,0,0,0,.192.012l-.007,0a.192.192,0,0,0,.141-.086.385.385,0,0,0,.043-.137.612.612,0,0,0-.016-.232c0,.033,0,.065,0,.1-.035-.352-.045-.387-.1-.749-.009-.042-.041-.217-.044-.268-.021-.013-.16-.836-.19-1,.058.285.042.148.036.065a2.751,2.751,0,0,1-.106-.516c-.036-.028-.078-.068-.169-.528.019.071.043.182.041.135a1.429,1.429,0,0,0-.04-.189c0-.023.006,0,.014.024s.017.049.018.022c-.089-.306-.1-.537-.189-.99.033.143.02.018.023-.036-.049-.029-.052-.629-.08-.449-.039-.451-.066-1.023-.079-1.524s-.025-.932-.017-1.107a4.055,4.055,0,0,0-.042-.5l.021.019-.062-.392c-.007-.047-.014-.1-.027-.164a2.115,2.115,0,0,0-.062-.268c.034.085.043.12.049.1a.439.439,0,0,0-.027-.184.127.127,0,0,0-.107-.057.652.652,0,0,0-.154.017l-.07-.025a4.2,4.2,0,0,1-.461.047c-.139.048-.683.1-.771.126a1.016,1.016,0,0,0-.283.011.825.825,0,0,1-.256.011c-.051.011-.117.023-.189.034.077.012.107.031-.036.035l-.033,0-.064-.02c-.144.02-.291.037-.388.047.044,0,.1,0,.149,0l-.177,0-.052,0,.031,0a2.015,2.015,0,0,0-.305.03,3.96,3.96,0,0,0-.4.029c-.135.016-.286.036-.432.046a6.01,6.01,0,0,1-.864,0,1.249,1.249,0,0,0,.231-.005,6.416,6.416,0,0,0-.663.026,1.886,1.886,0,0,0-.282.051.965.965,0,0,0-.12.037l-.055.02c-.022.008-.051.016-.076.023l.035.018a.639.639,0,0,1-.309-.013c-.081-.02-.15-.04-.206-.049a.171.171,0,0,0-.109.007.156.156,0,0,0-.062.081l.022.022a.414.414,0,0,0-.02.263c.019.122.067.268.088.442a.834.834,0,0,1,.005.137c0,.038,0,.075-.006.112,0,.067-.011.13-.013.189a2.228,2.228,0,0,1-.028.275c.02.094.019.543.055.768l-.015.06c.027.294.062.475.091.651.018.3.056.594.085.877q.023.212.037.421c0,.135.01.268.015.4l-.006.005a3.75,3.75,0,0,0,.081.511c-.044-.129.029.1.066.249.025.079.058.181.093.286s.078.223.1.325.065.228.09.342c-.106-.377-.02.034-.041.06.022.071.042.142.061.214,0,.04-.006.017-.015-.007s-.018-.058,0,.031c.04.143.1.574.137.7a1.124,1.124,0,0,0,0-.139c0-.018,0-.017,0-.006v0c0,.018.013.046.017.058.031.269.027.169.036.158.009.294.048.471.032.693.011-.106.023.08.036.266s.026.367.04.27a.94.94,0,0,0,0,.182.441.441,0,0,1,0,.13,2.455,2.455,0,0,0-.018-.248c-.009-.079-.018-.156-.026-.233-.019-.152-.04-.3-.059-.427v.258c-.045-.152-.034-.521-.064-.692a1.673,1.673,0,0,1,.026.3l.022-.068a4.653,4.653,0,0,0-.068-.495c-.027-.148-.055-.284-.081-.411.013.127,0,.042-.024-.042s-.037-.156-.035-.07l.032.191c0,.027,0,.029-.007.016.026.182.05.365.077.546.05.332.069.669.094,1l-.007-.158.026.1-.02.064c.008.1.015.2.025.293a.776.776,0,0,1-.01.225.421.421,0,0,1-.044.209c-.049.113-.131.2-.07.152a.632.632,0,0,1-.133.1c-.021.013-.045.031-.086.055a.586.586,0,0,1-.187.082c-.062.012-.077.009-.057.016a.3.3,0,0,0,.131-.014,1.027,1.027,0,0,0,.279-.155,1.388,1.388,0,0,1-.2.152c-.033.021-.034.024-.037.03a.431.431,0,0,1-.119.018A.283.283,0,0,1,7423.974,2979.43Zm.312-.2a.621.621,0,0,1-.252.125.394.394,0,0,0,.149-.05.828.828,0,0,0,.148-.1.551.551,0,0,0,.065-.071A.744.744,0,0,1,7424.286,2979.229Zm.165-.168s0,.006,0,.006.01-.017.015-.026C7424.46,2979.049,7424.455,2979.055,7424.451,2979.062Zm-.744-.073Zm7.082-3.717.1.456-.018-.18c-.006-.034-.013-.068-.02-.1s-.019-.077-.027-.111l.017.052c-.014-.076-.029-.151-.042-.227-.005,0,0,.026,0,.092l.021.083a.349.349,0,0,0-.034-.087S7430.787,2975.255,7430.789,2975.272Zm-6.642.254c.027.028.057.056.017-.1-.093-.308-.129-.434-.178-.576a2.111,2.111,0,0,1-.111-.7c0-.024,0-.015,0-.006s.027.037.013-.252a3.924,3.924,0,0,0-.138-.784,8.7,8.7,0,0,1,.073,1,3.885,3.885,0,0,0,.054.6c0-.041-.008-.076-.008-.1a2.017,2.017,0,0,0,.1.451c-.02-.093-.036-.187-.049-.281a3.173,3.173,0,0,0,.191.731c0-.008,0-.011,0-.011S7424.137,2975.515,7424.147,2975.526Zm.05-.106,0,.008c-.021-.067-.037-.117-.037-.117Zm7.439-1.466,0-.076a.217.217,0,0,0-.014-.043A.978.978,0,0,0,7431.637,2973.954Zm-8.084-2.578c0-.03.013-.069.022-.057-.009-.091-.021-.2-.034-.292C7423.542,2971.144,7423.546,2971.26,7423.553,2971.376Zm-.057-1.717a.54.54,0,0,0-.033.192.1.1,0,0,0,.015-.043.573.573,0,0,1,.055-.154.283.283,0,0,1,.146-.147.324.324,0,0,1,.187.014c.056.018.1.034.107.038.055,0,.085-.021.093-.053a.709.709,0,0,0-.394-.052.217.217,0,0,0-.022.06.4.4,0,0,0-.032-.032A.366.366,0,0,0,7423.5,2969.66Zm2.946-.32c-.128.013-.257.019-.387.021-.195.035-.372.062-.469.083l.376-.021.094.017a2.909,2.909,0,0,0,.623-.124Zm3.787.043.017.056c-.006-.039-.01-.078-.016-.117a.723.723,0,0,0-.042-.167c-.01.021-.022.037-.041.02A.825.825,0,0,1,7430.229,2969.383Zm-.891-.254c.07-.007.03-.006.025-.011A.123.123,0,0,1,7429.337,2969.129Zm-20.563,9.459a.4.4,0,0,1-.2-.121.593.593,0,0,1-.1-.16s0-.014-.014-.045a5.221,5.221,0,0,1-.174-.895c-.025-.163-.021-.092-.016-.02-.016-.162-.045-.385-.06-.584s-.024-.372-.022-.432c0-.154.007-.147.012-.14s.005.008.008-.015c.005-.165,0-.164-.008-.164s-.009,0,.014-.254a.877.877,0,0,0,0,.118c.011-.183.089-.5.117-.679l-.026.117c.019-.164.074-.356.1-.51a.871.871,0,0,0,.016-.309l-.012.031a2.786,2.786,0,0,0-.016-.4c-.006-.061-.017-.122-.035-.41l0,.007c-.023-.252,0-.39-.016-.514l-.007.086c.011-.311.014-.338.013-.654,0-.037-.01-.19-.007-.234-.019-.014-.043-.735-.046-.877.014.252.019.132.025.06a1.774,1.774,0,0,1-.019-.457.146.146,0,0,1-.043-.1,1.822,1.822,0,0,1-.015-.384c0,.064,0,.164.01.123a1.445,1.445,0,0,0,0-.169c0-.02.005,0,.008.024s.005.045.012.022a1.965,1.965,0,0,1,.018-.395c.017-.137.045-.279.06-.475,0,.125.014.019.031-.024-.033-.033.078-.534.016-.389.041-.383.048-.875.057-1.309,0-.217.01-.419.02-.586a1.85,1.85,0,0,1,.045-.382.652.652,0,0,1,.1-.2.372.372,0,0,1,.242-.134.163.163,0,0,0-.018.022.456.456,0,0,1,.241.006.423.423,0,0,1,.139.072,1,1,0,0,0,.325.166c-.081-.024-.108-.026-.095-.012a.508.508,0,0,0,.146.085.972.972,0,0,0,.288,0l.056.031c.118-.015.25-.031.383-.06.05-.029.168-.07.29-.119.143-.056.294-.113.331-.135.143,0,.346-.122.454-.113.041-.019.095-.041.154-.064-.069,0-.1-.012.022-.04l.027-.01.059.009c.118-.043.239-.084.319-.11-.037.01-.08.018-.125.026l.148-.033.043-.013-.025.01a1.545,1.545,0,0,0,.253-.079c.431-.093.909-.35,1.379-.463a.856.856,0,0,0-.19.07,2.488,2.488,0,0,1,.3-.1.528.528,0,0,1,.354.04.483.483,0,0,1,.217.244.942.942,0,0,1,.066.246l.023-.024a.511.511,0,0,1-.039.281.535.535,0,0,1-.168.2,1.13,1.13,0,0,1-.372.17l0,.032a9.685,9.685,0,0,1-1.266.338c-.075.045-.46.127-.644.2l-.054-.005a4.062,4.062,0,0,0-.528.2,3.229,3.229,0,0,0-.357.128l-.168.076a.934.934,0,0,1-.2.069,3.073,3.073,0,0,1-.731.01l0-.006a.406.406,0,0,0-.166.028c-.025.016-.031.031-.043.092,0-.043,0-.029,0,.013s0,.123-.005.2a4.694,4.694,0,0,1-.035.56l-.014.3c0-.328-.03.022-.054.04l.011.189c-.006.034-.01.013-.013-.008s-.005-.052-.011.025c.007.126-.006.5.013.617a.763.763,0,0,0,.02-.119c0-.016,0-.015,0,0v0c0,.016,0,.041.007.052-.013.235,0,.149.01.141-.042.25-.027.4-.063.583.019-.074.014.082.01.238s-.007.317.015.235c-.038.2,0,.136-.035.262.014-.279-.011-.558-.021-.783l-.026.221a4.835,4.835,0,0,1,.017-.628,1.539,1.539,0,0,1-.015.292l.03-.056a7.133,7.133,0,0,0,0-.792c-.009.11-.012.035-.016-.04s-.009-.137-.022-.064l0,.167c0,.021-.007.023-.009.014q-.021.667-.032,1.334l.006-.124.018.086-.024.053c0,.151,0,.3-.005.452.025.047.033.422.054.314a1.764,1.764,0,0,0-.017.387c.017.189.029-.229.04-.308.009.224.017.224.025.23-.032.181-.084.319-.1.142,0,.1,0,.2,0,.3,0-.068.01.017.013.134l-.009.009a.188.188,0,0,1,0-.023c0,.182.005.363.011.545,0,.152-.158.4.222.431s.223-.177.213-.34.115-.218.239-.256a18.914,18.914,0,0,1,2.683-.91c.771-.115.974.061.823.786a11.248,11.248,0,0,1-.514,1.4l.014,0c0-.007.008-.022.021-.056l0-.009c0-.012.012-.025-.022.065l.1.02.045.014-.149-.033,0,.009.521.123c-.117-.032-.221-.06-.095-.035l-.175-.038c.059.008.547.122.649.136l.548.132c-.006,0,0,0,.012,0s.029,0-.025-.012c.136.031.255.056.078.011.654.16,1.317.329,1.967.537a10.427,10.427,0,0,1,1.864.793c.081.04.039.009.01-.012a1.816,1.816,0,0,0,.335.163.678.678,0,0,1,.255.3c.038.074.038.086.042.073s0-.042,0-.037a.491.491,0,0,1,0,.3.461.461,0,0,1-.163.249.5.5,0,0,1-.273.091,1.1,1.1,0,0,1-.258-.02,6.6,6.6,0,0,1-.878-.229c-.161-.075.049-.013-.166-.1.14.075-.021.021-.19-.05s-.321-.141-.279-.109c-.1-.066-.271-.156-.41-.233s-.252-.14-.2-.147c-.247-.119-.218-.067-.147-.033a3.411,3.411,0,0,0-.789-.25c-.082-.031-.435-.111-.807-.185-.351-.08-.719-.123-.874-.167.152.048-.044.009-.226-.007l.164.054c-.14-.021-.281-.045-.422-.078a.4.4,0,0,1-.109-.028c-.071-.021.02-.008-.156-.069l-.093-.032-.066-.019a.457.457,0,0,0-.1-.016.611.611,0,0,0-.154.015l.036,0a.462.462,0,0,0-.151.035c-.051.026.035-.031.106-.045.035-.008.063-.013.057-.017a.277.277,0,0,0-.147.013,1.069,1.069,0,0,0-.111.08c-.057.046-.112.113-.155.152.067-.085.1-.113.106-.124s-.022,0-.053.025a1.082,1.082,0,0,0-.183.254,1.08,1.08,0,0,1,.082-.073,1.4,1.4,0,0,0-.082.147l-.077.163a2.092,2.092,0,0,1-.2.326,2.059,2.059,0,0,1-.566.517,3.006,3.006,0,0,1-.337.183.816.816,0,0,1-.4.1.406.406,0,0,1-.212-.069.423.423,0,0,1-.142-.17.81.81,0,0,1-.092-.4c.006.005.009-.046.039-.116a.456.456,0,0,1,.176-.2c.081-.05.155-.076.2-.1s.072-.039.059-.019l-.034.018c-.05.035-.074.046-.074.05a.126.126,0,0,0,.056-.021.791.791,0,0,0,.239-.191c-.077.073-.015,0,.014-.049.015-.024.024-.041.009-.027a1.858,1.858,0,0,1-.144.143,1.343,1.343,0,0,0,.234-.308,1.818,1.818,0,0,1,.111-.244c.026-.053.058-.113.093-.176l.027-.046c0-.006.007-.012.011-.018s.013-.014.009-.019l-.019-.013a.177.177,0,0,0-.024-.016l-.05-.03c-.034-.02-.07-.038-.106-.057-.073-.036-.148-.07-.227-.1-.154-.061-.314-.11-.461-.153a.348.348,0,0,0,.059.013c-.13-.037-.269-.08-.4-.131a1.25,1.25,0,0,0-.361-.123c-.043,0-.064.042-.075.091a.649.649,0,0,0-.01.142c0,.089,0,.155,0,.187l-.01.048c.018.463.012.518,0,1.07,0-.007,0-.071-.006.017.007.133.01.266.019.643l0-.015c.008.2.02.392.041.588a.536.536,0,0,0,.009.158c.01.1.04.224.051.366a.532.532,0,0,1-.112.4.417.417,0,0,1-.24.128.736.736,0,0,1-.21.033A.563.563,0,0,1,7408.774,2978.589Zm4.367-2.877c.043,0,.085.009-.064-.023Zm-.025-1.188.015,0a.03.03,0,0,1,0-.01l-.014,0Zm-1.171-.206c-.018,0,.007-.038-.025-.03a.207.207,0,0,0,.014-.023c-.011-.027,0-.029.018-.037a.079.079,0,0,0,.049-.046.011.011,0,0,0,0,.006c.011-.04.061-.076.06-.087h.011a.113.113,0,0,1,.033-.078s0,.007.006,0a.067.067,0,0,1,.015-.05l0,0,.021-.042c.022.011.023-.078.053-.079a.249.249,0,0,1,.014-.058s0,0,0,0c0-.022.026-.045.033-.064s0-.01-.011-.007c.021-.018.017-.071.024-.078s.009-.008.013-.005a.012.012,0,0,0,.008,0c.008-.027-.027-.008,0-.038,0,0,0,.013,0,.011s.052-.02.05-.032l-.009,0c0-.017.053-.043.028-.047l-.013,0c.032-.034,0-.01.032-.047h0c0-.012.03-.031,0-.025l-.006.007a.288.288,0,0,1,.016-.034s-.005,0,0-.009c-.03.02-.005-.015,0-.024s.019-.012.036-.029c-.027.019-.031.021,0-.011a1.107,1.107,0,0,1-.112.1.223.223,0,0,0,.025-.022c.012-.012,0,0,0,0l.041-.038c-.033.029-.027.02-.021.01s.007-.012,0-.007c.019-.018.034-.035.055-.058-.035.037-.028.026-.02.014s.018-.025-.025.025c.012-.024-.01-.016-.026-.011s-.032.01-.027-.013-.021.02-.027.022l.011-.026a.686.686,0,0,0-.05.074c.012-.031.014-.043.007-.062a.389.389,0,0,0-.02.053v-.033c-.007.016-.013.012-.021.01,0,.038-.021.042-.017.061-.012-.019-.018-.013-.023-.008s-.01.011-.021-.007a.057.057,0,0,1-.007.02c.011.016.021.036.008.031h0l-.013-.023a.066.066,0,0,1-.021.019l.014.009-.016-.008h0v0a.013.013,0,0,0-.02.008c-.022-.012-.035.006-.049.023s-.031.04-.059.019c.007,0,.016,0,.015-.007a.079.079,0,0,1-.042,0c-.019,0-.036,0-.042.012l.01.024a.115.115,0,0,1-.051.038l.009.028a.074.074,0,0,0-.035.016c-.023.015-.048.029-.071,0,0,.014-.012.014-.025.013a.034.034,0,0,0-.025,0l-.011-.02a.049.049,0,0,0-.041.021c-.054-.03-.076.024-.111.031l0-.006-.03.025c0-.013,0,0,0,0s-.006.01-.011.01-.027.013-.045,0l-.022.006c.02-.02-.012-.027-.021-.048l-.008.022c-.009-.009,0-.02-.009-.021-.005.015-.033.023-.034.048a.049.049,0,0,0,.015.012s0,0,0,0h0a.03.03,0,0,0,0,.01c-.02,0-.01.007-.005.017-.031-.026-.036,0-.061-.03.025.029-.049.012-.021.045-.015-.014-.017-.013-.019-.012s0,0-.012-.01c.024,0,.033-.034.045-.053l-.024-.014c0-.033.027-.012.041-.012a.015.015,0,0,1-.019,0l.015.026c.028,0,.038-.025.049-.045-.02,0,.013-.025-.007-.041l-.011.008a.01.01,0,0,1,0-.008l-.1.038-.034.014c0,.025-.017.045,0,.06-.015-.005-.016-.021-.035,0s.028.021.038.028c-.013.015-.01.022-.008.029-.025-.025-.056-.071-.047-.091l-.025.01s0,.009,0,.012l0-.009h0a5.247,5.247,0,0,0-.551.26v0l-.005,0-.012.006.038.017c-.006-.007-.01-.014,0-.012l-.014,0a.06.06,0,0,1,.024.005.061.061,0,0,0,.029,0l.039.021s.01-.007,0-.01c.01,0,.02,0,.008,0a.478.478,0,0,0,.149.051.547.547,0,0,1,.153.037c.007,0,.005-.009,0-.015.013.025.021-.008.032-.01l.02.037c.014-.008.007-.02.01-.026.053,0,.1.043.144.029.011.016-.01.03.007.037-.016-.041.05-.012.047-.037.011.04.061.017.042.075.021.008.023-.023.018-.029a.077.077,0,0,0,.069-.005c.011.017.118,0,.13.057-.009-.034,0-.016.022-.026l-.007-.03.033.01c.007,0,.009,0,.008,0s0,.015.008.025.026-.008.042-.018l0,0h.016c.011,0-.046.017-.012.04,0-.007.032-.037.037-.015-.018-.006-.02.013-.015.023l.025.009v-.035a.637.637,0,0,1,.108.048.2.2,0,0,0,.093.029c0,.025.041,0,.046.029l0,0C7411.9,2974.313,7411.931,2974.329,7411.944,2974.317Zm-.371-.126,0-.007C7411.565,2974.19,7411.561,2974.2,7411.574,2974.191Zm-.092-.462c.01,0,.016,0,0,0Zm-.31-.012a.019.019,0,0,0,.025-.01Zm.032-.013h0Zm.235-.078c.011.018,0,.05.031.071.054.017.017-.063.07-.073,0,0,0,0,0,.01s.008.017.021.006a.13.13,0,0,0,.026-.083l-.1.037.01,0c-.011-.005-.023.007-.027.019l.023.006a.031.031,0,0,1-.021,0,.057.057,0,0,0-.017,0A.023.023,0,0,0,7411.439,2973.626Zm.266-.109a.062.062,0,0,1,.012.022.072.072,0,0,0,.009-.03Zm.1-.036a.035.035,0,0,0,.005.012.316.316,0,0,0,.071.043.4.4,0,0,0-.021-.074l-.026.009.011.042-.015-.041Zm.185-.065a.851.851,0,0,0,0,.088l.017-.029.012.015a.188.188,0,0,0,.014-.089Zm.218-.009s0,0,0-.01A.06.06,0,0,1,7412.209,2973.407Zm.053-.089a.306.306,0,0,1-.008.053.626.626,0,0,1,.029-.061Zm.188.036a.017.017,0,0,1,.01.005l.031-.032,0-.006-.007,0,.009-.006.007-.013a.185.185,0,0,0-.023.023l.007,0A.263.263,0,0,0,7412.451,2973.355Zm-3.013-.976a2.63,2.63,0,0,0,0-.364Q7409.437,2972.2,7409.438,2972.379Zm0-.446h0v0Zm-1.117-.714c.006.135.015.269.024.4,0-.039,0-.1.01-.161,0-.029,0-.059,0-.088s-.006-.067-.009-.1l.008.046c0-.066,0-.133,0-.2,0,0-.009.022-.012.079l.007.074a.253.253,0,0,0-.018-.079S7408.321,2971.2,7408.32,2971.219Zm1.232-2.4c.014.032.031.063.055-.076a3.289,3.289,0,0,0,.015-.522.191.191,0,0,1,.062-.161.583.583,0,0,1,.352-.039c.064,0-.147.024.22.039a1.292,1.292,0,0,0,.329-.031.745.745,0,0,0,.239-.108l.086-.06c-.042.019-.084.036-.125.056a1.853,1.853,0,0,1-.869.054c-.183,0-.282.026-.333.124a.172.172,0,0,1,.067-.067.227.227,0,0,0-.1.169.9.9,0,0,0-.005.194.95.95,0,0,1,.042-.237,1.675,1.675,0,0,0-.042.282c-.01.1-.019.215-.02.364,0-.005.005-.008.007-.008S7409.546,2968.81,7409.552,2968.824Zm.087-.067v.008c.005-.063.01-.109.01-.109S7409.647,2968.684,7409.639,2968.756Zm2.75-1.4c.073-.026.155-.059.228-.092l-.282.082h.018C7412.376,2967.346,7412.4,2967.348,7412.39,2967.357Zm-2.825-.222c-.008-.021-.012-.039.012-.043a1.152,1.152,0,0,1-.238-.064A1.116,1.116,0,0,0,7409.565,2967.136Zm.749-.048a.107.107,0,0,1,.02-.014C7410.274,2967.089,7410.308,2967.083,7410.313,2967.088Zm3.548-.18-.251.075a.08.08,0,0,0,.041,0,2.455,2.455,0,0,0,.358-.075.756.756,0,0,0,.193-.091.5.5,0,0,0,.089-.079c.023-.053,0-.087-.027-.1a.5.5,0,0,1-.265.218c-.007.02-.015.039-.023.058l-.023-.039C7413.924,2966.886,7413.895,2966.9,7413.862,2966.907Zm-.742-.71-.083.008a3.885,3.885,0,0,0-.488.24c.171-.054.34-.109.51-.165.151-.083.286-.16.359-.209Zm52.909,11.431v0Zm-49.114-.844.015.011Zm9.55-.3c-.058-.009-.118-.024-.138-.028a1.587,1.587,0,0,1-.214-.078s0,0,0,0-.012,0,.009.007c-.052-.021-.1-.046-.03-.01a.431.431,0,0,1-.166-.127.466.466,0,0,1-.085-.191.654.654,0,0,1-.009-.209.268.268,0,0,1,.108-.184.62.62,0,0,1,.4-.09,2.168,2.168,0,0,0,.394-.043c.034-.01.013-.01,0-.01.1-.008.088-.03.138-.047l.142-.021c.053-.025.008-.018.011-.023.254-.093.513-.16.733-.219.031,0,.034,0,.033.01s-.005.014.048.007c-.066-.006,0-.023.077-.034s.111-.027.1-.033a.107.107,0,0,0,.1-.069c.023-.046.03-.094.057-.072.011-.106-.023-.087-.026-.057a1.4,1.4,0,0,0-.039-.33c.011-.072-.072-.578-.045-.7-.021.081-.017,0-.042-.075l-.018.07-.023-.165c-.008-.033-.009-.042-.006-.043,0-.028.018,0,.011-.068a.414.414,0,0,0-.063-.172v.018l-.019-.074c0-.023.006.005.019.033s.04.081.024-.027a.267.267,0,0,1-.061-.151c.021.092.037.076.036.04s-.021-.086-.032-.129l-.021.051c-.023-.092-.048-.183-.076-.276-.014-.046-.027-.093-.043-.139a1.279,1.279,0,0,0-.047-.131.175.175,0,0,0-.167-.125c-.037,0-.1.007-.146.009a.623.623,0,0,0-.138.021c0-.006-.016-.005-.035,0s-.052.029-.084.046c-.067.032-.133.049-.12.027l.017,0c.095-.042-.037-.01-.115.01.037,0,.018.007,0,.018s-.056.031.066,0a1.519,1.519,0,0,1-.159.05.6.6,0,0,1-.272.062.5.5,0,0,0-.328.131c.007-.013.01-.016.01-.018a.457.457,0,0,0-.115.268.623.623,0,0,0,.006.2l-.007.021c.055.175.066.193.133.4,0,0-.014-.025,0,.008a1.2,1.2,0,0,1,.092.244l0-.005a1.541,1.541,0,0,1,.052.237c-.007,0,0,.026,0,.066a.453.453,0,0,0,.023.14,1.56,1.56,0,0,1,.057.153.2.2,0,0,1,0,.112,3,3,0,0,1-.007.3s0,.005-.006.019a.287.287,0,0,1-.241.281c-.068.018-.039.016-.006.014a1.149,1.149,0,0,1-.249,0,.573.573,0,0,1-.18-.043c-.093-.045-.029-.027-.052-.045-.065-.038-.063-.031-.066-.026s-.015.008-.086-.072c.018.017.052.046.041.033a.392.392,0,0,1-.082-.126c-.021-.051-.034-.1-.047-.137a.407.407,0,0,0,.01.049.529.529,0,0,1-.038-.211c0-.064-.008-.115-.022-.123l-.01.014c-.027-.226-.021-.094-.058-.321l0,0c-.026-.1-.023-.155-.058-.2l.006.034c-.035-.12-.036-.131-.068-.255a.391.391,0,0,1-.026-.091,1.417,1.417,0,0,1-.093-.344c.025.1.024.05.027.02a.319.319,0,0,1-.042-.18c-.03-.008-.069-.018-.093-.186.008.026.016.066.02.049a.183.183,0,0,0-.012-.069c0-.009.006,0,.01.009s.01.018.014.008a.471.471,0,0,1-.028-.16c0-.03,0-.062,0-.1l.011-.119c0,.058.014.01.031-.006-.016-.01,0-.069.028-.113s.045-.078.009-.058a1.285,1.285,0,0,1,.162-.23,1.573,1.573,0,0,1,.213-.192,1.245,1.245,0,0,1,.344-.194c.036,0,.1-.068.146-.1l0,.021c.116-.105.1-.07.24-.187-.056.055-.022.05.053.033l.093-.093.035.018a.446.446,0,0,1,.146-.071c.031-.053.215-.123.241-.152a.152.152,0,0,0,.1-.017c.035-.014.067-.028.094-.014a.35.35,0,0,1,.063-.033c-.031-.012-.047-.03.006-.034l.012,0,.028.02a.9.9,0,0,1,.137-.039.339.339,0,0,1-.055,0h.065l.019,0-.011,0a.335.335,0,0,0,.111-.016.9.9,0,0,0,.146,0c.05-.007.1-.014.156-.019a.778.778,0,0,1,.162,0,.407.407,0,0,1,.155.037.156.156,0,0,0-.085-.012,3.466,3.466,0,0,1,.44.12l0-.027a.752.752,0,0,1,.318.172l.024-.016a.991.991,0,0,1,.207.3.717.717,0,0,1,.046.167.213.213,0,0,1-.005.1c.029.025.043.178.076.249l-.015.026a.927.927,0,0,0,.084.208,3.32,3.32,0,0,0,.208.556l-.005,0c.025.059.05.118.073.179-.031-.044.022.034.032.093a.62.62,0,0,1,.039.235l.017.123c-.033-.135-.027.014-.051.024l.026.076c0,.015-.008.006-.013,0s-.01-.02-.009.012c.018.051.025.2.047.252a.14.14,0,0,0,.015-.05c0-.007,0-.006,0,0v0a.138.138,0,0,0,.009.021c0,.1,0,.062.014.058a2.03,2.03,0,0,1-.052.246c.021-.04.017.027.012.094s-.009.129.013.1c-.04.079-.006.056-.039.105a1.085,1.085,0,0,0-.013-.32l-.025.089c-.034-.059.021-.2.008-.255a.25.25,0,0,1-.009.119l.029-.023a.867.867,0,0,0-.033-.322c0,.045-.009.015-.018-.015s-.017-.055-.025-.024l.008.067c0,.009-.006.009-.009.005a5.368,5.368,0,0,1-.015.725c.023.019.019.172.041.13a.345.345,0,0,0-.031.154c.006.077.036-.089.049-.12,0,.091,0,.091.012.095-.038.072-.091.122-.1.042,0,.042-.008.085-.012.127.006-.027.008.008,0,.054l-.008,0a.045.045,0,0,1,0-.014c-.016.162-.032.323-.044.484a.276.276,0,0,1-.282.275,14.7,14.7,0,0,1-2.225.443.8.8,0,0,1-.229-.007l.02,0c.043.008.076.012.028.01.024,0,.048,0,.072,0h-.01A.815.815,0,0,1,7426.465,2976.482Zm2.806-1.385a.447.447,0,0,0,.014-.152C7429.281,2975,7429.276,2975.046,7429.271,2975.1Zm.017-.184h0v-.01Zm-1.307-1.181c.01.015.019.03,0-.027Zm1.314-.073c.019.009.039.019.044-.042a.367.367,0,0,0-.066-.212.8.8,0,0,1-.11-.23c0-.007,0-.005,0,0s.031.006-.013-.088a.774.774,0,0,0-.165-.23c.07.176.141.351.2.53a.167.167,0,0,1,0-.042.569.569,0,0,0,.053.153l-.013-.1c.022.079.014.147.047.263a.009.009,0,0,1,.008,0A.041.041,0,0,1,7429.3,2973.659Zm.078-.045v0c0-.027,0-.046,0-.046S7429.371,2973.583,7429.374,2973.614Zm-4.243-.207c.014.053.028.105.044.158,0-.016,0-.039,0-.066,0-.011,0-.022-.005-.033l-.015-.04.011.019c0-.027-.009-.054-.013-.081-.006,0-.009.007-.009.033l.011.029c-.01-.017-.018-.029-.022-.029S7425.131,2973.4,7425.131,2973.406Zm3.652-1.125c0-.012.009-.027.019-.025a.55.55,0,0,0-.047-.086C7428.763,2972.208,7428.772,2972.245,7428.783,2972.282Zm-2.592-.4.087-.045c-.013-.013-.024-.026-.021-.04C7426.233,2971.828,7426.212,2971.856,7426.19,2971.885Zm2.3-.2a.613.613,0,0,1,.1.1.026.026,0,0,0,0-.021.432.432,0,0,0-.084-.132.816.816,0,0,0-.1-.09c-.025,0-.045.027-.06.058a.824.824,0,0,1,.121.072l.041-.025Zm-1.955-.034a.027.027,0,0,1,0-.011C7426.519,2971.654,7426.533,2971.651,7426.536,2971.655Zm.922-.191a2.036,2.036,0,0,1,.215,0c.069-.03.134-.053.173-.071l-.136.011-.033-.019A.5.5,0,0,0,7427.458,2971.464Zm33.908,4.317-.022,0Zm-33.36-.625h0Zm31.816-.263a.517.517,0,0,1-.1-.015c.04.009.113.011.085.007a.467.467,0,0,1-.23-.086.574.574,0,0,1-.155-.183.437.437,0,0,0,.041.073.72.72,0,0,1-.132-.331.763.763,0,0,0-.048-.205l-.008.023c-.029-.192-.035-.23-.041-.272a1.343,1.343,0,0,1-.017-.278l0,0a2.881,2.881,0,0,0,0-.345l-.005.058c.007-.21.011-.229.029-.441a1.114,1.114,0,0,1,.013-.157c-.017-.011.024-.445.026-.568,0,.144.012.07.022.024a1.2,1.2,0,0,1-.011-.3c-.032-.018-.062-.043-.093-.308.009.041.019.1.022.078a.414.414,0,0,0-.015-.109c0-.013.006,0,.011.014s.011.028.015.013c-.026-.087-.037-.163-.056-.241a.276.276,0,0,0-.125-.2c.052.027.021-.011,0-.031-.016.013-.076-.024-.148-.039s-.126-.025-.081,0a3.049,3.049,0,0,0-.419-.017h-.452a5.527,5.527,0,0,1-.643-.016,1.819,1.819,0,0,0-.29.012l.012-.02c-.126.019-.176.022-.231.026a1.053,1.053,0,0,1-.108,0,.4.4,0,0,1-.208-.064c.076.041.1.034.09.022a.593.593,0,0,1-.1-.105.481.481,0,0,1-.082-.085.462.462,0,0,1-.067-.112.328.328,0,0,1,.022-.056.183.183,0,0,1,.049-.161.322.322,0,0,1,.073-.056c.024-.013.047-.024.067-.033a1.2,1.2,0,0,1,.165-.131c.088-.061.181-.116.2-.138.1-.005.222-.122.3-.11a.791.791,0,0,1,.1-.057c-.05,0-.074-.017.01-.038l.019-.008.043.011a1.79,1.79,0,0,1,.221-.079c-.026,0-.057.008-.089.012.037-.008.072-.012.106-.016l.03-.008-.018.006a1.059,1.059,0,0,0,.181-.042c.154-.01.32-.044.5-.061a1.332,1.332,0,0,1,.479.031.254.254,0,0,0-.1-.007,1.6,1.6,0,0,1,.208.034,1.1,1.1,0,0,0,.168.03.189.189,0,0,0,.107-.016.077.077,0,0,0,.039-.063l-.026,0a.319.319,0,0,0,0-.088c0-.034-.01-.066-.017-.114a2.186,2.186,0,0,1-.027-.252l-.029-.008a3.563,3.563,0,0,1,.041-.89c-.021-.057.015-.316,0-.442l.021-.033a1.392,1.392,0,0,0-.049-.36c0-.041-.008-.082-.014-.122s-.018-.079-.028-.117c0-.015-.014-.048-.019-.073s-.009-.05-.012-.072a.939.939,0,0,0-.018-.111.074.074,0,0,0-.067-.065.533.533,0,0,0-.071,0,.849.849,0,0,1-.134,0l0-.006a.575.575,0,0,1-.2-.039.42.42,0,0,1-.18-.137c.045.042.027.026-.009-.015a.418.418,0,0,1-.082-.176.668.668,0,0,1-.025-.214.692.692,0,0,1,.045-.229.676.676,0,0,1,.109-.22c-.086.158-.046.106,0,.055.025-.027.051-.054.063-.05a.581.581,0,0,1,.1-.116c.024-.011.014,0,0,.013s-.03.031.021,0a.526.526,0,0,1,.219-.1.921.921,0,0,1,.137-.018.506.506,0,0,0,.084-.012.34.34,0,0,0-.078-.017c-.011,0-.01,0,0,0h0a.243.243,0,0,0,.034-.008c.152.008.1,0,.091-.013.166.032.261.008.388.03-.057-.013.036-.02.135-.03s.226-.027.167-.04a.36.36,0,0,0,.106,0,.168.168,0,0,1,.071,0c-.185.019-.362.072-.51.1l.148.007a.684.684,0,0,1-.281.025,1,1,0,0,0-.136,0,.788.788,0,0,1,.194,0l-.04-.027c-.1,0-.2.005-.283.01a.918.918,0,0,0-.253.04c.077-.011.031,0-.017.021s-.092.052-.04.04a.572.572,0,0,1,.108-.034c.015,0,.016,0,.009.009a.509.509,0,0,1,.092-.006,4.969,4.969,0,0,0,.807-.05l-.088.007.054-.026.039.019q.15-.021.3-.046c.024-.03.272-.086.2-.093a.453.453,0,0,1,.063,0,.657.657,0,0,0,.2-.032c.079-.027-.014-.018-.1-.009-.046,0-.091.01-.109.01.145-.038.144-.045.146-.054.128.008.229.043.1.084l.209-.043c-.046.005.009-.012.085-.028l.008.008-.022.006c.2-.041.394-.08.593-.112q.652-.105,1.31-.168c.262-.026.619.093.639.275a.624.624,0,0,1-.525.618c-.562.138-1.122.282-1.712.43l.008.012.032-.007s.044-.008-.031.01l.034.052.013.029-.048-.081-.01,0c.057.105.12.207.184.307-.041-.072-.079-.139-.028-.067-.023-.033-.043-.067-.065-.1.022.032.206.313.254.363l.215.311s0,0,.008,0,.016.013-.006-.018c.055.075.1.141.037.039a5.929,5.929,0,0,1,.363.581,3.2,3.2,0,0,1,.146.314l.057.161c.02.05.046.1.072.151a.8.8,0,0,1,.067.168,1.483,1.483,0,0,1,.016.176.52.52,0,0,0,.032.149.072.072,0,0,0,.082.05.392.392,0,0,0,.136-.051c.024-.013.045-.027.071-.042a.3.3,0,0,1,.1-.035,1.247,1.247,0,0,1,.175-.016l.167-.008c.061-.005.026-.012,0-.016a.49.49,0,0,0,.169-.007.331.331,0,0,1,.087-.01.749.749,0,0,1,.248.091c.1.042.032-.007.042-.01a.449.449,0,0,1,.228.32.686.686,0,0,1-.031.364.762.762,0,0,1-.478.438c-.061.009-.059,0-.058,0s0-.015-.083,0c.056,0,.055.007.024.016a.305.305,0,0,1-.067.013c-.025,0-.066.007-.084.01-.078.011-.168.072-.152.074-.061.018-.148.073-.242.111l-.039.014-.026.007a.214.214,0,0,1-.042.006.18.18,0,0,1-.067-.01.041.041,0,0,1-.026-.017h-.018s-.007,0,0,0l.009.022a.351.351,0,0,0,.016.034.09.09,0,0,0,.023.031c.011.007.015-.006.012-.021.013.035.023.059.036.1s.031.094.043.139c.025.09.049.175.074.263.005.06.045.307.06.562a4.492,4.492,0,0,1,.013.613c.021-.132.015.009.044.13l.016-.113c.009.092.018.183.031.274.011.055.013.07.011.07.008.046-.018-.008,0,.11a.781.781,0,0,0,.106.277l0-.028.021.058a.46.46,0,0,1,.023.084c0,.032,0,.02-.006-.009a.392.392,0,0,0-.02-.056l-.02-.04c-.013-.025-.024-.043-.027-.038a.064.064,0,0,0,0,.029l.008.033c0,.015.009.033.015.055a.3.3,0,0,1,.034.127.366.366,0,0,1-.03.188.278.278,0,0,0,.019-.138c-.005-.01-.013.012-.023.044a.659.659,0,0,1-.089.232.6.6,0,0,0,.071-.06.527.527,0,0,1-.189.227.532.532,0,0,1-.282.072.849.849,0,0,1-.525-.13.873.873,0,0,1-.3-.448,2.572,2.572,0,0,1-.125-.509,1.282,1.282,0,0,0-.012-.235c-.008-.116-.009-.225.008-.194v.026c.014.169.022-.051.014-.187,0,.061-.01.025-.018-.011s-.021-.1-.016.1l-.023-.269a1.959,1.959,0,0,1-.04-.463,1.783,1.783,0,0,0-.031-.321.445.445,0,0,0-.136-.258.329.329,0,0,0,.028.021.623.623,0,0,0-.474-.143.515.515,0,0,0-.308.08.236.236,0,0,0-.029.011.3.3,0,0,0-.074.156.8.8,0,0,0-.014.138c0,.094,0,.195-.006.379,0,0,0-.048-.006.011.007.089.013.179.01.432l0-.01v.4c-.025,0,.016.679-.011.8.007.078.01.367.015.5,0,0,0,.009,0,.031a5.24,5.24,0,0,1-.008.61c-.007.112,0,.064.012.016a.838.838,0,0,1-.126.391.488.488,0,0,1-.261.175c-.084.02-.1.016-.1.013s.013-.01-.01-.01c-.123.016-.112.015-.112.022s0,0-.027.006h-.012Zm3.151-2.267,0-.043c0-.012-.009-.024-.012-.024A.241.241,0,0,0,7462.974,2972.627Zm-3.667-.671c.007.089.012.179.012.269,0-.026.011-.064.019-.109,0-.019,0-.038,0-.056s0-.046-.007-.066l.007.031c0-.045,0-.089,0-.134,0,0-.008.015-.01.053a.49.49,0,0,1,.007.049c-.007-.031-.015-.052-.019-.052S7459.307,2971.946,7459.306,2971.956Zm-2.642-.978a.283.283,0,0,1-.143-.077c-.005.02-.01.037-.03.034A.3.3,0,0,0,7456.665,2970.978Zm-.142-.545a.076.076,0,0,1,.01-.015c-.028.015-.024.015-.018.014Zm1.468-.52a2.748,2.748,0,0,1,.357-.024c.114-.031.22-.055.281-.069-.075,0-.15,0-.224.009l-.056-.019A1,1,0,0,0,7457.991,2969.913Zm3.247-.219.017.016.007,0,.006-.008,0,.007.015,0s0-.008-.009-.01a.024.024,0,0,1,0,.007c0-.011,0-.021,0-.023A.1.1,0,0,1,7461.238,2969.694Zm-.025-.053a.072.072,0,0,0,.025.01c-.014,0-.007.014,0,.024.007-.02.009-.022.027-.013-.011-.03-.022-.06-.017-.067s0,.009.005.013,0,0,0-.006,0,.011.013.018c-.013-.03.011-.019.007-.042.008.009.015.008.026.01-.035-.013.038-.02-.012-.023a.034.034,0,0,0,.01-.028.033.033,0,0,0,0-.016l0-.008-.007-.014c-.018-.037-.032-.068-.021-.089s-.021-.021-.027-.032l.018-.006c-.046-.018-.022-.02-.073-.043.028.007.035,0,.046-.027l-.05-.01.027-.017c-.016-.006-.017-.019-.017-.033a.055.055,0,0,1-.042-.02c-.01-.01-.019-.02-.029-.02.036-.028-.024-.028.011-.051a.082.082,0,0,1-.02-.009c-.016.013-.035.022-.031.008l0,0,.022-.014a.077.077,0,0,1-.021-.026.045.045,0,0,1-.008.015.119.119,0,0,1,.007-.017.007.007,0,0,1,0,0l0,0a.016.016,0,0,0-.009-.023c.024-.051-.087-.065-.048-.126,0,.008,0,.018.007.017-.015-.034.009-.082-.019-.1l-.024.01a.149.149,0,0,1-.04-.06l-.028.008c0-.033-.066-.083-.016-.121-.024,0-.007-.043-.02-.058l.02-.011a.063.063,0,0,0-.022-.047c.029-.06-.027-.087-.036-.127l.006,0-.027-.035c.021,0-.015,0-.013-.017a.042.042,0,0,1-.007-.051l-.007-.026c.021.023.027-.012.048-.022l-.022-.01a.011.011,0,0,1,.012,0s.008,0,.009-.006c-.016-.006-.026-.038-.051-.039a.037.037,0,0,0-.011.016s0,0,0,0h-.01c0-.022-.008-.011-.018-.007.024-.034,0-.039.027-.068-.014.014-.018,0-.022-.013s-.009-.027-.026-.012c.025-.03,0-.012.02-.034,0,.027.037.038.058.052l.012-.027c.041,0,0,.048.019.054-.011,0-.009-.022,0-.028l-.025.016c0,.031.028.044.05.057,0-.011.008-.007.016,0s.018.008.026,0l-.009-.013a.01.01,0,0,1,.008,0c-.015-.038-.03-.075-.046-.112v.011h-.021l.02-.013-.017-.04a.055.055,0,0,1-.03,0c-.013,0-.024-.008-.032,0,0-.016.02-.018,0-.039s-.019.031-.025.042c-.017-.014-.023-.011-.03-.009.023-.029.069-.063.089-.053l-.013-.028c0,.008-.009,0-.015-.005l.008,0,0,0a2.466,2.466,0,0,0-.394-.606c0,.017,0,.033,0,.05,0-.011.006-.022.011-.01l0-.016c.006,0,.01.051.019.059a.458.458,0,0,1,0,.052s0,0,.005,0,.005,0,0,0c0,.013.006.023.008.007a.988.988,0,0,0,.018.185.592.592,0,0,1,.019.184c0,.008.011,0,.015,0-.019.024.015.021.02.032l-.029.034a.015.015,0,0,0,.02,0l.008,0c.016.061-.013.123.014.172-.012.017-.031,0-.034.019.019-.016.025,0,.03.018s.008.029.019.024c-.037.024,0,.074-.061.069,0,.025.028.019.033.011a.093.093,0,0,0,.023.075c-.013.017.026.132-.02.161.03-.02.017,0,.032.016l.026-.017v.039c0,.008,0,.01,0,.01s-.016,0-.022.017.015.026.03.04l0,0,0,.018c0,.005,0,0-.012-.008s-.023-.019-.029.007c.007,0,.044.022.025.035,0-.022-.019-.018-.026-.009v.031l.034-.013c0,.088-.021.18-.017.273-.024,0,0,.066-.033.061l0,0c0-.023-.026.009-.02.027,0-.009.011,0,.017,0s.018.012.02-.016l.016.035c.058.015,0,.1.014.152a.007.007,0,0,0-.005,0c.014.048-.007.112,0,.123l-.01.006a.154.154,0,0,1,.018.1s0-.006-.006,0a.086.086,0,0,1,.017.057h0c0,.018,0,.036.007.053-.012,0,0,.023,0,.045s.022.039.015.052a.075.075,0,0,1,.022.015.09.09,0,0,0,.024.01s0,0,0,0a.039.039,0,0,1,.031,0,.111.111,0,0,0,.037,0c.013-.006.006-.01,0-.013a.077.077,0,0,0,.05-.016.1.1,0,0,1,.031-.016c.02-.006.01.008.018.013.03-.013-.013-.025.032-.028,0,0-.013.007-.01.008a.071.071,0,0,1,.032.007c.015.006.03.011.038.006l-.012,0a.065.065,0,0,1,.046,0c.017,0,.031.005.032-.008l0-.011a.075.075,0,0,0,.039,0c.007,0,.012,0,.044.005v0c.027,0,.034.02.055,0l-.008-.006a.116.116,0,0,1,.058.03l0,0s.012,0,.012.008,0-.006.007-.006A.035.035,0,0,1,7461.213,2969.641Zm-1.938-.45a1.567,1.567,0,0,0-.027.245c0,.1,0,.189,0,.2a.087.087,0,0,0,.08.036c0-.026,0-.054-.007-.084-.007-.05-.012-.1-.017-.15l-.046-.025.043-.008c-.006-.08-.01-.16-.011-.24A.05.05,0,0,0,7459.274,2969.19Zm1.961.112.05,0-.009-.021A.194.194,0,0,1,7461.236,2969.3Zm-.037-.062h-.009C7461.192,2969.246,7461.194,2969.242,7461.2,2969.24Zm-.1-.253-.015.013a.188.188,0,0,0,.091.02l-.016-.046c-.035,0-.068-.008-.09-.008Zm-.025-.221a.328.328,0,0,0-.041.077.349.349,0,0,0,.075-.019l-.01-.031-.042.01.041-.014-.01-.03A.07.07,0,0,0,7461.074,2968.766Zm-.049-.11a.076.076,0,0,0,.031.013l-.008-.025A.059.059,0,0,1,7461.024,2968.656Zm-.458-.1.006-.006-.008,0S7460.563,2968.553,7460.567,2968.56Zm.288-.193c-.015.06.065.021.077.083.008,0-.037,0-.016.027a.136.136,0,0,0,.085.034c-.014-.04-.028-.08-.042-.12a.021.021,0,0,1,0,.011c0-.012-.008-.026-.021-.031l-.005.026c-.007-.017.016-.041,0-.062C7460.908,2968.347,7460.875,2968.338,7460.855,2968.367Zm-1.549.106c0-.066,0-.132.006-.2-.007.017-.018.04-.026.032A1.544,1.544,0,0,0,7459.306,2968.473Zm1.518-.1h0C7460.821,2968.389,7460.819,2968.4,7460.823,2968.378Zm.005-.312,0,0v0Zm0-.008-.013-.03A.025.025,0,0,0,7460.826,2968.059Zm-1.967-1.113c0,.011.046.007.125.012a.138.138,0,0,1,.114.092c.021.049.034.111.052.156a.437.437,0,0,0,.035.069c-.05-.16.02-.412-.291-.389a.484.484,0,0,1-.35-.075.48.48,0,0,0,.046.039.378.378,0,0,1-.1-.093.57.57,0,0,1-.065-.117.368.368,0,0,0,.069.162.345.345,0,0,1-.077-.192,1.664,1.664,0,0,1-.008-.248c-.009.013-.017,0-.024-.016s-.028-.048-.056.053a.463.463,0,0,0,.1.391.523.523,0,0,0,.438.143h.007C7458.875,2966.931,7458.857,2966.939,7458.859,2966.946Zm2.268-.289a.139.139,0,0,1,.007.013l.01,0-.007-.012Zm-2.833-.266v-.006C7458.286,2966.472,7458.281,2966.517,7458.293,2966.391Zm1.077-.582Zm.124-.063Zm.714-.01.021,0h0Zm.073-.014.25-.05A1.187,1.187,0,0,0,7460.281,2965.722Zm-49.022,8.4a.007.007,0,0,0,0,0Zm0-.436h.012v.021Zm39.99-.307-.007.033C7451.242,2973.4,7451.244,2973.386,7451.246,2973.376Zm-38.76-.051Zm55.179-.273c.05,0,.1.01.044.01l.071,0-.1,0c-.065,0-.14,0-.164,0l-.226-.006c.007,0-.03,0,.006,0-.056,0-.1,0-.031,0a1.99,1.99,0,0,1-.807-.141.918.918,0,0,1-.339-.242.519.519,0,0,1-.1-.4c0-.038,0-.017-.009,0,.029-.1.013-.1.034-.162a.294.294,0,0,1,.129-.107c.038-.027.026-.026.016-.025s-.009,0-.008,0a.532.532,0,0,1,.215-.06c.07-.007.135-.007.2-.01a3.063,3.063,0,0,0,.358-.027c.07.007-.015.027.077.026-.122-.025.235-.033.2-.051.1.028.326-.01.288.048.111,0,.091-.028.059-.032a2.081,2.081,0,0,0,.339-.021c.036.007.184,0,.338.013.079,0,.148.009.21.01s.108,0,.136,0c-.076-.013.007-.013.051-.052a.355.355,0,0,1-.058-.006.2.2,0,0,0,.094-.055c.01-.017.014-.022.016-.021s.006-.006.009-.005.014,0,.029-.028a.157.157,0,0,0,0-.089c0-.02-.014-.034-.022-.061l0,.015c0-.022-.007-.045-.011-.067s.006,0,.016.031.03.075.027-.024a.262.262,0,0,1-.056-.148c.021.094.037.077.036.041l-.029-.131-.023.051c-.085-.375-.155-.771-.251-1.17.024,0-.065-.284-.025-.256v.016c.028.1.019-.035-.005-.114,0,.036-.007.017-.018,0s-.031-.053,0,.065l-.052-.153c-.076-.073-.092-.421-.165-.655a.064.064,0,0,0,.011.022c-.062-.209-.1-.478-.118-.525l.005-.022a2.739,2.739,0,0,1-.109-.416s.011.027,0-.008a1.523,1.523,0,0,1-.069-.25l0,.006-.055-.231c.024,0-.106-.393-.1-.469-.018-.044-.058-.213-.079-.287,0,0,0-.006,0-.019-.034-.086-.054-.258-.078-.356-.019-.063-.017-.035-.014-.006-.018-.13-.1-.346-.1-.393s-.01-.058,0-.056.007,0,.007-.008c-.019-.063-.024-.062-.029-.06s-.01,0-.03-.1c.007.021.019.06.017.044a2.428,2.428,0,0,0-.041-.273l.007.048c-.044-.125-.06-.309-.09-.322l-.008.015c-.055-.221-.034-.091-.094-.313l0,0c-.037-.094-.039-.151-.078-.189l.009.033c-.045-.117-.05-.124-.095-.248a.452.452,0,0,1-.008-.283.422.422,0,0,1,.149-.166c-.086.073-.037.047-.008.035a.253.253,0,0,1,.163-.1.068.068,0,0,1,.023-.056.319.319,0,0,1,.159-.069c-.028.01-.071.024-.052.026a.369.369,0,0,0,.075-.018c.02,0-.04.018-.017.025a.482.482,0,0,1,.4.049c-.059-.02-.015.01,0,.031.016-.014.067.029.1.071s.053.077.05.035a.833.833,0,0,1,.123.26,2.369,2.369,0,0,0,.093.246,2.4,2.4,0,0,1,.146.354c0,.036.061.1.084.154h-.021a2.536,2.536,0,0,1,.162.262c-.049-.064-.046-.03-.04.048.027.035.054.071.079.108l-.023.032a.431.431,0,0,1,.041.161.351.351,0,0,1,.051.128.914.914,0,0,0,.034.149.147.147,0,0,0-.013.1c0,.033.009.063-.011.083.006.016.014.038.021.061.016-.026.037-.037.033.01v.01l-.023.022c.011.046.024.093.03.124a.266.266,0,0,1,0-.05c0,.021,0,.04,0,.059l0,.017a.031.031,0,0,1,0-.01.231.231,0,0,0,.022.1c0,.176.166.343.185.539-.005-.029-.018-.067-.031-.074a2.984,2.984,0,0,0,.147.4l.021-.017a2.42,2.42,0,0,1,.138.277l.029-.006c.046.132.2.408.167.511.032.026.054.19.083.266l-.016.026a1.456,1.456,0,0,0,.068.223,3.872,3.872,0,0,0,.125.583l-.005,0,.048.182c-.028-.045.02.034.024.091a.718.718,0,0,1,.028.226l.017.118c-.034-.129-.027.014-.049.025l.03.072c0,.014-.008.006-.013,0s-.011-.019-.009.012a2.091,2.091,0,0,0,.07.24.141.141,0,0,0,.009-.05c0-.006,0-.006,0,0v0a.167.167,0,0,0,.012.019c.008.094.012.059.021.054-.019.106.007.161-.014.241.013-.034.021.029.028.091s.016.127.031.091c-.021.084.006.054-.014.109a1.253,1.253,0,0,0-.077-.306l-.007.091c-.046-.052-.015-.2-.035-.25a.259.259,0,0,1,.01.117l.024-.027a1.073,1.073,0,0,0-.072-.311c0,.044-.008.016-.019-.013s-.021-.053-.027-.021l.014.066c0,.01,0,.01-.009.006q.042.267.084.533l0-.052.024.031-.019.025c.009.06.019.12.028.179.026.015.058.162.069.116a.393.393,0,0,0,.007.159c.021.079.017-.1.02-.131.021.086.027.091.034.092-.022.088-.072.143-.088.058a1.319,1.319,0,0,1,0,.139c0-.039.01,0,.008.047l-.008,0a.11.11,0,0,1,0-.013,2.345,2.345,0,0,0,.006.811c.058.2-.1.309-.287.418a3.591,3.591,0,0,1-1.766.365C7467.814,2973.059,7467.739,2973.055,7467.666,2973.052Zm1.036-1.3c0,.011,0,.026.014-.012C7468.71,2971.74,7468.707,2971.745,7468.7,2971.748Zm1.226-.533a.719.719,0,0,1,.008.08.373.373,0,0,0-.021-.159C7469.919,2971.163,7469.923,2971.189,7469.927,2971.215Zm-.018-.111h0l0-.008Zm-.159-1.241c.018.01.037.02.045-.04-.006-.232-.084-.177-.13-.449,0-.007,0-.005,0,0s.029.009,0-.089a.752.752,0,0,0-.13-.254q.067.281.121.564a.264.264,0,0,1,0-.051.484.484,0,0,0,.038.157l0-.1a2.03,2.03,0,0,0,.03.263.009.009,0,0,1,.008,0A.052.052,0,0,1,7469.751,2969.863Zm.079-.042v0l0-.044S7469.829,2969.791,7469.83,2969.821Zm-.45-1.374c0-.012.009-.03.019-.028a.407.407,0,0,0-.059-.092C7469.353,2968.367,7469.367,2968.407,7469.38,2968.447Zm-.236-.636.055.133a.033.033,0,0,0,.007-.019,2.086,2.086,0,0,0-.043-.269.1.1,0,0,0-.082.006l.055.13h.047Zm-.321-.8a1.151,1.151,0,0,0,.133.125l-.064-.113.007-.037a.81.81,0,0,0-.141-.182C7468.777,2966.874,7468.8,2966.943,7468.823,2967.012Zm-.118-1.132Zm-.011-.009a.032.032,0,0,1,.01.007c0-.011,0-.014,0-.014S7468.7,2965.869,7468.694,2965.871Zm-.137-.289c.015-.011.029-.02.042-.016-.025-.027-.05-.051-.076-.076Q7468.542,2965.535,7468.558,2965.582Zm-1.256-1.4a.691.691,0,0,0-.136.1.328.328,0,0,1,.06-.024l.035-.021.029-.023-.013.014c.023-.012.047-.023.072-.034,0,0-.012,0-.035,0l-.024.018c.017-.019.029-.031.018-.031Zm-18.543,8.575,0,0Zm-4.016-.536c.005.018.01.036.016.053C7444.751,2972.259,7444.747,2972.241,7444.742,2972.225Zm14.537-.064v0Zm7.939-.311.008,0Zm-62.859-.239a1.3,1.3,0,0,1-.3-.071c-.014,0-.008,0,0,.009-.02-.015-.029-.012-.039-.009a.035.035,0,0,1-.018,0,.531.531,0,0,1-.043-.038c-.023,0-.01.012-.013.016-.1-.025-.182-.09-.267-.108-.019-.022.018-.021-.011-.04.014.027-.015.017-.043.007s-.044-.016-.043-.005c-.016-.046-.105-.062-.063-.1-.034-.024-.043,0-.035.015a.263.263,0,0,0-.119-.05c-.015-.025-.192-.1-.2-.166.005.039-.012.01-.042.006l.006.037-.051-.038c-.012,0-.015-.008-.013-.01s.011-.012-.007-.033a.064.064,0,0,0-.053-.016h-.019l0,.007-.025-.014c-.006,0,0,0,.012,0s.048,0,.016-.029c0,.006-.059.012-.063-.015.028.022.035,0,.029-.011l-.04-.03-.005.038c-.115-.085-.223-.192-.348-.281.016-.018-.086-.065-.056-.084l0,.006c.033.019.006-.028-.021-.042.021.027-.064-.007,0,.043l-.057-.023c-.059.027-.125-.1-.208-.142.006,0,.009,0,.01,0a.759.759,0,0,1-.153-.14l0-.013a.241.241,0,0,1-.105-.131s.009.008,0-.005a.16.16,0,0,1-.04-.1l0,0a.32.32,0,0,1,0-.1c.012,0,.013-.039.024-.081s.032-.086.051-.09a.433.433,0,0,1,.054-.1l.007,0c.012-.037.071-.075.1-.1s.007-.016,0-.012a.771.771,0,0,1,.148-.083c.04-.008.017.008.029.012.058-.011-.013-.029.068-.023-.01,0-.027,0-.02.005a.128.128,0,0,1,.055.02.123.123,0,0,0,.052.02l-.017-.009a.128.128,0,0,1,.068.022c.025.015.045.03.055.018v-.013c.074.05.039.008.11.063h0c.035.017.042.042.07.032l-.009-.009a.837.837,0,0,1,.084.051c.005,0,.027.009.03.017.014-.017.1.048.118.061-.034-.017-.024,0-.021.014a.053.053,0,0,1,.062.03.068.068,0,0,1,.1-.019c-.01,0-.025-.006-.023,0s.018.01.023.01-.018,0-.018.015c.052,0,.062.034.119.055-.022,0-.012.013-.012.026.012-.014.023,0,.033.013s.021.032.026,0c.083.086.25.149.271.2,0,.02.043.013.061.022l-.012.015a.183.183,0,0,1,.059,0,.231.231,0,0,0,.061,0c-.035.008-.03.023-.015.052l.06-.016-.007.031a.071.071,0,0,1,.054.024.091.091,0,0,1,.067-.005c.019,0,.036.006.044,0,0,.048.053.01.05.054a.1.1,0,0,1,.028,0c0-.021,0-.042.017-.027h0l0,.027a.192.192,0,0,1,.049.009.068.068,0,0,1-.012-.019c.006.006.011.013.016.02l.006,0h0a.034.034,0,0,0,.036.013c.021.029.057.028.092.028s.081,0,.106.038c-.008-.009-.021-.015-.028-.007.057.014.1.067.144.056l0-.025a.375.375,0,0,1,.113.009l.009-.028c.046.022.163,0,.18.067.01-.012.032,0,.054.008a.118.118,0,0,0,.044.014l0,.023a.16.16,0,0,0,.084.012c.067.062.147.034.213.054v.006l.071,0c-.012.007-.007,0,0,0a.047.047,0,0,1,.034,0,.118.118,0,0,1,.085.035l.045.018c-.056-.007-.005.029-.01.052l.035-.006c.008.015-.024.01-.005.022a.149.149,0,0,1,.046.007.124.124,0,0,0,.06.006.054.054,0,0,0-.011-.024s0,0,0,0v0l0,0,.012,0c.034.025.025.01.028,0,.022.053.056.052.063.1,0-.022.019-.007.04.013s.044.048.047.022c0,.052.015.023.009.059a.171.171,0,0,0-.12-.076l.016.039c-.04.014-.055-.061-.082-.061a.047.047,0,0,1,.036.031l.007-.028a.151.151,0,0,0-.124-.039c.026.022-.044,0-.03.031l.024.006a.007.007,0,0,1,0,.009.487.487,0,0,1,.209.164c.01-.006.025,0,.038.01s.029.018.033.006c0,.027-.013.023.01.065.022.025.014-.045.014-.062.024.033.029.031.036.03-.018.045-.06.077-.082.05a.456.456,0,0,1,.014.053c0-.02.009-.008.014.012l-.008,0s0-.009,0-.013a.723.723,0,0,1,.011.208c-.026.319-.228.312-.428.3a1.264,1.264,0,0,0-.155,0c-.073.006-.146,0-.22,0l-.083.006c.019,0,.036,0,.016.006l.027,0c-.009,0-.084.007-.1.01l-.085,0s-.011,0,0,0c-.021,0-.039,0-.012,0C7404.563,2971.634,7404.46,2971.627,7404.359,2971.611Zm-1.29-.55c.009,0,.018,0,0-.01Zm2.605-.011a.055.055,0,0,0-.022-.055A.329.329,0,0,1,7405.674,2971.05Zm-.027-.066h0l0,0S7405.647,2970.982,7405.647,2970.984Zm-.051-.194Zm-.326-.066c0-.022.038-.039.011-.077a.07.07,0,0,0-.09,0,.11.11,0,0,1-.091.007c-.011,0,.028-.029-.027-.031a.184.184,0,0,0-.113.047l.205.045a.041.041,0,0,1-.015-.011.073.073,0,0,0,.061.006l-.033-.022C7405.208,2970.689,7405.224,2970.723,7405.27,2970.724Zm-.575-.115.043.009a.04.04,0,0,1,0-.026A.1.1,0,0,0,7404.695,2970.609Zm.6.007h0l-.016-.01Zm-.8-.055.052.012a.03.03,0,0,0,0-.013.553.553,0,0,0-.079-.086.208.208,0,0,0-.029.072l.051.013.017-.04Zm-.38-.118.074.028a.652.652,0,0,0,.083-.059l-.052.006-.005-.021A.221.221,0,0,0,7404.112,2970.442Zm-.295-.188.006-.006h0S7403.818,2970.25,7403.817,2970.254Zm-.161-.023.034.018a.119.119,0,0,1,.02-.038Zm.167.017Zm-.84-.437.011.007.016,0-.01,0,.024.016a.014.014,0,0,0,0-.017h-.013c.014,0,.024-.007.02-.014l-.058-.022A.242.242,0,0,1,7402.984,2969.812Zm.6,1.563v0A.014.014,0,0,1,7403.58,2971.375Zm59.48-.988.016,0-.015,0Zm2.751-.073c-.021,0-.008.013-.01.017a.54.54,0,0,1-.233-.125c-.009-.025.023-.013.006-.039,0,.028-.018.012-.037-.006s-.03-.031-.035-.021c.011-.043-.055-.083,0-.1-.017-.029-.037-.009-.036,0a.17.17,0,0,0-.074-.075c0-.025-.116-.14-.093-.2-.013.037-.015.007-.039,0l-.012.032-.025-.046c-.008-.008-.008-.011-.006-.012s.015-.007.009-.03-.031-.024-.053-.034v.007l-.015-.019c0-.006,0,0,.014,0s.035.015.024-.02c-.007,0-.055-.007-.045-.031.014.026.028.013.029,0l-.019-.037-.023.03c-.056-.105-.092-.226-.147-.34.022-.01-.036-.082,0-.087v.006c.017.026.02-.02,0-.04,0,.012-.008.009-.016.006s-.023-.009-.01.026c-.011-.012-.023-.025-.034-.039-.062,0-.046-.125-.088-.188,0,0,.006,0,.007,0a.942.942,0,0,1-.053-.157l.007-.009a.248.248,0,0,1-.054-.12s.006.007,0,0a.158.158,0,0,1-.036-.071h0l-.024-.069c.024-.007-.051-.115-.032-.143a.476.476,0,0,1-.037-.084s0,0,0-.006c-.021-.024-.019-.079-.026-.109s-.011-.009-.013,0c0-.042-.04-.1-.04-.12s.008-.013.013-.022-.012-.018-.017-.017-.01,0-.01-.03c0,.006.007.019.007.013,0-.023.027-.068.016-.089l0,.015c-.019-.039.013-.1-.013-.1l-.011.005c.005-.072-.01-.029-.006-.1h0c-.008-.03.009-.049-.015-.065l0,.012a.234.234,0,0,1,.005-.09c0-.006,0-.028.007-.032-.023-.01.026-.1.041-.115-.015.032,0,.022.015.02a.041.041,0,0,1,.03-.054.061.061,0,0,1,0-.1c0,.01-.011.023,0,.023s.013-.015.015-.02,0,.018.01.021c.009-.05.047-.048.087-.089-.009.019.007.016.018.022-.016-.037.08-.007.039-.042.055-.012.114-.036.176-.049a.174.174,0,0,1,.138.01c.005.01.02.007.035,0a.065.065,0,0,1,.03,0l-.008.018c.065-.016.045,0,.125,0-.039,0-.031.02-.021.051a.331.331,0,0,1,.063,0l-.015.029a.058.058,0,0,1,.041.041c.039-.008.077.055.1.058-.03.036.035.046,0,.074a.087.087,0,0,1,.022.017c.015-.015.035-.025.032,0l0,0-.022.013a.135.135,0,0,1,.022.034.061.061,0,0,1,.007-.018c0,.007,0,.014-.006.021a.012.012,0,0,1,0,.005l0,0a.024.024,0,0,0,.011.029c-.022.063.1.084.065.157,0-.01,0-.022-.011-.021.02.042.007.1.039.12l.022-.013a.282.282,0,0,1,.057.073l.026-.012c.009.042.091.1.05.148.025,0,.021.054.039.071l-.016.016a.111.111,0,0,0,.039.057c-.009.078.059.107.083.158l-.005,0,.041.042c-.023,0,.017,0,.02.021a.073.073,0,0,1,.025.065l.016.033c-.031-.029-.024.017-.043.031l.027.011c0,.006-.007.006-.012.005s-.009,0-.007.008c.019.007.039.048.065.05a.046.046,0,0,0,.007-.021s0,0,0,0v0h.011c.008.029.011.015.02.009-.015.044.009.052-.008.088.011-.017.018,0,.026.019s.017.036.029.018c-.018.038.005.017-.012.044-.006-.036-.046-.054-.072-.072l0,.034c-.041,0-.017-.061-.035-.069a.028.028,0,0,1,.01.035l.022-.02c-.008-.041-.042-.057-.069-.073,0,.014-.006.009-.016,0s-.021-.009-.026,0l.013.016a.007.007,0,0,1-.007.006q.056.1.107.194a.047.047,0,0,1,.032.008c.014.007.025.014.031,0,0,.02-.016.021.007.05s.011-.038.016-.051c.019.022.024.019.031.016-.018.035-.053.072-.075.055l.018.037c0-.01.008,0,.015.009l-.007,0a.005.005,0,0,1,0,0,2.512,2.512,0,0,1,.2.543,2.765,2.765,0,0,1,.023.393.452.452,0,0,1,0,.07c0-.016.006-.032.008-.015v-.022a.5.5,0,0,1,0,.083.371.371,0,0,1-.015.069s0,0,0,0,0,0,0,0c0,.017-.009.032,0,.01a.4.4,0,0,1-.406.27c-.012,0-.005.007,0,.01-.031-.013-.032.007-.051.009A.346.346,0,0,1,7465.812,2970.313Zm-.585-.578c.008,0,.016,0,0-.01Zm.837-.862a.044.044,0,0,0-.02-.039Zm-.025-.049h0l0,0Zm-.177-.34c.015-.016.052-.007.063-.046-.005-.078-.075-.022-.11-.1-.01,0,.039,0,.006-.035a.155.155,0,0,0-.1-.036c.028.049.058.1.086.147a.037.037,0,0,1,0-.015c0,.016.018.033.032.038l0-.033C7465.849,2968.427,7465.833,2968.458,7465.861,2968.484Zm.092-.062h0c0-.008,0-.014,0-.014A.131.131,0,0,1,7465.953,2968.422Zm-.325-.316a.045.045,0,0,1,.019-.017.089.089,0,0,0-.036-.014Zm-.1-.183.018.037s.009,0,.011-.008a.41.41,0,0,0,.021-.1.248.248,0,0,0-.072.026c.006.013.013.026.019.039l.042-.015Zm-.107-.239a.649.649,0,0,0,.095.015l-.035-.028.014-.015a.221.221,0,0,0-.1-.033Zm-.81-.258c-.008.016-.014.034-.021.05l.026-.008,0-.006a.086.086,0,0,1,0-.016l0,.011a.224.224,0,0,1,.015-.02.014.014,0,0,0-.016,0v.011c0-.011,0-.02-.01-.02Zm.716-.1.009,0,0,0S7465.334,2967.326,7465.331,2967.329Zm.009,0Zm-.146-.042.024.014a.322.322,0,0,1,.025-.037A.324.324,0,0,0,7465.195,2967.284Zm.308,2.855a.01.01,0,0,1,0,0Zm-15.569-.354v0A.012.012,0,0,1,7449.933,2969.785Zm-18.543-.5a.117.117,0,0,1,0,.016C7431.389,2969.3,7431.39,2969.291,7431.39,2969.286Zm12.113-.445h-.011a.248.248,0,0,1-.018-.03l-.025,0-.038,0-.025,0a.114.114,0,0,1,.023.017l-.028-.018-.009,0h.005a.071.071,0,0,0-.057-.007.242.242,0,0,0-.15-.008.29.29,0,0,1-.212-.027c.019.01.047.018.055.008a.755.755,0,0,1-.287-.133l-.012.024a.372.372,0,0,1-.156-.211l-.029,0a.983.983,0,0,1-.035-.23c0-.092.038-.184.085-.2,0-.02.021-.058.054-.092s.075-.062.1-.083l.026.008c.068-.037.1-.063.142-.086a2.341,2.341,0,0,0,.361-.1l0,.006.1-.04c-.023.025.018-.018.051-.021a.255.255,0,0,1,.13-.025l.068-.017c-.071.034.014.027.025.048l.038-.03c.021.006-.022.025.011.021.025-.02.111-.044.13-.074a.069.069,0,0,0-.032-.007s0,0,0,0h0a.056.056,0,0,0,.009-.012c.056-.01.033-.013.028-.022a.2.2,0,0,0,.079,0,.14.14,0,0,1,.069,0c-.047-.021.146-.04.1-.065.028.008.036.006.042,0s.009,0,.028,0a.471.471,0,0,0-.167.089l.057,0c-.021.046-.118.023-.144.044a.1.1,0,0,1,.069-.014l-.021-.022a.4.4,0,0,0-.173.081c.052,0-.053.035-.012.046l.038-.015s.007,0,.006.006q.152-.048.3-.1l-.026.005.013-.024.019.016.1-.036c0-.026.084-.065.054-.073a.088.088,0,0,1,.022,0c.015,0,.024,0,.07-.018.025-.019-.01-.015-.043-.012a.23.23,0,0,1-.039,0c.048-.026.045-.031.044-.039.052.014.1.046.063.074l.069-.026c-.013,0,0-.01.027-.02l0,.007,0,0c.44-.169.873-.357,1.308-.541a.323.323,0,0,0,.237-.379c-.012-.043-.025-.086-.038-.128.006.029.012.056,0,.027l.013.041c-.007-.012-.04-.128-.05-.151-.012-.043-.024-.087-.034-.132,0,0,0,0,0,0s0-.007,0,.007c-.008-.033-.016-.061-.007-.018a.893.893,0,0,1-.031-.246.4.4,0,0,1,.089-.236.52.52,0,0,1,.208-.145.387.387,0,0,1,.254-.026c.024,0,.012,0,0-.009.06.03.063.012.1.024a.5.5,0,0,1,.067.067c.034.016.016-.007.021-.009a1.563,1.563,0,0,1,.322.349c.013.043-.027,0,0,.056,0-.045.023,0,.048.038s.04.066.043.056c0,.067.067.191.006.185.015.065.039.047.039.027a.869.869,0,0,0,.067.2,1.631,1.631,0,0,1,.039.419c.022-.045.016.006.036.046l.021-.044.013.1c.007.019.006.025,0,.026,0,.016-.016,0-.016.042a.166.166,0,0,0,.049.1l0-.011c0,.014.007.029.012.043s-.006,0-.016-.018-.032-.045-.026.019c.008,0,.058.052.046.085-.012-.053-.029-.042-.032-.02l.02.077.026-.035a3.933,3.933,0,0,1,.115.722c-.01,0-.01.039-.011.079s0,.089-.021.078l0-.01c0-.061-.027.018-.022.067,0-.021.011-.009.017,0s.017.035.021-.036l.014.095c.029.026.028.093.011.176a.561.561,0,0,1-.118.244c.008-.01.008-.014.008-.016a.327.327,0,0,1-.188.115c-.064.014-.114.016-.129.021l-.013-.009a.469.469,0,0,1-.125.016.393.393,0,0,1-.142-.034h0s.01,0-.005-.007a.256.256,0,0,1-.144-.082h0a.536.536,0,0,1-.093-.118c.011-.006-.025-.057-.054-.119a.367.367,0,0,1-.047-.155,1.326,1.326,0,0,1-.062-.169s0,0,0-.011a1.248,1.248,0,0,1-.052-.212c-.013-.037-.013-.02-.013,0a.5.5,0,0,0-.04-.131c-.02-.04-.042-.07-.046-.081-.026-.042,0-.021,0-.037-.024-.028-.029-.018-.032-.015s-.006,0-.037-.024c.009,0,.024.012.02.007a.3.3,0,0,0-.05-.042.083.083,0,0,0-.072-.008.123.123,0,0,1,.027,0c-.065.015-.174.049-.167.078l.012.005c-.113.072-.041.041-.158.117v0c-.048.038-.084.043-.1.08l.019-.01a1.258,1.258,0,0,1-.132.09.128.128,0,0,1-.048.032c.008.02-.148.1-.18.116.045-.029.028-.028.01-.028h-.008a.122.122,0,0,1-.094.058c.007.03.012.064-.075.112.012-.012.032-.025.021-.026s-.029.016-.036.021.015-.021,0-.025c-.048.056-.1.052-.187.1.024-.022,0-.017-.017-.023.007.039-.134.02-.082.053a4.31,4.31,0,0,1-.528.156c-.024-.009-.065.033-.1.044v-.02c-.075.063-.063.035-.152.1.034-.037.013-.041-.035-.044l-.056.063-.023-.025a.188.188,0,0,1-.09.034c-.017.042-.124.078-.134.1-.019-.017-.032-.007-.05.005s-.054.032-.074.017a.133.133,0,0,1-.056.025c.021.015.033.033.006.033Zm-.361-.106a.328.328,0,0,0,.136-.069l-.129-.01c-.043.027-.083.054-.108.071.029,0,.056-.008.083-.012Zm.688-.077c.014-.005,0-.005,0-.01A.039.039,0,0,1,7443.83,2968.659Zm.16-.122a.078.078,0,0,1,.015.042l.043-.062Zm-1.306-.174a.224.224,0,0,0-.008.1.257.257,0,0,0,.021.086.1.1,0,0,0,.07-.033.354.354,0,0,1-.043-.073l-.044.008.04-.018a.45.45,0,0,1-.025-.082h0A.025.025,0,0,0,7442.684,2968.364Zm2.516-.252.081-.057a.354.354,0,0,1-.042,0l-.019.01-.018.017.007-.011-.042.021s.007.007.021,0l.013-.013C7445.193,2968.1,7445.188,2968.113,7445.2,2968.112Zm-2.484-.006a.326.326,0,0,1,.035-.058c-.009,0-.023,0-.028,0A.132.132,0,0,0,7442.715,2968.106Zm.478-.36a.31.31,0,0,0-.139.113c.076-.025.156-.046.236-.066l.086-.023a.089.089,0,0,1-.022,0,.175.175,0,0,0,.091-.032h-.061c.046-.013.091.005.157-.024-.017-.017.024-.058-.035-.071-.139,0-.093.08-.254.113-.006,0,0,0,0-.01s0-.011-.014-.011A.12.12,0,0,0,7443.193,2967.746Zm.306-.135v0C7443.473,2967.611,7443.459,2967.61,7443.5,2967.61Zm.456-.054Zm.3-.062.006,0h0Zm-.271,0Zm.3-.01.077-.029A.163.163,0,0,0,7444.28,2967.484Zm2.947-.466,0-.016s-.007-.008-.009-.008S7447.22,2967,7447.228,2967.018Zm-23.719,1.686-.009,0Zm37.042-.513,0,0Zm-11.692-.52a.667.667,0,0,1-.086-.006c.1-.005-.006-.029,0-.054l-.048.012c-.016-.014.032-.013,0-.024a.288.288,0,0,1-.073,0,.256.256,0,0,0-.085,0,.078.078,0,0,0,.026.024s0,0,0,0l0,0,0,0-.016.005c-.06-.025-.04-.009-.041,0-.054-.055-.1-.06-.131-.119.009.027-.026.005-.06-.029s-.066-.086-.068-.051c-.006-.072-.021-.039-.014-.087a.256.256,0,0,0,.17.149.406.406,0,0,1-.034-.053c.027,0,.047.02.071.041s.047.043.065.043a.087.087,0,0,1-.063-.038v.032a.269.269,0,0,0,.195.038c-.047-.02.063-.007.031-.035l-.038,0s0-.008,0-.01a.585.585,0,0,1-.169-.062h0l0,0a.314.314,0,0,1-.143-.172c-.013,0-.026-.016-.038-.032s-.028-.043-.036-.026c0-.038.021-.026.006-.093-.02-.04-.025.055-.032.076-.016-.052-.022-.049-.03-.05.028-.045.077-.082.1-.045,0-.021,0-.043-.008-.064,0,0-.009-.012-.012-.034l.007,0c-.022-.188-.044-.376-.063-.568,0,0,0,0,0,0v0c-.04-.389-.077-.789-.122-1.221,0-.01.017-.062.034-.126-.012.027-.024.055-.02.024l-.007.04c0-.014.025-.125.023-.15a.525.525,0,0,0,.014-.122s0,0,0,0-.006-.007-.006.006c0-.031-.006-.058-.008-.017a.651.651,0,0,1,.021-.244.277.277,0,0,1,.209-.154.355.355,0,0,1,.261.021.3.3,0,0,1,.135.226c.007.021.012.007.015,0-.009.063.023.055.031.087s-.015.058-.022.086c.009.021.016.016.021.011s0,0,.007,0a.716.716,0,0,0,.138.365c.009.04-.031.008-.007.054,0-.042.024-.008.051.026s.044.057.047.04c0,.065.1.161.035.173.03.056.05.032.045.013a1.281,1.281,0,0,0,.106.174.677.677,0,0,0,.021.074c.009.03.013.056.02.08a.061.061,0,0,0,.05.049.114.114,0,0,1,.052.012c-.028-.024,0-.018.028-.04a.057.057,0,0,1-.029-.021l.032-.008c.023-.005.036-.006.053-.009s.024-.006.025,0,.008,0,.011.008.01.008.03.008a.165.165,0,0,0,.1-.046l-.01,0,.043-.01c.017,0-.011.009-.029.021s-.025.024.028.021c0-.008.055-.054.086-.04-.054.008-.043.026-.022.03l.075-.011-.032-.03c.216-.035.445-.05.675-.089,0,.011.036.007.072,0s.085-.01.077.009l-.009,0c-.048.011,0,.02.045.014l.021,0c-.05,0,.08-.046-.038-.031l.087-.029c.04-.064.243-.032.377-.071-.009,0-.012.006-.012.008.119-.032.275-.032.3-.044l.012.008a.9.9,0,0,1,.239-.052s-.015.007,0,.005a.537.537,0,0,1,.143-.036l0,0,.133-.025c0,.012.059,0,.124-.007a.357.357,0,0,1,.152.006c.027-.006.124-.009.167-.016,0,0,0,0,.011,0a.4.4,0,0,1,.215.027c.039.012.025,0,.01-.01a.548.548,0,0,1,.128.082.269.269,0,0,1,.068.09c.014.036.009.036,0,.036s-.006,0-.006.006c.013.037.02.036.024.035s.009,0,.018.06c0-.013-.011-.037-.01-.027.009.045-.02.124-.013.165l0-.028a.287.287,0,0,1-.012.122c-.011.037-.022.064-.012.074l.013,0c-.027.065-.038.076-.042.091a.193.193,0,0,1-.066.078v0c-.045.045-.083.044-.1.077l.021-.007a.54.54,0,0,1-.149.052.127.127,0,0,1-.051.015c0,.021-.16.055-.191.062.055-.019.026-.021.008-.026a.112.112,0,0,1-.1.034c0,.031,0,.065-.089.093.013-.009.034-.017.023-.021s-.03.009-.036.013.017-.017,0-.025c-.054.046-.1.031-.189.065.025-.017,0-.017-.013-.026,0,.019-.031.019-.057.018s-.049,0-.026.019a4.384,4.384,0,0,1-.515.079c-.021-.012-.065.023-.1.03v-.02c-.079.051-.063.025-.158.08.038-.031.018-.038-.027-.049l-.062.053-.019-.028a.169.169,0,0,1-.09.018c-.021.038-.124.055-.138.079-.02-.018-.039-.011-.057,0s-.036.015-.051,0a.166.166,0,0,1-.033.024c.019.016.028.035,0,.033l-.006,0-.018-.023a.416.416,0,0,1-.074.027.142.142,0,0,1,.031.006l-.037,0-.01,0,.006,0a.09.09,0,0,0-.061.013.293.293,0,0,0-.148.03.269.269,0,0,1-.2.02c.018,0,.043.005.05,0a.522.522,0,0,1-.142-.009.336.336,0,0,0-.12-.008v.026a.967.967,0,0,1-.17,0l0,.029a.378.378,0,0,0-.126.008c-.038.009-.053.012-.075-.01.005.023-.031.01-.034.038l-.023,0a.127.127,0,0,0-.011.086.21.21,0,0,0-.021.069.763.763,0,0,0,.006.079.279.279,0,0,1-.073.249l-.006,0a.452.452,0,0,1-.117.105c.026-.035-.02.027-.065.035a.22.22,0,0,1-.11.026A.231.231,0,0,1,7448.859,2967.671Zm.066-.019c.034,0,.052,0,0,0Zm-.026-.109c.016.019-.039.053.025.075a.144.144,0,0,0,.137-.056c.024-.034.05-.062.112-.134,0-.009,0,0,.011.007s.024,0,.041-.053a.159.159,0,0,0-.015-.11.23.23,0,0,0-.048-.066c0,.027,0,.053.008.083a.217.217,0,0,1-.128.194.131.131,0,0,1,.032-.01.288.288,0,0,0-.08.051.356.356,0,0,0,.061-.012C7449.009,2967.536,7448.965,2967.523,7448.9,2967.543Zm-.573-.325.005.011,0-.01h0Zm0-.018c0-.007,0-.013,0-.02l-.007-.06A.12.12,0,0,0,7448.326,2967.2Zm1.783-.374-.086.093.075-.029.021.015a.276.276,0,0,0,.112-.1C7450.189,2966.814,7450.149,2966.821,7450.109,2966.826Zm-.56,0a1.233,1.233,0,0,0,.142.075.139.139,0,0,0,.022-.075l-.079-.008-.013.043v-.044l-.082,0A.03.03,0,0,0,7449.549,2966.83Zm-.295.058c.009,0,.021,0,.025.012l.031-.049A.226.226,0,0,0,7449.254,2966.888Zm1.5-.121c.015,0,.006,0,0-.01A.019.019,0,0,1,7450.754,2966.767Zm.169-.095a.091.091,0,0,1,.009.046l.05-.056Zm1.194-.223.086-.035-.041-.007-.016,0-.022.013.01-.01-.044.011s.006.008.02.009l.015-.01C7452.112,2966.438,7452.1,2966.448,7452.117,2966.449Zm-2.624-.57-.016,0C7449.469,2965.884,7449.461,2965.892,7449.493,2965.879Zm-1,1.57h0Zm-1.473-1.4a.022.022,0,0,1,0,.006S7447.017,2966.051,7447.017,2966.049Zm2.029-.681v0Z" transform="translate(-7135 -2778)" fill="#2a4c24" stroke="#2a4c24" stroke-linecap="round" stroke-linejoin="round" stroke-miterlimit="10" stroke-width="0.4"/>
  </g>
</svg>
