<svg id="RWD_button_Button1-4_" data-name="RWD_button/Button1-4/" xmlns="http://www.w3.org/2000/svg" width="140" height="86" viewBox="0 0 140 86">
  <g id="组件_87_16" data-name="组件 87 – 16">
    <path id="路径_442" data-name="路径 442" d="M1541.625-37.533c-6.282.815-1.759-.511-.374-.613.5-.036,1.246-.214,2.161-.327a11.649,11.649,0,0,0,.64-3.444c0-.052,0-.1,0-.15-1.761.138-4.253.355-7.517.715-9.475,1.046-2.286-.347.751-.864a24.471,24.471,0,0,1,3.859-.339c.25-.05.518-.093.808-.124.055-.006.112-.009.17-.011l1.925-.045c0-.364-.015-.72-.038-1.063-.576,0-.927,0-.927,0s.022-.17.9-.373a15.36,15.36,0,0,0-.351-2.209c-3.665.3-8.77.708-9.941.975-.218.05,7.376.783,7.105.776-2.748-.077-21.376.708-15.031-.877a2.644,2.644,0,0,1,.445-.067c1.495-.107,9.629-.682,17.365-1.031-1.526-5.94-2.347-9.318-5.464-13.534-3.742.692-15.261,2.5-15.261,2.5s-7.3-.629-3.256-1.486a91.712,91.712,0,0,1,17.695-2.387,67.205,67.205,0,0,0-5.878-6.338l-11.05,1.328a3.414,3.414,0,0,1-.569-.009c3.226.326,12.031-1.358,11.62-1.32-.19-.4-1.064-.84-1.241-1.273-2.262.174-9.975.965-13.961,1.429-10.333,1.2-4.531-1.311-.2-1.43.033,0,.065,0,.1,0,.472.021,8.868-.031,14.057,0-1.323-1.829-1.489-3.022-2.718-4.232a3.685,3.685,0,0,1-.958.318c-5.182,1.268-24.677,1.2-17.368.482,2.987-.294,17.045-1.367,18.286-.967-.232-.989-2.1-3.1-2.992-3.831-26.954-22.17-96.679-15.923-100.086,19.306-2.37,24.515,32.434,33.566,62.28,35.582s51.143-2.118,56.508-15.226C1542.645-37.652,1542.154-37.6,1541.625-37.533Z" transform="translate(-1414.217 99.297)" fill="#dcdcc3"/>
    <path id="路径_443" data-name="路径 443" d="M1563.031-30.617c-7.645.929-1.1-.706.589-.822,1.035-1.9,2.328-4.371,2.329-4.43-1.7.125-.351-.508,0-.544.066-.006-4.337,0-4.267,0l4.267-.75c0-.415.608-3.089.409-3.871a31.576,31.576,0,0,0-7.127,1.274c-.265.056,6.051.558,5.721.55-3.344-.088-29.663,3.937-21.942,2.13.156-.036,11.006-2.667,11.2-2.68,1.819-.123,2.731-1.2,12.143-1.6-.933-6.559-3.635-10.187-6.5-15.629-4.552.788-9.41,1.461-9.41,1.461s1.578-1.381,9.41-1.461c-1.534-2.73-3.287-4.16-5.013-7.434l-11.832.613a4.577,4.577,0,0,1-.693-.011c-1.1-.1,6.978-.651,11.9-1.073-.231-.461-1.146-1.485-1.361-1.978-2.752.2-24.568,3.616-29.417,4.145-12.574,1.369,9.009-3.91,14.287-4.045.041,0,.08,0,.12,0,.574.023,8.7-.135,15.01-.1-1.413-1.336-4.258-3.786-4.981-4.266a7.155,7.155,0,0,1-1.131.252c-6.3,1.443-26.293,1.024-17.4.205,3.635-.335,17.019-.913,18.53-.457-4.408-2.433-13.252-11.78-39.3-12.74s-60.921,12.014-63.359,33.013S1458-24.02,1499.81-20.1,1558.227-23.276,1563.031-30.617Z" transform="translate(-1435.964 90.924)" fill="#ffffe2"/>
    <text id="十週年" transform="translate(35.438 48.181)" fill="#2a4c24" stroke="#2a4c24" stroke-miterlimit="10" stroke-width="1" font-size="28" font-family="meiyifont-Proportional, meiyifont Proportional"><tspan x="0" y="0">十週年</tspan></text>
    <rect id="矩形_379" data-name="矩形 379" width="140" height="86" fill="none"/>
  </g>
  <path id="路径_442-2" data-name="路径 442" d="M1541.625-37.533c-6.282.815-1.759-.511-.374-.613.5-.036,1.246-.214,2.161-.327a11.649,11.649,0,0,0,.64-3.444c0-.052,0-.1,0-.15-1.761.138-4.253.355-7.517.715-9.475,1.046-2.286-.347.751-.864a24.471,24.471,0,0,1,3.859-.339c.25-.05.518-.093.808-.124.055-.006.112-.009.17-.011l1.925-.045c0-.364-.015-.72-.038-1.063-.576,0-.927,0-.927,0s.022-.17.9-.373a15.36,15.36,0,0,0-.351-2.209c-3.665.3-8.77.708-9.941.975-.218.05,7.376.783,7.105.776-2.748-.077-21.376.708-15.031-.877a2.644,2.644,0,0,1,.445-.067c1.495-.107,9.629-.682,17.365-1.031-1.526-5.94-2.347-9.318-5.464-13.534-3.742.692-15.261,2.5-15.261,2.5s-7.3-.629-3.256-1.486a91.712,91.712,0,0,1,17.695-2.387,67.205,67.205,0,0,0-5.878-6.338l-11.05,1.328a3.414,3.414,0,0,1-.569-.009c3.226.326,12.031-1.358,11.62-1.32-.19-.4-1.064-.84-1.241-1.273-2.262.174-9.975.965-13.961,1.429-10.333,1.2-4.531-1.311-.2-1.43.033,0,.065,0,.1,0,.472.021,8.868-.031,14.057,0-1.323-1.829-1.489-3.022-2.718-4.232a3.685,3.685,0,0,1-.958.318c-5.182,1.268-24.677,1.2-17.368.482,2.987-.294,17.045-1.367,18.286-.967-.232-.989-2.1-3.1-2.992-3.831-26.954-22.17-96.679-15.923-100.086,19.306-2.37,24.515,32.434,33.566,62.28,35.582s51.143-2.118,56.508-15.226C1542.645-37.652,1542.154-37.6,1541.625-37.533Z" transform="translate(-1414.217 99.297)" fill="#dcdcc3"/>
  <path id="路径_443-2" data-name="路径 443" d="M1563.031-30.617c-7.645.929-1.1-.706.589-.822,1.035-1.9,2.328-4.371,2.329-4.43-1.7.125-.351-.508,0-.544.066-.006-4.337,0-4.267,0l4.267-.75c0-.415.608-3.089.409-3.871a31.576,31.576,0,0,0-7.127,1.274c-.265.056,6.051.558,5.721.55-3.344-.088-29.663,3.937-21.942,2.13.156-.036,11.006-2.667,11.2-2.68,1.819-.123,2.731-1.2,12.143-1.6-.933-6.559-3.635-10.187-6.5-15.629-4.552.788-9.41,1.461-9.41,1.461s1.578-1.381,9.41-1.461c-1.534-2.73-3.287-4.16-5.013-7.434l-11.832.613a4.577,4.577,0,0,1-.693-.011c-1.1-.1,6.978-.651,11.9-1.073-.231-.461-1.146-1.485-1.361-1.978-2.752.2-24.568,3.616-29.417,4.145-12.574,1.369,9.009-3.91,14.287-4.045.041,0,.08,0,.12,0,.574.023,8.7-.135,15.01-.1-1.413-1.336-4.258-3.786-4.981-4.266a7.155,7.155,0,0,1-1.131.252c-6.3,1.443-26.293,1.024-17.4.205,3.635-.335,17.019-.913,18.53-.457-4.408-2.433-13.252-11.78-39.3-12.74s-60.921,12.014-63.359,33.013S1458-24.02,1499.81-20.1,1558.227-23.276,1563.031-30.617Z" transform="translate(-1435.964 90.924)" fill="#fdfee2"/>
  <rect id="矩形_379-2" data-name="矩形 379" width="140" height="86" fill="none"/>
  <g id="组_752" data-name="组 752" transform="translate(-252.874 -80.357)">
    <path id="联合_18" data-name="联合 18" d="M79.548,28.842c-.119-.073-.095-.079-.086-.082s0-.008-.131-.118c.084.085.078.086.019.051a.671.671,0,0,1-.118-.1.469.469,0,0,1-.118-.2.658.658,0,0,1,.053-.41c.022-.063.031-.1.016-.077.184-.287.4-1.07.43-.912.125-.373.061-.321.023-.215a8.872,8.872,0,0,0,.3-1.158c.088-.23.43-1.98.6-2.4-.093.225-.01-.054.035-.311l-.095.226c.049-.2.1-.392.149-.586a.641.641,0,0,1,.041-.152c.028-.1.014.029.093-.22a5.591,5.591,0,0,0,.148-.644l-.024.059.08-.268c.025-.082,0,.027-.026.136-.033.153-.062.305.064-.065a2.228,2.228,0,0,1,.149-.565c-.109.324-.069.292-.02.176l.153-.454-.1.135q.328-.977.716-1.974.193-.5.4-1l.209-.5a4.265,4.265,0,0,0,.19-.5,2.852,2.852,0,0,0,.16-.468c.073-.237.177-.451.172-.379l-.027.05c-.122.343.053-.094.211-.341-.086.128-.024,0,.012-.069.014-.031.022-.047,0-.031a.436.436,0,0,0-.049.062,1.69,1.69,0,0,0-.111.183c.019-.045.045-.088.068-.132s.058-.095.067-.113l.047-.071a.338.338,0,0,0,.043-.059c-.044.007-.082.012-.117.015l-.05,0h-.025s-.036,0-.055,0c-.172-.011-.381-.031-.606-.058-.451-.053-.969-.132-1.4-.2a.411.411,0,0,0,.085.006,9.925,9.925,0,0,1-1.162-.238c-.349-.093-.621-.182-.709-.206l-.061-.034a1.762,1.762,0,0,1-.685-.261.387.387,0,0,1-.1-.348,1.579,1.579,0,0,1,.163-.465c0,.01-.043.1.019-.017a.749.749,0,0,1,.211-.271.812.812,0,0,1,.595-.141l-.023,0a7.269,7.269,0,0,1,.84.129,5.644,5.644,0,0,0,.736.16c.388.072.81.105.935.127h.2l.1,0c.048.01.01-.029,0-.053l-.07-.12-.075-.136c-.049-.087-.088-.169-.12-.23a.415.415,0,0,0-.025-.06,6.646,6.646,0,0,1-.456-1.219c-.068-.226-.047-.126-.025-.025-.058-.226-.137-.538-.195-.817s-.1-.525-.1-.61c-.025-.219-.017-.209-.009-.2s.01.01.01-.023c-.027-.253-.034-.229-.042-.229s-.007,0-.013-.052a2.092,2.092,0,0,1-.02-.316.643.643,0,0,0,.015.175,1.094,1.094,0,0,1,0-.237.525.525,0,0,1,.112-.267.876.876,0,0,1,.446-.24.851.851,0,0,0-.171.047.6.6,0,0,1,.388-.057.434.434,0,0,1,.179.1.694.694,0,0,1,.115.149,2.29,2.29,0,0,1,.125.272.461.461,0,0,0,.071.133l0-.047c.314.751.151.311.463,1.074l-.007-.008a5.879,5.879,0,0,0,.3.667l-.044-.115c.177.41.19.447.363.867.023.048.113.249.13.31.036.008.417.969.492,1.156-.141-.33-.089-.168-.063-.068a1.3,1.3,0,0,0,.148.233.532.532,0,0,0,.255.169.258.258,0,0,1,.127-.047c.039-.008.092-.017.167-.037.034-.011.085-.023.144-.037s.124-.028.2-.039c-.091.019-.233.054-.173.051s.2-.035.243-.046-.128.036-.061.042a5.417,5.417,0,0,1,1.257-.081c-.18.014-.025.023.04.04a1.105,1.105,0,0,1,.344-.009c.174.008.325.016.212-.02a4.3,4.3,0,0,0,.89-.082,1.263,1.263,0,0,1,.528,0,1.01,1.01,0,0,1,.468.244c.546.52.2,1.331-.1,1.331-.063.017-.181.046-.292.067s-.235.054-.33.07l.021-.031c-.523.141-.409.093-1.029.253.255-.079.143-.073-.123-.056q-.211.065-.427.123l-.09-.032a3.07,3.07,0,0,1-.577.056,2.081,2.081,0,0,1-.464.053h-.229a.655.655,0,0,0-.069,0c-.044,0-.072.022-.074.04-.026,0-.042.027-.052.056a1.717,1.717,0,0,0-.035.173.737.737,0,0,1-.106.31c-.013.066-.034.149-.061.237.059-.081.1-.1.023.061l-.014.04-.063.058c-.06.171-.124.34-.166.451.023-.049.05-.1.083-.161l-.095.192-.022.059a.279.279,0,0,1,.011-.036l-.033.074-.027.069a.316.316,0,0,0-.02.086.669.669,0,0,0-.049.134l-.008.035,0,.017s0,.007,0,.007l.007-.005c.02-.014.039-.032.061-.045a.545.545,0,0,1,.08-.045.322.322,0,0,1,.04-.015l.02-.006.01,0,.029,0a.965.965,0,0,1,.456.08,2.586,2.586,0,0,1,.355.189l.155.095c.054.034.107.069.158.106a1.191,1.191,0,0,0-.255-.138c.119.064.255.142.377.214s.241.152.348.232c.219.154.41.3.563.41l0-.045a4.09,4.09,0,0,1,.823.788l.045-.01a5.089,5.089,0,0,1,.554.915,2.34,2.34,0,0,1,.234.881,1.86,1.86,0,0,1,.081.437c.007.1.014.205.02.3s.008.187.014.259l-.028.075c0,.373.01.6.014.827-.081.754-.08,1.451-.146,2.1l-.009.005-.043.662c-.01-.175.006.132-.02.329,0,.105-.014.243-.028.384-.007.068-.018.148-.031.227a1.347,1.347,0,0,1-.063.22,1.311,1.311,0,0,1-.226.436c.182-.31.107-.2.018-.1-.047.056-.1.111-.118.106a1.283,1.283,0,0,1-.206.218c-.047.024-.026,0,0-.021s.062-.057-.04.01a1.508,1.508,0,0,1-.423.222c-.177.065-.354.1-.445.13a.854.854,0,0,0,.188-.008c.023-.007.021-.006.007,0l.02,0-.024,0-.076.027c-.186.026-.243.022-.253.028s.027.01.034.017c-.212-.011-.367-.034-.511-.053-.071-.013-.14-.027-.208-.044-.052-.016-.1-.033-.157-.055.1.046-.1,0-.315-.067-.236-.075-.477-.2-.372-.114-.126-.084-.17-.109-.2-.127a.462.462,0,0,1-.128-.095,2.758,2.758,0,0,0,1.094.374c-.1-.031-.205-.071-.305-.11a3.456,3.456,0,0,1,.453.1,1.678,1.678,0,0,0,.448.06,1.309,1.309,0,0,1-.422-.05l.074.052a1.967,1.967,0,0,0,.638.013,2.055,2.055,0,0,0,.513-.155c-.151.041-.061.009.033-.038s.19-.11.084-.074a1.747,1.747,0,0,1-.223.092c-.032.005-.033,0-.02-.007a2.512,2.512,0,0,1-.264.066,3.221,3.221,0,0,1-2.188-.546.743.743,0,0,1-.225-.134c-.117-.093-.207-.209-.165-.122a.949.949,0,0,1-.094-.184,3.4,3.4,0,0,1-.144-.342c-.044-.136-.04-.049,0,.087a2.264,2.264,0,0,0,.143.355c-.091-.141-.13-.218-.153-.257s-.028-.04-.035-.043a.61.61,0,0,1,.007-.339c.025-.048.042-.022.076.1a.729.729,0,0,1,.035-.434c-.017.034-.019.038-.014.014a.6.6,0,0,1,.1-.19l.018,0-.016.024a.908.908,0,0,1,.1-.112c.351-.347.756-.119,1.115.033.176.075.3.267.466.376.387.254.644.191.607-.323-.073-1.068.336-2.076.251-3.177a3.975,3.975,0,0,0-2.017-3.439,1.516,1.516,0,0,1-.777-.612l-.007.025.037.057s0,0,.007.011.016.031-.045-.064l-.034.129-.025.064.058-.194-.01-.015-.233.744c.06-.17.118-.335.066-.15l.072-.245c-.017.083-.231.768-.263.912l-.245.768c0-.009,0,0,0,.017s0,.043.02-.034c-.057.191-.105.358-.023.11-.293.918-.582,1.85-.861,2.782l-.419,1.392c-.068.23-.146.462-.209.687a6.776,6.776,0,0,0-.138.692c-.014.127.007.055.021.008a2.1,2.1,0,0,0-.045.524c-.038.168-.078.337-.128.5-.021.142,0,.115.009.088s.014-.025.015-.02a3.106,3.106,0,0,1-.229.706,2.606,2.606,0,0,1-.181.323,1.72,1.72,0,0,1-.24.279,1.341,1.341,0,0,1-.624.341,1,1,0,0,1-.229.026A1.075,1.075,0,0,1,79.548,28.842Zm4.773-1.9.026.025-.023-.025h0Zm-.134-.175a.651.651,0,0,0,.068.089.773.773,0,0,1-.046-.064,1.7,1.7,0,0,1-.185-.409A1.168,1.168,0,0,0,84.187,26.769Zm3.856-.141c.016.049.035.1.084-.109.116-.8-.015-.671.085-1.646,0-.03,0-.019.008-.007s.032.047.053-.306a5.529,5.529,0,0,0-.03-.982c-.034.67-.1,1.336-.16,2,.008-.06.016-.108.023-.14a4.219,4.219,0,0,0-.041.572l.051-.351c-.026.287-.085.509-.108.935,0-.008.007-.011.011-.011S88.036,26.607,88.043,26.628Zm.13-.095v.011l.021-.154S88.188,26.431,88.173,26.533Zm-7.518-4.079c-.006.06-.012.12.032-.09ZM88.2,21.421c0-.038.009-.088.023-.073a1.793,1.793,0,0,0-.1-.339C88.151,21.142,88.177,21.279,88.2,21.421Zm-1.375-2.576a4.681,4.681,0,0,1,.355.355c.029,0,.058,0,.086.005l-.04.048a4.334,4.334,0,0,1,.311.406.132.132,0,0,0-.015-.054c-.019-.039-.054-.108-.1-.188s-.113-.169-.174-.255l-.18-.225-.1-.11a.148.148,0,0,0-.067-.018A.1.1,0,0,0,86.823,18.845Zm-2.968-.363.01.014.007-.024-.009-.014Zm.214-.732a.742.742,0,0,1,.656-.2.853.853,0,0,1,.087.006,3.24,3.24,0,0,1,.49.135,2.621,2.621,0,0,0-.442-.192.8.8,0,0,0-.119-.059.561.561,0,0,0-.488.151,1.578,1.578,0,0,0-.128.107l-.034.029s0-.011,0-.016,0-.014,0-.021C84.079,17.71,84.073,17.729,84.07,17.751Zm1.7-2.232c.088-.006.038-.006.031-.014A.106.106,0,0,1,85.774,15.518ZM86.9,15.3c.025.022.043.041.015.062l.338-.121ZM84.338,13.82a.686.686,0,0,0-.1-.048.405.405,0,0,1-.095-.042c.086.04.142.04.084.013a.5.5,0,0,1-.206-.168,1.355,1.355,0,0,1-.128-.251c.017.049.033.119.063.2a.686.686,0,0,0,.087.131.557.557,0,0,0,.1.08.5.5,0,0,1-.051-.03A.524.524,0,0,0,84.338,13.82Zm-73.051,14c-.059-.008-.075-.012-.074-.016-.048-.013.015-.018-.1-.06-.094-.031-.145-.045-.186-.057a.763.763,0,0,1-.128-.038l.025.023a.872.872,0,0,1-.123-.08c-.042-.037.038.024.1.043s.091.029-.041-.071a.28.28,0,0,1-.109-.052.322.322,0,0,1-.121-.143c.051.076.083.1.1.1s0-.02-.013-.05a.738.738,0,0,1-.118-.21.573.573,0,0,0-.011.095.97.97,0,0,1-.086-.521.96.96,0,0,1,.172-.5.736.736,0,0,1,.462-.287,1.183,1.183,0,0,1,.523.035c-.012.031.44.13.375.157l-.023-.01c-.155-.036.035.049.164.071-.129-.044.246.01-.073-.071.084.014.168.024.252.035a1.3,1.3,0,0,1,.434.04,2.333,2.333,0,0,0,.612.029.087.087,0,0,0-.036.01c.169-.016.356-.038.511-.068a1.641,1.641,0,0,0,.311-.08l.033,0a1.364,1.364,0,0,1,.307-.111,1.511,1.511,0,0,1,.371-.022c-.005,0-.046.005.01.009a2,2,0,0,1,.412.013l-.01,0a.938.938,0,0,0,.356-.021c0,.008.041,0,.086-.029a.285.285,0,0,0,.109-.177c.038-.162.019-.353.038-.41-.011-.073-.021-.348-.033-.47a.086.086,0,0,0,0-.029c-.025-.143-.02-.416-.035-.575-.014-.1-.016-.058-.019-.012,0-.207-.078-.564-.08-.639-.011-.1,0-.093,0-.089s.009,0,.01-.011c-.015-.1-.024-.1-.031-.1s-.013,0-.026-.158c.007.035.016.1.015.073-.012-.114.011-.325-.015-.437l0,.077a3.959,3.959,0,0,0-.076-.525l-.013.022c-.038-.36-.032-.15-.077-.514l0,0a1.052,1.052,0,0,0-.07-.317l.007.055c-.038-.2-.041-.212-.079-.411a.718.718,0,0,1-.031-.146,3.121,3.121,0,0,1-.126-.545c.038.155.035.079.039.032a.6.6,0,0,1-.069-.282c-.045-.01-.1-.027-.154-.278.015.038.032.1.035.071a.29.29,0,0,0-.027-.1c0-.013.009,0,.016.012s.016.026.022.01a4.293,4.293,0,0,1-.141-.53c.034.072.026,0,.034-.026-.055-.005-.045-.341-.088-.232-.094-.48-.4-1.181-.412-1.383,0-.056-.073-.176-.1-.259l.03,0c-.119-.218-.076-.174-.2-.439.063.107.064.054.06-.067l-.1-.179.035-.047a.79.79,0,0,1-.052-.254.217.217,0,0,1-.033-.062c-.012-.036-.027-.079-.042-.121a.367.367,0,0,0-.1-.157c.015-.1-.133-.161-.126-.244a.676.676,0,0,1-.085-.065c.007.049-.007.08-.048.012l-.012-.013,0-.05a1.458,1.458,0,0,1-.152-.168c.013.023.026.052.039.081-.019-.031-.034-.064-.049-.094l-.018-.025.012.014a.839.839,0,0,0-.1-.159c-.057-.153-.114-.305-.175-.471a.8.8,0,0,1-.046-.289.492.492,0,0,1,.117-.3.284.284,0,0,0-.068.163.564.564,0,0,1,.122-.228.772.772,0,0,1,.174-.145,1.3,1.3,0,0,1,.342-.146l-.021-.033a.859.859,0,0,1,.6.077l.027-.033a2.726,2.726,0,0,1,.432.287.722.722,0,0,1,.259.352c.066.029.178.287.242.4l-.012.044c.065.16.114.253.159.343a2.221,2.221,0,0,0,.149.463,3.947,3.947,0,0,1,.173.427l-.007.005c.036.094.074.188.107.282-.047-.068.034.052.051.141a1.271,1.271,0,0,1,.079.353l.044.184c-.069-.2-.036.025-.065.044l.054.11c0,.023-.01.011-.019,0s-.019-.029-.01.02a2.91,2.91,0,0,0,.144.366.244.244,0,0,0,0-.079c0-.009,0-.009,0,0v0a.235.235,0,0,0,.02.028c.031.145.029.089.042.08,0,.164.046.245.04.368.008-.045.036.046.066.137s.062.189.072.13c0,.132.025.08.018.168a3.147,3.147,0,0,0-.2-.447c0,.048.009.095.016.142-.081-.069-.076-.306-.115-.381a.467.467,0,0,1,.042.181l.027-.046a2.2,2.2,0,0,0-.169-.473c.01.07-.008.026-.029-.017s-.04-.08-.043-.031l.032.1c0,.015,0,.016-.01.011a8.024,8.024,0,0,0,.361,1.09c.041.014.152.225.146.151a.714.714,0,0,0,.082.238c.065.109-.022-.157-.034-.206.072.127.081.128.09.127.009.133-.031.235-.088.128.023.062.043.124.062.188-.006-.04.015.01.035.081l-.01.008a.2.2,0,0,1-.011-.036c.1.372.125.774.188,1.146a14.632,14.632,0,0,1,.505,3.87c0,.135,0,.25,0,.354.005-.078.01-.15.011-.067v-.114c0,.038-.006.357,0,.423,0,.119,0,.239,0,.358,0,0,0,0,0,.006s0,.018,0-.017c.007.088.012.167.007.05a2.754,2.754,0,0,1-.02.65,1.253,1.253,0,0,1-.258.6,1.4,1.4,0,0,1-.531.386,2.658,2.658,0,0,1-.621.183c-.057.014-.023.014,0,.014a.758.758,0,0,0-.23.059c-.078,0-.154.005-.231,0-.09.023-.017.023-.024.031-.429.075-.853.072-1.2.122-.112-.009.025-.038-.122-.036.193.036-.372.046-.311.071-.153-.04-.515.011-.454-.07-.176,0-.144.039-.094.045a3.158,3.158,0,0,0-.536.035,3.292,3.292,0,0,0-.352,0,3.023,3.023,0,0,1-.765-.036c.086.034.048.033-.025.031-.032,0-.072,0-.111,0,.036.018.072.031.109.047A2.283,2.283,0,0,1,11.288,27.817Zm-.046-.023c.029,0,.059-.006-.042-.017Zm3.882-7.346.068.248c0-.025,0-.062,0-.1,0-.018-.008-.036-.011-.054l-.022-.06.015.027-.025-.125c-.007,0-.01.016-.008.053l.017.045c-.015-.026-.027-.045-.034-.045S15.123,20.438,15.124,20.449Zm1.35-1.169a1.718,1.718,0,0,1,.071.164.665.665,0,0,0-.1-.225Zm-.05-.106h0l-.011-.02Zm-2.146-1.845c-.013-.049-.027-.1-.039-.147-.021.014-.042.026-.06.017C14.211,17.242,14.245,17.284,14.278,17.328Zm1.6-.056c.027.014.056.027.058-.067-.051-.365-.147-.271-.272-.691-.007-.011,0-.009,0-.006s.045.011-.021-.14A1.393,1.393,0,0,0,15.4,16c.035.093.07.186.107.277.073.188.137.379.195.572a.555.555,0,0,1-.011-.07.92.92,0,0,0,.084.242l-.025-.158a4.068,4.068,0,0,0,.089.411.012.012,0,0,1,.011-.008A.062.062,0,0,1,15.876,17.272Zm.1-.074,0,0c-.007-.04-.011-.07-.011-.07S15.974,17.151,15.98,17.2Zm-1.919-.487a.044.044,0,0,1-.014-.012C14.054,16.738,14.054,16.715,14.061,16.711Zm-.824-1.654c-.006.019-.012.04-.016.06a.781.781,0,0,0,.2.309c-.006-.016-.013-.032-.017-.048a2.791,2.791,0,0,1-.075-.281.887.887,0,0,1-.122-.276A.725.725,0,0,0,13.237,15.057ZM15,15.124c0-.019,0-.045.013-.045a.526.526,0,0,0-.119-.106C14.927,15.021,14.962,15.072,15,15.124Zm-.8-.694a1.306,1.306,0,0,1,.2.1.051.051,0,0,0-.011-.028.745.745,0,0,0-.191-.152.813.813,0,0,0-.2-.082.109.109,0,0,0-.052.1.748.748,0,0,1,.218.045c.015-.017.031-.033.047-.048ZM53.076,27.691a.671.671,0,0,1-.238-.437,1.678,1.678,0,0,1,0-.446c.013-.136.023-.271.031-.4.03-.536.029-1.049.03-1.518.015-.139.025-.133.033-.126s.018.015.033-.194c-.042.265-.038-.022-.014-.334.023-.292.075-.6.043-.507a7.583,7.583,0,0,1,.238-.785c.112-.269.217-.455.218-.361.2-.423.128-.366.066-.248a3.414,3.414,0,0,0,.253-.687,2.35,2.35,0,0,0,.032-.657c.008-.075.016-.27.043-.526s.066-.572.119-.892c.11-.638.239-1.291.305-1.525-.1.318-.014-.029.007-.343l-.079.275c.036-.234.069-.467.089-.7.006-.072.009-.117.011-.145s0-.038.006-.037c.007-.117.024.024.044-.268a.41.41,0,0,0-.06-.223.427.427,0,0,0-.1-.111c-.069-.056-.131-.085-.249-.168l.058.054a1.053,1.053,0,0,1-.268-.272c-.033-.054-.02-.036.017.015a.854.854,0,0,0,.188.182c.065.047.113.074.107.062a.376.376,0,0,0-.056-.055,1.239,1.239,0,0,1-.164-.172.44.44,0,0,1-.064-.07,1.71,1.71,0,0,1-.114-.161.885.885,0,0,1-.148-.447.834.834,0,0,0,.061.251.384.384,0,0,0,.045.084c.015.016,0-.038-.021-.115a.818.818,0,0,1-.049-.316.518.518,0,0,1,.128-.312.524.524,0,0,0-.155.185.6.6,0,0,1,.232-.321,1.242,1.242,0,0,1,.315-.157,1.268,1.268,0,0,0,.13-.053.3.3,0,0,0,.086-.056.091.091,0,0,0,.028-.066.148.148,0,0,0-.005-.04c0-.017-.01-.038-.017-.06a1.676,1.676,0,0,1-.111-.319.5.5,0,0,1,.081-.4.286.286,0,0,0,.057-.129c-.36.591-.725,1.188-1.082,1.8a3.9,3.9,0,0,0-.292.457c-.16.263-.322.527-.3.442l.039-.055c.216-.369-.1.088-.274.386.086-.127.045-.045,0,.037-.056.113-.112.226.162-.207l-.345.591A7.248,7.248,0,0,1,51.6,18.1l-.926,1.4a.544.544,0,0,0,.05-.089c-.248.388-.538.813-.763,1.175s-.387.658-.433.755l-.051.066a3.056,3.056,0,0,1-.462.727,1.681,1.681,0,0,1-.306.268,1.513,1.513,0,0,1-.516.221c.028-.007.06-.017-.053,0a.63.63,0,0,1-.4-.06.944.944,0,0,1-.245-.184.627.627,0,0,1-.185-.393l.007.028a.609.609,0,0,1,.173-.491q.161-.192.309-.393A5.01,5.01,0,0,0,48.3,20.4c.245-.4.493-.842.587-.962.089-.175.465-.809.649-1.081a.54.54,0,0,0,.047-.061c.2-.328.63-.918.857-1.28.146-.237.076-.139.005-.041.314-.453.787-1.3.9-1.47.135-.223.134-.209.134-.195s0,.016.023-.016a6.2,6.2,0,0,1,.34-.617,1.821,1.821,0,0,0-.1.175c.159-.263.487-.709.631-.979l-.109.171c.273-.488.674-1.143.687-1.238l-.04.039c.236-.422.286-.512.334-.6s.094-.189.357-.6l0,.012c.222-.367.379-.541.477-.73l-.09.117c.08-.11.135-.191.177-.262a1.3,1.3,0,0,0,.089-.2,1.548,1.548,0,0,0,.076-.534c0-.061-.027-.317-.029-.391a4.907,4.907,0,0,1-.1-.66c-.01-.086-.014-.176-.016-.261V8.6a.11.11,0,0,0-.017-.063.127.127,0,0,0-.109-.045.583.583,0,0,0-.115.011.459.459,0,0,1,.172-.011c.024,0,.031.008.029,0a.162.162,0,0,0-.112-.036c-.109.022-.219.061-.333.083s-.245.046-.418.07c-.041.052-.1.109-.774.25.1-.028.266-.065.2-.06a2.174,2.174,0,0,0-.278.06c-.069,0,.146-.046.068-.046-.45.134-.783.162-1.449.309.154-.039.1-.036.03-.033-.029,0-.061,0-.087,0a.948.948,0,0,1-.472,0c-.195-.034-.342-.068-.221-.013a2.023,2.023,0,0,0-.789-.038.378.378,0,0,1-.3-.076.666.666,0,0,1-.18-.212.754.754,0,0,1-.087-.256.739.739,0,0,1,.006-.27.541.541,0,0,1,.128-.251.718.718,0,0,1,.211-.156,2.559,2.559,0,0,1,.415-.173,3.8,3.8,0,0,1,.741-.143c.206-.025.37-.043.473-.049a7.186,7.186,0,0,0,.723-.133l-.026.032c.626-.156.489-.1,1.227-.279-.3.085-.172.078.143.052l.505-.14.106.028c.2-.054.465-.046.562-.185a.582.582,0,0,0,.026-.133,1.34,1.34,0,0,0,0-.155c0-.063,0-.128,0-.194,0-.265,0-.533-.01-.605.068-.23,0-.622.068-.791-.006-.077-.01-.176-.012-.283-.031.111-.063.151-.043-.058v-.05l.039-.089c0-.214,0-.431.006-.575-.006.065-.015.139-.026.217.009-.091.017-.176.026-.258l0-.077c0,.014,0,.029,0,.046a3.391,3.391,0,0,0,.015-.452,10.5,10.5,0,0,0,.03-1.207,2.482,2.482,0,0,0-.121-.574A1.437,1.437,0,0,1,54.1.9a.871.871,0,0,0,.009.4A1.322,1.322,0,0,1,54.091,1a1.13,1.13,0,0,1,.021-.15l.015-.067a.131.131,0,0,0,0-.031,1.742,1.742,0,0,0-.016-.224.777.777,0,0,1,0-.172A.415.415,0,0,1,54.173.2a.423.423,0,0,1,.275-.173A1.174,1.174,0,0,1,54.588,0c.038,0,.074,0,.112,0a.968.968,0,0,1,.435.075C55.127.058,55.12.04,55.112.024a.667.667,0,0,1,.214.148.874.874,0,0,1,.134.184A1.612,1.612,0,0,1,55.6.7a5.61,5.61,0,0,1,.15.614l.045.015c.052.3.127.771.165,1.214a5,5,0,0,1,.015,1.035,3.417,3.417,0,0,1,.031.5c0,.227.015.474.023.655l-.029.088c-.014.448-.01.708,0,.969a2.885,2.885,0,0,0-.006.318.934.934,0,0,0,.039.261.112.112,0,0,0,.106.078.523.523,0,0,0,.112-.009,1.067,1.067,0,0,0,.136-.029c.187-.051.376-.122.563-.191a5.746,5.746,0,0,1,.577-.184l.01.006c.256-.076.516-.14.773-.2-.2.068.149-.05.382-.09.061-.016.131-.033.207-.05s.151-.034.251-.051a1.235,1.235,0,0,1,.578.038.843.843,0,0,1,.5.384.674.674,0,0,0-.2-.212c-.026-.012,0,.009.029.05a.608.608,0,0,1,.146.273,1.066,1.066,0,0,1,.121.347c-.008.081-.011.015-.023-.028s-.015-.072-.01.066a.529.529,0,0,1-.045.273A.656.656,0,0,1,60,7.117a3.158,3.158,0,0,1-.507.228,1.127,1.127,0,0,0,.21-.039c.027-.011.026-.01.009,0l.023-.006-.028.008c-.027.013-.068.03-.085.04-.4.1-.246.071-.229.083-.43.063-.665.152-.986.189.141-.011-.127.057-.392.126s-.513.134-.372.126c-.34.039-.225.056-.445.071.465-.107.912-.269,1.277-.387l-.371.068a10.392,10.392,0,0,1,1.035-.27,3.147,3.147,0,0,1-.484.116l.1.015c.263-.06.495-.125.707-.19a1.584,1.584,0,0,0,.577-.281c-.081.057-.1.06-.084.046a1.006,1.006,0,0,0,.111-.1c.093-.1.127-.239.056-.123a.6.6,0,0,1-.207.2c-.038.015-.041.013-.026,0a1.959,1.959,0,0,1-.42.157c-.529.146-1.059.292-1.59.435l-.1.048-.059-.005q-.409.109-.819.214c-.15.069-.624.209-.459.191-.12.024-.159.025-.229.038-.035.007-.078.014-.139.032a.331.331,0,0,0-.2.126c-.026.059-.019.077-.009.059a.221.221,0,0,1,.076-.087,1.46,1.46,0,0,1,.38-.1,1.5,1.5,0,0,0-.3.1C56,8.264,56,8.269,56,8.276a.154.154,0,0,0-.1.073c-.026.041-.045.087-.059.112s-.029.031-.039.007a.293.293,0,0,1,0-.145.737.737,0,0,0-.021.216c0,.1,0,.2,0,.3.006-.07.013.068.014.251l-.012.013c.017,1.582,0,3.164.02,4.745.007.6.281,1.191.064,1.807-.048.137.113.2.215.265a3.783,3.783,0,0,0,1.439.724,1.54,1.54,0,0,1,.92.576.611.611,0,0,1,.073.8.564.564,0,0,1-.77.254,6.946,6.946,0,0,1-1.861-.7l-.011-.008-.006.021.012.007.005-.02,0,.02.081.059.014.009c.017.014.031.027-.1-.065l-.042.173-.026.077c.014-.054.046-.172.067-.251l-.012-.008c-.085.292-.155.584-.217.877.048-.2.09-.364.049-.153.022-.1.042-.2.066-.3-.009.049-.062.281-.109.524s-.089.5-.1.583c-.054.315-.1.63-.145.946,0-.011,0,0,0,.02s0,.051.014-.044c-.028.235-.051.44-.007.133-.08.568-.137,1.138-.242,1.714-.128.574-.382,1.1-.547,1.65a4.842,4.842,0,0,0-.158,1.689,12.169,12.169,0,0,1,.029,1.716c-.018.159.007.07.021.009a1.945,1.945,0,0,1-.111.4.566.566,0,0,1-.148.237,1.008,1.008,0,0,1-.633.19c-.262.025-.058.031-.074.043h-.046A.688.688,0,0,1,53.076,27.691Zm1.236-10.535c0,.07.008.14.015-.11C54.321,17.083,54.318,17.119,54.312,17.156Zm-.9-8.59.335-.075a1.5,1.5,0,0,1,.331-.056,1.048,1.048,0,0,0-.266.012l-.146.029-.162.041.076-.025-.334.065c0,.007.039.005.136-.008l.122-.032C53.393,8.552,53.328,8.577,53.41,8.566Zm2.4-.289.011-.022A.179.179,0,0,0,55.813,8.277Zm.35-.209a.5.5,0,0,0-.325.167.359.359,0,0,1,.174-.113c.088-.03.177-.049.253-.074l.085-.027ZM52.5,7.281l.427-.072c-.028-.02-.049-.04-.015-.061Zm1.622-.41a.018.018,0,0,1,.01,0,.254.254,0,0,1,.006-.029C54.109,6.88,54.114,6.876,54.125,6.871Zm2.922-.488a9.531,9.531,0,0,1,1.144-.311c-.077.014-.139.024-.179.029.181-.03.509-.109.664-.154l-.416.067c.167-.037.319-.058.491-.085.086-.013.176-.029.277-.049a2.323,2.323,0,0,1,.337-.053c-.044-.013.027-.033.062-.051s.033-.047-.178-.049a1.724,1.724,0,0,0-.18.024l-.142.027c-.088.017-.163.034-.23.05-.134.033-.235.064-.343.1-.214.072-.454.139-1.02.3-.035.015-.017,0-.007-.008s.015-.042-.364.094a2.814,2.814,0,0,1-.895.273.247.247,0,0,1-.168-.091C56.033,6.714,56.34,6.632,57.047,6.383ZM59.07,5.7c-.015,0,.032-.01.188-.021l.015,0C59.164,5.683,59.084,5.7,59.07,5.7ZM55.762,3.951c.008-.044.02-.1.032-.083-.011-.132-.031-.282-.054-.418Q55.751,3.7,55.762,3.951ZM54.345,1.942a.988.988,0,0,1-.01.131c.012.081.011.161.017.252s.012.173.02.256c.011.12.026.232.041.339.011-.234.021-.469.035-.7a1.117,1.117,0,0,0,0-.144,1.756,1.756,0,0,0-.108-.323c-.062-.136-.113-.253-.15-.334C54.24,1.6,54.306,1.77,54.345,1.942Zm.938-1.49A1.329,1.329,0,0,1,55.377.7c.031.107.058.215.083.322l.077.057-.058.026c.045.2.082.4.113.6a.159.159,0,0,0,.009-.067,4.868,4.868,0,0,0-.064-.613C55.518.9,55.492.782,55.474.689a1.724,1.724,0,0,0-.046-.177.137.137,0,0,0-.105-.071A.082.082,0,0,0,55.283.452ZM13.8,27.8l.013,0Zm82.767-.311c-.045-.02-.088-.042-.132-.064.027.018.068.041.032.03l.038.016c-.014,0-.118-.054-.142-.062s-.077-.041-.114-.064c0,0,0,0,0,0s-.007,0,0,.006c-.029-.015-.054-.028-.018-.005l-.41-.239a3.508,3.508,0,0,1-.4-.256c-.019-.01-.013,0-.009.011-.023-.031-.038-.031-.053-.031a.055.055,0,0,1-.027,0c-.017-.023-.034-.047-.05-.071-.034-.011-.019.012-.024.016-.138-.079-.24-.2-.36-.253-.023-.036.031-.023-.009-.059.015.042-.025.02-.064,0s-.063-.037-.063-.02c-.014-.07-.145-.117-.079-.166-.047-.043-.063,0-.053.013a.394.394,0,0,0-.17-.1c-.019-.042-.285-.174-.3-.267.012.062-.016.017-.062.009l.01.054-.078-.058c-.019-.008-.022-.012-.02-.015s.016-.016-.013-.048a.105.105,0,0,0-.081-.027h-.028l.006.011-.04-.023c-.009-.007,0,0,.019,0s.071.009.021-.041c-.008.008-.088.014-.1-.025.044.033.053.007.043-.014l-.063-.046-.006.055c-.18-.132-.352-.3-.536-.453.023-.024-.127-.115-.081-.136l0,.009c.048.035.01-.039-.028-.066.011.019,0,.017-.019.015s-.042,0,.008.047l-.083-.05c-.047.013-.09-.039-.134-.1a.722.722,0,0,0-.152-.167c.009.005.013,0,.015,0a1.94,1.94,0,0,1-.219-.227l0-.019a.449.449,0,0,1-.168-.193s.014.011.005-.008a.27.27,0,0,1-.084-.133l0,0a.644.644,0,0,1-.036-.142c.016,0,0-.062,0-.13s.014-.143.042-.155a.458.458,0,0,1,.017-.082l.037-.089s0,0,.009-.007c.007-.06.09-.132.132-.176.025-.032.008-.024-.009-.016.062-.049.167-.158.2-.162.056-.025.027.006.045.008.084-.032-.028-.037.1-.053-.014.005-.039.013-.028.013a.228.228,0,0,1,.091.011.236.236,0,0,0,.083.012l-.029-.009a.22.22,0,0,1,.119.015c.04.014.071.028.082.012l0-.018c.127.059.063,0,.185.078l0,0c.057.023.071.061.113.051l-.015-.015a1.114,1.114,0,0,1,.13.086c.009,0,.042.017.046.029.02-.022.151.082.177.1-.051-.029-.036,0-.03.018a.089.089,0,0,1,.094.051c.03-.031.065-.062.146-.015-.016,0-.038-.011-.035,0s.027.016.035.017-.027,0-.027.02c.079,0,.094.057.181.094-.033,0-.018.017-.019.036.017-.019.035,0,.05.023s.033.05.04.008c.125.135.378.258.407.339,0,.029.065.028.091.045l-.02.02c.1.01.067.024.181.042-.055,0-.048.025-.029.071l.092-.007-.014.044a.125.125,0,0,1,.078.05.143.143,0,0,1,.1.014.137.137,0,0,0,.071.017c-.01.068.079.036.065.1a.125.125,0,0,1,.044,0c0-.031.016-.059.033-.032l.006,0-.012.036a.35.35,0,0,1,.073.034.114.114,0,0,1-.014-.032.383.383,0,0,1,.019.035l.009.006-.007,0a.065.065,0,0,0,.051.035c.05.1.232.066.278.2-.009-.016-.027-.033-.04-.026.079.051.122.15.188.161l.018-.032a.631.631,0,0,1,.159.084l.027-.031c.057.059.235.109.225.207.035-.015.084.075.127.094l-.009.032a.278.278,0,0,0,.112.072c.058.126.185.144.266.214l0,.007.1.05c-.038,0,.028,0,.049.024a.186.186,0,0,1,.095.092l.052.044c-.071-.033-.021.036-.037.065l.05.006c0,.024-.038,0-.016.029.033,0,.1.06.14.052a.062.062,0,0,0-.008-.035s0,0,0,0l0,0,0,0a.058.058,0,0,0,.016,0c.038.041.03.018.037.006.017.075.059.076.066.14,0-.031.024-.011.051.014s.068.066.07.029c.007.073.024.03.021.082a.279.279,0,0,0-.178-.1l.023.054c-.059.021-.078-.088-.113-.093a.069.069,0,0,1,.047.05l.013-.039a.274.274,0,0,0-.166-.085c.015.02,0,.017-.018.013s-.041-.007-.035.017l.033.019c0,.008,0,.011-.008.012l.145.11h0l.063.048a.853.853,0,0,1,.116.108c.014-.007.035,0,.054.011s.046.023.048,0c.009.038-.011.035.034.093.04.031,0-.069,0-.093.043.041.048.038.058.034-.011.066-.056.124-.1.095.012.022.024.044.035.067,0-.017.013,0,.024.021l-.01.007a.018.018,0,0,1,0-.007.779.779,0,0,1-.048.722.545.545,0,0,1-.474.3A.873.873,0,0,1,96.564,27.489Zm.94-.954a.1.1,0,0,0-.046-.07C97.474,26.488,97.489,26.511,97.5,26.535Zm-.059-.087h0l0,0Zm-.1-.277Zm-.443-.2c.008-.031.072-.031.054-.1a.108.108,0,0,0-.113-.061.18.18,0,0,1-.139-.051c-.017,0,.056-.019-.021-.057a.286.286,0,0,0-.185-.015l.27.2a.087.087,0,0,1-.022-.033.118.118,0,0,0,.081.047l-.034-.05C96.83,25.887,96.835,25.942,96.9,25.972ZM94.025,25.9c.013,0,.026,0-.008-.016Zm2.957-.063h0l-.015-.022Zm-.824-.4.057.042a.057.057,0,0,1,.011-.036.133.133,0,0,0-.045-.006Zm-.26-.19.067.049a.037.037,0,0,0,.005-.022.741.741,0,0,0-.07-.163.278.278,0,0,0-.077.08l.065.048.046-.045Zm-.5-.368.1.073a1.181,1.181,0,0,0,.146-.038l-.079-.02v-.032a.173.173,0,0,0-.046-.006A.432.432,0,0,0,95.4,24.883Zm-.393-.379.011-.007-.007,0S95.008,24.5,95.005,24.5Zm.012-.006Zm-.253-.069.049.035a.153.153,0,0,1,.036-.052Zm-1-.715.016.011.025.005-.014,0,.037.026c0-.005,0-.013,0-.025l-.019,0c.021,0,.035-.006.029-.017l-.087-.039A.368.368,0,0,1,93.761,23.713Zm1,2.723a.022.022,0,0,1,0,.006A.032.032,0,0,1,94.765,26.436Zm-61.108-.727a.77.77,0,0,1-.273-.133,1.015,1.015,0,0,1-.222-.243,1.613,1.613,0,0,1-.253-.563,1.09,1.09,0,0,1-.019-.4c-.019.093-.023.088-.027.033,0-.076,0-.128,0-.183-.019.044-.034.079-.048.106a.922.922,0,0,1,.019-.138l0-.008h-.007l-.014,0-.029.006c-.041.012-.054.014-.053.011-.019,0-.017,0-.02-.007s-.014-.013-.082,0a1.822,1.822,0,0,0-.452.176l.046-.009-.195.067c-.063.02.023-.016.1-.051.1-.046.19-.093-.08-.017a1.285,1.285,0,0,1-.4.171c.242-.08.2-.1.11-.076l-.34.113.128.007A7.182,7.182,0,0,1,30,24.948a3.223,3.223,0,0,1-1.635-.22c.014-.013-.17-.09-.328-.192s-.293-.215-.24-.2l.031.029c.224.154-.048-.069-.21-.215.068.07.019.038-.03,0-.067-.045-.133-.09.107.132a2.024,2.024,0,0,1-.328-.3.64.64,0,0,1-.189-.249,1.174,1.174,0,0,1-.107-.477,1.615,1.615,0,0,1,.091-.552c.058-.181.145-.341.207-.49a.232.232,0,0,0-.02.061c.229-.532.566-1.169.613-1.294L28,20.946c.188-.458.213-.511.469-1.043,0,.007-.027.071.014-.013.025-.066.051-.133.092-.228.041-.119.116-.158-.067-.133l.016-.005c-.207.019-.412.061-.62.1,0-.02-.265.044-.565.063a1.73,1.73,0,0,1-.436-.03.986.986,0,0,1-.167-.048.45.45,0,0,1-.1-.047l-.14-.05c-.06-.025-.128-.06-.2-.094s-.14-.081-.2-.122-.118-.083-.159-.116a.228.228,0,0,0-.033-.036,1.469,1.469,0,0,1-.327-.357,2.023,2.023,0,0,1-.219-.454c-.034-.083-.042-.107-.043-.1a.2.2,0,0,0,.01.055,2.761,2.761,0,0,1-.1-.6,2.322,2.322,0,0,1,.023-.471c.031-.165.036-.155.042-.146s.006.01.014-.014c.088-.37-.058.052.089-.439-.017.057-.041.164-.029.124.026-.095.081-.22.132-.346a3.37,3.37,0,0,0,.139-.341l-.051.117c.1-.341.358-.757.353-.822l-.03.022c.143-.27.173-.327.2-.386a3.693,3.693,0,0,1,.218-.384v.008a4.039,4.039,0,0,0,.271-.475l-.052.076c.175-.285.193-.309.381-.593a2.02,2.02,0,0,1,.138-.21,7.722,7.722,0,0,1,.522-.783c-.149.224-.065.127-.011.072a1.677,1.677,0,0,1,.269-.406c-.017-.05-.028-.112.208-.472-.031.06-.086.149-.055.118a.846.846,0,0,0,.1-.151c.016-.015.006.006,0,.029s-.017.044,0,.028c.125-.267.276-.422.489-.787-.06.121.01.029.049,0-.028-.057.347-.465.2-.366.236-.341.5-.792.731-1.194s.412-.755.508-.886c.057-.061.132-.306.273-.416v.035a.567.567,0,0,1,.218-.149.648.648,0,0,1,.16-.037,1.278,1.278,0,0,1,.172,0,1.112,1.112,0,0,1,.3.043c-.121-.028-.152-.015-.132,0a1.546,1.546,0,0,1,.187.113.552.552,0,0,1,.273.279c-.008.028-.014.055-.024.08a1.162,1.162,0,0,1,.044.447.521.521,0,0,1,.019.117,1.556,1.556,0,0,1-.013.246c-.023.176-.074.347-.077.4-.106.124-.143.385-.247.456-.015.048-.039.106-.066.17.058-.05.1-.058.021.053l-.014.028-.06.033c-.059.122-.124.243-.167.321.023-.033.052-.071.083-.109l-.1.131-.024.041a.283.283,0,0,1,.012-.026,1.158,1.158,0,0,0-.135.246c-.274.386-.43.956-.748,1.372a.688.688,0,0,0,.1-.191c-.2.382-.458.733-.564.988H29.6c-.137.287-.243.508-.366.732l.029.032a9.7,9.7,0,0,1-.681,1.217c-.013.1-.243.452-.328.645l-.052.034a5.238,5.238,0,0,0-.261.549,4.33,4.33,0,0,0-.364.711,1.377,1.377,0,0,0-.089.315.129.129,0,0,0,.014.067.1.1,0,0,0,.052.04l0,.008a.309.309,0,0,0,.031.006c.012,0,.02,0,.04,0s.068.007.106.007c.073,0,.153,0,.232,0-.071.016-.03.007.048,0a1.32,1.32,0,0,1,.2-.011,3.706,3.706,0,0,1,.6.023c.1,0,.2,0,.3-.009-.33.036.027.044.049.069.064-.014.124-.034.185-.052.079,0-.116.045.024.029.03-.012.075-.026.126-.041a1.556,1.556,0,0,0,.161-.068.657.657,0,0,0,.234-.174c-.021,0-.055.028-.1.046-.011.009-.011.008,0,0l-.011,0,.013-.007a.239.239,0,0,0,.033-.035c.087-.061.113-.085.113-.093s-.005,0-.012,0a.03.03,0,0,1-.014,0,1.649,1.649,0,0,0,.39-.41c-.058.058.012-.064.078-.2s.145-.331.083-.258c.126-.176.058-.133.149-.243-.129.274-.2.558-.3.771.046-.061.09-.126.132-.192a.73.73,0,0,1-.147.3c-.069.1-.152.176-.193.233a1.628,1.628,0,0,1,.1-.13.726.726,0,0,1,.077-.09l-.066.027a1.734,1.734,0,0,1-.579.529c.1-.039.046,0-.021.031s-.143.069-.062.058a1.211,1.211,0,0,0,.163-.069c.023-.006.026,0,.018.006a1.317,1.317,0,0,0,.523-.44c.03-.042.059-.086.086-.13l.006-.009a4.064,4.064,0,0,0,.258-.525l-.065.134.012-.094.053-.041c.063-.148.122-.3.185-.445a.476.476,0,0,1,.052-.191c.044-.1.113-.192.053-.149a.6.6,0,0,1,.126-.1,1.134,1.134,0,0,1,.253-.137c.1-.035.036-.038-.07-.007a.826.826,0,0,0-.27.151,1.053,1.053,0,0,1,.187-.16c.031-.021.031-.027.032-.034a.411.411,0,0,1,.269.013c.039.026.017.046-.088.079a.848.848,0,0,1,.36,0c-.1-.023,0-.022.128.014l.005.016-.01,0c.485.144.446.444.347.933a17.928,17.928,0,0,1-2.113,4.824c-.307.576-.235,1.267-.83,1.81l.034-.006.018-.016.007-.007c.009-.007.02-.015-.02.023l.07-.013h.051l-.124.016-.016.015c.179-.018.352-.044.521-.076-.117.016-.21.028-.084,0-.056.012-.113.02-.17.03a6.349,6.349,0,0,0,.672-.152c.195-.047.388-.1.58-.157-.007,0,0,0,.009-.01s.028-.017-.03,0c.142-.046.264-.089.077-.034.344-.1.687-.223,1.034-.332.175-.055.35-.107.527-.155.085-.019.137-.058.148-.125a.391.391,0,0,0-.058-.225,2.207,2.207,0,0,1-.2-.525.908.908,0,0,1-.013-.295.537.537,0,0,1,.133-.28.66.66,0,0,1,.252-.166.965.965,0,0,1,.838.062c.09.049.046.009.014-.017.116.083.168.124.213.151a.537.537,0,0,1,.135.1,1.258,1.258,0,0,1,.179.372c.05.1.05.077.05.053s0-.023,0-.021a1.356,1.356,0,0,1,.046.142l.031.132c.021.088.039.176.057.263.035.174.066.347.095.515.057.337.105.657.167.944,0,.088-.006.085-.015.082s-.02-.006,0,.125c0-.178.039.024.074.225.029.166.057.332.064.287-.015.259.112.854.014.762.024.142.027.218.034.232s.027-.021.03-.071a.622.622,0,0,1-.229.477,1.1,1.1,0,0,1-.416.22,1.527,1.527,0,0,1-.163.012A.873.873,0,0,1,33.657,25.709Zm-.941-1.528h.038c.014-.008.032-.018.025-.018A.368.368,0,0,0,32.716,24.181Zm-3.492-1-.016.015.032,0,.016-.015Zm-1.7-6.289c-.351.746-.315.932.33.943a.516.516,0,0,1-.1-.014,1.787,1.787,0,0,0,.428-.011l-.265-.016c.1,0,.2.005.3.013a3.825,3.825,0,0,0,.4.013c-.052-.03.177-.065-.062-.11a1.71,1.71,0,0,0-.573.016,1.411,1.411,0,0,1-.241.029.85.85,0,0,1-.167-.01.264.264,0,0,1-.168-.082c-.012-.01-.007-.009,0-.008s.014,0,.017,0-.024-.03-.019-.162a1.85,1.85,0,0,1,.067-.31c.028-.1.053-.186.071-.26.011-.045.019-.084.025-.118Zm1.039.772.008,0-.116-.01Zm2.349-1.766.012-.015s0-.006,0-.006S30.915,15.887,30.911,15.894Zm.115-.149a.472.472,0,0,0-.061.078.691.691,0,0,1,.364-.235A.519.519,0,0,0,31.026,15.745Zm.745-.148-.035-.007Zm-3.49-.25c.021-.021.05-.046.056-.03a2.434,2.434,0,0,0,.088-.246Zm.66-1.257a.08.08,0,0,0,.034-.026c.086-.1.391-.544.413-.576a.107.107,0,0,0-.062-.112l-.179.33.032.069-.058-.022ZM27.8,12.374l-.232.364c.027-.032.069-.076.116-.127l.053-.076.052-.093-.021.047.123-.175c-.006,0-.024.011-.064.059l-.039.069c.022-.048.035-.084.027-.084S27.8,12.363,27.8,12.374Zm2.425-.629c-.049.18-.091.343-.109.438l.141-.319.064-.064a2.9,2.9,0,0,0,.181-.56Zm1.3-2.775a.076.076,0,0,1,.011.025.151.151,0,0,0,0-.04S31.526,8.967,31.522,8.97Zm-.6-.813.046.006a.663.663,0,0,1,.21.069c0-.029,0-.055.026-.058a.688.688,0,0,0-.18-.023C30.987,8.151,30.953,8.154,30.919,8.157Zm9.529,16.592c-.014.031-.159.03-.275.016s-.207-.032-.134.011a6,6,0,0,1-1.291-.337,3.27,3.27,0,0,1-.851-.461c-.059-.06-.26-.149-.372-.228l.031-.012c-.336-.183-.251-.157-.631-.4.164.091.113.031-.012-.108l-.271-.152-.016-.072a2.111,2.111,0,0,1-.3-.261,1.419,1.419,0,0,1-.265-.18l-.172-.134c-.054-.042-.1-.087-.124-.1a2.014,2.014,0,0,1-.119-.3.319.319,0,0,1,.052-.286.566.566,0,0,1,.094-.185c-.033.017-.065.036-.07.028s.016-.045.059-.083l.019-.023.063-.017a1.278,1.278,0,0,1,.27-.262c-.041.023-.086.049-.131.078a.973.973,0,0,1,.156-.094.359.359,0,0,1,.049-.028l-.03.018a.834.834,0,0,1,.346-.088.705.705,0,0,1,.22.073l.163.1c.1.059.208.111.32.168a1.833,1.833,0,0,1,.577.409.377.377,0,0,0-.113-.087,1.578,1.578,0,0,1,.233.226c.034.039.068.087.1.123s.051.069.078.1a1.1,1.1,0,0,0,.334.28l.006-.039a4.54,4.54,0,0,0,.65.293l.026-.034c.152.066.408.136.654.213l.089.029.073.025.051.019a.291.291,0,0,0,.061,0c-.015,0,.028-.076.063-.192s.081-.272.1-.366l.044-.041c.08-.247.116-.4.151-.55a6.068,6.068,0,0,0,.371-1.382l.009,0c.02-.148.034-.3.042-.443.014.118-.007-.088.005-.218,0-.07-.006-.161,0-.255s0-.187,0-.279a2.991,2.991,0,0,1,0-.311c.017.345.039-.025.075-.041-.006-.065-.011-.131-.013-.2.01-.034.014-.013.017.009s.006.054.016-.024c-.011-.132.065-.509.072-.631a.576.576,0,0,0-.052.114c0,.016,0,.015,0,0l0,.012.005-.016a.511.511,0,0,0,0-.054c.072-.233.038-.15.021-.146a3.936,3.936,0,0,1,.272-.547c-.057.07,0-.066.057-.2.059-.145.108-.309.058-.239.1-.169.042-.122.106-.232-.074.261-.13.513-.2.73.039-.066.076-.129.111-.191a3.662,3.662,0,0,1-.222.55.955.955,0,0,1,.1-.238l-.057.038a2.269,2.269,0,0,0-.184.779c.026-.109.021-.033.017.043s0,.138.023.068c.006-.055.013-.11.022-.165.009-.022.014-.021.016-.008a4.537,4.537,0,0,1,.3-.945,3.728,3.728,0,0,0,.232-.76.633.633,0,0,1,0-.181c0-.1.007-.194-.017-.137a1.109,1.109,0,0,0,.064-.376c0-.187-.057.222-.082.3.014-.219,0-.22-.005-.227.06-.176.136-.31.141-.113.008-.1.014-.21.02-.316-.009.069-.011-.017-.006-.133l.012-.008c0,.011,0,.023,0,.035.019-.4.028-.8.066-1.192a8.382,8.382,0,0,1,.709-3.4c.242-.437.068-.489-.315-.484-.7.009-1.4,0-2.355,0-.18-.015-.366-.021-.557-.02.124,0,.242.008.11.01l.145,0c-.125,0-.534,0-.626.011-.186.008-.372.018-.558.033.018,0-.073.012.016,0-.138.013-.258.024-.078.011-.666.054-1.337.145-2.011.206a15.25,15.25,0,0,1-2.008.05c-.089,0-.038.009,0,.013a1.539,1.539,0,0,0-.367.015.57.57,0,0,1-.357-.159c-.082-.07-.071-.05-.061-.031s.012.019.008.018a.724.724,0,0,1-.157-.231.56.56,0,0,1-.051-.283.9.9,0,0,1,.236-.469,2.193,2.193,0,0,1,.321-.356.661.661,0,0,1,.22-.122.507.507,0,0,1,.258-.009c.1.04.078.05.072.053s0,.016.1.065c-.123-.088.021-.014.183.037a1.532,1.532,0,0,0,.224.054c.042,0,.065,0,.054,0a1.338,1.338,0,0,0,.433.054c.16,0,.284-.012.239.036.27-.03.216-.066.139-.061a7.1,7.1,0,0,0,.816-.168c.045,0,.158-.019.311-.031s.334-.02.523-.031a6.166,6.166,0,0,1,.9-.006c-.182-.033.024-.023.206-.05l-.169-.031.418-.016c.085-.007.109-.007.109,0,.071,0-.016.023.164.025a2.045,2.045,0,0,0,.454-.06l-.044,0,.193-.012c.074,0-.063.013-.148.03s-.113.031.111.03a1.1,1.1,0,0,1,.4-.052c-.237.008-.206.034-.119.041l.332-.012-.111-.044a14.144,14.144,0,0,1,1.463.035l.745.052a2.991,2.991,0,0,1,.767.129c-.006.007.035.025.1.052s.142.066.22.1c.156.079.29.175.239.169L43.618,9.5c-.222-.122.053.056.207.189-.076-.076,0-.024.053.011.025.016.043.027.031.009a.783.783,0,0,0-.159-.148,1.261,1.261,0,0,1,.311.281.533.533,0,0,1,.083.091.886.886,0,0,1,.077.158,1.14,1.14,0,0,1,.045.456,3.543,3.543,0,0,1-.3.959.2.2,0,0,0,.017-.057c-.1.248-.219.522-.307.755a4.606,4.606,0,0,0-.161.48l-.026.042c-.051.223-.073.349-.1.485s-.058.283-.1.552c0-.007,0-.07-.011.015-.005.132-.019.263-.041.635l0-.015c-.01.194-.009.389,0,.583a4.491,4.491,0,0,0,.007.526,2.366,2.366,0,0,1-.094.656c-.01.116-.109.535-.145.721a.179.179,0,0,0-.015.043c-.014.112-.048.269-.075.431s-.046.33-.059.454c-.014.162,0,.093.015.023-.05.319-.089.886-.113,1-.023.151-.028.142-.034.134s-.007-.009-.013.013c-.048.348.049-.052-.04.411.006-.054.021-.154.012-.116-.029.178-.137.486-.159.663l.03-.115c-.042.326-.187.753-.163.812l.023-.026c-.138.548-.04.237-.185.791l0-.008a2.948,2.948,0,0,0-.108.5l.025-.082c-.071.3-.081.328-.163.632a1.735,1.735,0,0,1-.06.226,1.4,1.4,0,0,1-.1.381c-.067.19-.152.388-.178.452.087-.234.031-.129-.008-.068a1.5,1.5,0,0,1-.154.424.146.146,0,0,1,.024.111.86.86,0,0,1-.161.384c.038-.061.086-.161.057-.125a.508.508,0,0,0-.051.082l-.05.076c-.018.015-.006-.008.006-.03s.023-.044,0-.029a1.027,1.027,0,0,1-.811.464C40.614,24.755,40.5,24.761,40.448,24.749Zm.961-.907c.007,0,.021-.02.044-.068l.019-.071c-.011.066-.015.108.008.065l.131-.379c-.018.034-.047.083-.079.139l-.032.079c-.01.033-.019.067-.028.1l.008-.045C41.455,23.719,41.433,23.78,41.409,23.842Zm-4.24-.488c-.063-.051-.126-.1-.188-.154-.005.028-.012.052-.039.051C37.018,23.286,37.094,23.32,37.169,23.354Zm3.029-.211a.359.359,0,0,1-.04.064.588.588,0,0,0,.146-.263c-.016.022-.042.048-.049.034A1.02,1.02,0,0,1,40.2,23.143Zm-1.33-.254c.109.046.22.087.333.126a.084.084,0,0,0-.029-.03c-.049-.034-.188-.105-.31-.178s-.231-.145-.246-.155a.109.109,0,0,0-.106.065,3.437,3.437,0,0,0,.312.153l.063-.04Zm-2.519-.134a.067.067,0,0,1-.024-.006C36.37,22.788,36.347,22.764,36.349,22.755Zm.837-1.131c.166.051.318.1.407.132-.1-.06-.193-.113-.291-.162l-.057-.065a2.985,2.985,0,0,0-.508-.183C36.882,21.446,37.035,21.533,37.186,21.624Zm3.607-.8a4.326,4.326,0,0,0-.079.675,8.205,8.205,0,0,0,.3-1.359.886.886,0,0,1-.023.1,1.449,1.449,0,0,0,.024-.4c-.01.081-.022.162-.038.242a2.662,2.662,0,0,0,.043-.646c-.01.019-.023,0-.038-.016s-.05-.058-.068.08a2.579,2.579,0,0,0,0,.514,1.769,1.769,0,0,1-.044.606c0,.02,0,.012-.009,0s-.006-.009-.01-.009S40.823,20.651,40.793,20.826Zm.067-1.249c0-.015,0-.04.006-.081l0-.007C40.863,19.527,40.861,19.559,40.86,19.577Zm.795-3.117c0-.012,0-.024.005-.036l0,0C41.657,16.435,41.656,16.447,41.654,16.46Zm.016-.112c.017-.124.029-.249.04-.374A2.954,2.954,0,0,0,41.67,16.348ZM38.325,9.143Zm.586-.083-.066-.006C38.8,9.066,38.763,9.076,38.911,9.06ZM34.6,24.079a.1.1,0,0,1,0,.022C34.6,24.093,34.6,24.086,34.6,24.079ZM6.883,23.84a.62.62,0,0,1-.28-.151.488.488,0,0,1-.138-.3,1.362,1.362,0,0,1,.013-.309,1.276,1.276,0,0,1,.076-.3.77.77,0,0,1,.425-.449c.05-.027.016-.024-.007-.021.156-.031.136-.065.221-.091a1.439,1.439,0,0,1,.222.026c.084-.018.017-.03.024-.039a1.432,1.432,0,0,1,.6.071.978.978,0,0,1,.138.062c.044.023.087.052.113.065a.287.287,0,0,0,.186.023c.082.006-.016.051.1.032-.082-.01,0-.027.076-.071a.405.405,0,0,0,.09-.064c.009-.011.011-.018,0-.02a.067.067,0,0,0,.052-.038.126.126,0,0,0,0-.087c-.023-.073-.056-.148,0-.14-.069-.144-.094-.109-.08-.058-.044-.1-.062-.171-.094-.246a1.545,1.545,0,0,0-.1-.208,7.668,7.668,0,0,1-.292-.959c-.005.113-.026-.006-.078-.1l-.005.1-.076-.23c-.02-.045-.023-.059-.02-.06-.011-.039.024,0,0-.1a.683.683,0,0,0-.123-.236l0,.026-.04-.1c-.01-.032.009.006.032.045.033.055.07.111.03-.043a.378.378,0,0,1-.107-.21c.043.131.062.105.056.053l-.06-.182-.025.077a1.236,1.236,0,0,0-.149-.342.255.255,0,0,0-.258-.112,1.109,1.109,0,0,0-.367.139l-.388.21c0-.015-.086.026-.17.067s-.192.093-.179.058l.022-.006c.127-.071-.053-.013-.157.044.049-.017.026,0,0,.025s-.066.059.093-.013c-.067.04-.134.081-.2.118-.084.13-.579.241-.915.35.024-.009.029-.014.032-.017a3.594,3.594,0,0,1-.769.136l-.029-.011a.746.746,0,0,0-.252.1.542.542,0,0,0-.208.209s.012-.035-.012,0a.521.521,0,0,0-.021.117.51.51,0,0,0,.054.212l-.007-.008a1.073,1.073,0,0,1,.052.348,2.259,2.259,0,0,0-.038.307,1.7,1.7,0,0,1-.085.373,2.5,2.5,0,0,0-.022.417s0,.007,0,.025c.013.063.024.151.048.24.011.045.03.087.044.129a.6.6,0,0,1,.038.131c.012.1.014.059.02.012a.757.757,0,0,1-.085.359.613.613,0,0,1-.171.211c-.083.057-.082.047-.082.038s0-.01-.013,0c-.1.053-.088.053-.085.062s0,.026-.159.041c.036-.005.1-.021.075-.019a.464.464,0,0,1-.217-.019c-.075-.02-.142-.054-.194-.068.021.01.043.023.064.031a.621.621,0,0,1-.27-.15c-.071-.064-.113-.126-.137-.127v.025a1.057,1.057,0,0,1-.122-.216.3.3,0,0,1-.026-.07.525.525,0,0,1-.017-.177l0,0a.513.513,0,0,1,.027-.181.259.259,0,0,0,.015-.12l-.017.046a2.954,2.954,0,0,0,.072-.362.53.53,0,0,1,.011-.132.736.736,0,0,1-.013-.221c0-.112,0-.235,0-.275.014.142.023.074.034.033a.514.514,0,0,1-.032-.258c-.045-.013-.09-.031-.126-.259.012.035.023.09.029.066a.23.23,0,0,0-.017-.094c0-.012.008,0,.015.011s.014.024.021.01a2.512,2.512,0,0,1-.088-.5c.024.071.025.007.038-.02-.058-.012.016-.32-.046-.227a1.7,1.7,0,0,1,.138-.8.749.749,0,0,1,.265-.277.572.572,0,0,1,.218-.088,1.5,1.5,0,0,0,.24-.1l0,.029c.194-.11.157-.066.383-.192-.09.064-.043.065.065.057l.147-.111.047.03a.727.727,0,0,1,.215-.08c.05-.069.3-.161.337-.2a.189.189,0,0,0,.138-.03c.045-.022.087-.045.125-.028a.64.64,0,0,1,.081-.056c-.045-.011-.069-.035,0-.049l.014-.007.042.022c.063-.035.129-.067.173-.086a.442.442,0,0,1-.074.011l.087-.016.024-.01-.013.007a.365.365,0,0,0,.14-.059c.254-.044.483-.293.769-.332A.209.209,0,0,0,5.925,18a5.372,5.372,0,0,0,.569-.225l-.024-.029a3.769,3.769,0,0,1,.394-.2L6.855,17.5c.091-.031.243-.112.4-.166a.637.637,0,0,1,.4-.041,1,1,0,0,1,.464.028l.027.037a2.857,2.857,0,0,1,.356.153,4.114,4.114,0,0,1,.616.682l-.006.007c.058.073.108.149.162.225-.059-.049.043.038.076.113a.976.976,0,0,1,.143.3l.073.16c-.1-.168-.032.03-.057.053l.067.091c0,.022-.009.012-.019,0s-.022-.023-.007.02c.047.06.125.264.179.316a.191.191,0,0,0,0-.073c-.006-.008,0-.008,0,0V19.4l0,.009a.156.156,0,0,0,.022.024c.041.132.035.08.047.07.007.157.06.229.051.349.009-.057.036.032.064.12s.057.176.069.122c-.011.125.021.076,0,.159a1.67,1.67,0,0,0-.187-.416l.013.131c-.079-.061-.072-.279-.117-.344a.349.349,0,0,1,.047.163l.028-.044a1.377,1.377,0,0,0-.2-.417c.017.062-.006.025-.03-.011s-.048-.068-.046-.022l.041.087c0,.014,0,.016-.01.011.13.321.239.649.345.98.042.012.121.216.13.148a.434.434,0,0,0,.045.219c.054.1,0-.139,0-.186.052.118.062.115.073.115-.012.116-.061.215-.116.115.019.058.039.116.058.174-.007-.04.016,0,.039.068l-.011.009a.1.1,0,0,1-.009-.018,8.7,8.7,0,0,0,.414,1.037,1.271,1.271,0,0,1-1.215,1.771c-.3,0-.6,0-.9,0v0H8.357s0,0,0,0v.011h.019l-.018,0,0,.01H8.353v-.01l-.047.005-.028-.005c.015,0,.048,0,.075,0l0-.012v0l-.3,0c.069.007.131.014.057.018l.1,0c-.034.008-.323,0-.382.016l-.324,0c.011.005-.042.016.01.015-.08,0-.149.011-.045.012-.077,0-.158.007-.241.007A1.322,1.322,0,0,1,6.883,23.84ZM2.672,21.368c.013.076.025.152.034.229,0-.022.01-.055.017-.093,0-.017,0-.033,0-.05L2.705,21.4l.012.026c0-.038-.006-.077-.01-.115-.006,0-.011.014-.013.047l.011.042c-.011-.025-.022-.043-.028-.043S2.672,21.36,2.672,21.368Zm7.322-.6a.618.618,0,0,0-.067-.208C9.949,20.629,9.971,20.7,9.994,20.768Zm-.082-.252h0L9.909,20.5Zm-1.842-.21c.017.02.033.039,0-.039ZM3.642,19.063l.142-.044c-.015-.021-.028-.04-.021-.059C3.723,18.995,3.682,19.028,3.642,19.063Zm5.64-.234c0-.015.02-.011.036-.008s.06.012.044-.074c-.12-.317-.192-.2-.4-.547-.009-.007-.005-.007,0-.007s.051,0-.05-.119a.8.8,0,0,0-.333-.237,3.027,3.027,0,0,1,.484.643.345.345,0,0,1-.021-.056.81.81,0,0,0,.127.194l-.054-.134C9.178,18.585,9.19,18.684,9.282,18.829Zm-5.1-.027a.04.04,0,0,1,.008-.016C4.154,18.8,4.174,18.8,4.179,18.8Zm5.226-.073,0,0-.024-.061Zm-3.949-.343.284-.119a2.465,2.465,0,0,0,.17-.2l-.159.1L5.7,18.165A.986.986,0,0,0,5.456,18.387Zm1.194-.63a.133.133,0,0,0,.009.114l.185-.081,0-.066.029.055.189-.082a.042.042,0,0,0-.027-.009h0A3.282,3.282,0,0,0,6.65,17.756Zm.983-.232a1.265,1.265,0,0,1,.164-.012c-.015-.009-.035-.022-.029-.033A.417.417,0,0,0,7.633,17.524ZM70.79,23.4l-.027-.031a.8.8,0,0,1-.295-.256c-.065-.084-.131-.179-.244-.355.005,0,.034.042,0-.015a3.276,3.276,0,0,1-.273-.4l.009.008-.234-.378c.008,0-.015-.047-.054-.11a1.159,1.159,0,0,0-.112-.16.914.914,0,0,1-.024.091l-.008.024-.015.035c-.009.023-.022.045-.032.065a.376.376,0,0,1-.135.152.513.513,0,0,1-.233.134,1.773,1.773,0,0,1-.3.045s-.01,0-.034,0c-.169.031-.492.03-.681.047-.122.014-.068.016-.014.019-.244,0-.669.074-.759.075-.178.014-.068-.01-.117-.016-.265.026.047.035-.309.048.041-.005.117-.013.087-.014a2.2,2.2,0,0,1-.225-.005,1.646,1.646,0,0,0-.292,0l.09,0c-.247.033-.589,0-.627.038l.025.015c-.428.006-.181.02-.615.025l.005,0a1.6,1.6,0,0,0-.384.031h.066c-.234.013-.256.013-.5.019a.921.921,0,0,1-.176.007,3.78,3.78,0,0,1-.664.024c.191-.007.1-.02.047-.032a.835.835,0,0,1-.342.009.116.116,0,0,1-.069.062,1.89,1.89,0,0,1-.255.062c.04-.016.1-.029.077-.034a.338.338,0,0,0-.115.026c-.032,0,.065-.029.028-.038a.97.97,0,0,1-.3.071,2.26,2.26,0,0,1-.4,0c.11,0,.017-.019-.016-.043-.017.024-.136-.007-.22-.07s-.136-.124-.108-.052a.975.975,0,0,1-.251-.483,3.407,3.407,0,0,1-.081-.519,2.179,2.179,0,0,1,.032-.738,3.214,3.214,0,0,0,.037-.333l.024.02a1.487,1.487,0,0,1,.031-.267l.066-.3c-.019.148.014.093.092-.028.012-.079.028-.161.043-.238l.058-.022a1.242,1.242,0,0,1,.125-.274c0-.1.15-.426.149-.491.1-.067.1-.256.183-.3a1.053,1.053,0,0,1,.032-.123c-.045.033-.081.038-.03-.041l.008-.02.049-.022c.03-.089.065-.178.089-.237a.8.8,0,0,1-.055.08l.062-.1.014-.031a.132.132,0,0,1-.007.02.576.576,0,0,0,.079-.182c.185-.279.209-.7.411-1.01a.364.364,0,0,0-.052.142,6.459,6.459,0,0,0,.293-.737h-.039c.054-.215.1-.38.149-.549L63.5,15.72c.046-.121.086-.319.133-.5a1.259,1.259,0,0,1,.146-.422c-.017-.068.086-.345.1-.491l.038-.031a2.042,2.042,0,0,0,.057-.416,1.541,1.541,0,0,0,.059-.541.827.827,0,0,1,.2-.622l.009,0a.806.806,0,0,1,.383-.237c-.062.033-.024.011.045-.011a.465.465,0,0,1,.167-.027.626.626,0,0,1,.265.024.707.707,0,0,1,.252.139.872.872,0,0,1,.2.2c-.216-.223-.011.043-.038.074a.919.919,0,0,1,.1.133c0,.03-.008.015-.02,0s-.027-.036,0,.026a.762.762,0,0,1,.084.254,1.456,1.456,0,0,0,.047.234.339.339,0,0,0,.016-.095c0-.012,0-.012,0,0v0a.417.417,0,0,0,.014.04c0,.185.011.116.025.109a3.311,3.311,0,0,1-.075.46c.028-.059.021.05.008.167s-.041.266,0,.2c-.073.146-.021.1-.08.195a1.847,1.847,0,0,0,.031-.606c-.014.056-.028.112-.044.167-.041-.111.043-.367.025-.473a.576.576,0,0,1-.015.216l.042-.041a1.659,1.659,0,0,0-.064-.607c0,.086-.009.034-.026-.02s-.046-.109-.047-.048a1.019,1.019,0,0,1,.028.124c0,.017-.007.018-.012.01a4.216,4.216,0,0,1-.081,1.348c.03.036-.027.323.02.25a.769.769,0,0,0-.1.277c-.014.143.084-.157.114-.21-.029.166-.02.169-.011.177-.081.123-.181.2-.164.056l-.061.232c.02-.052.012.014-.01.1l-.015,0a.152.152,0,0,1,.006-.03,21.088,21.088,0,0,1-.9,2.822,13.434,13.434,0,0,0-1.092,2.791h.02l.008-.034s0,0,0-.007.007-.018-.006.041l.066,0,.035.006c-.021,0-.067,0-.1,0l0,.014c.133,0,.266.006.4.006-.093-.006-.179-.011-.081-.017h-.134c.044,0,.421-.008.5-.024l.423-.014c-.013,0,.055-.019-.012-.014.1-.01.194-.02.058-.015.505-.026,1.015-.084,1.523-.147a12.33,12.33,0,0,1,1.519-.122c.068-.005.029-.015,0-.022.186.025.176-.024.278-.03l.271.046c.111-.014.025-.029.033-.038.129,0,.257.008.383.015s.258.028.361.04c.06.011.127.025.188.034l.023,0h.007c.006,0,.011,0,0,0L69,20.8c-.016-.027-.032-.054-.049-.078s.009-.027.022-.024.019,0,0-.055c0,.041-.007.036-.021.02a.224.224,0,0,1-.027-.039l-.047-.085c-.058-.111-.12-.226-.118-.188a1.175,1.175,0,0,0-.137-.313c-.059-.1-.111-.179-.054-.178-.125-.159-.137-.1-.1-.054a2.665,2.665,0,0,1-.215-.27.866.866,0,0,1-.141-.315.558.558,0,0,1,.069-.279.993.993,0,0,1,.3-.316.79.79,0,0,1,.443-.136.659.659,0,0,1,.28.056c-.117-.061.041-.021.185.022a.9.9,0,0,0-.122-.084,1.1,1.1,0,0,1,.327.155c.063.04.078.057.075.059.046.042-.022.005.081.122.081.091.114.153.142.184s.054.059.092.106l-.011-.032.075.128c.021.039-.012-.007-.048-.054-.051-.066-.109-.133-.017.056a.631.631,0,0,1,.174.256c-.081-.161-.1-.128-.074-.064l.114.226,0-.1c.33.647.6,1.347,1,2-.039.012.287.456.214.424l-.013-.027c-.109-.154,0,.067.1.187-.034-.058,0-.031.026,0s.084.075-.044-.11c.063.078.128.154.2.227a.615.615,0,0,1,.151.135c.03.033.062.07.1.111a.819.819,0,0,1,.109.16.564.564,0,0,1,.028.431.492.492,0,0,1-.289.3.106.106,0,0,0,.04-.026,1.477,1.477,0,0,1-.621.16h-.021A.925.925,0,0,1,70.79,23.4Zm-7.331-.885.3-.015c-.029,0-.073-.013-.122-.023h-.063l-.075.008.035-.009-.15,0c0,.007.017.013.059.018l.056-.007C63.453,22.5,63.423,22.512,63.459,22.518Zm-.193-1.4,0,.013h.022s0,0,0-.014Zm-1.3-1.031c.02-.058.041-.115.064-.172-.027,0-.051,0-.06-.021C61.967,19.963,61.968,20.027,61.967,20.091Zm.23-.73.007,0a.052.052,0,0,1,0-.02C62.186,19.369,62.19,19.365,62.2,19.361Zm7.479-.638-.039-.041a.192.192,0,0,0-.032-.012C69.6,18.669,69.615,18.681,69.677,18.723Zm-.456-.174ZM63.1,17.335l-.047.047A1.632,1.632,0,0,0,63,17.8c.053-.123.1-.247.156-.371.008-.135.012-.259.008-.329Zm.659-1.658c-.054.076-.218.42-.233.443a.116.116,0,0,0,.087.08c.028-.083.056-.167.082-.251l-.049-.049.06.013c.028-.086.054-.172.079-.258A.063.063,0,0,0,63.764,15.677Zm1.582-.5a1.059,1.059,0,0,0,.072-.277Zm-1.359-.274c.017-.072.032-.145.047-.217-.012.017-.032.039-.042.028A1.352,1.352,0,0,0,63.986,14.905Zm1.446-.06,0,0,0-.018Zm-1.283-1.818a.7.7,0,0,0-.011.264,1.9,1.9,0,0,0,.039.189c.008.032.016.06.025.084,0-.078.006-.155,0-.233a.618.618,0,0,1,.4-.655l-.077.021a2.068,2.068,0,0,1,.293-.087.841.841,0,0,0-.194.014.591.591,0,0,1,.228-.017,1.168,1.168,0,0,1,.275.056c-.013-.02.024-.025.046-.034s.033-.032-.056-.086a.545.545,0,0,0-.46,0,1.231,1.231,0,0,0-.173.1.843.843,0,0,0-.233.226c-.01.026,0-.007-.015-.012h0C64.229,12.858,64.19,12.885,64.149,13.027Zm1-.526h.007l-.1-.036ZM8.734,22.309h0Zm87.842-1.594a.17.17,0,0,1-.083-.009l0,0a.157.157,0,0,1-.041-.006c-.023-.006-.039-.013-.058.006l.016.006a1.109,1.109,0,0,1-.124-.02c-.008,0-.038,0-.045-.006-.009.031-.143-.011-.169-.019.049,0,.03-.013.02-.029a.064.064,0,0,1-.087-.008.089.089,0,0,1-.115.067c.014,0,.034,0,.028-.013s-.026-.005-.032,0,.021-.012.017-.029c-.064.027-.091-.018-.17-.026.028-.006.011-.021.008-.039-.011.023-.03.008-.047-.007s-.034-.035-.033.005c-.128-.084-.355-.139-.386-.21,0-.026-.058-.011-.082-.022l.016-.023a.2.2,0,0,1-.079,0,.312.312,0,0,0-.08,0c.048-.013.042-.033.023-.072l-.08.023.012-.044a.085.085,0,0,1-.068-.034.117.117,0,0,1-.09,0c-.025-.006-.047-.012-.059,0,.01-.066-.069-.023-.054-.082a.114.114,0,0,1-.039,0c0,.029-.017.057-.03.034l-.006,0,.011-.036a.25.25,0,0,1-.063-.023.079.079,0,0,1,.011.029l-.014-.031-.007,0H94.6a.045.045,0,0,0-.043-.028c-.039-.092-.2-.039-.233-.156.007.014.021.029.033.02-.067-.041-.095-.131-.153-.136l-.019.031a.416.416,0,0,1-.133-.067l-.027.031c-.045-.051-.2-.089-.176-.181-.033.015-.065-.065-.1-.081l.013-.031a.2.2,0,0,0-.089-.062c-.032-.111-.151-.131-.2-.176l.005-.007-.076-.029c.013,0,.011,0,0,0s-.033,0-.042-.01a.118.118,0,0,1-.078-.067l-.045-.032c.062.018.018-.037.032-.068l-.044,0c0-.021.033-.009.014-.029a.157.157,0,0,1-.052-.016.123.123,0,0,0-.073-.013.055.055,0,0,0,.007.033s0,0,0,0v0l0,0-.016,0c-.034-.036-.028-.014-.034,0-.015-.07-.054-.07-.057-.131,0,.034-.026.009-.05-.015s-.05-.048-.055-.016c0-.066-.019-.025-.01-.072.03.056.1.066.149.079l-.015-.051c.053-.022.062.078.095.08-.021,0-.042-.032-.039-.044l-.015.039a.184.184,0,0,0,.146.061c-.012-.016,0-.016.014-.016s.037,0,.033-.021l-.029-.013a.01.01,0,0,1,.007-.012c-.042-.028-.083-.057-.123-.087l0,0-.012-.011a1.089,1.089,0,0,1-.129-.12c-.014.009-.034,0-.052,0s-.041-.014-.044,0c-.007-.032.015-.034-.026-.078-.038-.022-.006.059-.007.082-.036-.033-.043-.028-.052-.024.012-.059.062-.116.1-.093-.011-.017-.022-.036-.031-.055,0,.017-.011.008-.022-.013l.01-.006s0,0,0,0a.794.794,0,0,1-.056-.155c-.145-.591.011-.846.639-.844a.542.542,0,0,1,.105-.011c-.024,0-.048-.006-.022-.01l-.034,0a.652.652,0,0,1,.128-.006.511.511,0,0,1,.1.03s.016,0,0-.007a.134.134,0,0,0,.03.009,1.192,1.192,0,0,1,.307.214c.094.089.192.164.285.244.014.008.011,0,.009-.011.016.026.029.025.043.024a.034.034,0,0,1,.022,0l.037.06c.029.006.017-.014.022-.018a1.615,1.615,0,0,0,.3.167c.021.029-.025.029.01.053-.015-.036.021-.024.055-.013s.054.02.053,0c.016.061.132.071.079.133.045.027.054-.013.045-.026a.268.268,0,0,0,.152.044c.02.031.255.091.278.176-.009-.037,0-.031.022-.024a.093.093,0,0,0,.031,0l-.012-.049.07.039c.016,0,.02.007.017.01s-.012.019.014.043c.047.027.059.009.1,0l-.005-.009.035.014c.024.013-.1-.01-.033.049.006-.01.076-.029.084.007-.039-.024-.046,0-.037.021l.054.033,0-.053a3.873,3.873,0,0,1,.46.352c-.022.025.105.092.062.118l0-.008c-.039-.027-.012.038.021.058-.022-.038.084.013.014-.057l.07.035c.085-.032.141.151.236.217-.008,0-.012,0-.013,0,.083.062.143.182.166.192l0,.017a.429.429,0,0,1,.145.14h0s-.008,0,0,.009a.257.257,0,0,1,.093.08h0a.959.959,0,0,1,.072.091c-.015.01.018.047.046.095s.048.108.033.128a.33.33,0,0,1,.02.151s0,0-.006.009c.012.053-.048.129-.076.169s0,.023.011.014c-.047.045-.1.154-.126.166s-.028.014-.031.007,0-.007-.009-.007c-.057.047.035.027-.059.069.009-.008.026-.022.018-.019a.159.159,0,0,1-.078.01.138.138,0,0,0-.068.008h.025a.175.175,0,0,1-.1.014c-.031,0-.056-.005-.059.012l.007.016A.228.228,0,0,0,96.576,20.715Zm-.549-.1h.079a.232.232,0,0,1-.024-.028l-.016,0-.021,0,.011-.007-.035-.009a.019.019,0,0,0,.009.021l.015,0C96.03,20.6,96.019,20.606,96.027,20.613Zm-.942-.363.07-.034-.041-.022A.213.213,0,0,1,95.085,20.25Zm-.136-.06-.01.008C94.95,20.2,94.946,20.2,94.949,20.189Zm-.543-.31.068.011,0,.03a.267.267,0,0,0,.147-.033l-.083-.058A1.354,1.354,0,0,0,94.406,19.88Zm-.253-.311a.576.576,0,0,0,.044.147.342.342,0,0,0,.075-.079l-.052-.04-.043.044.036-.05-.053-.041A.045.045,0,0,0,94.153,19.569Zm-.2-.141a.128.128,0,0,0,.058,0l-.043-.034A.066.066,0,0,1,93.948,19.428Zm-.365-.219a.241.241,0,0,0,.159.005l-.092-.076a1.357,1.357,0,0,0-.115-.085.036.036,0,0,1,.01.02.077.077,0,0,0-.069-.031l.028.041c-.032-.019-.035-.07-.09-.086-.008.03-.062.042-.048.1a.073.073,0,0,0,.094.036.112.112,0,0,1,.113.028h0C93.586,19.159,93.524,19.183,93.583,19.209Zm-.245-.075c.013.017.02.028,0,0Zm-.381-.508.007,0-.006-.006Zm-.01-.014a.676.676,0,0,1-.04-.058A.071.071,0,0,0,92.947,18.612Zm2.511-.065Zm.125,0-.008-.013C95.565,18.539,95.554,18.543,95.583,18.547Zm-26.825,1.8c0,.005,0,.01,0,.015A.061.061,0,0,1,68.759,20.346Zm19.637-.87c-.089-.061-.057-.03-.023.007a.667.667,0,0,1-.208-.319.479.479,0,0,1,0-.287c.036-.095.041-.087.045-.079s.006.008.015,0c.049-.1.041-.095.033-.1s-.006-.021.09-.128c-.017.025-.056.079-.039.06.07-.086.227-.2.285-.289l-.05.05c.112-.159.307-.343.3-.388l-.024,0c.213-.258.075-.12.285-.387v.005c.081-.123.141-.179.155-.257l-.031.041.206-.326a.6.6,0,0,1,.07-.119,3.172,3.172,0,0,1,.247-.453c-.068.131-.022.077.01.047a.547.547,0,0,1,.122-.239c-.029-.036-.057-.079.05-.29-.011.036-.034.088-.016.072a.259.259,0,0,0,.042-.089c.009-.008.006.005.005.019s0,.027.011.019a3.017,3.017,0,0,1,.214-.462c-.021.072.016.02.042,0-.041-.041.183-.264.081-.217.241-.389.5-1.044.616-1.185.04-.034.061-.165.091-.238l.021.021c.046-.224.055-.166.115-.426-.014.113.019.078.087-.011l.02-.188.054-.014a.779.779,0,0,1,.093-.217c-.015-.086.1-.339.1-.393.088-.048.072-.2.15-.233a.636.636,0,0,1,.02-.1c-.041.024-.074.025-.033-.036l.005-.015.045-.012c.018-.067.036-.133.049-.177a.327.327,0,0,1-.039.06c.014-.025.029-.049.042-.073l.007-.023a.055.055,0,0,1,0,.015.3.3,0,0,0,.038-.141c.113-.229.008-.557.122-.833a.219.219,0,0,0-.013.12,2.716,2.716,0,0,1,.067-.346,1.1,1.1,0,0,0,.05-.276l-.037,0a1.313,1.313,0,0,1,.085-.5l-.032-.027a.755.755,0,0,1,.185-.24.7.7,0,0,1,.315-.151.842.842,0,0,1,.273-.014.357.357,0,0,1,.178.061.4.4,0,0,1,.223.067,1.338,1.338,0,0,1,.239.186l0,.05a2.429,2.429,0,0,1,.215.335c.017.086.037.165.057.241a1.244,1.244,0,0,1,.042.264,2.5,2.5,0,0,1-.024.438h-.009a.9.9,0,0,0,.015.227c-.032-.049.021.039.03.088a2.1,2.1,0,0,0,.119.19.764.764,0,0,0,.112.087c-.144-.077-.015.042-.019.074a.824.824,0,0,0,.1.023c.014.015,0,.015-.013.014s-.025,0,.008.02.1.027.162.041a.448.448,0,0,0,.167.008.206.206,0,0,0-.059-.035c-.009,0-.008,0,0,0l-.006,0,.008,0a.131.131,0,0,0,.029-.006c.122.031.079.009.077-.005.128.068.216.049.323.1-.04-.026.04-.019.128-.009s.211.029.161-.008c.118.065.085.016.154.069a1.322,1.322,0,0,0-.474-.012l.127.039a.381.381,0,0,1-.223-.012.564.564,0,0,0-.142-.024.422.422,0,0,1,.168.028l-.029-.042c-.181-.034-.321-.025-.448-.042.053.025.02.021-.021.016s-.091-.01-.054.02l.1.024c.011.008.01.012,0,.014a8.67,8.67,0,0,0,.912.113l.139.025c.03-.03.254,0,.2-.036a.527.527,0,0,0,.22.07c.114.007-.124-.067-.168-.089.133.017.135.008.141,0,.1.067.16.153.045.144l.181.043c-.037-.014.014-.011.08.007l0,.013-.02,0c1.1.281,2.163.716,3.29.914.369.064.807.282.747.849a.793.793,0,0,1-.023.313.056.056,0,0,0,0-.007c.021-.061.028-.11.02-.04a.811.811,0,0,0,.012-.106.546.546,0,0,1-.034.185.512.512,0,0,1-.111.178.565.565,0,0,1-.3.143c.011,0-.043.014.011,0-.041.008-.078.013-.094.015a1.534,1.534,0,0,1-.255,0l-.3-.024a4.719,4.719,0,0,1-.6-.087,3.265,3.265,0,0,1-.572-.194c-.183-.073-.368-.139-.552-.2-.051-.014-.024,0-.007.012-.13-.062-.134-.031-.21-.048l-.192-.087c-.085-.012-.024.015-.032.02-.386-.091-.755-.209-1.076-.249-.1-.037.032-.031-.1-.065.09.044-.025.026-.138.007-.09-.014-.179-.029-.156-.011-.126-.074-.465-.1-.392-.168-.158-.039-.138.007-.094.023a2.833,2.833,0,0,0-.49-.081,5.8,5.8,0,0,1-.976-.294c.074.06-.036.007-.138,0l.082.065a.8.8,0,0,0-.2-.049c-.029.005-.033.006-.034,0a.012.012,0,0,1-.014-.008c0-.006-.01-.013-.046,0a.13.13,0,0,0-.057.085c0,.029,0,.048,0,.088l.012-.018a.853.853,0,0,0-.023.094c-.009.029-.005-.011,0-.052,0-.056,0-.113-.049.019a.4.4,0,0,1-.009.235c.026-.141,0-.124-.023-.077a1.336,1.336,0,0,1-.049.209c.026-.022.046-.042.068-.064-.006.022-.009.039-.018.064a.437.437,0,0,1-.026.063l-.046.1-.1.193c-.066.128-.132.258-.2.389l-.416.793c-.012-.011-.059.073-.105.157s-.1.187-.114.15l.015-.018c.065-.134-.052.021-.1.13.03-.044.023-.012.016.02s-.02.088.068-.066l-.1.218c.007.154-.323.546-.493.863a.08.08,0,0,0,.012-.034c-.153.282-.4.594-.437.66l-.028.016a2.829,2.829,0,0,1-.36.521s.022-.036-.012,0a1.662,1.662,0,0,1-.235.3l0-.009c-.079.086-.16.172-.247.251-.011-.014-.116.094-.245.2a1.2,1.2,0,0,1-.332.214,2.6,2.6,0,0,1-.385.213s-.008,0-.027.006a.715.715,0,0,1-.259.082.473.473,0,0,1-.06,0A.417.417,0,0,1,88.4,19.476Zm1.485-3.1c-.032.072-.068.143-.1.215.015-.018.039-.043.066-.071l.026-.044.021-.056-.006.029.057-.1c-.005,0-.017,0-.038.032l-.013.042c0-.031.007-.053,0-.053S89.885,16.366,89.881,16.372Zm1.361-2.655.062-.137c-.026,0-.049-.006-.058-.024C91.245,13.61,91.242,13.663,91.241,13.717Zm1.79-.179.024.006c.008-.008.016-.014.009-.014A.154.154,0,0,0,93.031,13.538Zm-1.618-.4a.009.009,0,0,1,.007,0,.047.047,0,0,1-.006-.017C91.4,13.14,91.407,13.138,91.413,13.135Zm4.273-.655a.67.67,0,0,0-.218-.047C95.542,12.448,95.614,12.463,95.686,12.48Zm-.263-.057,0,0h-.014Zm-.747-.153Zm.118-.063ZM93.7,11.934c.007-.037.106.018.064-.093-.059-.12-.074-.163-.112-.225a.478.478,0,0,1-.033-.341c0-.013,0-.007.008,0s.034.022.042-.124A.739.739,0,0,0,93.6,10.8a.356.356,0,0,0-.043-.058,3.642,3.642,0,0,1-.021.817.2.2,0,0,1,.009-.055.377.377,0,0,0,.043.226.64.64,0,0,1-.008-.14A.465.465,0,0,0,93.7,11.934Zm-1.743-.416-.032.043a1.262,1.262,0,0,0,.059.328c.02-.1.037-.206.051-.311a2.257,2.257,0,0,0-.084-.253Zm1.846.3,0,0a.272.272,0,0,1-.017-.033ZM92.3,10.151a.466.466,0,0,0-.142.183,1.579,1.579,0,0,0-.071.175.129.129,0,0,0,.1.054,1.927,1.927,0,0,1,.038-.2c-.017-.013-.035-.027-.052-.041l.06.013a.519.519,0,0,1,.094-.187h-.006A.059.059,0,0,0,92.3,10.151Zm.6-.151a.736.736,0,0,1,.164.045c-.011-.015-.026-.035-.015-.044a.305.305,0,0,0-.073-.008A.437.437,0,0,0,92.893,10ZM94.9,18.213v0A.019.019,0,0,1,94.9,18.213Zm-53.762-.346c0,.012-.006.024-.008.034A.2.2,0,0,1,41.141,17.867ZM30.1,17.308l-.009.014ZM56.46,15.6c-.064-.036-.08-.05-.078-.053-.049-.039.023-.006-.094-.113a2.261,2.261,0,0,1-.177-.177l-.028-.031c0,.009,0,.017,0,.031a1.466,1.466,0,0,1-.021.2c.008-.059,0-.009-.02.063a.881.881,0,0,1-.034.11l-.017.047c-.006.017,0,.008-.006.013A.608.608,0,0,1,56,15.627c.007-.027.016-.052.022-.082a1.576,1.576,0,0,0,.029-.175c.014-.07.021-.123.025-.15l-.024-.029c0,.011,0,.02,0,.028,0-.011,0-.022,0-.033s-.019-.025-.028-.041c0,.045,0,.091,0,.137,0-.046,0-.092,0-.139,0-.007-.01-.015-.015-.024a.311.311,0,0,0,.012.043.711.711,0,0,1-.062-.186c-.01-.072.013.056.059.13l.005.008c0-.042,0-.084-.008-.125a.449.449,0,0,1-.041-.132.425.425,0,0,1,.026-.229.3.3,0,0,0-.013.168c.008.011.015-.016.028-.054a1.137,1.137,0,0,1,.081-.28l-.079.074a6.884,6.884,0,0,1,1.355-2c.007.014.1-.08.186-.174s.2-.21.194-.164l-.024.02c-.134.15.066-.018.174-.141-.054.048-.031.011-.008-.026s.064-.1-.1.07l.207-.246a9.538,9.538,0,0,1,.924-.972c-.023.026-.027.035-.027.04.288-.322.688-.682.75-.761l.037-.017a7.923,7.923,0,0,1,.581-.624c0,.006-.035.045.015,0a4.674,4.674,0,0,1,.344-.382l-.006.012.323-.343c.025.027.537-.6.66-.682.056-.074.286-.331.385-.447,0,0,.01-.006.028-.024.107-.147.355-.383.486-.535.084-.1.041-.063,0-.025.185-.182.455-.549.522-.616.08-.092.081-.083.083-.075s0,.01.016,0c.179-.216-.061.01.2-.266-.027.034-.079.1-.056.075.1-.107.3-.269.388-.386l-.068.067c.078-.105.192-.215.27-.312a.533.533,0,0,0,.126-.212L63.94,5.4c.123-.2.148-.234.174-.276a.958.958,0,0,1,.058-.081.736.736,0,0,1,.181-.163l0,.006a.57.57,0,0,1,.234-.1,1.2,1.2,0,0,0,.17-.038l-.073,0a.824.824,0,0,1,.16,0,.859.859,0,0,1,.114.011.991.991,0,0,1,.268.077.442.442,0,0,1,.173.111c.007,0,.043.022.086.074a.53.53,0,0,1,.1.229.88.88,0,0,1-.052.421c.03-.1.028-.133.022-.128s-.022.043-.037.069a.776.776,0,0,1-.116.351c.025.037.071.089-.086.4.021-.05.054-.126.031-.1a.65.65,0,0,0-.064.126c-.013.012-.007-.006,0-.024s.009-.037-.007-.024a.882.882,0,0,1-.165.284,2.947,2.947,0,0,1-.287.3c.074-.08,0-.027-.043-.016.009.03-.1.093-.166.131s-.1.063-.048.065a.1.1,0,0,0-.049.107.167.167,0,0,0,.038.058.631.631,0,0,0,.085.069c.139.089.311.185.456.275a4.788,4.788,0,0,1,.636.429,1.886,1.886,0,0,0,.3.174L66,8.222c.281.122.207.113.532.263-.142-.052-.1-.006.011.1l.235.084.016.062a1.426,1.426,0,0,1,.27.17c.108.012.425.217.493.225.06.109.255.138.293.227a1.323,1.323,0,0,1,.123.049c-.03-.05-.031-.086.046-.025l.021.011.017.052c.09.043.18.09.239.121a.823.823,0,0,1-.079-.065l.1.075.031.018-.02-.009a.711.711,0,0,0,.183.1,9.251,9.251,0,0,1,1.007.609.38.38,0,0,0-.139-.087c.278.173.513.4.7.5l.009-.038a5,5,0,0,1,.512.347l.033-.026c.215.18.723.515.8.694a3.8,3.8,0,0,1,.409.364l.009.05a4,4,0,0,0,.341.308c.032.042.065.083.1.122a1.409,1.409,0,0,0,.1.106.669.669,0,0,1,.218.336.64.64,0,0,1-.06.392.743.743,0,0,1-.222.282l-.009,0a1.066,1.066,0,0,1-.4.2c.049-.025.031-.016-.015,0a.664.664,0,0,1-.2.039.907.907,0,0,1-.519-.089,1.526,1.526,0,0,1-.242-.117c.269.121,0-.044.006-.082a1.614,1.614,0,0,1-.148-.068c-.02-.023,0-.016.016-.01s.039.016-.01-.025c-.1-.045-.328-.258-.414-.307a.361.361,0,0,0,.054.086c.011.008.01.008,0,0l.007.009-.008-.01a.4.4,0,0,0-.04-.022c-.129-.144-.087-.08-.094-.068-.1-.171-.2-.23-.28-.359.023.049-.057-.021-.142-.1s-.207-.171-.173-.106c-.091-.134-.082-.067-.136-.16a5.847,5.847,0,0,0,.507.35l-.113-.136c.124.032.281.275.363.337a.8.8,0,0,1-.159-.167l.005.06a3.16,3.16,0,0,0,.243.234,2.46,2.46,0,0,0,.235.18c-.061-.063-.013-.031.038,0s.1.061.063.01c-.034-.027-.07-.055-.1-.084-.01-.016-.007-.019,0-.016-.063-.058-.122-.117-.179-.176a6.644,6.644,0,0,0-.9-.772.4.4,0,0,1-.133-.049c-.076-.037-.148-.073-.116-.03a.768.768,0,0,0-.243-.19c-.138-.063.131.133.173.182-.154-.088-.161-.078-.171-.073-.1-.118-.148-.244-.006-.177l-.214-.136c.044.035-.018,0-.1-.043V11.74l.024.013c-.444-.273-.9-.53-1.341-.81-1.332-.841-2.644-1.714-4-2.6-.086.117-.175.231-.266.345.064-.07.12-.132.061-.049l.083-.115c-.02.044-.27.356-.314.427-.1.114-.194.229-.3.339,0,0,0,0,0,.011s-.01.023.02-.011c-.072.085-.134.161-.034.054-.36.4-.734.8-1.106,1.192s-.743.789-1.122,1.156c-.047.054-.01.032.014.017-.156.12-.116.146-.185.228l-.227.177c-.046.065-.027.058-.01.052s.015-.006.015,0c-.356.4-.73.771-1,1.119-.049.042-.056.034-.06.026s-.009-.018-.077.053c.106-.078.012.038-.085.155-.081.1-.163.2-.126.179-.164.105-.418.483-.433.371-.141.168-.084.165-.039.12a2.844,2.844,0,0,0-.371.548,4.144,4.144,0,0,0-.34.56.81.81,0,0,1-.347.342.5.5,0,0,1-.306.044c.056.017.05.021.007.023a.8.8,0,0,1-.226-.033.63.63,0,0,0,.149.078A.872.872,0,0,1,56.46,15.6Zm-.044-.045c.035.011.068.026-.042-.04Zm-.363-.4s0,0,0,0a.049.049,0,0,0,0-.023C56.052,15.143,56.052,15.152,56.052,15.159Zm-.034-.042a.2.2,0,0,0,.029.039c0-.013,0-.026,0-.039s-.017-.062-.028-.115l-.006-.009Q56.017,15.055,56.018,15.117Zm15.366-1.3c.1.023.156.035.008,0Zm.022-.044a.657.657,0,0,0,.468-.03c.051-.024.106-.05.18-.088a.968.968,0,0,0,.275-.2c.015-.024,0,.007.012.014s.053-.01.124-.161a.5.5,0,0,0,.035-.294.319.319,0,0,0-.128-.191.469.469,0,0,0-.083-.045.352.352,0,0,1,.105.448.646.646,0,0,1-.453.385.706.706,0,0,1,.078-.015l-.313.083a1.277,1.277,0,0,0,.2-.016,1.389,1.389,0,0,1-.534-.01C71.414,13.692,71.22,13.691,71.405,13.772Zm-2-1.621.021.012-.02-.013Zm-.05-.036c-.083-.057-.168-.112-.252-.167A1.27,1.27,0,0,0,69.352,12.115Zm2.053-.152c-.01-.021-.022-.052-.007-.055a1.106,1.106,0,0,0-.173-.1C71.285,11.857,71.346,11.91,71.405,11.963Zm-1.041-.855c.077.058.151.118.226.177,0-.008,0-.019-.011-.035a4.77,4.77,0,0,0-.365-.39.114.114,0,0,0-.107.059c.076.055.152.109.226.166l.065-.029Zm-1.41-.967c.139.034.266.063.341.077-.078-.039-.157-.077-.236-.114l-.042-.056a1.534,1.534,0,0,0-.433-.127C68.708,9.994,68.832,10.067,68.954,10.142ZM67.066,8.9Zm-.025,0a.056.056,0,0,1,.021,0,.1.1,0,0,0-.024-.013S67.042,8.893,67.041,8.9Zm-.558-.271c0-.027.01-.05.032-.054l-.2-.057ZM65.336,5.945c.005,0,.017-.008.041-.051l.014-.058c-.006.054-.008.089.012.054.033-.1.067-.2.091-.312a1.223,1.223,0,0,1-.061.116c-.007.021-.014.041-.022.062l-.02.08,0-.039C65.377,5.847,65.357,5.9,65.336,5.945ZM0,14.261c-.051-.52.636-.568.88-.559a5.893,5.893,0,0,0,1.275-.137A4.428,4.428,0,0,1,3.79,13.47a2.777,2.777,0,0,0,.787.107H4.556c-.152-.005-.269-.019-.133-.013a1.824,1.824,0,0,1-.236-.023,2.355,2.355,0,0,0,.463.02.812.812,0,0,0,.159-.016,1.336,1.336,0,0,0,.145-.027,1.224,1.224,0,0,0,.193-.064,1.546,1.546,0,0,0,.464-.289h0a1.876,1.876,0,0,0,.2-.2c-.007.007,0,0,.009-.014s.026-.035-.028.027c.115-.136.2-.269.119-.157a6.116,6.116,0,0,0,.626-1.266c.2-.464.416-.919.644-1.369s.466-.893.7-1.331c.117-.219.244-.438.354-.655a4.82,4.82,0,0,0,.256-.686c.034-.127.006-.056-.012-.009A2.911,2.911,0,0,0,8.6,6.98c.054-.169.11-.338.174-.5.04-.142.024-.115.009-.089s-.014.025-.014.02c.019-.061.039-.121.061-.181a.346.346,0,0,0,.034-.133c0-.03-.023-.049-.061-.058a.566.566,0,0,0-.157-.01c-.233.022-.481.054-.713.078-.468.052-.912.1-1.313.166-.116.006-.117,0-.113-.009s.018-.019-.17,0c.445,0-.866.12-.716.135a4.831,4.831,0,0,0-.552.038c-.306.033-.579.065-.5.007-.4.052-.329.083-.212.073a9.169,9.169,0,0,0-1.215.234c-.064.008-.228.04-.443.089-.107.024-.228.055-.355.086s-.265.064-.382.11-.246.113-.377.171a1.411,1.411,0,0,1-.4.11A.651.651,0,0,1,.825,7.27a.388.388,0,0,1-.17-.159c.028.054.053.079.055.087s-.019,0-.051-.041a.639.639,0,0,1-.146-.406.634.634,0,0,0,.027.312.607.607,0,0,1-.051-.4.621.621,0,0,1,.219-.333.816.816,0,0,1,.122-.089c.022-.013.03-.016.031-.014.037-.021.044-.02.052-.02s.032,0,.179-.076c.378-.2.39-.227.6-.347l-.063.023c.088-.043.177-.083.266-.123s-.072.042-.185.106-.169.1.154-.029a1.923,1.923,0,0,1,.556-.255c-.338.121-.284.134-.158.1.157-.057.315-.112.475-.16-.058,0-.116,0-.173,0a8.3,8.3,0,0,1,1.057-.271C3.978,5.112,4.335,5.058,4.7,5c.728-.113,1.469-.221,2.223-.317,0,.009.061.006.158,0a2.721,2.721,0,0,1,.363-.015c.258.011.492.025.424.045L7.812,4.7c-.166-.007-.162,0-.081.014a2.245,2.245,0,0,0,.489.006c-.133.007-.051-.011.026-.028s.176-.041-.095-.022a2.335,2.335,0,0,0,.433-.1c.069-.043.2-.084.223-.19a.708.708,0,0,0,0-.248,2.433,2.433,0,0,1-.012-.35c.01-.242.052-.493.077-.739a2.169,2.169,0,0,0-.018-.669.294.294,0,0,0,.016.054,1.445,1.445,0,0,0-.221-.545l-.09-.127a.4.4,0,0,1-.06-.171,1.179,1.179,0,0,1,.009-.307c.012-.095.029-.182.043-.262A.989.989,0,0,1,8.616.8.631.631,0,0,1,8.789.559.617.617,0,0,1,8.861.528.835.835,0,0,1,9.283.412a.5.5,0,0,1,.331.1.748.748,0,0,1,.2.3c.051.125.108.274.172.469-.006-.01-.039-.1,0,.026a4.365,4.365,0,0,1,.245.927l-.007-.022a5.892,5.892,0,0,1,.087.876c-.017,0,0,.376-.036.783a.769.769,0,0,0,.031.289.268.268,0,0,0,.166.178.767.767,0,0,0,.359,0,4.656,4.656,0,0,1,.488-.14c.213-.049.444-.083.584-.1a.408.408,0,0,0,.068,0c.334-.061.969-.078,1.336-.125.241-.034.135-.028.03-.022a4.587,4.587,0,0,0,.843-.152c.14-.036.266-.085.369-.121s.179-.073.22-.087c.2-.1.194-.084.187-.074s-.007.012.025,0c.117-.06.181-.085.206-.1s.021-.014.02-.017,0-.009.056-.022a1.279,1.279,0,0,1,.335-.028c-.04,0-.1,0-.137.007s-.078.008-.045.007a2.18,2.18,0,0,1,.518.041c.093.015.184.031.27.041s.167.012.236.026a.991.991,0,0,0-.18-.029.654.654,0,0,1,.387.108.565.565,0,0,1,.222.33.736.736,0,0,1,.011.314c-.016.084-.047.136-.049.159l.039-.036a.478.478,0,0,1-.2.2.719.719,0,0,1-.163.065l-.175.041-.592.136.009-.006a5.273,5.273,0,0,0-.724.215l.124-.031c-.445.128-.484.141-.944.25a2.454,2.454,0,0,1-.343.072,2.462,2.462,0,0,1-.579.1l-.226.013c-.072,0-.141.006-.2.014-.127.011-.23.028-.281.036.18-.033.227-.04.216-.045a.791.791,0,0,0-.134,0A5.609,5.609,0,0,1,12,5.522c-.034.049-.073.114-.665.26.091-.027.233-.067.172-.061a1.983,1.983,0,0,0-.244.061c-.061,0,.128-.045.059-.045a2.513,2.513,0,0,1-.577.121c-.05.006-.1.007-.158.012l-.042,0-.019,0a.1.1,0,0,0-.03.013.362.362,0,0,0-.1.249c.011-.15-.024-.023-.044.038.012.009.012.069.013.1s-.007.1.033.125a.135.135,0,0,0,.1-.02c.023-.011.019-.017-.008-.024l.03-.01a.2.2,0,0,1,.034-.009.207.207,0,0,1,.057-.005.19.19,0,0,1,.042,0l.03.006.061.012a1.755,1.755,0,0,1,.24.076,2.272,2.272,0,0,1,.453.248c.285.2.538.423.794.619.5.4.934.748,1.091.911.08.094.349.271.5.4l-.039,0c.457.331.345.269.869.678-.226-.161-.149-.074.033.135q.185.134.367.274l.032.093a3.773,3.773,0,0,1,.416.428,2.606,2.606,0,0,1,.351.327l.223.243a1.185,1.185,0,0,0,.139.134.787.787,0,0,0,.233.257,1.345,1.345,0,0,1,.232.2c.059.026.129.068.21.1-.067-.068-.079-.11.062-.017l.035.018.051.064a3.256,3.256,0,0,0,.446.147c-.05-.016-.107-.042-.165-.068.07.025.133.056.2.075l.061.014-.038-.007a1.165,1.165,0,0,0,.365.061,1.857,1.857,0,0,0,.486.024c.172-.009.33-.051.544-.07a2.752,2.752,0,0,1,1.135.183,1.322,1.322,0,0,0-.292-.068,6.573,6.573,0,0,0,.823.176c.066.008.116.006.19.01a.492.492,0,0,1,.251.08.778.778,0,0,1,.261.313.454.454,0,0,0,.019-.046.679.679,0,0,1,.067.426c-.009.043-.015.063-.022.089l-.022.076c-.015.05-.033.1-.053.149a.941.941,0,0,1-.439.5l-.006.048a1.089,1.089,0,0,1-.285.08c-.112.013-.189.013-.285.017-.186.008-.389.009-.584,0a3.361,3.361,0,0,1-.906-.119,2.22,2.22,0,0,1-.444-.052c-.2-.034-.424-.086-.557-.1l-.065-.042a3.425,3.425,0,0,0-.812-.03,14.2,14.2,0,0,0-2.14.223l-.007-.008-.683.093c.177-.045-.132.032-.338.045a8.073,8.073,0,0,1-.825.076l-.432.052c.476-.08-.04-.037-.071-.065l-.271.065c-.047,0-.026-.009,0-.017s.087-.025-.032-.011a8.958,8.958,0,0,0-.884.2,1.235,1.235,0,0,0,.177-.012c.023-.006.021-.006.007,0l.019,0-.023,0c-.023.007-.058.02-.072.026-.341.06-.215.048-.2.059-.385.028-.6.093-.888.094.3.005-.924.142-.67.156a1.622,1.622,0,0,0-.223.008.62.62,0,0,1-.171.006,8.916,8.916,0,0,0,1.143-.224l-.328.027c.2-.086.729-.106.918-.162a2.233,2.233,0,0,1-.428.07l.089.024a11.217,11.217,0,0,0,1.144-.257c-.171.021-.041-.008.071-.038.092-.024.173-.048.07-.044l-.243.047c-.031,0-.035,0-.024-.008-.128.024-.259.048-.388.075-.249.053-.5.1-.749.146l.012,0-.022,0c-.49.089-.983.166-1.478.235-.039.042-.62.132-.454.136a3.255,3.255,0,0,0-.573.049c-.276.052.343,0,.46-.005-.328.053-.327.061-.336.072-.277-.01-.488-.052-.209-.106l-.46.059c.1-.008-.025.016-.2.039l-.014-.01.045-.007c-.826.112-1.655.236-2.486.3-1.164.086-2.332.108-3.5.158-.05,0-.1,0-.151,0s-.1,0-.15,0H.912A.849.849,0,0,1,0,14.261Zm7.924.191a4.139,4.139,0,0,0,.575-.073C8.309,14.4,8.119,14.429,7.926,14.452Zm.678-.087s0,0,0,0l.047-.008Zm4.671-.572-.011,0,.161-.01Zm-.095-.146c.077.021-.235.1.1.1.841-.044.68-.143,1.69-.246.036-.009.012,0,0,.012s.005.031.328-.019a9.118,9.118,0,0,0,.99-.226c-.409.043-.812.107-1.211.156-.288.034-.576.066-.865.1.068,0,.121-.006.157-.006a4.56,4.56,0,0,0-.589.074l.367-.019C13.856,13.6,13.617,13.584,13.181,13.648Zm-8.733-.082ZM20.474,13.5a.14.14,0,0,0,.058.014.617.617,0,0,0,.226-.033.683.683,0,0,0,.285-.186,1.36,1.36,0,0,0,.24-.407.108.108,0,0,0-.078-.125.177.177,0,0,1,0,.023,1.36,1.36,0,0,1-.206.448.678.678,0,0,1,.006.091l-.054-.034A.665.665,0,0,1,20.474,13.5Zm-1.892-.07a2.908,2.908,0,0,0,.371.01q-.22-.025-.439-.056C18.552,13.4,18.6,13.422,18.582,13.431ZM7.534,12.916a.363.363,0,0,0-.058.095C7.5,12.974,7.5,13,7.515,13s.023,0,.056-.057l0,.034s0,.012,0,.013l.028-.005a.236.236,0,0,1,.139-.036l.142.005a.872.872,0,0,0,.162-.01.033.033,0,0,0-.02.01c.179-.031.407-.01.448-.025l.017.013a1.412,1.412,0,0,1,.355-.05s-.023.008.007.008a.92.92,0,0,1,.212-.041l0,0,.2-.027c0,.019.091,0,.186-.019a.588.588,0,0,1,.211-.022c.038-.016.18-.041.243-.057,0,0,0,0,.015,0a1.861,1.861,0,0,1,.3-.049c.053-.014.029-.016,0-.019a2.535,2.535,0,0,0,.332-.076c.079-.014.032.01.055.015.116-.027-.026-.035.133-.049-.018.006-.051.014-.038.014a.435.435,0,0,1,.1,0,.349.349,0,0,0,.134,0h-.041c.106-.035.265-.008.276-.047l-.013-.015c.191-.015.078-.023.271-.04l0,0c.082-.02.131,0,.166-.044l-.029,0c.1-.023.112-.023.216-.043a.188.188,0,0,1,.077-.017c0-.03.24-.065.287-.072-.082.022-.04.027-.014.035a.17.17,0,0,1,.148-.04c0-.043.008-.091.141-.123-.02.011-.051.022-.036.028s.044-.011.054-.016-.027.022-.009.034c.083-.061.155-.036.283-.078-.04.023,0,.024.016.038,0-.027.045-.025.084-.022s.072.006.042-.025c.263-.008.653-.114.761-.081.03.017.1-.029.141-.037l0,.028c.119-.068.1-.033.237-.106-.057.042-.029.053.036.07l.094-.073.025.041a.253.253,0,0,1,.134-.021.2.2,0,0,1,.1-.055c.049-.016.109-.031.1-.044.015.03.033.023.045.017s.02-.011.051.014a.058.058,0,0,1,.012-.023c-.036-.023-.063-.05-.038-.04h0l.045.031a.066.066,0,0,1,.032-.016.311.311,0,0,1-.041-.014l.044.013h.007s0,0,0,0c.023.006.044.008.039,0a.336.336,0,0,0,.049.008c.013,0,.026,0,.01-.01a.669.669,0,0,0-.075-.051c-.053-.034-.082-.043-.057-.077,0,.01,0,.02.022.022a.257.257,0,0,1-.04-.074.234.234,0,0,0-.088-.1l-.023.029a1.586,1.586,0,0,1-.194-.164l-.032.025c-.071-.091-.289-.22-.283-.328-.043,0-.108-.117-.162-.155l.009-.034a.516.516,0,0,0-.144-.123c-.084-.165-.244-.229-.355-.333l0-.008-.128-.087c.047.007-.035-.007-.065-.043a.369.369,0,0,1-.132-.133l-.073-.066c.1.058.021-.037.038-.066l-.065-.022c0-.014.006-.013.015-.012s.018,0,0-.017c-.043-.015-.138-.1-.188-.1a.1.1,0,0,0,.016.043c.006,0,.005,0,0,0l0,0,0,0a.068.068,0,0,0-.022,0c-.054-.057-.041-.028-.048-.015-.033-.091-.088-.1-.107-.179.005.036-.033,0-.073-.032s-.082-.07-.079-.03c-.021-.08-.033-.032-.04-.09a.639.639,0,0,0,.233.13l-.039-.071c.072-.012.114.123.16.137a.127.127,0,0,1-.068-.071l-.011.044a.543.543,0,0,0,.227.142c-.023-.029,0-.02.022-.011s.051.017.042-.011l-.046-.032c0-.008,0-.011.006-.012q-.234-.194-.469-.384c-.014.008-.043,0-.07-.008s-.066-.022-.06,0c-.029-.041,0-.047-.087-.1-.063-.023.034.081.046.109-.067-.037-.073-.029-.082-.022-.019-.075-.006-.164.058-.14l-.085-.069c.015.02-.01.01-.042-.014l.006-.012.01.006c-.692-.555-1.386-1.1-2.047-1.686l0,.024s0,0,0,0l0,.01-.011.013c0-.005.006-.015.009-.025l-.012-.012c-.021.055-.043.108-.064.162.023-.039.046-.083.034-.036l.017-.057c0,.021-.059.179-.06.215-.023.059-.049.117-.076.174,0,0,0,0,.006.006s0,.012.011-.005c-.016.044-.028.083,0,.028-.09.208-.179.419-.261.633a4.993,4.993,0,0,1-.275.622c-.01.029.007.018.019.01-.062.062-.017.079-.032.122l-.091.089c-.005.034.007.032.017.029s.009,0,.011,0c-.083.213-.223.391-.274.571-.02.02-.028.015-.036.01s-.015-.012-.037.024c.049-.036.027.023,0,.083s-.041.1-.021.093c-.083.048-.128.239-.189.172-.046.08,0,.085.017.065a.81.81,0,0,0-.1.263c-.045.043-.2.443-.3.5.065-.035.015.017,0,.081l.06-.033-.067.124c-.01.027-.015.034-.018.033s-.009.007-.014.006-.018,0-.04.028a.252.252,0,0,0-.034.154l.012-.011-.027.06c-.01.018,0-.01,0-.038s0-.075-.046,0c.008.007.012.111-.032.136.038-.07.01-.073-.013-.052l-.053.1.06-.012c-.15.283-.331.567-.481.875-.014-.01-.045.05-.058.078s-.038.07-.065.068l.01-.011c.005-.015,0-.022,0-.022S7.543,12.9,7.534,12.916Zm4.578-.548a.552.552,0,0,1,.057.012l.029-.005.031-.015-.013.012.064-.012c0-.006-.008-.012-.027-.013l-.023.013c.02-.018.031-.032.014-.034Zm1.816-.275.084-.012A.109.109,0,0,1,14,12.018Zm.332-.122a.035.035,0,0,1,.006-.013C14.245,11.96,14.257,11.962,14.259,11.97Zm.533-.176-.03.007c.029.02.075.044.133.076l.095.052c.015.008.041.022.047.027l.008.008h.013c-.035-.042-.072-.082-.109-.124a1.227,1.227,0,0,0-.249-.1Zm3.8.085c-.119.03-.234.057-.341.08a3.845,3.845,0,0,0,.514-.036,1.838,1.838,0,0,1,.286-.016,3.568,3.568,0,0,1,.546-.032h.073a3.343,3.343,0,0,0-.493-.048l-.125-.031A2.058,2.058,0,0,0,18.594,11.879Zm-10.28-.342.017-.016c0-.008,0-.017,0-.017S8.321,11.513,8.314,11.537Zm6.058-.292a1.573,1.573,0,0,0,.089.22.2.2,0,0,0,.093-.059l-.081-.086-.054.033.043-.045-.085-.085A.038.038,0,0,0,14.372,11.245Zm-.325-.3a.273.273,0,0,0,.084.031l-.072-.069C14.058,10.923,14.057,10.941,14.046,10.948Zm-.959-.742c.114.16.167.046.333.206.022.007-.069,0,.033.074a.487.487,0,0,0,.232.078q-.173-.157-.35-.31a.113.113,0,0,1,.019.03.24.24,0,0,0-.109-.08l.05.069c-.051-.044-.064-.109-.151-.162C13.137,10.143,13.057,10.126,13.088,10.206Zm-.032.034h0C13.077,10.269,13.088,10.286,13.056,10.239Zm2.428-.038a.124.124,0,0,1,.03.015c-.026-.027-.035-.036-.037-.036S15.484,10.2,15.484,10.2Zm-.865-.758c0-.032.006-.06.04-.05-.1-.069-.21-.135-.315-.2C14.437,9.275,14.529,9.358,14.619,9.443Zm-2.274-.015.008,0-.007-.005Zm-.022-.02-.095-.076A.208.208,0,0,0,12.323,9.408ZM10.041,7.557a.1.1,0,0,1,.012.012.146.146,0,0,0,.006-.021l-.01-.009ZM.816,6.269c-.027.022-.053.047-.047.046A.426.426,0,0,0,.8,6.291l.1-.068C.878,6.239.849,6.25.816,6.269Zm11.307-.8a5.948,5.948,0,0,1,.58-.131c-.057,0-.136.008-.23.016-.051.009-.1.02-.151.031l-.123.035.06-.022c-.094.021-.189.043-.283.066,0,.006.036,0,.119-.011l.1-.033C12.107,5.458,12.051,5.484,12.122,5.472Zm83.162,8.59.01.006Zm-36.541-.37-.013.008Zm6.907-.023v0Zm0,0a.007.007,0,0,1,0,0A.007.007,0,0,0,65.651,13.666Zm-60.032-.51-.009.009h0Zm.072-.069-.072.069Zm3.247-2.758-.007,0Zm75.7-.649a.641.641,0,0,1-.273-.211,1.363,1.363,0,0,1-.152-.262,1.832,1.832,0,0,0-.125-.22c-.033-.1.05,0-.01-.122.022.1-.039,0-.1-.1-.05-.083-.1-.167-.1-.13-.023-.148-.208-.454-.1-.432-.057-.157-.085-.118-.076-.068-.066-.187-.1-.343-.151-.5,0-.027,0-.1-.008-.191a.331.331,0,0,0-.089-.211.221.221,0,0,0-.208-.041c-.07.015-.145.043-.193.047.11-.006-.01.027-.1.089l.109-.006c-.079.034-.157.069-.236.1-.047.023-.061.027-.062.024-.018.006-.02,0-.025,0s-.02-.01-.08.009a.823.823,0,0,0-.245.136l.027,0-.109.045c-.036.013.013-.014.056-.041s.1-.067-.054-.022a.415.415,0,0,1-.22.113c.137-.045.111-.065.057-.058l-.191.063.079.025c-.551.182-1.137.312-1.721.5,0-.017-.093.011-.186.039s-.21.062-.19.031l.024,0c.141-.053-.053-.021-.168.025.053-.012.026.007,0,.025s-.076.052.1,0l-.22.1a1.015,1.015,0,0,1-.378.17,3.355,3.355,0,0,0-.543.219A.088.088,0,0,0,78.8,8.78a2.205,2.205,0,0,1-.464.2,1.048,1.048,0,0,1-.3.034h-.024l-.029-.018a1,1,0,0,1-.174-.027l-.126-.024a1.182,1.182,0,0,1-.334-.111c.006,0,.043.016,0-.013a.4.4,0,0,1-.127-.08.452.452,0,0,1-.123-.241l.007.009a.412.412,0,0,1,.075-.372c.007.006.034-.024.083-.062a1.5,1.5,0,0,1,.192-.121,3.185,3.185,0,0,1,.347-.189c.054-.046.28-.177.38-.234,0,0,.008,0,.027-.009a3.558,3.558,0,0,1,.49-.238c.088-.045.047-.034,0-.021.182-.07.487-.235.556-.255.087-.035.084-.027.083-.018s0,.008.012.007c.2-.081-.047-.024.225-.112-.03.014-.087.038-.064.032.1-.038.3-.053.4-.1l-.07.015c.182-.08.457-.112.476-.155l-.023-.01c.332-.084.136-.053.472-.137l0,0c.143-.049.228-.048.29-.1L81,6.445c.178-.057.195-.059.378-.112a.593.593,0,0,1,.135-.042.732.732,0,0,1,.218-.085,2.278,2.278,0,0,0,.262-.1c-.128.063-.062.047-.017.044a.729.729,0,0,1,.219-.14.122.122,0,0,1,0-.081c.012-.034.047-.079.083-.157,0,.027-.025.067-.009.057s.028-.055.032-.068.007,0,.007.015,0,.022.011.016c.012-.067.018-.117.026-.179a.893.893,0,0,0,0-.1.652.652,0,0,0-.036-.132c.035.06.025,0,.032-.025-.02,0-.036-.053-.051-.107-.02-.073-.036-.146-.053-.085a2.065,2.065,0,0,0-.257-.438c-.013-.028-.048-.043-.1-.073a.306.306,0,0,1-.158-.154,2.947,2.947,0,0,1-.2-.463c0-.055-.089-.162-.114-.248l.029,0a.6.6,0,0,1-.08-.215.637.637,0,0,1-.011-.1.722.722,0,0,1,.011-.188c-.008.072.006.094.018.082A.143.143,0,0,0,81.4,3.33l.047-.068a.636.636,0,0,1,.074-.208h.06A.524.524,0,0,1,81.8,2.9a.152.152,0,0,1,.055-.05.674.674,0,0,1,.063-.037c.026-.01.054-.019.083-.027a.778.778,0,0,1,.287-.006.779.779,0,0,0,.159.112c.054.035.1.072.1.117a.53.53,0,0,1,.09.069c-.008-.051,0-.084.049-.01l.012.014-.008.05a1.425,1.425,0,0,1,.133.167.7.7,0,0,1-.029-.076c.015.031.025.06.038.088l.014.023a.063.063,0,0,1-.011-.013.4.4,0,0,0,.086.133c.094.241.4.431.5.71-.018-.04-.051-.092-.071-.1a3.769,3.769,0,0,0,.356.518l.022-.031c.059.063.112.117.162.162l.071.071.068.06.032-.027a.463.463,0,0,0,.254.131,1.422,1.422,0,0,0,.146.011.458.458,0,0,1,.122.026.372.372,0,0,1,.154-.041,1.351,1.351,0,0,0,.21-.052l.038.021A1.577,1.577,0,0,0,85.3,4.8a4.724,4.724,0,0,0,.835-.278l.006.007.255-.107c-.059.048.045-.034.126-.054a1.2,1.2,0,0,1,.32-.1l.169-.058c-.115.053-.072.053-.021.052.03,0,.062,0,.07.009l.1-.062c.02,0,.013.008,0,.016s-.031.023.017.011c.066-.042.281-.113.339-.164a.247.247,0,0,0-.077,0c-.009,0-.009,0,0,0H87.43l.009,0a.184.184,0,0,0,.026-.022c.14-.036.086-.032.076-.044a.89.89,0,0,0,.175-.018.6.6,0,0,1,.2-.015c-.053-.012.035-.034.136-.046s.241-.005.179-.038c.141.057.1.009.185.066a.774.774,0,0,0-.52.067c.048,0,.1,0,.144,0-.081.064-.3.051-.376.091a.389.389,0,0,1,.173-.039l-.043-.03a1.437,1.437,0,0,0-.447.178c.069-.015.019.01-.023.035s-.061.04-.017.04L87.4,4.26c.015,0,.016,0,.009.012.15-.051.3-.1.451-.14h-.005l.009,0,.034-.011a.961.961,0,0,1,.564,0,.176.176,0,0,1,.115.014c.063.021.119.056.1.017.06.079.031.058.145.212.035.049.033.011.008-.046a.786.786,0,0,0-.09-.153c.12.107.118.111.132.107.031.142-.016.242-.083.146a.875.875,0,0,1,.058.14c0,.013.006.024.009.036,0-.04.019.007.033.077l-.013.007a.03.03,0,0,1,0-.009c.081.467-.312.691-.638.819-.558.219-1.2.234-1.754.458s-1.13.379-1.7.572l.01.017.025-.008s.038-.008-.024.01l.024.043.007.029c-.006-.015-.02-.047-.032-.071l-.014,0,.119.284c-.022-.069-.042-.13-.007-.061l-.045-.1c.021.029.138.307.173.359l.126.314s0,0,.009,0,.014.013,0-.018c.034.076.066.142.028.039.151.375.311.751.48,1.123a1.769,1.769,0,0,1,.195.6.448.448,0,0,1-.113.334.6.6,0,0,1-.3.158c-.051.019-.018.02,0,.022-.149.014-.13.058-.209.084a1.624,1.624,0,0,1-.232,0c-.093.021-.019.03-.025.04a.873.873,0,0,1-.09.005A.678.678,0,0,1,84.638,9.68Zm-1.9-2.251.041-.007c.011-.01.022-.02.016-.02A.266.266,0,0,0,82.737,7.429Zm2.028-.912.009.02s0,0,.012-.007l-.008-.017Zm-2.6-.459a1.106,1.106,0,0,1-.2.128c.024,0,.057-.012.1-.021l.04-.021a.519.519,0,0,0,.052-.042l-.023.026a.926.926,0,0,0,.1-.069c0-.005-.019,0-.049.012l-.032.031c.02-.028.032-.048.021-.048Zm2.4-.84c.056-.008.114-.02.177-.034-.017-.006-.041-.016-.037-.029A.821.821,0,0,0,84.568,5.218Zm-.75-.268a1.3,1.3,0,0,0,.164.139.035.035,0,0,0-.008-.028c-.019-.033-.072-.11-.12-.179l-.09-.152a.135.135,0,0,0-.107.042c.048.058.095.11.14.156l.062-.025Zm2.143-.271a1.278,1.278,0,0,0-.354.227c.206-.072.438-.154.706-.244l.081-.028a.269.269,0,0,1-.05.006.7.7,0,0,0,.223-.09l-.146.031a2.513,2.513,0,0,0,.378-.11c-.038-.017.07-.1-.071-.09-.336.071-.235.164-.63.287-.013.008-.006,0,0-.011s0-.014-.016-.014A.368.368,0,0,0,85.961,4.678Zm2.809-.289a.339.339,0,0,0-.1-.145.228.228,0,0,0-.036-.025A.621.621,0,0,1,88.77,4.389Zm-2.054-.054,0,0C86.653,4.349,86.619,4.355,86.716,4.335Zm1.878-.148h0l-.008,0Zm-.759-.111Zm-4.979-.412.185.265a2.649,2.649,0,0,0,.235.134l-.137-.142-.007-.054a1.106,1.106,0,0,0-.277-.2Zm5.079.311Zm-6.466-.527a.514.514,0,0,1,.039-.14c-.026,0-.049,0-.059-.023A.5.5,0,0,0,81.469,3.448Zm.323-.53A.051.051,0,0,1,81.8,2.9C81.764,2.92,81.786,2.912,81.792,2.918ZM34.934,9.339a.094.094,0,0,1,.021.009Zm58.152-.475a1,1,0,0,1-.155.041l-.021-.05a.289.289,0,0,1-.195-.085.244.244,0,0,1-.154-.122c-.052-.083-.066-.17-.086-.191.05-.078-.025-.187.034-.232a.441.441,0,0,1-.019-.076c-.028.028-.059.037-.044-.017V8.12l.038-.022a1.343,1.343,0,0,1-.01-.149.308.308,0,0,1-.02.056l.02-.066V7.92a.041.041,0,0,1,0,.012.222.222,0,0,0,0-.117c.06-.192-.077-.436.011-.654-.01.033-.014.079,0,.092,0-.183.067-.363.049-.482l-.036,0a1.57,1.57,0,0,1,.021-.357L92.485,6.4a1.471,1.471,0,0,0,.029-.149,1.061,1.061,0,0,0,.009-.125c0-.026,0-.027,0-.037a.307.307,0,0,1,.021-.042c-.017.008-.023,0-.035-.011a.085.085,0,0,0-.027-.013.223.223,0,0,0-.062-.006L92.4,5.989a.829.829,0,0,0-.244,0A2.121,2.121,0,0,0,91.515,6l0-.008-.207.026c.031-.016.012-.007-.021,0a.246.246,0,0,1-.083.011.644.644,0,0,1-.255-.013c-.044,0-.09,0-.139-.006.159-.013-.01-.041-.017-.075-.03.008-.061.013-.094.018-.035-.02.062-.018-.005-.033a.522.522,0,0,1-.159-.015c-.065-.013-.133-.041-.171-.049a.181.181,0,0,0,.053.057c.01,0,.009,0,0,0l.006.005-.008-.005a.217.217,0,0,0-.035-.005c-.125-.093-.084-.055-.09-.038a.9.9,0,0,1-.114-.2.266.266,0,0,1-.017-.151c-.014.038-.031-.04-.031-.12s.018-.181-.016-.139c.06-.1.017-.075.069-.133a.56.56,0,0,0,.026.4.548.548,0,0,1,.014-.115.361.361,0,0,1,.039.153.239.239,0,0,0,.065.148.2.2,0,0,1-.068-.136c-.009.013-.017.026-.025.041a.319.319,0,0,0,.156.186.453.453,0,0,0,.185.047c-.048-.022-.015-.019.02-.018s.071,0,.04-.027a.58.58,0,0,1-.075-.013c-.008-.008-.007-.012,0-.014-.173-.056-.29-.185-.271-.469a.65.65,0,0,1,.045-.205c-.011-.013-.005-.051.007-.089s.045-.09.011-.076a.238.238,0,0,1,.066-.034c.021-.008.044-.028.111-.06.042-.025.013-.025-.036-.016a.58.58,0,0,0-.131.058c.093-.09.1-.086.1-.1a.176.176,0,0,1,.134.035c.02.021.013.04-.023.061a.467.467,0,0,1,.137-.019c-.028-.006.009-.015.062-.01l0,.012a.066.066,0,0,1-.016,0,.723.723,0,0,1,.2.048,1.355,1.355,0,0,0,.8,0,1.836,1.836,0,0,1,.561-.054c.273.029.521-.145.463-.544a8.005,8.005,0,0,1-.01-1.1c.012-.077.037-.16.059-.243-.018.053-.035.1-.023.045l-.02.077c0-.027.066-.241.064-.287a.489.489,0,0,0-.007-.242s0,0,0,0-.007-.012,0,.013c-.011-.034-.02-.066-.023-.071a.887.887,0,0,1-.012-.419.417.417,0,0,1,.114-.207.363.363,0,0,1,.22-.1,1.693,1.693,0,0,1,.461.042.711.711,0,0,1,.4.239c.029.032.02.009.011-.007a.564.564,0,0,0,.062.093.148.148,0,0,1,.045.058.576.576,0,0,1,.015.177c.011.046.016.036.022.026s0-.01.007-.008a1.077,1.077,0,0,1,0,.237.935.935,0,0,0,.007.2,1.586,1.586,0,0,0,.1.375c0,.082-.041-.01-.021.094.007-.075.032,0,.052.082s.026.171.039.14c-.019.057-.028.158-.046.23s-.031.119-.068.094c-.011.118.031.1.04.065-.008.126.025.238.1.251a.1.1,0,0,0,.076.036.511.511,0,0,0,.189-.017A3.784,3.784,0,0,1,95,4.073c-.089,0,0-.027.072-.078-.029,0-.059,0-.088,0,.06-.026.122-.052.182-.075.037-.018.048-.02.049-.016s.016,0,.021,0,.016.011.062,0a.548.548,0,0,0,.192-.1H95.47l.087-.026c.029-.008-.015.013-.05.033s-.068.047.047.028a.239.239,0,0,1,.176-.073c-.109.02-.089.044-.047.046s.1-.017.151-.025l-.059-.039a5.451,5.451,0,0,1,.967-.047c.126,0,.252,0,.379,0,0,.017.083.017.162.03s.152.037.126.054l-.016-.008c-.114-.018.026.038.113.063-.038-.02-.011-.019.015-.019s.072,0-.059-.049a.849.849,0,0,1,.186.053c.065-.013.193.063.28.211A.529.529,0,0,1,98,4.29a.809.809,0,0,1-.031.245.061.061,0,0,0,0-.031.519.519,0,0,1-.24.324,1.171,1.171,0,0,1-.228.094l-.025-.01a.72.72,0,0,1-.229.045.825.825,0,0,1-.261-.041h.006c.008,0,.017,0-.011-.01s-.062-.009-.1-.016-.093-.029-.174-.037l.007,0c-.042,0-.084-.013-.126-.015h-.128c0-.02-.11-.008-.228.016a1.689,1.689,0,0,1-.286.058c-.046.024-.226.088-.3.123,0,0-.006,0-.021,0a2.525,2.525,0,0,1-.382.134c-.069.029-.036.024,0,.02-.142.032-.388.131-.447.125-.109.014-.042-.011-.073-.016-.162.016.03.04-.192.032.026,0,.074-.006.056-.008a.488.488,0,0,1-.157-.034c-.028-.008-.057-.017-.081-.023a.071.071,0,0,0-.053,0,.108.108,0,0,1,.04,0c-.056,0-.1.051-.105.123s-.012.125.007.135l.015-.015a3.4,3.4,0,0,1,.013.366l0,0c.006.113-.019.173.012.229l0-.039c0,.14,0,.152-.008.295a.306.306,0,0,1,0,.106,1.346,1.346,0,0,1-.016.394c.005-.113-.014-.061-.029-.031a.3.3,0,0,1-.012.2c.04.019.084.043.065.226,0-.029,0-.074-.013-.057a.159.159,0,0,0-.005.075c-.006.008-.009,0-.012-.012s-.008-.021-.016-.012c.026.129-.026.211-.04.39,0-.059-.022-.012-.041,0,.05.024-.091.23-.009.178-.027.084-.052.179-.076.278s-.044.2-.08.3a.72.72,0,0,1-.144.26.359.359,0,0,1-.162.112c-.044.006-.131.082-.2.1l0-.028a.49.49,0,0,1-.162.059l-.191.036C93.209,8.911,93.17,8.9,93.086,8.864Zm.016-.006c.039-.018.077-.038.113-.059-.036,0-.072,0-.111,0A.091.091,0,0,1,93.1,8.858Zm-.37-.09a.036.036,0,0,1-.016,0C92.743,8.791,92.729,8.775,92.732,8.768Zm-.16-1.335-.026.036a.648.648,0,0,0,.106.243c0-.079,0-.159.005-.238-.042-.077-.083-.146-.111-.186Zm1.567-.4c.007,0,.014-.007.022-.032l0-.034c.01.031.02.05.028.03l0-.181c-.006.017-.017.043-.031.071,0,.011,0,.021,0,.032l.005.049L94.15,6.94C94.146,6.969,94.143,7,94.139,7.029Zm-1.406-.651a1.439,1.439,0,0,0-.136.28A.154.154,0,0,0,92.7,6.7c.006-.052.012-.1.02-.155l-.058-.029.061.007c.008-.052.019-.1.029-.157A.037.037,0,0,0,92.733,6.378ZM91.052,6c.051.006.078.012,0,0Zm-.022-.157c.023.029-.074.069.028.109a.373.373,0,0,0,.265-.034.578.578,0,0,1,.249-.043c.013,0,0,.006,0,.016s.013.024.1.013a.788.788,0,0,0,.3-.105c-.209,0-.418.013-.627.02a.19.19,0,0,1,.047.009.43.43,0,0,0-.178.017l.112.016a.532.532,0,0,1-.114-.011.693.693,0,0,0-.114-.011A.475.475,0,0,0,91.029,5.839Zm1.608.039a.529.529,0,0,1,.106.046.232.232,0,0,0-.106-.085C92.644,5.85,92.649,5.87,92.637,5.878Zm-2.253-.863.005-.007v0A.075.075,0,0,0,90.384,5.014Zm.048-.063a.111.111,0,0,0-.014.024.347.347,0,0,1,.135-.086A.208.208,0,0,0,90.432,4.952ZM95.2,3.918c-.015.016-.03.031.031,0ZM83.881,8.636l0,.01S83.882,8.638,83.881,8.636ZM5.627,6.394h0ZM10.4,6.137a.019.019,0,0,0,0,.006A.02.02,0,0,1,10.4,6.137ZM8.152,4.674c-.044.005-.088.009-.134.01Zm86.2-1.152a.023.023,0,0,1,0,.007ZM8.851,2.355c0,.009,0,.019.006.028C8.856,2.375,8.854,2.366,8.851,2.355Z" transform="translate(272.873 109.358)" fill="#2a4c24" stroke="rgba(42,76,36,0.98)" stroke-linejoin="round" stroke-miterlimit="10" stroke-width="0.6"/>
  </g>
</svg>
