<svg id="RWD_button_Button1-2_" data-name="RWD_button/Button1-2/" xmlns="http://www.w3.org/2000/svg" width="132" height="86" viewBox="0 0 132 86">
  <path id="路径_55" data-name="路径 55" d="M1098.491,587.986c-9.294,2.743-3.273-.035,0-.843-3.06-5.187-7.49-12-16.008-16.927.285.9-6.22,1.871-7.681,2.168-.1.1,7.981-.684,7.681-.582-.96.326-10.938,2.306-11.417,1.229-.064-.771,8.535-3.032,11.417-2.816a119.53,119.53,0,0,0-11.417-3.655c-2.5-.208-3.4,1.339-5.909,1.356-1.558.011,2.4-1.346,4.189-1.995-3.815-1.081-8-1.447-11.917-2.187-3.9.431-3.607.135-1.139-.439-33.168-3.461-70.449,9.884-81.56,29.262s1.485,40.277,36.6,45.345,65.974,5.465,78.835-8.12S1101.04,591.008,1098.491,587.986Z" transform="translate(-969.53 -559.374)" fill="#2a4c24"/>
  <rect id="矩形_375" data-name="矩形 375" width="132" height="86" fill="none"/>
  <g id="组_747" data-name="组 747" transform="translate(-134.05 -84.546)">
    <path id="联合_24" data-name="联合 24" d="M8610.905-8722.544l0,0A.008.008,0,0,1,8610.905-8722.544Zm-.122-.107c-.047-.016-.049.03-.036.041a.371.371,0,0,0-.166-.02c-.011-.019-.082-.039-.146-.083s-.112-.1-.106-.146c-.01.053-.022.012-.062,0,0,.018-.007.037-.01.056-.02-.022-.035-.048-.053-.072s-.016-.017-.013-.019.022-.013.013-.05c-.027-.051-.052-.039-.085-.058l0,.011-.021-.034c0-.011.008,0,.021.007s.053.028.041-.029c-.01,0-.089-.021-.067-.059.015.047.042.027.047.007l-.019-.061-.044.039a.853.853,0,0,1-.04-.283,2.4,2.4,0,0,0-.007-.265c.038,0-.008-.125.047-.116l0,.008c.011.042.04-.019.03-.053-.006.017-.018.009-.027,0s-.03-.021-.029.031l-.029-.066c-.093-.026,0-.187-.035-.288,0,.007.008.009.01.009a1.428,1.428,0,0,1-.006-.231l.016-.011a.336.336,0,0,1-.029-.184s.007.013.008,0a.2.2,0,0,1-.025-.109l0,0-.01-.1c.039,0-.041-.172,0-.207a.672.672,0,0,1-.034-.125s0,0,0-.009c-.025-.037,0-.113-.013-.156-.008-.027-.014-.015-.021,0,.014-.057-.039-.152-.034-.173s0-.026.014-.025a.013.013,0,0,0,.013,0c-.006-.028-.017-.027-.023-.026s-.017,0-.012-.043c0,.01.008.027.011.02,0-.03.053-.091.039-.121l-.009.021c-.021-.056.036-.138,0-.145l-.02.007c.017-.1-.013-.04,0-.142h0c-.009-.043.017-.068-.021-.087l0,.015a.843.843,0,0,1-.01-.113c0-.006-.013-.032,0-.04-.034,0-.03-.126-.029-.15.01.043.022.021.038.008-.033-.023-.039-.042-.019-.077-.047-.008-.1,0-.111-.088.009.014.015.035.023.026s0-.029-.007-.036.01,0,.016,0a.019.019,0,0,0,.021.006c-.051-.061-.006-.1,0-.191.009.033.023.011.044.008-.06-.029.089-.089,0-.09a1.4,1.4,0,0,1,.19-.213c.07-.058.141-.088.18-.074.023.015.045-.038.07-.049l.007.03c.052-.077.045-.04.116-.116-.027.045-.008.058.031.079.015-.026.029-.051.045-.076l.02.047a.066.066,0,0,1,.072-.015c.019-.058.11-.06.125-.091.014.035.032.03.052.025s.033-.009.043.024a.116.116,0,0,1,.037-.021c-.011-.032-.012-.066.014-.05h.007l.006.042a.3.3,0,0,1,.078,0,.154.154,0,0,1-.024-.025c.012.009.021.019.03.026l.011,0h-.007a.06.06,0,0,0,.061.019c.038.049.1.053.162.076s.127.064.126.139c0-.02-.017-.042-.032-.038.072.077.055.186.1.22l.037-.02a.36.36,0,0,1,.08.145l.046-.009a.949.949,0,0,0,.041.138c.014.051.016.087-.027.114.04.009,0,.084.022.115l-.033.015a.142.142,0,0,0,.028.095c-.057.1.028.171.036.249l-.011,0,.037.074c-.033-.016.023.012.019.037a.1.1,0,0,1,0,.1l0,.05c-.029-.052-.045.013-.082.022l.035.026a.017.017,0,0,1-.021,0c-.008,0-.014-.006-.016.008.022.018.031.082.069.1a.058.058,0,0,0,.021-.024s0,0,0,0v0a.048.048,0,0,0,.017.006c0,.042.008.023.023.021-.046.052-.014.072-.058.113.023-.019.025.009.028.035s.006.056.034.035c-.047.043,0,.024-.04.054.01-.051-.043-.09-.072-.123l-.025.043c-.062-.015.009-.088-.015-.107a.037.037,0,0,1,0,.052l.043-.018c.011-.058-.032-.094-.063-.127,0,.02-.014.008-.026,0s-.026-.021-.04,0l.012.027c-.008.008-.018,0-.026,0,.011.059.023.117.034.177l0-.04,0,.029,0,.013c.01.045.017.089.026.134a.059.059,0,0,1,.054.021c.017.014.032.029.047.016-.011.027-.033.021-.013.07.026.028.035-.047.048-.062.02.035.029.033.04.032-.044.042-.117.08-.143.047a.054.054,0,0,0-.023-.074c.1.5.2,1,.3,1.494l0,.1c0-.021.01-.04.013-.018v-.031c0,.011,0,.1,0,.115l-.01.1,0,0s0,.006,0,0c0,.023,0,.045,0,.014a1.72,1.72,0,0,1-.068.352.509.509,0,0,1-.226.291c-.014.013,0,.014.007.015-.049.009-.031.034-.052.052a.314.314,0,0,1-.074,0c-.021.021,0,.024,0,.032-.118.067-.243.048-.343.088-.033-.015,0-.043-.037-.046.058.051-.109.035-.094.065C8610.863-8722.6,8610.748-8722.565,8610.783-8722.651Zm-.576-.247c.014,0,.027,0,0-.017Zm1.266-2.269a.022.022,0,0,0,.013,0l-.018-.028Zm-.074-.53a.087.087,0,0,1,.04,0,.089.089,0,0,0,.081-.027c.034-.105-.1-.064-.109-.183,0,0,0,0,0,0s.046,0,.025-.041a.242.242,0,0,0-.138-.1c.018.1.036.2.055.3a.116.116,0,0,1,.006-.077c-.009.021.01.052.027.065l.015-.046C8611.412-8725.78,8611.372-8725.745,8611.4-8725.7Zm.172-.041,0,0a.111.111,0,0,0,0-.021Zm-1.731-.606.024.069.024-.029v-.013l-.013-.018.012.008c0-.012,0-.022,0-.034a.021.021,0,0,0-.02.014l.01.013a.058.058,0,0,0-.028-.013A.008.008,0,0,0,8609.839-8726.345Zm1.418.038a.078.078,0,0,1,.039-.017.131.131,0,0,0-.048-.034Zm-.06-.285c0,.019.011.036.015.056.008,0,.016,0,.021-.008a.389.389,0,0,0,.063-.145.407.407,0,0,0-.119.03c.007.019.012.039.018.058l.07-.013Zm-.265-.361a.48.48,0,0,1,.078.049,1.261,1.261,0,0,1,.15-.04.556.556,0,0,0-.074-.025l0-.032a.1.1,0,0,0-.029,0A.231.231,0,0,0,8610.933-8726.953Zm-.564-.021.041-.007a.353.353,0,0,1-.016-.071C8610.384-8727.025,8610.376-8727,8610.368-8726.974Zm.164-.115a.036.036,0,0,1,0-.015C8610.523-8727.1,8610.531-8727.1,8610.532-8727.089Zm40.76,2.967c-.761-1.094-2.063-1.479-3.152-2.123a9.709,9.709,0,0,1-1.618-1.314.709.709,0,0,1,.054-1.114.717.717,0,0,1,1.063,0,37.423,37.423,0,0,0,3.317,2.177v-.027c-.018-.012-.055-.038-.127-.092l-.021-.016c-.027-.022-.055-.045.148.1l0-.283.008-.128c0,.086,0,.284,0,.412l.015.012c.012-.5.01-.993,0-1.474,0,.334,0,.649-.014.3l.007.422c0-.3-.037-1.465-.068-1.719l-.082.645c0,.018-.006-.006-.01-.028-.007-.04-.015-.079,0,.071-.026-.372-.051-.7-.024-.208q-.076-1.355-.152-2.718c-.052-.91-.095-1.825-.074-2.739.006-.229.015-.457.029-.686l.025-.343.016-.17.006-.054,0-.024a.187.187,0,0,0-.021-.014l-.078-.048-.021-.013c-.007,0-.012.011-.017.017l-.034.034-.227.24-.463.5c-.617.66-1.229,1.319-1.87,1.938-.168.173-.062.085.011.024a8.362,8.362,0,0,0-.7.7q-.371.309-.748.605c-.192.183-.143.154-.1.125.021-.013.043-.025.038-.018-.678.6-1.373,1.171-2.018,1.724-.322.277-.634.551-.926.823s-.6.524-.883.757c-.176.126-.177.111-.176.1s.006-.032-.256.169c.349-.231-.008.043-.365.362a2.447,2.447,0,0,0-.528.572,2.015,2.015,0,0,0-.139.151c-.031.038-.062.077-.095.12a1.338,1.338,0,0,1-.129.146.885.885,0,0,1-.352.205.942.942,0,0,1-.395.028.854.854,0,0,1-.531-.28c-.087-.11-.1-.166-.038-.12a.862.862,0,0,1-.151-.4c-.012-.095-.01-.146-.014-.164-.007-.039-.04.053-.032.175a.841.841,0,0,1,.208-.64,2.57,2.57,0,0,1,.221-.206c.071-.061.139-.124.206-.186.268-.248.509-.5.745-.757.087-.077.3-.293.585-.577s.644-.636,1.038-.965c.2-.167.405-.321.6-.471l.549-.437c.339-.274.615-.5.771-.613-.424.3.014-.043.37-.4l-.364.268q.42-.372.837-.752l.17-.16c.033-.03.047-.039.048-.037a3.473,3.473,0,0,0,.348-.272,10.04,10.04,0,0,0,.865-.869l-.089.076.37-.363c.115-.11-.029.041-.172.193-.2.211-.389.422.144-.072a4.13,4.13,0,0,1,.277-.323,5.762,5.762,0,0,1,.47-.471c-.454.449-.376.414-.2.258l.639-.629-.249.169c.457-.451.927-.9,1.425-1.337.124-.109.251-.214.379-.32s.264-.209.377-.309a1.757,1.757,0,0,0,.506-.763,2.321,2.321,0,0,0,.087-.941c-.017-.167-.032-.334-.049-.5a2.631,2.631,0,0,0-.082-.473c-.045-.148-.113-.175-.276-.153a3.138,3.138,0,0,0-.473.129c-.159.054-.326.108-.48.165a3.793,3.793,0,0,1-.5.175c0-.007-.036,0-.113.008a1.149,1.149,0,0,1-.138,0c-.026,0-.054,0-.082,0s-.056,0-.076,0a1.574,1.574,0,0,0-.353.108c-.035.009-.073.02-.111.025a.291.291,0,0,1-.059,0h-.036a.334.334,0,0,1-.131-.039c-.159-.135-.045.047-.041.092.02.061.025.093,0,.053l-.027-.078-.062-.142-.019-.039c0-.006,0,0,0,0h0c-.026-.032-.007.019.02.1.053.154.186.493.292.745-.051-.134-.049-.144-.025-.1a1.181,1.181,0,0,1,.094.212c.02.078.033.132.028.074a.727.727,0,0,0-.036-.18c-.031-.086-.079-.2-.145-.366l.108.248a1.18,1.18,0,0,1,.091.266.839.839,0,0,1-.088.578.625.625,0,0,1-.229.258.706.706,0,0,1-.489.092c-.045-.01-.093-.021-.138-.035l-.127-.044a2.365,2.365,0,0,1-.266-.116,1.3,1.3,0,0,1-.5-.431,1.318,1.318,0,0,1-.144-.316c-.038-.1-.076-.206-.113-.311-.078-.208-.16-.42-.245-.627-.171-.419-.354-.827-.528-1.2a1.217,1.217,0,0,0,.075.142l-.943-2c-.141-.307-.268-.58-.368-.8a2.365,2.365,0,0,1-.125-.288.751.751,0,0,1-.038-.205.478.478,0,0,1,.043-.139.64.64,0,0,1,.3-.318.936.936,0,0,1,.337-.125.636.636,0,0,1,.571.2,1.213,1.213,0,0,1,.174.249c.054.085.108.178.192.155a1.822,1.822,0,0,0,.343-.169q.2-.107.449-.222c-.017.011-.171.085.045-.009a10.226,10.226,0,0,1,1.617-.612l-.037.017c.5-.161,1.007-.315,1.5-.5a2.092,2.092,0,0,0,.4-.143,4.248,4.248,0,0,0,.407-.189.566.566,0,0,0,.322-.36,2.061,2.061,0,0,0-.018-.54c-.018-.182-.034-.357-.049-.519-.029-.32-.05-.58-.05-.7-.01-.079-.023-.208-.041-.366-.009-.08-.017-.167-.027-.259l-.012-.119c0-.012,0-.033-.009-.036l-.041.011-1.021.258a.984.984,0,0,0-.119.023,23.892,23.892,0,0,1-2.38.5c-.434.071-.246.051-.054.028-.217.029-.473.065-.743.094s-.55.058-.812.095c-.525.071-.984.135-1.144.146-.416.035-.393.024-.373.015s.019-.012-.042-.01c-.475.031-.436.032-.436.042s-.011.009-.1.012a5.733,5.733,0,0,1-.583-.019c.15.007.425.012.319.007a5.153,5.153,0,0,1-.921-.12,2.76,2.76,0,0,0-.48-.084,3.216,3.216,0,0,0-.421,0c.107,0,.213,0,.317.006-.1,0-.2,0-.312.006-.127,0-.258.008-.39.006a2.056,2.056,0,0,1-.361-.028.654.654,0,0,1-.315-.152.836.836,0,0,1-.231-.511.429.429,0,0,1,.069-.293.377.377,0,0,0-.068.068.5.5,0,0,1,.207-.2,1.248,1.248,0,0,1,.2-.088c.12-.042.214-.066.291-.087.151-.044.232-.057.313-.077a5.024,5.024,0,0,1,1.1-.112l-.021,0c.3-.011.536-.006.736,0a4.637,4.637,0,0,0,.634-.013l-.23-.006c.416,0,.643,0,.87-.016s.455-.031.878-.081c.1-.016.5-.074.622-.083.017-.02.5-.092,1.027-.192.487-.091,1-.209,1.224-.263-.588.15-.287.092-.1.063.188-.062.348-.112.526-.164a2.611,2.611,0,0,1,.668-.119.545.545,0,0,1,.254-.092c.086-.017.2-.036.354-.063a1.9,1.9,0,0,0,.548-.187c-.116.08-.354.15-.256.131a.88.88,0,0,0,.35-.172c.034-.023,0,.011-.035.043s-.079.06-.028.041a.485.485,0,0,0,.233-.316.544.544,0,0,0,0-.2c-.011-.077-.03-.172-.042-.261-.053-.36-.074-.765-.131-1.289.047.332.032.044.038-.078a6.113,6.113,0,0,1-.1-.689c-.043-.294-.1-.521-.09-.321-.027-.128-.065-.236-.105-.388a1.273,1.273,0,0,1-.031-.472.736.736,0,0,1,.251-.455,1.023,1.023,0,0,1,.465-.207.863.863,0,0,1,.521.049.91.91,0,0,1,.384.351,1.866,1.866,0,0,1,.192.441c.047.144.09.287.129.429a9.374,9.374,0,0,1,.356,2.561.412.412,0,0,0,.021.169.114.114,0,0,0,.07.068.258.258,0,0,0,.109,0,1.378,1.378,0,0,0,.141-.031l.158-.041.293-.076-.04.042c.973-.288.76-.206,1.911-.532-.475.149-.269.117.224.038.262-.081.525-.158.789-.234l.166.018a8.755,8.755,0,0,1,1.064-.187,2.3,2.3,0,0,1,.27-.063c.081-.017.174-.032.272-.048s.2-.032.318-.039a2.7,2.7,0,0,1,.619.073c.041.008.078.013.113.018s.083.013.119.021a1.55,1.55,0,0,1,.16.046,1.031,1.031,0,0,1,.295.265.7.7,0,0,1,.129.43,1.045,1.045,0,0,1-.087.379.613.613,0,0,1-.188.244.919.919,0,0,1-.437.288c.1-.015.177-.032.178-.02a.528.528,0,0,1-.267.092l-.089.018-.146-.02-.889.156c.1-.014.219-.024.34-.035l-.4.046-.117.02.07-.014a5.909,5.909,0,0,0-.7.123,15.342,15.342,0,0,0-1.86.4l-.971.258-.482.122-.237.056c-.073.018-.144.037-.208.06.146-.058.423-.115.488-.153a1.8,1.8,0,0,0-.66.251.438.438,0,0,0-.132.239,1.671,1.671,0,0,0-.034.335,7.969,7.969,0,0,0,.188,1.241l.035-.057a2.869,2.869,0,0,1,.029.315c0,.061,0,.121,0,.179a.073.073,0,0,0,.045.07.127.127,0,0,0,.083-.006l.076-.024.042-.012.062-.018c.081-.023.162-.044.243-.063.161-.036.322-.069.483-.095l.028-.052c.238-.035.541-.075.869-.113l.5-.06.257-.031c.083-.012.186-.017.277-.024a2.92,2.92,0,0,1,1.051.129l.21.079c.065.029.124.063.18.092a1.39,1.39,0,0,1,.255.173,1.425,1.425,0,0,1,.283.189c.061.05.121.112.188.177s.123.145.188.223a2.622,2.622,0,0,1,.452,1.036,1.138,1.138,0,0,1-.011.151,1.978,1.978,0,0,1-.4,1.617,3.048,3.048,0,0,1-.928.614c-.323.145-.623.264-.929.392-.605.252-1.19.491-1.762.71l-.016-.006-1.147.471c.146-.074.091-.046-.044.016l-.111.052a.628.628,0,0,0-.093.053.487.487,0,0,0-.136.132.343.343,0,0,0-.038.183.5.5,0,0,0,.008.063c.006.026.011.055.017.083.015.066.028.136.042.205a5.236,5.236,0,0,1,.068.806c.014.271.012.54.008.807-.017-.892-.044.064-.087.111l.018.507c-.012.091-.016.035-.021-.021s-.009-.137-.018.067c.006.17.089,1.463.127,1.626,0-.051,0-.178-.012-.32-.008-.04-.007-.038,0-.012l0-.034,0,.042c.008.04.021.1.028.13.065.64.047.406.064.381,0,.736-.225,1.7-.281,2.7l.029-.361.017.229-.046.144c-.015.273-.029.548-.033.822,0,.13,0,.259,0,.389.04.138.078,1.123.1.835,0,.386.031.42.044.211.042.6.055.6.068.613-.022.479-.1.887-.086,1.165,0-.119.022.1.045.391l-.014.024-.009-.1a13.525,13.525,0,0,1,.217,2.537,4.887,4.887,0,0,0,.246,1.394c.146.532.1.939-.475,1.16a1.194,1.194,0,0,1-.431.093A.915.915,0,0,1,8651.292-8724.122Zm-.336-2.37.015.011a.256.256,0,0,0,0-.027l-.015-.01Zm1.444-3.539c-.006-.372-.027-.77-.049-1.02Q8652.368-8730.541,8652.4-8730.031Zm-.057-1.229,0,0c0-.034,0-.067,0-.1C8652.342-8731.327,8652.343-8731.293,8652.344-8731.261Zm-7.047-1.366c-.074.082-.15.166.137-.113Zm7.047-6.971c.034.081.073.162.051-.225-.011-.1-.026-.187-.043-.271-.008-.041-.016-.08-.022-.117a.623.623,0,0,1-.013-.087.425.425,0,0,1,.061-.258.567.567,0,0,1,.16-.163.711.711,0,0,1,.1-.058l.116-.058a15.155,15.155,0,0,1,1.528-.65c.053-.024.029-.009.013.006s-.039.058.555-.185c.567-.238,1.053-.464,1.39-.641.1-.054.189-.1.262-.148-.04.02-.081.037-.123.054-1.1.465-2.219.879-3.329,1.316.086-.03.157-.055.207-.069-.138.046-.33.121-.515.2a1.781,1.781,0,0,0-.26.122.657.657,0,0,0-.169.152,1.367,1.367,0,0,1,.574-.29c-.123.052-.251.092-.359.143a.632.632,0,0,0-.277.242c-.154.235.007.551.049.94q0-.023.009-.023C8652.313-8739.666,8652.329-8739.632,8652.344-8739.6Zm.105-.211.006.021c-.019-.156-.041-.274-.046-.3a.01.01,0,0,1,0,0A2.832,2.832,0,0,1,8652.449-8739.809Zm-5.45-.753.038.007a.024.024,0,0,0-.011-.022l-.017.007c.017-.014.024-.026.018-.033a.252.252,0,0,1-.076,0,.384.384,0,0,1,.021.034.064.064,0,0,1,.016,0l.021-.008Zm.046-.062c.011-.049.021-.094.076-.108-.008.01-.022.016-.017.025s.02,0,.023-.009c.007.011-.012.021,0,.038.037-.051.074-.02.133-.055-.017.023,0,.026.017.041-.008-.03.018-.026.04-.022s.041.008.015-.026c.146-.006.313-.172.4-.155.027.015.047-.043.072-.058l.01.029c.046-.085.045-.046.105-.136-.02.05,0,.059.048.071l.033-.086.028.041a.089.089,0,0,1,.075-.032c0-.061.1-.089.1-.124a.035.035,0,0,0,.056.008c.016-.011.03-.021.05.008a.116.116,0,0,1,.024-.034c-.021-.026-.036-.058-.008-.051l.006,0,.021.036a.3.3,0,0,1,.061-.035.08.08,0,0,1-.03-.012l.035.011.009,0,0,0a.042.042,0,0,0,.05-.015c.048.018.088-.013.13-.044s.091-.068.151-.035c-.017,0-.037,0-.038.013a.3.3,0,0,1,.1-.009c.044,0,.082,0,.105-.022l-.014-.038a.445.445,0,0,1,.135-.067l-.011-.046c.069,0,.182-.113.25-.033,0-.041.092-.018.126-.04l.02.031a.172.172,0,0,0,.1-.044c.12.04.179-.061.262-.083l0,.009.067-.054c-.008.035,0-.025.031-.027a.1.1,0,0,1,.093-.029l.046-.021c-.038.044.027.038.052.067l.009-.043c.021.008,0,.036.023.029.006-.029.063-.062.049-.1a.068.068,0,0,0-.029-.006s0,0,0,0h0a.119.119,0,0,0,0-.017c.029-.016.01-.019,0-.029a.1.1,0,0,0,.062,0,.082.082,0,0,1,.052,0c-.057-.016.063-.069-.006-.084.027,0,.031,0,.033-.006s0-.008.026,0c-.028.031-.016.085-.019.132l.049-.01c.019.027,0,.044-.021.054s-.052.011-.053.026c0-.021.037-.034.049-.026l-.044-.024c-.054.021-.054.078-.075.121.042-.01-.021.052.023.063l.022-.024a.013.013,0,0,1,.012.011.681.681,0,0,0,.217-.28c-.032-.024-.025-.09-.063-.081.021-.02.043,0,.043-.06-.016-.038-.057.028-.075.035-.006-.04-.017-.041-.028-.045.06-.015.153-.029.166.015,0-.021.008-.044.011-.065-.009.014-.018,0-.016-.026h.017a.019.019,0,0,1,0,.007,3.5,3.5,0,0,0-.134-1.06c-.037-.159-.074-.317-.108-.466l-.021.015-.01,0c.006,0,.021-.009.03-.012l0-.015-.022.007s0,0,0,.012h0s0,.006,0-.012l-.079.023c.024,0,.045,0,.022.013l.034-.015c-.01.013-.1.041-.12.06-.036.01-.071.019-.107.026,0,0-.01.021.008.015-.026.012-.049.021-.012.016a2.861,2.861,0,0,0-.383.123,1.764,1.764,0,0,1-.378.124c-.018.009,0,.019,0,.023-.055-.018-.038.034-.062.048l-.081-.028c-.022.025,0,.034,0,.045-.124.056-.263.043-.356.111-.038-.011,0-.05-.05-.044.072.04-.1.067-.073.1a.115.115,0,0,0-.084-.011c-.04,0-.074.009-.078-.048-.054.01-.031.053-.015.057a.276.276,0,0,0-.15.075.449.449,0,0,0-.128.033c-.078.025-.173.052-.216.019.051.037,0,.025-.024.058l.043.034-.08.019c-.017.008-.021.008-.021,0s0-.026-.042-.027c-.054.013-.05.037-.074.068l.01,0-.036.014c-.014,0,.009-.015.021-.033s.016-.034-.03-.033c0,.013-.035.082-.067.059.046-.01.032-.038.013-.046l-.064.016.035.047c-.184.045-.384.058-.58.1,0-.018-.034-.013-.064-.008s-.074.012-.071-.019l.009,0c.046-.017-.025-.036-.063-.02.046.006-.059.067.043.051l-.069.041c-.008.051-.06.058-.122.062a.464.464,0,0,0-.184.041.022.022,0,0,0,.008-.012c-.092.046-.208.077-.218.1l-.02-.007a1.537,1.537,0,0,0-.067.166s0-.013-.01,0a.4.4,0,0,1,.015.116l0,0c0,.035.013.073.019.109-.043.009.068.184.041.228a1.357,1.357,0,0,1,.065.131s0,0,0,.011c.035.035.036.123.056.17.017.028.02.013.021,0,0,.066.083.158.085.182.016.043-.012.022-.017.038.015.027.022.025.03.022s.015-.007.025.043c-.007-.009-.016-.026-.016-.02.011.033-.022.114,0,.143v-.025c.039.052.02.157.062.149l.014-.014c.028.107.03.036.065.142h0c.032.034.024.073.067.068l-.006-.016c.04.04.041.047.081.085.008,0,.033.012.034.023.02-.019.113.041.136.047-.039-.007-.027.013-.021.03a.105.105,0,0,1,.043-.016A.06.06,0,0,1,8647.045-8740.624Zm.9-.269.043-.02a.236.236,0,0,1-.028-.065C8647.954-8740.949,8647.951-8740.922,8647.946-8740.893Zm.154-.158a.064.064,0,0,1,0-.014C8648.089-8741.06,8648.1-8741.059,8648.1-8741.051Zm.469-.05.1-.026a1.157,1.157,0,0,0,.047-.147l-.054.049-.022-.024A.306.306,0,0,0,8648.569-8741.1Zm.436-.113.066-.017-.011-.069.02.066.067-.02a.046.046,0,0,0-.012-.018.735.735,0,0,0-.15-.064A.376.376,0,0,0,8649-8741.214Zm.34-.1.055-.019a.066.066,0,0,1-.021-.034A.164.164,0,0,0,8649.345-8741.31Zm.422-.262a.261.261,0,0,0-.083.15c.095-.034.178-.068.255-.1a.046.046,0,0,1-.023,0,.078.078,0,0,0,.066-.045h-.054a.1.1,0,0,1,.046-.006.093.093,0,0,0,.081-.025c-.023-.024-.012-.083-.069-.1-.115,0-.038.114-.165.155,0,.006,0,0-.006-.016a.02.02,0,0,0-.02-.017A.059.059,0,0,0,8649.767-8741.571Zm.2-.183v0C8649.942-8741.754,8649.93-8741.755,8649.962-8741.754Zm.293-.172Zm.218-.09,0-.009h0A.033.033,0,0,1,8650.473-8742.016Zm.007-.025a.554.554,0,0,0,.018-.069A.067.067,0,0,0,8650.479-8742.041Zm1.809-.249.008.014.018-.015a.024.024,0,0,1,0-.009v0s0,0,.007.009c.019-.017.039-.03.059-.047-.022.009-.042.017-.027,0l-.021.024c0-.015.072-.073.078-.1a.6.6,0,0,1,.085-.061c-.007,0,0-.021-.014-.012.02-.017.036-.033.006-.018.1-.068.206-.142.309-.216a1.108,1.108,0,0,1,.324-.185c.013-.012,0-.019-.01-.022.055.01.03-.038.05-.055l.081.017c.018-.026-.008-.032-.011-.043.108-.066.24-.066.321-.137.038.008.01.049.053.04-.073-.036.089-.071.06-.1a.111.111,0,0,0,.079.008c.037,0,.069-.011.078.047.049-.013.025-.055.009-.058a.239.239,0,0,0,.136-.077.423.423,0,0,0,.116-.034c.074-.026.16-.053.2-.018-.049-.038-.006-.026.021-.058l-.043-.032.075-.019c.013-.01.019-.009.02,0s0,.025.039.026c.051-.014.046-.038.066-.066l-.011,0,.033-.015c.013,0-.008.015-.018.032s-.012.034.03.033c0-.013.028-.081.06-.058-.042.01-.027.037-.009.045l.06-.015-.036-.046c.167-.046.352-.059.525-.117,0,.017.032.011.061,0s.066-.016.068.013l-.009,0c-.041.021.028.036.061.016-.042,0,.045-.072-.046-.047l.059-.046c0-.051.048-.061.105-.07a.466.466,0,0,0,.17-.052.016.016,0,0,0-.007.013c.082-.053.2-.072.217-.094l.017.009a.518.518,0,0,1,.138-.124s0,.013.008,0a.277.277,0,0,1,.056-.094l0,0a.66.66,0,0,0,.044-.087c.018.007.029-.036.031-.083s0-.1.02-.112c-.01-.02-.021-.093-.033-.124a.014.014,0,0,0,0-.009c-.028-.034-.021-.108-.043-.147-.018-.021-.019-.008-.02.006,0-.061-.1-.1-.107-.118-.025-.024,0-.022,0-.037-.021-.014-.027-.007-.032,0s-.01.015-.036-.017c.009,0,.022.01.02,0-.019-.018-.036-.1-.071-.1l.014.019c-.055-.01-.113-.089-.133-.052v.02c-.049-.021-.057-.02-.068-.017a.141.141,0,0,1-.066-.011v0a.147.147,0,0,1-.037,0c-.021,0-.037-.006-.048.021l.014,0c-.05.01-.059.009-.115.017-.007,0-.033.016-.043.008,0,.035-.131.039-.157.04.046-.014.022-.024.008-.038a.054.054,0,0,1-.081.022c0,.049,0,.1-.076.118.011-.01.027-.017.02-.026s-.023.006-.029.011.015-.021,0-.038c-.046.058-.085.018-.155.046.021-.02,0-.026-.01-.045,0,.03-.023.021-.044.014s-.042-.018-.024.022a.739.739,0,0,0-.218,0c-.087.008-.165.018-.2-.011s-.053.021-.077.025v-.031c-.062.065-.052.026-.125.095.029-.042.014-.057-.022-.083l-.048.073-.016-.048a.07.07,0,0,1-.071.013c-.017.057-.1.064-.11.1-.017-.033-.032-.025-.047-.018s-.028.014-.041-.017a.092.092,0,0,1-.026.028c.016.03.024.063,0,.052l0,0-.015-.038a.213.213,0,0,1-.057.024.12.12,0,0,1,.024.017.278.278,0,0,1-.029-.016h-.007l0,0a.036.036,0,0,0-.046.008c-.043-.024-.079,0-.116.029s-.085.058-.136.021c.014.007.032.007.034-.01a.237.237,0,0,1-.091,0c-.039,0-.075-.009-.1.016l.012.039a.338.338,0,0,1-.122.061l.01.046a.185.185,0,0,0-.081.027c-.051.024-.1.049-.145,0,0,.039-.081.015-.109.036l-.02-.03a.13.13,0,0,0-.09.042.147.147,0,0,0-.132.018c-.027.019-.044.047-.078.062l-.006-.008-.049.058c0-.022,0-.008-.007.008s-.008.02-.012.02c0,.017-.008.015-.034.008l-.016.011c0-.026-.045-.026-.088-.042a.131.131,0,0,0,.018.027c-.025,0-.022-.022-.042-.016a.041.041,0,0,1,0,.016.116.116,0,0,0,.019.02.118.118,0,0,0,.05.031l.023,0s0,0,0,0h0l.018,0c0,.01.011.008.027.009-.027,0-.027.012-.03.022s-.007.017-.03.032c.026-.016.031,0,.035.016s.011.071.041.045c-.047.053,0,.03-.04.065a.124.124,0,0,0-.026-.083c-.019-.026-.042-.027-.059-.044-.008.011-.015.023-.022.035-.066-.011-.006-.07-.024-.086a.023.023,0,0,1,0,.04l.047-.012c.009-.043-.047-.06-.09-.1,0,.013-.018,0-.035-.016s-.033-.024-.048-.021l.02.027s-.009,0-.016,0a.879.879,0,0,1,.1.31c.042,0,.063.073.093.05-.013.029-.038.021-.021.076.025.036.045-.046.06-.063.019.044.029.044.042.045-.052.04-.141.063-.164.028,0,.02,0,.04,0,.061.008-.013.017,0,.017.022h-.015a.008.008,0,0,1,0-.007c-.015.448-.2.924.1,1.392l.01-.018h.012A.184.184,0,0,0,8652.288-8742.29Zm-4.438-.589.015.006c0-.007.007-.015,0-.015A.066.066,0,0,0,8647.85-8742.879Zm6.512-.549-.015-.006C8654.343-8743.421,8654.338-8743.41,8654.361-8743.428Zm-2.173-.34a.056.056,0,0,0,0-.064C8652.185-8743.811,8652.188-8743.789,8652.188-8743.768Zm-.006-.081h0l0-.006Zm.153-.359c.013,0,.021,0,0,0Zm-.141-.12c.028.02.045.065.1.08.074.013,0-.107.1-.155,0,0,0,0,.007.015s.018.026.043,0a.344.344,0,0,0,.061-.146c-.021.009-.043.016-.064.025a1.041,1.041,0,0,0-.16.092.044.044,0,0,1,.022,0c-.024,0-.048.029-.052.052l.049-.007C8652.274-8744.351,8652.225-8744.372,8652.2-8744.328Zm.573-.3a.073.073,0,0,1,.021.036.15.15,0,0,0,.029-.052A.488.488,0,0,1,8652.769-8744.627Zm.235-.068c0,.007,0,.015.008.02a.611.611,0,0,0,.139.07.458.458,0,0,0-.017-.121l-.062.015.009.069-.018-.067C8653.044-8744.7,8653.023-8744.7,8653-8744.7Zm.44-.095a1.1,1.1,0,0,0-.05.142l.052-.044.019.027a.312.312,0,0,0,.075-.142Zm.522.028c.011,0,0,0,0-.014Zm.132-.116a.244.244,0,0,1,.008.07l.039-.075Zm.969-.042.07-.028-.031-.021h-.016l-.018.013.008-.012c-.012,0-.023,0-.034,0a.018.018,0,0,0,.015.02l.012-.011C8655.063-8744.939,8655.058-8744.925,8655.067-8744.92Zm2.139-.834c-.04-.057-.093-.123-.062-.112a1.961,1.961,0,0,0-.529-.337A2.329,2.329,0,0,1,8657.206-8745.754Zm-5.2-.516c.006.232.187.269.376.208.135-.041.269-.075.4-.107l.1-.1.035.065c.313-.067.63-.115.949-.154a.33.33,0,0,0-.1-.008,6.8,6.8,0,0,0-.965.1c-.1.017-.192.037-.281.056s-.148.037-.191.042a.163.163,0,0,1-.162-.055.35.35,0,0,0-.1-.059.063.063,0,0,0-.02,0A.111.111,0,0,0,8652.007-8746.27Zm2-3.106c-.43.15-.809.3-1.021.388.276-.085.555-.165.833-.245l.219-.021c.5-.139.983-.293,1.381-.428Q8654.709-8749.541,8654.006-8749.376Zm-5.874-.26a4.929,4.929,0,0,0-.525.14c-.173.051-.348.1-.521.144l.416-.08c.083-.021.167-.044.25-.067s.16-.051.233-.072c-.034.013-.071.024-.108.039a2.806,2.806,0,0,1,.519-.087c0-.009-.055-.009-.216,0-.054.011-.122.025-.194.044.143-.043.241-.066.194-.066Zm5.674-1.314q.316-.075.636-.146c-.043-.02-.076-.038-.023-.068Zm2.656-.62a.424.424,0,0,1,.058-.023C8656.357-8751.568,8656.449-8751.577,8656.462-8751.57Zm-41.633,27.736a.456.456,0,0,1-.212-.221c-.01-.011-.014,0-.016.007,0-.042-.029-.026-.043-.044q0-.031.009-.062c-.02-.017-.023,0-.032,0-.055-.1-.034-.2-.085-.268.012-.027.043,0,.04-.035-.021.027-.034,0-.048-.021s-.019-.041-.031-.032c.043-.043-.023-.109.067-.116,0-.04-.048-.021-.053-.01a.142.142,0,0,0-.06-.1c.017-.031-.086-.184-.025-.245-.039.041-.026,0-.056-.012l-.034.037-.014-.057c-.008-.01-.007-.013,0-.015s.025-.007.027-.033-.034-.031-.062-.044l0,.009-.013-.023c0-.008.008,0,.02,0s.045.018.044-.023c-.011,0-.077-.011-.054-.038.008.032.035.017.043,0l-.014-.045-.045.036a2.64,2.64,0,0,0-.123-.394c.034-.018-.042-.092.009-.107l0,.008c.022.027.032-.031.011-.053,0,.014-.012.013-.024.013s-.034,0-.017.035l-.047-.036c-.046.014-.062-.027-.075-.079a.588.588,0,0,0-.038-.153.015.015,0,0,0,.011.006c-.046-.076-.013-.189-.023-.205l.016-.01a.192.192,0,0,1-.01-.16s.006.013.011,0a.121.121,0,0,1,0-.1l0,0a.579.579,0,0,1,.024-.087c.03.016.039-.15.093-.151,0-.021.034-.075.046-.1,0,0,0,0,.009,0,.006-.04.069-.071.1-.1s0-.02-.012-.017c.046-.021.094-.105.113-.11s.021.008.035.012c.043-.032-.03-.033.042-.057-.007.007-.02.017-.013.017a.092.092,0,0,1,.054,0c.025.006.05.011.06,0h-.02a.1.1,0,0,1,.074-.018c.026,0,.046,0,.045-.019l-.01-.018a.127.127,0,0,0,.06-.007c.01,0,.015-.01.065,0v0a.071.071,0,0,1,.035,0c.018,0,.031.006.044-.017l-.014,0a.286.286,0,0,1,.1.008c.006,0,.032-.008.037,0,0-.016.035-.014.067,0a.544.544,0,0,1,.072.031c-.04-.009-.027.013-.024.03.034-.019.052-.015.069.019.028-.039.061-.081.125-.052h-.012c-.01,0-.02,0-.02.009s.021.01.028.01-.023.008-.027.025c.066-.015.069.039.13.064-.027,0-.02.019-.027.036.022-.02.029,0,.035.018s.01.043.031,0c.058.114.2.228.181.3-.014.023.04.026.052.042l-.027.014c.079.016.041.025.128.05-.048,0-.057.016-.067.055l.082,0-.039.033c.026.006.029.027.033.049a.088.088,0,0,1,.073.023c.019.013.034.026.05.025-.053.049.042.039-.011.082a.1.1,0,0,1,.034.011c.023-.022.052-.041.048-.018l0,0-.034.025a.134.134,0,0,1,.037.038.089.089,0,0,1,.01-.026.137.137,0,0,1-.009.03.011.011,0,0,1,0,.006l0,0a.026.026,0,0,0,.018.035c-.03.084.145.1.09.2,0-.014,0-.029-.014-.027.028.054-.01.131.035.155l.037-.016a.236.236,0,0,1,.065.1l.045-.013c0,.054.1.139.022.2.039,0,.009.071.028.1l-.032.017a.1.1,0,0,0,.031.077c-.052.093.034.142.043.208l-.01,0,.038.06c-.033-.01.022.007.019.028a.071.071,0,0,1,0,.083l.006.042c-.029-.041-.045.015-.08.026l.035.019a.023.023,0,0,1-.021,0c-.007,0-.013,0-.015.008.023.013.032.065.07.072a.056.056,0,0,0,.021-.023h0l0,0v0l.015,0c0,.035.01.02.025.015-.045.048-.014.062-.056.1.023-.017.025,0,.028.026s.008.046.035.025c-.045.042,0,.021-.038.049.007-.043-.045-.069-.073-.094l-.024.038c-.063,0,.006-.074-.018-.087.016.008.01.036,0,.043l.041-.019c.01-.05-.034-.075-.064-.1,0,.017-.015.01-.026,0s-.026-.014-.039,0l.011.021a.015.015,0,0,1-.014,0c.016.062.032.123.05.186v-.021l.031,0-.032.017c0,.022.011.044.018.065a.068.068,0,0,1,.041.013c.018.01.033.019.048.006-.011.028-.034.023-.014.067.026.026.036-.044.048-.062.02.035.029.034.041.033-.043.044-.115.069-.142.044a.26.26,0,0,1,0,.047c0-.011.015,0,.016.018h-.013a.005.005,0,0,1,0,0c.006.342-.373.6-.825.6-.029,0-.057,0-.085,0,.019,0,.042.008.021.013l.025,0c-.009.007-.08,0-.1.008s-.054-.007-.08-.01c0,0-.012,0,0,.007-.02,0-.037,0-.013,0A1.009,1.009,0,0,1,8614.829-8723.834Zm1.332-.6a.04.04,0,0,0-.011-.05A.508.508,0,0,1,8616.161-8724.435Zm-.014-.063h0l0,0Zm-.094-.435c.029-.016.08,0,.117-.04.033-.092-.1-.043-.11-.14-.012-.007.06,0,.029-.041a.21.21,0,0,0-.132-.064c.018.067.035.134.054.2a.067.067,0,0,1,0-.026c-.008.02.01.043.027.052l.014-.039C8616.065-8725,8616.026-8724.97,8616.054-8724.933Zm.168-.051h0a.093.093,0,0,1,0-.017S8616.227-8725,8616.222-8724.983Zm-1.974-.043c.013,0,.023,0,.006-.013Zm1.65-.4a.1.1,0,0,1,.037-.019.114.114,0,0,0-.049-.021Zm-.072-.228c0,.015.011.029.016.045a.073.073,0,0,0,.02-.01.486.486,0,0,0,.066-.122.573.573,0,0,0-.12.032c0,.016.011.032.017.047l.068-.016Zm-.138-.357.03.07c.055,0,.109.007.146.006l-.05-.031.022-.022a.241.241,0,0,0-.121-.022Zm-.067-.339.014,0,0,0S8615.626-8726.353,8615.621-8726.35Zm.014,0Zm-.166-.078c0,.01.013.02.019.029a.352.352,0,0,1,.062-.037C8615.521-8726.437,8615.5-8726.434,8615.469-8726.431Zm-.5-.531.026.012a.02.02,0,0,0,0-.022l-.016,0c.018-.009.029-.018.025-.027-.021,0-.043-.006-.063-.007a.161.161,0,0,1,.012.035l.006,0,.021,0Zm67.655,3.093a4.242,4.242,0,0,1-1.389-.2c-.426-.172-.771-.423-.729-.945.049-.605.521-.618.961-.632.579-.016,1.16,0,1.707,0-.243-1.2-.478-2.351-.707-3.5-.04-.2.018-.538-.092-.6-.9-.516-.971-1.333-1.042-2.248a1.465,1.465,0,0,1,1.3-1.718c1.412-.339,2.729.193,4.095.218a.9.9,0,0,1,.983,1.043c-.187,1.221.44,2.521-.7,3.7-.349.36,0,1.686.07,2.565.023.31.39.229.636.252,1,.093,2,.2,3,.294a1.076,1.076,0,0,1,1.068,1.029c.014.688-.684.715-1.142.7-.419-.019-.84-.008-1.259,0a10.541,10.541,0,0,1-2.324-.114,7.85,7.85,0,0,0-2.538.043,12.784,12.784,0,0,1-1.578.131Q8682.782-8723.86,8682.625-8723.869Zm2.259-4.348c-.188.034-.168.158-.123.315.155.544.293,1.095.461,1.736.412-.691-.021-1.276.066-1.867.024-.162-.092-.2-.222-.2A1,1,0,0,0,8684.884-8728.217Zm-1.526-2.574c.139.2-.216.944.287.679a1.472,1.472,0,0,1,.86-.037c.592.082,1.182.164,1.243-.9.051-.905-.461-.883-.947-.859a1.871,1.871,0,0,1-.474-.016,1.426,1.426,0,0,0-.319-.039C8683.411-8731.967,8683.281-8731.455,8683.357-8730.791Zm-58.791,6.8a.71.71,0,0,1-.434-.144c.037.026.094.055.115.045a2.633,2.633,0,0,1-.551-.345l-.019.038a1.045,1.045,0,0,1-.336-.379l-.046.013a1.793,1.793,0,0,1-.15-.462.55.55,0,0,1,.045-.395c-.037-.061.056-.294.077-.41l.043-.02a1.667,1.667,0,0,0,.062-.182c.012-.045.019-.084.026-.122a1.485,1.485,0,0,0,.138-.736l.01,0c0-.081-.01-.162-.016-.243.029.063-.021-.048-.013-.122a.912.912,0,0,1,0-.3l-.007-.159c.032.177.045-.017.081-.029l-.036-.1c.006-.019.014-.007.021,0s.014.027.016-.015a2.254,2.254,0,0,0-.082-.334.2.2,0,0,0-.021.068c0,.008,0,.008,0,0v0a.114.114,0,0,0-.017-.028c0-.13-.011-.082-.028-.076.045-.145.011-.227.06-.335-.028.05-.029-.039-.032-.127s0-.176-.035-.129c.052-.111,0-.075.046-.147a1.36,1.36,0,0,0,.071.43l.027-.124c.065.076-.011.276.017.348a.278.278,0,0,1,0-.162l-.044.034a1.19,1.19,0,0,0,.072.433c0-.061.016-.021.029.021s.028.072.041.031l-.014-.092c0-.012.009-.013.014-.007-.013-.162-.027-.323-.034-.484s-.017-.338-.021-.506c-.042-.021-.064-.23-.095-.17a.373.373,0,0,0,.02-.213c-.027-.1-.043.127-.058.171-.021-.123-.031-.122-.043-.126.049-.1.135-.182.161-.075,0-.058,0-.116,0-.174-.006.036-.018-.011-.021-.074l.017,0s0,.007,0,.01a14.033,14.033,0,0,0-.221-2.311c-.05-.248-.1-.57.231-.712a.819.819,0,0,1,1.03.366l.008-.028,0,0,0,0s0-.011.006,0l.006-.025.015-.022c0,.01-.011.03-.017.05l.012.018a1.2,1.2,0,0,1,.13-.26.167.167,0,0,0-.021.024c-.036.048-.061.088-.035.026a.96.96,0,0,0-.042.091.7.7,0,0,1,.077-.159c.042-.071.1-.136.113-.162a1.049,1.049,0,0,1,.257-.188c-.012,0,.029-.036-.015-.011.066-.041.129-.074.032-.032a2.568,2.568,0,0,1,.54-.187c.18-.048.357-.1.531-.167.351-.125.686-.278,1.018-.419.041-.025.011-.024-.009-.023.134-.029.1-.075.164-.114l.2-.046c.068-.048,0-.037,0-.049a4.193,4.193,0,0,1,1.035-.274c.1.01-.017.05.111.044-.171-.044.315-.063.27-.093.136.049.445-.012.395.086.152,0,.125-.046.081-.054.087,0,.166,0,.241-.009s.148-.017.229-.03a1.305,1.305,0,0,1,.49.151.8.8,0,0,1,.347.406c-.016-.1.033.008.1.089a1.021,1.021,0,0,0-.012-.108,1.906,1.906,0,0,1,.114.222c.027.044.029.059.025.06.015.039-.025,0,0,.1a.723.723,0,0,0,.132.228l0-.025.04.1c.01.031-.011-.006-.034-.043-.033-.054-.073-.107-.035.043a.322.322,0,0,1,.105.2c-.038-.126-.062-.1-.059-.05l.052.177.034-.075c.155.506.271,1.045.434,1.583-.041,0,.111.382.045.349v-.022c-.047-.129-.029.052.012.157-.009-.051.011-.025.028,0s.05.069,0-.091l.089.2a.714.714,0,0,1,.145.354c.021.083.048.175.065.276a2.171,2.171,0,0,1,.025.286c0-.024-.006-.03-.009-.034a1.675,1.675,0,0,1-.051.463,1.764,1.764,0,0,0-.05.275l-.02.024c.007.25.021.271.043.576,0,0-.012-.037-.008.011a1.983,1.983,0,0,1,.061.349l-.006-.008.043.322c-.038,0,.086.554.045.655a3.579,3.579,0,0,1,.037.409s0,.007,0,.025a2.209,2.209,0,0,1-.029.5c-.006.093.006.055.019.016-.019.09-.037.215-.065.328a.782.782,0,0,1-.1.236c-.056.075-.058.066-.062.058s0-.011-.015,0c-.069.079-.057.08-.051.086s0,.021-.114.1c.027-.018.07-.062.052-.049a2.493,2.493,0,0,1-.364.152l.064-.019c-.164.095-.422.1-.437.151l.021.014a2.631,2.631,0,0,0-.423.136l0-.006c-.123.059-.2.067-.247.129l.044-.016c-.151.077-.165.083-.322.16a.458.458,0,0,1-.115.06,1.392,1.392,0,0,1-.449.206c.115-.046.079-.046.04-.045h-.019a.364.364,0,0,1-.243.084c-.006.049-.017.11-.25.153.035-.013.091-.026.066-.032a.211.211,0,0,0-.095.02c-.024-.007.049-.026.021-.039a1.608,1.608,0,0,1-.488.065c.07-.019.009-.027-.017-.045-.009.029-.078.021-.14.011s-.123-.021-.079.021a5.426,5.426,0,0,0-.717-.015,4.761,4.761,0,0,1-.513.023c-.05-.015-.147.047-.225.067l0-.033a3.417,3.417,0,0,1-.392.154c.095-.053.049-.062-.057-.076l-.156.092-.039-.044a.641.641,0,0,1-.215.04c-.057.064-.3.114-.331.159a.148.148,0,0,0-.133.013c-.046.02-.091.039-.127.015a.6.6,0,0,1-.088.047c.044.021.066.051-.008.054l-.017,0-.04-.034a1.191,1.191,0,0,1-.2.048.512.512,0,0,1,.079.01l-.093-.008-.027,0,.016,0a.423.423,0,0,0-.159.012A3.388,3.388,0,0,0,8624.566-8724Zm-.255-.146c.063.01.128.017.191.021.014.015.026.026.04.039a.612.612,0,0,0,.322-.088,1.767,1.767,0,0,1-.292-.036C8624.471-8724.176,8624.37-8724.155,8624.312-8724.141Zm1.813-.151c.033-.007.014-.008.01-.016A.057.057,0,0,1,8626.124-8724.292Zm.414-.169a.092.092,0,0,1,.013.07l.122-.092C8626.629-8724.475,8626.583-8724.467,8626.538-8724.461Zm-3.035-.508a.588.588,0,0,0,.041.212,1.034,1.034,0,0,0,.077.167.149.149,0,0,0,.115-.055,1.106,1.106,0,0,1-.118-.153l-.072.019.058-.041a.924.924,0,0,1-.088-.176A.051.051,0,0,0,8623.5-8724.969Zm5.953.28a2.068,2.068,0,0,0,.211-.085l-.092,0-.047.014-.05.023c.008,0,.015-.012.022-.018-.035.01-.071.02-.106.027,0,.008.015.013.047.01l.037-.02C8629.447-8724.707,8629.428-8724.687,8629.456-8724.688Zm-6.014-.866a1.581,1.581,0,0,1,.019-.16c-.014.013-.032.028-.045.021A.38.38,0,0,0,8623.442-8725.555Zm1.518-.163a.231.231,0,0,1-.026.027c.074-.026.149-.045.223-.065-.053.007-.112.016-.06-.007l-.065.025c.019-.018.209-.069.245-.092.073-.015.146-.031.219-.04-.007,0,.026-.022-.009-.016.054-.014.1-.025.027-.017.265-.042.532-.071.8-.1a4.934,4.934,0,0,1,.794-.025c.035,0,.015-.017,0-.024.1.033.091-.021.144-.028l.14.05c.057-.018.013-.032.017-.044.091-.006.18,0,.265,0a1.4,1.4,0,0,0,.453-.043c.068.013-.009.052.08.045-.124-.039.222-.073.17-.1a.343.343,0,0,0,.155,0c.076-.011.143-.021.134.038.105-.021.076-.063.044-.063a.846.846,0,0,0,.3-.116,1.624,1.624,0,0,0,.28-.087.942.942,0,0,1,.379-.083c-.089-.021,0-.026.059-.071l-.077-.02.157-.051c.031-.015.04-.016.041-.013s.015,0,.02.008.017.014.054.007a.327.327,0,0,0,.157-.1h-.019l.072-.027c.025-.008-.013.015-.04.036s-.051.05.046.031c0-.012.084-.1.142-.085-.092.025-.07.052-.033.053l.127-.035-.058-.04.068-.02.035-.009.021-.007a.305.305,0,0,0,.08-.039.393.393,0,0,0,.12-.172.777.777,0,0,0,.05-.253,2.319,2.319,0,0,0-.015-.289c.019,0,.015-.063.012-.127s-.006-.142.023-.125l0,.016c.014.1.038-.033.023-.111,0,.035-.015.016-.027,0s-.032-.054-.026.063l-.037-.153c-.1-.077-.022-.419-.071-.653,0,.016.009.02.012.021-.04-.208-.027-.475-.044-.521l.014-.021a1.754,1.754,0,0,1-.067-.412s.01.026.008-.008a1.019,1.019,0,0,1-.054-.246l.006,0-.038-.227c.041-.007-.094-.386-.066-.461-.021-.042-.06-.206-.082-.277,0,0,0-.007,0-.019a2.339,2.339,0,0,1-.08-.345c-.022-.06-.022-.032-.022,0a2.447,2.447,0,0,0-.124-.375c-.017-.058-.008-.057,0-.057s.01,0,.011-.009c-.021-.06-.03-.058-.038-.055s-.015.006-.036-.091c.01.019.024.057.022.04-.021-.066,0-.205-.035-.268l0,.047c-.054-.117-.058-.3-.1-.309l-.014.019c-.055-.216-.041-.086-.1-.3h0c-.041-.088-.037-.147-.092-.175l.011.032a1.8,1.8,0,0,0-.121-.213.323.323,0,0,1-.055-.061c-.014.009-.058-.033-.113-.057a.406.406,0,0,0-.083-.03l-.063-.011c.083,0,.048-.016.024-.033a.228.228,0,0,1-.166.015c-.007.05-.015.1-.156.133.021-.013.056-.023.039-.03s-.048.011-.06.019c-.016-.008.03-.027.011-.039-.089.07-.176.045-.312.1.04-.029,0-.027-.022-.04.008.061-.209.015-.131.072a3.252,3.252,0,0,0-.481.166.98.98,0,0,1-.371.095c-.038-.016-.1.052-.151.07l0-.032c-.118.1-.1.059-.24.176.054-.062.02-.066-.059-.068l-.089.106-.039-.039a.311.311,0,0,1-.146.06c-.027.068-.21.126-.233.164a.1.1,0,0,0-.1,0c-.034.015-.065.029-.094,0a.248.248,0,0,1-.062.04c.032.024.05.057,0,.054l-.014,0-.028-.036a.676.676,0,0,1-.14.038.559.559,0,0,1,.057.013.485.485,0,0,1-.067-.011l-.019,0,.012,0a.207.207,0,0,0-.113.012.859.859,0,0,0-.311.008.8.8,0,0,1-.167,0,.4.4,0,0,1-.152-.062c.027.015.072.028.087.016a1.69,1.69,0,0,1-.207-.063.222.222,0,0,0-.153-.008l.008.041a.312.312,0,0,0-.111.051.2.2,0,0,0,.045.016h0l0,.01a.035.035,0,0,1,0,.01l0,.038a.31.31,0,0,1-.035.235c.04.03,0,.187.021.263l-.034.022a.662.662,0,0,0,.027.22,1.623,1.623,0,0,0,.039.569l-.009,0,.039.179c-.034-.045.023.033.02.089a.461.461,0,0,1,0,.22l.007.116c-.031-.127-.046.014-.082.023l.035.071c-.006.015-.014.007-.021,0s-.014-.019-.015.012c.024.048.035.193.075.235a.121.121,0,0,0,.021-.049c0-.006,0-.006,0,0v0a.142.142,0,0,0,.016.018c0,.093.012.058.027.053-.046.1-.012.159-.058.238.026-.036.029.027.033.09s.009.123.038.089c-.05.083,0,.053-.042.107a.746.746,0,0,0-.08-.3l-.025.09c-.066-.05.006-.2-.019-.246a.157.157,0,0,1,0,.115l.044-.026a.672.672,0,0,0-.069-.3c0,.044-.016.015-.028-.012s-.027-.053-.041-.021l.013.064c0,.009-.01.009-.015,0q.034.353.063.705c.042.011.07.161.1.115-.013.058-.039.038-.017.153.03.072.041-.094.055-.125.022.087.034.086.046.088-.047.076-.132.136-.161.062,0,.044.006.088.009.132,0-.036.017,0,.021.043l-.016,0a.09.09,0,0,1,0-.022c.02.295.033.591.038.886.011.66.514,1.411-.174,2.061h.021C8624.984-8725.727,8624.974-8725.722,8624.96-8725.718Zm-1.333-1.18a1.416,1.416,0,0,0,.051.382,3.577,3.577,0,0,0,.081-.769.209.209,0,0,1-.014.057.505.505,0,0,0-.014-.221l-.021.136a1.6,1.6,0,0,0,.018-.36c-.012.011-.027,0-.043-.007s-.056-.031-.079.048c-.045.307.1.249.069.62,0,.011,0,.007-.009,0a.019.019,0,0,0-.013,0C8623.643-8727.015,8623.628-8727,8623.627-8726.9Zm6.244.278h-.028C8629.83-8726.605,8629.818-8726.591,8629.871-8726.619Zm-6.317-1.015,0,0C8623.546-8727.577,8623.54-8727.546,8623.554-8727.634Zm1.541-1.213a.242.242,0,0,0-.012-.143Zm-.015-.176h0l0-.016Zm-1.438-.353v-.015l0,0Zm0-.059c0-.069,0-.14-.007-.209A.518.518,0,0,0,8623.639-8729.434Zm-.016-.464Zm1.406-.343c.026.009.056.019.079-.039.032-.227-.1-.174-.115-.441,0-.007,0-.006.008,0s.042.011.021-.086a.569.569,0,0,0-.134-.254q.025.272.052.547a.18.18,0,0,1,.008-.041.293.293,0,0,0,.028.154l.014-.1c.009.078-.032.146,0,.26a.021.021,0,0,1,.014,0A.083.083,0,0,1,8625.029-8730.24Zm.131-.041,0,0c0-.025,0-.044,0-.044Zm-.319-1.374c.01-.011.023-.024.038-.021a.327.327,0,0,0-.046-.09C8624.837-8731.729,8624.839-8731.692,8624.841-8731.655Zm.9-.467a.416.416,0,0,0,.223-.115,1.668,1.668,0,0,1-.208-.011l-.184.105a1.349,1.349,0,0,0,.14-.013Zm-.9-.047a.036.036,0,0,0,.024,0,.3.3,0,0,1,.122-.035.317.317,0,0,1,.094.009.316.316,0,0,0,0-.126.425.425,0,0,0-.129.042.5.5,0,0,0,.021.068l-.039-.059A.243.243,0,0,0,8624.844-8732.169Zm2.035-.157c.022-.01.007-.009,0-.018A.114.114,0,0,1,8626.879-8732.326Zm.257-.2a.113.113,0,0,1,.026.065c.022-.035.046-.068.068-.1C8627.2-8732.555,8627.168-8732.544,8627.136-8732.53Zm-2.471-.029.013.013c0-.007,0-.014.009-.022l-.013-.017Zm4.457-.545a.711.711,0,0,1,.15-.018l-.059-.03h-.034l-.037.011.018-.011a.662.662,0,0,0-.075,0c0,.008.007.015.029.018l.028-.012C8629.117-8733.124,8629.1-8733.108,8629.122-8733.1Zm1.929-.631-.007-.04a.092.092,0,0,0-.021-.015S8631.025-8733.777,8631.051-8733.735Zm-.215-.272Zm41.05,9.332c-.833-.408-1.256-.979-.906-1.937.181-.5.384-.7.919-.335s1.132,1.191,1.754.763c.541-.373.01-1.254.033-1.9.039-1.093-.475-.968-.958-.844-.275.071-.541.143-.688-.013h-.313c-3.351-.046-2.626-.323-2.655-3.073-.012-1.158.11-2.309.1-3.469a13.965,13.965,0,0,1,.143-2.634c.165-.9.94-1.118,2.066-1.049a13.137,13.137,0,0,1,2.083.418,1,1,0,0,1,.769.553c.62,1.788,1.563,3.485,1.6,5.446.034,1.984,0,3.975.151,5.95a2.426,2.426,0,0,1-1.049,2.327,2.09,2.09,0,0,1-1.154.327A4.444,4.444,0,0,1,8671.886-8724.676Zm-.763-7.285a1.615,1.615,0,0,0,.053,1.188c.137.229.677.157,1.006,0a2.928,2.928,0,0,1,1.658-.015c-.03-.68-.059-1.328-.091-2.051-.622.294-1.07.712-1.683.622a3.233,3.233,0,0,0-.462-.053A.441.441,0,0,0,8671.123-8731.961Zm.485-5.254c-.489.124-.529.588-.61,1.045a4.333,4.333,0,0,1,.252,1.751c-.022.176.129.23.284.237.617.031,1.462.317,1.794.025.387-.343-.074-1.1-.317-1.646-.113-.256-.148-.548-.269-.8a.988.988,0,0,0-.88-.646A1.034,1.034,0,0,0,8671.608-8737.215ZM8618.23-8724.4c.021.03-.011.033-.046.029s-.064-.011-.062.006c-.023-.063-.134-.071-.071-.14-.037-.028-.056.013-.048.027a.3.3,0,0,0-.136-.068c-.013-.031-.193-.162-.162-.25-.02.05-.021.01-.056,0l-.021.049c-.014-.021-.024-.041-.036-.062s-.011-.014-.008-.017.022-.012.016-.043-.044-.03-.077-.042l0,.01-.021-.025c0-.008.007,0,.021,0s.053.017.04-.031c-.012.006-.084,0-.066-.039.017.037.041.016.045,0l-.022-.05-.039.043a3.318,3.318,0,0,1-.148-.472c.035-.011-.031-.113.024-.116l0,.007c.016.038.036-.023.021-.053,0,.016-.015.011-.026.006s-.032-.015-.024.033l-.038-.056c-.1-.009-.025-.175-.068-.264a.012.012,0,0,0,.011.008,1.127,1.127,0,0,1-.021-.215l.017-.01a.27.27,0,0,1-.035-.168s.008.011.009,0a.172.172,0,0,1-.025-.1l0,0-.011-.094c.04,0-.034-.16.007-.19a.706.706,0,0,1-.027-.116s0,0,.006-.008c-.025-.035,0-.1,0-.144s-.014-.015-.021,0c.017-.052-.03-.143-.023-.161s.008-.023.016-.021a.016.016,0,0,0,.013,0c0-.026-.014-.026-.021-.026s-.017,0-.009-.039c0,.008.006.024.009.019,0-.029.061-.079.049-.108l-.01.019c-.018-.053.045-.123,0-.132l-.019.006c.023-.09-.01-.04.012-.131l0,0c-.006-.04.022-.061-.015-.081l0,.013a.716.716,0,0,1,0-.1c0-.006-.012-.031,0-.037-.035,0-.021-.117-.016-.148,0,.047.021.025.036.016-.029-.029-.029-.052,0-.083-.044-.017-.1-.038-.074-.123,0,.015,0,.036.013.031s.008-.026.007-.034.009,0,.013.011.007.013.018.013c-.025-.073.033-.091.063-.167,0,.031.019.019.038.024-.044-.049.107-.041.031-.076.068-.039.145-.091.217-.126s.143-.051.175-.028.048-.027.073-.031v.031c.063-.065.048-.025.129-.09-.034.04-.019.055.013.086a.864.864,0,0,1,.058-.065l.006.05c.022-.019.047-.007.07,0,.029-.053.116-.031.138-.058,0,.037.021.037.039.037s.032,0,.031.033a.1.1,0,0,1,.037-.014c0-.032.007-.066.024-.044h.006l-.007.042a.153.153,0,0,1,.066.012.118.118,0,0,1-.014-.029.2.2,0,0,1,.018.031l.008,0h0a.038.038,0,0,0,.045.022c.021.049.072.052.122.065s.1.035.108.1c0-.017-.018-.032-.031-.025.064.051.065.15.121.168l.031-.026a.3.3,0,0,1,.106.118l.044-.019c.011.036.047.087.069.139a.214.214,0,0,1,.019.078.072.072,0,0,1-.034.05c.039,0,.007.079.025.107l-.033.016a.126.126,0,0,0,.029.088c-.054.1.028.16.034.235l-.009,0,.034.07c-.033-.015.022.01.018.034a.083.083,0,0,1,0,.092l0,.047c-.027-.048-.046.012-.082.021l.033.024a.016.016,0,0,1-.021,0c-.008,0-.013-.006-.016.007.022.018.027.076.066.089a.06.06,0,0,0,.021-.022s0,0,0,0v0l.014,0c0,.04.009.022.024.019-.049.049-.018.067-.063.105.024-.017.025.008.025.033s0,.052.033.034c-.05.039,0,.022-.044.05.012-.048-.036-.086-.063-.117l-.028.039c-.062-.013.013-.081-.01-.1.016.012.007.043,0,.049l.043-.016c.013-.054-.028-.087-.058-.119,0,.019-.015.009-.026,0s-.024-.019-.04,0l.011.025a.017.017,0,0,1-.015,0c.016.095.029.19.044.285.038,0,.061.056.088.034-.013.025-.036.02-.019.064.025.027.039-.042.052-.057.017.034.027.032.038.031-.046.038-.117.069-.143.04,0,.019,0,.035.007.053,0-.013.015,0,.018.017l-.014,0a.006.006,0,0,1,0,0c.057.405.106.82.169,1.244a.643.643,0,0,1,.012.095c0-.022,0-.049.012-.026,0-.01,0-.019-.006-.028a.56.56,0,0,1,.015.107.463.463,0,0,1-.013.09s0,0,0,0,0,.006,0,0c0,.022-.008.042,0,.013a.787.787,0,0,1-.407.507c-.013.01,0,.013.006.016-.044,0-.027.029-.046.045a.422.422,0,0,1-.068-.006c-.02.021,0,.024,0,.032a.838.838,0,0,1-.343.053C8618.225-8724.366,8618.269-8724.383,8618.23-8724.4Zm-.631-.431c.012,0,.024,0,0-.015Zm1.3-1.729a.047.047,0,0,0-.009-.057Zm-.011-.071h0l0-.006Zm-.058-.49a.085.085,0,0,1,.039,0,.1.1,0,0,0,.082-.026c.038-.1-.1-.058-.1-.167-.012-.009.059.011.03-.043a.218.218,0,0,0-.129-.082c.015.072.028.146.042.218a.049.049,0,0,1,.009-.021c-.01.02.007.049.024.061l.015-.042C8618.851-8727.192,8618.81-8727.16,8618.834-8727.116Zm.172-.039h0l.007-.019A.1.1,0,0,0,8619.006-8727.155Zm-.306-.518a.077.077,0,0,1,.037-.018.1.1,0,0,0-.048-.027C8618.693-8727.7,8618.7-8727.688,8618.7-8727.673Zm-1.532-.266c0,.025,0,.048.011.071a.108.108,0,0,1,.03-.023v-.009l-.008-.021.01.01c0-.01,0-.021.006-.031a.026.026,0,0,0-.023.007l.008.015c-.012-.012-.021-.021-.027-.021Zm1.443.016c.008.016.019.029.026.046a.082.082,0,0,0,.019-.012.344.344,0,0,0,.032-.147.368.368,0,0,0-.109.059c.01.016.019.031.027.048l.066-.029Zm-.289-.3c.024.015.047.031.069.048.051-.024.1-.046.138-.059-.022,0-.044-.009-.066-.012l.006-.032h-.015A.254.254,0,0,0,8618.322-8728.224Zm-.464-.132a.319.319,0,0,1,0-.075c-.015.025-.026.05-.039.075h.039Zm.134-.081a.037.037,0,0,1,.006-.013h0C8617.988-8728.45,8617.992-8728.444,8617.992-8728.437Zm.007-.013Zm.123,4.089a.014.014,0,0,1,0,.007A.025.025,0,0,1,8618.122-8724.36Zm79.177-.088c-1.138-.12-.509-1.1-.613-1.7-.078-.443.237-.678.658-.642.592.053.729.51.8,1.047-.388.338.038,1.3-.731,1.3A.969.969,0,0,1,8697.3-8724.448Zm-82.888-.058,0,0Zm93.317-1.958c-.082-1.254-.2-2.51-.4-3.749a1.07,1.07,0,0,0-1.336-.876,29.646,29.646,0,0,0-4.833.763c-1.068.3-1.6-.252-1.785-1.356a47.047,47.047,0,0,1-.167-5.31,14.731,14.731,0,0,1,.247-2.026,42.856,42.856,0,0,1,.28-4.976c.133-.639.577-1.3.1-2.052-.1-.166.382-.679.783-.732.6-.08,1.147-.407,1.815-.173a2.254,2.254,0,0,0,1.206-.169c.623-.181,1.372-.417,1.518.432.141.817-.6,1.057-1.307,1.074a16.491,16.491,0,0,1,.809,3.521c.008.492.048.891.747.639.333-.119.625.048.727.468a.572.572,0,0,1-.521.756c-1.208.159-.513,1.023-.531,1.527a.8.8,0,0,0,1.06.837,3.061,3.061,0,0,1,.757-.008c.139.009.277.019.414.019a.7.7,0,0,1,.8.659c.094.557-.349.606-.675.768a.4.4,0,0,1-.176.021c-.031,0-.062,0-.091,0-1.565.135-1.629.2-1.413,1.712a14.269,14.269,0,0,1,.361,1.651c.007.308.2.284.385.261a.8.8,0,0,1,.162-.013,2.072,2.072,0,0,1,2.182,2.179,11.665,11.665,0,0,0,.449,2.328,4.395,4.395,0,0,1,.084,1.823c-.066.569-.4.724-.919.744h-.067C8707.9-8725.719,8707.762-8725.953,8707.729-8726.464Zm-4.473-9.4a12.825,12.825,0,0,1-1.714.352c-.629.063-.733.428-.683.934a11.567,11.567,0,0,1,.161,2.674,8.01,8.01,0,0,1,2.469-.545c.616.023.942-.335.817-1.017-.106-.583-.142-1.179-.229-1.767-.058-.384-.205-.662-.579-.662A1.043,1.043,0,0,0,8703.256-8735.866Zm-2.073-3.729c.293.934-.705,1.689-.246,2.563a16.027,16.027,0,0,1,2.244-.434c.578-.031.47-.359.368-.608a3.538,3.538,0,0,1-.168-1.625Zm-.406-5.177a24.873,24.873,0,0,1,.366,4.2,2.561,2.561,0,0,1,1.09-.211c.923.1,1.107-.188.905-1.086a28.832,28.832,0,0,1-.645-3.2c-.091-.826-.433-.655-.771-.486a.721.721,0,0,1-.485.129.658.658,0,0,0-.207-.039C8700.728-8745.459,8700.673-8745.144,8700.776-8744.771Zm-72.407,18.592.007,0Zm84.4-.205c-.437-.02-.678-.214-.688-.736a18.452,18.452,0,0,1,.288-2.76c.051-.389.061-.773.093-1.159.027-.313-.025-.543-.422-.479-.447.072-.8-.06-.778-.558.022-.439.1-.934.753-.894a.268.268,0,0,0,.3-.144c.334-.118.775-.038.886-.545.162-.748.36-1.489.525-2.236.022-.1-.025-.3-.083-.319-.734-.23-1.183.424-1.79.6-.38.113-.156.385-.162.638-.017.632.8,1,.486,1.686-1.133.3-1.314.208-1.761-.839-.091-.215-.26-.4-.355-.608-.2-.44-.081-.721.139-1.228.782-1.807,2.613-1.631,3.9-2.412.787-.479,1.8.491,1.613,1.456a20.91,20.91,0,0,0-.709,4.191.515.515,0,0,1-.393.539c-.868.1-.533.67-.485,1.123.019.171.165.352.132.5-.092.4-.219.942.022,1.14.3.244.773-.141,1.182-.2.5-.077,1.007-.29,1.488-.012.368.214.347-.107.4-.26.313-.894.644-1.784.891-2.7a1.326,1.326,0,0,0-.518-1.5c-.412-.327-.244-.958-.344-1.445-.105-.517-.061-1.055-.181-1.591-.246-1.1,1.267-2.2,2.643-1.977,1.675.266,2.259,1.58,1.625,3.192a7.685,7.685,0,0,1-1.284,2.07c-.355.438-.144,1.193-.06,1.784.037.259.284.226.521.192a1.482,1.482,0,0,1,.268-.021,2.82,2.82,0,0,1,1.294.288c.383.219.95.516.829.83a1.259,1.259,0,0,1-1.374.7,5.338,5.338,0,0,1-1.294-.268c-.775-.315-1.04-.015-1.21.72-.291,1.258-.926,1.377-1.938.362.066,1.292-1,1.1-1.713,1.356a1.348,1.348,0,0,1-.8.016c-.6-.186-.842.095-.923.621a.9.9,0,0,1-.945.887Zm6.215-10.5c.013.59,0,1.179,0,1.989a4.529,4.529,0,0,0,1.057-1.812c.125-.456-.119-.677-.524-.76a.8.8,0,0,0-.169-.02C8719.02-8737.489,8718.976-8737.218,8718.983-8736.888Zm-77.692,10.208a.431.431,0,0,1-.037.037Zm61.688-.363c-.2-.409-.766-.821-.235-1.384.4-.426.761-.705,1.188,0,.082.135.142.565.511.367-.121.4.273,1-.409,1.182a2.444,2.444,0,0,1-.592.115A.466.466,0,0,1,8702.979-8727.043ZM8614.981-8726.97Zm86.511-.028a.881.881,0,0,1-.968-.911c-.028-.294.285-.4.593-.385a.909.909,0,0,1,.908.919c.031.31-.175.386-.4.386A1.026,1.026,0,0,1,8701.492-8727Zm3.722-.573c-.171-.3-.479-.366-.734-.521-.015-.483,0-1.112.614-1.019a1.431,1.431,0,0,1,1.374,1.017.607.607,0,0,1-.312.669,1.744,1.744,0,0,1-.5.114A.475.475,0,0,1,8705.214-8727.571Zm-.757-.534.022.023-.022-.023c.007,0,.015.008.022.013v.011l-.036.02A.315.315,0,0,1,8704.457-8728.105Zm-92.223-1.026a4.857,4.857,0,0,0-.514-.05c-.254-.026-.49-.077-.418-.09l.057.014c.369.046-.1-.045-.4-.112.13.036.049.028-.03.019-.109-.012-.219-.023.217.082-.1-.018-.2-.032-.295-.056a2.006,2.006,0,0,1-.3-.081.857.857,0,0,1-.385-.2,1.282,1.282,0,0,1-.379-.557,1.635,1.635,0,0,1-.08-.767,3.362,3.362,0,0,1,.2-.71.33.33,0,0,0-.021.085c.256-.754.634-1.67.687-1.849l.04-.061c.209-.648.237-.725.523-1.484,0,.011-.029.1.018-.02.057-.187.114-.375.307-.9l0,.023.294-.818a1.594,1.594,0,0,0,.141-.35,1.026,1.026,0,0,0-.215-.033c-.107-.011-.229-.014-.351-.019-.246-.009-.493-.014-.679-.008-.242.01-.138.016-.031.021-.239,0-.571.007-.868-.021a2.369,2.369,0,0,1-.636-.136.863.863,0,0,1-.162-.076c-.027-.017-.034-.022-.033-.025s.034,0-.007-.025c-.232-.136-.212-.13-.22-.119s-.01,0-.051-.029a1.452,1.452,0,0,1-.229-.242c.054.066.166.177.126.131a1.522,1.522,0,0,1-.281-.44,3.251,3.251,0,0,1-.157-.488c.013.059.021.118.037.176a1.768,1.768,0,0,1-.075-.772,2.653,2.653,0,0,0,.049-.461l-.027.044c.079-.415.1-.5.12-.59a3.986,3.986,0,0,1,.164-.587v.011c.11-.355.21-.532.241-.716l-.05.118c.165-.431.187-.467.379-.894a3.131,3.131,0,0,1,.148-.314,12.861,12.861,0,0,1,.562-1.166c-.16.333-.068.185-.008.1a3.021,3.021,0,0,1,.285-.605c-.025-.06-.039-.135.193-.676-.028.088-.082.221-.05.171a1.205,1.205,0,0,0,.092-.226c.017-.025.009.006,0,.037s-.013.063.008.037a2.6,2.6,0,0,1,.095-.274,1.114,1.114,0,0,1,.16-.277.96.96,0,0,1,.288-.243.965.965,0,0,1,.454-.105c-.219.021-.027.022.043.049.03-.033.251.011.414.1s.278.216.2.094a.563.563,0,0,1,.173.226.627.627,0,0,1,.047.287,1.836,1.836,0,0,1-.132.51c-.112.313-.227.634-.335.935a4.94,4.94,0,0,1-.635,1.281c-.08.092-.247.381-.345.535l-.013-.039a4.386,4.386,0,0,0-.189.452,2.715,2.715,0,0,0-.135.545c.033-.263-.017-.166-.11.089-.013.149-.02.3-.025.448l-.064.077a3.922,3.922,0,0,1-.1.582,2.1,2.1,0,0,1-.052.471.153.153,0,0,0,.049.153.156.156,0,0,0,.055.026.186.186,0,0,0,.057.011.689.689,0,0,0,.323.106,1.088,1.088,0,0,1,.3.065l.235-.013c-.094-.034-.125-.068.048-.051h.041l.077.041c.18-.012.369-.023.5-.024-.059,0-.124-.009-.192-.018.081,0,.155.01.229.018h.068l-.042,0c.117.012.236.016.409.019.085.018.172.033.262.055.045.009.09.021.135.033l.069.018.035.008a.125.125,0,0,0,.112-.036.27.27,0,0,0,.037-.057c.017-.029.032-.065.049-.1a7.043,7.043,0,0,1,.476-.984,1.2,1.2,0,0,0-.122.271c.247-.539.541-1.055.656-1.414l-.048.008c.152-.407.266-.724.4-1.049l-.036-.035c.205-.466.5-1.516.689-1.781a7.389,7.389,0,0,1,.361-.95l.062-.054c.158-.348.239-.566.317-.779a3.312,3.312,0,0,1,.315-.538.7.7,0,0,1,.307-.221.738.738,0,0,1,.363-.03,1.469,1.469,0,0,1,.575.225,1,1,0,0,1,.4.492l-.006.011a.863.863,0,0,1,.047.442.947.947,0,0,1-.06.215l-.072.163c.052-.167-.043.125-.128.306-.074.2-.208.516-.313.746-.05.135-.1.27-.144.405.133-.46-.056.017-.1.032l-.056.271c-.023.045-.021.014-.017-.017s.012-.076-.027.03c-.037.183-.2.707-.216.882a1.034,1.034,0,0,0,.076-.161c0-.023,0-.021,0-.006l.008-.019-.009.021c0,.023-.009.062-.009.077-.112.328-.06.212-.041.2-.163.341-.2.558-.344.806.063-.1,0,.1-.085.3-.086.232-.194.478-.114.371-.162.256-.082.185-.2.342a5.868,5.868,0,0,0,.376-1.1l-.14.3c.018-.219.257-.68.3-.875a2.058,2.058,0,0,1-.143.4l.068-.065a7.93,7.93,0,0,0,.309-1.125c-.057.153-.031.044-.01-.065s.039-.2-.008-.1l-.066.236c-.015.03-.02.03-.02.013a21.154,21.154,0,0,1-.707,2.092c-.058.137-.116.273-.175.408.013.069-.2.593-.111.457a2.994,2.994,0,0,0-.258.51c-.1.263.181-.288.24-.389-.122.307-.115.311-.108.324-.158.228-.312.381-.215.115q-.1.211-.192.42c.048-.09,0,.027-.069.185l-.018.006.02-.046c-1.022,2.208-1.326,2.079-2.053,4.415a9.016,9.016,0,0,1-.857,2.607c-.222.325-.079.655.435.609.226-.02.453,0,.617,0a3.776,3.776,0,0,0,.824-.028l-.056,0c-.151.016-.269.021-.13,0-.079.009-.159.012-.238.017.042,0,.248-.014.46-.046a4.377,4.377,0,0,0,.5-.106c.268-.065.531-.149.793-.235-.009,0,0,0,.015-.009s.041-.018-.038.01c.194-.066.363-.125.108-.041.234-.078.471-.158.71-.229s.48-.137.718-.215l.723-.2a.788.788,0,0,0,.313-.173.451.451,0,0,0,.119-.323,2.135,2.135,0,0,0-.031-.367l-.052-.372c-.034-.247-.069-.493-.1-.739-.064-.492-.129-.981-.163-1.471-.013-.132-.015-.056-.016,0,0-.181-.01-.268-.017-.336a.821.821,0,0,1-.007-.1c0-.019,0-.04,0-.062s.009-.041.014-.065a1.317,1.317,0,0,1,.259-.487c.111-.119.081-.1.051-.083-.013.008-.026.016-.024.011a.634.634,0,0,1,.387-.176.888.888,0,0,1,.408.049.651.651,0,0,1,.316.272,1.052,1.052,0,0,1,.128.367,3.2,3.2,0,0,1,.031.356c0,.11.017.223.026.332.021.217.047.427.079.626.006.119,0,.115-.014.11s-.02-.01,0,.169c0-.241.04.037.08.313.034.234.067.469.074.392-.011.349.154,1.179.046,1.048.052.4.088.327.078.211a10.766,10.766,0,0,0,.217,1.213c0,.031.011.089.023.165l.023.126a1.478,1.478,0,0,1,.025.167,2.523,2.523,0,0,0,0,.34,2.158,2.158,0,0,1,.076.426.756.756,0,0,1-.111.472.649.649,0,0,1-.384.251,1.111,1.111,0,0,1-.532.018c.1.031.088.032.014.029a1.1,1.1,0,0,1-.391-.109.962.962,0,0,0,.256.146.914.914,0,0,1-.594-.429.96.96,0,0,1-.071-.135c-.01-.027-.012-.038-.01-.038-.019-.058-.011-.053-.008-.07a.476.476,0,0,0,0-.053c0-.029-.013-.084-.021-.137a.27.27,0,0,0-.069-.151.1.1,0,0,0-.082-.025.173.173,0,0,0-.064.021l-.114.051.061-.012-.268.092c-.1.032.073-.036.189-.089.057-.027.1-.045.084-.05a.86.86,0,0,0-.239.059,2.128,2.128,0,0,1-.556.226c.335-.109.282-.124.156-.095l-.468.153h.172c-.334.111-.68.222-1.032.311s-.707.166-1.064.246a9.522,9.522,0,0,1-2.114.262Zm5.6-.683a.225.225,0,0,0,.04.054c0-.007-.027-.045-.071-.161C8617.811-8729.887,8617.818-8729.851,8617.832-8729.814Zm-6.016-6.628c.048-.1.093-.2.129-.289a.318.318,0,0,0,.022-.218s0,0,0-.01v0A2.72,2.72,0,0,0,8611.816-8736.442Zm.66-2.04c.294.09.4-.127.5-.353.066-.248.118-.471.142-.6l-.175.444-.079.1c-.028.072-.053.141-.081.2a.325.325,0,0,1-.1.139.47.47,0,0,1-.309.045C8612.412-8738.5,8612.443-8738.493,8612.477-8738.482Zm2.54-.687a3.7,3.7,0,0,0,.229-.512C8615.17-8739.51,8615.093-8739.34,8615.017-8739.17Zm-5.065-.434a.087.087,0,0,1,.008.033c.008-.04.009-.052.007-.052S8609.957-8739.606,8609.951-8739.6Zm5.342-.184s0,0,0,0l.013-.035C8615.3-8739.808,8615.3-8739.8,8615.293-8739.787Zm-5.139-.937c.006-.126.019-.251.034-.378-.039.12-.074.242-.105.365a.109.109,0,0,1,.044-.013C8610.14-8740.749,8610.15-8740.743,8610.154-8740.724Zm4.26-1.438c-.093.149-.427.813-.453.858a.122.122,0,0,0,.076.134q.1-.239.2-.479l-.041-.084.068.018c.065-.163.129-.327.191-.49A.123.123,0,0,0,8614.414-8742.162Zm-4.521-1.895-.246.541.127-.2c.02-.04.039-.077.059-.116l.055-.136-.021.068c.044-.089.088-.178.13-.266-.006,0-.026.022-.068.095-.011.028-.024.064-.04.1.021-.068.034-.118.025-.118S8609.9-8744.073,8609.893-8744.057Zm5.079.419c.014-.041.028-.08.042-.121.033-.1.07-.2.105-.292-.023.032-.06.082-.067.06A3.591,3.591,0,0,0,8614.972-8743.638Zm1.895-.444c.008.052.019.1.117-.078a4.965,4.965,0,0,0,.288-.718c.016-.046.031-.093.048-.145a1.061,1.061,0,0,0,.053-.205.828.828,0,0,0-.145-.6c-.021-.024-.011-.019,0-.014s.017.007.02,0,0-.024-.031-.067a.8.8,0,0,0-.219-.2,1.242,1.242,0,0,0-.473-.169.545.545,0,0,0-.393.075.4.4,0,0,0-.115.124c.144-.146.345-.2.677-.065a.775.775,0,0,1,.537,1.058,1.342,1.342,0,0,0,.061-.13c-.056.155-.188.4-.222.535.055-.109.115-.214.175-.32a5.8,5.8,0,0,0-.407.874s.008-.008.012-.008S8616.863-8744.105,8616.866-8744.082Zm.162-.05,0,.013.065-.145S8617.074-8744.226,8617.028-8744.132Zm42.606,12.908c-.04,0-.013.021-.018.027-.182-.022-.321-.106-.467-.108-.037-.028.022-.038-.032-.058.033.037-.019.03-.067.024s-.076-.011-.07.006c-.043-.066-.194-.056-.146-.137-.065-.022-.066.023-.05.038a.422.422,0,0,0-.211-.026c-.037-.033-.357-.065-.411-.157.021.039.009.034-.019.032a.131.131,0,0,0-.044,0l.029.054-.1-.032c-.022,0-.027,0-.026-.009-.017-.007.011-.024-.031-.047-.068-.021-.078,0-.122.013l.008.009-.047-.009c-.035-.011.134-.009.026-.062,0,.012-.086.048-.108.009.058.02.059-.013.039-.031l-.079-.026.012.062c-.23-.071-.462-.181-.708-.256.013-.035-.173-.058-.138-.1l.009.007c.062.014-.007-.046-.059-.053.048.031-.105.021.018.067l-.1-.008c-.077.069-.254-.1-.407-.118a.024.024,0,0,0,.018,0,2.945,2.945,0,0,1-.318-.115l-.007-.021a.675.675,0,0,1-.261-.069s.019,0,0-.011a.451.451,0,0,1-.159-.034l0,0-.142-.046c.013-.038-.251-.059-.279-.114a1.543,1.543,0,0,1-.184-.041s0,0-.008-.009c-.062,0-.154-.062-.215-.08-.041-.009-.026,0-.013.017a1.512,1.512,0,0,0-.247-.07c-.058-.022-.014-.025-.026-.04-.037-.013-.043-.006-.046,0s0,.019-.063-.017c.014,0,.039.011.031,0-.043-.021-.094-.107-.14-.119l.022.023c-.088-.022-.147-.145-.181-.122l-.007.021a.719.719,0,0,0-.075-.084l-.019-.019c0,.011,0,.021,0,.031l-.029-.047c0-.011,0-.022,0-.033l-.013-.033h0c-.036-.065-.011-.107-.049-.139l0,.025a.391.391,0,0,1,.017-.187c0-.012,0-.058.017-.063-.034-.017.059-.193.087-.223-.029.064,0,.043.022.034a.1.1,0,0,1,.058-.108c-.029-.036-.069-.082.016-.176-.008.02-.025.044-.011.043s.028-.03.032-.041-.006.033.015.037c.027-.094.1-.1.2-.171-.026.033.008.026.027.037-.018-.064.16-.012.093-.071.222-.042.543-.086.618-.021.013.016.04.008.066,0a.156.156,0,0,1,.047-.009l-.007.031c.1-.047.076-.014.2-.06-.053.033-.035.052.009.087l.087-.055.007.052a.135.135,0,0,1,.1.011c.041-.051.161-.025.186-.051.011.038.036.038.06.037s.043,0,.05.032a.156.156,0,0,1,.047-.017c-.01-.033-.009-.068.02-.048h.008l0,.042a.387.387,0,0,1,.088,0,.178.178,0,0,1-.027-.027l.034.028a.023.023,0,0,1,.011,0h-.007a.07.07,0,0,0,.067.016.218.218,0,0,0,.165.035.217.217,0,0,1,.2.058c-.016-.014-.04-.025-.051-.011.1.021.182.112.255.1l.007-.04a.629.629,0,0,1,.2.031l.019-.044c.079.043.283.033.3.142.032-.027.111.052.162.058v.037a.3.3,0,0,0,.14.038c.1.113.237.089.342.133v.01l.115.018c-.019.008-.012.006,0,0a.084.084,0,0,1,.056,0,.191.191,0,0,1,.127.062l.068.027c-.083-.008-.009.046-.016.083l.053-.013c.013.024-.037.018-.006.036a.251.251,0,0,1,.063,0,.147.147,0,0,0,.1,0,.077.077,0,0,0-.021-.033s0,0,0,0l0,0,0,0a.1.1,0,0,0,.017-.011c.052.028.036.007.039-.008.044.07.086.055.117.117-.012-.031.023-.019.06,0s.077.025.065-.011c.033.065.03.014.049.065a.339.339,0,0,0-.2-.008l.044.047c-.029.028-.062,0-.092-.019s-.042-.034-.057-.03a.071.071,0,0,1,.066.034v-.048a.287.287,0,0,0-.2-.022c.045.032-.07.01-.045.055l.042.007a.009.009,0,0,1,0,.015c.145.046.29.089.437.127.02-.033.115-.024.1-.06.031.023.013.042.088.049.051-.009-.046-.057-.061-.076.057,0,.059-.009.063-.019.033.059.049.143,0,.15l.082.021c-.018-.01,0-.013.033-.008v.014h-.009c.082.019.164.035.248.052a7.253,7.253,0,0,0,.727.114c.446.034.665.261.629.625a1.27,1.27,0,0,1,0,.138c.007-.03.013-.056.015-.023v-.045c.008.015-.01.142-.007.168-.013.047-.021.095-.037.139,0,0,0,0,0,0s0,.009,0,0c-.01.034-.02.063,0,.021a.942.942,0,0,1-.292.432.719.719,0,0,1-.5.163c-.024,0-.012.011,0,.016-.064-.021-.063.01-.1.013A.467.467,0,0,1,8659.635-8731.224Zm-1.633-.371.013.014c.013-.007.024-.014-.007-.014Zm.843-1.439.088.021a.119.119,0,0,0-.07-.023A.051.051,0,0,0,8658.845-8733.034Zm-.022-.006h-.007Zm-.226-.211Zm-.523-.032c0-.035.063-.061.025-.122a.117.117,0,0,0-.142-.021.19.19,0,0,1-.155,0c-.019,0,.052-.04-.04-.055a.328.328,0,0,0-.2.049c.111.039.222.078.333.115a.057.057,0,0,1-.021-.02.124.124,0,0,0,.1.02l-.053-.041C8657.974-8733.348,8658-8733.29,8658.073-8733.283Zm.043-.172h0l-.023-.016Zm-.982-.131c.024.007.048.016.071.024a.057.057,0,0,1,0-.042h0A.169.169,0,0,0,8657.134-8733.586Zm-.332-.111.086.027a.038.038,0,0,0,0-.022.851.851,0,0,0-.126-.148.3.3,0,0,0-.053.112l.084.027.032-.062Zm-2.687-.081c-.015.034-.031.065-.042.1a.436.436,0,0,1,.047-.022l.008-.012.006-.031c0-.02,0-.035-.014-.035Zm.021.052c.01-.013.019-.027.029-.04-.006,0-.015-.007-.028,0l0,.021Zm2.019-.162.13.035a1.162,1.162,0,0,0,.135-.1l-.088.011-.013-.033A.32.32,0,0,0,8656.155-8733.889Zm-.827-.163.062.008a.213.213,0,0,1,.01-.071Zm.269-.047.009-.015h0C8655.591-8734.113,8655.6-8734.107,8655.6-8734.1Zm.01-.015Zm3.374,2.781a.042.042,0,0,1,0,.007Zm-39.853-2.463c0,.011,0,.019,0,.025C8619.127-8733.778,8619.127-8733.786,8619.128-8733.795Zm56.945-.959c-.392-.458-.608-1.226-.2-1.547,1.232-.961.238-2.257.518-3.35.138-.536-.6-.8-.938-.827a21.4,21.4,0,0,1-2.079-.662c-.094-.018-.2-.081-.279-.055a5.709,5.709,0,0,1-2.859-.076,5.332,5.332,0,0,0-3.146.021,17.165,17.165,0,0,0,.5,2.792c.115.721.119,1.349-.537,1.57-.726.244-1.1-.318-1.279-1.066-.241-1-.229-2.046-.545-3.044a1.351,1.351,0,0,1,.972-1.753,1.208,1.208,0,0,0,.833-1.728c-.562-1.414.135-2.745.139-4.118,0-.145.232-.358.395-.424a18.157,18.157,0,0,1,8.015-1.129c1,.057,1.311,1.056,1.463,1.944a26.109,26.109,0,0,1,.4,5.429,3.132,3.132,0,0,0,.354,1.629c.441.86.07,1.905.383,2.877a3.626,3.626,0,0,1-1.245,3.6.671.671,0,0,1-.4.156A.611.611,0,0,1,8676.073-8734.754Zm-.687-9.582c-.782.241-1.6.165-2.367.435a.5.5,0,0,0-.381.525c.015.3.284.215.436.253a17.958,17.958,0,0,1,1.928.438c.609.224.768.089.6-.507-.033-.452,0-1.146-.192-1.146A.087.087,0,0,0,8675.386-8744.336Zm-5.269,1.17c.381.167.693-.155.818-.624.484-1.809.485-1.809,2.14-1.816a5.7,5.7,0,0,0,.765-.006c.555-.074,1.222,0,1.626-.328.336-.275-.23-.954-.129-1.509s-.184-.641-.631-.791a3.234,3.234,0,0,0-1.58-.023,4.628,4.628,0,0,1-1.036.081,7.937,7.937,0,0,0-3.124.607.994.994,0,0,0-.659,1.39,18.448,18.448,0,0,1,.512,2.382c.126.655.48.629.83.6.068,0,.136-.011.2-.011A.668.668,0,0,1,8670.117-8743.166Zm17.512,8.545a20.5,20.5,0,0,0-5.271-.146c-.5.016-.99.037-1.137-.529s.329-.8.72-1.044c.656-.414,1.442-.067,2.076-.361a9.547,9.547,0,0,0,2.379.133c.448-.013.9-.025,1.341,0,.77.043,1.271.386,1.194,1.2a.808.808,0,0,1-.891.8A1.857,1.857,0,0,1,8687.629-8734.621Zm-58.591.044.013,0Zm-5.812-2.466c-.093-.007-.116-.012-.116-.016-.075-.009.021-.024-.171-.054a1.891,1.891,0,0,0-.338-.011,1.206,1.206,0,0,1-.174,0l.052.016a1.083,1.083,0,0,1-.244-.06c-.091-.039.078.026.183.028.054,0,.093,0,.086-.008s-.061-.018-.2-.064a.423.423,0,0,1-.2-.062.429.429,0,0,1-.212-.279c.061.157.135.207.149.21s-.007-.029-.036-.081a.693.693,0,0,1-.116-.4.869.869,0,0,0-.043.143,1.056,1.056,0,0,1-.01-.228,1.655,1.655,0,0,1,.024-.213.893.893,0,0,1,.071-.227.633.633,0,0,1,.159-.2,1.139,1.139,0,0,1,.406-.2l.391-.11a1.21,1.21,0,0,1,.218-.047.934.934,0,0,1,.229.019,3.4,3.4,0,0,0,.393.021c.271,0,.547,0,.82-.008a1.149,1.149,0,0,0,.37,0c.184-.008.349-.04.307,0l-.043,0c-.131.022-.111.031-.029.027a1.012,1.012,0,0,0,.324-.065c-.11.03-.016-.013.032-.051.024-.017.04-.03.019-.025a1.692,1.692,0,0,1-.206.061.777.777,0,0,0,.34-.189.382.382,0,0,1,.042-.094c.019-.035.031-.086.055-.134s.032-.117.045-.187.026-.146.028-.23a6.3,6.3,0,0,0-.009-1.052.235.235,0,0,0,.012.063,11.658,11.658,0,0,1,0-1.452l.019-.051c-.011-.5,0-.56.012-1.154,0,.008.007.076.011-.018,0-.074-.011-.147-.017-.248,0-.053-.006-.111-.009-.184a.53.53,0,0,0-.052-.223l.011.009c-.035-.073-.133-.059-.229-.024l-.3.106a4.257,4.257,0,0,0-.551.153,3.955,3.955,0,0,1-.7.149c-.12.039-.579.129-.783.168a.192.192,0,0,0-.05,0c-.237.063-.7.115-.963.17-.172.04-.1.033-.02.024a5.428,5.428,0,0,0-.612.138c-.2.059-.381.116-.443.13-.159.044-.151.034-.146.024s0-.01-.02-.008c-.179.06-.157.068-.155.075s-.015.01-.235.11c.048-.029.143-.074.105-.06a2.274,2.274,0,0,0-.323.154,1.115,1.115,0,0,1-.36.133.775.775,0,0,0,.133-.024.545.545,0,0,1-.3.033.657.657,0,0,1-.268-.118c-.148-.1-.226-.22-.263-.229l.009.039a1.331,1.331,0,0,1-.236-.39.551.551,0,0,1-.037-.135.629.629,0,0,1,.045-.332v.008a.693.693,0,0,1,.2-.28c.068-.062.129-.1.18-.153l-.087.048a2,2,0,0,1,.324-.166c.084-.038.171-.074.329-.142a1.671,1.671,0,0,1,.235-.1,1.735,1.735,0,0,1,.388-.174c.205-.075.429-.146.5-.168-.257.092-.13.065-.052.055a1.351,1.351,0,0,1,.47-.155c.02-.053.046-.122.479-.23-.065.021-.169.054-.124.053a.813.813,0,0,0,.178-.047c.046,0-.092.04-.04.046a4.322,4.322,0,0,1,.936-.185c-.135.034-.016.027.034.041.032-.065.589,0,.42-.067a6.9,6.9,0,0,0,1.379-.216,2.452,2.452,0,0,0,.558-.217,1.8,1.8,0,0,0,.182-.117c.044-.042.088-.069.114-.1a.356.356,0,0,0,.1-.16.544.544,0,0,0,.034-.115.724.724,0,0,0,.024-.107l.026.024a1.8,1.8,0,0,0,.007-.215c0-.053,0-.093-.006-.134a1.663,1.663,0,0,0-.069-.4c.063.184.07.105.074-.094l-.126-.31.038-.074a1.739,1.739,0,0,1-.062-.437c-.066-.129-.111-.633-.16-.705.05-.154-.089-.363-.059-.477-.011-.02-.024-.043-.036-.068s-.029-.066-.043-.1c-.006.085-.033.13-.06-.031l-.009-.036c.008-.025.02-.052.03-.077a.739.739,0,0,1,.058-.463.87.87,0,0,0-.082.171.678.678,0,0,1,.1-.2.371.371,0,0,1,.035-.056.186.186,0,0,1-.021.034,1.221,1.221,0,0,1,.271-.26,1.49,1.49,0,0,1,.433-.125.815.815,0,0,1,.509.084,1,1,0,0,1,.356.353,1.267,1.267,0,0,1,.17.4.541.541,0,0,0-.1-.212,4.362,4.362,0,0,1,.315,1.163l.039-.024a5.9,5.9,0,0,1,.1.84l.047.013a6.384,6.384,0,0,0,.067.735c.02.127.038.25.055.355s.024.174,0,.186c.022,0,.029.034.067.041a.138.138,0,0,0,.028,0,.258.258,0,0,0,.056-.013,1.839,1.839,0,0,0,.179-.058l.063.018c.271-.074.434-.137.592-.192.567-.088,1.064-.282,1.563-.364l.007.009c.165-.039.331-.072.5-.1-.128.049.1-.036.25-.044a2.688,2.688,0,0,1,.619-.037c.11,0,.211-.012.334-.011-.381.032.026.042.049.086a1.292,1.292,0,0,1,.23,0c.088.037-.153,0,.013.041a.7.7,0,0,1,.368.163,1.128,1.128,0,0,1,.238.331.462.462,0,0,0-.037-.159c-.013-.019-.012-.018,0-.007l-.008-.017.01.021c.015.018.031.048.043.06.055.153.055.2.063.208s.008-.024.015-.032a2.34,2.34,0,0,1-.014.435.541.541,0,0,1-.164.323c.034-.023.03-.012,0,.029a.63.63,0,0,1-.235.178c-.2.09-.4.113-.294.131a.8.8,0,0,0-.169.007.275.275,0,0,1-.126,0,1.911,1.911,0,0,0,.447-.119.71.71,0,0,0,.368-.31.544.544,0,0,1-.231.168c.03-.034.076-.071.123-.12a.63.63,0,0,0,.119-.182.679.679,0,0,0,.044-.358.672.672,0,0,1,.007.207.351.351,0,0,1-.04.132.473.473,0,0,0,.061-.057.95.95,0,0,0-.04-.513.673.673,0,0,0-.272-.347c.094.09.028.04-.044,0s-.163-.058-.092-.008a.566.566,0,0,1,.153.1c.016.026.01.027-.01.016a.76.76,0,0,1,.2.486c.048.525-.242.622-.705.717l-.263.06c-.051.051-.43.149-.311.156a1.276,1.276,0,0,0-.413.066c-.194.07.252-.011.338-.013-.232.068-.229.08-.234.094-.207-.007-.371-.058-.17-.13l-.322.079c.047,0-.035.023-.148.051l-.014-.013c-.888.215-1.773.443-2.662.656-.363.088-.391.338-.389.641.006,1.625,0,3.249,0,4.96l.022-.009c0-.012,0-.027,0-.052,0,0,0,0,0-.011s0-.026,0,.061l.091-.039.051-.011c-.035.012-.1.034-.142.052v.017c.189-.066.375-.126.561-.182-.135.032-.268.066-.129.017l-.183.063c.056-.032.575-.188.682-.226.2-.05.4-.094.6-.127-.021,0,.076-.031-.02-.013.147-.032.277-.055.081-.028a7.778,7.778,0,0,1,1.1-.105c.186-.007.371,0,.557.006a1.831,1.831,0,0,1,.56.106,1.216,1.216,0,0,1,.475.333.665.665,0,0,1,.156.267.486.486,0,0,1-.023.322,1.115,1.115,0,0,1-.144.259.617.617,0,0,1-.249.188,1.113,1.113,0,0,1-.284.066l-.267.035c-.095.018-.038.021,0,.024a1.029,1.029,0,0,0-.386.089l-.389.014c-.152.042-.029.038-.038.05-.717.139-1.429.21-2.006.344-.082,0-.087-.006-.085-.015s.014-.026-.126-.007c.329.007-.62.136-.513.155a2.516,2.516,0,0,0-.4.025c-.229.026-.434.054-.377-.014-.3.034-.24.075-.153.071-.343.045-.62.079-.9.143-.095,0-.489.051-.9.083a5.087,5.087,0,0,1-.991.017c.211.04-.016.026-.219.057l.186.036-.23.008h-.047A1.543,1.543,0,0,1,8623.226-8737.043Zm-.074-.024c.045,0,.09-.011-.069-.017Zm4.349-2.033v.017l.022-.008v-.017Zm-6-5.856c-.139.046-.275.1-.411.147.043-.01.105-.019.179-.029l.089-.028.093-.038-.046.025c.068-.021.138-.039.208-.058,0-.01-.019-.012-.088,0l-.074.031c.056-.031.093-.054.067-.054Zm9.571-.526a1.872,1.872,0,0,0,.372-.082Zm-3.386-.78c-.021-.021-.042-.06-.023-.065a.558.558,0,0,1-.155-.193C8627.555-8746.37,8627.611-8746.293,8627.686-8746.264Zm2.259-.691a2.874,2.874,0,0,0-.7.282,13.71,13.71,0,0,1,1.521-.318c-.062,0-.112.009-.143.008a2.729,2.729,0,0,0,.428-.074c-.09,0-.18.008-.27.014.216-.033.392-.008.711-.053-.058-.029.173-.091-.076-.118a1.573,1.573,0,0,0-.576.086,3.652,3.652,0,0,1-.657.162c-.025.009-.009,0,0-.014s0-.016-.024-.016A1.074,1.074,0,0,0,8629.944-8746.955Zm-3.94,0c-.007-.084-.016-.174-.029-.269-.025.021-.05.035-.07.014C8625.94-8747.126,8625.974-8747.04,8626-8746.954Zm5.42-.314.01,0C8631.309-8747.268,8631.243-8747.268,8631.424-8747.269Zm-4.122-1.171c.012.126.021.252.028.378l.071.042-.068.013c.007.129.013.257.021.387a.1.1,0,0,0,.019-.043c.027-.126.06-.676.057-.718a.115.115,0,0,0-.107-.06Zm-1.541.4a.1.1,0,0,1-.018-.023C8625.752-8748,8625.752-8748.033,8625.761-8748.039Zm.9-2.119a1.436,1.436,0,0,1,.379.278,1.48,1.48,0,0,0-.248-.291c-.017-.03-.035-.06-.056-.09a.567.567,0,0,0-.374-.1.64.64,0,0,0-.259.094c.008,0,.014,0,.021-.006a.851.851,0,0,1,.172-.02A.557.557,0,0,1,8626.661-8750.158Zm.792,12.7h0Zm57.081-.763a8.117,8.117,0,0,0-2.164-.029,11.687,11.687,0,0,1-1.49.05c-.918-.048-1.452-.314-1.311-1.339.113-.829-.306-1.606-.218-2.453.135-1.322.168-2.655.214-3.985a.881.881,0,0,1,.838-.963c-.2-.354-.61-.63-.41-1.135.288-.73,1.138-.218,1.549-.7a.658.658,0,0,1,.479-.136c.905.058.979-.405.813-1.14a4.759,4.759,0,0,1,.062-1.12c.008-.334.146-.537.487-.532.06,0,.122,0,.185-.008.24-.018.485-.036.626.268.1.216.22.425.324.64.173.362-.181.895.284,1.137a1.135,1.135,0,0,0,.929-.042,1.63,1.63,0,0,1,.678-.124c.427.041.324-.373.335-.615a17.58,17.58,0,0,1,.532-4.74c.061-.189.139-.376.188-.568.114-.457.377-.784.867-.676.473.1.382.574.417.931a4.519,4.519,0,0,1-.048.628c.55,1.279.006,2.773.026,4.269,0,.279-.093.5.4.618,2.009.476,2.37,1.129,2.232,3.223a22.816,22.816,0,0,0,.085,3.307c.11,1.415-.231,2.8-.232,4.2a.763.763,0,0,1-.961.811c-1.41-.451-2.717.171-4.047.331a3.8,3.8,0,0,1-.487.029A6.336,6.336,0,0,1,8684.534-8738.219Zm.365-3.189a2.356,2.356,0,0,1,.493,1.222c0,.188.038.347.275.317.095-.012.259-.054.266-.1a7.657,7.657,0,0,0-.165-1.663.077.077,0,0,0-.087-.079A7.331,7.331,0,0,0,8684.9-8741.408Zm-1.592,1.5c-.3-1.443-.7-1.789-1.665-1.652-.7.1-.443.67-.367.952.184.7.6.639,1.064.577a2.934,2.934,0,0,1,.4-.036A.956.956,0,0,1,8683.308-8739.905Zm4.513-1.084c-.194.442-.277.784.378.72.552-.054,1.184.057,1.164-.851-.013-.579-.056-1.007-.775-1.018h-.026C8687.677-8742.138,8687.861-8741.479,8687.82-8740.989Zm-6.927-5.887c.8,1.225.11,2.591.434,3.954.422-.395,1.385-.227,1.3-.787-.179-1.14.187-2.25-.021-3.437C8682.056-8746.795,8681.456-8747.014,8680.894-8746.876Zm3.646.105a10.741,10.741,0,0,1-.057,2.454c-.187.726-.189.944.744.663.049-.033.129-.007.224.02.193.054.445.106.6-.352a16.41,16.41,0,0,0,.373-3.592.4.4,0,0,0-.134-.335.487.487,0,0,0-.219-.045C8685.5-8747.957,8684.546-8747.268,8684.54-8746.771Zm4.08-1.379c-.474.016-.331.4-.3.61a4.935,4.935,0,0,1-.2,2.067c-.371,1.479-.066,1.787,1.417,1.575a4.563,4.563,0,0,1-.079-2.383,2.41,2.41,0,0,0-.107-1.482.541.541,0,0,0-.6-.392C8688.71-8748.153,8688.665-8748.151,8688.62-8748.149Zm20.179,9.25c-.494-.3-.349-.711-.246-1.106a47.157,47.157,0,0,0,1.421-6.481,12.2,12.2,0,0,1,.409-1.787,3.217,3.217,0,0,0,.121-1.827,1.37,1.37,0,0,1,.371-1.408c.336-.312.706.046.954.221.447.314.47.767.348,1.344a15.54,15.54,0,0,0-.143,2.5c-.007.165.142.146.229.208a7.71,7.71,0,0,0,4.744,1.416,7.551,7.551,0,0,1,1.748.318c.635.145.635.52.6.994-.039.609-.5.531-.865.492-1.895-.2-3.866.008-5.58-1.147-.358-.241-.916-.145-1.307-.627a18.455,18.455,0,0,1-1.026,4.32c-.118.339-.254.77-.04,1,.2.214.605,0,.923-.091a20.686,20.686,0,0,0,3.369-1.007c.548-.273.814.208,1,.515a.659.659,0,0,1-.4.945,10.751,10.751,0,0,1-3.812.993c-.077,0-.155,0-.232.006a1.007,1.007,0,0,1-.866-.233c-.343-.356-.358.114-.5.218a1.424,1.424,0,0,1-.778.356A.822.822,0,0,1,8708.8-8738.9Zm-92.6-3.036h0Zm0,0s0,0,0,0S8616.2-8741.937,8616.2-8741.939Zm32.417-1.157,0,0Zm5.037-.111,0,0Zm-3.406-.515Zm1.953-.4s0,0,0,0Zm-34.9-1.1,0,.012Zm30.018-4.256-.047.013Z" transform="translate(-8465.999 8867.001)" fill="#fcfeff" stroke="#fff" stroke-linejoin="round" stroke-miterlimit="10" stroke-width="0.6"/>
  </g>
</svg>
