<svg id="RWD_button_Button1-4_" data-name="RWD_button/Button1-4/" xmlns="http://www.w3.org/2000/svg" width="140" height="86" viewBox="0 0 140 86">
  <g id="组件_87_16" data-name="组件 87 – 16">
    <path id="路径_442" data-name="路径 442" d="M1541.625-37.533c-6.282.815-1.759-.511-.374-.613.5-.036,1.246-.214,2.161-.327a11.649,11.649,0,0,0,.64-3.444c0-.052,0-.1,0-.15-1.761.138-4.253.355-7.517.715-9.475,1.046-2.286-.347.751-.864a24.471,24.471,0,0,1,3.859-.339c.25-.05.518-.093.808-.124.055-.006.112-.009.17-.011l1.925-.045c0-.364-.015-.72-.038-1.063-.576,0-.927,0-.927,0s.022-.17.9-.373a15.36,15.36,0,0,0-.351-2.209c-3.665.3-8.77.708-9.941.975-.218.05,7.376.783,7.105.776-2.748-.077-21.376.708-15.031-.877a2.644,2.644,0,0,1,.445-.067c1.495-.107,9.629-.682,17.365-1.031-1.526-5.94-2.347-9.318-5.464-13.534-3.742.692-15.261,2.5-15.261,2.5s-7.3-.629-3.256-1.486a91.712,91.712,0,0,1,17.695-2.387,67.205,67.205,0,0,0-5.878-6.338l-11.05,1.328a3.414,3.414,0,0,1-.569-.009c3.226.326,12.031-1.358,11.62-1.32-.19-.4-1.064-.84-1.241-1.273-2.262.174-9.975.965-13.961,1.429-10.333,1.2-4.531-1.311-.2-1.43.033,0,.065,0,.1,0,.472.021,8.868-.031,14.057,0-1.323-1.829-1.489-3.022-2.718-4.232a3.685,3.685,0,0,1-.958.318c-5.182,1.268-24.677,1.2-17.368.482,2.987-.294,17.045-1.367,18.286-.967-.232-.989-2.1-3.1-2.992-3.831-26.954-22.17-96.679-15.923-100.086,19.306-2.37,24.515,32.434,33.566,62.28,35.582s51.143-2.118,56.508-15.226C1542.645-37.652,1542.154-37.6,1541.625-37.533Z" transform="translate(-1414.217 99.297)" fill="#dcdcc3"/>
    <path id="路径_443" data-name="路径 443" d="M1563.031-30.617c-7.645.929-1.1-.706.589-.822,1.035-1.9,2.328-4.371,2.329-4.43-1.7.125-.351-.508,0-.544.066-.006-4.337,0-4.267,0l4.267-.75c0-.415.608-3.089.409-3.871a31.576,31.576,0,0,0-7.127,1.274c-.265.056,6.051.558,5.721.55-3.344-.088-29.663,3.937-21.942,2.13.156-.036,11.006-2.667,11.2-2.68,1.819-.123,2.731-1.2,12.143-1.6-.933-6.559-3.635-10.187-6.5-15.629-4.552.788-9.41,1.461-9.41,1.461s1.578-1.381,9.41-1.461c-1.534-2.73-3.287-4.16-5.013-7.434l-11.832.613a4.577,4.577,0,0,1-.693-.011c-1.1-.1,6.978-.651,11.9-1.073-.231-.461-1.146-1.485-1.361-1.978-2.752.2-24.568,3.616-29.417,4.145-12.574,1.369,9.009-3.91,14.287-4.045.041,0,.08,0,.12,0,.574.023,8.7-.135,15.01-.1-1.413-1.336-4.258-3.786-4.981-4.266a7.155,7.155,0,0,1-1.131.252c-6.3,1.443-26.293,1.024-17.4.205,3.635-.335,17.019-.913,18.53-.457-4.408-2.433-13.252-11.78-39.3-12.74s-60.921,12.014-63.359,33.013S1458-24.02,1499.81-20.1,1558.227-23.276,1563.031-30.617Z" transform="translate(-1435.964 90.924)" fill="#ffffe2"/>
    <text id="十週年" transform="translate(35.438 48.181)" fill="#2a4c24" stroke="#2a4c24" stroke-miterlimit="10" stroke-width="1" font-size="28" font-family="meiyifont-Proportional, meiyifont Proportional"><tspan x="0" y="0">十週年</tspan></text>
    <rect id="矩形_379" data-name="矩形 379" width="140" height="86" fill="none"/>
  </g>
  <path id="路径_442-2" data-name="路径 442" d="M1555.828-30.061c-7.042.931-1.972-.584-.419-.7.556-.041,1.4-.245,2.423-.374a13.528,13.528,0,0,0,.718-3.931c0-.06,0-.112,0-.172-1.974.158-4.768.406-8.427.817-10.621,1.194-2.563-.4.842-.986a26.951,26.951,0,0,1,4.326-.387c.28-.057.581-.106.905-.141q.092-.01.191-.012l2.158-.051c0-.415-.017-.822-.043-1.213-.646,0-1.04,0-1.04,0s.025-.194,1.006-.426a17.836,17.836,0,0,0-.393-2.522c-4.108.338-9.83.808-11.143,1.113-.244.057,8.268.894,7.965.886-3.081-.088-23.962.809-16.849-1a2.915,2.915,0,0,1,.5-.076c1.676-.122,10.794-.778,19.465-1.177-1.71-6.781-2.631-10.638-6.125-15.45-4.195.79-17.107,2.849-17.107,2.849s-8.184-.718-3.65-1.7c5.379-1.161,12.619-2.644,19.835-2.725a76.176,76.176,0,0,0-6.589-7.235l-12.387,1.516a3.756,3.756,0,0,1-.638-.01c3.616.372,13.486-1.55,13.025-1.506-.213-.462-1.193-.959-1.391-1.453-2.536.2-11.182,1.1-15.649,1.631-11.583,1.373-5.08-1.5-.219-1.632.037,0,.073,0,.11,0,.529.024,9.941-.035,15.758,0-1.484-2.088-1.669-3.45-3.047-4.832a4.083,4.083,0,0,1-1.073.363c-5.808,1.448-27.663,1.372-19.469.55,3.349-.336,19.107-1.561,20.5-1.1-.26-1.129-2.357-3.538-3.354-4.374-30.214-25.309-108.375-18.178-112.194,22.04-2.657,27.986,36.357,38.319,69.814,40.62s57.33-2.417,63.344-17.382C1556.972-30.2,1556.421-30.14,1555.828-30.061Z" transform="translate(-1421.793 94.533)" fill="#3a5932"/>
  <path id="路径_443-2" data-name="路径 443" d="M1577.127-22.677c-8.557,1.067-1.227-.811.659-.944,1.159-2.183,2.606-5.022,2.607-5.089-1.906.143-.393-.583,0-.625.074-.007-4.855,0-4.777,0l4.777-.861c-.005-.477.68-3.55.458-4.448a34.539,34.539,0,0,0-7.977,1.464c-.3.065,6.773.641,6.4.632-3.743-.1-33.2,4.523-24.561,2.448.175-.041,12.32-3.065,12.541-3.079,2.036-.141,3.057-1.378,13.593-1.835-1.045-7.536-4.069-11.7-7.278-17.957-5.1.905-10.534,1.679-10.534,1.679s1.766-1.587,10.534-1.679c-1.718-3.136-3.68-4.779-5.611-8.541l-13.244.7a4.991,4.991,0,0,1-.776-.013c-1.235-.119,7.811-.748,13.316-1.233-.259-.529-1.283-1.706-1.524-2.273-3.08.228-27.5,4.154-32.929,4.762-14.075,1.573,10.085-4.492,15.992-4.648.046,0,.089,0,.135,0,.643.026,9.735-.156,16.8-.115-1.582-1.535-4.766-4.35-5.576-4.9a7.845,7.845,0,0,1-1.266.289c-7.058,1.658-29.432,1.177-19.476.236,4.069-.385,19.051-1.049,20.742-.525-4.935-2.8-14.834-13.534-43.992-14.638s-68.194,13.8-70.922,37.931,14.312,30.838,61.114,35.344S1571.749-14.242,1577.127-22.677Z" transform="translate(-1443.54 86.16)" fill="#2a4c24"/>
  <rect id="矩形_379-2" data-name="矩形 379" width="140" height="86" fill="none"/>
  <g id="组_753" data-name="组 753" transform="translate(-262.874 -83.357)">
    <path id="联合_18" data-name="联合 18" d="M95.458,34.61c-.143-.087-.113-.095-.1-.1s0-.009-.157-.141c.1.1.093.1.022.061a.805.805,0,0,1-.141-.116.563.563,0,0,1-.141-.24A.789.789,0,0,1,95,33.583c.027-.076.037-.115.019-.092.221-.345.476-1.284.516-1.094.15-.447.073-.386.027-.258a10.646,10.646,0,0,0,.355-1.39c.105-.276.516-2.376.715-2.882-.111.27-.012-.064.042-.373l-.113.271c.059-.235.115-.47.178-.7a.77.77,0,0,1,.049-.183c.034-.118.017.035.111-.264a6.709,6.709,0,0,0,.178-.773l-.029.071.1-.322c.03-.1,0,.033-.031.163-.04.183-.075.366.077-.078A2.674,2.674,0,0,1,97.367,25c-.131.389-.083.35-.024.211l.183-.545-.115.163q.393-1.172.859-2.369.231-.6.479-1.2l.25-.6a5.118,5.118,0,0,0,.228-.6,3.422,3.422,0,0,0,.192-.562c.088-.284.213-.541.206-.455l-.033.06c-.147.411.064-.113.253-.409-.1.154-.029,0,.014-.083.017-.037.026-.056,0-.037a.524.524,0,0,0-.059.075,2.028,2.028,0,0,0-.133.22c.023-.054.054-.105.081-.158s.07-.113.081-.136l.057-.086a.405.405,0,0,0,.051-.07c-.052.009-.1.015-.141.019l-.06,0h-.03s-.044,0-.066,0c-.207-.013-.457-.037-.728-.07-.542-.063-1.163-.158-1.681-.235a.493.493,0,0,0,.1.007,11.91,11.91,0,0,1-1.394-.286c-.419-.112-.746-.218-.851-.247l-.073-.041a2.115,2.115,0,0,1-.822-.313.464.464,0,0,1-.125-.418,1.9,1.9,0,0,1,.2-.558c0,.012-.052.114.023-.021a.9.9,0,0,1,.253-.325.974.974,0,0,1,.714-.169l-.027,0a8.722,8.722,0,0,1,1.008.155,6.773,6.773,0,0,0,.883.192c.465.087.971.126,1.122.152l.235,0,.118,0c.058.012.012-.035,0-.064l-.084-.143-.089-.163c-.059-.1-.106-.2-.144-.276a.5.5,0,0,0-.03-.072,7.975,7.975,0,0,1-.548-1.463c-.081-.271-.056-.151-.03-.03-.07-.271-.165-.645-.234-.981s-.118-.63-.126-.732c-.03-.263-.02-.251-.01-.239s.012.012.012-.028c-.032-.3-.041-.275-.05-.275s-.008-.006-.015-.062a2.51,2.51,0,0,1-.023-.379.772.772,0,0,0,.019.21,1.312,1.312,0,0,1,0-.285.63.63,0,0,1,.134-.32,1.051,1.051,0,0,1,.535-.288,1.021,1.021,0,0,0-.205.056.725.725,0,0,1,.465-.069.521.521,0,0,1,.215.118.833.833,0,0,1,.138.179,2.748,2.748,0,0,1,.15.327.553.553,0,0,0,.086.16l0-.057c.376.9.181.373.556,1.289l-.008-.01a7.054,7.054,0,0,0,.356.8l-.053-.138c.212.492.228.537.436,1.041.028.057.135.3.155.372.043.009.5,1.162.59,1.387-.17-.4-.107-.2-.075-.082a1.562,1.562,0,0,0,.178.279.638.638,0,0,0,.306.2.31.31,0,0,1,.152-.056c.047-.01.11-.02.2-.044.041-.013.1-.027.173-.044s.149-.034.237-.047c-.109.023-.28.065-.208.061s.237-.042.292-.055c.072,0-.154.044-.073.05a6.5,6.5,0,0,1,1.509-.1c-.216.017-.03.028.047.048a1.326,1.326,0,0,1,.413-.011c.208.01.39.019.254-.024a5.164,5.164,0,0,0,1.068-.1,1.515,1.515,0,0,1,.634,0,1.212,1.212,0,0,1,.562.293c.656.624.244,1.6-.122,1.6-.076.02-.218.055-.35.08s-.282.064-.4.084l.025-.037c-.628.169-.49.112-1.235.3.306-.094.172-.087-.148-.067q-.253.078-.512.147l-.109-.038a3.684,3.684,0,0,1-.692.067,2.5,2.5,0,0,1-.556.064l-.2,0H102.1a.786.786,0,0,0-.083,0c-.053,0-.087.027-.088.048-.031,0-.051.033-.062.068a2.059,2.059,0,0,0-.042.208.884.884,0,0,1-.127.373c-.015.079-.041.178-.073.284.07-.1.12-.123.028.074l-.017.048-.075.07c-.072.205-.149.408-.2.541.028-.059.06-.124.1-.193-.04.082-.077.158-.113.23l-.026.07a.335.335,0,0,1,.014-.043l-.04.089-.032.083a.379.379,0,0,0-.023.1.8.8,0,0,0-.059.161l-.009.042,0,.02s0,.009,0,.008l.009-.006c.023-.017.047-.038.073-.054a.654.654,0,0,1,.1-.055.386.386,0,0,1,.048-.019l.023-.007.012,0,.035,0a1.158,1.158,0,0,1,.548.1,3.1,3.1,0,0,1,.426.227l.186.114c.065.041.129.083.19.127a1.429,1.429,0,0,0-.306-.165c.143.077.306.17.452.256s.289.182.418.278c.263.185.492.361.676.492l0-.054a4.908,4.908,0,0,1,.987.946l.054-.012a6.106,6.106,0,0,1,.664,1.1,2.807,2.807,0,0,1,.281,1.057,2.232,2.232,0,0,1,.1.525c.008.12.017.246.024.365s.01.224.017.31l-.033.089c0,.448.012.724.017.992-.1.9-.1,1.741-.175,2.524l-.011.006-.051.794c-.012-.21.007.158-.024.394,0,.126-.017.291-.034.461-.008.081-.022.177-.038.273a1.617,1.617,0,0,1-.075.264,1.574,1.574,0,0,1-.271.524c.218-.372.129-.246.022-.12-.057.067-.118.133-.142.127a1.539,1.539,0,0,1-.247.262c-.057.029-.031,0,0-.025s.075-.068-.047.011a1.81,1.81,0,0,1-.508.266c-.212.078-.425.124-.534.156a1.024,1.024,0,0,0,.225-.009c.027-.008.025-.007.008,0l.023,0-.028.005-.091.032c-.223.031-.291.027-.3.034s.032.012.041.02c-.254-.013-.44-.04-.614-.064-.086-.015-.168-.033-.249-.053-.062-.019-.125-.04-.188-.066.116.055-.125,0-.377-.08-.283-.089-.572-.235-.446-.137-.152-.1-.2-.131-.245-.153a.555.555,0,0,1-.154-.113,3.309,3.309,0,0,0,1.313.449c-.125-.037-.246-.085-.366-.132a4.147,4.147,0,0,1,.544.116,2.014,2.014,0,0,0,.538.072,1.571,1.571,0,0,1-.507-.06l.089.062a2.361,2.361,0,0,0,.766.016,2.466,2.466,0,0,0,.616-.187c-.181.05-.073.011.039-.045s.228-.132.1-.089a2.1,2.1,0,0,1-.267.11c-.039.006-.04,0-.023-.009a3.013,3.013,0,0,1-.317.079,3.866,3.866,0,0,1-2.626-.655.891.891,0,0,1-.27-.161c-.141-.112-.249-.251-.2-.147a1.139,1.139,0,0,1-.112-.221,4.077,4.077,0,0,1-.173-.41c-.052-.163-.047-.059,0,.1a2.716,2.716,0,0,0,.172.427c-.109-.169-.156-.262-.183-.309s-.033-.048-.042-.052a.732.732,0,0,1,.008-.406c.03-.057.05-.027.091.124a.875.875,0,0,1,.042-.521c-.02.041-.023.045-.017.017a.714.714,0,0,1,.121-.228l.022,0-.019.029a1.09,1.09,0,0,1,.115-.135c.421-.416.907-.143,1.338.04.212.09.36.32.559.451.464.305.772.229.728-.387-.088-1.281.4-2.491.3-3.812-.13-1.672-.911-3.489-2.42-4.127a1.819,1.819,0,0,1-.932-.734l-.008.031.044.068s0,.006.009.013.019.037-.054-.077l-.041.155-.03.076.07-.233-.012-.018-.279.892c.072-.2.141-.4.079-.18l.086-.294c-.02.1-.278.921-.316,1.094l-.294.921c.006-.01,0,.006,0,.021s-.006.051.023-.041c-.068.229-.126.43-.028.132-.352,1.1-.7,2.22-1.034,3.338l-.5,1.671c-.081.276-.175.554-.25.824a8.131,8.131,0,0,0-.166.83c-.017.152.008.066.025.01a2.513,2.513,0,0,0-.054.629c-.046.2-.093.4-.154.6-.025.17-.006.138.011.106.008-.015.017-.03.019-.024a3.727,3.727,0,0,1-.274.847,3.126,3.126,0,0,1-.218.387,2.064,2.064,0,0,1-.287.335,1.609,1.609,0,0,1-.749.41,1.2,1.2,0,0,1-.274.031A1.29,1.29,0,0,1,95.458,34.61Zm5.727-2.277c.01.011.021.02.031.031l-.027-.03h0Zm-.16-.21a.782.782,0,0,0,.081.107.928.928,0,0,1-.055-.076,2.041,2.041,0,0,1-.222-.491A1.4,1.4,0,0,0,101.025,32.123Zm4.627-.17c.019.058.043.117.1-.131.139-.965-.018-.805.1-1.975,0-.035,0-.022.01-.008s.039.057.064-.367a6.635,6.635,0,0,0-.036-1.179c-.041.8-.118,1.6-.192,2.4.01-.072.02-.13.028-.168a5.063,5.063,0,0,0-.049.686l.062-.422c-.031.344-.1.611-.13,1.122,0-.009.009-.013.013-.013S105.643,31.928,105.652,31.953Zm.155-.114v.013l.025-.185S105.826,31.717,105.807,31.84Zm-9.022-4.9c-.007.072-.015.144.039-.108Zm9.052-1.238c0-.046.011-.105.028-.088a2.151,2.151,0,0,0-.123-.407C105.781,25.37,105.813,25.535,105.838,25.706Zm-1.65-3.092a5.617,5.617,0,0,1,.426.427c.035,0,.07,0,.1.006l-.047.058a5.2,5.2,0,0,1,.373.488.159.159,0,0,0-.019-.064c-.022-.046-.065-.129-.122-.226s-.136-.2-.209-.306l-.216-.27-.12-.132a.177.177,0,0,0-.081-.022A.115.115,0,0,0,104.188,22.614Zm-3.561-.435.012.017.009-.029-.011-.017Zm.257-.878a.89.89,0,0,1,.787-.244,1.024,1.024,0,0,1,.1.007,3.888,3.888,0,0,1,.588.162,3.145,3.145,0,0,0-.53-.231.957.957,0,0,0-.142-.07.674.674,0,0,0-.585.182,1.891,1.891,0,0,0-.154.129l-.041.035s0-.013-.006-.02,0-.017,0-.025C100.895,21.251,100.887,21.275,100.884,21.3Zm2.045-2.679c.105-.007.045-.008.038-.017A.127.127,0,0,1,102.929,18.622Zm1.348-.267c.03.026.052.05.019.074l.405-.146Zm-3.07-1.77a.823.823,0,0,0-.122-.058.486.486,0,0,1-.113-.05c.1.047.171.048.1.015a.606.606,0,0,1-.247-.2,1.626,1.626,0,0,1-.154-.3c.021.058.039.142.076.236a.823.823,0,0,0,.1.157.669.669,0,0,0,.12.1.6.6,0,0,1-.062-.036A.629.629,0,0,0,101.206,16.585Zm-87.661,16.8c-.071-.009-.09-.015-.089-.019-.057-.015.019-.022-.122-.072-.113-.037-.174-.054-.223-.068a.916.916,0,0,1-.154-.045l.03.027a1.046,1.046,0,0,1-.148-.1c-.051-.044.045.028.119.051s.109.035-.049-.085a.336.336,0,0,1-.131-.063.387.387,0,0,1-.146-.172c.062.091.1.122.114.122s0-.024-.015-.06a.885.885,0,0,1-.141-.252.687.687,0,0,0-.014.114,1.164,1.164,0,0,1-.1-.625,1.152,1.152,0,0,1,.207-.6.883.883,0,0,1,.554-.345,1.419,1.419,0,0,1,.627.043c-.015.038.528.156.45.188l-.028-.012c-.186-.043.043.058.2.085-.155-.053.3.011-.088-.086.1.017.2.029.3.043a1.565,1.565,0,0,1,.521.048,2.8,2.8,0,0,0,.735.035.1.1,0,0,0-.044.012c.2-.02.427-.046.613-.082a1.97,1.97,0,0,0,.374-.1l.039,0a1.637,1.637,0,0,1,.369-.133,1.814,1.814,0,0,1,.445-.026c-.006,0-.056.006.012.011a2.4,2.4,0,0,1,.495.015l-.012,0a1.125,1.125,0,0,0,.427-.025c0,.01.049,0,.1-.035a.342.342,0,0,0,.131-.212c.046-.194.022-.424.045-.492-.013-.088-.025-.418-.04-.564a.1.1,0,0,0,0-.035c-.03-.172-.024-.5-.043-.69-.017-.124-.02-.069-.023-.015,0-.248-.093-.677-.1-.767-.014-.116-.006-.111,0-.107s.01.005.012-.013c-.019-.123-.029-.122-.037-.12s-.016,0-.031-.19c.008.042.02.118.019.088-.015-.137.014-.39-.019-.525l0,.092A4.75,4.75,0,0,0,18.61,27l-.016.026c-.046-.432-.039-.18-.092-.617l0,0a1.263,1.263,0,0,0-.084-.381l.008.066c-.045-.234-.049-.255-.095-.493a.861.861,0,0,1-.037-.176,3.745,3.745,0,0,1-.151-.654c.046.187.043.094.047.038a.714.714,0,0,1-.083-.338c-.054-.012-.114-.032-.185-.333.018.045.039.117.043.085a.348.348,0,0,0-.033-.124c0-.016.01,0,.019.014s.02.031.026.012a5.151,5.151,0,0,1-.169-.637c.041.087.031.006.041-.031-.066-.006-.054-.41-.105-.278-.113-.576-.482-1.417-.495-1.659.006-.067-.088-.212-.121-.311l.036,0c-.142-.262-.091-.209-.24-.526.076.129.077.065.072-.081l-.124-.214.043-.056a.948.948,0,0,1-.062-.3.261.261,0,0,1-.039-.075c-.015-.044-.032-.095-.05-.146a.44.44,0,0,0-.12-.188c.019-.117-.159-.193-.152-.292a.812.812,0,0,1-.1-.078c.008.059-.008.1-.057.015l-.015-.016.006-.06a1.749,1.749,0,0,1-.183-.2c.016.028.031.062.047.1-.022-.038-.041-.076-.059-.113l-.022-.03.015.017A1.007,1.007,0,0,0,16,18.777c-.068-.184-.136-.366-.21-.565a.955.955,0,0,1-.056-.347.591.591,0,0,1,.141-.363.341.341,0,0,0-.081.2.677.677,0,0,1,.147-.274.927.927,0,0,1,.208-.174,1.558,1.558,0,0,1,.41-.176l-.025-.039a1.031,1.031,0,0,1,.722.093l.033-.039a3.271,3.271,0,0,1,.518.344.867.867,0,0,1,.31.422c.08.034.213.344.291.483l-.015.053c.078.192.137.3.191.411a2.665,2.665,0,0,0,.178.555,4.736,4.736,0,0,1,.207.512l-.009.006c.044.112.089.225.128.339-.056-.082.041.062.061.169a1.525,1.525,0,0,1,.094.423l.052.22c-.083-.238-.044.03-.078.053l.065.132c0,.028-.012.013-.022,0s-.022-.035-.012.023a3.492,3.492,0,0,0,.173.439.293.293,0,0,0,0-.094c-.006-.011,0-.011,0,0v0a.282.282,0,0,0,.024.034c.037.175.035.107.05.1,0,.2.055.294.047.442.01-.054.044.055.079.164s.074.227.086.156c0,.159.03.1.022.2a3.776,3.776,0,0,0-.245-.536c0,.057.011.114.019.17-.1-.083-.091-.367-.138-.457a.561.561,0,0,1,.051.217l.033-.055a2.634,2.634,0,0,0-.2-.568c.012.084-.009.031-.035-.021s-.048-.1-.051-.037l.039.122c0,.018-.006.02-.012.013a9.629,9.629,0,0,0,.434,1.308c.049.016.182.27.176.182a.856.856,0,0,0,.1.286c.078.131-.027-.188-.041-.247.086.153.1.154.109.153.01.16-.037.282-.106.154.028.074.052.149.074.226-.007-.048.019.012.042.1l-.012.01a.239.239,0,0,1-.014-.043c.117.447.15.928.225,1.375a17.558,17.558,0,0,1,.606,4.644c0,.162,0,.3,0,.425.006-.094.012-.18.014-.08v-.137c.006.045-.007.429,0,.507,0,.143,0,.287.006.43,0-.006,0,0,0,.008s.006.022,0-.021c.008.106.014.2.009.06a3.3,3.3,0,0,1-.023.78,1.5,1.5,0,0,1-.309.722,1.683,1.683,0,0,1-.638.463,3.19,3.19,0,0,1-.745.22c-.068.017-.027.017,0,.017a.909.909,0,0,0-.276.071c-.093.006-.185.006-.278.006-.109.028-.021.028-.028.037-.514.09-1.023.086-1.441.146-.134-.011.03-.046-.147-.043.231.043-.446.055-.374.086-.184-.048-.618.014-.545-.084-.211,0-.173.047-.112.054a3.79,3.79,0,0,0-.643.042,3.952,3.952,0,0,0-.422,0,3.628,3.628,0,0,1-.918-.043c.1.041.058.039-.03.038-.039,0-.086,0-.133,0,.043.021.086.038.131.057A2.74,2.74,0,0,1,13.545,33.381Zm-.056-.027c.035,0,.071-.008-.051-.021Zm4.659-8.815.082.3c0-.03,0-.074,0-.125,0-.021-.009-.043-.013-.065l-.026-.072.018.033-.03-.15c-.008,0-.012.019-.009.063l.021.054c-.019-.031-.033-.054-.041-.054S18.148,24.526,18.148,24.539Zm1.62-1.4a2.062,2.062,0,0,1,.086.2.8.8,0,0,0-.12-.27Zm-.06-.128h0l-.013-.023Zm-2.575-2.215c-.016-.059-.032-.117-.047-.177-.025.017-.05.031-.072.021C17.054,20.69,17.094,20.741,17.133,20.793Zm1.918-.067c.032.016.067.033.069-.08-.062-.438-.176-.325-.326-.83-.009-.013,0-.01,0-.008s.054.013-.025-.168a1.672,1.672,0,0,0-.295-.446c.043.111.084.223.128.333.088.225.164.455.234.686a.666.666,0,0,1-.013-.084,1.1,1.1,0,0,0,.1.291l-.03-.189a4.881,4.881,0,0,0,.107.493.014.014,0,0,1,.014-.01A.074.074,0,0,1,19.051,20.727Zm.125-.089,0,.006c-.009-.048-.013-.084-.014-.084S19.169,20.582,19.176,20.637Zm-2.3-.584a.053.053,0,0,1-.017-.014C16.865,20.086,16.865,20.058,16.873,20.053Zm-.989-1.984c-.007.023-.014.048-.02.072a.937.937,0,0,0,.242.371c-.007-.019-.015-.038-.021-.058a3.349,3.349,0,0,1-.09-.338,1.064,1.064,0,0,1-.146-.332A.87.87,0,0,0,15.884,18.069Zm2.111.08c0-.023,0-.054.015-.054a.632.632,0,0,0-.143-.128C17.913,18.025,17.955,18.086,17.995,18.148Zm-.957-.833a1.567,1.567,0,0,1,.245.122.061.061,0,0,0-.014-.034.893.893,0,0,0-.229-.183.975.975,0,0,0-.237-.1.131.131,0,0,0-.063.126A.9.9,0,0,1,17,17.3c.019-.02.037-.04.057-.058ZM63.691,33.229a.8.8,0,0,1-.286-.525,2.014,2.014,0,0,1,0-.535c.016-.163.027-.325.037-.486.036-.643.035-1.259.036-1.821.019-.167.03-.159.039-.151s.022.018.039-.233c-.05.318-.046-.026-.017-.4.027-.351.09-.725.051-.608a9.1,9.1,0,0,1,.286-.942c.134-.323.26-.546.262-.433.242-.508.154-.44.079-.3a4.1,4.1,0,0,0,.3-.825,2.82,2.82,0,0,0,.038-.788c.01-.09.02-.324.051-.632s.08-.687.143-1.07c.132-.766.287-1.549.366-1.83-.115.382-.017-.035.008-.412l-.094.331c.043-.28.083-.561.107-.842.007-.086.011-.141.013-.175s0-.045.007-.044c.008-.14.029.029.052-.321a.492.492,0,0,0-.072-.267.512.512,0,0,0-.12-.133c-.083-.067-.157-.1-.3-.2l.07.065a1.263,1.263,0,0,1-.322-.327c-.039-.065-.023-.043.021.018a1.025,1.025,0,0,0,.225.218c.078.056.135.089.129.074a.451.451,0,0,0-.067-.066,1.487,1.487,0,0,1-.2-.206.528.528,0,0,1-.077-.084,2.053,2.053,0,0,1-.136-.194,1.062,1.062,0,0,1-.178-.536,1,1,0,0,0,.073.3.46.46,0,0,0,.054.1c.018.019,0-.045-.025-.138a.982.982,0,0,1-.059-.379.622.622,0,0,1,.154-.375.628.628,0,0,0-.186.222.72.72,0,0,1,.279-.385,1.49,1.49,0,0,1,.378-.188,1.521,1.521,0,0,0,.155-.064.358.358,0,0,0,.1-.067.109.109,0,0,0,.034-.079.178.178,0,0,0-.006-.047c0-.021-.012-.046-.02-.072A2.011,2.011,0,0,1,65,17a.605.605,0,0,1,.1-.48.344.344,0,0,0,.068-.155c-.432.709-.87,1.426-1.3,2.162a4.68,4.68,0,0,0-.351.549c-.192.315-.387.632-.362.53l.047-.066c.26-.442-.115.105-.329.463.1-.152.054-.054.006.045-.067.135-.134.271.195-.249l-.414.71a8.7,8.7,0,0,1-.735,1.216L60.808,23.4a.653.653,0,0,0,.06-.106c-.3.466-.646.976-.915,1.411s-.464.79-.52.906l-.062.079a3.667,3.667,0,0,1-.554.872,2.017,2.017,0,0,1-.368.321,1.816,1.816,0,0,1-.619.265c.034-.009.072-.02-.064,0a.756.756,0,0,1-.485-.072,1.133,1.133,0,0,1-.294-.221.752.752,0,0,1-.222-.472l.008.034a.731.731,0,0,1,.207-.589q.193-.23.371-.471a6.012,6.012,0,0,0,.607-.883c.294-.479.592-1.01.7-1.154.107-.21.558-.971.779-1.3a.648.648,0,0,0,.056-.073c.245-.394.756-1.1,1.029-1.535.175-.285.091-.167.006-.049.376-.544.945-1.56,1.074-1.764.162-.267.161-.25.161-.233s0,.019.027-.019a7.439,7.439,0,0,1,.408-.74,2.183,2.183,0,0,0-.115.21c.191-.316.584-.851.757-1.175l-.131.205c.328-.586.809-1.371.824-1.486l-.047.046c.284-.506.343-.615.4-.726s.112-.227.429-.725l0,.015c.266-.441.455-.649.573-.876l-.109.141c.1-.132.162-.229.212-.314a1.555,1.555,0,0,0,.107-.244,1.857,1.857,0,0,0,.091-.641c0-.074-.032-.38-.035-.47a5.887,5.887,0,0,1-.125-.792c-.012-.1-.017-.211-.02-.313v-.145a.132.132,0,0,0-.02-.076.153.153,0,0,0-.131-.054.7.7,0,0,0-.138.014.551.551,0,0,1,.206-.013c.029.006.038.01.035,0a.194.194,0,0,0-.134-.043c-.131.027-.263.073-.4.1s-.294.055-.5.084c-.049.062-.12.131-.929.3.123-.034.319-.078.237-.072a2.609,2.609,0,0,0-.333.072c-.083.006.176-.055.081-.055-.54.16-.939.195-1.739.371.184-.047.125-.043.036-.039-.035,0-.073,0-.1,0a1.138,1.138,0,0,1-.567,0c-.234-.041-.41-.081-.265-.015a2.428,2.428,0,0,0-.947-.045.454.454,0,0,1-.363-.091.8.8,0,0,1-.216-.254.905.905,0,0,1-.1-.308.887.887,0,0,1,.007-.324.649.649,0,0,1,.154-.3.862.862,0,0,1,.253-.187,3.071,3.071,0,0,1,.5-.207,4.562,4.562,0,0,1,.889-.171c.247-.03.443-.052.567-.059a8.623,8.623,0,0,0,.868-.159l-.031.039c.751-.188.587-.123,1.473-.335-.365.1-.206.093.172.063l.606-.168.128.034c.244-.065.558-.055.674-.221A.7.7,0,0,0,65,8.045a1.607,1.607,0,0,0,0-.187c0-.075,0-.154,0-.233,0-.318,0-.64-.012-.727.082-.276,0-.747.081-.949-.007-.092-.012-.211-.015-.34-.038.133-.076.181-.052-.07v-.06l.047-.107c0-.257,0-.518.007-.69-.007.078-.018.167-.031.26.011-.109.021-.211.031-.309l0-.092c0,.016,0,.035,0,.056a4.07,4.07,0,0,0,.019-.542,12.606,12.606,0,0,0,.036-1.449,2.978,2.978,0,0,0-.145-.689,1.724,1.724,0,0,1-.057-.839,1.045,1.045,0,0,0,.01.477,1.587,1.587,0,0,1-.02-.353,1.356,1.356,0,0,1,.025-.18l.018-.08a.157.157,0,0,0,.006-.037,2.091,2.091,0,0,0-.02-.268.932.932,0,0,1,0-.207.5.5,0,0,1,.068-.2.508.508,0,0,1,.331-.207,1.409,1.409,0,0,1,.167-.023c.046,0,.089-.005.134,0a1.162,1.162,0,0,1,.522.09c-.009-.02-.017-.043-.027-.062a.8.8,0,0,1,.257.177,1.049,1.049,0,0,1,.16.221,1.934,1.934,0,0,1,.163.414,6.733,6.733,0,0,1,.18.736l.054.018c.063.361.152.926.2,1.457a6,6,0,0,1,.019,1.242,4.1,4.1,0,0,1,.038.6c0,.273.018.569.027.786l-.035.106c-.017.538-.012.85.006,1.162a3.463,3.463,0,0,0-.007.381,1.121,1.121,0,0,0,.046.313.135.135,0,0,0,.127.093.627.627,0,0,0,.134-.011,1.28,1.28,0,0,0,.163-.035c.224-.061.451-.146.675-.229a6.9,6.9,0,0,1,.692-.221l.012.008c.308-.091.619-.168.928-.241-.238.082.179-.06.459-.108.073-.019.157-.039.248-.06s.181-.04.3-.061a1.482,1.482,0,0,1,.693.046,1.011,1.011,0,0,1,.6.46.809.809,0,0,0-.241-.254c-.031-.015-.006.01.035.06a.729.729,0,0,1,.175.328,1.279,1.279,0,0,1,.146.417c-.009.1-.013.018-.027-.033s-.018-.086-.012.079a.635.635,0,0,1-.054.328A.787.787,0,0,1,72,8.541a3.79,3.79,0,0,1-.609.274,1.353,1.353,0,0,0,.252-.047c.033-.014.031-.012.01,0l.027-.007-.033.01c-.032.016-.081.036-.1.048-.475.12-.295.085-.275.1-.516.076-.8.183-1.184.227.17-.013-.153.069-.47.151s-.616.16-.446.151c-.408.047-.27.067-.534.085.558-.129,1.095-.323,1.533-.464l-.445.081a12.472,12.472,0,0,1,1.242-.324,3.777,3.777,0,0,1-.58.14l.124.018c.315-.072.594-.15.849-.228a1.9,1.9,0,0,0,.693-.338c-.1.068-.121.072-.1.056a1.206,1.206,0,0,0,.133-.119c.111-.119.152-.287.067-.148a.716.716,0,0,1-.248.238c-.046.018-.049.015-.031,0a2.351,2.351,0,0,1-.5.188c-.635.175-1.271.351-1.908.522l-.12.057L69.27,9.2q-.49.131-.983.257c-.179.082-.749.25-.551.229-.144.029-.191.031-.275.046-.042.009-.093.017-.167.038a.4.4,0,0,0-.241.151c-.031.071-.022.092-.011.07a.265.265,0,0,1,.091-.1,1.752,1.752,0,0,1,.456-.121,1.8,1.8,0,0,0-.356.124c-.037.024-.033.031-.033.039a.184.184,0,0,0-.122.088c-.031.049-.054.1-.071.134s-.035.037-.047.008a.352.352,0,0,1,0-.174.884.884,0,0,0-.025.259c0,.118,0,.236,0,.354.007-.084.015.082.017.3l-.015.016c.02,1.9,0,3.8.023,5.694.008.722.337,1.43.076,2.168-.058.165.136.239.258.319a4.54,4.54,0,0,0,1.726.869,1.848,1.848,0,0,1,1.1.691.733.733,0,0,1,.088.957.677.677,0,0,1-.924.3,8.335,8.335,0,0,1-2.233-.836l-.014-.01-.007.025a.073.073,0,0,1,.014.008l.006-.024-.006.024.1.07s.008,0,.017.011.038.033-.115-.078L67,21.319l-.031.092c.017-.065.055-.207.081-.3l-.014-.01c-.1.351-.186.7-.261,1.052.058-.234.108-.437.059-.184.027-.118.05-.237.08-.355-.011.059-.075.338-.131.629s-.107.6-.116.7c-.065.377-.12.756-.175,1.136,0-.013,0,.005,0,.023s0,.061.017-.052c-.034.282-.061.528-.009.16-.1.682-.165,1.366-.291,2.057-.154.689-.458,1.323-.656,1.98a5.811,5.811,0,0,0-.19,2.027,14.6,14.6,0,0,1,.035,2.059c-.022.191.009.084.025.011a2.334,2.334,0,0,1-.133.478.679.679,0,0,1-.178.285,1.209,1.209,0,0,1-.76.228c-.315.03-.069.038-.089.052h-.055A.826.826,0,0,1,63.691,33.229Zm1.483-12.642c0,.084.01.168.018-.132C65.186,20.5,65.181,20.543,65.174,20.587ZM64.092,10.279l.4-.09a1.8,1.8,0,0,1,.4-.067,1.258,1.258,0,0,0-.319.014l-.176.034-.194.05.091-.03-.4.078c0,.008.046.006.163-.01l.146-.039C64.072,10.262,63.993,10.292,64.092,10.279Zm2.883-.347.014-.027A.214.214,0,0,0,66.976,9.932Zm.419-.251a.6.6,0,0,0-.39.2.43.43,0,0,1,.209-.136c.105-.036.212-.059.3-.089l.1-.032ZM63,8.737l.512-.086c-.033-.024-.059-.047-.018-.073Zm1.946-.492a.021.021,0,0,1,.012,0,.3.3,0,0,1,.007-.035C64.93,8.257,64.937,8.251,64.949,8.245Zm3.506-.585a11.437,11.437,0,0,1,1.373-.373c-.093.017-.167.029-.215.035.217-.036.611-.13.8-.185l-.5.081c.2-.044.383-.069.589-.1.1-.016.212-.034.332-.058a2.787,2.787,0,0,1,.4-.064c-.053-.016.033-.039.075-.062s.039-.056-.213-.059a2.069,2.069,0,0,0-.216.029l-.171.032c-.105.021-.2.041-.276.06-.161.039-.282.077-.411.118-.257.086-.545.167-1.224.356-.043.018-.021,0-.008-.01s.018-.051-.437.113a3.377,3.377,0,0,1-1.074.327.3.3,0,0,1-.2-.109C67.24,8.057,67.608,7.958,68.456,7.659Zm2.428-.819c-.019.006.039-.012.225-.025l.018,0C71,6.819,70.9,6.838,70.883,6.84Zm-3.969-2.1c.009-.053.023-.122.038-.1-.013-.159-.038-.339-.065-.5Q66.9,4.44,66.914,4.741Zm-1.7-2.411a1.187,1.187,0,0,1-.012.157c.015.1.014.194.021.3s.014.208.024.308c.014.144.031.278.049.407.014-.281.025-.563.043-.844a1.342,1.342,0,0,0,0-.173,2.108,2.108,0,0,0-.13-.388c-.074-.164-.136-.3-.179-.4C65.088,1.922,65.168,2.124,65.213,2.33ZM66.339.542a1.6,1.6,0,0,1,.113.3c.038.129.069.258.1.386l.092.069-.069.031c.054.239.1.479.135.719a.191.191,0,0,0,.01-.08,5.841,5.841,0,0,0-.077-.736c-.021-.149-.053-.29-.074-.4a2.069,2.069,0,0,0-.056-.212A.164.164,0,0,0,66.387.53.1.1,0,0,0,66.339.542ZM16.557,33.36l.015,0Zm99.32-.373c-.054-.024-.105-.051-.158-.076.033.022.081.049.039.035l.046.02c-.017,0-.142-.065-.17-.074-.046-.025-.093-.049-.137-.077,0,0,0,0,0,0s-.009,0,0,.007c-.035-.018-.065-.033-.022-.006l-.492-.286a4.21,4.21,0,0,1-.474-.307c-.022-.012-.016,0-.011.013-.028-.037-.046-.037-.064-.037a.066.066,0,0,1-.032-.006c-.021-.028-.041-.056-.06-.086-.041-.014-.022.014-.029.019-.166-.1-.288-.239-.432-.3-.027-.044.037-.028-.01-.071.019.051-.03.023-.076,0s-.075-.044-.075-.024c-.017-.084-.175-.14-.094-.2-.057-.052-.076-.005-.064.015a.473.473,0,0,0-.2-.116c-.023-.05-.342-.209-.362-.32.014.074-.019.021-.075.01l.012.065-.093-.07c-.022-.009-.027-.015-.024-.018-.015-.013.019-.02-.016-.058a.126.126,0,0,0-.1-.033h-.034l.007.013-.047-.027c-.011-.009,0-.006.023,0,.035.005.085.011.025-.049-.009.01-.105.017-.116-.03.053.04.064.008.052-.017l-.075-.056-.007.066c-.216-.158-.422-.357-.643-.543.027-.028-.152-.138-.1-.164l.006.011c.057.042.012-.046-.034-.079.014.022,0,.02-.022.018s-.05-.006.009.056l-.1-.06c-.056.016-.108-.046-.16-.116a.866.866,0,0,0-.183-.2c.011.006.016.005.019,0a2.328,2.328,0,0,1-.263-.273l0-.022a.539.539,0,0,1-.2-.231s.017.014.006-.01a.324.324,0,0,1-.1-.16l.006,0a.772.772,0,0,1-.044-.171c.019,0,0-.074,0-.156s.017-.171.05-.186a.549.549,0,0,1,.021-.1l.044-.107s.006,0,.011-.009c.009-.072.109-.159.159-.211.03-.039.01-.029-.01-.02.075-.059.2-.189.243-.194.067-.031.032.007.054.009.1-.038-.034-.044.115-.063-.017.006-.047.015-.034.016a.274.274,0,0,1,.11.014.283.283,0,0,0,.1.015l-.035-.01a.264.264,0,0,1,.142.019c.048.017.086.034.1.014l0-.022c.152.071.075.006.221.093l0,0c.068.028.086.073.136.061l-.019-.018a1.336,1.336,0,0,1,.156.1c.011,0,.05.021.056.035.024-.027.181.1.213.123-.062-.035-.044,0-.036.021a.106.106,0,0,1,.112.061c.036-.037.078-.075.175-.018-.019,0-.045-.014-.042,0s.033.019.043.021-.033,0-.033.024c.094,0,.112.068.217.113-.04-.005-.022.02-.023.043.021-.022.043,0,.06.028s.04.06.047.01c.15.162.454.31.488.407,0,.035.078.034.109.054l-.023.024c.121.012.08.029.218.05-.066,0-.058.03-.035.086l.11-.009-.017.052a.149.149,0,0,1,.094.06.172.172,0,0,1,.119.016.165.165,0,0,0,.086.021c-.012.082.095.043.078.116a.15.15,0,0,1,.052.005c0-.037.02-.071.039-.038l.007,0-.014.043a.42.42,0,0,1,.088.041.137.137,0,0,1-.017-.038.458.458,0,0,1,.022.042l.01.007-.009,0a.078.078,0,0,0,.061.043c.06.126.279.079.334.234-.011-.02-.032-.039-.047-.031.095.061.147.18.226.194l.022-.038a.757.757,0,0,1,.191.1l.032-.037c.068.071.282.131.27.249.043-.018.1.09.152.113l-.011.038a.333.333,0,0,0,.134.087c.069.151.222.173.319.257l-.006.009.117.06c-.046,0,.033,0,.059.029a.223.223,0,0,1,.113.111l.062.053c-.085-.039-.025.043-.044.078l.06.008c0,.028-.045,0-.019.034.039.006.12.072.168.062a.075.075,0,0,0-.01-.042s0,0,0,0l0,0,0,0a.069.069,0,0,0,.02,0c.045.049.036.022.044.007.021.09.071.091.08.168,0-.037.028-.013.062.017s.082.079.084.035c.009.088.029.036.025.1a.334.334,0,0,0-.213-.12l.028.065c-.07.025-.094-.106-.136-.112a.082.082,0,0,1,.057.06l.016-.047a.329.329,0,0,0-.2-.1c.018.024,0,.02-.022.016s-.049-.008-.042.021l.039.023c0,.009,0,.013-.009.014.057.044.117.087.175.132h0l.075.057a1.023,1.023,0,0,1,.139.13c.017-.008.042,0,.065.013s.056.027.058,0c.011.046-.013.042.041.111.047.038,0-.083,0-.112.051.049.058.046.07.041-.014.08-.067.149-.114.113.015.026.029.053.042.081,0-.021.015-.006.028.025l-.012.008a.022.022,0,0,1,0-.008.934.934,0,0,1-.057.867.655.655,0,0,1-.569.363A1.047,1.047,0,0,1,115.877,32.987ZM117,31.842a.116.116,0,0,0-.055-.084C116.969,31.786,116.987,31.813,117,31.842Zm-.07-.1h0l-.006,0Zm-.124-.332Zm-.532-.239c.01-.037.086-.037.065-.115a.13.13,0,0,0-.135-.073.216.216,0,0,1-.167-.061c-.02,0,.067-.023-.025-.069a.343.343,0,0,0-.221-.018l.324.245a.1.1,0,0,1-.026-.039.141.141,0,0,0,.1.056l-.041-.06C116.2,31.064,116.2,31.13,116.278,31.166Zm-3.448-.082c.016,0,.031,0-.01-.019Zm3.548-.076h0l-.019-.026Zm-.989-.48.068.05a.069.069,0,0,1,.014-.043.16.16,0,0,0-.054-.008Zm-.311-.228.08.059a.045.045,0,0,0,.006-.026.889.889,0,0,0-.084-.2.334.334,0,0,0-.093.1l.078.057.056-.054Zm-.6-.441.12.088a1.418,1.418,0,0,0,.175-.046l-.094-.024V29.84a.207.207,0,0,0-.056-.007A.519.519,0,0,0,114.477,29.859Zm-.471-.455.014-.008-.009,0S114.009,29.4,114.006,29.4Zm.015-.007Zm-.3-.083.059.042a.184.184,0,0,1,.044-.063Zm-1.2-.858.019.013.03.006-.017,0,.044.031c0-.006,0-.015,0-.03l-.023,0c.025,0,.042-.008.035-.021l-.1-.047A.442.442,0,0,1,112.514,28.455Zm1.2,3.268a.026.026,0,0,1,0,.007A.038.038,0,0,1,113.718,31.723Zm-73.33-.873a.924.924,0,0,1-.328-.16,1.218,1.218,0,0,1-.266-.291,1.936,1.936,0,0,1-.3-.676,1.308,1.308,0,0,1-.023-.48c-.022.112-.027.106-.033.039,0-.091,0-.154,0-.219-.023.053-.041.095-.058.127a1.107,1.107,0,0,1,.023-.166l0-.009-.009,0-.017,0-.035.007c-.049.015-.065.017-.064.013-.023,0-.02,0-.023-.008s-.017-.015-.1,0a2.186,2.186,0,0,0-.542.211l.055-.01-.234.08c-.076.024.028-.019.122-.062.122-.056.228-.111-.1-.02a1.542,1.542,0,0,1-.48.205c.29-.1.243-.114.132-.091l-.408.135.154.009A8.619,8.619,0,0,1,36,29.938a3.868,3.868,0,0,1-1.963-.264c.017-.015-.2-.108-.394-.23s-.352-.258-.287-.242l.038.035c.268.185-.057-.083-.252-.258.081.085.022.045-.036.006-.08-.054-.16-.108.128.159a2.429,2.429,0,0,1-.394-.358.768.768,0,0,1-.226-.3,1.409,1.409,0,0,1-.129-.572,1.938,1.938,0,0,1,.11-.663c.07-.217.174-.409.249-.587a.279.279,0,0,0-.024.073c.274-.638.679-1.4.736-1.553l.042-.049c.226-.55.255-.614.563-1.252,0,.009-.033.085.017-.015.03-.079.062-.159.11-.274.049-.143.139-.189-.08-.159l.019-.006c-.249.022-.495.073-.744.117,0-.024-.318.053-.678.075a2.077,2.077,0,0,1-.524-.036,1.183,1.183,0,0,1-.2-.057.54.54,0,0,1-.122-.056c-.036-.012-.094-.033-.168-.06s-.154-.072-.24-.113-.168-.1-.244-.146-.142-.1-.191-.139a.274.274,0,0,0-.039-.044,1.763,1.763,0,0,1-.393-.429,2.428,2.428,0,0,1-.263-.545c-.041-.1-.05-.129-.051-.12a.234.234,0,0,0,.012.066,3.314,3.314,0,0,1-.125-.722,2.786,2.786,0,0,1,.028-.565c.038-.2.044-.187.051-.175s.007.012.017-.017c.105-.444-.07.062.107-.527-.021.068-.049.2-.035.149.031-.113.1-.264.158-.415a4.044,4.044,0,0,0,.167-.409l-.061.141c.125-.409.429-.909.423-.986l-.036.027c.172-.323.207-.392.243-.463a4.431,4.431,0,0,1,.262-.46v.01a4.847,4.847,0,0,0,.326-.57l-.063.091c.21-.342.231-.371.457-.711a2.424,2.424,0,0,1,.166-.252,9.266,9.266,0,0,1,.626-.939c-.179.269-.078.152-.014.086a2.012,2.012,0,0,1,.323-.487c-.021-.06-.034-.134.249-.567-.038.072-.1.179-.066.142a1.015,1.015,0,0,0,.114-.181c.019-.019.007.008,0,.035s-.02.053,0,.034c.15-.32.331-.506.587-.944-.072.145.012.034.059,0-.033-.068.416-.558.242-.44.283-.409.606-.95.878-1.433s.494-.905.609-1.064c.068-.073.158-.367.328-.5v.042a.68.68,0,0,1,.262-.178.777.777,0,0,1,.192-.044,1.534,1.534,0,0,1,.207,0,1.334,1.334,0,0,1,.365.052c-.145-.034-.183-.018-.159,0a1.855,1.855,0,0,1,.225.136.662.662,0,0,1,.328.335c-.009.034-.017.066-.028.1a1.394,1.394,0,0,1,.052.537.625.625,0,0,1,.022.14,1.868,1.868,0,0,1-.015.295c-.027.211-.089.417-.092.476-.127.148-.172.462-.3.547-.018.057-.046.128-.079.2.069-.06.117-.07.025.064l-.017.034-.072.039c-.071.146-.149.291-.2.385.027-.04.062-.085.1-.131L37.1,13l-.028.049a.34.34,0,0,1,.015-.031,1.389,1.389,0,0,0-.162.3c-.329.463-.516,1.147-.9,1.646a.825.825,0,0,0,.123-.23c-.245.458-.55.88-.677,1.185h.049c-.165.344-.292.61-.439.878l.035.038A11.635,11.635,0,0,1,34.3,18.3c-.015.115-.292.542-.394.773l-.062.04a6.285,6.285,0,0,0-.313.659,5.2,5.2,0,0,0-.437.854,1.653,1.653,0,0,0-.107.378.154.154,0,0,0,.017.081.125.125,0,0,0,.062.047l0,.01a.371.371,0,0,0,.037.007c.015,0,.023,0,.048.006.041,0,.081.009.128.008.088,0,.183,0,.278,0-.086.019-.036.008.058,0a1.584,1.584,0,0,1,.24-.013,4.447,4.447,0,0,1,.718.027c.123,0,.243,0,.361-.011-.4.044.032.052.059.083.076-.017.149-.04.221-.063.094,0-.139.054.029.035.036-.014.089-.031.152-.05a1.866,1.866,0,0,0,.194-.082.788.788,0,0,0,.281-.209c-.025,0-.066.033-.125.056-.014.011-.013.01,0,0l-.014.006.016-.008a.287.287,0,0,0,.039-.042c.1-.074.136-.1.136-.112s-.006,0-.014,0a.036.036,0,0,1-.017,0,1.979,1.979,0,0,0,.468-.492c-.07.069.015-.077.094-.245.088-.186.175-.4.1-.309.151-.212.07-.159.179-.292-.155.328-.238.669-.355.925.056-.074.108-.151.158-.23a.877.877,0,0,1-.176.361c-.083.117-.183.212-.231.279a1.955,1.955,0,0,1,.123-.155.871.871,0,0,1,.093-.109l-.079.032a2.081,2.081,0,0,1-.7.635c.12-.047.056,0-.025.038s-.172.082-.074.069a1.453,1.453,0,0,0,.2-.082c.028-.007.031,0,.022.008a1.58,1.58,0,0,0,.628-.529c.036-.051.07-.1.1-.156l.007-.011a4.877,4.877,0,0,0,.31-.63l-.078.16.014-.113.064-.049c.075-.177.147-.357.221-.534a.571.571,0,0,1,.062-.23c.053-.125.135-.231.064-.179a.725.725,0,0,1,.152-.118,1.361,1.361,0,0,1,.3-.165c.124-.042.044-.046-.084-.008a.991.991,0,0,0-.324.181,1.263,1.263,0,0,1,.224-.192c.037-.026.037-.032.039-.041a.494.494,0,0,1,.323.016c.047.031.021.055-.105.095a1.018,1.018,0,0,1,.432,0c-.116-.028,0-.026.154.016l.006.019-.012,0c.582.173.535.533.417,1.119a21.514,21.514,0,0,1-2.536,5.788c-.368.691-.282,1.52-1,2.172l.041-.007.022-.02.009-.008c.01-.009.024-.018-.023.027l.084-.015h.061l-.149.019-.019.018c.215-.021.422-.053.625-.091-.141.019-.252.034-.1,0-.067.014-.136.024-.2.036a7.62,7.62,0,0,0,.807-.183c.234-.056.466-.121.7-.188-.009,0,0-.006.011-.012s.034-.021-.036,0c.17-.055.317-.106.092-.041.413-.125.824-.267,1.241-.4.21-.066.419-.129.632-.186.1-.023.165-.07.177-.15a.469.469,0,0,0-.07-.27,2.648,2.648,0,0,1-.235-.63,1.09,1.09,0,0,1-.015-.354.644.644,0,0,1,.159-.336.792.792,0,0,1,.3-.2,1.158,1.158,0,0,1,1.006.074c.108.059.055.011.017-.02.139.1.2.149.255.181a.644.644,0,0,1,.162.12,1.509,1.509,0,0,1,.215.447c.06.121.06.092.06.063s0-.028,0-.025a1.627,1.627,0,0,1,.055.17l.038.159c.025.106.047.211.068.316.043.209.08.416.113.618.068.4.126.788.2,1.133.006.105-.007.1-.018.1s-.023-.007,0,.15c0-.213.047.029.089.27.035.2.068.4.076.344-.019.31.134,1.025.017.915.028.171.032.262.041.278s.032-.025.036-.085a.746.746,0,0,1-.274.573,1.315,1.315,0,0,1-.5.264,1.832,1.832,0,0,1-.2.014A1.048,1.048,0,0,1,40.388,30.85Zm-1.129-1.833H39.3c.017-.01.038-.022.03-.022A.441.441,0,0,0,39.259,29.017Zm-4.19-1.205-.019.019.038,0,.02-.019Zm-2.042-7.547c-.421.895-.378,1.118.4,1.132a.619.619,0,0,1-.124-.017,2.144,2.144,0,0,0,.513-.013l-.318-.019c.125,0,.238.006.366.016a4.59,4.59,0,0,0,.478.016c-.063-.036.212-.078-.075-.132a2.052,2.052,0,0,0-.688.019,1.693,1.693,0,0,1-.289.034,1.021,1.021,0,0,1-.2-.011.316.316,0,0,1-.2-.1c-.015-.012-.009-.011,0-.01s.017,0,.02,0-.029-.036-.023-.195a2.22,2.22,0,0,1,.08-.372c.033-.117.064-.223.085-.312.014-.055.023-.1.03-.142Zm1.247.927.01,0-.139-.012Zm2.819-2.119c0-.006.009-.011.014-.018s0-.007,0-.007S37.1,19.064,37.093,19.072Zm.138-.178a.567.567,0,0,0-.073.094.83.83,0,0,1,.437-.282A.622.622,0,0,0,37.231,18.894Zm.894-.177-.043-.009Zm-4.189-.3c.025-.025.06-.055.067-.036a2.921,2.921,0,0,0,.106-.3C34.052,18.2,33.994,18.306,33.937,18.417Zm.792-1.508a.1.1,0,0,0,.041-.032c.1-.116.469-.653.5-.691a.128.128,0,0,0-.074-.134l-.215.4.038.083-.069-.027Zm-1.374-2.06-.279.437c.033-.038.083-.092.139-.153.022-.03.042-.06.064-.091l.063-.111-.025.056.147-.21c-.007,0-.029.014-.076.071l-.046.083c.026-.058.043-.1.033-.1S33.365,14.836,33.354,14.848Zm2.911-.755c-.059.216-.109.412-.131.526l.17-.383.076-.077a3.485,3.485,0,0,0,.217-.672Zm1.561-3.33a.091.091,0,0,1,.014.03.181.181,0,0,0,0-.048S37.831,10.76,37.826,10.764ZM37.1,9.789l.056.007a.8.8,0,0,1,.252.083c0-.035,0-.066.031-.07a.825.825,0,0,0-.216-.027C37.184,9.782,37.144,9.785,37.1,9.789ZM48.538,29.7c-.017.037-.191.036-.331.019s-.249-.038-.16.014a7.2,7.2,0,0,1-1.549-.4,3.924,3.924,0,0,1-1.021-.554c-.071-.072-.312-.179-.446-.273l.037-.014c-.4-.219-.3-.188-.757-.475.2.109.136.037-.015-.129l-.325-.183-.019-.086a2.533,2.533,0,0,1-.363-.313,1.7,1.7,0,0,1-.318-.216l-.207-.161c-.065-.05-.123-.1-.149-.122a2.417,2.417,0,0,1-.142-.356.383.383,0,0,1,.062-.344.679.679,0,0,1,.112-.222c-.039.021-.078.043-.084.034s.019-.054.071-.1l.022-.027.076-.021a1.533,1.533,0,0,1,.324-.315c-.049.028-.1.059-.157.094a1.168,1.168,0,0,1,.187-.113.431.431,0,0,1,.059-.033l-.036.022a1,1,0,0,1,.416-.105.847.847,0,0,1,.265.088l.2.121c.118.07.25.133.384.2a2.2,2.2,0,0,1,.692.491.453.453,0,0,0-.136-.1,1.893,1.893,0,0,1,.28.271c.041.047.082.1.115.147s.061.083.093.122a1.314,1.314,0,0,0,.4.336l.007-.047a5.449,5.449,0,0,0,.78.352l.031-.041c.182.08.489.163.785.255l.107.035.088.031.061.023a.349.349,0,0,0,.073,0c-.018,0,.033-.091.075-.23s.1-.326.123-.439l.052-.049c.1-.3.139-.481.181-.661a7.282,7.282,0,0,0,.445-1.659l.011,0c.024-.177.041-.355.05-.531.017.141-.008-.105.006-.262,0-.084-.007-.193,0-.306s0-.224.006-.335a3.589,3.589,0,0,1-.006-.373c.021.414.046-.03.089-.05-.007-.078-.013-.157-.015-.236.012-.041.017-.015.021.011s.007.065.02-.029c-.013-.159.078-.61.087-.757a.691.691,0,0,0-.063.137c0,.019,0,.018,0,.006l-.006.015.006-.019a.613.613,0,0,0,0-.065c.087-.279.045-.18.025-.175a4.723,4.723,0,0,1,.327-.656c-.068.084,0-.079.068-.235.071-.175.13-.371.069-.286.114-.2.05-.146.128-.278-.089.313-.156.615-.244.876.046-.079.091-.155.133-.23a4.394,4.394,0,0,1-.266.661,1.146,1.146,0,0,1,.121-.286l-.068.046a2.723,2.723,0,0,0-.221.935c.031-.13.025-.039.02.052s0,.166.028.081c.007-.066.016-.132.027-.2.011-.027.017-.025.019-.009a5.445,5.445,0,0,1,.365-1.135,4.474,4.474,0,0,0,.279-.912.76.76,0,0,1,0-.217c0-.121.008-.233-.02-.164a1.331,1.331,0,0,0,.076-.452c0-.225-.068.267-.1.355.017-.263,0-.264-.006-.273.072-.212.163-.372.169-.135.009-.126.017-.253.024-.379-.01.083-.014-.021-.007-.16l.014-.009c0,.014,0,.028,0,.043.023-.478.033-.958.079-1.431a10.058,10.058,0,0,1,.851-4.076c.29-.524.081-.587-.378-.581-.841.011-1.683,0-2.825,0-.216-.019-.439-.025-.668-.024.149,0,.29.01.132.012l.174,0c-.15,0-.641,0-.751.013-.223.009-.447.022-.67.039.022,0-.088.014.02.005-.165.015-.31.029-.093.013-.8.065-1.6.174-2.413.247a18.3,18.3,0,0,1-2.409.06c-.107,0-.046.01,0,.016a1.846,1.846,0,0,0-.44.018.684.684,0,0,1-.429-.191c-.1-.084-.086-.06-.073-.037s.014.023.009.022a.869.869,0,0,1-.189-.277.672.672,0,0,1-.062-.339,1.077,1.077,0,0,1,.283-.563,2.632,2.632,0,0,1,.385-.427.793.793,0,0,1,.264-.146.608.608,0,0,1,.309-.011c.119.047.093.06.086.064s0,.019.117.077c-.147-.106.025-.017.22.044a1.839,1.839,0,0,0,.268.065c.05,0,.078,0,.065,0a1.605,1.605,0,0,0,.52.064c.192,0,.34-.014.287.043.324-.036.26-.079.167-.073a8.522,8.522,0,0,0,.979-.2c.054,0,.189-.023.373-.037s.4-.024.627-.037a7.4,7.4,0,0,1,1.082-.007c-.218-.04.028-.027.247-.06l-.2-.037.5-.019c.1-.009.131-.008.131,0,.085,0-.02.028.2.03a2.454,2.454,0,0,0,.545-.072l-.053,0,.231-.014c.089,0-.075.016-.178.035s-.136.037.133.036a1.326,1.326,0,0,1,.484-.062c-.284.01-.247.041-.142.05l.4-.014-.133-.052a16.973,16.973,0,0,1,1.755.042l.894.062a3.59,3.59,0,0,1,.92.155c-.007.009.043.03.118.062s.17.079.265.122c.187.094.348.21.287.2l-.038-.029c-.266-.146.064.067.248.227-.091-.091.006-.028.064.013.03.019.052.032.037.011a.94.94,0,0,0-.191-.177,1.513,1.513,0,0,1,.373.338.639.639,0,0,1,.1.109,1.063,1.063,0,0,1,.093.189,1.368,1.368,0,0,1,.054.547,4.252,4.252,0,0,1-.359,1.15.243.243,0,0,0,.02-.069c-.122.3-.263.626-.368.905a5.528,5.528,0,0,0-.194.576l-.031.051c-.061.268-.088.418-.121.582s-.069.34-.12.662c0-.009,0-.084-.013.018-.006.158-.023.315-.049.762l0-.019c-.012.233-.011.466,0,.7a5.389,5.389,0,0,0,.009.631,2.84,2.84,0,0,1-.113.787c-.012.139-.131.642-.175.865a.215.215,0,0,0-.018.052c-.017.134-.057.323-.089.517s-.056.4-.07.545c-.017.195,0,.112.018.028-.06.382-.107,1.063-.135,1.2-.028.181-.034.171-.041.161s-.008-.011-.015.016c-.057.418.059-.062-.048.493.007-.065.025-.185.014-.139-.035.213-.164.583-.191.8l.036-.138c-.051.391-.225.9-.2.974l.027-.032c-.166.658-.047.284-.222.95l0-.01a3.537,3.537,0,0,0-.13.595l.03-.1c-.086.362-.1.393-.2.759a2.082,2.082,0,0,1-.072.271,1.68,1.68,0,0,1-.123.457c-.081.228-.182.465-.214.543.1-.281.038-.155-.009-.082a1.805,1.805,0,0,1-.185.509.176.176,0,0,1,.028.133,1.032,1.032,0,0,1-.194.461c.046-.073.1-.193.068-.15a.61.61,0,0,0-.062.1l-.06.091c-.022.018-.007-.009.007-.035s.027-.053,0-.035a1.232,1.232,0,0,1-.973.557C48.737,29.706,48.6,29.714,48.538,29.7Zm1.153-1.088c.008,0,.025-.024.053-.081l.023-.086c-.013.079-.018.13.01.078l.157-.454c-.022.041-.056.1-.095.167-.013.032-.026.064-.038.1s-.023.08-.033.114l.01-.054C49.746,28.462,49.719,28.536,49.691,28.611ZM44.6,28.025c-.076-.061-.151-.122-.226-.185-.006.034-.014.063-.046.061C44.422,27.944,44.512,27.984,44.6,28.025Zm3.635-.253a.43.43,0,0,1-.048.076.706.706,0,0,0,.176-.315c-.02.026-.05.058-.059.04A1.223,1.223,0,0,1,48.238,27.772Zm-1.6-.305c.131.055.265.1.4.152a.1.1,0,0,0-.035-.036c-.059-.041-.225-.126-.372-.214s-.278-.174-.295-.186a.13.13,0,0,0-.128.078,4.124,4.124,0,0,0,.374.183l.076-.048Zm-3.023-.16a.08.08,0,0,1-.029-.007C43.643,27.346,43.617,27.317,43.619,27.306Zm1-1.358c.2.061.381.12.488.159-.115-.072-.231-.135-.349-.194l-.068-.077a3.582,3.582,0,0,0-.61-.22C44.259,25.735,44.442,25.839,44.624,25.949Zm4.328-.958a5.191,5.191,0,0,0-.094.81,9.846,9.846,0,0,0,.358-1.631,1.063,1.063,0,0,1-.027.115,1.739,1.739,0,0,0,.028-.475c-.012.1-.026.194-.046.29a3.194,3.194,0,0,0,.051-.776c-.012.022-.028,0-.045-.019s-.06-.069-.081.1a3.1,3.1,0,0,0,0,.617,2.123,2.123,0,0,1-.052.727c0,.024,0,.014-.01,0s-.007-.011-.012-.011S48.988,24.781,48.951,24.991Zm.08-1.5c0-.018,0-.048.007-.1l0-.009C49.035,23.432,49.033,23.471,49.032,23.492Zm.954-3.74c0-.014,0-.029.006-.043l0,0C49.988,19.722,49.987,19.737,49.985,19.752ZM50,19.618c.02-.149.035-.3.047-.449A3.545,3.545,0,0,0,50,19.618ZM45.99,10.971Zm.7-.1-.079-.007C46.566,10.879,46.516,10.892,46.693,10.872ZM41.516,28.895a.125.125,0,0,1,0,.027C41.514,28.912,41.515,28.9,41.516,28.895ZM8.26,28.608a.743.743,0,0,1-.336-.181.586.586,0,0,1-.166-.355,1.635,1.635,0,0,1,.016-.371,1.531,1.531,0,0,1,.091-.359.924.924,0,0,1,.51-.538c.06-.033.02-.028-.009-.025.187-.037.163-.078.265-.109A1.727,1.727,0,0,1,8.9,26.7c.1-.022.021-.036.028-.047a1.718,1.718,0,0,1,.722.085,1.173,1.173,0,0,1,.165.074c.053.028.1.062.135.077a.345.345,0,0,0,.223.028c.1.008-.019.061.117.039-.1-.012,0-.033.091-.085a.486.486,0,0,0,.108-.077c.011-.013.013-.022,0-.023a.08.08,0,0,0,.063-.045.151.151,0,0,0,0-.1c-.027-.088-.067-.177,0-.168-.083-.173-.112-.13-.1-.069-.053-.118-.074-.206-.112-.3a1.854,1.854,0,0,0-.118-.249,9.2,9.2,0,0,1-.35-1.151c-.006.136-.031-.007-.094-.119l-.006.126-.091-.276c-.023-.055-.027-.071-.023-.072-.014-.047.029,0,0-.12a.819.819,0,0,0-.148-.283l0,.031-.048-.126c-.012-.039.011.007.039.054.039.066.084.133.036-.052a.453.453,0,0,1-.129-.252c.051.157.074.126.067.064l-.072-.219-.03.092a1.483,1.483,0,0,0-.179-.41.306.306,0,0,0-.309-.134,1.33,1.33,0,0,0-.441.166l-.465.253c0-.018-.1.032-.2.081s-.231.112-.215.069l.027-.008c.152-.085-.064-.015-.189.053.059-.021.031,0,0,.031s-.08.071.112-.016c-.081.048-.161.1-.242.142-.1.156-.694.289-1.1.42.029-.011.035-.017.038-.021a4.313,4.313,0,0,1-.923.163L5.26,24.31a.9.9,0,0,0-.3.115.65.65,0,0,0-.249.251s.015-.043-.014.005a.625.625,0,0,0-.025.141.612.612,0,0,0,.065.254l-.008-.009a1.287,1.287,0,0,1,.063.418,2.711,2.711,0,0,0-.046.369,2.037,2.037,0,0,1-.1.448,3,3,0,0,0-.027.5s0,.009,0,.03c.016.075.029.181.057.287.013.054.036.1.053.155a.723.723,0,0,1,.045.157c.014.123.017.071.024.014a.908.908,0,0,1-.1.431.736.736,0,0,1-.205.253c-.1.068-.1.057-.1.046s0-.012-.016-.005c-.116.064-.105.064-.1.074s0,.031-.191.049c.043-.006.12-.025.089-.022a.557.557,0,0,1-.26-.023c-.09-.024-.171-.065-.233-.081.025.012.051.027.077.038a.745.745,0,0,1-.324-.18c-.086-.077-.135-.151-.165-.152v.03a1.268,1.268,0,0,1-.146-.259.366.366,0,0,1-.031-.084.63.63,0,0,1-.02-.213l0,0a.615.615,0,0,1,.033-.218.311.311,0,0,0,.018-.143l-.02.055a3.545,3.545,0,0,0,.087-.435.636.636,0,0,1,.013-.158.883.883,0,0,1-.015-.266c0-.135,0-.282-.006-.33.017.171.028.089.041.039a.617.617,0,0,1-.039-.31c-.054-.015-.108-.037-.152-.311.015.042.028.108.035.079a.276.276,0,0,0-.021-.113c0-.014.01,0,.018.013s.017.029.025.012a3.015,3.015,0,0,1-.105-.594c.028.085.03.009.046-.024-.07-.014.02-.384-.056-.272a2.04,2.04,0,0,1,.166-.96.9.9,0,0,1,.318-.332.686.686,0,0,1,.262-.106A1.8,1.8,0,0,0,4,22.865L4,22.9c.233-.132.188-.079.46-.231-.108.076-.052.078.078.068L4.71,22.6l.056.036a.873.873,0,0,1,.258-.1c.06-.083.366-.193.4-.244a.227.227,0,0,0,.165-.036c.054-.027.1-.054.15-.034a.767.767,0,0,1,.1-.067c-.054-.014-.083-.042,0-.058L5.86,22.1l.051.027c.076-.043.155-.08.208-.1a.531.531,0,0,1-.089.013l.1-.019L6.162,22l-.016.009a.438.438,0,0,0,.168-.07c.3-.053.58-.352.923-.4a.251.251,0,0,0-.128.058,6.446,6.446,0,0,0,.683-.27l-.028-.035a4.522,4.522,0,0,1,.472-.241L8.226,21c.109-.038.292-.134.481-.2a.765.765,0,0,1,.474-.049,1.2,1.2,0,0,1,.556.033l.032.045a3.429,3.429,0,0,1,.427.184,4.937,4.937,0,0,1,.739.818l-.007.008c.07.088.13.179.194.27-.071-.059.051.045.091.135a1.172,1.172,0,0,1,.172.364l.088.192c-.12-.2-.038.036-.068.064l.081.109c0,.026-.011.014-.022,0s-.026-.027-.009.024c.056.072.15.317.215.38a.229.229,0,0,0,0-.088c-.007-.01-.006-.009,0,0v-.009l0,.011a.187.187,0,0,0,.027.029c.049.159.043.1.057.084.008.188.072.275.061.418.01-.068.044.038.077.144s.068.211.083.146c-.014.15.025.091,0,.191a2,2,0,0,0-.225-.5l.015.157c-.094-.073-.086-.335-.141-.413a.419.419,0,0,1,.056.2l.033-.053a1.653,1.653,0,0,0-.236-.5c.02.074-.007.031-.036-.014s-.058-.081-.055-.026l.049.1c0,.016,0,.019-.012.014.155.385.287.779.414,1.176.051.014.146.259.156.177a.521.521,0,0,0,.054.263c.065.116,0-.167,0-.223.063.142.074.138.088.138-.015.139-.073.258-.139.138.023.07.046.139.07.209-.009-.048.02.005.046.082l-.013.01a.117.117,0,0,1-.01-.022,10.442,10.442,0,0,0,.5,1.245,1.525,1.525,0,0,1-1.457,2.125c-.359,0-.719,0-1.078,0v0h-.025s0,0,0,0V28.6h.022l-.022,0,0,.012h-.009v-.011l-.056.006-.033-.006c.019,0,.058,0,.089,0l0-.014v0l-.354,0c.083.009.157.016.068.022l.123,0c-.041.01-.388,0-.458.019l-.389,0c.013.006-.051.019.012.018-.1.006-.179.014-.054.014-.093,0-.189.008-.289.008A1.586,1.586,0,0,1,8.26,28.608ZM3.206,25.642c.015.092.03.183.041.275,0-.027.012-.066.02-.111,0-.02,0-.04,0-.06l-.017-.068.014.032c0-.046-.007-.092-.012-.138-.007,0-.014.016-.015.056l.014.05c-.014-.03-.026-.052-.033-.052S3.207,25.631,3.206,25.642Zm8.787-.721a.741.741,0,0,0-.08-.249C11.939,24.755,11.966,24.838,11.993,24.921Zm-.1-.3,0,0L11.89,24.6Zm-2.21-.252c.02.023.039.047-.006-.046ZM4.37,22.876l.17-.053c-.019-.025-.034-.048-.025-.071C4.468,22.794,4.418,22.834,4.37,22.876Zm6.769-.281c0-.018.024-.013.043-.01.035.007.072.014.053-.089-.144-.381-.231-.246-.478-.656-.01-.008-.006-.008,0-.008s.061,0-.06-.143a.956.956,0,0,0-.4-.284,3.632,3.632,0,0,1,.581.772.414.414,0,0,1-.025-.067.972.972,0,0,0,.153.232l-.065-.161C11.014,22.3,11.028,22.42,11.139,22.594Zm-6.124-.032a.047.047,0,0,1,.009-.019C4.984,22.558,5.009,22.554,5.015,22.562Zm6.271-.087,0,0c-.017-.043-.029-.073-.029-.073Zm-4.739-.411.34-.143a2.958,2.958,0,0,0,.2-.238L6.9,21.8,6.837,21.8A1.184,1.184,0,0,0,6.547,22.064Zm1.433-.756a.159.159,0,0,0,.011.137l.222-.1,0-.08.035.066.227-.1a.051.051,0,0,0-.033-.01h0A3.939,3.939,0,0,0,7.98,21.308Zm1.179-.278a1.518,1.518,0,0,1,.2-.014c-.019-.01-.042-.026-.035-.04A.5.5,0,0,0,9.159,21.029Zm75.789,7.054-.033-.037a.964.964,0,0,1-.353-.307c-.078-.1-.157-.214-.292-.426.006,0,.041.05,0-.018a3.932,3.932,0,0,1-.328-.482l.011.01-.281-.453c.01,0-.018-.056-.065-.132a1.39,1.39,0,0,0-.134-.192,1.1,1.1,0,0,1-.029.109l-.01.029-.018.042c-.011.027-.026.054-.039.078a.451.451,0,0,1-.162.182.615.615,0,0,1-.28.161,2.128,2.128,0,0,1-.365.054s-.012,0-.041,0c-.2.037-.59.036-.817.056-.147.017-.082.02-.017.023-.293,0-.8.089-.91.09-.214.017-.081-.012-.141-.019-.318.031.057.043-.371.058.049-.006.141-.016.1-.016a2.639,2.639,0,0,1-.27-.006,1.975,1.975,0,0,0-.35,0l.109,0c-.3.04-.706,0-.752.045l.03.019c-.514.007-.217.024-.738.03l.006,0a1.917,1.917,0,0,0-.461.037l.079,0c-.281.015-.307.015-.595.023a1.1,1.1,0,0,1-.212.009,4.536,4.536,0,0,1-.8.029c.229-.008.121-.023.057-.038a1,1,0,0,1-.411.01.14.14,0,0,1-.083.074,2.269,2.269,0,0,1-.307.074c.048-.019.125-.035.092-.041a.405.405,0,0,0-.138.031c-.039,0,.078-.035.033-.045a1.164,1.164,0,0,1-.355.085,2.713,2.713,0,0,1-.476,0c.132,0,.021-.022-.02-.052-.02.029-.163-.008-.264-.084s-.163-.149-.13-.062a1.169,1.169,0,0,1-.3-.579,4.089,4.089,0,0,1-.1-.623,2.615,2.615,0,0,1,.039-.886,3.857,3.857,0,0,0,.044-.4l.029.023a1.785,1.785,0,0,1,.037-.32l.08-.363c-.022.177.017.112.11-.034.014-.095.033-.194.051-.286l.07-.026a1.49,1.49,0,0,1,.15-.328c-.006-.125.18-.511.178-.589.119-.081.12-.307.22-.36a1.265,1.265,0,0,1,.038-.147c-.054.04-.1.045-.036-.049l.01-.024.059-.026c.036-.107.078-.214.107-.284a.964.964,0,0,1-.066.1l.075-.116.017-.037a.159.159,0,0,1-.009.023.691.691,0,0,0,.095-.218c.221-.335.251-.843.493-1.212a.437.437,0,0,0-.063.171,7.75,7.75,0,0,0,.352-.885l-.046,0c.065-.258.117-.456.179-.659l-.043-.025c.056-.145.1-.383.159-.6a1.511,1.511,0,0,1,.176-.507c-.021-.081.1-.414.118-.589l.046-.037a2.45,2.45,0,0,0,.068-.5,1.849,1.849,0,0,0,.071-.65.992.992,0,0,1,.244-.747l.011,0a.967.967,0,0,1,.46-.285c-.074.04-.028.014.054-.013a.558.558,0,0,1,.2-.032.752.752,0,0,1,.318.028.849.849,0,0,1,.3.167,1.047,1.047,0,0,1,.24.24c-.259-.268-.013.051-.045.089a1.1,1.1,0,0,1,.122.16c.006.036-.009.018-.023,0s-.032-.043-.006.031a.914.914,0,0,1,.1.3,1.747,1.747,0,0,0,.057.281.406.406,0,0,0,.02-.113c0-.015,0-.014,0,0v0a.5.5,0,0,0,.017.047c0,.221.013.14.03.131a3.974,3.974,0,0,1-.09.552c.033-.07.025.06.009.2s-.049.32,0,.245c-.088.175-.025.126-.1.234a2.216,2.216,0,0,0,.038-.728c-.017.067-.034.134-.052.2-.049-.133.051-.44.03-.568a.691.691,0,0,1-.018.259l.05-.05a1.99,1.99,0,0,0-.076-.728c.006.1-.011.041-.031-.024s-.056-.13-.056-.057a1.222,1.222,0,0,1,.033.149c0,.021-.009.022-.015.012a5.059,5.059,0,0,1-.1,1.617c.036.043-.033.388.024.3a.922.922,0,0,0-.116.332c-.017.171.1-.188.136-.252-.035.2-.024.2-.013.212-.1.148-.218.245-.2.068l-.073.279c.024-.063.014.017-.012.12l-.018,0a.183.183,0,0,1,.007-.036A25.306,25.306,0,0,1,77.23,22a16.121,16.121,0,0,0-1.311,3.349l.023,0,.009-.041s0,0,0-.008.008-.021-.007.049l.08-.006.043.007c-.025,0-.08,0-.122,0l0,.017c.159.006.319.007.477.007-.111-.008-.215-.014-.1-.02l-.161,0c.053,0,.505-.01.6-.028l.508-.017c-.016,0,.066-.022-.015-.017.125-.012.233-.024.069-.018.606-.031,1.218-.1,1.828-.176a14.8,14.8,0,0,1,1.823-.146c.081-.006.035-.018,0-.026.223.03.212-.029.334-.035l.325.055c.133-.017.03-.034.04-.045.155,0,.308.009.459.018s.309.034.434.048c.072.013.152.03.226.041l.027,0h.009c.007,0,.013,0,.006-.006l-.028-.049c-.019-.033-.039-.064-.059-.093,0-.034.011-.032.026-.029s.023,0-.006-.066c.006.049-.009.044-.025.024a.269.269,0,0,1-.032-.047l-.056-.1c-.07-.133-.144-.271-.142-.226a1.41,1.41,0,0,0-.165-.375c-.071-.126-.133-.215-.065-.213-.15-.191-.165-.123-.123-.065a3.2,3.2,0,0,1-.258-.324,1.039,1.039,0,0,1-.17-.378.67.67,0,0,1,.083-.335,1.192,1.192,0,0,1,.366-.38.948.948,0,0,1,.531-.163.791.791,0,0,1,.336.067c-.14-.073.049-.025.222.026a1.077,1.077,0,0,0-.146-.1,1.322,1.322,0,0,1,.393.187c.075.048.094.068.09.07.055.05-.026.006.1.146.1.11.137.184.17.221s.065.07.11.127l-.014-.038.09.154c.025.047-.014-.009-.058-.064-.062-.08-.131-.16-.02.067a.757.757,0,0,1,.209.307c-.1-.193-.115-.153-.089-.076l.137.271.006-.116c.4.776.72,1.617,1.2,2.4-.046.014.345.548.257.509l-.016-.032c-.131-.184,0,.081.116.224-.041-.07,0-.037.031,0s.1.09-.052-.132c.076.093.154.185.234.273a.738.738,0,0,1,.181.162c.036.039.075.084.115.133a.982.982,0,0,1,.131.192.677.677,0,0,1,.034.517.591.591,0,0,1-.347.36A.127.127,0,0,0,86.173,28a1.772,1.772,0,0,1-.746.192H85.4A1.11,1.11,0,0,1,84.948,28.083Zm-8.8-1.062L76.516,27c-.035,0-.088-.015-.146-.027l-.076,0-.09.01.042-.011-.18,0c0,.008.02.016.071.022l.067-.009C76.144,27,76.108,27.015,76.151,27.021Zm-.232-1.675,0,.016h.026s0,0,0-.017Zm-1.558-1.237c.023-.069.049-.138.077-.207-.033,0-.062,0-.072-.026C74.36,23.955,74.361,24.032,74.361,24.109Zm.276-.876a.016.016,0,0,1,.009,0,.063.063,0,0,1,0-.023C74.624,23.243,74.629,23.238,74.637,23.233Zm8.975-.766-.047-.05a.231.231,0,0,0-.038-.014C83.52,22.4,83.538,22.418,83.612,22.467Zm-.548-.209ZM75.725,20.8l-.057.056a1.959,1.959,0,0,0-.066.5c.064-.148.126-.3.188-.446.01-.162.015-.31.01-.395Zm.791-1.99c-.065.092-.262.5-.279.532a.139.139,0,0,0,.1.1c.033-.1.067-.2.1-.3l-.059-.059.072.016c.033-.1.065-.206.095-.31A.076.076,0,0,0,76.517,18.813Zm1.9-.6a1.271,1.271,0,0,0,.086-.332Zm-1.631-.328c.02-.087.039-.174.056-.261-.015.02-.038.047-.05.034A1.621,1.621,0,0,0,76.783,17.886Zm1.735-.072,0,0,0-.021Zm-1.539-2.182a.833.833,0,0,0-.013.316,2.274,2.274,0,0,0,.046.227c.01.039.02.072.03.1.006-.093.007-.186.006-.279a.741.741,0,0,1,.48-.786l-.092.026a2.482,2.482,0,0,1,.352-.1,1.01,1.01,0,0,0-.233.017.709.709,0,0,1,.274-.021,1.4,1.4,0,0,1,.331.067c-.016-.024.028-.031.056-.041s.04-.038-.067-.1a.654.654,0,0,0-.552,0,1.477,1.477,0,0,0-.207.118,1.012,1.012,0,0,0-.28.271c-.012.031-.006-.008-.018-.014h0C77.075,15.429,77.028,15.462,76.978,15.632ZM78.173,15h.009l-.119-.043ZM10.48,26.771h0Zm105.411-1.913a.2.2,0,0,1-.1-.01l0,0a.188.188,0,0,1-.049-.008c-.028-.008-.047-.015-.07.008l.019.008a1.331,1.331,0,0,1-.149-.023c-.01,0-.046,0-.054-.007-.011.037-.171-.013-.2-.023.059.006.036-.015.023-.034a.076.076,0,0,1-.1-.01.106.106,0,0,1-.138.08c.017,0,.041,0,.034-.016s-.031-.006-.039,0c-.007-.013.025-.014.021-.034-.077.033-.109-.021-.2-.031.034-.007.014-.025.01-.047-.014.027-.036.009-.056-.009s-.041-.042-.039.006c-.154-.1-.426-.167-.463-.252,0-.032-.07-.013-.1-.026l.019-.028a.235.235,0,0,1-.095,0,.374.374,0,0,0-.1,0c.057-.016.05-.04.028-.087l-.1.028.014-.052a.1.1,0,0,1-.082-.041.14.14,0,0,1-.109,0c-.03-.007-.057-.014-.071-.006.012-.079-.083-.027-.065-.1a.137.137,0,0,1-.046,0c-.006.035-.02.069-.036.041l-.007,0,.014-.043a.3.3,0,0,1-.075-.028.1.1,0,0,1,.013.034c-.006-.012-.012-.026-.017-.037l-.008-.006.006,0a.054.054,0,0,0-.052-.033c-.046-.11-.242-.047-.279-.188.008.017.025.034.04.024-.08-.049-.113-.157-.183-.163l-.023.037a.5.5,0,0,1-.159-.081l-.032.037c-.054-.062-.236-.107-.211-.217-.04.019-.078-.078-.121-.1l.015-.037a.234.234,0,0,0-.107-.074c-.039-.133-.181-.157-.238-.211l.006-.009-.091-.035c.016-.005.013,0,0,0s-.04,0-.051-.012a.141.141,0,0,1-.093-.081l-.054-.039c.074.022.022-.045.038-.081l-.053,0c0-.026.039-.01.017-.035a.188.188,0,0,1-.063-.019.147.147,0,0,0-.088-.016.066.066,0,0,0,.009.039s0,0,0,0v0l0,0a.108.108,0,0,0-.019,0c-.041-.043-.033-.017-.041,0-.019-.084-.065-.084-.068-.158,0,.04-.031.011-.06-.018s-.06-.058-.066-.019c0-.079-.022-.03-.012-.086.036.067.122.08.178.095l-.019-.061c.064-.026.075.093.113.1-.025,0-.051-.038-.047-.052l-.018.046a.22.22,0,0,0,.175.073c-.015-.02,0-.019.017-.019s.044,0,.039-.026l-.035-.015a.013.013,0,0,1,.008-.014c-.051-.033-.1-.068-.147-.1l0,0-.015-.013a1.307,1.307,0,0,1-.155-.144c-.017.011-.041,0-.063,0s-.049-.017-.053,0c-.008-.039.018-.041-.031-.093-.046-.026-.007.071-.009.1-.043-.039-.051-.034-.062-.028.014-.07.074-.139.114-.111-.014-.021-.026-.043-.038-.066,0,.02-.014.009-.026-.016l.012-.008s0,0,0,.006a.953.953,0,0,1-.067-.186c-.174-.71.013-1.016.767-1.012a.651.651,0,0,1,.126-.013c-.028,0-.057-.007-.027-.012l-.041,0a.782.782,0,0,1,.154-.007.613.613,0,0,1,.125.035s.019,0,0-.008a.161.161,0,0,0,.036.011,1.43,1.43,0,0,1,.368.257c.113.107.23.2.342.293.017.009.014,0,.01-.013.019.032.035.03.051.029a.04.04,0,0,1,.027,0l.044.072c.035.007.02-.016.027-.021a1.938,1.938,0,0,0,.363.2c.025.034-.03.035.012.064-.018-.043.025-.029.066-.015s.065.023.064,0c.02.073.158.085.095.16.054.032.065-.016.054-.031a.322.322,0,0,0,.183.053c.024.037.306.11.333.211-.011-.045,0-.037.027-.029a.112.112,0,0,0,.038.006l-.015-.059.084.046c.019,0,.023.009.021.012.014.009-.014.023.017.052.057.032.071.011.114.006l-.006-.011.042.017c.028.016-.123-.012-.04.058.007-.011.091-.035.1.008-.047-.029-.056,0-.044.025l.065.04.006-.064a4.647,4.647,0,0,1,.551.422c-.026.031.126.11.075.141l0-.01c-.047-.032-.015.046.025.069-.026-.045.1.016.017-.068l.084.042c.1-.038.17.181.284.261-.009-.005-.014,0-.016,0,.1.075.171.218.2.231l-.006.02a.514.514,0,0,1,.175.167h0s-.01,0,0,.01a.309.309,0,0,1,.111.1h0a1.151,1.151,0,0,1,.087.11c-.018.012.022.056.056.113s.058.13.039.154a.4.4,0,0,1,.024.181s0,0-.007.01c.015.064-.058.155-.091.2-.018.037,0,.027.014.017-.057.054-.119.184-.151.2s-.033.017-.037.009,0-.009-.011-.008c-.068.056.042.033-.071.083.01-.01.031-.026.022-.023a.191.191,0,0,1-.093.012.165.165,0,0,0-.082.009l.03,0a.21.21,0,0,1-.125.017c-.038,0-.067-.006-.07.014l.008.02A.274.274,0,0,0,115.891,24.858Zm-.659-.123h.095a.278.278,0,0,1-.028-.034l-.02,0-.025.006.014-.009-.043-.01a.023.023,0,0,0,.01.025l.019-.005C115.236,24.716,115.223,24.727,115.232,24.736ZM114.1,24.3l.084-.04-.049-.026A.256.256,0,0,1,114.1,24.3Zm-.163-.072-.012.01C113.94,24.244,113.935,24.236,113.939,24.227Zm-.652-.372.081.014,0,.036a.32.32,0,0,0,.176-.039l-.1-.069A1.625,1.625,0,0,0,113.287,23.855Zm-.3-.373a.691.691,0,0,0,.053.177.411.411,0,0,0,.089-.095l-.063-.048-.052.052.044-.06-.064-.049A.054.054,0,0,0,112.984,23.483Zm-.245-.169a.153.153,0,0,0,.07,0l-.051-.041A.079.079,0,0,1,112.738,23.314Zm-.439-.263a.289.289,0,0,0,.191.006l-.11-.091a1.628,1.628,0,0,0-.138-.1.043.043,0,0,1,.012.023.092.092,0,0,0-.083-.037l.034.049c-.038-.023-.042-.084-.108-.1-.009.036-.075.05-.057.118a.087.087,0,0,0,.113.044.135.135,0,0,1,.136.033h0C112.3,22.991,112.229,23.02,112.3,23.051Zm-.294-.09c.016.021.023.034,0,0Zm-.458-.609.009.006-.007-.007Zm-.012-.017a.812.812,0,0,1-.048-.069A.085.085,0,0,0,111.537,22.335Zm3.013-.078Zm.15,0-.009-.016C114.678,22.247,114.665,22.251,114.7,22.256ZM82.51,24.415c0,.006,0,.012,0,.018A.073.073,0,0,1,82.51,24.415Zm23.565-1.044c-.107-.073-.068-.035-.027.009A.8.8,0,0,1,105.8,23a.575.575,0,0,1,.006-.344c.044-.114.049-.1.054-.095s.007.01.018,0c.059-.119.049-.113.04-.119s-.007-.025.108-.154c-.02.03-.067.094-.046.072.084-.1.273-.239.342-.347l-.06.06c.134-.19.369-.411.358-.465l-.029.006c.256-.309.09-.144.342-.464v.006c.1-.148.17-.215.186-.308l-.038.049.247-.392a.714.714,0,0,1,.084-.142,3.806,3.806,0,0,1,.3-.543c-.082.157-.027.092.012.056a.657.657,0,0,1,.146-.286c-.035-.043-.068-.095.06-.348-.014.043-.041.106-.019.086a.31.31,0,0,0,.051-.106c.01-.01.007.006.006.023s0,.032.013.023a3.621,3.621,0,0,1,.257-.554c-.025.086.019.024.051,0-.049-.05.22-.317.1-.26.289-.467.6-1.253.74-1.422.048-.041.073-.2.11-.285l.025.025c.056-.269.066-.2.138-.511-.017.136.022.093.1-.013l.024-.226.065-.017a.934.934,0,0,1,.111-.261c-.018-.1.122-.407.114-.472.106-.058.087-.244.179-.28a.763.763,0,0,1,.023-.118c-.049.029-.089.03-.039-.044l.006-.018.054-.014c.022-.08.044-.16.059-.212a.392.392,0,0,1-.046.072c.017-.03.035-.059.051-.087l.009-.028a.066.066,0,0,1,0,.018.355.355,0,0,0,.045-.17c.136-.274.009-.668.146-1a.263.263,0,0,0-.015.144,3.259,3.259,0,0,1,.08-.415,1.32,1.32,0,0,0,.06-.331l-.044.005a1.576,1.576,0,0,1,.1-.6l-.039-.033a.906.906,0,0,1,.222-.288.834.834,0,0,1,.378-.181,1.011,1.011,0,0,1,.328-.017.429.429,0,0,1,.213.074.479.479,0,0,1,.267.08,1.606,1.606,0,0,1,.287.223l0,.06a2.915,2.915,0,0,1,.258.4c.021.1.044.2.068.289a1.492,1.492,0,0,1,.051.317,2.994,2.994,0,0,1-.028.525l-.01,0a1.075,1.075,0,0,0,.019.273c-.038-.059.025.047.036.106a2.527,2.527,0,0,0,.143.228.916.916,0,0,0,.134.1c-.173-.093-.019.051-.023.089a.989.989,0,0,0,.118.028c.017.018,0,.018-.015.017s-.03,0,.01.023c.041.008.117.033.195.05a.537.537,0,0,0,.2.01.248.248,0,0,0-.07-.042c-.01,0-.01,0,0,0l-.007,0,.009,0a.157.157,0,0,0,.035-.007c.147.037.095.011.092-.006.154.081.26.058.387.122-.048-.031.047-.022.154-.01s.253.034.193-.009c.141.077.1.019.185.082a1.586,1.586,0,0,0-.569-.014l.153.047a.457.457,0,0,1-.268-.014.677.677,0,0,0-.17-.029.506.506,0,0,1,.2.033l-.035-.051c-.217-.041-.385-.03-.538-.051.064.03.024.025-.025.019s-.109-.011-.065.024l.114.029c.014.009.012.014,0,.017a10.4,10.4,0,0,0,1.095.135l.167.031c.036-.036.3,0,.234-.043a.633.633,0,0,0,.264.084c.136.008-.149-.081-.2-.107.159.021.162.01.17,0,.118.081.192.183.054.173.073.017.146.034.217.052-.044-.017.017-.013.1.008l0,.015-.024,0c1.322.337,2.6.859,3.948,1.1.442.077.968.339.9,1.019a.952.952,0,0,1-.028.376.067.067,0,0,0,0-.009c.025-.073.034-.132.024-.048A.972.972,0,0,0,120,17.36a.655.655,0,0,1-.041.222.615.615,0,0,1-.133.213.678.678,0,0,1-.363.171c.013,0-.052.017.013,0-.049.01-.094.016-.112.018a1.841,1.841,0,0,1-.306,0l-.359-.029a5.663,5.663,0,0,1-.717-.1,3.918,3.918,0,0,1-.686-.232c-.22-.088-.442-.167-.662-.244-.061-.017-.029,0-.008.014-.155-.074-.16-.037-.252-.057l-.23-.1c-.1-.015-.029.018-.038.023-.463-.109-.906-.251-1.291-.3-.116-.044.039-.038-.12-.078.108.053-.03.031-.166.009-.108-.017-.215-.035-.187-.013-.152-.089-.558-.122-.47-.2-.189-.047-.166.008-.113.028a3.4,3.4,0,0,0-.588-.1A6.961,6.961,0,0,1,112,16.25c.089.072-.044.008-.165,0l.1.077a.958.958,0,0,0-.236-.059c-.035.006-.04.007-.041,0a.015.015,0,0,1-.017-.01c0-.007-.012-.015-.055,0a.156.156,0,0,0-.068.1c0,.035,0,.057,0,.106l.014-.022a1.024,1.024,0,0,0-.027.113c-.011.035-.006-.014,0-.062,0-.068,0-.136-.059.023a.484.484,0,0,1-.011.282c.031-.17,0-.149-.028-.093a1.6,1.6,0,0,1-.059.251c.031-.027.056-.051.082-.077-.007.026-.01.047-.022.077a.523.523,0,0,1-.031.076l-.055.116-.115.232c-.08.154-.159.31-.239.466l-.5.951c-.014-.013-.07.088-.126.188s-.126.224-.136.18l.018-.022c.078-.16-.062.026-.125.156.036-.053.028-.014.019.024-.012.053-.024.106.082-.079l-.115.262c.008.185-.387.655-.591,1.035a.1.1,0,0,0,.014-.041c-.184.339-.484.713-.525.792l-.033.019a3.4,3.4,0,0,1-.432.625c0-.006.026-.044-.015,0a1.994,1.994,0,0,1-.282.361l0-.011c-.095.1-.192.206-.3.3-.014-.017-.139.113-.294.236a1.434,1.434,0,0,1-.4.256,3.125,3.125,0,0,1-.463.256s-.01,0-.032.008a.858.858,0,0,1-.311.1.568.568,0,0,1-.072,0A.5.5,0,0,1,106.075,23.371Zm1.782-3.725c-.039.087-.081.172-.123.258.019-.022.047-.052.08-.085.01-.018.021-.035.031-.053l.025-.067-.007.035.068-.123c-.006,0-.02.006-.046.038l-.016.051c.006-.037.008-.064,0-.064S107.862,19.639,107.857,19.646Zm1.633-3.186.075-.165c-.031,0-.059-.007-.07-.029C109.494,16.332,109.491,16.4,109.489,16.46Zm2.148-.215.029.007c.009-.01.019-.017.011-.017A.184.184,0,0,0,111.637,16.245Zm-1.942-.483a.011.011,0,0,1,.008,0,.056.056,0,0,1-.007-.02C109.684,15.769,109.688,15.765,109.7,15.762Zm5.128-.786a.8.8,0,0,0-.262-.057C114.65,14.937,114.737,14.956,114.823,14.976Zm-.316-.068,0,0h-.017Zm-.9-.184Zm.141-.076Zm-1.313-.328c.008-.044.127.021.076-.111-.071-.144-.089-.2-.134-.27a.574.574,0,0,1-.04-.409c0-.015,0-.009.009,0s.041.027.051-.149a.886.886,0,0,0-.081-.421.427.427,0,0,0-.052-.069,4.371,4.371,0,0,1-.025.981.244.244,0,0,1,.01-.066.453.453,0,0,0,.052.271.768.768,0,0,1-.009-.168A.557.557,0,0,0,112.44,14.32Zm-2.092-.5-.039.052a1.514,1.514,0,0,0,.071.393c.023-.123.044-.247.061-.373a2.708,2.708,0,0,0-.1-.3Zm2.215.357,0,0a.326.326,0,0,1-.02-.04C112.551,14.148,112.556,14.161,112.563,14.178Zm-1.808-2a.559.559,0,0,0-.17.22,1.9,1.9,0,0,0-.085.21.154.154,0,0,0,.122.065,2.311,2.311,0,0,1,.046-.244c-.021-.016-.043-.032-.063-.05l.072.016a.623.623,0,0,1,.113-.224h-.007A.07.07,0,0,0,110.755,12.181Zm.716-.182a.883.883,0,0,1,.2.054c-.013-.018-.031-.042-.019-.053a.367.367,0,0,0-.088-.01A.525.525,0,0,0,111.471,12Zm2.413,9.856v.006A.023.023,0,0,1,113.884,21.856ZM49.37,21.44c0,.015-.007.029-.01.041A.24.24,0,0,1,49.37,21.44Zm-13.25-.67-.01.017Zm31.631-2.046c-.077-.043-.1-.06-.093-.064-.059-.047.028-.007-.113-.135a2.713,2.713,0,0,1-.213-.212l-.034-.038c0,.011,0,.021,0,.038a1.76,1.76,0,0,1-.025.234c.01-.07,0-.011-.024.076a1.057,1.057,0,0,1-.041.132l-.02.056c-.007.021,0,.01-.007.016a.729.729,0,0,1,.019-.073c.008-.033.019-.063.026-.1a1.893,1.893,0,0,0,.035-.21c.017-.084.025-.147.03-.18l-.029-.035c0,.013,0,.024,0,.034,0-.013,0-.027,0-.04s-.022-.031-.034-.049c0,.055,0,.109,0,.164,0-.056,0-.111,0-.166-.006-.009-.012-.018-.018-.029a.373.373,0,0,0,.015.051.853.853,0,0,1-.075-.223c-.012-.086.016.067.07.155l.006.01c0-.051,0-.1-.01-.15a.539.539,0,0,1-.049-.159.511.511,0,0,1,.031-.275.363.363,0,0,0-.015.2c.01.013.019-.02.033-.065a1.365,1.365,0,0,1,.1-.336l-.095.089a8.261,8.261,0,0,1,1.626-2.394c.009.016.115-.1.223-.209s.242-.252.233-.2l-.029.024c-.16.179.079-.022.209-.169-.065.057-.038.013-.01-.031.038-.061.076-.122-.126.084l.248-.3A11.446,11.446,0,0,1,70.7,13.087c-.027.032-.032.042-.033.048.345-.386.825-.818.9-.913l.044-.021a9.507,9.507,0,0,1,.7-.749c0,.007-.042.054.019,0a5.61,5.61,0,0,1,.413-.458L72.729,11l.387-.412c.03.032.645-.724.793-.818.067-.089.343-.4.463-.536,0,0,.012-.007.033-.028.128-.177.426-.46.583-.641.1-.121.049-.076,0-.03.222-.218.546-.659.626-.74.1-.111.1-.1.1-.089s0,.012.02,0c.215-.26-.073.012.237-.319-.032.041-.094.117-.067.09.115-.128.363-.323.465-.463l-.081.08c.093-.126.23-.258.324-.374a.64.64,0,0,0,.151-.255l-.031.015c.148-.235.178-.281.208-.332a1.148,1.148,0,0,1,.07-.1.883.883,0,0,1,.218-.2l0,.008a.684.684,0,0,1,.281-.117,1.445,1.445,0,0,0,.2-.046l-.088,0a.989.989,0,0,1,.192,0,1.031,1.031,0,0,1,.137.013,1.189,1.189,0,0,1,.321.092.531.531,0,0,1,.208.134c.009,0,.052.026.1.089a.636.636,0,0,1,.115.274,1.056,1.056,0,0,1-.062.505c.036-.124.034-.159.026-.154s-.026.052-.044.083a.931.931,0,0,1-.139.421c.03.044.085.107-.1.475.025-.06.065-.151.037-.12a.781.781,0,0,0-.076.151c-.015.015-.008-.007,0-.029s.011-.044-.008-.029a1.058,1.058,0,0,1-.2.341,3.536,3.536,0,0,1-.344.354c.089-.1,0-.033-.051-.019.011.036-.118.111-.2.158s-.114.076-.058.078a.123.123,0,0,0-.059.128.2.2,0,0,0,.045.069.757.757,0,0,0,.1.082c.167.107.374.222.547.33a5.746,5.746,0,0,1,.764.515,2.264,2.264,0,0,0,.358.209l-.032.018c.337.147.249.135.639.315-.17-.062-.118-.007.014.116l.282.1.02.075a1.711,1.711,0,0,1,.324.2c.13.014.51.26.592.27.072.131.306.165.352.273a1.588,1.588,0,0,1,.148.059c-.036-.06-.038-.1.055-.03l.025.013.021.063c.109.051.216.108.287.146a.988.988,0,0,1-.094-.078l.114.089.037.022-.023-.011a.853.853,0,0,0,.22.125,11.1,11.1,0,0,1,1.208.731.456.456,0,0,0-.167-.1c.333.208.616.482.836.6l.01-.045a6,6,0,0,1,.614.417l.04-.031c.258.216.867.618.956.833a4.564,4.564,0,0,1,.491.437l.01.06a4.806,4.806,0,0,0,.409.37c.039.051.078.1.12.146a1.691,1.691,0,0,0,.121.127.8.8,0,0,1,.262.4.768.768,0,0,1-.072.47.891.891,0,0,1-.266.338l-.011,0a1.28,1.28,0,0,1-.483.235c.059-.03.037-.019-.019,0a.8.8,0,0,1-.237.047,1.089,1.089,0,0,1-.623-.107,1.831,1.831,0,0,1-.291-.14c.323.145,0-.053.007-.1a1.939,1.939,0,0,1-.178-.082c-.024-.028,0-.02.02-.012s.047.019-.012-.03c-.121-.055-.394-.31-.5-.368a.433.433,0,0,0,.065.1c.013.01.012.01,0,0l.008.01-.01-.012a.482.482,0,0,0-.047-.026c-.155-.173-.1-.1-.113-.082-.121-.205-.242-.276-.336-.431.028.058-.068-.025-.17-.115-.118-.1-.249-.205-.208-.127-.11-.161-.1-.08-.163-.192a7.016,7.016,0,0,0,.608.42L83.96,15.2c.149.038.337.33.436.4a.954.954,0,0,1-.191-.2l.006.072a3.792,3.792,0,0,0,.292.281,2.951,2.951,0,0,0,.282.216c-.073-.076-.016-.037.045,0s.12.073.076.011c-.041-.033-.084-.066-.125-.1-.012-.019-.009-.023,0-.019-.075-.069-.146-.14-.215-.211a7.973,7.973,0,0,0-1.081-.926.483.483,0,0,1-.159-.059c-.091-.044-.178-.088-.139-.036A.922.922,0,0,0,82.9,14.4c-.165-.076.157.16.207.218-.184-.106-.193-.094-.205-.087-.116-.142-.178-.292-.007-.212-.086-.055-.171-.109-.257-.163.053.042-.022.006-.118-.052v-.018a.217.217,0,0,1,.028.016c-.533-.328-1.079-.637-1.609-.972-1.6-1.009-3.173-2.056-4.8-3.118-.1.14-.21.277-.319.414.076-.084.144-.158.073-.059l.1-.138c-.023.053-.324.428-.376.513-.117.137-.233.275-.355.407,0,0,0,.005,0,.013s-.012.028.024-.013c-.086.1-.16.193-.041.065-.432.48-.881.956-1.327,1.431s-.892.946-1.346,1.388c-.056.065-.012.039.017.021-.187.144-.139.176-.222.273l-.273.212c-.056.077-.033.07-.012.063s.018-.007.019,0c-.427.481-.876.925-1.2,1.342-.059.05-.067.041-.072.031s-.01-.022-.092.064c.128-.094.014.046-.1.186-.1.118-.2.236-.152.215-.2.126-.5.58-.519.445-.169.2-.1.2-.046.144a3.413,3.413,0,0,0-.445.658,4.973,4.973,0,0,0-.408.672.972.972,0,0,1-.417.411.605.605,0,0,1-.367.053c.067.021.06.025.009.027a.965.965,0,0,1-.271-.039.756.756,0,0,0,.179.094A1.046,1.046,0,0,1,67.751,18.723Zm-.053-.054c.042.013.082.031-.05-.047Zm-.436-.478s0,0,0,0a.059.059,0,0,0,0-.028C67.262,18.172,67.262,18.183,67.262,18.191Zm-.041-.051a.237.237,0,0,0,.035.046c0-.016,0-.031,0-.047s-.02-.074-.033-.138a.048.048,0,0,1-.007-.011Q67.22,18.065,67.222,18.14ZM85.66,16.58c.123.028.188.042.009,0Zm.026-.053a.788.788,0,0,0,.561-.035c.062-.029.128-.06.216-.106a1.161,1.161,0,0,0,.331-.239c.018-.029,0,.009.015.017s.064-.011.149-.193A.6.6,0,0,0,87,15.618a.382.382,0,0,0-.154-.229.562.562,0,0,0-.1-.054.422.422,0,0,1,.126.538.775.775,0,0,1-.543.463.847.847,0,0,1,.093-.018l-.376.1a1.532,1.532,0,0,0,.244-.019,1.667,1.667,0,0,1-.64-.012C85.7,16.431,85.464,16.429,85.686,16.527Zm-2.4-1.945.025.014-.023-.015Zm-.06-.043c-.1-.068-.2-.135-.3-.2A1.524,1.524,0,0,0,83.222,14.538Zm2.464-.183c-.012-.025-.026-.062-.009-.066a1.327,1.327,0,0,0-.208-.124C85.542,14.228,85.615,14.292,85.686,14.356ZM84.437,13.33c.092.07.181.142.271.212,0-.009,0-.023-.014-.042a5.723,5.723,0,0,0-.438-.468.137.137,0,0,0-.128.07c.091.066.182.131.271.2l.078-.035Zm-1.692-1.16c.167.041.319.076.41.092-.094-.047-.189-.092-.284-.136l-.051-.067a1.841,1.841,0,0,0-.52-.153C82.449,11.993,82.6,12.08,82.745,12.17Zm-2.265-1.491Zm-.03,0a.068.068,0,0,1,.025,0,.118.118,0,0,0-.029-.016S80.451,10.671,80.45,10.677Zm-.67-.326c0-.032.012-.06.039-.064l-.242-.069ZM78.4,7.134c.006,0,.021-.01.049-.061L78.469,7c-.007.065-.009.107.014.065.04-.124.08-.245.109-.375a1.468,1.468,0,0,1-.073.139c-.009.025-.017.05-.027.074s-.016.067-.023.1l.006-.047C78.452,7.016,78.428,7.075,78.4,7.134ZM0,17.113c-.062-.624.763-.681,1.056-.67a7.071,7.071,0,0,0,1.53-.164,5.314,5.314,0,0,1,1.96-.114,3.332,3.332,0,0,0,.945.129H5.467c-.183-.006-.323-.023-.16-.015a2.188,2.188,0,0,1-.283-.028,2.826,2.826,0,0,0,.555.024.975.975,0,0,0,.191-.02,1.6,1.6,0,0,0,.175-.033,1.469,1.469,0,0,0,.231-.077,1.856,1.856,0,0,0,.557-.347h0a2.251,2.251,0,0,0,.234-.235c-.008.008,0,0,.01-.017s.031-.042-.034.033c.138-.163.242-.323.143-.189a7.34,7.34,0,0,0,.751-1.52c.236-.556.5-1.1.773-1.642s.559-1.071.846-1.6c.141-.263.293-.526.425-.786a5.784,5.784,0,0,0,.308-.823c.041-.153.007-.068-.014-.011a3.494,3.494,0,0,0,.15-.633c.065-.2.132-.405.208-.6.047-.171.028-.138.011-.107-.009.015-.017.03-.017.024.022-.073.047-.145.073-.217a.415.415,0,0,0,.041-.159c0-.036-.028-.059-.073-.069a.68.68,0,0,0-.188-.012c-.279.027-.577.064-.855.094-.562.063-1.094.123-1.576.2-.139.007-.14,0-.135-.011s.022-.023-.2,0c.534,0-1.039.144-.859.162a5.8,5.8,0,0,0-.662.046c-.368.039-.694.078-.6.008-.485.063-.395.1-.255.088A11,11,0,0,0,3.78,8.1c-.077.01-.273.048-.531.107-.129.029-.273.066-.426.1s-.318.077-.458.132-.295.136-.452.2a1.693,1.693,0,0,1-.482.132A.782.782,0,0,1,.99,8.723a.466.466,0,0,1-.2-.19c.034.065.064.095.066.1S.829,8.632.79,8.589A.767.767,0,0,1,.615,8.1a.761.761,0,0,0,.032.375A.728.728,0,0,1,.586,8a.745.745,0,0,1,.263-.4A.98.98,0,0,1,1,7.49c.027-.015.036-.019.037-.017.044-.025.052-.024.062-.024s.038,0,.215-.091c.454-.245.468-.273.715-.417l-.075.027c.105-.052.213-.1.319-.148s-.087.05-.222.127-.2.126.185-.034A2.307,2.307,0,0,1,2.9,6.608c-.405.145-.34.16-.189.114.188-.069.378-.134.57-.192-.07,0-.139,0-.208.006A9.957,9.957,0,0,1,4.34,6.212c.434-.077.862-.142,1.3-.211.873-.136,1.763-.265,2.668-.38,0,.011.073.007.19,0A3.266,3.266,0,0,1,8.935,5.6c.31.013.591.03.509.054l-.069-.007c-.2-.009-.195,0-.1.017a2.694,2.694,0,0,0,.587.008c-.16.008-.062-.013.031-.034.109-.025.212-.049-.113-.027a2.8,2.8,0,0,0,.519-.116c.083-.052.241-.1.267-.228a.849.849,0,0,0,0-.3,2.92,2.92,0,0,1-.015-.42c.012-.291.063-.592.093-.886a2.6,2.6,0,0,0-.022-.8.353.353,0,0,0,.02.064,1.734,1.734,0,0,0-.265-.653l-.109-.152a.481.481,0,0,1-.072-.205,1.415,1.415,0,0,1,.011-.368c.015-.113.035-.218.051-.314A1.187,1.187,0,0,1,10.339.96a.757.757,0,0,1,.208-.289.741.741,0,0,1,.086-.038,1,1,0,0,1,.506-.139.6.6,0,0,1,.4.121.9.9,0,0,1,.244.364c.062.15.13.328.206.563-.007-.011-.047-.118,0,.031a5.238,5.238,0,0,1,.294,1.113l-.009-.026a7.071,7.071,0,0,1,.1,1.051c-.02,0,0,.451-.044.939A.923.923,0,0,0,12.37,5a.321.321,0,0,0,.2.214.921.921,0,0,0,.431,0,5.587,5.587,0,0,1,.586-.168c.256-.059.532-.1.7-.125a.49.49,0,0,0,.081,0c.4-.074,1.163-.094,1.6-.15.289-.04.162-.033.036-.026a5.5,5.5,0,0,0,1.012-.183c.168-.043.319-.1.443-.145s.215-.088.264-.1c.241-.114.233-.1.225-.089s-.009.014.03,0c.14-.072.217-.1.247-.115s.025-.016.023-.021,0-.01.067-.027a1.535,1.535,0,0,1,.4-.033c-.048,0-.114,0-.164.008s-.093.01-.054.008a2.616,2.616,0,0,1,.621.049c.111.018.221.037.324.049s.2.014.283.031a1.189,1.189,0,0,0-.216-.034.785.785,0,0,1,.464.13.678.678,0,0,1,.266.4.883.883,0,0,1,.013.377c-.02.1-.056.163-.059.191l.047-.043a.574.574,0,0,1-.239.24.863.863,0,0,1-.2.078l-.21.049-.71.163.011-.007a6.328,6.328,0,0,0-.868.258l.149-.037c-.534.153-.581.169-1.133.3a2.945,2.945,0,0,1-.411.086,2.954,2.954,0,0,1-.7.118l-.271.016c-.086.006-.169.007-.244.016-.152.013-.276.034-.337.043.216-.039.273-.048.26-.054a.949.949,0,0,0-.161,0,6.731,6.731,0,0,1-.783.177c-.041.059-.088.137-.8.312.109-.033.28-.08.207-.073a2.38,2.38,0,0,0-.292.073c-.073,0,.154-.054.07-.054a3.016,3.016,0,0,1-.692.145c-.06.007-.125.009-.19.014l-.05,0-.023,0a.124.124,0,0,0-.036.016.434.434,0,0,0-.118.3c.014-.18-.028-.027-.052.045.015.011.015.083.016.117s-.009.115.039.15a.162.162,0,0,0,.125-.024c.027-.013.023-.021-.01-.029l.036-.012a.243.243,0,0,1,.041-.011.249.249,0,0,1,.068-.006A.228.228,0,0,1,12.8,7.6l.036.007.073.014a2.106,2.106,0,0,1,.288.092,2.726,2.726,0,0,1,.543.3c.342.241.646.507.953.742.6.477,1.121.9,1.309,1.093.1.112.419.326.6.481l-.046,0c.549.4.414.323,1.042.814-.271-.193-.179-.089.039.162q.222.161.441.329l.038.112a4.528,4.528,0,0,1,.5.513,3.127,3.127,0,0,1,.421.392l.268.292a1.422,1.422,0,0,0,.167.161.945.945,0,0,0,.279.308,1.614,1.614,0,0,1,.279.245c.07.032.155.081.252.123-.08-.082-.094-.132.075-.021l.042.022.062.076a3.908,3.908,0,0,0,.535.176c-.06-.02-.128-.05-.2-.081.084.03.16.068.237.09l.073.017-.045-.008a1.4,1.4,0,0,0,.438.073,2.228,2.228,0,0,0,.583.029c.206-.011.4-.061.653-.084a3.3,3.3,0,0,1,1.362.22,1.587,1.587,0,0,0-.351-.081,7.888,7.888,0,0,0,.988.212c.08.01.139.007.228.012a.59.59,0,0,1,.3.1.933.933,0,0,1,.313.375.546.546,0,0,0,.023-.055.814.814,0,0,1,.081.511c-.01.051-.018.076-.026.107l-.027.091c-.019.06-.04.12-.064.179a1.129,1.129,0,0,1-.527.6l-.007.058a1.307,1.307,0,0,1-.342.1c-.134.015-.226.015-.342.021-.223.009-.466.01-.7,0a4.033,4.033,0,0,1-1.087-.142,2.664,2.664,0,0,1-.532-.063c-.235-.041-.508-.1-.668-.12l-.078-.05a4.111,4.111,0,0,0-.974-.036,17.039,17.039,0,0,0-2.568.268l-.008-.009-.819.111c.212-.054-.159.038-.406.054a9.687,9.687,0,0,1-.99.091L15,16.688c.572-.1-.047-.044-.086-.078l-.326.078c-.056,0-.031-.01,0-.021s.1-.03-.038-.013a10.749,10.749,0,0,0-1.061.245,1.482,1.482,0,0,0,.212-.015c.027-.007.025-.007.008,0l.023,0-.027,0c-.027.009-.069.023-.086.032-.41.072-.258.058-.24.071-.462.033-.715.111-1.065.113.362.006-1.109.171-.8.187a1.946,1.946,0,0,0-.268.01.744.744,0,0,1-.205.007,10.7,10.7,0,0,0,1.372-.269l-.394.032c.242-.1.875-.127,1.1-.194a2.68,2.68,0,0,1-.514.084l.107.029a13.461,13.461,0,0,0,1.372-.308c-.205.026-.049-.01.085-.045.11-.028.207-.057.084-.053l-.292.057c-.038,0-.042,0-.028-.01-.154.028-.31.057-.465.089-.3.063-.6.12-.9.175l.015,0-.027,0c-.588.106-1.18.2-1.773.282-.047.05-.744.158-.545.163a3.907,3.907,0,0,0-.688.059c-.331.063.411,0,.552-.006-.394.064-.392.073-.4.087-.332-.012-.586-.062-.25-.127-.184.023-.368.047-.552.071.12-.01-.03.019-.235.047l-.017-.012.054-.008c-.991.134-1.985.283-2.983.356-1.4.1-2.8.13-4.2.189-.06,0-.121,0-.181,0s-.12,0-.179,0H1.095A1.019,1.019,0,0,1,0,17.113Zm9.508.229a4.967,4.967,0,0,0,.69-.088C9.971,17.285,9.742,17.315,9.512,17.343Zm.814-.1s0,0,0,0l.057-.01Zm5.605-.686-.014,0,.193-.012Zm-.113-.175c.092.025-.282.114.121.118,1.009-.053.816-.172,2.028-.295.044-.01.014,0,0,.014s.006.037.394-.023a10.942,10.942,0,0,0,1.189-.271c-.49.052-.974.129-1.454.187-.345.041-.691.079-1.037.115.081-.005.146-.007.188-.007a5.472,5.472,0,0,0-.707.089l.44-.023C16.627,16.322,16.34,16.3,15.817,16.378Zm-10.48-.1ZM24.569,16.2a.168.168,0,0,0,.069.017.74.74,0,0,0,.271-.039.819.819,0,0,0,.342-.224,1.632,1.632,0,0,0,.288-.488.13.13,0,0,0-.093-.15.212.212,0,0,1-.006.027,1.632,1.632,0,0,1-.247.537.814.814,0,0,1,.007.11l-.065-.041A.8.8,0,0,1,24.569,16.2Zm-2.27-.084a3.49,3.49,0,0,0,.445.012q-.265-.03-.527-.067C22.262,16.08,22.32,16.106,22.3,16.117ZM9.04,15.5a.435.435,0,0,0-.07.113c.03-.043.035-.017.047-.011s.028,0,.067-.069l0,.041c0,.005-.006.014,0,.015l.033-.006a.283.283,0,0,1,.167-.043l.171.006a1.047,1.047,0,0,0,.195-.012.039.039,0,0,0-.023.011c.215-.037.488-.011.538-.03l.021.015a1.694,1.694,0,0,1,.426-.06s-.028.01.008.009a1.1,1.1,0,0,1,.255-.049l-.006,0L11.1,15.4c0,.022.109,0,.223-.023a.706.706,0,0,1,.253-.027c.045-.019.216-.049.292-.068,0,0,.006,0,.019,0a2.233,2.233,0,0,1,.36-.058c.064-.017.035-.02,0-.022a3.043,3.043,0,0,0,.4-.091c.094-.017.038.012.066.018.139-.032-.031-.042.159-.059-.022.007-.062.017-.045.017a.522.522,0,0,1,.119,0,.419.419,0,0,0,.161,0H13.06c.128-.042.318-.01.331-.056l-.016-.018c.229-.018.094-.027.325-.048l0,0c.1-.024.157-.006.2-.053l-.035,0c.122-.028.134-.028.26-.052a.226.226,0,0,1,.092-.021c0-.036.288-.077.344-.086-.1.026-.048.032-.017.043a.2.2,0,0,1,.177-.048c0-.052.01-.109.169-.148-.024.013-.062.026-.044.033s.053-.013.065-.019-.032.027-.01.041c.1-.073.186-.043.339-.094-.047.027,0,.029.019.046,0-.033.054-.03.1-.027s.087.007.05-.03c.316-.01.784-.137.913-.1.036.021.117-.034.17-.044l0,.034c.142-.082.115-.039.284-.127-.068.051-.035.064.043.084l.113-.087.03.049a.3.3,0,0,1,.16-.025.243.243,0,0,1,.122-.066c.059-.02.131-.037.122-.053.019.036.04.028.054.021s.024-.014.061.017a.069.069,0,0,1,.014-.027c-.043-.027-.075-.06-.045-.047l0,0,.054.037a.08.08,0,0,1,.039-.019.373.373,0,0,1-.049-.016l.053.016h.008s0,0,0,0c.028.007.053.01.046,0a.4.4,0,0,0,.059.009c.015,0,.031,0,.012-.012a.8.8,0,0,0-.09-.061c-.064-.041-.1-.052-.068-.093,0,.012,0,.024.026.026a.308.308,0,0,1-.048-.089.281.281,0,0,0-.106-.115l-.027.035a1.9,1.9,0,0,1-.233-.2l-.039.031c-.086-.11-.347-.264-.34-.394-.051,0-.13-.141-.195-.186l.011-.041a.619.619,0,0,0-.173-.148c-.1-.2-.293-.275-.426-.4l.006-.009-.154-.1c.057.008-.042-.008-.078-.052a.443.443,0,0,1-.158-.16l-.088-.08c.114.069.025-.044.045-.079l-.078-.026c0-.016.007-.015.018-.014s.022,0,0-.02c-.051-.018-.165-.115-.226-.116a.115.115,0,0,0,.019.052c.007,0,.006,0,0,0l0,0,0,0a.082.082,0,0,0-.026,0c-.065-.068-.049-.034-.057-.018-.04-.11-.106-.123-.129-.215.006.044-.04,0-.088-.039s-.1-.084-.094-.036c-.025-.1-.04-.038-.048-.109a.767.767,0,0,0,.279.156l-.046-.085c.087-.014.137.148.192.165a.153.153,0,0,1-.082-.085l-.014.052a.652.652,0,0,0,.272.17c-.027-.034,0-.023.026-.013s.062.021.05-.014l-.056-.038c0-.01,0-.013.007-.015q-.28-.233-.563-.461c-.017.01-.052,0-.084-.01s-.08-.027-.072,0c-.035-.05,0-.057-.1-.121-.075-.027.041.1.055.131-.08-.044-.088-.035-.1-.026-.022-.09-.007-.2.069-.168l-.1-.083c.018.024-.012.012-.05-.017l.007-.015a.047.047,0,0,1,.012.007c-.83-.666-1.663-1.32-2.456-2.023l0,.029s0,0,0,0l0,.012-.013.016c0-.006.007-.018.011-.03l-.015-.014c-.025.066-.052.129-.077.194.027-.047.055-.1.041-.043l.021-.069c0,.026-.071.215-.072.258-.028.071-.059.14-.091.209,0,0,0,0,.007.007s0,.015.014-.006c-.019.053-.033.1,0,.034-.108.249-.215.5-.313.76a5.991,5.991,0,0,1-.33.746c-.012.034.009.021.023.012-.074.074-.021.095-.038.146l-.11.107c-.006.041.009.039.021.035s.01,0,.013,0c-.1.255-.268.469-.329.685-.024.024-.034.018-.043.012s-.019-.014-.044.029c.059-.043.033.028,0,.1s-.049.12-.025.112c-.1.057-.154.287-.226.206-.055.1,0,.1.021.078a.972.972,0,0,0-.125.315c-.054.052-.236.531-.36.6.078-.042.018.021.006.1l.072-.039-.08.149c-.012.033-.019.041-.022.039s-.01.009-.017.008-.022,0-.048.034a.3.3,0,0,0-.041.185l.014-.013-.032.072c-.012.021,0-.012,0-.045s.006-.09-.055,0c.01.008.015.134-.038.164.046-.084.012-.088-.016-.063l-.064.118.072-.014c-.18.34-.4.68-.577,1.049-.017-.012-.054.06-.069.093s-.045.084-.078.082l.012-.013c.006-.018,0-.026,0-.026S9.052,15.485,9.04,15.5Zm5.493-.658a.663.663,0,0,1,.068.014l.035-.006.037-.018-.016.014.076-.014c0-.008-.009-.014-.033-.016l-.028.015c.023-.021.037-.038.017-.041Zm2.18-.331.1-.014a.131.131,0,0,1-.011-.075Zm.4-.146a.042.042,0,0,1,.007-.015C17.094,14.352,17.108,14.355,17.111,14.364Zm.64-.211-.036.008c.035.023.09.053.16.091l.113.063c.018.01.049.026.057.032l.009.009.016,0c-.043-.051-.087-.1-.131-.149a1.472,1.472,0,0,0-.3-.123Zm4.562.1c-.143.036-.281.068-.41.1a4.614,4.614,0,0,0,.617-.043,2.206,2.206,0,0,1,.343-.019,4.281,4.281,0,0,1,.656-.039h.088a4.011,4.011,0,0,0-.592-.058l-.15-.037A2.47,2.47,0,0,0,22.313,14.255Zm-12.336-.41L10,13.826c0-.01,0-.02,0-.02S9.985,13.816,9.977,13.845Zm7.269-.351a1.887,1.887,0,0,0,.107.264.236.236,0,0,0,.112-.071c-.032-.034-.064-.069-.1-.1l-.065.039.051-.054-.1-.1A.045.045,0,0,0,17.246,13.494Zm-.39-.357a.328.328,0,0,0,.1.038l-.086-.082C16.87,13.108,16.868,13.13,16.856,13.137Zm-1.15-.89c.137.192.2.055.4.247.026.009-.083.006.039.089a.584.584,0,0,0,.278.093q-.208-.189-.419-.372a.136.136,0,0,1,.022.036.288.288,0,0,0-.131-.1l.06.083c-.061-.052-.077-.131-.181-.195C15.764,12.172,15.668,12.151,15.705,12.247Zm-.038.04h0C15.693,12.323,15.705,12.343,15.667,12.287Zm2.914-.045a.149.149,0,0,1,.036.018c-.031-.033-.042-.043-.044-.043S18.581,12.235,18.581,12.242Zm-1.037-.91c0-.039.007-.072.048-.06-.125-.083-.252-.163-.377-.244C17.324,11.129,17.435,11.23,17.543,11.332Zm-2.729-.019.01.006-.008-.006Zm-.027-.024-.113-.091A.249.249,0,0,0,14.787,11.29ZM12.05,9.068a.116.116,0,0,1,.014.014.175.175,0,0,0,.007-.026l-.012-.011ZM.979,7.523c-.033.026-.064.057-.057.055a.511.511,0,0,0,.043-.029l.124-.081C1.053,7.487,1.019,7.5.979,7.523Zm13.568-.956a7.138,7.138,0,0,1,.7-.157c-.068,0-.163.01-.276.019-.061.011-.122.024-.181.037s-.1.028-.147.043l.072-.027c-.113.025-.227.051-.34.079,0,.007.044,0,.142-.013l.125-.039C14.528,6.55,14.461,6.581,14.547,6.567Zm99.795,10.308.012.007Zm-43.849-.444-.016.01Zm8.288-.028v0Zm0,0a.008.008,0,0,1,0,0A.008.008,0,0,0,78.781,16.4ZM6.743,15.787l-.01.01h0Zm.086-.083-.086.083Zm3.9-3.309-.008,0Zm90.839-.779a.769.769,0,0,1-.328-.253,1.636,1.636,0,0,1-.183-.315,2.2,2.2,0,0,0-.15-.265c-.039-.12.06,0-.012-.146.026.12-.047,0-.118-.117-.06-.1-.119-.2-.117-.156-.027-.177-.249-.545-.123-.519-.068-.188-.1-.141-.091-.082-.08-.224-.124-.411-.181-.6,0-.032,0-.124-.01-.23a.4.4,0,0,0-.107-.253.266.266,0,0,0-.249-.049c-.084.018-.175.051-.231.056.132-.007-.012.032-.125.107l.131-.008c-.094.04-.188.083-.284.119-.056.028-.073.032-.075.028-.022.007-.024,0-.03,0s-.023-.011-.1.011a.988.988,0,0,0-.294.163l.033,0-.131.054c-.043.015.016-.017.067-.049s.116-.081-.065-.027a.5.5,0,0,1-.265.136c.164-.055.133-.078.068-.07l-.229.076.095.03c-.661.218-1.365.374-2.065.594,0-.02-.112.013-.223.046s-.252.074-.228.037l.028,0c.169-.064-.064-.025-.2.031.064-.014.031.008,0,.031s-.091.062.116,0l-.264.117a1.218,1.218,0,0,1-.454.2,4.026,4.026,0,0,0-.652.262.105.105,0,0,0,.035-.026,2.646,2.646,0,0,1-.556.237,1.258,1.258,0,0,1-.361.041h-.028l-.035-.021a1.2,1.2,0,0,1-.208-.033l-.151-.029a1.418,1.418,0,0,1-.4-.133c.007,0,.052.02-.006-.015a.474.474,0,0,1-.152-.1.542.542,0,0,1-.148-.289l.008.011a.5.5,0,0,1,.089-.446c.008.008.041-.029.1-.074a1.8,1.8,0,0,1,.23-.145,3.822,3.822,0,0,1,.417-.227c.065-.055.336-.212.456-.281,0,0,.01,0,.032-.01a4.27,4.27,0,0,1,.588-.286c.105-.055.056-.041.006-.026.219-.084.584-.282.667-.307.1-.042.1-.032.1-.022s0,.01.014.008c.236-.1-.056-.028.27-.134-.036.017-.1.045-.076.038.123-.046.365-.064.483-.118l-.084.019c.219-.1.548-.134.572-.186L96.351,8c.4-.1.163-.064.566-.164l0,.005c.171-.058.274-.057.348-.119l-.061.013c.214-.069.234-.071.454-.134a.711.711,0,0,1,.162-.05.879.879,0,0,1,.262-.1,2.734,2.734,0,0,0,.315-.115c-.154.076-.075.057-.021.053a.875.875,0,0,1,.263-.167.146.146,0,0,1,0-.1c.015-.041.056-.095.1-.188,0,.033-.03.08-.01.068s.033-.066.038-.081.009.006.009.019,0,.026.014.019c.015-.08.022-.14.031-.215a1.073,1.073,0,0,0,0-.126.783.783,0,0,0-.043-.158c.043.072.03,0,.039-.031-.023,0-.044-.064-.062-.129-.024-.088-.044-.175-.064-.1a2.478,2.478,0,0,0-.308-.526c-.016-.034-.058-.052-.121-.087a.368.368,0,0,1-.189-.185,3.537,3.537,0,0,1-.236-.556c0-.066-.107-.194-.136-.3l.035,0a.724.724,0,0,1-.1-.258.765.765,0,0,1-.014-.122.866.866,0,0,1,.014-.225c-.01.087.007.113.022.1A.172.172,0,0,0,97.686,4l.057-.082a.763.763,0,0,1,.089-.25H97.9a.628.628,0,0,1,.255-.186.183.183,0,0,1,.066-.06.808.808,0,0,1,.075-.045c.031-.012.065-.023.1-.033a.934.934,0,0,1,.345-.007.935.935,0,0,0,.191.134c.065.042.119.087.122.14a.636.636,0,0,1,.108.082c-.01-.061.006-.1.059-.012l.014.017-.009.06a1.709,1.709,0,0,1,.159.2.84.84,0,0,1-.035-.091c.018.038.03.072.045.106L99.413,4a.075.075,0,0,1-.013-.015.477.477,0,0,0,.1.16c.113.289.48.517.6.852-.022-.048-.061-.11-.085-.117a4.523,4.523,0,0,0,.427.622l.026-.037c.071.076.134.14.195.195l.086.085.082.072.038-.032a.555.555,0,0,0,.3.157,1.707,1.707,0,0,0,.175.014.55.55,0,0,1,.146.031.447.447,0,0,1,.184-.049,1.621,1.621,0,0,0,.252-.062l.045.025a1.892,1.892,0,0,0,.38-.139,5.668,5.668,0,0,0,1-.334l.007.009.306-.129c-.071.058.054-.041.151-.065a1.44,1.44,0,0,1,.384-.12l.2-.069c-.138.064-.087.063-.025.062.036,0,.074,0,.084.011l.118-.075c.023,0,.015.009,0,.019s-.037.028.021.013c.079-.051.337-.136.407-.2a.3.3,0,0,0-.092,0c-.01.006-.01,0,0,0h-.01l.011,0a.221.221,0,0,0,.031-.026c.168-.043.1-.038.091-.053a1.068,1.068,0,0,0,.21-.022.715.715,0,0,1,.235-.018c-.064-.014.042-.041.163-.056s.289-.006.215-.045c.169.068.121.011.222.08a.929.929,0,0,0-.624.081c.057,0,.115,0,.173,0-.1.077-.365.061-.451.109a.467.467,0,0,1,.207-.046l-.052-.036a1.724,1.724,0,0,0-.537.213c.083-.019.023.012-.027.042s-.073.047-.02.047l.112-.045c.019,0,.019.006.011.014.179-.061.359-.118.542-.168h-.006l.01,0c.013,0,.027-.009.041-.013a1.153,1.153,0,0,1,.677-.006.212.212,0,0,1,.138.016c.076.026.142.068.117.021.072.095.037.07.175.255.043.059.039.013.009-.055a.943.943,0,0,0-.109-.184c.144.129.142.134.159.128.038.171-.02.291-.1.175a1.049,1.049,0,0,1,.069.168c0,.015.007.029.01.043,0-.047.022.009.04.092l-.016.008a.036.036,0,0,1,0-.011c.1.561-.375.829-.766.982-.67.263-1.437.281-2.1.55s-1.356.455-2.035.687l.012.021.03-.009s.046-.01-.028.012l.028.052.008.034c-.007-.018-.024-.056-.038-.086l-.017,0c.048.114.095.226.143.34-.026-.083-.05-.156-.009-.074L101.81,8c.025.035.165.368.208.431l.152.376c0-.006,0,0,.01,0s.017.016,0-.022c.041.092.079.171.033.047.181.45.374.9.576,1.348a2.122,2.122,0,0,1,.234.723.538.538,0,0,1-.135.4.714.714,0,0,1-.355.19c-.061.023-.022.024,0,.026-.178.017-.156.069-.251.1a1.949,1.949,0,0,1-.278,0c-.112.025-.023.036-.03.048a1.048,1.048,0,0,1-.109.006A.814.814,0,0,1,101.565,11.615Zm-2.28-2.7.049-.009c.013-.012.026-.023.02-.023A.319.319,0,0,0,99.285,8.915Zm2.434-1.094.01.024s0,0,.015-.008l-.01-.021ZM98.6,7.27a1.328,1.328,0,0,1-.237.154c.028,0,.068-.014.115-.025l.048-.025a.623.623,0,0,0,.062-.05l-.027.031a1.111,1.111,0,0,0,.124-.083c0-.006-.023,0-.059.014l-.038.037c.024-.033.039-.057.025-.057Zm2.881-1.008c.067-.009.137-.023.213-.041-.021-.007-.049-.02-.044-.035A.986.986,0,0,0,101.482,6.262Zm-.9-.322a1.557,1.557,0,0,0,.2.167.042.042,0,0,0-.009-.034c-.022-.039-.087-.132-.144-.215l-.109-.182a.162.162,0,0,0-.129.05c.058.07.113.132.168.187l.074-.03Zm2.572-.326a1.534,1.534,0,0,0-.425.272c.247-.087.525-.185.847-.293l.1-.034a.323.323,0,0,1-.06.008.842.842,0,0,0,.267-.108L103.7,5.5a3.016,3.016,0,0,0,.454-.132c-.046-.02.084-.117-.085-.108-.4.085-.282.2-.756.344-.016.01-.007,0-.006-.013s0-.017-.019-.017A.442.442,0,0,0,103.153,5.614Zm3.371-.347a.407.407,0,0,0-.12-.175.273.273,0,0,0-.044-.03A.745.745,0,0,1,106.524,5.267ZM104.059,5.2l0,0C103.984,5.218,103.943,5.226,104.059,5.2Zm2.254-.177h0l-.009,0Zm-.91-.134ZM99.427,4.4l.221.318a3.178,3.178,0,0,0,.282.161l-.164-.17-.008-.065a1.327,1.327,0,0,0-.332-.244Zm6.1.373Zm-7.76-.633a.617.617,0,0,1,.047-.168c-.031,0-.059,0-.07-.027A.6.6,0,0,0,97.763,4.138ZM98.15,3.5a.061.061,0,0,1,.007-.021C98.117,3.5,98.143,3.495,98.15,3.5ZM41.921,11.207a.113.113,0,0,1,.025.011Zm69.783-.57a1.2,1.2,0,0,1-.186.049l-.025-.06a.346.346,0,0,1-.234-.1.292.292,0,0,1-.185-.146c-.063-.1-.08-.2-.1-.229.06-.094-.03-.224.041-.278a.529.529,0,0,1-.023-.092c-.034.034-.071.044-.052-.021V9.744l.045-.026a1.612,1.612,0,0,1-.012-.178.37.37,0,0,1-.023.067l.023-.079V9.5a.049.049,0,0,1,0,.014.267.267,0,0,0,0-.141c.072-.231-.092-.523.013-.785-.012.039-.017.095,0,.11,0-.22.081-.435.059-.578L111,8.13a1.885,1.885,0,0,1,.025-.429l-.047-.016a1.766,1.766,0,0,0,.035-.179,1.272,1.272,0,0,0,.01-.15c0-.031,0-.033,0-.045a.368.368,0,0,1,.025-.051c-.02.01-.027,0-.043-.013a.1.1,0,0,0-.032-.016.267.267,0,0,0-.074-.007l-.02-.039a1,1,0,0,0-.293,0,2.545,2.545,0,0,0-.774.006l0-.01-.248.031c.037-.019.015-.009-.025,0a.3.3,0,0,1-.1.013.773.773,0,0,1-.306-.015c-.052,0-.109,0-.167-.007.191-.016-.012-.049-.021-.09-.036.009-.073.015-.112.021-.042-.024.075-.022-.006-.04a.626.626,0,0,1-.191-.019c-.078-.015-.159-.049-.205-.059a.217.217,0,0,0,.064.069c.012,0,.011,0,0,0l.007.006L108.5,7.1a.26.26,0,0,0-.042-.006c-.15-.111-.1-.066-.108-.046a1.076,1.076,0,0,1-.136-.243.319.319,0,0,1-.02-.182c-.017.045-.037-.048-.038-.143s.022-.218-.02-.167c.072-.118.02-.089.083-.159a.672.672,0,0,0,.031.484.657.657,0,0,1,.017-.138.433.433,0,0,1,.047.183.286.286,0,0,0,.078.178.24.24,0,0,1-.082-.163c-.01.015-.02.032-.03.049a.383.383,0,0,0,.188.223.544.544,0,0,0,.221.056C108.632,7,108.67,7,108.712,7s.085-.006.048-.033a.7.7,0,0,1-.089-.016c-.01-.009-.008-.014,0-.017-.208-.068-.348-.222-.325-.563a.78.78,0,0,1,.054-.246c-.013-.016-.006-.062.009-.107s.054-.108.014-.092a.286.286,0,0,1,.08-.041c.025-.01.052-.034.133-.072.051-.03.016-.03-.043-.019a.7.7,0,0,0-.157.069c.112-.109.12-.1.116-.12a.211.211,0,0,1,.16.042c.024.025.016.048-.028.073a.561.561,0,0,1,.164-.023c-.034-.007.011-.018.075-.012l0,.014a.079.079,0,0,1-.019,0,.867.867,0,0,1,.245.058,1.626,1.626,0,0,0,.962,0,2.2,2.2,0,0,1,.673-.064c.328.035.625-.174.555-.653a9.606,9.606,0,0,1-.012-1.322c.015-.093.044-.192.071-.292-.022.063-.042.123-.027.054l-.023.093c0-.032.079-.29.077-.344a.587.587,0,0,0-.009-.291s0,0-.006,0-.008-.014,0,.015c-.013-.041-.024-.079-.027-.086a1.065,1.065,0,0,1-.015-.5.5.5,0,0,1,.137-.248.435.435,0,0,1,.264-.114,2.032,2.032,0,0,1,.553.05.853.853,0,0,1,.48.286c.035.039.023.01.014-.008a.677.677,0,0,0,.074.111.177.177,0,0,1,.054.069.691.691,0,0,1,.018.212c.013.055.02.043.027.031s0-.012.008-.01a1.292,1.292,0,0,1,0,.285,1.122,1.122,0,0,0,.008.236,1.9,1.9,0,0,0,.125.45c0,.1-.049-.012-.025.113.008-.09.039,0,.063.1s.031.206.047.167c-.023.069-.034.189-.056.276s-.037.143-.082.113c-.013.142.037.116.047.078-.01.151.03.286.12.3a.12.12,0,0,0,.091.043.613.613,0,0,0,.226-.021A4.541,4.541,0,0,1,114,4.887c-.107,0,0-.033.087-.093-.035,0-.071,0-.105,0,.072-.032.146-.062.219-.09.044-.021.057-.024.059-.02.017-.005.019,0,.025,0s.02.013.075,0a.657.657,0,0,0,.231-.118h-.025l.1-.032c.035-.009-.018.015-.06.04s-.082.056.056.034a.287.287,0,0,1,.211-.088c-.131.023-.107.053-.057.056.059-.013.12-.02.181-.031l-.07-.047a6.541,6.541,0,0,1,1.16-.056c.151,0,.3,0,.455,0,0,.021.1.021.195.036s.183.044.151.065l-.02-.01c-.137-.022.031.046.135.076-.045-.023-.014-.023.018-.023s.087,0-.071-.059a1.019,1.019,0,0,1,.223.063c.078-.015.232.075.336.253a.634.634,0,0,1,.086.3.971.971,0,0,1-.037.294.074.074,0,0,0,0-.037.623.623,0,0,1-.287.389,1.405,1.405,0,0,1-.273.113l-.03-.011a.864.864,0,0,1-.275.055.989.989,0,0,1-.313-.049h.007c.009,0,.021,0-.013-.012s-.075-.01-.123-.02-.111-.034-.208-.044l.008,0c-.05-.006-.1-.016-.151-.019l-.154,0c0-.024-.132-.01-.274.019a2.027,2.027,0,0,1-.343.069c-.056.029-.271.105-.365.147,0,0-.007,0-.025,0a3.03,3.03,0,0,1-.458.161c-.083.034-.044.029,0,.024-.17.039-.466.157-.536.15-.131.016-.051-.013-.088-.019-.195.019.036.048-.23.039.031,0,.088-.008.067-.01a.586.586,0,0,1-.188-.04c-.033-.01-.068-.021-.1-.027a.086.086,0,0,0-.064,0,.129.129,0,0,1,.048,0c-.067,0-.115.061-.126.147s-.014.15.009.162l.019-.018a4.08,4.08,0,0,1,.016.439l0,0c.007.135-.023.208.015.275l.006-.047c0,.168,0,.183-.01.354a.367.367,0,0,1,0,.127,1.615,1.615,0,0,1-.019.473c.006-.136-.017-.073-.035-.037a.356.356,0,0,1-.015.245c.048.022.1.052.078.271,0-.035,0-.089-.015-.068a.19.19,0,0,0-.006.09c-.007.01-.01,0-.014-.015s-.009-.026-.02-.015c.031.155-.031.253-.048.468-.006-.07-.026-.014-.049.006.06.029-.109.276-.011.213-.033.1-.062.215-.091.333s-.053.238-.1.363a.864.864,0,0,1-.173.311.431.431,0,0,1-.194.135c-.053.007-.157.1-.239.117l0-.034a.588.588,0,0,1-.194.071l-.229.043C111.851,10.693,111.8,10.675,111.7,10.637Zm.019-.007c.046-.022.092-.046.136-.071-.043,0-.087,0-.133,0A.109.109,0,0,1,111.723,10.63Zm-.444-.108a.043.043,0,0,1-.02,0C111.291,10.549,111.275,10.53,111.279,10.522Zm-.192-1.6-.031.043a.778.778,0,0,0,.127.291c0-.1,0-.191.006-.286-.05-.092-.1-.175-.133-.223Zm1.881-.485c.008,0,.017-.009.027-.039l0-.04c.012.037.023.06.033.035l0-.217c-.007.021-.021.051-.037.085,0,.013,0,.025,0,.038l.006.059-.009-.028C112.976,8.363,112.972,8.4,112.967,8.435Zm-1.687-.781a1.727,1.727,0,0,0-.163.336.184.184,0,0,0,.126.05c.007-.062.014-.124.024-.186l-.07-.035.073.008c.01-.063.022-.126.035-.188A.045.045,0,0,0,111.28,7.654ZM109.262,7.2c.061.008.093.014,0,0Zm-.027-.188c.028.035-.088.083.034.13a.447.447,0,0,0,.318-.041.694.694,0,0,1,.3-.052c.015-.006,0,.007,0,.02s.016.029.12.016a.945.945,0,0,0,.36-.126c-.251.005-.5.015-.752.024a.229.229,0,0,1,.056.011.516.516,0,0,0-.214.021l.134.02a.639.639,0,0,1-.136-.014A.831.831,0,0,0,109.315,7,.57.57,0,0,0,109.235,7.007Zm1.929.046a.635.635,0,0,1,.128.055.279.279,0,0,0-.128-.1C111.173,7.02,111.179,7.044,111.165,7.053Zm-2.7-1.036.006-.008v0A.089.089,0,0,0,108.461,6.017Zm.057-.075a.132.132,0,0,0-.017.029.416.416,0,0,1,.162-.1A.25.25,0,0,0,108.518,5.942ZM114.245,4.7c-.018.019-.036.037.038,0Zm-13.588,5.662,0,.012S100.658,10.366,100.657,10.363ZM6.752,7.673l.035,0Zm5.732-.308a.023.023,0,0,0,0,.007A.024.024,0,0,1,12.484,7.365Zm-2.7-1.756c-.053.006-.106.01-.16.012ZM113.217,4.226a.028.028,0,0,1,0,.009A.058.058,0,0,0,113.217,4.226Zm-102.6-1.4c0,.011.006.022.007.033C10.627,2.85,10.624,2.839,10.622,2.826Z" transform="translate(272.873 109.358)" fill="#fff" stroke="#fff" stroke-linejoin="round" stroke-miterlimit="10" stroke-width="0.6"/>
  </g>
</svg>
