<svg xmlns="http://www.w3.org/2000/svg" width="96" height="90" viewBox="0 0 96 90">
  <g id="loading_circle" data-name="loading/circle" transform="translate(0.002)" style="isolation: isolate">
    <path id="Path_55" data-name="Path 55" d="M1045.637,592.4c-3.733,1.989-7.558,2.613-8.033,2.377s6.074-2.512,5.952-2.527c-.582-.073-1.055-.071.573-1.3.6-.554-7.709,1.385-4.25,0s4.585.8,5.757.867a34.907,34.907,0,0,0-3.281-6.089c-.117-.171-.227-1-.345-1.167-2.717.164-2.781,2.087-5.386,1.042-2.142-.859,2.5-1.757,4.228-2.4-4.119-5.542-8.867-10.69-14.091-14.158.15.716-1.527,2.155-3.07,1.511-.052.078,1.591.98,1.432,1.062-.506.26-6.555,2.666-5.262.188-1.938-1.585-9.479,4.241-9.829,2.883-.5-1.76,7.333-6.431,10.944-6.257-.06-.074-1.168,2.533-1.222,2.451.385,1.01,4.334-2.171,5.854-2a39.053,39.053,0,0,0-5.132-2.921c-1.317-.165-2.439,1.23-3.762,1.244-.82.009.875-1.01,1.815-1.528.137-1.579-4.4-.842-6.463-1.434-2.054.345-7.471,1.378-9.211.931-2.338-.6,1.783-2.924,4.136-3.136a47.232,47.232,0,0,0-17.162.165c-5.8,1.118-13.354,2.276-21.849,9.561s-8.952,11.984-12.132,19.578c-2.88,6.879-4.368,14.757-4.86,24.05-.416,7.826,2.518,12.886,9.483,20.04s8.771,10.346,18.274,12.467,12.219,3.912,21.686,3.318,9.922-2.427,18.844-7.208,11.514-6.781,16.28-12.3,4.511-6.733,7.44-12.2,2.7-6.71,3.38-13.274,1.072-8.31-.67-12.98C1044,593.86,1045.86,592.278,1045.637,592.4Z" transform="translate(-950.953 -561.328)" fill="#eac788"/>
  </g>
</svg>
