<svg id="button_Button4-2_del" data-name="button/Button4-2/del" xmlns="http://www.w3.org/2000/svg" xmlns:xlink="http://www.w3.org/1999/xlink" width="40" height="40" viewBox="0 0 40 40">
  <defs>
    <clipPath id="clip-path">
      <rect id="矩形_55" data-name="矩形 55" width="40" height="40" fill="#2a4c24"/>
    </clipPath>
  </defs>
  <g id="组_96" data-name="组 96" clip-path="url(#clip-path)">
    <path id="路径_413" data-name="路径 413" d="M2587.154-1218.1c.521.521,1.228,1.467.708,1.988-.261.26-1.006-.5-1.348-.5s-1,.669-1.261.409c-1.245-1.245-1.367-1.124-2.612-2.37s-.992-1.5-2.24-2.751-.548-2.18-2.312-2.181-1.47.524-2.715,1.77-.611,1.884-1.858,3.132-1.372,1.123-2.619,2.371c-.261.26-.89.125-1.231.125a1.593,1.593,0,0,1-1.089-.267c-.521-.521-.139-1.275.382-1.8,1.245-1.246.751-1.741,2-2.986s1.929-.567,3.177-1.814,1.771-1.153,1.772-2.917-1.053-1.138-2.3-2.383-1.424-1.071-2.672-2.318-1.373-1.122-2.62-2.37c-.521-.521-.078-1.741.443-2.262a1.384,1.384,0,0,1,1.924-.1c1.246,1.245.731,1.76,1.976,3.005s1.823.673,3.07,1.921.6,2.578,2.363,2.579,1.593-.851,2.838-2.1.918-1.576,2.167-2.823,1.24-1.255,2.488-2.5c.521-.521,1.1-.281,1.624.24s.982,1.325.462,1.845c-1.246,1.246-1.85.642-3.095,1.887s-1.263,1.232-2.511,2.48-1.845,1.139-1.847,2.9.673,1.577,1.919,2.823,1.876.655,3.019,2S2585.906-1219.345,2587.154-1218.1Z" transform="translate(-2558.357 1246.166)" fill="#fff"/>
  </g>
</svg>
