<svg id="button_Button4-1_bottom_square" data-name="button/Button4-1/bottom/square" xmlns="http://www.w3.org/2000/svg" xmlns:xlink="http://www.w3.org/1999/xlink" width="40" height="40" viewBox="0 0 40 40">
  <defs>
    <clipPath id="clip-path">
      <rect id="矩形_53" data-name="矩形 53" width="40" height="40" transform="translate(0 0)" fill="#fff"/>
    </clipPath>
  </defs>
  <path id="路径_461" data-name="路径 461" d="M2845.926,27.92,2860.115,24h11.829c.868,0-1.8,25.857-1.8,25.857l-25.335.857V36.572Z" transform="translate(-2838.146 -17.355)" fill="#fff"/>
  <g id="组_66" data-name="组 66" transform="translate(0 0)" clip-path="url(#clip-path)">
    <path id="路径_387" data-name="路径 387" d="M3069.646-900.868l-3.237-.55-3.237.921-3.235-.664-3.237-.173-3.239.383-3.241-.082-3.241.367-3.009.807-.751,3.009-.514,3.237.1,3.237.279,3.236-.093,3.236.427,3.239-.691,3.241-.168,3.241,1.623,2.8,2.8,1.7,3.237-.533,3.237.175,3.236-.229,3.236.318,3.24-.765,3.24.125,3.241.7,2.507-1.783,1.695-2.508-.269-3.236.343-3.237.316-3.236-.115-3.236.036-3.239-.071-3.241-.593-3.241-1.341-2.509Zm-13.321,27.977-2.684-.55-2.688.921-2.689-.664-2.181-2.354-.383-2.684.082-2.689-.367-2.689,1.516-1.077,1.573,1.077-.514,3.088.208,3.247,2.167-2.409,2.245-2.113,1.877-2.481,2.017.489-.119,1.41-1.847,2.5-2.565,1.792-1.794,2.521,3.058.156,3.088-.229,1.1,1.419Zm14.621-14.547-1.314.764-1.685-.764.664-3.088-.125-3.535-2.435,2.551-2.237,2.121-1.919,2.438-1.072.005-1.112.035.363-1.86,2.1-2.247,1.981-2.376,2.242-2.1-3.076.434-3.088-.691-.913-1.081.913-1.377,2.684.546,2.688-.533,2.689.175,2.753,2.523-.319,2.685.765,2.69Z" transform="translate(-3038.398 905.549)" fill="#fff"/>
  </g>
</svg>
