<svg id="button_icon_fb" data-name="button/icon/fb" xmlns="http://www.w3.org/2000/svg" width="40" height="40" viewBox="0 0 40 40">
  <path id="Path_426" data-name="Path 426" d="M24.637-80.258H5.419a3.391,3.391,0,0,0-3.391,3.391v19.217a3.391,3.391,0,0,0,3.391,3.391H16.1c.007-3.116-.012-6.778,0-9.891,0,0-2.675-.014-3.412,0v-3.819l3.424.006A34.253,34.253,0,0,1,16.2-72.17,4.47,4.47,0,0,1,20.574-76.1c.986-.042,3.606.023,3.606.023v3.534s-1.8.01-2.4.01A1.512,1.512,0,0,0,20.1-70.842v2.882l3.818,0-.475,3.816-3.335-.006s-.011,6.756,0,9.89h4.526a3.391,3.391,0,0,0,3.391-3.391V-76.867A3.391,3.391,0,0,0,24.637-80.258Z" transform="translate(4.973 87.258)" fill="#2a4c24"/>
  <rect id="Rectangle_63" data-name="Rectangle 63" width="40" height="40" fill="none"/>
</svg>
