<svg id="button_Button4-3_ham" data-name="button/Button4-3/ham" xmlns="http://www.w3.org/2000/svg" xmlns:xlink="http://www.w3.org/1999/xlink" width="40" height="40" viewBox="0 0 40 40">
  <defs>
    <clipPath id="clip-path">
      <rect id="矩形_59" data-name="矩形 59" width="40" height="40" fill="#fff"/>
    </clipPath>
  </defs>
  <g id="组_105" data-name="组 105" clip-path="url(#clip-path)">
    <path id="路径_422" data-name="路径 422" d="M500.813,901.467c-1.667,0-1.667.335-3.335.335s-1.667-.005-3.335-.005-1.667-.2-3.333-.2-1.669.433-3.337.433-1.669-.153-3.339-.153-1.669-.927-3.339-.927c-.736,0-1.111-.125-1.111-.861s.375-1.695,1.111-1.695c1.667,0,1.667-.057,3.335-.057s1.668.748,3.335.748,1.667-.43,3.334-.43,1.668.635,3.337.635,1.669-.525,3.339-.525,1.669.316,3.339.316c.737,0,1.04.271,1.04,1.008S501.549,901.467,500.813,901.467Zm0-8.678c-1.667,0-1.667.335-3.335.335s-1.667-.006-3.335-.006-1.667-.2-3.333-.2-1.669.432-3.337.432-1.669-.153-3.339-.153-1.669-.927-3.339-.927c-.736,0-1.111-.125-1.111-.861s.375-1.694,1.111-1.694c1.667,0,1.667-.057,3.335-.057s1.668.748,3.335.748,1.667-.431,3.334-.431,1.668.635,3.337.635,1.669-.525,3.339-.525,1.669.317,3.339.317c.737,0,1.04.271,1.04,1.007S501.549,892.789,500.813,892.789Zm0-8.659c-1.667,0-1.667.335-3.335.335s-1.667-.005-3.335-.005-1.667-.2-3.333-.2-1.669.433-3.337.433-1.669-.153-3.339-.153-1.669-.927-3.339-.927c-.736,0-1.111-.125-1.111-.861s.375-1.694,1.111-1.694c1.667,0,1.667-.058,3.335-.058s1.668.748,3.335.748,1.667-.43,3.334-.43,1.668.635,3.337.635,1.669-.525,3.339-.525,1.669.316,3.339.316c.737,0,1.04.271,1.04,1.008S501.549,884.13,500.813,884.13Z" transform="translate(-470.729 -871.394)" fill="#fff"/>
  </g>
</svg>
