<svg xmlns="http://www.w3.org/2000/svg" width="394.189" height="389.754" viewBox="0 0 394.189 389.754">
  <g id="button_icon_forward" data-name="button/icon/forward" transform="translate(-2259.535 1500.236)">
    <path id="Path_2454" data-name="Path 2454" d="M2476.448-1499.937a44.05,44.05,0,0,1,5.7.352,156,156,0,0,1,21.089,4.692l3.654.99a52.919,52.919,0,0,0,9.141,1.208c5.105.395,10.892.842,16.416,3.133,5.62,2.33,10.01,6.2,13.882,9.606a49.013,49.013,0,0,0,7.136,5.6,148.123,148.123,0,0,1,16.958,11.973l3.548,2.755a189.821,189.821,0,0,1,18.824,16.705,150.433,150.433,0,0,1,13.388,16.014l2.576,3.381c1.473,1.917,4.009,3.805,6.695,5.8,4.225,3.145,9.014,6.71,12.171,12.168,3.064,5.3,4.009,11.074,4.843,16.172a42.4,42.4,0,0,0,2.049,8.849,84.508,84.508,0,0,0,3.912,7.812c2.547,4.7,5.181,9.556,6.727,15.337.732,2.738,1.727,5.459,2.717,8.2,1.872,5.182,3.808,10.541,4.587,16.52a201.9,201.9,0,0,1,1.258,25.749c0,6.029-1.592,11.61-3,16.535a63.17,63.17,0,0,0-2.072,8.716,44.485,44.485,0,0,0,.275,9.228c.483,5.155,1.03,11-.535,16.854-1.556,5.818-4.187,10.936-6.731,15.885-1.338,2.6-2.677,5.185-3.762,7.8-2.317,5.589-6.066,9.968-9.375,13.831a51.728,51.728,0,0,0-5.473,7.142c-1.217,2.1-1.99,5.2-2.809,8.482-1.279,5.124-2.729,10.932-6.56,15.917-3.612,4.7-7.972,8.255-12.189,11.693a88.821,88.821,0,0,0-6.749,5.865c-4.186,4.186-8.869,7.1-13.4,9.909-2.5,1.555-5.017,3.1-7.344,4.887-2.308,1.774-4.437,3.788-6.574,5.791-3.9,3.656-7.937,7.436-13.085,10.415a195.068,195.068,0,0,1-22.873,11.328c-2.654,1.1-5.25,2.489-7.864,3.872-4.851,2.566-9.867,5.219-15.661,6.767-5.668,1.515-11.264,1.663-16.676,1.807a88.47,88.47,0,0,0-9.041.531c-2.636.344-5.291.849-7.963,1.353a92.9,92.9,0,0,1-17.469,2.131c-6.116,0-11.637-1.838-16.508-3.459a49.648,49.648,0,0,0-8.625-2.347,189.691,189.691,0,0,1-24.725-4.859,189.331,189.331,0,0,1-23.86-8.112,76.347,76.347,0,0,0-8.558-2.758c-5.106-1.44-10.385-2.93-15.49-5.882-5.161-2.986-9.264-6.765-13.233-10.418-2.14-1.971-4.272-3.95-6.559-5.707a51.866,51.866,0,0,0-7.913-4.568c-4.561-2.31-9.731-4.929-13.982-9.179-6.034-6.034-12.177-12.177-17.455-19.046-3.619-4.709-5.722-10.119-7.578-14.892a62.452,62.452,0,0,0-3.719-8.4,191.479,191.479,0,0,1-11.293-22.763,141.437,141.437,0,0,1-5.992-19.381l-1.281-4.928a39.607,39.607,0,0,0-3.818-8.076c-2.577-4.613-5.5-9.84-6.308-16.056-.754-5.785-.2-11.389.329-16.808.3-3.047.614-6.1.614-9.1,0-6.071,1.717-11.578,3.232-16.436a54.364,54.364,0,0,0,2.216-8.638,64.3,64.3,0,0,0,.255-9.14c-.086-5.021-.185-10.712,1.336-16.4a195.214,195.214,0,0,1,8.3-24.2,105.552,105.552,0,0,1,8.724-15.846c1.324-2.1,2.648-4.2,3.885-6.34,1.274-2.2,2.46-4.46,3.647-6.716a103.393,103.393,0,0,1,9.249-15.306c1.51-1.964,2.962-4.005,4.419-6.05a108.633,108.633,0,0,1,11.4-14.212c4.181-4.181,8.956-7,13.573-9.733a75.117,75.117,0,0,0,7.61-4.891,47.355,47.355,0,0,0,6.341-6.569c3.38-3.943,7.21-8.412,12.481-11.462,5.644-3.265,11.841-3.568,17.309-3.835,3.412-.167,6.635-.324,8.677-1.171,2.54-1.053,4.991-2.276,7.442-3.491a83.57,83.57,0,0,1,15.771-6.476l3.05-.822a162.632,162.632,0,0,1,21.69-4.8c5.431-.708,10.886-.229,16.406.338a87.33,87.33,0,0,0,8.934.624,81.834,81.834,0,0,0,8.988-.677A97.544,97.544,0,0,1,2476.448-1499.937ZM2456.8-1128.183a78.212,78.212,0,0,0,14.135-1.82c3.01-.567,6-1.126,8.971-1.514a106.48,106.48,0,0,1,10.891-.675c4.57-.121,8.887-.236,12.505-1.2,3.826-1.022,7.744-3.095,11.893-5.289,3.116-1.648,6.222-3.276,9.385-4.588a177,177,0,0,0,20.754-10.281c3.361-1.945,6.485-4.872,9.792-7.97,2.566-2.4,5.143-4.8,7.913-6.928,2.8-2.15,5.8-4.035,8.814-5.9,3.831-2.38,7.45-4.628,10.168-7.346a106.779,106.779,0,0,1,8.1-7.089c3.576-2.916,6.954-5.669,9.29-8.709,1.547-2.014,2.432-5.557,3.369-9.309,1.034-4.142,2.206-8.838,4.693-13.136a65.755,65.755,0,0,1,7.38-9.834c2.673-3.122,5.2-6.071,6.42-9.019,1.27-3.061,2.816-6.092,4.381-9.137,2.208-4.295,4.293-8.352,5.35-12.3.732-2.74.378-6.522,0-10.526a59.106,59.106,0,0,1-.2-13.234,77.372,77.372,0,0,1,2.612-11.327c1.186-4.158,2.307-8.086,2.307-11.6a186.165,186.165,0,0,0-1.107-23.422c-.526-4.035-2.052-8.259-3.668-12.732-1.166-3.228-2.314-6.441-3.177-9.666-1-3.723-3.019-7.455-5.161-11.406a102.515,102.515,0,0,1-4.716-9.5,56.928,56.928,0,0,1-3.186-12.839c-.641-3.919-1.246-7.621-2.659-10.062-1.3-2.248-4.234-4.432-7.339-6.744-3.386-2.521-7.225-5.379-10.219-9.276l-2.645-3.472a134.725,134.725,0,0,0-11.773-14.162,172.34,172.34,0,0,0-17.064-15.161l-3.655-2.837a132.448,132.448,0,0,0-14.9-10.583,62.838,62.838,0,0,1-10.018-7.666c-3.1-2.726-6.02-5.3-8.881-6.488s-6.778-1.494-10.909-1.814a66.935,66.935,0,0,1-12.4-1.765l-3.742-1.014a140.184,140.184,0,0,0-18.68-4.209c-3.986-.52-8.006.011-12.065.459a99.835,99.835,0,0,1-10.964.785,105.314,105.314,0,0,1-10.773-.719c-4.117-.423-8.19-.922-12.239-.395a146.714,146.714,0,0,0-19.314,4.323l-3.105.837a68.885,68.885,0,0,0-12.424,5.214c-2.811,1.394-5.628,2.782-8.542,3.991-4.932,2.045-10.117,2.3-14.692,2.522-3.593.176-7.307.357-9.174,1.437-2.614,1.513-5.147,4.467-7.828,7.6a61.1,61.1,0,0,1-9.04,9.127,91.426,91.426,0,0,1-9.418,6.113c-3.823,2.259-7.433,4.394-10,6.965a93.825,93.825,0,0,0-9.473,11.931c-1.583,2.222-3.164,4.437-4.8,6.571a88.564,88.564,0,0,0-7.593,12.722c-1.3,2.468-2.6,4.938-4,7.347-1.349,2.331-2.789,4.622-4.233,6.916a90.658,90.658,0,0,0-7.329,13.151,177.18,177.18,0,0,0-7.538,21.954c-.869,3.251-.8,7.23-.728,11.442a78.712,78.712,0,0,1-.4,11.777,68.432,68.432,0,0,1-2.881,11.67c-1.243,3.984-2.416,7.748-2.416,11.078,0,3.582-.343,7.225-.7,10.861-.454,4.616-.882,8.977-.394,12.721.363,2.783,2.214,6.1,4.173,9.6a53.779,53.779,0,0,1,5.494,12.208l1.328,5.1a125.988,125.988,0,0,0,5.183,16.958,173.622,173.622,0,0,0,10.246,20.644,76.67,76.67,0,0,1,4.915,10.889c1.555,4,3.024,7.78,5.073,10.446,4.564,5.939,10.284,11.66,15.817,17.192,2.313,2.313,5.795,4.076,9.481,5.943a65.838,65.838,0,0,1,10.747,6.353c2.708,2.081,5.249,4.4,7.784,6.738,3.4,3.131,6.612,6.088,10.054,8.079,3.15,1.822,7.14,2.948,11.364,4.139a94.351,94.351,0,0,1,10.566,3.455,171.481,171.481,0,0,0,21.613,7.35,171.879,171.879,0,0,0,22.4,4.4,63.5,63.5,0,0,1,11.983,3.118C2449.894-1129.416,2453.6-1128.183,2456.8-1128.183Z" transform="translate(0.002 -0.299)" fill="#fff"/>
    <path id="Path_2455" data-name="Path 2455" d="M2641.7-1306.887c0-.754,1.14-2.391,1.131-3.143-2.543.146-5.007.755-6.781.793-4.3.091-5.784.384-2.1-.5,1.375-.331,3.587-.056,6.547-.57.755-.132,1.475-1.079,2.218-1.2-.064-2.581-.127-5.5-.294-8.051-3.865.029-7.8,1.063-10.794.954-.191.011-.346-1.145-.539-1.137-1.835.067-4.338-.011-7.2.179-2.2.146-4.63.281-7.166.465-2.325.168-4.759.133-7.18.309s-4.726,1.878-7.06,2.04c-2.529.175-5.042-.985-7.258-.855-2.815.166-5.246.992-7.14,1.032-4.376.092-5.824-.894-1.173-2,1.6-.38,4.037-.328,7.164-.908,2.179-.4,4.41-.842,6.674-1.154,2.223-.306,4.557.184,6.8-.042s4.474-.816,6.7-.969c2.3-.157,4.588.533,6.787.445,2.342-.094,4.563-1.989,6.72-2.015,2.413-.028,4.7,1.159,6.782,1.2,2.049-.145,5.061-.134,7.893-.323-.205-2.423-.388-5.389-.686-7.784-.3-2.411-1.215-4.737-1.606-7.119-.394-2.4-.751-4.8-1.236-7.162s-1.447-4.639-2.024-6.985-.132-4.992-.8-7.313-2.87-4.186-3.63-6.48-1.249-4.674-2.1-6.937-1.525-4.6-2.464-6.824-1.318-4.723-2.343-6.913-1.735-4.576-2.846-6.725-3.6-3.567-4.79-5.671-2.522-4.106-3.8-6.162-2.722-3.969-4.078-5.974-2.512-4.118-3.945-6.069-1.807-4.717-3.315-6.611-4.085-2.908-5.665-4.742-2.988-3.8-4.639-5.573-3.723-3.1-5.441-4.808-2.756-4.1-4.54-5.741-3.345-3.545-5.191-5.113-3.584-3.3-5.491-4.8-4.277-2.393-6.241-3.813-3.865-2.928-5.883-4.271-4.419-2.062-6.488-3.325-4.083-2.57-6.2-3.752-3.986-2.8-6.148-3.9-4.017-2.859-6.221-3.871-4.483-1.914-6.725-2.839-4.767-1.148-7.044-1.984-4.6-1.525-6.905-2.271-4.7-1.149-7.039-1.8-4.4-2.368-6.757-2.93-4.932-.149-7.315-.618-4.594-1.888-6.994-2.263-4.877-.228-7.291-.509c-2.4-.279-4.814-.648-7.237-.835-2.406-.186-4.873.381-7.3.287-2.41-.092-4.826.493-7.259.493-2.318,0-4.646-1.274-6.944-1.189-2.316.085-4.553,1.4-6.847,1.572-2.31.171-4.761-1.2-7.047-.944-2.3.256-4.614.64-6.89.979s-4.436,1.591-6.7,2.016-4.652.381-6.9.89-4.2,2.263-6.423,2.856-4.849.3-7.05.978c1.4.034,2.03-.065.792.212-3.239.788-2.779,2.663-6.015,3.461-.147.033-1.159-1.123-2.167-1.131-2.416.857-4.786,1.9-7.155,2.852s-4.8,1.809-7.131,2.859-4.773,1.92-7.056,3.066-4.781,3.337-7.015,4.578c3.485-.171,9.331.112,6.356.905-.831.9-3.776,1.578-7.486,2.659-2.254.658-4.952,1.043-7.776,1.6-1.847,1.172-3.981,1.881-5.788,3.111s-3.356,2.948-5.114,4.247c1.9,1.12,2.27-.456,4.468-.306,2.462.168-2.072-.17-5.112.032-1.136.846-1.825,1.826-2.941,2.7,3.366.314,4.724,1.546-1.243,1.473-1.806,1.429-3.049,3.379-4.8,4.871s-4.509,1.847-6.2,3.4-2.641,3.911-4.278,5.53-3.242,2.333-4.818,4.011c6.358.146,3.48,2.508-2.144,3.281-.1.013.447.368.349.381-1.873,2.065-3.873,3.652-5.652,5.8,1.358-.434,3.814-.183,7.3-.581,2.4-.273,5.038-.895,7.74-1.09s5.374-.792,7.8-.857a35.927,35.927,0,0,1,7.749.588c3.564.728,2.39,2.261-2.674,3.13-2,.342-4.692-.326-7.769-.149-2.292.132-4.849,1.527-7.672,1.516-2.391-.009-5-.139-7.736-.28a13.423,13.423,0,0,1-5.562-1.179c-1.106,1.348-2.447,2.256-3.516,3.636,2.193.021,4.453.524,6.793.532a32.579,32.579,0,0,0,8.288-1.089c.4.091-2.718.735-8.189,1.159-2.279.176-4.937.737-8.04,1-1.276,1.683-2.512,3.291-3.731,5.018,2.129-.225,4.409-.545,6.843-.784,2.222-.218,4.476-1.112,6.828-1.333,2.282-.214,4.654.159,6.951-.05,2.338-.213,4.642-.569,6.882-.768,2.412-.214,4.807.41,6.968.222,2.565-.223,4.844-1.112,6.837-1.282a38.434,38.434,0,0,0,6.941-1.165c4.153.164,4.385,2.84.295,3.118-3.534.24-3.539.158-7.073.4s-3.539.152-7.073.393-3.518.481-7.052.722-3.506.631-7.039.872-3.571-.275-7.106-.034-3.567-.178-7.1.063-3.749-.478-7.181.418c-1.155,1.666-2.7,3.516-3.8,5.219s-2.511,3.772-3.557,5.513c1.043-.057,3.187-.79,2.988.02-.377,1.538-1.3.547-3.126,1.566-.281.477-1.236,1.38-1.514,1.863.48-.039,1.741.247,2.217.221.175-.01.319-.26.5-.263,4.109-.057,4.107-.206,8.216-.263s4.12.455,8.232.4,4.091-1.542,8.2-1.6c.161,0,.318.347.476.336,2.255-.146,4.162-.193,5.716-.226,3.926-.082,8.528.015,5.685.212s-2.828-.1-5.665-.062-2.829.536-5.666.575c-.194,0-.36.143-.553.156-2.077.142-4.576-.946-7.264-.664-2.166.228-4.472,1.191-7.054,1.534-2.207.292-4.562.717-7.085,1.109-2.233.346-3.994,1.764-6.482,2.2-1.146,2.09-2.814,3.393-3.881,5.531s-2.1,4.284-3.082,6.461-1.242,4.642-2.141,6.857-3.362,3.823-4.174,6.072-1.254,4.643-1.98,6.922-1.4,4.582-2.039,6.888.044,4.93-.5,7.259-2.078,4.423-2.534,6.773c-.454,2.335-1.357,4.626-1.721,6.992s.342,4.868.069,7.248c-.272,2.362-.2,4.755-.38,7.143-.181,2.371-.34,4.736-.431,7.131-.09,2.375-.639,4.745-.639,7.142s-.665,4.789-.576,7.153c.09,2.382,1.41,4.693,1.588,7.052.18,2.377.709,4.691.978,7.042.27,2.368.728,4.672,1.087,7.012.361,2.355-.742,4.952-.294,7.277s1.758,4.5,2.3,6.8,1.234,4.585,1.86,6.869,1.81,4.4,2.524,6.662.36,4.887,1.162,7.117,1.363,4.59,2.25,6.788,1.644,4.5,2.615,6.662,2.108,4.3,3.162,6.42,3.434,3.573,4.569,5.656,1.072,4.861,2.286,6.9,2.924,3.8,4.216,5.79,2.061,4.369,3.428,6.308,4.023,2.948,5.463,4.835,1.894,4.564,3.405,6.4,3.216,3.53,4.8,5.3,3.339,3.4,4.986,5.113,3.675,3.047,5.385,4.693,3.284,3.442,5.056,5.023,3.851,2.8,5.683,4.309,3.779,2.851,5.667,4.292,3.941,2.614,5.884,3.982,3.258,3.643,5.251,4.937,4.3,2.088,6.338,3.3,3.767,2.991,5.854,4.128,4.32,2.013,6.45,3.069,4.658,1.234,6.827,2.208,4.311,1.926,6.517,2.816,4.426,1.639,6.665,2.443,4.424,1.647,6.693,2.364,4.368,1.916,6.663,2.546,4.393,2.028,6.712,2.568,4.71.771,7.048,1.222,4.868-.339,7.222.022,4.7.4,7.066.669c2.351.268,4.572,1.9,6.948,2.075,2.359.178,4.739.53,7.122.62,2.363.089,4.763-.522,7.148-.522,2.419,0,4.859.768,7.255.676,2.416-.092,4.734-1.778,7.125-1.962,2.41-.185,4.755-.624,7.138-.9,2.4-.279,5,1.01,7.373.641,2.387-.372,4.782-.812,7.138-1.274s4.61-1.566,6.946-2.12,4.754-.909,7.068-1.554,4.556-1.617,6.844-2.352,4.542-1.613,6.8-2.438,4.737-1.14,6.961-2.053,4.355-2.113,6.542-3.111,3.912-2.965,6.059-4.048,4.171-1.53,6.275-2.7c-2.155.224-4.029.483-6.517.8-2.183.275-4.588-.039-7.04.318-2.2.32-4.31,1.944-6.733,2.337-2.209.359-4.793-.877-7.2-.451-2.547.451-4.7,1.357-6.694,1.659-2.777.421-5,.808-6.8.979-5.505.523-6.092-.377-4.618-1.331-2.206.342-5.188,1.028-7.741,1.3-2.247.243-4.631.305-7.162.483-2.273.16-4.609,1.345-7.124,1.442-2.293.089-4.714-.733-7.216-.7-2.306.026-4.7.121-7.19.091-2.316-.028-4.707-.146-7.188-.228-2.324-.076-4.7-.544-7.17-.671-2.867-.147-5.345.265-7.41.1-3.506-.278-6.089.316-7.53,0-3.324-.73-1.351-2.211,3.578-3.054,1.973-.337,4.526.019,7.391-.322,2.235-.265,4.546-1.957,7.191-2.22,2.331-.231,4.776-.778,7.339-1.005,2.383-.211,4.887-.03,7.4-.234,2.419-.2,4.927.146,7.411-.042,2.451-.185,4.862-1.181,7.322-1.356,2.479-.178,5.062,1.283,7.494,1.118,2.511-.171,4.9-1.554,7.3-1.71,2.552-.166,5.1.908,7.459.761,2.623-.164,5.082-.61,7.365-.747,2.782-.167,5.233-.988,7.342-1.109,4.6-.265,7.212-.49,7.212-.49-3.052,3.118-1.578,2.421-7.254,4.7,1.7-.21,3.263-.713,4.958-.806.215-.013.442.678.66.672,3.793-.053,3.793-.048,7.586-.1s3.776-1.455,7.571-1.508,3.826,1.049,7.585.519c2.287-1.289,4.318-2.9,6.549-4.276s4.068-2.152,6.235-3.627c-2.817-.145-4.253-.983-5.749-1.186-4.271-.579-3.641-1.148-.121-1.935,1.606-.359,3.92.092,6.477-.252,1.948-.262,3.732-1.8,6.018-2.031,2.579-1.916,5.625-3.936,8.1-5.983-3.616-1.094-4.022.431-7.792.688s-3.777.138-7.547.395-3.749.575-7.52.832-3.707,1.207-7.479,1.464-3.871-1.206-7.642-.949-3.648,2.087-7.422,2.344-3.88-1.3-7.653-1.047a12.789,12.789,0,0,1-2.278-.132c-1.919-.2.618-.7,5.934-1.354,2.114-.26,4.654-.56,7.474-.86,2.319-.247,4.83-.6,7.472-.865,2.406-.239,5.083,1.224,7.646.98,2.463-.234,4.907-1.162,7.42-1.393s5.035-.337,7.5-.559c2.562-.23,4.99-1.42,7.4-1.632,2.637-.232,5.017-.307,7.348-.509,1.608-1.394,3.913-1.772,5.472-3.218s2.026-4.034,3.535-5.533,3.32-2.68,4.777-4.231,3.4-3.253,4.808-4.853c-3.688-.542-7.448-1.269-9.174-2.084-.874-.412-.313-.864,1.135-1.058,3.034-.407,3.072-.124,6.1-.531s3.114-.189,5.977-1.27c1.739-2.133,2.88-4.634,4.528-6.841s3.409-3.2,4.954-5.484c-5.854-.065-6.684-.5-5.437-.793.973-.231,2.94-1.9,6.282-2.179,1.867-2.806,3.614-4.656,5.327-7.566-2.922,0-4.908-.375-6.926-.508-5.3-.351-7.239-.865-4.82-1.688,0-.013.719-.267.716-.278-.283-2.236-.724-2.043,1.2-2.576,2.664-.29,4.963-.845,7.114-1.1,2.966-.349,5.725-.505,7.551-.674,1.131-2.128,2.652-4.358,3.7-6.533s1.28-4.776,2.245-6.992c-5.221.435-6.293-.53-5.249-.975a49.946,49.946,0,0,1,5.567-1.26c.817-1.933,2.177-3.315,2.918-5.287s1.117-3.85,1.8-5.841c-2.651-.667-4.477-1.473.14-2.215.333-.048,1.316.93,1.489.642.822-2.474-.081-5.7.639-8.215s1.818-4.379,2.429-6.927c-2.483.449-4.721.674-7.6,1.068a56.075,56.075,0,0,1-7.177,2.416c-3.949.9-6.749.545-6.912-.722-.029-.234-.284-.248-.269-.456-2.9.086-5.8.6-8.523.389-3-.236-5.777-1.371-8.3-2.092-2.067-.591-4.443-1.993-7.053-2.5-2.492-.485-5.18-.257-7.443-.617a72.69,72.69,0,0,0-7.35-.8c3.425.02,3.428-.493,6.853-.472s3.423.517,6.85.537,3.432-.829,6.858-.808,3.426.191,6.852.211,3.429-.158,6.856-.138,3.417,1.511,6.843,1.531,3.428.072,6.856.092,3.434-.507,6.865-.487,3.42.229,6.709-.748c.5-2.229,1.343-3.908,1.765-6.165s1.008-4.482,1.347-6.754,1.066-4.5,1.322-6.781c.254-2.268-.929-4.685-.758-6.977.17-2.276.179-4.547.265-6.845C2641.984-1302.32,2641.7-1304.586,2641.7-1306.887Zm-59.8-5.931c.132-.016.4,1.863.542,1.86,2.649-.064,2.636-.6,5.286-.663.131,0,.278-.205.4-.218,1.71-.2,3.186-1.255,2.078-1.112-1.076.14-.974.754-2.059.78-.157.005-.351-.191-.5-.171-1.456.2-3.407,1.7-6.666,2.6-4.531,1.25-5.411.44-4.152-.292C2577.729-1310.548,2579.379-1312.538,2581.9-1312.818Zm-43.106-30.4c1.412.285,2.056,2.493,2.582,2.851a47.283,47.283,0,0,1,4.954-1.038c2.964-.241,5.545-.627,7.812-.78,3.266-.221,5.86.344,7.856.279,6.828-.219,6.75-.647,4.068.206-1.772.564-4.74,1.025-7.655,1.629-3.054.632-5.874,2.28-7.5,2.575-.793.142-1.814-.979-2.68-1.07-1.907-.2-5.286-.836-7.6-1.347-.08.038-.375,1.39-.461,1.426,1.668.122.68-1.041-4.974-.12-.71.111-1.19,1.727-1.916,1.823-2.17.354-4.871-.642-7.76-.386-2.328.206-4.819,1.08-7.581,1.2-2.4.1-4.953.8-7.659.818-2.436.015-5-.547-7.671-.612-2.459-.06-5.023-.073-7.671-.21-3.2-.164-5.484-1.12-7.15-1.351-4.709-.652-3.809-.831.255-1.715,1.831-.4,4.39.01,7.256-.37,2.2-.292,4.425-2.4,7-2.659,2.327-.235,4.875.717,7.34.522,2.411-.19,4.867.029,7.262-.11,2.494-.145,4.919-.387,7.234-.462,2.629-.085,5.072-.695,7.242-.67C2534.512-1342.758,2537.236-1343.538,2538.8-1343.219Zm18.131,139.479c-.717,1.495-4.573.917-7.5,1.192-3.566.335-6.733.979-6.552.356,0,0,3.278-1.152,6.782-2.029C2553.334-1205.142,2557.74-1205.436,2556.928-1203.74Zm-4.9,20.587c-3.107.427-5.974-1.575-8.006-1.95-3.7-.682-4.662-.876,1.373-1.225,2.82-.162,5.112-.432,6.975-.446,5.4-.039,6.45-.4,5.687.246A10.505,10.505,0,0,1,2552.033-1183.153Zm-28.092-38.237c2.451-.223,4.947,1.334,7,.97,2.5-.443,4.647-1.486,6.591-1.982,2.691-.687,4.817-1.527,6.53-1.927,3.342-.782,3.981-.725,4.141,2.119.077,1.367-1.752,2.156-5.663,2.843-2.216.39-4.823.472-7.54.677-2.509.189-5.07,1.41-7.545,1.463-2.805.06-5.443-1.126-7.6-1.215-4.888-.2-7.162.306-3.246-.426C2518.122-1219.149,2520.354-1221.065,2523.941-1221.39Zm-48.8,34.155c1.729-.177,4.273,1.491,7.084,1.253,2.088-.176,4.373-.895,6.87-1.087,2.2-.169,4.506-.531,6.9-.7,2.259-.159,4.626.382,6.968.231,2.307-.148,4.585-1.024,6.885-1.155,2.353-.135,4.687-.05,6.941-.158,2.415-.116,4.7-1.318,6.894-1.392,2.531-.086,4.9,1.024,6.965,1.009a54.656,54.656,0,0,1,6.857.433c3,.33,2.753-.239-2.46,1.088-1.926.49-4.186.7-6.751,1.081-2.123.316-4.235,2.115-6.668,2.362-2.207.224-4.631-.9-7-.726-2.26.162-4.524,1.01-6.855,1.127-2.3.115-4.6.847-6.9.92-2.339.075-4.678-.41-6.94-.376-2.388.037-4.713.134-6.928.129-2.463-.006-4.777-.795-6.91-.847-2.645-.066-4.992.239-6.919.11-4.836-.326-6.794.239-4.522-.392C2469.778-1184.637,2471.627-1186.875,2475.141-1187.235Zm4.3-62.364c3.522.254.171,1.095-3.514,1.6-2.831.387-5.7,1.172-6.363.879-1.028-.448.939-.813,4.346-1.2C2475.509-1248.509,2477.448-1249.743,2479.439-1249.6Zm-2.992-15.673c1.425-.783-2.234-.97-5.664-1.027-3.59-.059-6.37,1.255-1.181.671,1.547-.174,3.779-.592,6.938-.891,1.962-.185,4.333.3,7.035.054,2.084-.189,4.335-1.129,6.907-1.357,2.615-.232,5.174-.285,7.566-.548,2.72-.3,5.126-1.7,7.389-1.982,3.091-.381,5.808.444,7.651.246,4.054-.435,4.3-1.262-1.221.479-1.972.622-4.363,1.176-7.04,1.743-2.28.483-4.735.72-7.2,1.131-2.444.407-4.678,2.284-7.018,2.592-2.656.35-5.3-.687-7.424-.5C2478.348-1264.248,2475.009-1264.482,2476.447-1265.272Zm.742,12.321c-3.95,1.979-10.067,1.031-6.08-2.372C2474.574-1258.277,2481.139-1254.933,2477.189-1252.951Zm7.079-36.809c3.124.628,1.6,1.76-2.829,2.534a46.608,46.608,0,0,1-6.552,1.245c-2.007.122-4.236.382-6.708.38-2.093,0-4.3-.753-6.693-.868-5.733-.279-6.378.233-4.343-.331a62.041,62.041,0,0,1,6.686-.87c2.091-.24,4.327-1.559,6.658-1.731s4.747.861,6.841.8C2480.327-1288.687,2483-1290.014,2484.268-1289.76Zm5.542-5.1c3.523.254.172,1.1-3.513,1.6-2.831.388-5.7,1.173-6.362.88-1.028-.448.938-.813,4.345-1.2C2485.881-1293.767,2487.819-1295,2489.81-1294.857Zm-10.12,16.05c-1.185.505-3.862-.858-5.961-.585-2.848.37-5.06,1.415-4.947.883.2-.928.614-1.256,2.1-1.409C2479.006-1280.39,2482.482-1280,2479.69-1278.807Zm-15.011,5.968c.612-.129,1.478,1.7,2.189,1.76,1.911.163,5.728-.01,7.463.494,1.752.51,1.438.595-5.283,1.293-3.01.313-5.6-.144-7.721.035-3.775.319-6.152,1.173-7.613,1.153-4-.054-.469-.661,3.752-1.719C2460.276-1270.528,2463.142-1272.515,2464.679-1272.839Zm21.374-34.944c2.676-.29,5.484,1.275,7.649,1.02,2.991-.353,5.382-1.177,7.207-1.346,4.372-.4,4.97-.639.5,1.348-1.839.817-3.951.871-5.805,1.473-2.08.675-3.835,1.887-5.565,2.2-3.172.573-5.04.566-5.18-.535C2484.578-1305.859,2484.133-1307.252,2486.053-1307.783Zm-2.334-5.269c-.993,1.414-4.2.193-6.737-.046-2.517-.237-5-.392-6.166-.944-.5-.238-.308-.026.527-.137,4.023-.54,4.116.153,8.139-.387s3.924-1.269,7.947-1.809c.1-.013.258.171.344.147,1.262-.293,3.409-.192,2.319.082-1.053.266-1.313-.991-2.39-.847-.133.015-.364-.168-.476-.142C2485.75-1316.746,2484.914-1314.753,2483.719-1313.052Zm12.044,8.939c.241-.13,1.143,1.567,1.618,1.554,2.077-.051,4.287-.645,6.526-.708,2.206-.062,4.423-.317,6.539-.376,2.369-.067,4.621.572,6.551.528a57.749,57.749,0,0,0,6.485-.748c.352-.021.739.172,1.076.154.219-.013.486-1.109.7-1.089,2.574.243,2.465,1.4,5.039,1.644,1.595.151,1.317-.175-.347-.162-2.75.022-2.75-.015-5.5.007s-2.752-.193-5.5-.171c-6.068.052-8.727,1.508-9.29,1.368-2.9.24-5.086-.888-6.647-.739-5.106.488-4.328,1.239-6.487,1.106C2494.036-1301.893,2494.981-1303.7,2495.763-1304.113Zm45.385-10.348c5.165-.112,3.272.339-1.071.872-2.038.251-4.563,1.062-7.263,1.341-2.483.256-5.032.7-7.331.92a69.2,69.2,0,0,1-7.408-.008c-.259.024-.434.761-.7.748-1.986-.1-10.19-.06-2.335-.766a16.6,16.6,0,0,1,6.423-1.76c1.877-.167,4.182.815,6.631.649,2.036-.139,4.238-.044,6.548-.15C2536.748-1312.713,2538.9-1314.412,2541.148-1314.461ZM2525-1330.19c-7.09.636-8.338-1.289-2.187-1.919,2.858-.293,4.683-.746,5.733-.487C2530.356-1332.15,2529.488-1330.592,2525-1330.19Zm18.155,14.872c1.721-.2,4.026,1.687,6.119,1.792,2.771.138,5.2-.1,5.917.17.759.285-.343-.036-5.393-.132C2536.349-1313.742,2538.064-1314.729,2543.156-1315.318Zm-21.93,10.294c-1.73-.521,2.378-1.376,8.31-.746,3.417.365.868-.568-2.313-.429C2524.881-1306.1,2521.974-1304.8,2521.226-1305.024Zm-15.685,20.178c-4.681-.241-3.066-.832.229-1.27,1.767-.235,3.968-.971,6.14-1.1a37.93,37.93,0,0,1,6.192-.17c2.411.491.182.38-5.1.685C2510.947-1286.58,2508.43-1284.7,2505.541-1284.846Zm3.361,3.046c-1.4.3-3.843.589-5.749,1.107-2.681.729-4.42,1.653-5.715,1.847-3.671.55-2.193-.142,1.194-1.249,1.616-.528,3.775-.326,5.986-.576C2506.815-1281.025,2506.787-1282.031,2508.9-1281.8Zm-6.2-10.361c-7.4,1.311-5.886.612-2.5-.269,2.635-.687,6.257-2.036,7.967-2.238.111-.016.18-.21.3-.215,2.719-.1,2.745.6,5.463.5s2.692-.835,5.41-.935c6.033-.222,4.414-.723-.437-.277-2.2.2-4.951,1.592-8.094,1.988C2508.19-1293.277,2505.462-1292.648,2502.706-1292.161Zm-5.493,6.862a29.412,29.412,0,0,1-5.036-.3C2500.992-1287.511,2500.2-1285.527,2497.213-1285.3Zm-4.272,10.577c7.547-1.875,5.554.565,10.269-1.4,1.791-.317,4.071-1.189,6.905-1.594,2.337-.334,4.815-.857,7.2-1.142,2.732-.326,5.336.111,7.3-.013,4.033-.256,5.393-.968.41.581-1.943.6-4.309.968-6.832,1.494-2.2.459-4.36,1.972-6.711,2.352s-4.9-.43-7.12-.144c-2.586.333-4.989.369-6.982.546C2492.589-1273.618,2489.969-1273.983,2492.941-1274.722Zm15.781,44.993c-2.028.643-4.441-.9-6.47-.834-2.193.067-4.208.386-6.1-.016a18.659,18.659,0,0,1-5.844-1.99c-1.957-.177-1.668-.816-3.394-1.08-1.832-.28-2.7.6,1.9.014-.764-1.237.163-2.142,3.77-2.509,1.437-.146,3.3-1.274,5.641-1.138,1.028.061,1.018,1.363,2.045,1.284,1.535-.4,3.216-.587,4.639-.937,2.564-.633,1.745.269.151,1.467,3.4,1,3.674.451,7.208.66s3.628-1.318,7.165-1.109,3.461,1.53,7,1.74,3.582-.5,7.121-.29c3.184.19-2.349.539-6.324.834-1.809.135-3.976-.18-6.362.19-1.935.3-4.008.773-6.231,1.293C2512.665-1231.691,2510.852-1230.4,2508.722-1229.729Zm21.967-1.332c-2.457,1.52-6.564-1.218-9.151-1.226-4.55-.012-1.393.741,2.347.427C2527.373-1232.153,2531.875-1231.8,2530.689-1231.061Zm-21.645-9.5c2.412.492-.052,1.5-5.335,1.8a56.082,56.082,0,0,1-7.389.521c-4.68-.242-3.23-.195.064-.633,1.767-.234,4.093.256,6.265.13C2505.358-1238.9,2508.011-1240.772,2509.044-1240.561Zm1.811-19.2c-1.732-.521,2.377-1.376,8.308-.746,3.417.366.868-.566-2.312-.427C2514.509-1260.836,2511.6-1259.538,2510.855-1259.766Zm-25.464.911c.242-.13,1.142,1.567,1.617,1.554,2.135-.052,4.411-.647,6.714-.712,2.274-.063,4.556-.321,6.724-.381,2.465-.069,4.788.569,6.745.526,4.672-.1,7.3-1.147,5.269-.884-1,.129-3.132.113-6.711.387-2.545.194-4.617,1.468-6.457,1.621-2.889.239-5.089-.731-6.645-.582-5.094.487-4.3.306-6.453.175C2483.7-1257.3,2484.609-1258.437,2485.391-1258.855Zm50.542,51.434c-2.16.354-4.591-1.283-6.681-1.141-2.417.165-4.594.731-6.422.661-4.081-.158-5.994-.272-2.865-1.193,2.783-.82,5.55-.641,8.031-.94,3.234-.388,5.947-1.126,8.014-.913C2540.275-1210.508,2541.447-1208.325,2535.933-1207.421Zm.484-20.991c2.579.132.2-.019-1.082-.054-.258-.007.253.5.56.45-.762-.036-2.068.094-4.06.021-5-.19-4.081.31-1.831-.12,1.67-.319,3.988-1.282,5.549-1.241C2544.434-1229.12,2538.381-1228.754,2536.417-1228.412Zm-14.546-22.943c1.19-.17,3.877,1.48,6.9,1.247,2.061-.16,4.328-.853,6.659-1,2.3-.143,4.6-.462,6.7-.557,2.788-.126,5.18.505,6.7.533,2.669.049,2.568-.65-3.141.21-2.35.354-4.618.427-6.744.647-2.437.252-4.631,1.525-6.687,1.632-2.645.137-4.965-1-6.805-1.036C2520.651-1249.783,2518.778-1250.914,2521.871-1251.355Zm12.442-15.294c2.452-.223,4.948,1.335,7,.971,2.5-.443,4.646-1.487,6.591-1.983,2.69-.686,4.816-1.527,6.529-1.927,3.343-.781,3.981-.725,4.141,2.119.077,1.367-1.752,2.156-5.663,2.843-2.216.389-4.823.471-7.54.676-2.509.19-5.07,1.411-7.545,1.463-2.8.06-5.443-1.125-7.6-1.214-4.888-.2-7.162.306-3.245-.425C2528.494-1264.407,2530.727-1266.323,2534.313-1266.649Zm6.748-9.668c-2.456,1.517-6.563-1.22-9.151-1.228-4.551-.013-1.393.739,2.347.426C2537.745-1277.411,2542.247-1277.053,2541.061-1276.317Zm-8.818-20.3c1.19-.17,3.877,1.481,6.9,1.248,2.061-.159,4.329-.852,6.659-1,2.3-.143,4.6-.461,6.7-.556,2.787-.126,5.18.505,6.7.533,2.669.049,2.568-.65-3.14.209-2.351.354-4.619.428-6.745.648-2.437.251-4.631,1.525-6.688,1.631-2.645.137-4.965-1-6.8-1.036C2531.022-1295.042,2529.149-1296.174,2532.243-1296.616Zm-43.55-27.536c.1.021.1,1.911.19,1.935a57.2,57.2,0,0,1,6.572-1.295c2.362-.215,4.532-.709,6.525-1.056,2.4-.418,4.726-.225,6.62-.7,2.552-.639,4.48-1.975,6.179-2.4,3.376-.848,5.071-.709,5.543,1.41,7.056-1.325,6.431.712,3.648.922-1.037.081-2.34-1.123-3.555-1.211.016.135-.584.7-.576.848.08,1.42-2.291,1.725-6.447,2.414-2.371.393-5.1.458-7.96.652-2.7.183-5.409,1.813-7.991,1.843-3.133.037-6.065-1.347-8.141-1.5a20.422,20.422,0,0,1-6.882,2.053c-2.02.2-4.389.974-7.089,1.024-.2.008-.4-.527-.538-.535-2.7.039-5.686.075-8.946-.094-5.733-.3-6.217-.492-4.18-1.049a38.542,38.542,0,0,1,6.56-1.447c2.091-.234,4.475.365,6.807.2s4.59-2.123,6.684-2.178A41.8,41.8,0,0,1,2488.693-1324.152Zm-22.413,8.132c-.915,1.909-8.576,2.174-8.387,1.521C2462.321-1315.952,2467.194-1317.924,2466.28-1316.02Zm28.961,18.315c-.867-.014-3.049.05-7.1.273-1.887.1-4.177.79-6.983,1.01-2.055.161-4.363.55-6.979.792-2.129.2-4.528-.272-7.063-.012-2.171.223-4.423,1.2-6.913,1.478-2.833.313-5.274.322-7.351.458-3.3.216-5.731,1.332-7.4,1.2-4.835-.372-3.309-2.272.121-3.5a28.928,28.928,0,0,1,7.1-1.257,9.915,9.915,0,0,1,1.18.014c3.443.1,3.436.314,6.879.414s3.488-1.43,6.931-1.33,3.4,1.421,6.845,1.521,3.465-.61,6.91-.51,3.409-.211,6.85-.437A48.607,48.607,0,0,1,2495.241-1297.7Zm-41.044-135.88c2,.409-.086,1.251-4.469,1.5a44.643,44.643,0,0,1-6.12.522c-4.974-.256-1.619-.325,2.626-.706C2449.3-1432.542,2453.011-1433.828,2454.2-1433.585Zm-38.967-43.682c2.392.2,9.48.994,1.145,1.86-2.7.28-4.724,1-6.307,1.111-5.705.407-4.769.412-2.376-.274,1.964-.563,5.1-.522,6.353-.785C2414.427-1475.438,2414.788-1477.306,2415.23-1477.267Zm-19.633,2.261c3.544-.879,2.817,1.109,5.085.313,1.537-.272,4.045-1.165,6.527-1.462,3.921-.468,7.028-1.219,3.55-.139-2.107.656-5.27.53-8.146.946C2397.733-1474.642,2393.367-1474.451,2395.6-1475.006Zm-5.611,2.768c2.544-.5,5.237,1,7.488.737,2.623-.3,4.947-.985,7.163-1.032a67.875,67.875,0,0,1,7.251.048c3.1.285,5.3,1.434,6.966,1.858,1.168.3.729-.128-.769-.128-1.926,0-4.428-.211-7.146-.221-2.3-.009-4.767,1.083-7.16,1.061-2.541-.023-5-1.22-7.131-1.266C2391.949-1471.281,2388.666-1471.978,2389.986-1472.238Zm-1.32,8.144c-.087.133-.72-1.531-.961-1.412-1.522.763-3.231,1.09-2.958.146-3.907,0-4.669-.714.476-1.165,0,0-.068.7,5.989,1.049,1.574.091,3.6-.529,6.1-.384,1.755.1,3.752.425,6.052.558,5.772.333,6.622.874,4.868.949-1.218.053-3.7-1.1-6.565-1.106-2.064,0-4.343-.239-6.536-.248C2392.708-1465.716,2390.465-1464.1,2388.666-1464.094Zm1.946,3.864c-4.493-.232-2.935-.8.228-1.221,1.7-.226,3.806-.953,5.891-1.074a36.783,36.783,0,0,1,5.941-.172c2.314.474.175.324-4.9.615C2395.8-1461.969,2393.386-1460.087,2390.612-1460.23Zm-8.274-13.894c.287-.06.76,1.788,1.093,1.819,1.8.15,7.32-.592,1.035.061-3.933.409-6.1.747-7.173.732C2374.168-1471.555,2380.532-1473.744,2382.338-1474.124Zm-20.892,17.372c-.232-1.824,1.073-1.526,2.657-1.9,3.511-.38,6.362-1.263,8.742-1.537,6.045-.695,7.86-1.32,3.36.679-.729.324-1.456,1.695-2.2,1.978,2.178-.184,4.786-1.134,7.543-1.368,2.355-.2,4.891-.2,7.49-.42,2.442-.2,4.867-1.512,7.384-1.713s5.121.762,7.572.577c2.595-.2,5.129-.155,7.5-.315,2.745-.185,5.272-.3,7.476-.413a56.279,56.279,0,0,1,7.386.077c1.982.162.979.446-5.21,1.6-1.949.364-4.622-.514-7.62-.025-2.838.463-5.493,1.575-8.181,1.939-2.869.389-5.567,1.359-8.241,1.649.367,0,.649-.773,1.085-.747,4.07.241,4.075.159,8.144.4s4.047,1.214,8.124,1.24c4.92-.4,10.6-1.243,7.965-.151-.467.194-1.022,1.509-1.509,1.74,2.765.374,2.978-1.589,5.76-1.372,3.733.293-1.791.431-7.6,1.04-2.869,1.38-5.172,2.357-6.916.656-.078-.075-.509-.186-.581-.256-.68-.073-.925.293-.635.052-1.7-1.66-2.858-1.386-1.685-1.608a38.523,38.523,0,0,1,5.041-1.013,24.206,24.206,0,0,0-5.806.092c-1.658.267-3.2,2.187-5.248,2.834a12.739,12.739,0,0,1-7.394-.435c-1.4.013-2.859-.237-4.534-.325-4.108-.213-3.161-.525-.652-.922-2,.065-4.569-1.178-7.3-1.385-.508-.036-.963,1.425-1.323,1.386-2.628.136-5.059.335-7.246.368-2.823.043-5.313.18-7.292.085-5.187-.249-7.44-2.5-5.3-3.232C2362.2-1457.5,2361.447-1456.742,2361.446-1456.752Zm29.673,10.612c-3.9.032-3.916-1.86-7.817-1.829s-3.9.566-7.8.6c-2.815.023-5.115.219-6.969.207-5.947-.037-7.08.825-5.783.552a35.079,35.079,0,0,1,6.762-1.445c2.14-.167,4.562-.127,6.967-.279,2.42-.154,4.773-1.4,6.9-1.511.313-.015.624,1.154.928,1.182,3.65.344,3.629.567,7.28.911C2393.853-1447.543,2393.479-1446.158,2391.119-1446.14Zm-45.9,12.907c-2.457-.007-2.369-1.6,3.271-1.581C2352.525-1434.8,2348.214-1433.225,2345.216-1433.233Zm4.062-2.581c3.8-.51,4.054,1.365,7.856.855s3.734-1.04,7.539-1.551,3.779-.7,7.584-1.212c.14-.019.456.633.579.605,1.788-.418,4.451-1.81,2.907-1.422-1.494.375-1.537,0-3.063.2-.188.023-.126,1.132-.284,1.174-2.093.55-5.179.736-6.874,3.148-1,1.427-2.767,1.617-5.182,1.717a26.12,26.12,0,0,1-5.909-.556,23.146,23.146,0,0,1-5.582-1.85C2348.135-1435.042,2348.1-1435.656,2349.278-1435.814Zm5.431,15.569c-5.208.882-6.022.747-5.011.329a31.6,31.6,0,0,1,5.665-2.13,30.462,30.462,0,0,1,6.978-1.942c2.094-.37,4.612-.041,7.29-.4,2.257-.3,4.588-1.317,7.136-1.593,2.335-.254,4.785-.289,7.275-.516,2.385-.218,4.731-1.524,7.18-1.711,2.426-.185,4.947.807,7.363.658,2.466-.152,4.923-.06,7.3-.167,2.189-.189,4.77-.36,7.569-.573,2.389-.181,4.951-.151,7.574-.329,2.489-.169,4.942-1.86,7.473-2.009,2.576-.153,5.2,1.029,7.647.914,2.7-.127,5.232-.937,7.549-1,3.049-.08,5.7-.73,7.613-.649,4.18.175,5.046,1.567-.165,2.894a66.052,66.052,0,0,1-7.872,1.477c-2.46.313-5.5-.078-8.3.14,1.149.957.428,2.463-2.284,3.5,2.539-.158,5.413.688,8.2.567,2.595-.112,5.218-2.042,7.959-2.1,5.72-.123,5.39.763,2.049,1.264-1.673.251-4.139.164-6.959.482-2.145.242-4.493.622-6.919.873-2.312.239-4.618,1.047-6.892,1.27-2.488.244-4.876.389-6.961.586-3.314.314-5.84.986-6.908,1.083-.369.034-.738-1.069-1.116-1.087-.469-.026-1.193,1.484-2.006,1.429-2.286.208-4.739.056-7.329.2-2.325.133-4.789,0-7.347.081-2.35.071-4.807-.551-7.346-.534-2.367.016-4.8-.411-7.323-.447-2.379-.034-4.861,1.417-7.375,1.332-2.388-.079-4.853-.065-7.356-.194-2.9-.148-5.37-.15-7.356-.339C2357.558-1419.269,2355.456-1419.721,2354.709-1420.245Zm18.627,12.462c2.741.1,2.444,2.321,5.443,2.645,2.93-.636,5.114-1.51,6.708-1.654,5.216-.472,3.9.586.658.832-2.2.169-5.018-.722-7.448-.984-1.983.43-4.278,1.723-6.974,2.457-2.551.693-4.649.983-6.288,1.317-5.175,1.055-6.412.234-4.839-.773,1.056-.676,3.739-.524,6.494-1.259C2368.981-1405.707,2371.072-1407.528,2373.336-1407.783Zm-9.857-9.783c2.671-.139,4.824,1.782,6.313,1.915,3.108.278,3.234-.305-1.594.19a26.768,26.768,0,0,1-5.513.21C2359.844-1415.618,2359.46-1417.359,2363.479-1417.566Zm20.889.974c4.054-.416,6.786,1.569,8.275,1.937,2.566.633,1.266.719-5.1,1.289-3.612.324-6.075.386-7.448.04C2377.644-1413.943,2378.776-1416.021,2384.368-1416.592Zm-14.8,14.565c.343-.185,1.418,1.476,2.092,1.46,2.183-.053,4.467-.647,6.8-.712,2.259-.062,4.549-.319,6.814-.383,2.328-.066,4.642.568,6.833.507,2.435-.067,4.719-.863,6.8-.912,2.752-.065,5.1.1,6.816.089,3.849-.022,4.577.5-.561.977-1.644.152-3.983-.823-6.9-.6-2.591.2-4.92.156-6.982.323-2.727.22-5.029.378-6.969.548-3.137.276-5.375.277-6.984.439-4.726.476-4.219,2.029-6.9,1.867C2366.885-1398.64,2368.455-1401.436,2369.563-1402.027Zm36.045-2.042c-1.737-.525.839-1.287,5.3-1.36a44.416,44.416,0,0,1,6.464-.22c4.845.517,1.152.457-3.358.655C2410.692-1404.848,2406.667-1403.748,2405.608-1404.069Zm-78.711-1.42c-3.572-.184-5.463-2.293-6.538-2.581-2.192-.587.02-.073,4.54-.773,1.943-.3,4.239-.781,6.773-1.047,2.176-.228,4.545.261,6.89.082,2.3-.175,4.569-1.055,6.8-1.162,2.457-.119,4.793.018,6.864.008,3.011-.015,5.6-.991,6.99-.707,3.948.806,2.81,2.422-1.89,3.459a69.146,69.146,0,0,1-7.527.853c-2.255.206-4.768.322-7.588.407-2.363.072-4.881-.12-7.606-.158C2332.189-1407.142,2329.574-1405.351,2326.9-1405.489Zm25.9,7.1c.32-.016.6,1.877.911,1.908,3.726.352,3.776-.18,7.5.171,2.31.218,1.893.719-.518.737-3.98.032-3.986-.668-7.966-.635s-3.974.767-7.954.8c-2.873.023-5.221-.18-7.113-.192-6.069-.039-7.566-.607-6.242-.886,1.042-.219,3.922.664,7.261.4,2.184-.171,4.653-.117,7.107-.273C2348.258-1396.517,2350.63-1398.279,2352.8-1398.393Zm51.242,17.559c-1.536.262-4.323-1.29-7.438-.933-2.217.253-4.637,1.051-7.2,1.317-2.409.25-4.867.689-7.256.924-2.6.256-5.159-.2-7.346.006-3.47.329-6.095,1.308-7.2,1.409a8.29,8.29,0,0,1-1.113-.187c-.478-.024-1.2,1.039-2.029.985-2.547.23-5.365-.734-8.285-.576-.23.13-.74.1-1.142.273a33.216,33.216,0,0,1-7.575,1.65c-4.041.525-6.912,1.469-6.75.714.144-.683.048-.8.911-1.18-2.393.014-4.708-1.3-7.256-1.337-2.4-.035-4.887.616-7.425.531-2.412-.081-4.917.451-7.445.32-4.122-.21-7.264-1.006-9.614-1.3-2.353.179-4.729.427-7.017.569-2.541.157-4.989-.472-7.079-.388-3.789.154-6.433.58-6.937.36-.764-.333,2.66.2,7.728-.357,2.4-.265,4.743-2.294,7.643-2.531-.462-.775,2.435-.531,6.817-1.383,2.019-.392,4.475-.4,7.185-.776,2.218-.311,4.6-.741,7.149-1.032,2.3-.263,4.652-1.086,7.136-1.324,2.356-.227,4.782-.358,7.226-.556,2.4-.194,4.732-.8,7.143-.966,1.1-.6,3.752-.148,6.982-.459,2.1-.2,4.5-1.81,7.033-1.627,2.312.166,2.62.833,1.74,1.206,2.363-.071,4.528.114,6.646.1,2.464-.012,4.717.686,6.724.768a35.864,35.864,0,0,1,6.542,1.054c5.994,1.222,6.838,2.736,2.417,4.432,2.267-.14,3.995-.072,6.463-.183-3.977-.433-.662-2.845,4.294-3.407,2.454-.279,5.422-.25,8.11-.389,3.52-.183,6.582,1.17,7.944,1.449,2.536.518,1.7,1.344-2.084,1.943A44.049,44.049,0,0,1,2404.043-1380.834Zm16.049-24.477c3.561-.136,3.233,1.762,7.177,1.7,2.279-.037,4.791-.585,7.112-.539,3.134.061,5.832.031,7.039.4,2.481.761,2.613-.707-4.248-.133-1.9.16-4.292,1.127-7.377,1.481-2.151.247-4.645.347-7.453.727-3.38.457-5.871,1.8-7.777,1.887-6.191.277-5.214-1.462-2.013-2.643C2414.586-1403.18,2417.381-1405.216,2420.092-1405.311Zm.548,10.489c-5.038-.014-3.33-.554.133-.973,1.887-.229,4.238-.969,6.464-1.081,3.811-.192,6.872-.638,5.56.173-1.736,1.074-3.74.536-5.9.455C2424.719-1396.329,2422.481-1394.818,2420.64-1394.822Zm21.537,141.2c.409-.036.882,1.851,1.3,1.864,3.443.1,3.459-.434,6.9-.334s3.449-.091,6.893.009,3.421.8,6.863.9,3.466-.635,6.91-.534,3.441.307,6.888.407,3.481-1.011,6.928-.9c-.868-.015-3.015.309-7.063.533-1.887.1-4.224.034-7.03.254-2.055.161-4.389.322-7,.564-2.129.2-4.483.211-7.018.471-2.171.223-4.336,1.993-6.826,2.268-2.832.314-5.381-.786-7.459-.649-3.3.216-5.654.938-7.321.81-4.835-.371-3.729-2.572-.3-3.8A30.073,30.073,0,0,1,2442.177-1253.619Zm22.045,85.537c7.544-1.873,5.554.566,10.266-1.4,1.792-.317,4.071-1.189,6.906-1.594,2.336-.334,4.815-.857,7.2-1.141,2.732-.327,5.336.111,7.3-.014,4.033-.255,5.394-.967.411.582-1.944.6-4.309.968-6.832,1.493-2.206.459-4.361,1.972-6.711,2.353s-4.9-.43-7.121-.144c-2.585.332-4.989.369-6.982.546C2463.869-1166.979,2461.25-1167.343,2464.222-1168.082Zm59.711,9.684c2.679.823,2.74.539-3.2.971-1.688.123-3.863.838-6.674,1.123-1.932.195-4.136.63-6.673.936-2.019.243-4.336-.167-6.774.162-2.8.378-5.027,1.363-6.958,1.519a21.217,21.217,0,0,1-6.976-.265c-2.219-.616.15-2.538,4.135-3.615,2.138-.578,4.865.119,7.217.036,0,0,2.718.114,6.411.035,1.954-.042,4.168-.038,6.409-.042,2.211-.005,4.4.233,6.391.306C2520.084-1157.128,2522.766-1158.757,2523.933-1158.4Zm-18.869-5.686c-2.583.313-5.131-1.313-7.249-1.11-2.712.261-4.988.966-7,1.067a58.513,58.513,0,0,1-7.044.177c-4.412-.418-3.343-.821,0-2.31,1.683-.75,3.706-2.183,6.4-2.858,2.151-.539,4.536-.809,6.961-1.167,2.349-.346,4.674-1.681,6.976-1.747.14-.005.278,1.161.417,1.166.713.033,3.287.372,7.311.512,2.073.073,4.534.189,7.318.267,2.238.062,4.686.338,7.315.4,2.308.049,4.784-1.436,7.351-1.4,2.346.036,4.776,1.388,7.307,1.411,2.373.022,4.825-.674,7.334-.667,3.114.008,5.463-.623,7.1-.608,4.445.04,3.637.919-1.21,1.291-1.811.138-4.18.4-7.055.622-2.1.164-4.523-.4-7.128-.181-2.188.185-4.513.794-7.027,1.024-2.233.205-4.668-.38-7.136-.136-2.259.223-4.426,2.292-6.866,2.551-2.276.241-4.755-.671-7.175-.4C2509.67-1165.918,2507.471-1164.375,2505.064-1164.084Zm46.2-9.466c-3.523-.182-5.385-2.288-6.446-2.572-2.162-.579.018-.055,4.476-.746,1.916-.3,4.181-.773,6.681-1.035,2.146-.225,4.484.267,6.8.091,2.272-.173,4.506-1.051,6.707-1.157,2.423-.116,4.728.021,6.771.012,2.97-.014,5.523-.992,6.9-.712,3.894.795,2.768,2.393-1.869,3.416a68.356,68.356,0,0,1-7.424.838c-2.225.2-4.7.317-7.484.4-2.331.071-4.815-.122-7.5-.159C2556.487-1175.207,2553.907-1173.415,2551.267-1173.55Zm27.118-35.293c-10.58-.2-8.175-.872-6.829-1.093.09-.4-.167-1.187.355-1.291,3.272-.337,11.471-.94,6.713.165,3.271.209,5.739-.037,5.083.226A7.3,7.3,0,0,1,2578.385-1208.843Zm5.268,22.719c-3.01-.008-2.9-1.944,4.007-1.923C2592.608-1188.034,2587.326-1186.113,2583.653-1186.124Zm-18.447-23.2c-2.129.674-4.64-.86-6.766-.811-2.31.054-4.431.338-6.4-.108a17.083,17.083,0,0,1-6.007-2.234c-2.106-1.547-1.988-2.174,2.007-2.766,1.557-.23,3.564-1.024,6.4-.859,4.066.24,4.054.463,8.122.69a13.943,13.943,0,0,1,6.031-1.6c1.707-.079,3.776,1.033,6.1,1.047,1.848.011,3.847.287,6.041.4,4.767.249.235.64-6.158,1.094,3.269,2.135,4.218.555,8.116.786s3.988-1.3,7.886-1.066a47.686,47.686,0,0,0-6.591.1c-1.846.137-3.972,1.075-6.407,1.453-1.975.306-3.971,1.33-6.239,1.86C2569.339-1210.868,2567.379-1210.011,2565.206-1209.324Zm51.892-19.357c-.8.873-3.678.152-6.8,1.206a67.224,67.224,0,0,1-6.4,2.388c-2.1.517-4.3,1.19-6.659,1.629-2.2.409-4.559.079-6.867.381-2.271.3-4.463,1.261-6.733,1.417-2.338.161-4.631.029-6.854,0-2.412-.031-4.831.913-6.965.61-2.49-.355-4.472-2.035-6.365-2.836a9.062,9.062,0,0,1-4.814-4.186c-.537-.982,1.572-.7,6.163-1.191,2.111-.224,4.61-.182,7.447-.313,2.313-.107,4.778-1.715,7.439-1.765,2.4-.045,4.923,1.253,7.509,1.25,2.447,0,4.958-.7,7.5-.664,2.485.032,5.013-.558,7.515-.494,2.521.064,5.012.683,7.478.777C2613.959-1230.693,2620.81-1229.671,2617.1-1228.681Zm-28.09-10.234c.455-.049.881-.016.578.017s-.241.546-.544.574c-.949.1-3.22.647-8.165,1.823-2.148.511-4.985.5-8.256,1.373-2.737.727-4.413,1.81-5.659,1.941-3.832.4-1.206-1.358,1.136-2.548-2.3-.732-5.721-2.749-1.481-3.665,1.319-.285,3.512.613,6.446.427,1.754-.111,3.828.025,6.292-.034a46.811,46.811,0,0,1,6.466.149c2.671.346.612-.158-3.3.716C2579.715-1240.415,2585.447-1238.658,2589.008-1238.915Zm12.306,4.282c-5.474-.283-4.829-.911-1.89-1.445a56.227,56.227,0,0,1,6.478-1.337c2.2-.2,4.5-.544,6.625-.628a23.594,23.594,0,0,1,6.461.827c2.823.576,1.334.581-3.543,1.167-1.887.227-4.245.178-7.028.218C2606.293-1235.8,2603.885-1234.5,2601.314-1234.633Zm19.023-21.253c2.9-.011,5.15,1.9,6.883,1.952,5.94.168,5.536-.642,2.787-.106-1.679.327-4.2.86-6.774,1.168s-5.228-.12-6.921.05c-1.1.111-2.056.7-2.257.344C2613.543-1253.4,2613.535-1255.86,2620.337-1255.886Zm-22.5,8.316c2.8.3,4.206,1.122,6.232,1.527,4.483.9,6.732.853,6.179,1.7a4.409,4.409,0,0,1-3.426,1.26c-1.471.008-4.377-.62-7.656-.6,2.5.262-1.426,2.45-4.538,2.467-2.019.011-2.2-.954,2.135-1.254-2.14.009-4.534.4-7,.4-2.238,0-4.577-1.163-6.956-1.17-2.3-.007-4.636-.244-6.957-.265-2.359-.022-4.693-.089-6.957-.13-2.432-.043-4.758-.313-6.94-.384-2.582-.083-5.009,1.341-7.019,1.211a12.863,12.863,0,0,1-6.719-2.328c-5.276-.266-8.078-.185-5.086-.579a42.027,42.027,0,0,1,7.687-1.007c.529-.005,1.144.515,1.842.495,2.531-.468,5.035-.948,7.516-1.28,2.562-.344,5.165.135,7.643-.079,2.593-.225,5.1-.786,7.567-.886,1.079-.345,3.358.119,7.338-.205,2.727-.221,5.007-2.238,7.142-2.385,2.944-.2,5.422.837,7.362.758,5.862-.237,7.039-.806,6.331-.279A12.532,12.532,0,0,1,2597.835-1247.57Zm-15.7-9.531c1.722-.2,4.027,1.686,6.12,1.791,2.771.139,5.2-.1,5.917.172.758.285-.344-.036-5.394-.133C2575.329-1255.525,2577.043-1256.512,2582.135-1257.1Zm14.386-5.268c.375.172-2.883.79-6.989,1.456-1.957.317-4.142,1.167-6.557,1.45-.335.117-.71.435-1.135.57-1.983.616-4.493.509-7.068,1.044-2.251.469-4.49,1.62-6.889,2.009s-4.841.528-7.112.82c-2.639.339-4.975,1.705-7.009,1.886-4.889.434-7.343.041-4.311-.713,7.7-1.911,5.261-.986,10.036-3.075,1.515-.27,3.671-1.788,5.982-2.128-3.587-.391-5.6-.918-6-2.643-.094-.4,2.026-1.316,6.456-1.683,2.245-.185,4.921.979,7.647.882,2.482-.089,5.044-.841,7.562-.815,2.672.027,5.325-.505,7.635-.3C2591.959-1263.332,2594.96-1263.091,2596.521-1262.369Zm-18.715-3.412c-.156.005-.451-1.871-.6-1.85-1.456.194-3.633,1.164-6.892,2.062-4.531,1.253-5.227,1.329-3.968.6.891-.518,2.864-.452,5.388-.733.132-.016.176-.753.316-.756,2.65-.063,2.655.144,5.3.081.13,0,.17-1.114.294-1.129,1.71-.2,2.4-.49,1.919.517C2579.047-1265.9,2578.892-1265.807,2577.806-1265.781Zm21.735-16.448c-.948.1-3.515-1.41-8.46-.234-2.147.51-4.687,1.7-7.957,2.567-1.154.306-2.126,1.054-2.993,1.243,1.536.335,2.8,1.368,3.861,1.63,1.207.3,1.1-.123-.334.04-1.771.2-4.186.254-6.923.521-2.145.209-4.4,1.523-6.824,1.713-2.29.181-4.721-.821-7.016-.7-2.423.125-4.763-.02-6.923-.013a46.4,46.4,0,0,1-6.824-.4c-3.523-.529-4.364-.279-1.308-2.45a8.137,8.137,0,0,1,2.687-1.612c-3.06.2-5.46-1-7.374-.965-6.115.12-6.778.133-4.556-.877a38.054,38.054,0,0,1,6.91-2.862c2.22-.589,4.848-.676,7.353-1.26,2.475-.578,4.955-1.214,7.234-1.709,2.96-.642,5.709-.439,7.423-.79a15.852,15.852,0,0,1,4.467-.637c1.72.144,4.061,1.174,6.583,1.467,2.309.267,4.962-1.225,6.923-.853,3.84.73,5.8,2.226,2.781,3.258.439-.013.993.939,1.457.932a58.81,58.81,0,0,1,6.482-.019c2.67.345.031.649-3.88,1.523,3.545.415,3.564-.157,7.124-.414.457-.05.992-.4.973-.091A1.123,1.123,0,0,1,2599.541-1282.229Zm-18.561-17.417c-3.22.151-5.824-1.674-7.814-1.679-6.393-.014-6.739.509-4.256-.539a44.394,44.394,0,0,1,7.309-2.758,27.714,27.714,0,0,0-6.4-.111c-3.15.292-3.084,1.012-6.233,1.317-.807.1-1.554.682-1.017.612s.412-1.133.949-1.194c1.125-.15,3.473.629,7.415-.288,1.933-.449,4.359-.816,7.228-1.567,2.092-.547,4.475-1.151,7.143-1.894,2.161-.6,4.588-1.069,7.167-1.817,2.75-.8,4.63-2.863,6.478-3.27,4.311-.949,6.04.21,6.655.732,1.006.852-1.323,2.533-4.224,4.089,2.647.777,6.366,2.015,6.237,3.229-.088.833-2.324,1.735-6.621,2.494-1.747.308-3.939.685-6.654.955-1.95.193-4.226-.381-6.745-.214C2585.567-1301.414,2583.42-1299.76,2580.98-1299.646Zm47.795,6.236c-4.694.218-4.782-1.673-9.476-1.452-.232.013-.483.572-.7.6-3.024.417-5.79,1.017-3.842.722,1.9-.288,1.936.61,3.859.519.276-.013.524-.772.78-.813a58.439,58.439,0,0,0,6.2-1.1c1.742-.438,3.445-2.054,5.752-2.747,3.012-.905,5.374-.228,6.708-.369,3.286-.346,1.648.171-2.351,1.52a34.141,34.141,0,0,1-6.341,1.4C2629.132-1295.094,2629.022-1293.421,2628.775-1293.41Z" transform="translate(0.359 2)" fill="#fff" opacity="0.347"/>
    <path id="Path_2456" data-name="Path 2456" d="M2361.836-1249.642a8.972,8.972,0,0,1-6.364-2.636,9,9,0,0,1,0-12.728,63.957,63.957,0,0,0,6.638-7.589,81.955,81.955,0,0,1,8.21-9.385,82.738,82.738,0,0,1,9.37-8.21,64.729,64.729,0,0,0,7.591-6.65,101.059,101.059,0,0,0,7.061-7.719,116.462,116.462,0,0,1,8.139-8.9,70.705,70.705,0,0,1,9.654-8.24,53.092,53.092,0,0,0,7.511-6.41c3.923-3.923,5.853-5.917,7.782-7.91,1.981-2.047,3.962-4.093,7.99-8.121,1.777-1.776,2.485-3.743,3.382-6.232,1.716-4.762,4.913-13.626,17.956-13.626h0c12.483,0,16.508,7.092,19.172,11.785a25.6,25.6,0,0,0,4.255,5.994c4.149,4.15,6.112,6.337,8.074,8.524,1.8,2.006,3.6,4.012,7.4,7.817a48.246,48.246,0,0,1,8.316,10.732,30.532,30.532,0,0,0,5.569,7.2c3.923,3.923,5.918,5.852,7.912,7.78,2.049,1.981,4.1,3.962,8.13,7.993a25.037,25.037,0,0,0,7.052,5.21,42.692,42.692,0,0,1,11.223,8.319,96.024,96.024,0,0,1,8.176,9.145,79,79,0,0,0,6.84,7.651,9,9,0,0,1,0,12.728,9,9,0,0,1-12.728,0,96.037,96.037,0,0,1-8.176-9.145,79,79,0,0,0-6.84-7.651,25.037,25.037,0,0,0-7.052-5.21,42.688,42.688,0,0,1-11.223-8.319c-3.923-3.923-5.918-5.851-7.913-7.78-2.049-1.981-4.1-3.962-8.129-7.993a48.243,48.243,0,0,1-8.314-10.731,30.536,30.536,0,0,0-5.57-7.2c-4.15-4.15-6.113-6.337-8.075-8.525-1.8-2.006-3.6-4.011-7.4-7.817a42.588,42.588,0,0,1-7.181-9.837,21.862,21.862,0,0,0-1.581-2.553c-.037.033-.63-.117-1.939-.117a3.313,3.313,0,0,0-.382.007c-.209.52-.448,1.181-.643,1.722a32.348,32.348,0,0,1-7.588,12.857c-3.924,3.924-5.854,5.918-7.784,7.912-1.98,2.046-3.961,4.092-7.988,8.119a70.685,70.685,0,0,1-9.655,8.242,53.1,53.1,0,0,0-7.51,6.409,101.067,101.067,0,0,0-7.06,7.718,116.493,116.493,0,0,1-8.14,8.9,82.751,82.751,0,0,1-9.368,8.207,64.713,64.713,0,0,0-7.593,6.652,63.981,63.981,0,0,0-6.638,7.588,81.954,81.954,0,0,1-8.211,9.386A8.972,8.972,0,0,1,2361.836-1249.642Z" transform="translate(-0.302 1.759)" fill="#fff"/>
  </g>
</svg>
