<svg xmlns="http://www.w3.org/2000/svg" xmlns:xlink="http://www.w3.org/1999/xlink" width="50" height="50" viewBox="0 0 50 50">
  <defs>
    <clipPath id="clip-path">
      <rect id="矩形_413" data-name="矩形 413" width="50" height="50" fill="#fff"/>
    </clipPath>
  </defs>
  <g id="button_Button4-3_reduce" data-name="button/Button4-3/reduce" clip-path="url(#clip-path)">
    <path id="路径_524" data-name="路径 524" d="M506.095,895.738c-2.084,0-2.084.419-4.168.419s-2.084-.007-4.169-.007-2.083-.255-4.167-.255-2.086.54-4.171.54-2.087-.191-4.174-.191-2.087-1.159-4.173-1.159c-.92,0-1.388-.156-1.388-1.077s.468-2.118,1.388-2.118c2.084,0,2.084-.072,4.168-.072s2.085.935,4.169.935,2.084-.538,4.167-.538,2.085.794,4.171.794,2.087-.656,4.173-.656,2.087.4,4.173.4c.921,0,1.3.339,1.3,1.259S507.016,895.738,506.095,895.738Z" transform="translate(-468.49 -868.994)" fill="#fff"/>
  </g>
</svg>
