<svg id="button_Button4-1_bottom_vr" data-name="button/Button4-1/bottom/vr" xmlns="http://www.w3.org/2000/svg" xmlns:xlink="http://www.w3.org/1999/xlink" width="40" height="40" viewBox="0 0 40 40">
  <defs>
    <clipPath id="clip-path">
      <rect id="矩形_52" data-name="矩形 52" width="40" height="40" transform="translate(0 0)" fill="#fff"/>
    </clipPath>
  </defs>
  <path id="路径_462" data-name="路径 462" d="M2846.047,25.788,2861.783,24H2874.9c.963,0-2,11.8-2,11.8l-28.1.391V29.736Z" transform="translate(-2839.951 -10.813)" fill="#fff"/>
  <g id="组_64" data-name="组 64" transform="translate(0 0)" clip-path="url(#clip-path)">
    <path id="路径_386" data-name="路径 386" d="M3041.667-938.614l-3.1.1-3.1.306-3.1.679-3.1-.432-3.1.244-3.1-.2-3.1-.088-3.1.539-3.1-.446-2.065,2.606-.156,2.93-.264,2.931-.386,2.933.187,2.935.509,2.935,2.175,2.865,3.9-.138,3.9-.7,2.052-1.1,4.112-1.918,3.507,2.174,2.657,1.211,3.892-.251,3.892-.109,3.091-2.036.152-2.93-.526-2.931-.336-2.933.007-2.935-.086-2.935Zm-20.014,11.435-2.477,2.592-2.425.027-2.383-1.475.1-2.839,2.94-3.231,2.723.491,1.825,1.944Zm18.655,0-2.478,2.592-2.425.027-2.382-1.475.1-2.839,2.94-3.231,2.723.491,1.826,1.944Z" transform="translate(-3007.896 948.198)" fill="#fff"/>
  </g>
</svg>
