<svg id="button_Button4-1_bottom_circle" data-name="button/Button4-1/bottom/circle" xmlns="http://www.w3.org/2000/svg" xmlns:xlink="http://www.w3.org/1999/xlink" width="40" height="40" viewBox="0 0 40 40">
  <defs>
    <clipPath id="clip-path">
      <rect id="矩形_55" data-name="矩形 55" width="40" height="40" fill="#fff"/>
    </clipPath>
  </defs>
  <g id="组_96" data-name="组 96" clip-path="url(#clip-path)">
    <path id="路径_413" data-name="路径 413" d="M2578.126-1242.956c-1.112,0-2.087,1.1-3.139,1.305-1.083.214-2.424-.473-3.421-.059-1.013.42-1.542,1.757-2.443,2.36a15.7,15.7,0,0,0-2.333,2.138,16.1,16.1,0,0,0-2.3,2.228,16.075,16.075,0,0,0-1.3,2.925c-.413,1-1.5,1.789-1.717,2.872-.208,1.051.578,2.2.578,3.312a16,16,0,0,0,.133,3.171,16.694,16.694,0,0,0,.569,3.195,16.4,16.4,0,0,0,1.692,2.772c.608.908.895,2.1,1.665,2.873s2.055.925,2.963,1.533,1.431,1.977,2.445,2.4c1,.413,2.329-.114,3.411.1a16.2,16.2,0,0,0,3.191.46,16.1,16.1,0,0,0,3.172-.559,15.5,15.5,0,0,0,2.981-1.087c1.014-.421,2.225-.364,3.126-.967a16.714,16.714,0,0,0,2.425-2.183c.77-.77,2.057-1.194,2.665-2.1s.428-2.284.848-3.3a16.213,16.213,0,0,0,1.073-3.062c.208-1.051.854-2.129.854-3.241a17.3,17.3,0,0,0-.783-3.255,16.543,16.543,0,0,0-.957-3.126,17.375,17.375,0,0,0-1.261-3.069c-.608-.908-1.809-1.345-2.578-2.114s-1.1-2.137-2-2.745a17.737,17.737,0,0,0-2.965-1.613c-1-.413-2.31.037-3.393-.177C2580.279-1242.183,2579.239-1242.956,2578.126-1242.956Z" transform="translate(-2558.357 1246.166)" fill="#fff"/>
  </g>
</svg>
