<svg id="button_Button4-1_bottom_gps" data-name="button/Button4-1/bottom/gps" xmlns="http://www.w3.org/2000/svg" xmlns:xlink="http://www.w3.org/1999/xlink" width="40" height="40" viewBox="0 0 40 40">
  <defs>
    <clipPath id="clip-path">
      <rect id="矩形_50" data-name="矩形 50" width="40" height="40" fill="#fff"/>
    </clipPath>
  </defs>
  <path id="路径_464" data-name="路径 464" d="M2845.568,27.179,2855.217,24s9.858,3.179,10.449,3.179-8,21.264-8,21.264l-8.287-1.391-4.57-12.858Z" transform="translate(-2835.251 -17.071)" fill="#fff"/>
  <g id="组_60" data-name="组 60" clip-path="url(#clip-path)">
    <path id="路径_384" data-name="路径 384" d="M2889.722-947.448l-3.041.2-2.788,1.2-2.653,1.44-2.609,1.763-1.7,2.665-.76,3.048-.044,3.074-.529,3.449.682,3.426,1.522,3.152,2.883,2.135,2.27,2.423,2.56,2.13,2.381,2.581,2.7-.826,3.167-.9,2.657-1.851,1.938-2.611,1.527-2.8,1.929-2.554.673-3.121,1.027-3.063-.094-3.327-1.568-2.941-.748-3.288-2.955-1.715-2.241-2.293-3.014-1.111Zm.819,18.034-3.081-.421-2.414-2.067-.2-3.2,1.665-1.874,2-1.106,2.886.028,2.374,1.969-.455,2.972-1.212,1.729Z" transform="translate(-2869.556 951.104)" fill="#fff"/>
  </g>
</svg>
