<svg id="button_Button4-1_icon_zoom_out" data-name="button/Button4-1/icon/zoom out" xmlns="http://www.w3.org/2000/svg" xmlns:xlink="http://www.w3.org/1999/xlink" width="40" height="40" viewBox="0 0 40 40">
  <defs>
    <clipPath id="clip-path">
      <rect id="矩形_54" data-name="矩形 54" width="40" height="40" fill="#fff"/>
    </clipPath>
  </defs>
  <g id="组_68" data-name="组 68" clip-path="url(#clip-path)">
    <path id="路径_388" data-name="路径 388" d="M3031.712-783.115l-1.517,1.023-1-1.023-.709-3.125.544-3.528-1.944,3.038-2.568,1.849-2.142,2.275-1.079.432-1.049-.461.2-1.9,2.367-1.994,1.551-2.817,2.1-1.655-2.609-.151-3.051.267-1.315-1.625,1.315-1.69,2.684-.013,2.689.923,2.689-1.083,2.321,3.2.643,2.685-.1,2.681Zm11.555-11.629-2.684-.493-2.688-.023-2.689.709-2.229-3.043-1.045-2.685.509-2.689-.094-2.689,1.526-1.511,1.484,1.511-.281,3.125-.017,3.49,2.017-2.943,2.245-2.209,2.546-1.908,2.109-.189-.219,2.079-1.933,2.465-2.194,2.211-2.98,2.141,3.568-.729,3.051.874,1.631.989Z" transform="translate(-3012.138 814.343)" fill="#fff"/>
  </g>
</svg>
