<svg id="scroll_bar_bar" data-name="scroll bar/bar" xmlns="http://www.w3.org/2000/svg" width="10" height="446.934" viewBox="0 0 10 446.934">
  <path id="路径_261" data-name="路径 261" d="M1614.442,853.975c.057,1.047-.254,1.959-.394,1.565.377,2.131-.052,2.177.678,2.453.358,1.368-.138,2.828-.434,1.271l.447,3.944.113-2.358c.606.643-.182,3.768.526,4.516l-.059-4.269.2.214a13.829,13.829,0,0,1-.041-3.519c.1.1.262.038.28.791.046-5.155-1.061-1.389-1.263-5.666A5.651,5.651,0,0,1,1614.442,853.975Z" transform="translate(-1608.468 -418.432)" fill="#2a4c24"/>
  <path id="路径_262" data-name="路径 262" d="M1620.024,847.589l-2.3-1.8.594-3.017c-.793-.034-1.433-2.232-2.129-.743a2.728,2.728,0,0,1,.286,1.33c-1.71-.337-.854-4.012-2.585-3.125.453,2.385.076,2.751,1.466,4.22a11.044,11.044,0,0,1-1.176,4.8c.26.649,1.309.74,1.518,1.565-.027-.182-.052-.35-.066-.56l2.576-.089c-.543-.687-.287-1.338-.341-2.1l3.007,3.531c2.41-1.139.992-4.608,1.994-5.993C1620.705,847.329,1621.794,844.24,1620.024,847.589Z" transform="translate(-1613.483 -416.425)" fill="#2a4c24"/>
  <path id="路径_263" data-name="路径 263" d="M1614.494,852.814c0,.023,0,.061,0,.087C1614.5,852.875,1614.5,852.837,1614.494,852.814Z" transform="translate(-1608.108 -418.416)" fill="#2a4c24"/>
  <path id="路径_264" data-name="路径 264" d="M1609.14,539.3a3.242,3.242,0,0,0-.115-1.08l.006,8.453c.081-.265.182-2.7.23-1.073a16.676,16.676,0,0,0-.1-3.256l.124.613c-.158-1.948.153-3.277.246-2.008v-.164l-.61-5.394C1608.887,537.367,1609.133,536.913,1609.14,539.3Z" transform="translate(-1605.439 -359.548)" fill="#2a4c24"/>
  <path id="路径_265" data-name="路径 265" d="M1610.387,334.2c.078,1.095.159,1.23.242,1.1A7.866,7.866,0,0,0,1610.387,334.2Z" transform="translate(-1606.293 -321.842)" fill="#2a4c24"/>
  <path id="路径_266" data-name="路径 266" d="M1608.534,533.579l-.527-1.69A8.1,8.1,0,0,0,1608.534,533.579Z" transform="translate(-1605.231 -358.772)" fill="#2a4c24"/>
  <path id="路径_267" data-name="路径 267" d="M1616.553,547.626c.028,0,.053.021.09-.023l-.269-.759v.019C1616.433,547.143,1616.493,547.394,1616.553,547.626Z" transform="translate(-1609.057 -361.522)" fill="#2a4c24"/>
  <path id="路径_268" data-name="路径 268" d="M1606.553,488.315c-.014-.181-.019-.337-.037-.554C1606.52,487.963,1606.534,488.146,1606.553,488.315Z" transform="translate(-1603.246 -350.61)" fill="#2a4c24"/>
  <path id="路径_269" data-name="路径 269" d="M1619.566,573.278l-.507-3.758c.24.5.168-1.312.448-.52-.038-.287-.133-1.63-.257-1.263l.016.767c-.7-1.981-.968-.782-1.5-4.067a6.727,6.727,0,0,0,.283,4.015c.049.366.07.673.1.983l.978,3.125Z" transform="translate(-1612.035 -364.893)" fill="#2a4c24"/>
  <path id="路径_270" data-name="路径 270" d="M1614.358,396.284l.055.04C1614.394,396.287,1614.376,396.28,1614.358,396.284Z" transform="translate(-1608.063 -272.925)" fill="#2a4c24"/>
  <path id="路径_271" data-name="路径 271" d="M1614.637,396.5l-.224-.164C1614.524,396.534,1614.632,397.308,1614.637,396.5Z" transform="translate(-1608.139 -272.773)" fill="#2a4c24"/>
  <path id="路径_272" data-name="路径 272" d="M1608.987,534.513c-.13-.051-.289-.268-.453-.62l.395,1.26C1608.937,534.973,1608.964,534.737,1608.987,534.513Z" transform="translate(-1605.469 -359.137)" fill="#2a4c24"/>
  <path id="路径_273" data-name="路径 273" d="M1610.514,538.029l.1,3.166.363,1.166C1610.84,541.15,1610.746,539.733,1610.514,538.029Z" transform="translate(-1606.394 -359.942)" fill="#2a4c24"/>
  <path id="路径_274" data-name="路径 274" d="M1607.448,490.843c-.167-6.557,1.275,1.611,1.581-1.4-.15-1.822-.754-2.464-.944-3.6.517,5.2-1.993-.705-1.673,4.541-1.095-.746-1.194-3.784-.9-5.563,1.055-2.015.773,1.76,1.808,2.216-.172-2.105-.365-1.734-.953-2.627.245-3.305-1.3-6.838.166-8.812-.232-2.392-.737-2.235-1.294-3.611-1.128-.274-.593,3.557-1.482,4.445.1-.184.287-.541.445-.438l-.237,2.068c.393-1.963,1.127.273,1.216,1.322.025.762.074,2.28-.238,2.071l-.242-1.155c-.358,1.488.824,3.282.212,4.853-.254.083-.373-.512-.53-.6.771,1.76.725,3.458,1.27,6.063l-1.12-1.51c1.239,2.084.888,6.8.235,10.074.189-.363.323-1.017.539-.624.268,1.921-.5,3.372-1.09,2.483.929,1.877-.781,7.15.425,9.708l5.693,11.76a6.816,6.816,0,0,1-.308-1.4c.982-1.069.864-1.646,1.79.228-.52-1.839-1.31-1.136-1.35-3.9.5,1.084,1.623,1.358,1.739-1.289-.981-6.617-3.777-11-5.2-17.183.757-.229.545-5.08.723-7.439.813.9,1.045,2.651,1.209,4.467.051-1.14.073-3.1.108-4.558Z" transform="translate(-1603.405 -348.213)" fill="#2a4c24"/>
  <path id="路径_275" data-name="路径 275" d="M1607.786,512.469a4.174,4.174,0,0,0,.091-.512A1.657,1.657,0,0,0,1607.786,512.469Z" transform="translate(-1605.082 -355.077)" fill="#2a4c24"/>
  <path id="路径_276" data-name="路径 276" d="M1607.086,501.007c.019.023.033.015.053.023-.011-.191-.025-.381-.037-.576C1607.1,500.649,1607.092,500.87,1607.086,501.007Z" transform="translate(-1604.761 -352.954)" fill="#2a4c24"/>
  <path id="路径_277" data-name="路径 277" d="M1610.091,532.775c.14.393.179.684.319,1.076-.047-.241-.085-.546-.127-.838C1610.217,532.736,1610.15,532.6,1610.091,532.775Z" transform="translate(-1606.171 -358.915)" fill="#2a4c24"/>
  <path id="路径_278" data-name="路径 278" d="M1609.231,534.32l-.2-.21c-.023.169-.028.288-.043.437C1609.095,534.593,1609.186,534.544,1609.231,534.32Z" transform="translate(-1605.65 -359.167)" fill="#2a4c24"/>
  <path id="路径_279" data-name="路径 279" d="M1610.565,464.519l-.107-.629A1.308,1.308,0,0,0,1610.565,464.519Z" transform="translate(-1606.301 -346.202)" fill="#2a4c24"/>
  <path id="路径_280" data-name="路径 280" d="M1606.972,484.888c.048,2.281.73.273.734,3.5l.044-.947c.312,2.315.169,6.384.195,9.134-.291-.31-.354,1.668-.806,1.346a15.4,15.4,0,0,0,.673,4.711c-.153,1.164.258,2.934.065,4.414.273-.625.924,2.108.59-1.5.037.291.1.108.138.4.38-2.322-.265-3.252-.274-5.253.269-1.2.435,1.956.543.827-.251-2.5.324-7.836-.69-7.671a4.937,4.937,0,0,1,.338-2.61c-1.081-2.875.463-10.669-.918-10.643a30.055,30.055,0,0,0,.321,4.3Z" transform="translate(-1606.426 -349.56)" fill="#2a4c24"/>
  <path id="路径_281" data-name="路径 281" d="M1610.02,528.166c.007-.14,0-.326.014-.443C1610.027,527.854,1610.022,528.016,1610.02,528.166Z" transform="translate(-1606.086 -357.987)" fill="#2a4c24"/>
  <path id="路径_282" data-name="路径 282" d="M1605.427,557.2l-.366-.954c-.088-5.43.015-7.393,0-12.142.05-.363.082.213.1.505-.042-3.338.034-8.333-.134-10.762,0-1.063.119-3.851.227-2.8-.032-.517-.064-1.107-.052-1.7.132-.157.038,1.33.146,1.364a3.142,3.142,0,0,0-.007-.763c.114.794.447-.822.438,2.876-.307,1.431-.036-2.565-.375-1.72,0,1.226.13,1.084.171,1.188-.008,1.564-.093,1.522-.171,1.439.105.6-.041,2.565.119,3.392.026,3.039-.255-.166-.251,1.819l.344,1.145-.065,3.3c.121,4.779.594-.683.788,4.779-.179-.719-.481,1.472-.553,4.014-.013-1.521-.237-4.332-.135-6.3-.269,2.768-.032-3.81-.34-2.373a42.484,42.484,0,0,1,.087,5.428l-.031-.584c-.037,1.892.323,3.324.186,5.933.011,1.3-.086,1.054-.167.827A11.6,11.6,0,0,1,1605.427,557.2Zm-.072-2.825.034-1.736A12.031,12.031,0,0,0,1605.355,554.373Z" transform="translate(-1601.292 -358.656)" fill="#2a4c24"/>
  <path id="路径_283" data-name="路径 283" d="M1615.817,820.206c-.023.172-.045.37-.069.526A2.3,2.3,0,0,0,1615.817,820.206Z" transform="translate(-1608.698 -413.309)" fill="#2a4c24"/>
  <path id="路径_284" data-name="路径 284" d="M1616.142,637.6l-.028,1.005C1616.143,638.207,1616.146,637.886,1616.142,637.6Z" transform="translate(-1608.851 -378.285)" fill="#2a4c24"/>
  <path id="路径_285" data-name="路径 285" d="M1618.942,664.341l.2,1.468A6.506,6.506,0,0,0,1618.942,664.341Z" transform="translate(-1611.128 -383.234)" fill="#2a4c24"/>
  <path id="路径_286" data-name="路径 286" d="M1615.875,805.944l.006-.05c-.014-.082-.033-.144-.045-.231Z" transform="translate(-1608.73 -458.217)" fill="#2a4c24"/>
  <path id="路径_287" data-name="路径 287" d="M1616.958,717.985a4.948,4.948,0,0,0-.186.818C1616.856,718.763,1616.916,718.456,1616.958,717.985Z" transform="translate(-1609.208 -393.127)" fill="#2a4c24"/>
  <path id="路径_288" data-name="路径 288" d="M1618.905,664.021c-.008.037-.01.059-.016.089.017.057.037.12.053.181Z" transform="translate(-1611.2 -383.15)" fill="#2a4c24"/>
  <path id="路径_289" data-name="路径 289" d="M1618.614,625.694c-.028-.216-.048-.412-.084-.644A3.491,3.491,0,0,0,1618.614,625.694Z" transform="translate(-1611.345 -375.962)" fill="#2a4c24"/>
  <path id="路径_290" data-name="路径 290" d="M1616.211,627.377a5.806,5.806,0,0,0-.084-.625Z" transform="translate(-1608.876 -376.276)" fill="#2a4c24"/>
  <path id="路径_291" data-name="路径 291" d="M1617.858,586.033l-.121-1.353A7.366,7.366,0,0,0,1617.858,586.033Z" transform="translate(-1610.679 -368.519)" fill="#2a4c24"/>
  <path id="路径_292" data-name="路径 292" d="M1616.766,623.208a1.506,1.506,0,0,0-.116-.21C1616.677,623.185,1616.727,623.275,1616.766,623.208Z" transform="translate(-1609.126 -375.575)" fill="#2a4c24"/>
  <path id="路径_293" data-name="路径 293" d="M1613.291,830.379c0-.03,0-.063,0-.082l-.1-.034Z" transform="translate(-1607.544 -414.884)" fill="#2a4c24"/>
  <path id="路径_294" data-name="路径 294" d="M1614.525,834.3c.026.387.048.791.07,1.188A7.685,7.685,0,0,0,1614.525,834.3Z" transform="translate(-1608.143 -415.517)" fill="#2a4c24"/>
  <path id="路径_295" data-name="路径 295" d="M1615.595,741.29c-.123.358-.269,1.2-.409.807C1615.363,742.783,1615.792,742.737,1615.595,741.29Z" transform="translate(-1608.574 -397.441)" fill="#2a4c24"/>
  <path id="路径_296" data-name="路径 296" d="M1607.985,822.572a4.673,4.673,0,0,1,.289.752C1608.15,822.823,1608.048,822.384,1607.985,822.572Z" transform="translate(-1605.194 -413.673)" fill="#2a4c24"/>
  <path id="路径_297" data-name="路径 297" d="M1608.274,823.472c.061.248.124.512.191.734C1608.41,823.948,1608.346,823.7,1608.274,823.472Z" transform="translate(-1605.316 -413.821)" fill="#2a4c24"/>
  <path id="路径_298" data-name="路径 298" d="M1608.561,730.407a.919.919,0,0,0,.121-.414C1608.566,730.048,1608.542,730.2,1608.561,730.407Z" transform="translate(-1605.437 -395.334)" fill="#2a4c24"/>
  <path id="路径_299" data-name="路径 299" d="M1614.459,835.875c.645.213,2.047,5.383,2.379,1.035,2.005.168.927,2.789,1.425,3.949.472-.843,1.29.418,2.009.163a3.779,3.779,0,0,1-.68-2.209c.919-.437,1.542,1.005,1.2,2.131,1.06-1.387,1.59,1.76,2.4-.2-.709-4.2-1.44-7.163-4.371-10.115.482,2.393,1.082,5.069.274,7.031l-1.74-.825c1.529-2.218.389-3.587.549-5.769l-.922,4.9c-1.443,2.295-1.776.759-2.092-1.05C1614.871,835.36,1614.766,835.762,1614.459,835.875Z" transform="translate(-1613.816 -414.941)" fill="#2a4c24"/>
  <path id="路径_300" data-name="路径 300" d="M1609.686,832.935l-.016.083a1.573,1.573,0,0,0,.055.207Z" transform="translate(-1605.934 -415.303)" fill="#2a4c24"/>
  <path id="路径_301" data-name="路径 301" d="M1606.85,586.5l-.206-.421C1606.737,586.432,1606.8,586.541,1606.85,586.5Z" transform="translate(-1603.245 -368.762)" fill="#2a4c24"/>
  <path id="路径_302" data-name="路径 302" d="M1612.321,829.465v0C1612.315,829.436,1612.315,829.427,1612.321,829.465Z" transform="translate(-1607.124 -414.755)" fill="#2a4c24"/>
  <path id="路径_303" data-name="路径 303" d="M1606.808,598.987a.423.423,0,0,1-.047-.057C1606.778,598.968,1606.794,598.968,1606.808,598.987Z" transform="translate(-1603.246 -371.129)" fill="#2a4c24"/>
  <path id="路径_304" data-name="路径 304" d="M1618.538,602.28c.024-.02.048-.025.073-.071C1618.581,601.985,1618.555,602.093,1618.538,602.28Z" transform="translate(-1611.345 -371.713)" fill="#2a4c24"/>
  <path id="路径_305" data-name="路径 305" d="M1606.858,599c-.016,0-.032.007-.05-.008C1606.826,599,1606.843,599.022,1606.858,599Z" transform="translate(-1603.246 -371.14)" fill="#2a4c24"/>
  <path id="路径_306" data-name="路径 306" d="M1608.856,659.3a2.6,2.6,0,0,0,.183-.413C1608.989,658.788,1608.93,658.886,1608.856,659.3Z" transform="translate(-1605.582 -382.199)" fill="#2a4c24"/>
  <path id="路径_307" data-name="路径 307" d="M1609.661,647.431c.02-.064.038-.1.06-.184Z" transform="translate(-1605.931 -380.051)" fill="#2a4c24"/>
  <path id="路径_308" data-name="路径 308" d="M1618.045,738.252c.008-.5-.006-.871-.029-1.186A8.782,8.782,0,0,0,1618.045,738.252Z" transform="translate(-1610.678 -396.66)" fill="#2a4c24"/>
  <path id="路径_309" data-name="路径 309" d="M1606.761,598.837a2.643,2.643,0,0,1-.19-.5A2.149,2.149,0,0,0,1606.761,598.837Z" transform="translate(-1603.245 -371.026)" fill="#2a4c24"/>
  <path id="路径_310" data-name="路径 310" d="M1611.6,677.5c-.021-.107-.042-.207-.06-.309-.01.062-.015.123-.027.184Z" transform="translate(-1606.779 -385.582)" fill="#2a4c24"/>
  <path id="路径_311" data-name="路径 311" d="M1611.2,682.458a1.8,1.8,0,0,0-.182-.362c.226,1.872-.02,5.312.559,5.719-.015-.636.325-3.929.665-3.368-.145-1.3.261-3.234.166-3.937-.317,2.142-.489.232-.684-1.215.169-1.316.466.248.573-.885l-.064-3.044-.077,2.651-.556-.805c.019.1.031.165.053.271C1611.916,681.968,1610.842,677.864,1611.2,682.458Z" transform="translate(-1606.843 -385.515)" fill="#2a4c24"/>
  <path id="路径_312" data-name="路径 312" d="M1611.022,683.213a4.4,4.4,0,0,0-.137-.719A1.435,1.435,0,0,0,1611.022,683.213Z" transform="translate(-1606.502 -386.571)" fill="#2a4c24"/>
  <path id="路径_313" data-name="路径 313" d="M1610.1,705.076c.019.23.045.479.088.794C1610.17,705.72,1610.144,705.374,1610.1,705.076Z" transform="translate(-1606.137 -390.742)" fill="#2a4c24"/>
  <path id="路径_314" data-name="路径 314" d="M1610.885,545.834c-.164.078-.5,2.692-.074,2.645q.064-1.163.135-2.342Z" transform="translate(-1606.412 -361.362)" fill="#2a4c24"/>
  <path id="路径_315" data-name="路径 315" d="M1612.591,764.074q.02-.436.011-.875a1.643,1.643,0,0,0-.067-.17A3.765,3.765,0,0,0,1612.591,764.074Z" transform="translate(-1607.234 -433.765)" fill="#2a4c24"/>
  <path id="路径_316" data-name="路径 316" d="M1612.447,686.942a2.332,2.332,0,0,0-.2-.808A2.308,2.308,0,0,0,1612.447,686.942Z" transform="translate(-1607.138 -387.245)" fill="#2a4c24"/>
  <path id="路径_317" data-name="路径 317" d="M1611.574,764.463c-.123.371-.309.918-.472,1a17.909,17.909,0,0,0,.3,2.064A13.2,13.2,0,0,1,1611.574,764.463Z" transform="translate(-1606.671 -433.074)" fill="#2a4c24"/>
  <path id="路径_318" data-name="路径 318" d="M1611.41,768.152c0-.022-.005-.043-.007-.062C1611.4,768.111,1611.408,768.13,1611.41,768.152Z" transform="translate(-1606.711 -433.366)" fill="#2a4c24"/>
  <path id="路径_319" data-name="路径 319" d="M1609.419,502.208q-.033-.325-.062-.671l.079.349c.029-.58.058-1.157.09-1.735-.018-.209-.036-.435-.047-.714a.612.612,0,0,0,.074.253c.01-.188.023-.372.034-.556-.306-1.381-.531-4.82-.71-5.812a36.357,36.357,0,0,1-.182-3.926c-.006.934.055,2.174.225,1.8.176-1.9.685-2.817.248-6.088l.006,1.919-.658-4.314c.273-1.512.328,2.154.565,2.752-.323-3.354.542-6.145-.027-7.7.338-.219.9-.587.868-2.788-.385,1.587-.248-1.32-.66-.018-.193-.76.122-2.456-.132-2.582l.141.206c.535-3.76-.3-4.99-.579-6.6-.138-4.5.081-6.569.024-10.241a3.662,3.662,0,0,0,.826-2.617c-.306-.685-.448-4.007-.841-4.346-.164,2.633.329,2.154.421,3.731-.411,1.312-.406.119-.653,1.911.16-1.446-.215-6.535.172-8.12l.054.559c.234-2.529,1.205-3.012.618-7.225l-.24-2.009c.04.1.085.107.121.159.041-3.29.487-2.391.135-6.025.027.281.07.1.1.39a32.223,32.223,0,0,0-.316-5.725c.327-.955.322.227.559.818a50.323,50.323,0,0,0-.834-9.836l.193-2.348c.135,1.393.48,3.094.677,2.669a17.035,17.035,0,0,1-.157-2.867,10.578,10.578,0,0,1,.668,1.935c.35-3.776-.742-.844-.1-3.487,0-1.187-.3-1.876-.554-2.006l.331-2.15c-.322-.239-.341-2.892-.389-4.632-.139-.212-.344,1.4-.218,2.06-.254-.129-.373-1.98-.368-3.17.675-.436-.1-7.793.7-6.385-.219-5.346-.288-12.855-.569-16.384.187-1.164.2-3.534.513-2.114,0-4.3-.69-6.523-.507-10.794.085-.353.007,1.931.233,1.779-.271-2.792.286-5.079.1-9.411a1.715,1.715,0,0,0,.221,1.042,18.077,18.077,0,0,1-.34-2.9c.058-.629.081.839.167.486.329-8.368-.589-14.743-.559-23.065-.009,2.376.438,3.275.621,3.3l.009-2.328c-.223-.9-.222-2.645-.39-4.107.084-.179.175-.89.281-.164.452-4.6-.817-7.185-.584-12.821l.9,6.826.314-1.689.41,3c.248-1.792-.324-3.351.015-3.567.1.379.065,1.292.248,1.321a14.714,14.714,0,0,0-.186-3.15c.689,3.408.679,10.091.848,13.687.055.566-.166-.484-.236-.584.022,1.467-.193,2.348-.073,4.2.292,1.147.215-.875.245-1.786.254.125.239.583.277,1.6-.338.221-.12,5.567-.532,6.873.106,5.417.875-.866.729,4.422l-.387,1.58a92.59,92.59,0,0,1,.482,10.516l-.013-.732c-.165-.487-.267.318-.352.675-.165,2.626.3,4.985-.083,6.576.412,2.994.715,7.987.928,11.41-.51.924-.433-4.466-.751-5.89l0,3.116a12.988,12.988,0,0,0-.49-3.842c-.1,2.731.352,3.629.481,6.219-.138-.2-.225.144-.228,1.339l.338.339c-.027.021-.052.154-.075.523l.208,4.607a9.419,9.419,0,0,0,.443-2.214c-.2.425-.237-.585-.231-1.776.221,1.043.187-1.162.37-1.136-.01,2.388.037,5.321.128,6.887l-.311.509c-.079,2.276.095,4.679,0,6.222l-.166-.486c-.1,2.729.1,5.418-.2,7.842.356,2.435.653,5.5,1.025,7.491.4,1.064-.5,7.146.062,9.891-.044.185-.3-1.885-.456-2.822-.062,1.826.438,3.278.015,3.851.142-4.1-.337.22-.457-1.626a40.964,40.964,0,0,0,.235,4.883c0-3.1.585,1.1.4-2.04a48.859,48.859,0,0,1,.361,8.663c-.183-.028-.268.33-.344,1.411l.265.873c-.049,1.358-.314-2.626-.409.107.453,2.814-.258,8.474.582,9.705-.332,2.145-.336-4.081-.742-.848-.3-1.881.044-4.474-.374-5.094.119,1.843-.354.672-.359,1.861l.259,2.056.016-.455c.395,3.449.205,8.914.273,13.318.422,3.731,1.03,6.3.985,10.774-.248-1.321-.238,3.717-.692.9a9.97,9.97,0,0,0,.224,4.156c.061-1.822.059-.641.147-2.175a17.761,17.761,0,0,1,.068,4.4c.015-.455-.027-.282-.1-.382-.15,2.175.22,1.042.313,2.614-.31.5-.083,3.471-.244,4.907l.442,2.082c-.291-1.144-.107,1.995-.374,2.322a23.5,23.5,0,0,1,.487,5.018c-.152-.938-.22,2.075-.514,2.114-.283,3.893.8,6.446.382,10.133-.07-.115-.263-.859-.337.219.082.849.047,2.335.079,3.243l-.008-.028c0,.018,0,.028.008.047.016.445.052.724.124.736a35.364,35.364,0,0,1,.828,5.415c.339-.225.208-2.807.1-3.925l-.333-.967c.509-.924-.088-2.759.083-3.462.6,1.835.45,7.12.818,10.291.471-1.934.544-6.139.487-9.808l-.2,1.616-.006-1.921-.359,1.859c.063-1.819-.029-3.39-.009-5.035.007,1.924-.459,2.674-.385,1.585.331-2.145-.217-2.235-.2-3.874-.03.912-.036,2.1-.229,1.334.406-3.232.142-4.105.574-7.045-.563.365-.056-3.672-.518-4.112l-.047,1.364-.341-2.893c.459-2.669.468,2.364.793-1.7.056-3.749-.535-3.652-.579-6.6a21.6,21.6,0,0,1,.61,5.686l.161-1.44a45.982,45.982,0,0,1,.133,5.693c-.383-2.713-.118,1.269-.417,2.5.323.226.272-1.515.531.541-.006-1.926-.033-2.208.088-4.658-.147,5.3,1.12,4.763.849,9.387-.146-2.131-.466.743-.622,1,.039,1,.116,3.037.2,3.873l.467-.758c.2,2.695-.785,3.63-.306,6.739.28.4.1-2.734.149-2.175.293,4.253-.457,5.786-.808,9.563.14.213.435.169.682,1.49-.279-.415-.423.562-.627-.924a21.522,21.522,0,0,0,.2,3.873c.164-2.629.4,1.075.571,1.559-.049,1.362-.28-.415-.361-1.253-.075,1.093-.488,2.392-.068,3.013-.294.043-.776-3.056-.851-5.082l-.048,1.365a9.821,9.821,0,0,1-.063-2.473c-.228,1.327-.48,1.2-.689.888.042-.174.07.1.112-.07.074-1.092-.007-1.929-.163-1.676-.4-.982-.247,1.515-.444,2.255.026.559.052,1.118.079,1.666l1.272,5.674a25.112,25.112,0,0,1-.348,5.335l.34.5c-.034,2.109-.143,4.1-.573,2.747.114-.076.086-.354.1-.812a.782.782,0,0,1-.106-.3,1.18,1.18,0,0,0-.06-.1c.11,2.258.182,3.669.194,3.8-.493-3.836-.617-.192-1.22-.833l.2,3.874c.191-2.349.294-.043.376.79-.339.23,0,3.12-.044,4.479l-.07-.1a40.474,40.474,0,0,0,.007,5.032,22.809,22.809,0,0,1,1,2.907c.127-2.691.263-1.094.473-1.309a3.353,3.353,0,0,0,.02.837c.1.385.129-.522.242-.6-.159-2.862-.2-5.8-.676-6.972-.214.879.205,1.5.062,2.481a28.157,28.157,0,0,1-.248-5.623l.284-.779-.154-2.393c.15,1,.447.4.5,2.907.268-.32-.06-2.489.029-4.025l-.376-.786c.21.3.25-2.987.537-.65l.308,3.8.257-1.057.073,3.215-.2-.759c.261,5.165-.75,1.523-.305,6.721a21.276,21.276,0,0,1,.395,6.562c-.1-2.3-.322-.237-.586-1.1a13.469,13.469,0,0,0,.364,4.365c-.241.6-.438,1.025-.4-1.076-.505-.263.087,2.763-.433,2.955.016,6.958,1.68,5.576,1.03,13.71l-.209-.305c.261,5.165.011,8.146.175,12.929l-.533,3.766c-.083-.842-.48-3.107-.737-2.05.539-1.832.35-3.776.64-5.75-.139-.2-.242.6-.327.952a32.55,32.55,0,0,0,.154-3.362c-.112.076-.246,1.792-.311.5l.331-2.141c-.159-2.863-.794-1.41-.642-4.773a9.427,9.427,0,0,1,.8,3.2c.065-1.536.179,2.048.356.646-.439-2.214-.091-3.282-.366-6.226a4.914,4.914,0,0,1,.174,1.161l.185-4.271c-.257,1.056-.281-3.529-.663-3.132-.157,4.553.072,3.215-.144,8.4a16.469,16.469,0,0,0-.831-4.249,1.06,1.06,0,0,0,.034-.28c-.377-.793-.479.015-1.138,0,.469,2.368.083,3.951.352,6.744.361.525.461-1.62.368-3.009l.239,2.46-.166-.484-.122,6.245a6.949,6.949,0,0,0-.386-2.2,23.542,23.542,0,0,1-.214,2.452c.344-.177.588-.065.581.721a33.579,33.579,0,0,1-.785,7.734c.009.154.016.328.024.468.354-.673.636,2.853,1,4.1-.366-.061-.22,2.071-.407,3.229.42.616,1-.207,1.34-1.616-.383-2.717-.386-1.523-.929-2.806l-.363-4.358.334.974c.147-2.175-.295-4.265.141-4.105.291,1.149.115,3.047.405,4.187l.16-1.439c.427,2.538-.412,1.3-.114,4.375.369-1.13.026.278.274,1.6.258-1.057-.106-5.412.523-4.488.274,1.6-.737,5.378-.112,7.493l-.071-.1a18.649,18.649,0,0,0,.5,5.384,31.672,31.672,0,0,0,.106,4.6l-.183-.035.077,2.03c-.334-.967.009-2.379-.039-4.122l-.34.217c.4-2.01-.209-3.352-.5-4.91.294,2.269-.083,6.407.582,6.94l-.344,1.4.125.672c-.258,1.045-.661-.023-.738-2.05.085-.352.128-.529.2-.422a15.655,15.655,0,0,1-.337-4.082l.179,1.215a26.819,26.819,0,0,0-.441-6.385c-.141,4.095-.171,8.121-.156,11.964.768,1.134,1.2,2.479,1.912,3.057a58.433,58.433,0,0,1-.032,8.321l-.14-.205a18.189,18.189,0,0,0,.046,2.94c-.187,1.155-.377-.79-.479.015l.24,3.694c-.323-.227-.325-3.336-.347-4.813.027.279.081.842.124.661.133-1.717-.417-4.916.05-5.667-.081-.837.345,1.7.37-1.134.176-1.9-.243-2.514-.383-2.712-.184-.031-.251,2.976-.472,1.933a24.9,24.9,0,0,1,.083,3.952c-.022-1.463-.393-3.45-.109-4.229-.34-2.893-1.2-2.479-1.246-1.115.269-.324.331,5.278.682,1.484.346,1.7.348,4.817.564,7.046l-.068-.1.085,2.768c-.1-.391-.177-1.227-.359-1.254l.49,3.833c-.33-2.158-.229,1.337-.374,2.319.279.41.484,1.908.645.471.2-1.615-.151-.94-.173-2.409l.441,2.08-.043.177.361,1.252c-.025,2.833-.84-1.237-.487,2.392l.492-.472c-.072,4.2-.626,9.6-.4,12.568-.28-.82-.73-1.18-1-.054.085-1.28.067-3.853.021-5.689.087-.353.582,2.293.476,4.289.806-.967-.487-5.018.33-5.252.285-5.082-.787-3.791-.308-8.1-.365-.06-.178-1.227-.5-1.454-.6,1.277.02,5.768-.188,8.566a4.358,4.358,0,0,0-.15-.933,22.9,22.9,0,0,0,.109,4.227l.043-.177c.357,2.442-.272,1.511-.432,2.948.054.557-.051,2.556.216,2.235l-.346,2.6.406-.125a14.534,14.534,0,0,0,0,3.121l.365.062.126-3.647c.119,1.848.348.514.426,2.546-.4-2.269-.2,1.6-.541,1.829l.2,1.494-.1-.382c-.187,1.173.136,1.4.088,2.765a15.5,15.5,0,0,0,.2-4.727c.205,1.5.433,4.466.444,5.195a28.968,28.968,0,0,1-.166,4.14c-.146-2.822-1.1.989-.843-4.667a1.635,1.635,0,0,1,.011.74c.466-.754-.029-3.391-.208-4.617-.268.316-.334-.967-.483,1.208.171-.714.6,1.831.378,3.9l-.574-.365-.068,3.012-.027-.282c-.37,1.133.071,3.214-.146,5.288.205,1.5.042,7.241.642,4.77-.359,1.861.1,3.5.175,5.526l.235-2.531a20.473,20.473,0,0,0,.8,4.527c-.157.242-.286.776-.451.289-.03,4.021-.192,9.764.277,12.124-.025,2.835-.7,3.28-.436,7.257.082.837.536-.653.372,1.981-.042.177-.425-2.536-.38.4.441,2.089-.245,4.906.139,7.623-.159,1.434-.1,3.923-.448,3.4a38.635,38.635,0,0,0-.16-5.978c.21.314.2-1.616.366.058.264-3.434-.217-2.229-.037-5.31-.14-.212-.386,1.584-.261,2.245-.478.015-.231-6.076-.8-3.337-.041,3.292.954,4.27.452,7.124-.291-1.143-.045-2.932-.546-4.386l-.191,2.345.344,1.7-.071-.1c-.437,4.142.491,3.831.731,7.537.331-2.147.827.5,1.03-1.119.061,2.478,0,4.3-.479,4.314-.389-4.636-.505-.263-.981-4.549-.171.7-.7-1.02-.751,1.533.341,2.878.4-.861.555,2.009-.043.169-.086.345-.156.245.249,1.32-.089,1.541.185,3.137l-.1-.378c-.29,1.969.328,2.155.013,3.85.354-.678.29,1.138.511,2.189a35.758,35.758,0,0,0,.615-6.039c-.281-.409-.436-.162-.571-1.554l.034,2.2c-.046-.475-.119-.837-.175-1.274l.146-2.117c.2,2.684.5,1.453.791,2.594-.122,2.456.076,2.027-.015,3.571-.411-.155-.7,4.736-.966,7.565.016-.44,0-1.007.016-1.313-.26-2.054-.344,1.414-.456,1.489l.206,1.5c-.028-.282-.125-.672-.182-.033.077,2.026.485,1.909.561,3.932-.225.152-.57-1.559-.688-.3a9.25,9.25,0,0,0-.523,4.5,8.025,8.025,0,0,1,.173,1.7,2.74,2.74,0,0,0-.038-.3l-.247,1.786c-.386-1.521.182-3.077-.205-4.606l-.367-.13a18.278,18.278,0,0,0-.35-3.549c-.063,1.814.033,2.2.11,4.225-.232.284-.4-1.144-.429-1.35l.209.3c.3-2.419-.353-3.617-.284-6.63.015-.455.042-.177.112-.076-.356-2.437.131-4.83-.337-7.2l.193.772c-.156-1.613-.517-4.768-.866-7.921l-.143-.026c-.086.351-.081-.834-.023-1.469l0,0c-.174-1.58-.335-3.1-.455-4.343a8.4,8.4,0,0,0-.182,1.489c.168.494.03,3.392.411,2.994-.23,1.339.1,3.5-.044,4.479.245-1.791.359,1.248.569,1.561-.24.6.019,2.654-.3,2.42a5.4,5.4,0,0,0,.021-1.641c-.3-1.875-.265,3.435-.551,1.1.227,2.972.127,6.889.426,9.955l.133-1.716c-.048,1.363.024,4.589-.132,4.83-.038-1.013-.034-2.2-.1-3.492-.365-.063,0,3.113-.223,3.257l.6,3.763.02-1.648a63.933,63.933,0,0,1-.1,7.038c-.5-1.466-.013-3.854-.213-6.541-.19-1.952-.483,1.205-.6-.642a7.217,7.217,0,0,0,.023,2.28l-.091.728c-.454-1.648-.352-5.342-.743-7.8a1.6,1.6,0,0,0,.153.472,36.112,36.112,0,0,0,.048-5.663,6.106,6.106,0,0,0,.007,1.921,23.192,23.192,0,0,1-.285-2.332c-.132,1.717-.268.321-.344,1.407a24.323,24.323,0,0,1-.028-3.388c.172-.706.236.585.46.441-.134-1.4.4-2.045.144-4.1-.094,2.733-.49-.72-.641-1.661l-.015.458a3.29,3.29,0,0,1-.034-2.2c.108,1.118.034,2.2.3,1.882-.011-.739-.023-1.475-.1-2.312l.193.761-.055-3.671a12.908,12.908,0,0,0-.919-2.061,9.791,9.791,0,0,0-.047-2.943l.1.389a21.833,21.833,0,0,0-.177-5.527c.187-1.157,1.332,8.178,1.138,0,0-3.109-.667-1.936-.9-3.711,0,0,.068.1.112-.077a12.588,12.588,0,0,0-.314-2.615,9.452,9.452,0,0,0-.009,2.379c-.279-.41.025-2.834-.2-3.876.43,1.353.164-2.63.386-1.58a24.552,24.552,0,0,0-.382-7.02c.541-1.836-.072-3.22.179-6.2-.017.458.064,1.289.007,1.93.343,1.7.179-3.088.492-.473-.054-.559-.181-.04-.127.533.039,1,.188,1.948.344,1.7l.3-2.429.083.847.42-3.686c-.07-.1-.155.246-.2.423.185-4.274-.048-9.163.007-12.907-.967-.7-.414-9.22-1.008-12.246.278.811.768,1.255.969.753a20.687,20.687,0,0,1,.35,3.587c-.156.244-.331,2.135-.509.918.11,4.229.424-.572.784.676-.094-4.687-.66-7.435-.888-10.394l.115-.075-.216-2.234c-.064,1.825-.612,1.735-.421-.617l.027.286c.231-1.342-.041-4.134,0-6.229l-.316-1.421a3.845,3.845,0,0,1,.979-2.873,45.17,45.17,0,0,0-.729-7.527c.257-1.057.318-5.986.63-3.374-.227-2.968-1.606-2.369-.842-7.46l.249,1.321c-.052-4.867-.546-11.808-.285-14.05.893,1.8.908-6.079,1.783-6.944-.2.242-.266-1.587-.374-1.853a3.662,3.662,0,0,0,.022-1.777c-.176,1.9-.907-1.334-.555,2.3a24.771,24.771,0,0,1-1.038-8.225l.364.06-.11,3.183c.269-.321.249,1.317.373,1.988.205-5.921.854.775.806-5.278-.236-.585-.139-.206-.232-1.779.013.74.264.872.269-.319l-.292-1.145c.609-2.114.4,3.5.825,1.7.286,2.337.439,6.385.905,5.631.168-3.816-.872-3.434-.661-7.424l.2-.425a8.962,8.962,0,0,0-.65-2.4c.112-.069.2-.427.23-1.327-.469-2.371-.562-3.944-1.073-6.13.384,5.819-.356,4.975-.015,10.981-.151-.942-.262-5.17-.766-5.429l.366.055a40.86,40.86,0,0,1-.258-6.357l.205,1.5c-.254-3.251.555-5.4-.053-7.97a17.059,17.059,0,0,0,.034,2.2,46.145,46.145,0,0,1-.065-5.592l-.6-3.762c.181.032.192-2.351.481-1.2.278-2.709-.266-3.986-.356-5.552.388-2.774.173,2.4.677,2.676a60.382,60.382,0,0,0-.312-10.031c-.073.78-.136,1.159-.226,1.119a14.591,14.591,0,0,0,.09-2.515l-.238-.59c.16-1.43.3-1.228.479-.012.046-1.366-.411-3-.068-4.4.285,2.334.037,5.309.214,6.525-.234-4.877.722-4.908.422-11.092.114-.076.333.971.337-.221-.087-2.759-.489-.72-.752-1.583a12.31,12.31,0,0,1-.3,4.346l-.192-.567c.1-.085.1-1.42.2-1.813l-.393-.344c.435.159.765-1.976.6-3.654-.314,1.7-.3,1.238-.793,1.7-.469-2.359.46-2.662-.036-5.306.14.2.244,2.507.351.512.02-1.651-.319-1.431-.427-2.538.361,1.247.63.927,1.06,2.279.046,2.933,0,1.182.153,4.05l.306-2.427c.059,2.486.414,1.807.552,2.012.369-4.245-.55-3.2-.455-5.93-.248-1.317-.052,2.559-.312.5.053-2.554-.237-.583-.393-3.45l.166.48a10.293,10.293,0,0,0-.086-2.756c-.11-1.115-1.258,1.262-1.282-3.322.1.225.164.307.207.307l3.038,4.474c-.007-4.646.078-10,.281-15.38.594-1.266.49,3.84.757,3.511l-.121,2.454c-.252-.138-.078-5.141-.524-2.925.182,4.333-.108,6.3.412,10.41.595-1.277-.106-5.414.354-8.088a22.643,22.643,0,0,0,.111,2.991q.115-3.767.251-8.055l-.144-.641c-.067,1.926-.118,3.258-.139,3.429.052-2.554-.278-4.706-.713-4.877l-.016.454-.136-.923Q1609.377,503.1,1609.419,502.208Zm.1-165.495a1.223,1.223,0,0,0,.151.367C1609.61,336.987,1609.57,337.091,1609.523,336.713Zm1.358,215.492c.063-3.405.182-6.839.234-10.11-.861,5.905-1.513,10.056-1.5.2l-.062-.645c-.105,1.287-.118,3.509-.056,5.6.305,1.691,1.426,7.147,1.525,7.088a12.107,12.107,0,0,0,.051-2.561Zm-1.442,2.42c-.1,1.93.1,1.491.267,1.79-.022-.679-.044-1.357-.065-2.028C1609.6,554.643,1609.536,554.77,1609.438,554.625Zm.438,1.675a2.924,2.924,0,0,1,.035-.5Zm.219-37.534c0,.086.007.117.01.2.014-.456.026-.912.04-1.389A9.259,9.259,0,0,0,1610.1,518.765Zm-.421,3.917.314.458q.018-.637.036-1.3A1.285,1.285,0,0,0,1609.674,522.682Zm-1.034,12.59c.377.794.394,3.452.83,3.615.112.169.155-.39.191-1.017q.014-1.05.036-2.24c-.064-.028-.123-.185-.18-.448-.054.783-.162,1.306-.43.989.583-2.013-.415-1.8-.266-3.979C1608.514,531.5,1608.517,534.612,1608.64,535.272Zm1.134,167.212a5.786,5.786,0,0,0-.257.572l-.215-1.532c.1-2.734.721-4.923.182-7.383a7.915,7.915,0,0,1,.657-2.357c-.017.563-.04,1.091-.076,1.53C1610.852,700.212,1609.234,696.911,1609.774,702.485Zm.768-31.427a.869.869,0,0,0,.1.382,107.809,107.809,0,0,1-1-14.429,29.12,29.12,0,0,0-.693,4.995l-.361-1.244.284-.776-.328-2.158c-.243.6-.192,2.346-.38,3.51.07.1.49,3.832.712,4.874l.25-2.98c-.1.8-.018,4.758.074,6.326.181.03.46-2.671.067-3.011.269-.322.272,2.793.559.824a47.2,47.2,0,0,1-.085,7.77l-.452.291c-.176,1.891.544,1.277.283,3.523-.089-2.761-.494.467-.529-1.729-.171.7-.478.014-.444,2.215.6,1.832-.375,2.32.153,4.051-.187,1.156-.359-1.245-.44,1.031.313,2.612.54,2.46.974,2.622.121-2.442-.565-2.743-.46-4.741l.745,3.972a8.133,8.133,0,0,0,.086-1.729,10.283,10.283,0,0,0,.306,2.056c.085.331.159.635.221.917a24.341,24.341,0,0,1,.2-4.6l.211.31a6.867,6.867,0,0,0-.112-2.694c-.023-2.016-.317-4.029-.044-4.47l.193.765C1610.571,674.451,1610.544,674.174,1610.542,671.057Zm.48-81.244c-.773,1.5-1.456,3.158-1.321,10.166l-.053-.552c-.485,3.532.641,6.887.1,11.183a19.971,19.971,0,0,0-.932-4.275l.219,2.237c-.421-.62-.2,1.611-.224,3.253l-.5-1.449a16.323,16.323,0,0,0,.082-3.464c.055.559.632-3.372.487-5.507-.339.22-.2,4.729-.756,2.716.233,1.774-.106,1.994.013,3.849-.232-1.779-.463-.44-.71-1.764l.116,3.041c-.113.08-.251-4.43-.667-1.938.177,1.219-.045,4.473.32,4.531l-.112.075c-.079,2.28.516,1,.309,3.8.184.033.31-.5.273-1.5a15.242,15.242,0,0,1-.385-2.724c.286-.783-.035,2.105.447.894.241-.6-.207-4.609.336-3.332l-.08,2.275c.366.059.345,1.707.64,1.66.135,1.392-.276,2.705.041,4.126.237.59.676-.44.485,1.912-.541,1.837-.435,7.25-.358,9.278l.234,1.775c.224-.151-.031-3.391.26-2.252l.088,2.768-.141-.214a20.836,20.836,0,0,0,.2,2.691c-.263-.861-.157-2.856-.538-2.459a16.934,16.934,0,0,0-.143,2.693c-.028-.261-.065-.486-.118-.453a4.757,4.757,0,0,0,.55,3.2c.495,2.644.459-2.665.851-2.327l.21,7.72c-.123-.659-.247-1.323-.4-1.074-.176,1.893-.3.043-.277,2.7.521-.19.324,3.347.626,5.225-.214.878-.256,1.058-.263-.86-.337.22-.208,2.8-.239,3.711.084.531.133,1.436.208,2.01.168-.769.38-.441.524,1.222l.071.1c.093-2.726.462-6.965.116-8.674l.167.482c.293-3.156-.607-6.868.032-8.324.253.134.058-.634.422-.579l-.285-2.324.165.483-.082-3.953.068.1c-.33-1.88-.6-3.351-.82-4.526-.159,0-.208.117-.325-.509a8.585,8.585,0,0,1-.07-1.531l0,0h0c.046-.97.275-1.616.368-2.81l.04,3.675c.27.3.551-.013.74-1.814.009.737.221,1.045.252.134-.07-.1-.173-2.409-.389-1.529-.1-3.492.611-9.145.1-14.447.309,3.809.362-3.052.474,1.176.432-2.952-.427-2.54-.359-5.549.156-.256-.02,1.638.287,2.329.173-5-.7-8.439-.568-13.279l.338-.208C1611.118,591.889,1611.07,590.871,1611.022,589.813Zm-.42-9.572q-.057-1.4-.116-2.836c-.006.094-.006.181-.01.278l-.272-2.8c-.131,1.72-.5,2.853-.675.446.14.2.311-.5.392.335.2-1.613.4-5.151-.112-4.228.481,3.1-.649.722-.292,3.157a27.971,27.971,0,0,1-.33-3.836c.277,1.285.629-.3.762-2.229-.083-.84,0-3.113-.138-4.51-.312.5-.491-.718-.568,1.557a17.42,17.42,0,0,1,.013-3.572c.053.574.092,1.576.205,1.507a20.9,20.9,0,0,0,.4-2.63c-.018-.481-.033-.967-.05-1.439a1.394,1.394,0,0,1-.107.35l-.275-1.6c.146,2.129-.144.985-.326.957.364.057.047-1.371.035-2.1l-.386,1.584c-.193-.766.279-2.7-.1-2.3a73.138,73.138,0,0,0,.027,7.687l.3-1.232c.212,3.427-.514,2.113-.5,5.958.273,1.6.019,5.783.567,5.863-.167-.483-.487,2.394-.24,3.712.5,1.457.569,5.86.8,4.527.005-1.19-.269-2.792.057-3.749l.1,2.309.273-1.516C1609.933,580.677,1610.2,580.6,1610.6,580.241Zm3.073-51.675c0-.025,0-.058.007-.089,0,.034,0,.068,0,.1Z" transform="translate(-1605.717 -319.549)" fill="#2a4c24"/>
  <path id="路径_320" data-name="路径 320" d="M1613.221,832.031c.18.688.15,2.388.538,2.055C1613.332,834.128,1613.694,831.048,1613.221,832.031Z" transform="translate(-1607.68 -415.131)" fill="#2a4c24"/>
  <path id="路径_321" data-name="路径 321" d="M1612.8,834.237c.1.12.265.036.28.8l-.109-2.1Z" transform="translate(-1607.415 -415.303)" fill="#2a4c24"/>
  <path id="路径_322" data-name="路径 322" d="M1613.545,836.991c1.771,1.084,2.769,1.77,2.606,3.471-5.786.638-1.615-2.785-7.017-3.556-.546,3.117,4.511,4.075,5.007,6.639C1616.553,842.275,1617.945,837.085,1613.545,836.991Z" transform="translate(-1608.094 -415.925)" fill="#2a4c24"/>
  <path id="路径_323" data-name="路径 323" d="M1608.579,835.333l.234,1.734.061-.171-.234-1.736Z" transform="translate(-1605.469 -415.651)" fill="#2a4c24"/>
  <path id="路径_324" data-name="路径 324" d="M1617.608,790.5c.326-.156.006-1.236-.073-1.816A5.743,5.743,0,0,0,1617.608,790.5Z" transform="translate(-1610.681 -467.543)" fill="#2a4c24"/>
  <path id="路径_325" data-name="路径 325" d="M1617.947,384.409l-.314-13.227C1617.715,374.987,1617.756,378.5,1617.947,384.409Z" transform="translate(-1610.682 -285.825)" fill="#2a4c24"/>
  <path id="路径_326" data-name="路径 326" d="M1615.485,738.51c.307,3.552.867,5.129,1.009,8.748.655-4.758-1.022-6.285-.351-10.28Z" transform="translate(-1608.978 -396.88)" fill="#2a4c24"/>
  <path id="路径_327" data-name="路径 327" d="M1618.077,739.857c-.612.589-.717-2.74-1.165-2.224.149,2.393.582,1.114.53,3.286Z" transform="translate(-1610.692 -396.81)" fill="#2a4c24"/>
  <path id="路径_328" data-name="路径 328" d="M1607.963,759.162l-.318-1.077.116.867Z" transform="translate(-1605.04 -434.388)" fill="#2a4c24"/>
  <path id="路径_329" data-name="路径 329" d="M1617.534,720.831l.138.393.194-1.781Z" transform="translate(-1610.682 -393.42)" fill="#2a4c24"/>
  <path id="路径_330" data-name="路径 330" d="M1617.813,721.946l-.141-.392Z" transform="translate(-1610.68 -393.776)" fill="#2a4c24"/>
  <path id="路径_331" data-name="路径 331" d="M1606.65,757.721l-.131,1.6.281.792Z" transform="translate(-1603.244 -403.628)" fill="#2a4c24"/>
  <path id="路径_332" data-name="路径 332" d="M1609.933,740.935l.2,1.432C1610.091,742.083,1610.343,740.123,1609.933,740.935Z" transform="translate(-1606.084 -397.35)" fill="#2a4c24"/>
  <path id="路径_333" data-name="路径 333" d="M1617.794,707.87l-.235-1.742-.06.178.234,1.737Z" transform="translate(-1610.681 -390.963)" fill="#2a4c24"/>
  <path id="路径_334" data-name="路径 334" d="M1608.247,727.418c-.471.988-.128-2.857-.543-.822C1607.776,728.407,1608.022,727.672,1608.247,727.418Z" transform="translate(-1605.09 -394.63)" fill="#2a4c24"/>
  <path id="路径_335" data-name="路径 335" d="M1611.436,702.626a3.4,3.4,0,0,0-.069-.721C1611.387,702.189,1611.412,702.427,1611.436,702.626Z" transform="translate(-1606.708 -390.155)" fill="#2a4c24"/>
  <path id="路径_336" data-name="路径 336" d="M1611.436,702.76a10.52,10.52,0,0,0-.044,2.037A4.679,4.679,0,0,0,1611.436,702.76Z" transform="translate(-1606.721 -390.344)" fill="#2a4c24"/>
  <path id="路径_337" data-name="路径 337" d="M1611.326,692.445l-.033.687c-.232-.7-.2-.369-.011.258.016.729.165.688.266.775.057.145.118.29.183.448-.061-.224-.12-.427-.17-.6C1611.565,692.886,1611.542,692.2,1611.326,692.445Z" transform="translate(-1606.712 -388.433)" fill="#2a4c24"/>
  <path id="路径_338" data-name="路径 338" d="M1619.252,654.169c-.175,2.541-.26,3.2-.625,3.06-.116,2.412.512,2.038.659,3.492C1619.215,657.992,1619.383,657.434,1619.252,654.169Z" transform="translate(-1611.097 -381.46)" fill="#2a4c24"/>
  <path id="路径_339" data-name="路径 339" d="M1619.286,661.937c.007.306.015.6.029.953A7.455,7.455,0,0,0,1619.286,661.937Z" transform="translate(-1611.691 -382.78)" fill="#2a4c24"/>
  <path id="路径_340" data-name="路径 340" d="M1607.335,704.206l-.559-1.579.078.579Z" transform="translate(-1604.656 -390.309)" fill="#2a4c24"/>
  <path id="路径_341" data-name="路径 341" d="M1619.436,649.687a7.8,7.8,0,0,1-.132,1.6C1619.67,651.419,1619.458,649.216,1619.436,649.687Z" transform="translate(-1611.534 -380.519)" fill="#2a4c24"/>
  <path id="路径_342" data-name="路径 342" d="M1612.278,661.316a12.967,12.967,0,0,0-.176,2.545C1612.149,662.913,1612.822,662.138,1612.278,661.316Z" transform="translate(-1607.117 -382.698)" fill="#2a4c24"/>
  <path id="路径_343" data-name="路径 343" d="M1617.93,641.056c-.024.471-.269,1.2-.572.882C1617.538,642.623,1618.182,643.549,1617.93,641.056Z" transform="translate(-1610.685 -378.937)" fill="#2a4c24"/>
  <path id="路径_344" data-name="路径 344" d="M1612.343,655.811l-.124.362.235,1.739Z" transform="translate(-1607.134 -381.672)" fill="#2a4c24"/>
  <path id="路径_345" data-name="路径 345" d="M1606.951,662.68c.436,1.956,1.051-3.1,1.42.266.456-4.344-.617.333-.546-2.871C1607.678,661.952,1607.127,662.871,1606.951,662.68Z" transform="translate(-1604.82 -382.48)" fill="#2a4c24"/>
  <path id="路径_346" data-name="路径 346" d="M1607.825,659.91c.023-.273.036-.568.038-.889C1607.842,659.375,1607.831,659.662,1607.825,659.91Z" transform="translate(-1605.095 -382.24)" fill="#2a4c24"/>
  <path id="路径_347" data-name="路径 347" d="M1610.583,627.444a5.012,5.012,0,0,0,.147.657A5.067,5.067,0,0,0,1610.583,627.444Z" transform="translate(-1606.366 -376.404)" fill="#2a4c24"/>
  <path id="路径_348" data-name="路径 348" d="M1607.465,647.261l.654,2.931c-.435-1.958-.409-6.883-1.06-6.576a13,13,0,0,0,.322,4.3Z" transform="translate(-1604.814 -379.506)" fill="#2a4c24"/>
  <path id="路径_349" data-name="路径 349" d="M1619.275,607.994l.259,1.267.076-1.581C1619.512,608.132,1619.034,607.313,1619.275,607.994Z" transform="translate(-1611.478 -372.77)" fill="#2a4c24"/>
  <path id="路径_350" data-name="路径 350" d="M1619.623,607.317l-.013.305A1.082,1.082,0,0,0,1619.623,607.317Z" transform="translate(-1611.868 -372.681)" fill="#2a4c24"/>
  <path id="路径_351" data-name="路径 351" d="M1610.9,634.016a13.382,13.382,0,0,0,.088,2.567C1611.109,636.225,1611.223,633.866,1610.9,634.016Z" transform="translate(-1606.517 -377.653)" fill="#2a4c24"/>
  <path id="路径_352" data-name="路径 352" d="M1618.328,597.445l.112,2.09-.049-2.281Z" transform="translate(-1610.678 -370.857)" fill="#2a4c24"/>
  <path id="路径_353" data-name="路径 353" d="M1619.436,585.527l.123-.36-.234-1.733-.123.367Z" transform="translate(-1611.522 -368.3)" fill="#2a4c24"/>
  <path id="路径_354" data-name="路径 354" d="M1606.619,600.93c-.069,1.417.516,2.523.64,2.153l-.026-2.748c-.512.7.015.762-.115,2.355Z" transform="translate(-1604.586 -371.435)" fill="#2a4c24"/>
  <path id="路径_355" data-name="路径 355" d="M1621.507,493.022c1.01.614.426,3.619-.535,3.776-.417-.4-.815-2.033-1.427-1.009l2.481,2.377c-1.548,3.163-3.261-2.4-4.138-3.966-.319,3.223,1.312,4.177,1.3,7.6a4.375,4.375,0,0,1,1.371-2.184c1.745-.116.975,3.078,1.11,5.36.759-1.453,1.4-.612,2.085.446a.761.761,0,0,0,.269.407c.083.123.162.24.245.359v-.274a1.236,1.236,0,0,0,.753-.238c-.505-1.916.951-3.381.975-4.614-2.839,1.219-.659-4.2-1.53-5.75l-.281-1.791-.006-.669c.313-.135.7.055,1.264,1.076-.561-.852-.363-3.693-1.276-3.431l-.042-6.486a1.726,1.726,0,0,1,.464-.554c-.178-.224-.322-.261-.467-.233l-.183-28.257c-.224,1.393-.871,2.6-1.184,4.037-1.887-2.157-.34,2.357-2.124,1.724a3.434,3.434,0,0,1-.012-3.234c-.9-.315-1.7.89-2.771.75-1.134,3.564,3.176,4.11,2.52,7.594-1.078-.137-2.023-1.215-1.876,1.065l-.233-.579c1.208,3.652-2.44,2.846.52,5.144l-1.556-.06c1.173,1.656,1.182,4.879,1.394,6.7l-.3-.109c1.781,5.1.378,2.86,1.125,8.582l-1.819-2.633c-.75,1.974,1.226,2.419,1.022,3.835-.3-.1-1.441.227-1.722-1.111l2.771,6.942C1620.873,495.273,1620.843,493.28,1621.507,493.022Z" transform="translate(-1616.521 -345.024)" fill="#2a4c24"/>
  <path id="路径_356" data-name="路径 356" d="M1617.695,510.5a10.65,10.65,0,0,0-.02,1.278C1617.691,511.3,1617.695,510.891,1617.695,510.5Z" transform="translate(-1610.678 -354.817)" fill="#2a4c24"/>
  <path id="路径_357" data-name="路径 357" d="M1619.3,452.62l.005,1.985A16.655,16.655,0,0,0,1619.3,452.62Z" transform="translate(-1611.679 -344.132)" fill="#2a4c24"/>
  <path id="路径_358" data-name="路径 358" d="M1618.846,521.641c.272-1.2.381.9.584,1.112l-.01-4.311c-.2.019-.43-.407-.616-.32Z" transform="translate(-1611.547 -356.263)" fill="#2a4c24"/>
  <path id="路径_359" data-name="路径 359" d="M1619.8,516.816a3.186,3.186,0,0,1-.388-1.113l.005,2.362C1619.573,518.049,1619.711,517.785,1619.8,516.816Z" transform="translate(-1611.714 -355.791)" fill="#2a4c24"/>
  <path id="路径_360" data-name="路径 360" d="M1608.962,517.208l-.018-.763-.156-1.154Z" transform="translate(-1605.549 -355.709)" fill="#2a4c24"/>
  <path id="路径_361" data-name="路径 361" d="M1609.856,503.411a8.96,8.96,0,0,0,0,3.219C1609.85,504.637,1609.967,505.5,1609.856,503.411Z" transform="translate(-1605.972 -353.529)" fill="#2a4c24"/>
  <path id="路径_362" data-name="路径 362" d="M1606.555,505.975l-.174-1.921-.061.179Z" transform="translate(-1603.245 -353.633)" fill="#2a4c24"/>
  <path id="路径_363" data-name="路径 363" d="M1617.224,435.049c-.012-.315-.02-.621-.034-.939A9.174,9.174,0,0,0,1617.224,435.049Z" transform="translate(-1610.679 -340.705)" fill="#2a4c24"/>
  <path id="路径_364" data-name="路径 364" d="M1617.727,449.538c.592-4.583.492,3,1.25,1.563l-.251-2.494.2.213-.066-3.042c-.349.625-.37,1.093-.736.958.143-4.06.434-1.28.9-4.259l-.067-4.538.11.368a1.622,1.622,0,0,0-.114-.682l-.227-15.294c-.29-2.783-.658,1.538-1.195-.514,0,3.225-.387,8.018.342,8.292-.1-.108-.3-.321-.389.332l.6,1.865.191-1.778c.6,1.876.465,7.932.093,9.028-.2-3.444-.923-1.716-.532-6.514-.185.215-.51,1.094-.611.013C1617.436,438.675,1617.1,443.714,1617.727,449.538Z" transform="translate(-1611.364 -338.543)" fill="#2a4c24"/>
  <path id="路径_365" data-name="路径 365" d="M1617.376,387.892l.066.045C1617.406,387.836,1617.38,387.8,1617.376,387.892Z" transform="translate(-1610.679 -278.042)" fill="#2a4c24"/>
  <path id="路径_366" data-name="路径 366" d="M1617.286,389.8l.714,2.74-.058-4.273-.5-.31a6.044,6.044,0,0,1,.185,2.457Z" transform="translate(-1610.686 -276.952)" fill="#2a4c24"/>
  <path id="路径_367" data-name="路径 367" d="M1618.432,396.54c-.213-2.207-.8-2.087-1.072-.883-.274-2.027.634-1.069.011-2.465-.425.046-.176,2.543-.1,3.117Z" transform="translate(-1610.696 -273.998)" fill="#2a4c24"/>
  <path id="路径_368" data-name="路径 368" d="M1618.122,416.349l-.245-.621-.065,1.529Z" transform="translate(-1610.681 -307.218)" fill="#2a4c24"/>
  <path id="路径_369" data-name="路径 369" d="M1617.877,415.446l.065-1.517a1.056,1.056,0,0,0-.482.456Z" transform="translate(-1610.683 -307.449)" fill="#2a4c24"/>
  <path id="路径_370" data-name="路径 370" d="M1618.113,408.8c.044-.642.077-1.353.093-2.217Z" transform="translate(-1610.678 -308.339)" fill="#2a4c24"/>
  <path id="路径_371" data-name="路径 371" d="M1617.962,410.944l.077-.051.074-1.684C1618.066,409.829,1618.016,410.385,1617.962,410.944Z" transform="translate(-1610.679 -308.038)" fill="#2a4c24"/>
  <path id="路径_372" data-name="路径 372" d="M1617.942,413.422c.414-.246.848-.535.733-2.729l-.636.432Z" transform="translate(-1610.688 -307.769)" fill="#2a4c24"/>
  <path id="路径_373" data-name="路径 373" d="M1607.178,489.442l-.234-1.735-.064.184.234,1.734Z" transform="translate(-1604.685 -350.613)" fill="#2a4c24"/>
  <path id="路径_374" data-name="路径 374" d="M1607.555,477.7c-.073-.429-.149-.755-.227-1.05A3.43,3.43,0,0,0,1607.555,477.7Z" transform="translate(-1604.886 -348.562)" fill="#2a4c24"/>
  <path id="路径_375" data-name="路径 375" d="M1605.494,468.125c1.082-2.041,1.43,2.816,1.909-.964,1.007-.333,2.305,1.439,1.8,3.218-.947-.142-.606-1.734-1.574-.64,1.1,1.182.351,1.631,1.78,1.22.89,1.989,1.9,2.21,2.832,3.559-.629-2.4.838-7.451-.993-10.5-1.717-1.682-4.06-.661-6.539-.669C1604.129,463.6,1603.853,467.961,1605.494,468.125Z" transform="translate(-1603.405 -346.144)" fill="#2a4c24"/>
  <path id="路径_376" data-name="路径 376" d="M1603.782,472.876a7.681,7.681,0,0,0,.07,1.812C1604.178,474.532,1603.8,473.639,1603.782,472.876Z" transform="translate(-1603.405 -347.873)" fill="#2a4c24"/>
  <path id="路径_377" data-name="路径 377" d="M1610.958,446.845c-.135-.18-.3-1.889-.538-1.521l.171,2.591A1.6,1.6,0,0,1,1610.958,446.845Z" transform="translate(-1606.365 -342.78)" fill="#2a4c24"/>
  <path id="路径_378" data-name="路径 378" d="M1610.665,449.541l-.074-1.136A6.552,6.552,0,0,0,1610.665,449.541Z" transform="translate(-1606.355 -343.347)" fill="#2a4c24"/>
  <path id="路径_379" data-name="路径 379" d="M1611.042,446.991c-.028.041-.056.078-.084.123C1610.987,447.151,1611.016,447.144,1611.042,446.991Z" transform="translate(-1606.525 -343.078)" fill="#2a4c24"/>
  <path id="路径_380" data-name="路径 380" d="M1618.35,401.439c.261.036.1-1.118.028-1.7A9.282,9.282,0,0,0,1618.35,401.439Z" transform="translate(-1610.679 -309.256)" fill="#2a4c24"/>
  <path id="路径_381" data-name="路径 381" d="M1617.321,350.032l.208-1.02A2.947,2.947,0,0,0,1617.321,350.032Z" transform="translate(-1610.68 -324.163)" fill="#2a4c24"/>
  <path id="路径_382" data-name="路径 382" d="M1610.176,331.546a.42.42,0,0,1-.134-.207A.356.356,0,0,0,1610.176,331.546Z" transform="translate(-1606.116 -321.395)" fill="#2a4c24"/>
  <path id="路径_383" data-name="路径 383" d="M1610.042,330.417c-.217-.7.121-2.849-.21-3.622l.1.1-.2-1.44A25.452,25.452,0,0,0,1610.042,330.417Z" transform="translate(-1606.005 -320.474)" fill="#2a4c24"/>
</svg>
