<svg xmlns="http://www.w3.org/2000/svg" width="11.653" height="823.113" viewBox="0 0 11.653 823.113">
  <g id="scroll_bar_bottom" data-name="scroll bar/bottom" transform="translate(1.075 0.036)">
    <path id="联合_7" data-name="联合 7" d="M5.859,813.163l-.281,4.615L4.46,810.059c.74,3.047,1.98.19,1.085-2.487-1.825-.539-.752-.629-1.694-4.8.349.771,1.127-1.015.986-3.063a9.016,9.016,0,0,0,.14-1.993c.517,8.247,3.267.952,3.152,11.01-.045-1.474-.45-1.346-.7-1.548a21.217,21.217,0,0,0,.1,6.887l-.5-.419L7.176,822C5.4,820.538,7.374,814.421,5.859,813.163ZM4.325,792.084a13.736,13.736,0,0,0,.281,4.111l-2.133.176c.011.41.031.74.054,1.1-.173-1.614-1.042-1.793-1.258-3.063a46.742,46.742,0,0,0,.974-9.4c-1.152-2.875-.839-3.591-1.215-8.259,1.436-1.737.727,5.457,2.144,6.116a11.772,11.772,0,0,0-.239-2.6c.487-2.454.939.212,1.463,1.153-.377-1.732-.957-3.167-1.378-4.89-.442-.28-1.066-5.122-1.413-5.408a3.482,3.482,0,0,0,.34-1.879c.141,2.018.287,3.863.6,4.243a20.677,20.677,0,0,1-.028-2.271,2.232,2.232,0,0,1,.79.9c-.011-.489-.011-1-.007-1.542l-.329-1.906.151-.338.193,1.118c.035-2.005.1-4.273,0-6.67-.1-1.807-.218-1.224-.333-.643s-.212,1.142-.27-.534a24.082,24.082,0,0,0,.025,4.178l-.092,1.335c-.454-3.021-.351-9.79-.743-14.3a4.562,4.562,0,0,0,.153.865c.176-3.47.169-6.995.047-10.378a20.659,20.659,0,0,0,.007,3.521c-.11.129-.16-3.067-.284-4.275-.074,1.751-.148,1.735-.214,1.719s-.1-.025-.13.86c-.108-2.05-.077-3.711-.029-6.209.1-.754.164-.268.243.219.056.351.124.7.218.59-.135-2.572.4-3.747.144-7.513-.095,5.008-.491-1.319-.641-3.044l-.016.838a10.844,10.844,0,0,1-.034-4.032c.108,2.048.034,4.032.3,3.449-.009-1.353-.023-2.7-.1-4.236l.193,1.4L1.7,719.855a36.352,36.352,0,0,0-.92-3.775,32.616,32.616,0,0,0-.047-5.393l.1.713a72.677,72.677,0,0,0-.178-10.128c.07-.794.275,1.11.493,3.014.364,3.178.767,6.357.646-3.014,0-5.7-.666-3.547-.9-6.8,0,0,.067.183.113-.139A42.144,42.144,0,0,0,.7,689.54,32.1,32.1,0,0,0,.686,693.9c-.277-.75.027-5.193-.194-7.1.22,1.275.257-.039.27-1.353.014-1.238.007-2.477.115-1.543A81.8,81.8,0,0,0,.5,671.037c.54-3.364-.072-5.9.178-11.361-.018.84.065,2.362.007,3.537.157,1.453.209.315.247-.824.044-1.265.077-2.531.233-.233-.059-.7-.166.191-.116,1.166.038,1.839.189,3.569.347,3.109l.3-4.451.083,1.554.421-6.755c-.07-.183-.155.451-.2.775.185-7.831-.05-16.79.007-23.652C1.04,632.611,1.593,617.006,1,611.461c.277,1.487.767,2.3.967,1.379.041,1.237.432,3.768.351,6.572-.155.447-.333,3.912-.509,1.682.065,4.64.2,3.347.383,2.054.117-.867.254-1.732.4-.814-.095-8.589-.659-13.625-.889-19.046l.115-.137L1.6,599.057c-.063,3.345-.612,3.179-.421-1.131l.027.523c.232-2.459-.041-7.574,0-11.414l-.317-2.6a10.881,10.881,0,0,1,.979-5.265c.043-6.029-.441-9.512-.729-13.794.259-1.936.32-10.968.63-6.183-.227-5.439-1.607-4.342-.842-13.669l.25,2.42C1.123,539.024.628,526.305.889,522.2c.51,1.88.734-2.024.994-6.012a2.186,2.186,0,0,1-.333-.759c.093.079.228.061.386-.051.181-2.683.388-5.229.723-5.883-.189.3-.256-2.937-.362-3.415a12.153,12.153,0,0,0,.023-3.257c-.077,1.488-.252,1.254-.4,1.023-.2-.312-.353-.622-.151,3.183a81.1,81.1,0,0,1-1.04-15.071l.365.109-.11,5.832c.27-.588.25,2.413.374,3.644.1-5.4.313-5.073.493-4.751s.335.652.313-4.921a4.369,4.369,0,0,1-.18-1.231,24.309,24.309,0,0,1-.079-5.352.414.414,0,0,1,.132-.027c.091-.339.158-.259.209.059a2.712,2.712,0,0,1,.706,1.585c0-.362.012-.746.024-1.155l.2-.779a27.774,27.774,0,0,0-.65-4.4,7.117,7.117,0,0,0,.229-2.433c-.47-4.344-.562-7.227-1.073-11.233.385,10.664-.355,9.117-.014,20.123C1.514,485.3,1.4,477.556.9,477.08l.367.1c-.191-3.578-.378-7.153-.259-11.648l.2,2.744c-.254-5.957.556-9.9-.052-14.6q-.049,2.393.027,3.91c-.157-3.046-.119-6.835-.059-10.124l-.6-6.894a5,5,0,0,0,.167-1.388c.07-1.032.144-2.064.315-.812.279-4.966-.266-7.3-.356-10.174.387-5.083.171,4.405.677,4.9.166-7.005.016-14.43-.313-18.381-.074,1.429-.137,2.123-.225,2.05.115-.213.083-3.035.088-4.608l-.236-1.082c.16-2.621.3-2.251.479-.023.045-2.5-.412-5.49-.07-8.071.286,4.277.038,9.728.216,11.957-.234-8.939.722-9,.421-20.327.038-.046.088.136.137.319.1.365.2.731.2-.722-.056-3.151-.232-2.887-.421-2.625-.113.16-.232.319-.331-.277a40.934,40.934,0,0,1-.3,7.963l-.193-1.037c.1-.157.106-2.6.2-3.322l-.394-.631c.434.292.765-3.62.6-6.7C.88,390.691.9,389.852.4,390.7c-.47-4.324.459-4.879-.036-9.723.139.361.243,4.592.351.937C.736,378.886.4,379.289.29,377.26c.36,2.285.63,1.7,1.06,4.176.045,5.374-.007,2.167.153,7.423l.306-4.448c.058,4.557.412,3.313.551,3.688.369-7.779-.549-5.862-.455-10.868-.117-1.127-.135-.181-.149.764-.016,1.081-.025,2.163-.162.15.052-4.678-.238-1.067-.394-6.322l.164.881a34.353,34.353,0,0,0-.086-5.052c-.038-.683-.191-.652-.378-.62-.374.063-.889.125-.9-5.467.1.412.162.562.2.562l3.04,8.2q0-2.209,0-4.527l-.275-.56c-.218-10.627.038-14.47,0-23.763.126-.71.2.417.245.99-.105-6.5.084-16.219-.33-21l-.046-.116.042.07,0-.021c0-.474.019-1.124.046-1.82-.141-.4-.272-.822-.391-1.263l.4,1.007c.035-.823.085-1.688.144-2.39-.086-2.042-.131-4.22-.111-5.7-.007,1.712.056,3.983.225,3.3.032-.62.074-1.183.119-1.723q0-.11,0-.22l.016-.012c.016-.186.032-.369.049-.552l-1.86-10.39c-.873-5.006.364-15.328-.308-19,.248,1.011.54.476.7-.887a32,32,0,0,1-.112-3.934c-.062.311-.122.822-.191,1.184.091-1.234.174-2.573.242-3.961q-.042-.56-.082-1.125a.572.572,0,0,0,.132.055c.077-1.792.126-3.638.136-5.421l-.832-4.822c.209.707.514.893.778.948-.052-1.421-.144-2.725-.284-3.831a7.8,7.8,0,0,1-.227-1.4q-.016-.08-.033-.157l.03.111a9.528,9.528,0,0,1,.129-2.147l.415,1.389a79.513,79.513,0,0,0-.682-8.265c.113.178.2,1.34.382,1.178.042-.288.072-.58.092-.875a4.136,4.136,0,0,1-.455-2.264l.464,0a51.037,51.037,0,0,1-.255-6.362l.175,2.262c.225.409.191-2.561.173-4.055-.065-2.052-.6-6.431-.882-2.588l.173-4.048c-.048-.085-.1-.011-.149.129q.028-.177.053-.376a11.808,11.808,0,0,1-.173-3.535,8.985,8.985,0,0,0,.313,1.816c.153-2.755.139-6.248.706-5.876.09.6.178,1.05.262,1.441a14.136,14.136,0,0,0-.075-4.458l.2,1.134c-.01-.339-.014-.641-.013-.907-.354-2.575-.189-7.391.08-7.761a2.282,2.282,0,0,0,.561-.073A14.712,14.712,0,0,1,1.8,206.954c.428.129.8-.324,1.159-.775a2.381,2.381,0,0,1,.788-.771c.109-3.483-.272-6.927-.356-9.56.329-1.751.322.416.56,1.5.043-2.26.007-4.582-.075-6.825l-.168-1.989a.342.342,0,0,1,.079-.073c-.176-3.58-.448-6.831-.671-9.135l.193-4.3c.135,2.552.479,5.67.677,4.891-.068-2.366-.223-1.908-.157-5.254.021.056.041.12.061.192-.005-.116-.011-.232-.016-.348.127,1.057.394,1.156.687.937-.067-2.48-.684.3-.165-3.621,0-2.177-.3-3.438-.554-3.676l.331-3.94c-.322-.437-.342-5.3-.389-8.488-.14-.389-.344,2.566-.218,3.773-.254-.236-.373-3.629-.369-5.807.677-.8-.1-14.28.7-11.7-.22-9.8-.288-23.557-.571-30.024.187-2.133.2-6.477.515-3.873,0-7.886-.691-11.953-.509-19.779A7.325,7.325,0,0,1,3.4,89.9c.02.9.059,1.791.169,1.659-.268-5.027.267-9.164.112-16.84a5.41,5.41,0,0,0,.166,1.363c-.1-.656-.2-3.4-.292-5.165.029-.618.05-.134.074.349.022.421.049.842.092.541.329-15.333-.59-27.015-.56-42.266-.009,4.354.439,6,.621,6.047l.009-4.266c-.223-1.643-.223-4.847-.392-7.527.086-.328.176-1.631.281-.3C4.131,15.066,2.862,10.329,3.094,0L3.97,12.137l.041.234.3-2.959.409,5.5c.247-3.285-.324-6.14.016-6.537a12.492,12.492,0,0,0,.247,2.42A48.855,48.855,0,0,0,4.8,5.022c.689,6.246.68,18.492.848,25.081.054,1.039-.166-.886-.236-1.069.022,2.688-.191,4.3-.072,7.687.29,2.1.214-1.6.245-3.273.252.231.238,1.071.275,2.928-.337.4-.119,10.2-.531,12.594.052,4.99.272,4.56.461,4.132s.338-.849.266,3.97l-.385,2.9c.3,5.626.563,12.9.482,19.27l-.014-1.344c-.164-.893-.266.585-.351,1.237-.167,4.814.3,9.135-.083,12.05.412,5.487.716,14.636.927,20.91-.511,1.691-.432-8.184-.752-10.794l0,5.711a42.676,42.676,0,0,0-.49-7.04c-.094,5,.351,6.649.481,11.395-.139-.368-.225.264-.227,2.454l.337.622a4.227,4.227,0,0,0-.076.958l.031,1.267.389.548c0-.223,0-.452,0-.685.131,1.133.171.174.221-.784a9.406,9.406,0,0,1,.107-1.229,9.113,9.113,0,0,0-.424-1.6l1.249.608.146,8.363-.92-2.762c.012,1.99.033,3.945.063,5.59.584-.013,1.179.977,1.478,3.4L6.56,127.85l-.048.144c-.081,4.169.095,8.575,0,11.4L6.35,138.5c-.1,5,.105,9.921-.2,14.36.044-.079.087-.159.13-.24.1-.186.193-.372.285-.532l.043-.8L7.163,151c.116-.963.225-1.934.33-3l-.165,2.915.874-.464c.16,2.392-.106,3.627-.552,4.334l.543,28.661a2.573,2.573,0,0,1,.286,1.335l-.275-.719.166,8.881c-.4,2.008-.743,2.679-1.041,3.021.037,1.445.057,2.924.058,4.395.061-.109.126-.226.2-.348l0-.536q.02.243.034.48c.1-.174.22-.358.357-.551l.164,5.954-.509-.416.628,4.881c-.445.661-.772.35-1.03-.4-.011.037-.024-.011-.038-.114-.075-.236-.145-.51-.21-.805l.01,3.448c.039,1.7.027,3.616.015,5.5l.013,4.518c.03.781.047,1.578.055,2.381a10.044,10.044,0,0,0,.358,2.533c-.155,1.844-.238.308-.326-1.226-.009-.157-.017-.314-.026-.467,0,1.485-.017,2.978-.039,4.412l.019,6.919q.017.3.04.572c-.013-.059-.026-.117-.039-.174l.05,18.238q.023.334.046.671c.109-.02.219.082.352.47a3.153,3.153,0,0,0-.28.672c.17,2.8.283,5.8.262,9.516-.112-1.083-.171.166-.243,1.414-.03.507-.061,1.014-.1,1.365l0,.811c.737-.491.619,4.553,1.019,6.464-.351-1.411-.621-1.91-.843-1.93.026,1.211.02,2.52-.01,3.608L7.4,279.5c.652,2.678-.711,11.26.616,11.589-.021-.532-.035-1.127-.04-1.813.085.453.166,1.068.241,1.8a1.223,1.223,0,0,0,.479-.328,14.871,14.871,0,0,1-.3,2.5c.122,1.894.2,4.158.193,6.442l.162-2.639c.191,1.4.151,7.424.133,10.431-.385-4.969-.119,2.325-.418,4.589.11.141.175-.137.227-.416.1-.537.133-1.074.3,1.407-.007-3.53-.032-4.046.09-8.536-.149,9.705,1.118,8.728.848,17.2-.146-3.907-.466,1.362-.623,1.832.041,1.839.117,5.566.2,7.1l.468-1.39c.2,4.939-.785,6.653-.306,12.349.135.363.16-.83.157-2.02,0-1.244-.038-2.489-.009-1.964.293,7.793-.457,10.6-.808,17.524.139.389.434.31.682,2.73-.1-.275-.187-.217-.261-.159-.131.1-.236.2-.367-1.534a70.867,70.867,0,0,0,.2,7.1c.164-4.818.4,1.971.569,2.857-.047,2.5-.279-.759-.36-2.3-.076,2-.488,4.384-.07,5.522-.293.079-.774-5.6-.851-9.314l-.047,2.5a32.708,32.708,0,0,1-.063-4.532c-.227,2.433-.482,2.193-.691,1.628.02-.162.038-.114.056-.069s.036.092.056-.06c.074-2,0-3.535-.162-3.072-.4-1.8-.247,2.774-.446,4.132.027,1.023.054,2.049.079,3.053l1.274,10.4A73.252,73.252,0,0,1,8.3,383l.143.828-.181-.229-.013.222.34.916c-.034,3.863-.142,7.511-.574,5.034a4.527,4.527,0,0,0,.1-1.488,2.254,2.254,0,0,1-.106-.55c-.02-.079-.041-.125-.059-.19.108,4.138.18,6.723.194,6.961-.315-4.469-.479-3.4-.711-2.327-.133.613-.29,1.226-.509.8l.166,6,.058.514c.173-3.3.271.583.348,2.033-.338.423,0,5.718-.045,8.208l-.068-.183c-.119,2.306-.085,6.346.007,9.221a7.921,7.921,0,0,1,.39,1.788l-.268-3.933.158-.373L7.8,420.6c.2,1.148.43,2.578.6,3.495.09-3.465.182-3.049.3-2.633.05.176.106.35.169.234a11.436,11.436,0,0,0,.02,1.534c.1.706.128-.956.243-1.1-.16-5.244-.2-10.636-.677-12.776-.214,1.61.2,2.746.061,4.545a94.7,94.7,0,0,1-.245-10.3l.284-1.427L8.4,397.791c.151,1.828.448.727.5,5.327.268-.587-.059-4.56.029-7.377L8.56,394.3c.081.215.137-.567.191-1.351.086-1.228.169-2.454.344.16l.311,6.968.257-1.936.072,5.89-.2-1.39c.263,9.464-.749,2.79-.3,12.314a70.707,70.707,0,0,1,.394,12.025c-.061-2.528-.164-2.186-.295-1.844-.085.229-.184.458-.29-.18a44.575,44.575,0,0,0,.362,8c-.241,1.1-.437,1.878-.4-1.971-.5-.481.088,5.064-.432,5.415.016,12.751,1.679,10.218,1.031,25.123l-.211-.558c.263,9.466.011,14.926.175,23.691l-.531,6.9c-.08-1.48-.449-5.357-.706-3.965.5-3.295.325-6.785.607-10.327-.139-.368-.241,1.1-.326,1.744,0-2.181.245-3.276.153-6.16-.112.139-.245,3.283-.31.914l.331-3.923c-.157-5.246-.794-2.582-.641-8.747a29.465,29.465,0,0,1,.794,5.873c.032-1.429.079-.446.137.537.059.956.133,1.913.22.646-.439-4.057-.092-6.015-.367-11.409a15.934,15.934,0,0,1,.173,2.128l.187-7.826c-.137,1.027-.209-.86-.3-2.748-.083-1.666-.182-3.333-.36-2.991-.157,8.342.072,5.89-.144,15.4a53.077,53.077,0,0,0-.833-7.785,3.548,3.548,0,0,0,.034-.514c-.25-.958-.378-.639-.625-.321a.654.654,0,0,1-.513.321c.47,4.34.085,7.241.353,12.36.267.708.391-1.239.4-3.331l-.138-.8a6.84,6.84,0,0,1,.138.684c0-.712-.009-1.435-.032-2.072l.238,4.509-.166-.888-.121,11.446a22.051,22.051,0,0,0-.387-4.037c-.014,1.476-.108,2.938-.214,4.493.344-.326.59-.12.583,1.321-.033,2.9-.1,5.285-.194,7.284a3.311,3.311,0,0,0,.428-1.4c.034.262.061.5.083.728a.088.088,0,0,1,.034.015c.29,2.1.115,5.584.405,7.673l.16-2.637c.415,4.52-.365,2.509-.135,7.557.014.115.026.244.037.382.346-1.925.014.62.26,3,.257-1.938-.106-9.917.522-8.224.275,2.929-.736,9.855-.113,13.73l-.07-.19a61.96,61.96,0,0,0,.5,9.866c-.2,2.433.085,5.792.108,8.428l-.184-.065.077,3.72c-.333-1.772.009-4.36-.038-7.555l-.34.4a31.607,31.607,0,0,0-.418-8.238c0,.306,0,.624,0,.96.023.742.036,1.534.044,2.342v.034c.037,3.8-.023,7.921.455,8.623L8.472,525.1l.124,1.231c-.257,1.915-.659-.042-.738-3.757.086-.645.128-.969.2-.773-.1-1.119-.245-2.178-.314-3.924l-.166-.971c.053.171.1.344.15.52,0-.146-.008-.3-.011-.452-.03-.082-.063-.163-.092-.24.016-.056.02-.1.041-.173l.049.279c-.013-.723-.013-1.552.005-2.52l.18,2.226c.007-1.488,0-2.938-.018-4.291-.165-.334-.347-.614-.519-.923-.059,5.265-.07,10.435-.061,15.438.77,2.079,1.2,4.543,1.913,5.6.133,4.726.229,11.143-.032,15.247l-.139-.375c-.074,2-.036,3.847.045,5.386-.1,1.12-.2.646-.286.173-.076-.419-.144-.84-.191-.146l.238,6.769c-.322-.416-.324-6.112-.347-8.819.027.511.081,1.541.124,1.21.133-3.146-.416-9.008.05-10.384-.032-.592.011-.264.079.065.108.523.275,1.046.29-2.142.178-3.475-.243-4.606-.383-4.969a9.049,9.049,0,0,0-.2,1.971c-.074,1.33-.151,2.661-.277,1.569.023,2.706.261,3.785.083,7.243-.023-2.681-.394-6.322-.108-7.749-.342-5.3-1.2-4.543-1.247-2.043a9.136,9.136,0,0,1,.245,2.559c.112,2.211.22,4.421.436.16.344,3.121.347,8.828.565,12.911l-.07-.185.086,5.073a9.272,9.272,0,0,0-.358-2.3l.488,7.025c-.329-3.953-.227,2.45-.374,4.25.279.752.486,3.5.646.863.2-2.959-.151-1.723-.173-4.414l.441,3.812-.043.326.362,2.293c-.014,2.454-.2,2.08-.36,1.707-.178-.416-.315-.831-.128,2.676l.493-.865c-.072,7.7-.626,17.591-.4,23.031-.281-1.5-.731-2.163-1-.1.085-2.344.068-7.06.023-10.424.085-.646.581,4.2.475,7.859.808-1.772-.486-9.195.331-9.625.286-9.314-.785-6.947-.308-14.852-.362-.111-.178-2.249-.5-2.663-.594,2.339.023,10.569-.187,15.7a13.9,13.9,0,0,0-.151-1.71,77.127,77.127,0,0,0,.11,7.745l.043-.324c.358,4.476-.272,2.771-.432,5.4.054,1.022-.052,4.684.216,4.1l-.347,4.77.074-.041.2-.665-.083.6.213-.12a48.909,48.909,0,0,0,0,5.719l.364.113.126-6.683c.119,3.387.349.942.425,4.666-.4-4.159-.2,2.94-.54,3.35l.2,2.737-.1-.7c-.187,2.149.137,2.558.088,5.066a51.514,51.514,0,0,0,.2-8.663c.2,2.743.432,8.184.445,9.521.153,2.878-.126,4.891-.166,7.585-.146-5.172-1.1,1.813-.844-8.552a5.374,5.374,0,0,1,.011,1.354c.466-1.381-.029-6.213-.207-8.46-.086.183-.151.072-.2-.037-.117-.236-.18-.474-.279,2.251.171-1.309.6,3.356.378,7.146l-.574-.668-.07,5.519-.027-.516a25.458,25.458,0,0,0-.125,4.4l.292-.532c-.117.545-.205,1.067-.269,1.569.023,1.145.035,2.358-.012,3.58.333.948.731,1.624,1.316,1.185l-1,1.315q.049.248.1.5c.054-.154.107-.3.159-.415a6.19,6.19,0,0,1,.108,1.652,24.771,24.771,0,0,1,.479,10.738,52.59,52.59,0,0,0-.554-5.494c-.347,3.384.106,6.364.182,10.06l.234-4.638a66.207,66.207,0,0,0,.8,8.295c-.157.444-.286,1.421-.452.53-.029,7.368-.191,17.893.279,22.215-.027,5.194-.7,6.01-.437,13.3.027.553.106.551.187.55.14,0,.288-.005.185,3.081a4.515,4.515,0,0,1-.13-.886c-.124-.971-.281-1.943-.25,1.612.441,3.829-.243,8.99.14,13.97-.16,2.628-.1,7.19-.448,6.239.079-4.164.007-10.058-.162-10.954.081.22.128-.164.169-.55.061-.617.1-1.235.2.657.263-6.294-.216-4.085-.036-9.732-.14-.389-.387,2.9-.261,4.113a5.641,5.641,0,0,1-.273-2.184.487.487,0,0,1-.285.3c-.05-.149-.091-.3-.126-.446.238,3.336.712,5.324.333,9.274-.293-2.1-.045-5.374-.547-8.037l-.191,4.3.344,3.119-.07-.185c-.436,7.588.491,7.019.731,13.811.173-2.084.4-1.707.594-1.33.178.335.338.671.434-.722.061,4.543,0,7.877-.479,7.907-.389-8.5-.506-.483-.981-8.335-.063.465-.171.349-.288.233-.2-.2-.43-.41-.463,2.577.171,2.637.27,2.24.347,1.844s.13-.793.209,1.837c-.043.31-.086.632-.155.449.247,2.419-.09,2.824.184,5.749l-.095-.694c-.29,3.609.326,3.949.011,7.056.355-1.242.29,2.084.513,4.011.133-3.148.641-4.853.612-11.067-.279-.75-.434-.3-.569-2.848L7.21,727.7c-.047-.872-.119-1.534-.176-2.334l.146-3.879c.2,4.918.5,2.663.792,4.752-.124,4.5.074,3.715-.016,6.544-.342-.236-.6,5.925-.83,10.987q.011-.066.022-.13c-.009.124-.02.245-.032.36-.043.94-.084,1.838-.125,2.645C7,745.991,7,745.182,7,744.6c-.009.025-.018.048-.027.07.009-.047.019-.1.028-.147,0-.1,0-.2,0-.285-.261-3.764-.344,2.591-.457,2.73l.181,2.427c-.04-.411-.112-.682-.159.256.079,3.713.486,3.5.563,7.206-.088.106-.194-.294-.3-.694-.162-.638-.322-1.275-.391.143a27.419,27.419,0,0,0-.562,6.946c1.594,5.022,2.086,10.31,2.563,17.385-.338,2.036-.614,1.263-.923.491-.272-.685-.569-1.37-.959-.093.246-2.046-.155-4.625-.789-4.3-.006.669-.034,1.356-.08,2.034.122.937.341,1.718.46,2.417-.216.19-.443-.052-.66-.333a14.081,14.081,0,0,1-.735,3.348c-.024-.547-.073-1.057-.14-1.539l-.414,4.956,1.9,3.518c.839-3.754.9-3.377,1.141-3,.176.282.45.564,1.22-.874-.83,2.711.344,9.5-1.652,11.729Zm1.3-15.219a9.788,9.788,0,0,0,.011,1.316l.028-.013c.011-.488.011-.934,0-1.345C5.651,776.836,5.638,776.85,5.625,776.865Zm-1.154,1.059c.017-2.045.041-4.2-.779-4.7C4.086,774.916,3.964,777.052,4.472,777.924Zm-.595-4.935L5.241,774.6q.05-.307.092-.625a19.954,19.954,0,0,0-.839-2.6c.443.041.755.582.96,1.426a44.789,44.789,0,0,0,.032-5.389c-.113-.089-.233-.12-.331-.21l.242-1.441q-.046-.744-.1-1.489a6.841,6.841,0,0,0-.228-1.051,2.147,2.147,0,0,1,.133-.2c-.058-.736-.118-1.467-.176-2.184q.109.274.213.548a59.536,59.536,0,0,0-.348-6.19c-.063,3.326.034,4.025.11,7.742-.232.521-.405-2.1-.43-2.473l.209.555c.3-4.435-.353-6.63-.284-12.148.016-.835.041-.326.113-.141-.358-4.467.13-8.851-.338-13.193l.191,1.414C4.307,734,3.947,728.218,3.6,722.44l-.142-.048c-.085.642-.081-1.522-.023-2.688-.173-2.9-.335-5.678-.454-7.955-.088.727-.162,1.659-.182,2.728.169.905.029,6.216.412,5.487-.229,2.429.092,6.323-.041,8.15.242-3.161.357,2.346.565,2.917-.241,1.1.018,4.863-.306,4.434a17.805,17.805,0,0,0,.023-3.007c-.146-1.666-.214-.241-.277,1.185-.065,1.517-.128,3.033-.275.826.17,4.1.155,9.19.266,13.851.072.217.148.46.227.711-.073-.178-.146-.355-.223-.529q.018.749.042,1.48.074.238.141.484c-.047-.119-.092-.245-.137-.375.029.9.065,1.777.11,2.619l.133-3.146c-.047,2.5.023,8.409-.133,8.851-.038-1.856-.034-4.025-.1-6.4-.365-.114,0,5.705-.223,5.97l.605,6.9.02-3.021a29.187,29.187,0,0,1,.085,2.927l.034-.137.1.565a2.284,2.284,0,0,1-.131-.386c-.008,1.779-.066,4.024-.116,6.245l0,.025.708-9.4C4.183,765.969,5.074,768.648,3.877,772.99Zm1.808-10.346q-.03-.352-.078-.7l-.218-.14Q5.543,762.221,5.685,762.643ZM7.058,693.4c0-.019,0-.039,0-.058-.086-2.688-.137-5.376-.475-2.408,0,.487,0,.947.009,1.383.02-.254.041-.493.054-.71C6.729,692.1,6.927,692.771,7.058,693.4ZM4.246,672.8c.085.606.157,1.164.22,1.68a81.2,81.2,0,0,1,.2-8.435l.209.569a22.95,22.95,0,0,0-.11-4.939c-.025-3.694-.32-7.382-.045-8.189l.194,1.4c-.024-1.782-.042-2.943-.056-4.04a17.714,17.714,0,0,0,0,3.142c-.2-1.513-.763-2.556-.752-4.041.24-.089.5-.5.737-.969-.009-1.192-.014-2.627-.014-4.853a2.692,2.692,0,0,0,.1.7c-.295-4.131-.512-7.992-.668-11.524A9.756,9.756,0,0,0,4.2,634.6l-.491-2.8c.232-.359.38-.441.47-.345-.205-5.226-.272-9.653-.254-13.063-.317,1.17-.563,6.584-.693,9.152l-.362-2.278.286-1.422-.329-3.954c-.243,1.106-.193,4.3-.38,6.433.07.187.49,7.021.713,8.932l.229-5.016c-.068,2.134.01,8.5.095,11.146.182.055.461-4.9.067-5.519.106-.238.173.548.229,1.335.086,1.163.158,2.327.329.174.288,4.279.047,11.081-.085,14.238l-.45.535q0,.09-.008.176l.265,3.3a14.509,14.509,0,0,1,.027,2.981c-.047-2.656-.182-2.288-.3-1.922-.11.333-.209.664-.225-1.247-.171,1.284-.479.025-.446,4.058.6,3.357-.373,4.25.155,7.424-.083.914-.162.613-.23.312-.092-.4-.166-.793-.211,1.578.313,4.784.54,4.508.974,4.805.121-4.474-.565-5.029-.459-8.687l.745,7.278a28.265,28.265,0,0,0,.091-3A32.918,32.918,0,0,0,4.246,672.8Zm2.942-33.619c-.147-.957-.312-1.863-.484-2.76C6.759,639.371,6.852,641.668,7.188,639.182ZM4.705,613.568l.07.178c.095-5,.464-12.763.117-15.9l.167.884c.293-5.783-.608-12.585.032-15.254.133.129.142-.2.173-.52.029-.294.074-.59.25-.541l-.286-4.257.166.884L5.313,571.8,5.38,572c-.331-3.444-.6-6.14-.821-8.295a.23.23,0,0,0-.063.005c-.112.021-.162.042-.261-.937-.073-1.033-.089-1.844-.077-2.562-.208-.632-.231-.906.01-.418.041-1.214.164-2.165.264-3.393-.924-.784-.9-4.294-1.011-7.534C2.9,552.3,3,562.1,3.076,565.782l.234,3.253c.223-.278-.032-6.214.259-4.127l.088,5.073-.14-.393c-.031,1.68.119,3.4.2,4.932-.263-1.578-.157-5.233-.538-4.508-.077,2.381-.216,2.743-.144,4.936-.027-.479-.065-.891-.117-.831-.033.946-.036,1.7-.02,2.31l.429.949-.421-.683a14.957,14.957,0,0,0,.56,3.287c.284,2.792.393.743.51-1.376-.025-.191-.046-.372-.065-.547.025.147.049.3.07.451.083-1.525.171-3.049.335-2.79l.212,14.146c-.124-1.207-.248-2.424-.4-1.968-.178,3.468-.3.079-.279,4.951.522-.349.324,6.133.626,9.573-.214,1.61-.254,1.939-.261-1.576-.338.4-.209,5.124-.241,6.8.086.974.135,2.632.209,3.683.057-.476.119-.723.182-.723C4.485,610.6,4.61,611.55,4.705,613.568Zm.361-52.71c.091-.555.175-1.407.246-2.638.009,1.349.221,1.915.252.245-.072-.183-.173-4.414-.389-2.8-.019-1.215-.008-2.572.017-4.041a28.028,28.028,0,0,0-.641,4.858l-.01-.006.015,2.435a.232.232,0,0,1,.124-.043C4.957,558.867,5.045,559.628,5.067,560.858ZM3.609,545.994c-.888-8.807,1.672-1.28,1.167-9.22l-.1-.116c.032-.118.043-.24.068-.359l0,.019,0-.062c-.054-.206-.086-.338-.133-.53l.853.967c0-2.185-.045-4.4-.144-6.584.124,2.236.2,1.09.261-.056.07-1.33.11-2.658.169,1.291.432-5.408-.427-4.654-.36-10.167.155-.47-.02,3,.288,4.268.076-4.015-.049-7.48-.2-10.852-.086.272-.195.546-.3.827-.021.167-.044.341-.068.524q-.018-.129-.037-.25a6.348,6.348,0,0,0-.337,1.154c.056-.685.034-1.647.048-2.52-.242-.772-.511-.836-.794-.569,0,.04,0,.079,0,.119l-.006-.115a1.369,1.369,0,0,0-.111.122c-.306,6.106.679,12.016.167,19.474a64.013,64.013,0,0,0-.932-7.833l.218,4.1c-.421-1.136-.2,2.952-.223,5.961l-.5-2.654c.13-1.636.187-5.632.111-6.266a80.839,80.839,0,0,0,.458-10.174c-.34.4-.2,8.664-.756,4.976.234,3.252-.106,3.653.014,7.053-.232-3.259-.461-.8-.709-3.232l.115,5.573c-.045.056-.095-1.2-.162-2.464-.106-1.922-.257-3.845-.506-1.087.178,2.234-.045,8.2.319,8.3l-.112.137c-.079,4.178.518,1.837.311,6.968.182.062.308-.918.272-2.755-.081-1.554-.333-1.793-.385-4.992.133-.678.135.144.146.969.016.919.047,1.839.3.669.241-1.1-.207-8.446.335-6.105l-.079,4.168c.367.109.344,3.127.639,3.042.135,2.551-.277,4.957.043,7.562.075.344.171.388.261.426-.018-.143-.037-.282-.058-.417A3.265,3.265,0,0,1,3.609,545.994Zm1.31-6.19c.162.942.318,1.984.483,2.8.025-1.276.045-2.582.054-3.9H5.432C5.245,538.7,5.063,538.926,4.919,539.8Zm-.243-27.413c.333-.3.639-.592.7.2l.006.011c-.1-2.138-.2-4.275-.251-6.528L4.9,504.754l.2-.457c-.011-1.029-.01-2.088.006-3.185l.338-.38c-.043-1.679-.09-3.542-.14-5.482-.747,2.659-1.409,5.58-1.332,17.342C4.158,512.838,4.425,512.615,4.676,512.392Zm2.75-5.642a2.569,2.569,0,0,0,.206-.545c-.049-.54-.1-.99-.167-1.335a3.505,3.505,0,0,0,.606-1.581c.065-.637.132-1.368.205-2.2q.022.436.04.84.024-.167.047-.341c-.233-3.031-.325-3.405-.484-3.765-.082.192-.2.294-.364.246a2.935,2.935,0,0,0,.179-.688,8.575,8.575,0,0,1-.26-.935l-.362-7.986.335,1.784c.071-1.927,0-3.816-.034-5.221a.3.3,0,0,1-.464.079c-.135,2.192-.306,3.84-.5,5.162.007.282.016.6.023.858.356-1.233.637,5.23,1,7.511-.365-.111-.218,3.8-.405,5.918.133.357.281.45.434.328Q7.441,505.815,7.426,506.75Zm-3.792-7.4a39.437,39.437,0,0,0-.129-4.866l-.589-2.066v.006C3.1,496.321,3.278,500.406,3.634,499.35ZM3.08,474.193c.5,2.669.569,10.739.8,8.295,0-2.181-.27-5.115.056-6.87l.106,4.231.272-2.776c-.1,1.434.169,1.295.569.636q-.047-2.116-.095-4.284a11.475,11.475,0,0,1-.31,2.928,20.551,20.551,0,0,1-.22-5.025c.227-.082.368.219.447.71l-.22-4.143c-.131,3.151-.5,5.228-.675.817.05.136.106.046.16-.044.092-.153.18-.307.234.659.121-1.77.24-4.805.206-6.592a8.03,8.03,0,0,1-.287-1.065,7.721,7.721,0,0,1,.284.918c-.027-1.1-.119-1.658-.316-1.007.481,5.679-.65,1.323-.293,5.785-.331-2.394-.182-4.766-.329-7.028.277,2.353.628-.55.761-4.085-.081-1.54,0-5.705-.137-8.265-.1.3-.191.259-.268.22-.153-.083-.25-.164-.3,2.633a58.4,58.4,0,0,1,.014-6.546,15.84,15.84,0,0,0,.2,2.762c.286-1.71.275-3.713.4-4.819-.02-.883-.034-1.772-.052-2.637a4.4,4.4,0,0,1-.106.641l-.277-2.929c.148,3.9-.144,1.8-.326,1.753.364.106.047-2.512.036-3.847l-.385,2.9c-.194-1.4.279-4.951-.1-4.22-.153,6.156-.088,8.522.027,14.086l.3-2.258c.211,6.281-.515,3.873-.5,10.919.263,2.8.04,9.933.5,10.681A35.742,35.742,0,0,0,3.08,474.193Zm1.692-1.459,0-.221c0,.03,0,.059,0,.089S4.771,472.689,4.773,472.734Zm-.786-38.685c-.023-1.245-.045-2.487-.065-3.717-.043.47-.1.7-.2.437C3.625,434.3,3.816,433.5,3.987,434.048Zm-.2-16.8c.3,3.1,1.427,13.1,1.526,12.989a40.375,40.375,0,0,0,.05-4.692l-.2.786c.065-6.241.182-12.533.236-18.527-.862,10.82-1.514,18.426-1.5.368l-.061-1.182C3.735,409.353,3.722,413.424,3.785,417.251ZM3.751,401.93c.112.31.155-.715.191-1.864q.014-1.926.036-4.106a2.115,2.115,0,0,1-.18-.823c-.054,1.436-.162,2.394-.43,1.813.583-3.688-.414-3.3-.266-7.291-.306-1.268-.3,4.435-.18,5.645a40.97,40.97,0,0,1,.45,4.49l.435.7c-.107.065-.24-.085-.424-.569A5,5,0,0,0,3.751,401.93Zm3.378-1.853q.007-.166.015-.315-.014-.068-.027-.14ZM4.05,366.788a37.22,37.22,0,0,0,.219-6.931c-.011.5-.034,1.013-.07,1.557.026,2.279-.167,2.128-.353,1.751C3.894,364.283,3.96,365.476,4.05,366.788Zm.326-1.732c0,.159.009.215.011.365.014-.835.025-1.672.04-2.545C4.4,363.214,4.379,363.859,4.377,365.057Zm-.628-5,.047-1.874c-.028.159-.05.337-.068.529C3.733,359.152,3.74,359.6,3.749,360.053Zm.49-2.586c-.014-1.935.011-3.866.165-5.5-.038,2.057.027,3.794.113,5.482q.036-2.192.074-4.481a71.521,71.521,0,0,1-.142-8c-.324,2.606-.355.979-.386-1.1a4.941,4.941,0,0,1-.087-1.383c-.044-.848-.1-.861-.168-.5a25.381,25.381,0,0,1,.236,3.2c.07,1.832.115,3.666.238,3.389l-.119,4.5c-.163-.162-.148-4.034-.237-5.673-.011,1.222-.049,2.433-.112,3.545L3.735,349.8C3.671,352.427,4.1,354.6,4.239,357.466Zm4.755-3.64c.47-3.544.545-11.248.488-17.972l-.2,2.961L9.273,335.3l-.36,3.407c.059-3.143-.019-5.884-.011-8.713-.036,3.141-.453,4.288-.382,2.393.331-3.932-.216-4.1-.2-7.1-.032,1.672-.036,3.847-.229,2.443.4-5.922.142-7.521.574-12.908-.563.668-.056-6.729-.518-7.535l-.047,2.5-.235-3.663c-.077-.228-.149-.516-.222-.815.1,1.373.156,2.919.119,4.88-.153-1.719-.22,3.8-.515,3.875-.281,7.132.806,11.812.383,18.569-.07-.211-.263-1.575-.335.4.081,1.555.045,4.279.079,5.943l-.009-.051c0,.032,0,.051.009.086a3.877,3.877,0,0,0,.124,1.348c.288,2.848.585,4.315.828,9.922.337-.412.207-5.143.1-7.192l-.333-1.772c.509-1.693-.09-5.055.083-6.345C8.773,338.33,8.627,348.017,8.994,353.826Zm-4.256-9.54q.014-.795.028-1.6l-.1-.825q-.034.464-.067.926c-.008.43-.016.839-.024,1.223A.6.6,0,0,0,4.738,344.286ZM3.69,330.517c0-.155,0-.3,0-.445l-.007-.011C3.685,330.2,3.688,330.352,3.69,330.517Zm4.494-26.83c.113.856.2,1.712.371-2.318a55.659,55.659,0,0,0-.319-7.269c-.1.564-.209,1.153-.291,1.769a1.235,1.235,0,0,0,.259.322,7.564,7.564,0,0,1-.4,1.877.613.613,0,0,0,.268.05l.015,4.97A5.269,5.269,0,0,1,8.184,303.687ZM2.031,278.224q-.008-.218-.019-.441c-.044-.219-.084-.271-.121-.218C1.935,277.763,1.982,277.984,2.031,278.224ZM2.8,261.231a17.819,17.819,0,0,1,.156-3.738c-.033-2.054.034-3.076.049-4.077,0-.07,0-.139,0-.209-.042-.38-.079-.777-.114-1.162a1.754,1.754,0,0,0-.739-1.033,56.476,56.476,0,0,0,.133,8.5Zm3.933-74.008a10.258,10.258,0,0,0,.5-2.476c-.064-.107-.3-3.571-.447-5.19-.061,3.345.439,6.006.016,7.056.081-4.337-.045-3.532-.187-2.728-.106.588-.223,1.178-.272-.252,0,.244,0,.489,0,.734A19.814,19.814,0,0,1,6.732,187.223Zm.5-2.528a58.614,58.614,0,0,0-.036-12A106.518,106.518,0,0,0,7.235,184.694ZM6.114,123.837a30.251,30.251,0,0,0,.441-4.058c-.149.592-.208-.337-.225-1.777l-.39-1.171.143,5.759a.851.851,0,0,1,.015.624Zm.583-6.131a6.414,6.414,0,0,0,0-2.969C6.692,115.7,6.693,116.7,6.7,117.706ZM3.956,32.125ZM4.971,797.638q0,.039,0,.078C4.974,797.69,4.972,797.664,4.971,797.638ZM6.731,749.4c.01.1.018.213.024.316Zm.325-29.761c.029.169.077.292.113.453l-.016.1Zm-3.117-50.6q0,.083.005.167Q3.943,669.118,3.94,669.034Zm-2.778-6.878c0,.054.009.117.013.19Q1.168,662.247,1.162,662.155Zm2.245-32.366-.02.446C3.392,630.055,3.4,629.9,3.407,629.789Zm3.9-3.822a20.285,20.285,0,0,1,.072,2.322A13.515,13.515,0,0,1,7.306,625.967Zm.506-28.558c-.1.923-.254,1.522-.463,1.6A7.83,7.83,0,0,1,7.813,597.409ZM4.725,574.427a7.213,7.213,0,0,1-.11,3.986C4.275,577.4,4.725,575.91,4.725,574.427Zm-.115-1.117a5.339,5.339,0,0,1,.171,1.411C4.723,574.332,4.66,573.867,4.611,573.311Zm.662-44.12q.024.459.045.919C5.3,529.85,5.288,529.546,5.272,529.19Zm-2.595-2.607c.011-.013.02.017.028.082,0,.011-.007.016-.011.016S2.681,526.65,2.678,526.583Zm2.05-9.735c-.011.138-.026.266-.045.378A3.553,3.553,0,0,1,4.727,516.848Zm2.829-3.493a11.243,11.243,0,0,1,.072,1.865C7.594,514.526,7.574,513.956,7.556,513.355Zm-.1-8.513.005.029-.006,0C7.459,504.865,7.459,504.853,7.459,504.842Zm.869-17.25q-.016.1-.032.208C8.307,487.721,8.318,487.652,8.329,487.592ZM7.3,476.853a16.867,16.867,0,0,1-.07,1.967Zm-4.046-9.524c.024-.063.047-.048.068.062A.126.126,0,0,1,3.254,467.329Zm3.839-9.249c.09.454.139.838.209,1.261A5.5,5.5,0,0,1,7.093,458.08Zm-5.906-.5c0,.041,0,.083.006.124C1.19,457.665,1.188,457.624,1.186,457.582Zm6.206-2.538a2.848,2.848,0,0,1,.288.41.088.088,0,0,1-.068.043C7.531,455.5,7.444,455.329,7.392,455.045Zm-.137-58.774.306-.717.585,3.393-.306.7Zm.913-119.729q.03.121.061.251C8.207,276.717,8.187,276.633,8.168,276.542ZM1.019,262.584l.2,1.148A6.012,6.012,0,0,1,1.019,262.584Zm1.073-10.153.16-.359.585,3.4-.16.358ZM1.063,233.757a4.039,4.039,0,0,1-.172.728A6.113,6.113,0,0,1,1.063,233.757Zm6.5-90.1c-.041,1.693-.124,3.084-.234,4.34Zm-.05-7.963a14.181,14.181,0,0,1,.07-3.324c.188,1.119.571,3.326-.041,3.325Zm-.884-22.865c.009-.178.074-.111.164.086Zm-.016-27.6L7.4,111.116C6.919,99.554,6.818,92.676,6.613,85.229ZM3.67,74.313c0,.137.006.271.009.406C3.674,74.594,3.671,74.459,3.67,74.313Zm3.279-25.68-.52,2A4.7,4.7,0,0,1,6.949,48.633Z" transform="translate(0)" fill="#d8d9bc" stroke="rgba(0,0,0,0)" stroke-miterlimit="10" stroke-width="1"/>
  </g>
</svg>
